<svg width="16" height="16" viewBox="0 0 16 16" fill="none" xmlns="http://www.w3.org/2000/svg">
<path fill-rule="evenodd" clip-rule="evenodd" d="M7.15755 3.74547C7.87414 3.6989 8.52164 3.7888 9.12695 4.21031C9.46855 4.44823 9.69833 4.72624 9.86003 5.0469C10.091 5.50522 9.67515 5.98961 9.16992 5.99547C9.14292 5.99577 9.11577 5.99573 9.08919 5.99612C8.75577 6.00096 8.49166 5.75565 8.26953 5.50198C7.8832 5.0608 7.09827 5.06207 6.67773 5.44924C6.12927 5.95423 6.00595 6.31396 5.95898 7.015C6.21608 6.65392 7.00006 6.33336 7.66667 6.33336C8.33333 6.33336 9.46229 6.6326 10.0098 7.83531C10.114 8.0643 10.1678 8.27462 10.2116 8.52802C10.4613 10.1464 9.48028 11.5104 7.8776 11.7038C5.60453 11.9779 4.49196 10.3691 4.39844 8.23049C4.31089 6.22661 4.87402 4.00123 7.15755 3.74547ZM7.28646 7.79885C6.62038 7.87899 6.14232 8.49279 6.21745 9.17255C6.29275 9.85234 6.89301 10.3429 7.5599 10.2696C8.23123 10.1954 8.71503 9.57835 8.63932 8.89391C8.56355 8.20943 7.95711 7.71847 7.28646 7.79885Z" fill="black"/>
<path d="M2.64258 3.85419C3.1311 3.85419 3.50904 4.2601 3.50911 4.80927V10.6602C3.50911 11.1975 3.13115 11.6153 2.64258 11.6153C2.14298 11.6152 1.75456 11.2094 1.75456 10.6602V6.31383L1.32161 6.57685C1.16616 6.67237 0.999242 6.72008 0.832682 6.72008C0.333179 6.72001 0.000148945 6.27826 0 5.80081C0 5.45454 0.177984 5.13182 0.5 4.94078L2.17643 3.97333C2.30961 3.90176 2.48722 3.85423 2.64258 3.85419Z" fill="black"/>
<path d="M13.3691 5.00003C13.6962 5.00016 13.9615 5.26535 13.9616 5.59247V7.07424H15.4076C15.7348 7.07432 16 7.33947 16 7.66669C16 7.99392 15.7348 8.25906 15.4076 8.25914H13.9616V9.74091C13.9615 10.0681 13.6963 10.3332 13.3691 10.3334C13.0419 10.3334 12.7761 10.0681 12.776 9.74091V8.25914H11.2591C10.9319 8.25906 10.6667 7.99392 10.6667 7.66669C10.6667 7.33947 10.9319 7.07432 11.2591 7.07424H12.776V5.59247C12.7761 5.26527 13.0419 5.00003 13.3691 5.00003Z" fill="black"/>
</svg>
