<svg width="24" height="24" viewBox="0 0 24 24" fill="none" xmlns="http://www.w3.org/2000/svg">
<g clip-path="url(#clip0_38531_24083)">
<path fill-rule="evenodd" clip-rule="evenodd" d="M10.7363 5.6182C11.8112 5.54835 12.7825 5.68319 13.6904 6.31547C14.2028 6.67234 14.5475 7.08936 14.79 7.57035C15.1365 8.25783 14.5127 8.98441 13.7549 8.9932C13.7144 8.99366 13.6737 8.9936 13.6338 8.99418C13.1337 9.00145 12.7375 8.63347 12.4043 8.25297C11.8248 7.5912 10.6474 7.59311 10.0166 8.17387C9.1939 8.93135 9.00892 9.47094 8.93848 10.5225C9.32412 9.98087 10.5001 9.50004 11.5 9.50004C12.5 9.50004 14.1934 9.9489 15.0146 11.753C15.171 12.0965 15.2517 12.4119 15.3174 12.792C15.6919 15.2196 14.2204 17.2656 11.8164 17.5557C8.4068 17.9669 6.73793 15.5536 6.59766 12.3457C6.46634 9.33991 7.31104 6.00184 10.7363 5.6182ZM10.9297 11.6983C9.93056 11.8185 9.21348 12.7392 9.32617 13.7588C9.43912 14.7785 10.3395 15.5144 11.3398 15.4043C12.3468 15.2932 13.0725 14.3675 12.959 13.3409C12.8453 12.3141 11.9357 11.5777 10.9297 11.6983Z" fill="black"/>
<path d="M3.96387 5.78129C4.69666 5.78129 5.26355 6.39015 5.26367 7.2139V15.9903C5.26367 16.7962 4.69673 17.4229 3.96387 17.4229C3.21447 17.4227 2.63184 16.8141 2.63184 15.9903V9.47074L1.98242 9.86527C1.74924 10.0086 1.49886 10.0801 1.24902 10.0801C0.499769 10.08 0.000223417 9.41739 0 8.70121C0 8.18181 0.266976 7.69774 0.75 7.41117L3.26465 5.96C3.46442 5.85265 3.73084 5.78134 3.96387 5.78129Z" fill="black"/>
<path d="M20.0537 7.50004C20.5444 7.50024 20.9422 7.89803 20.9424 8.38871V10.6114H23.1113C23.6021 10.6115 24 11.0092 24 11.5C24 11.9909 23.6021 12.3886 23.1113 12.3887H20.9424V14.6114C20.9423 15.1021 20.5444 15.4998 20.0537 15.5C19.5629 15.5 19.1642 15.1022 19.1641 14.6114V12.3887H16.8887C16.3979 12.3886 16 11.9909 16 11.5C16 11.0092 16.3979 10.6115 16.8887 10.6114H19.1641V8.38871C19.1642 7.89791 19.5629 7.50004 20.0537 7.50004Z" fill="black"/>
</g>
<defs>
<clipPath id="clip0_38531_24083">
<rect width="24" height="24" fill="white"/>
</clipPath>
</defs>
</svg>
