<svg width="16" height="16" viewBox="0 0 16 16" fill="none" xmlns="http://www.w3.org/2000/svg">
<path d="M12.6158 7.0959H11.4798C11.1048 7.0959 10.8002 7.4005 10.8002 7.77546C10.8002 8.15042 11.1048 8.45503 11.4798 8.45503H12.6158V9.5871C12.6158 9.96206 12.9196 10.2667 13.2954 10.2667C13.6704 10.2667 13.975 9.96206 13.975 9.5871V8.45503H15.1206C15.4956 8.45503 15.8002 8.15042 15.8002 7.77546C15.8002 7.4005 15.4956 7.0959 15.1206 7.0959H13.975V5.94623C13.975 5.57127 13.6704 5.26667 13.2954 5.26667C12.9196 5.26667 12.6158 5.57127 12.6158 5.94623V7.0959Z" fill="black"/>
<path fill-rule="evenodd" clip-rule="evenodd" d="M9.4675 7.85672C9.97828 7.46269 10.2892 6.88955 10.2892 6.23284C10.2892 4.93134 9.12327 4 7.5354 4C5.94753 4 4.78161 4.93134 4.78161 6.23284C4.78161 6.88955 5.09252 7.46269 5.6033 7.85672C4.98148 8.27463 4.60394 8.90746 4.60394 9.64776C4.60394 10.997 5.84759 12 7.5354 12C9.22321 12 10.4669 10.997 10.4669 9.64776C10.4669 8.90746 10.0893 8.27463 9.4675 7.85672ZM7.5354 5.5403C6.92468 5.5403 6.52494 5.92239 6.52494 6.44776C6.52494 6.94925 6.92468 7.3194 7.5354 7.3194C8.14612 7.3194 8.54587 6.94925 8.54587 6.44776C8.54587 5.92239 8.14612 5.5403 7.5354 5.5403ZM6.38058 9.45672C6.38058 10.0179 6.84695 10.4478 7.5354 10.4478C8.22385 10.4478 8.69022 10.0179 8.69022 9.45672C8.69022 8.9194 8.21275 8.51343 7.5354 8.51343C6.85806 8.51343 6.38058 8.9194 6.38058 9.45672Z" fill="black"/>
<path d="M2.84295 4.11939C2.68749 4.11939 2.50983 4.16716 2.37658 4.2388L0.699876 5.20596C0.377859 5.39701 0.200195 5.7194 0.200195 6.06566C0.200195 6.54328 0.533316 6.98507 1.033 6.98507C1.19956 6.98507 1.36612 6.9373 1.52157 6.84178L1.95463 6.5791V10.9254C1.95463 11.4746 2.34327 11.8806 2.84295 11.8806C3.33153 11.8806 3.70906 11.4627 3.70906 10.9254V5.07462C3.70906 4.52536 3.33153 4.11939 2.84295 4.11939Z" fill="black"/>
</svg>
