<svg width="24" height="24" viewBox="0 0 24 24" fill="none" xmlns="http://www.w3.org/2000/svg">
<path fill-rule="evenodd" clip-rule="evenodd" d="M13.901 11.3866C14.6671 10.7956 15.1335 9.93589 15.1335 8.95082C15.1335 6.99858 13.3846 5.60156 11.0028 5.60156C8.621 5.60156 6.87212 6.99858 6.87212 8.95082C6.87212 9.93589 7.33849 10.7956 8.10466 11.3866C7.17193 12.0135 6.60562 12.9628 6.60562 14.0732C6.60562 16.0971 8.4711 17.6016 11.0028 17.6016C13.5345 17.6016 15.4 16.0971 15.4 14.0732C15.4 12.9628 14.8337 12.0135 13.901 11.3866ZM9.48711 9.2732C9.48711 8.48514 10.0867 7.91201 11.0028 7.91201C11.9189 7.91201 12.5185 8.48514 12.5185 9.2732C12.5185 10.0254 11.9189 10.5807 11.0028 10.5807C10.0867 10.5807 9.48711 10.0254 9.48711 9.2732ZM11.0028 15.2732C9.97014 15.2732 9.27059 14.6284 9.27059 13.7866C9.27059 12.9807 9.98679 12.3717 11.0028 12.3717C12.0188 12.3717 12.735 12.9807 12.735 13.7866C12.735 14.6284 12.0355 15.2732 11.0028 15.2732ZM3.96413 5.78067C3.73095 5.78067 3.46445 5.85231 3.26458 5.95977L0.749521 7.41052C0.266496 7.69708 0 8.18067 0 8.70007C0 9.41649 0.49968 10.0792 1.2492 10.0792C1.49904 10.0792 1.74888 10.0075 1.98207 9.86425L2.63165 9.47022V15.9896C2.63165 16.8135 3.21461 17.4225 3.96413 17.4225C4.697 17.4225 5.2633 16.7956 5.2633 15.9896V7.2135C5.2633 6.38962 4.697 5.78067 3.96413 5.78067ZM19.1644 8.39045C19.1644 7.89953 19.5624 7.50156 20.0533 7.50156C20.5443 7.50156 20.9422 7.89953 20.9422 8.39045V10.6127H23.1111C23.602 10.6127 24 11.0106 24 11.5016C24 11.9925 23.602 12.3905 23.1111 12.3905H20.9422V14.6127C20.9422 15.1036 20.5443 15.5016 20.0533 15.5016C19.5624 15.5016 19.1644 15.1036 19.1644 14.6127V12.3905H16.8889C16.398 12.3905 16 11.9925 16 11.5016C16 11.0106 16.398 10.6127 16.8889 10.6127H19.1644V8.39045Z" fill="black"/>
<path fill-rule="evenodd" clip-rule="evenodd" d="M15.1335 8.95082C15.1335 9.93589 14.6671 10.7956 13.901 11.3866C14.8337 12.0135 15.4 12.9628 15.4 14.0732C15.4 16.0971 13.5345 17.6016 11.0028 17.6016C8.4711 17.6016 6.60562 16.0971 6.60562 14.0732C6.60562 12.9628 7.17193 12.0135 8.10466 11.3866C7.33849 10.7956 6.87212 9.93589 6.87212 8.95082C6.87212 6.99858 8.621 5.60156 11.0028 5.60156C13.3846 5.60156 15.1335 6.99858 15.1335 8.95082ZM11.0028 7.91201C10.0867 7.91201 9.48711 8.48514 9.48711 9.2732C9.48711 10.0254 10.0867 10.5807 11.0028 10.5807C11.9189 10.5807 12.5185 10.0254 12.5185 9.2732C12.5185 8.48514 11.9189 7.91201 11.0028 7.91201ZM9.27059 13.7866C9.27059 14.6284 9.97014 15.2732 11.0028 15.2732C12.0355 15.2732 12.735 14.6284 12.735 13.7866C12.735 12.9807 12.0188 12.3717 11.0028 12.3717C9.98679 12.3717 9.27059 12.9807 9.27059 13.7866Z" fill="black"/>
<path d="M3.26458 5.95977C3.46445 5.85231 3.73095 5.78067 3.96413 5.78067C4.697 5.78067 5.2633 6.38962 5.2633 7.2135V15.9896C5.2633 16.7956 4.697 17.4225 3.96413 17.4225C3.21461 17.4225 2.63165 16.8135 2.63165 15.9896V9.47022L1.98207 9.86425C1.74888 10.0075 1.49904 10.0792 1.2492 10.0792C0.49968 10.0792 0 9.41649 0 8.70007C0 8.18067 0.266496 7.69708 0.749521 7.41052L3.26458 5.95977Z" fill="black"/>
<path d="M20.0533 7.50156C19.5624 7.50156 19.1644 7.89953 19.1644 8.39045V10.6127H16.8889C16.398 10.6127 16 11.0106 16 11.5016C16 11.9925 16.398 12.3905 16.8889 12.3905H19.1644V14.6127C19.1644 15.1036 19.5624 15.5016 20.0533 15.5016C20.5443 15.5016 20.9422 15.1036 20.9422 14.6127V12.3905H23.1111C23.602 12.3905 24 11.9925 24 11.5016C24 11.0106 23.602 10.6127 23.1111 10.6127H20.9422V8.39045C20.9422 7.89953 20.5443 7.50156 20.0533 7.50156Z" fill="black"/>
</svg>
