<svg width="24" height="24" viewBox="0 0 24 24" fill="none" xmlns="http://www.w3.org/2000/svg">
<path fill-rule="evenodd" clip-rule="evenodd" d="M22.9999 19.9694C22.9999 19.7123 22.8978 19.4658 22.716 19.2839C22.5342 19.1021 22.2876 19 22.0305 19C18.3963 19 5.60353 19 1.96933 19C1.71223 19 1.46563 19.1021 1.28383 19.2839C1.10203 19.4658 0.999927 19.7123 0.999927 19.9694C0.999927 19.9898 0.999927 20.0102 0.999927 20.0306C0.999927 20.2877 1.10203 20.5342 1.28383 20.7161C1.46563 20.8979 1.71223 21 1.96933 21C5.60353 21 18.3963 21 22.0305 21C22.2876 21 22.5342 20.8979 22.716 20.7161C22.8978 20.5342 22.9999 20.2877 22.9999 20.0306C22.9999 20.0102 22.9999 19.9898 22.9999 19.9694ZM6.97043 14.8132C7.59533 14.8132 8.10263 15.3205 8.10263 15.9453C8.10263 16.5702 7.59533 17.0774 6.97043 17.0774C6.34563 17.0774 5.83833 16.5702 5.83833 15.9453C5.83833 15.3205 6.34563 14.8132 6.97043 14.8132ZM18.332 12.0442L16.2819 15.5951C16.0242 16.0414 16.1771 16.6121 16.6234 16.8698L16.6286 16.8728C17.0749 17.1305 17.6456 16.9776 17.9033 16.5312L19.3792 13.9749L20.7865 16.5696C21.0322 17.0226 21.5987 17.1907 22.0517 16.945L22.0569 16.9422C22.5099 16.6964 22.678 16.13 22.4323 15.677L20.4774 12.0728L22.5275 8.5219C22.7852 8.0755 22.6323 7.5048 22.1859 7.2471L22.1808 7.2442C21.7345 6.9865 21.1638 7.1394 20.9061 7.5857L19.4302 10.142L18.0229 7.5474C17.7772 7.0943 17.2107 6.9263 16.7577 7.172L16.7525 7.1748C16.2995 7.4205 16.1314 7.987 16.3771 8.44L18.332 12.0442ZM14.711 7.9907C14.711 7.6348 14.5455 7.3743 14.3035 7.2436C14.1308 7.1519 13.9718 7.1352 13.564 7.1352H10.2195C9.95383 7.1352 9.61943 7.1391 9.36773 7.396C9.11653 7.6524 9.11263 7.9931 9.11263 8.2638V11.7318C9.11263 12.0535 9.19903 12.3387 9.38113 12.5245C9.56533 12.7126 9.77043 12.7716 10.0255 12.7716C10.2513 12.7716 10.3851 12.7347 10.5192 12.6555C10.6574 12.5708 10.7687 12.4718 10.8793 12.3449C11.124 12.0689 11.4275 11.932 11.8917 11.932C12.1413 11.932 12.3427 11.985 12.5021 12.0895C12.8799 12.3371 13.019 12.8658 13.019 13.6228C13.019 14.2284 12.9654 14.7289 12.6654 15.035C12.4605 15.2441 12.2037 15.3272 11.8516 15.3272C11.5858 15.3272 11.3788 15.283 11.2131 15.1719C11.0473 15.0607 10.9237 14.8833 10.8212 14.6217C10.6964 14.2963 10.6189 14.1837 10.4734 14.0564C10.3313 13.9261 10.1754 13.8663 9.89843 13.8663C9.64303 13.8663 9.40943 13.9545 9.25333 14.121C9.09143 14.2934 8.99893 14.5227 8.99893 14.8243C8.99893 15.433 9.32023 15.9861 9.73153 16.35C10.3023 16.8424 10.9614 17.0383 11.8516 17.0383C12.8993 17.0383 13.5791 16.6689 14.0077 16.2314C14.7199 15.5047 14.8648 14.7441 14.8648 13.6228C14.8648 12.6954 14.7471 11.7619 13.9943 10.9936C13.6053 10.5965 12.9847 10.3301 12.186 10.3301C11.571 10.3301 11.0861 10.5214 10.7917 10.75L10.7912 8.8463H13.564C13.9718 8.8463 14.1304 8.8297 14.3031 8.7381C14.5451 8.6073 14.711 8.3466 14.711 7.9907ZM1.20703 10.6677C1.45643 10.9149 1.76443 11.0065 2.03513 10.912C2.22763 10.8489 2.34623 10.7589 2.63613 10.4631L3.12173 9.9755V15.7459C3.12173 16.1881 3.14423 16.3633 3.24053 16.5598C3.37533 16.835 3.66513 17.011 4.04123 17.011C4.41743 17.011 4.70723 16.835 4.84203 16.5598C4.93833 16.3633 4.96083 16.1881 4.96083 15.7459V8.2843C4.96083 7.9295 4.93623 7.6041 4.69283 7.3487C4.53043 7.1828 4.29713 7.0806 4.01453 7.0806C3.59833 7.0806 3.29903 7.291 3.04233 7.553L1.40773 9.2119C1.11793 9.5076 1.02973 9.6354 0.967627 9.8326C0.882327 10.1083 0.965427 10.421 1.20703 10.6677ZM22.9999 3.9694C22.9999 3.7123 22.8978 3.4658 22.716 3.2839C22.5342 3.1021 22.2876 3 22.0305 3C18.3963 3 5.60353 3 1.96933 3C1.71223 3 1.46563 3.1021 1.28383 3.2839C1.10203 3.4658 0.999927 3.7123 0.999927 3.9694C0.999927 3.9898 0.999927 4.0102 0.999927 4.0306C0.999927 4.2877 1.10203 4.5342 1.28383 4.7161C1.46563 4.8979 1.71223 5 1.96933 5C5.60353 5 18.3963 5 22.0305 5C22.2876 5 22.5342 4.8979 22.716 4.7161C22.8978 4.5342 22.9999 4.2877 22.9999 4.0306C22.9999 4.0102 22.9999 3.9898 22.9999 3.9694Z" fill="black"/>
</svg>
