<svg width="16" height="16" viewBox="0 0 16 16" fill="none" xmlns="http://www.w3.org/2000/svg">
<path fill-rule="evenodd" clip-rule="evenodd" d="M16 14.099C16 13.7294 15.7004 13.4298 15.3308 13.4298C12.7252 13.4298 3.2748 13.4298 0.6692 13.4298C0.2996 13.4298 0 13.7294 0 14.099C0 14.1715 0 14.2451 0 14.3175C0 14.6872 0.2996 14.9868 0.6692 14.9868C3.2748 14.9868 12.7252 14.9868 15.3308 14.9868C15.7004 14.9868 16 14.6872 16 14.3175C16 14.2451 16 14.1715 16 14.099ZM12.6051 8.03162L11.1039 10.6317C11.0166 10.7829 10.993 10.9626 11.0382 11.1312C11.0833 11.2998 11.1937 11.4436 11.3448 11.5309C11.3579 11.5384 11.371 11.5459 11.384 11.5535C11.5352 11.6408 11.7149 11.6644 11.8835 11.6192C12.0521 11.5741 12.1959 11.4637 12.2831 11.3126L13.3667 9.43572L14.4 11.3407C14.4832 11.4942 14.624 11.6083 14.7914 11.658C14.9587 11.7076 15.1389 11.6887 15.2924 11.6055C15.3056 11.5983 15.3189 11.5911 15.3322 11.5839C15.4856 11.5007 15.5997 11.3599 15.6494 11.1926C15.699 11.0252 15.6802 10.845 15.5969 10.6915L14.1655 8.05232L15.6667 5.45212C15.754 5.30102 15.7776 5.12132 15.7324 4.95272C15.6873 4.78412 15.5769 4.64032 15.4258 4.55302C15.4127 4.54552 15.3996 4.53792 15.3866 4.53042C15.2354 4.44312 15.0557 4.41942 14.8871 4.46462C14.7185 4.50982 14.5747 4.62012 14.4875 4.77132L13.4039 6.64822L12.3706 4.74312C12.2874 4.58972 12.1466 4.47562 11.9792 4.42592C11.8119 4.37632 11.6317 4.39512 11.4782 4.47842C11.465 4.48562 11.4517 4.49282 11.4384 4.49992C11.285 4.58322 11.1709 4.72402 11.1212 4.89132C11.0716 5.05872 11.0904 5.23892 11.1737 5.39232L12.6051 8.03162ZM10.045 5.08362C10.045 4.81892 9.9215 4.62542 9.7415 4.52822C9.6143 4.46072 9.4973 4.44772 9.1972 4.44772H6.7648C6.5685 4.44772 6.3217 4.45162 6.1356 4.64152C5.9501 4.83092 5.9462 5.08232 5.9462 5.28222V7.80432C5.9462 8.04222 6.0107 8.25302 6.1454 8.39042C6.2822 8.53012 6.4343 8.57422 6.6238 8.57422C6.7912 8.57422 6.8903 8.54662 6.9897 8.48782C7.0914 8.42562 7.1736 8.35262 7.255 8.25922C7.4304 8.06132 7.6482 7.96362 7.981 7.96362C8.1594 7.96362 8.3035 8.00122 8.4175 8.07592C8.6892 8.25402 8.7872 8.63502 8.7872 9.17962C8.7872 9.61582 8.75 9.97661 8.5339 10.1972C8.3874 10.3467 8.2036 10.4056 7.9518 10.4056C7.7617 10.4056 7.6136 10.3744 7.495 10.2949C7.3765 10.2154 7.2885 10.0882 7.2152 9.90122C7.1232 9.66142 7.0658 9.57862 6.9585 9.48472C6.8529 9.38802 6.7372 9.34312 6.5313 9.34312C6.3416 9.34312 6.1682 9.40892 6.0522 9.53262C5.9323 9.66032 5.8635 9.83012 5.8635 10.0534C5.8635 10.5001 6.0991 10.9062 6.4009 11.1732C6.8184 11.5334 7.3007 11.6773 7.9518 11.6773C8.7186 11.6773 9.216 11.4065 9.5297 11.0864C10.0502 10.5551 10.1569 9.99932 10.1569 9.17962C10.1569 8.50172 10.0702 7.81952 9.5199 7.25802C9.2348 6.96702 8.7803 6.77132 8.1951 6.77132C7.7591 6.77132 7.4124 6.90272 7.1947 7.06292L7.1943 5.71942H9.1972C9.4973 5.71942 9.614 5.70662 9.7412 5.63912C9.9212 5.54192 10.045 5.34832 10.045 5.08362ZM0.4038 7.04002C0.5893 7.22402 0.8188 7.29132 1.0203 7.22102C1.1616 7.17462 1.2492 7.10892 1.4625 6.89132L1.7923 6.56012V10.7237C1.7923 11.0486 1.8094 11.1772 1.8801 11.3216C1.9803 11.5261 2.1953 11.6574 2.4748 11.6574C2.7542 11.6574 2.9692 11.5261 3.0694 11.3216C3.1401 11.1772 3.1572 11.0486 3.1572 10.7237V5.29712C3.1572 5.03532 3.138 4.79562 2.9585 4.60722C2.838 4.48422 2.6649 4.40802 2.4553 4.40802C2.1485 4.40802 1.9277 4.56262 1.7385 4.75562L0.5497 5.96212C0.3365 6.17972 0.2721 6.27402 0.2264 6.41902C0.163 6.62392 0.2241 6.85662 0.4038 7.04002ZM4.4974 9.96252C4.9519 9.96252 5.3208 10.3315 5.3208 10.7859C5.3208 11.2403 4.9519 11.6092 4.4974 11.6092C4.043 11.6092 3.6741 11.2403 3.6741 10.7859C3.6741 10.3315 4.043 9.96252 4.4974 9.96252ZM16 1.64772C16 1.47032 15.9295 1.30002 15.804 1.17452C15.6785 1.04902 15.5083 0.978516 15.3308 0.978516C12.7252 0.978516 3.2748 0.978516 0.6692 0.978516C0.4917 0.978516 0.3215 1.04902 0.196 1.17452C0.0705 1.30002 0 1.47032 0 1.64772C0 1.72042 0 1.79432 0 1.86692C0 2.04442 0.0705 2.21462 0.196 2.34012C0.3215 2.46562 0.4917 2.53622 0.6692 2.53622C3.2748 2.53622 12.7252 2.53622 15.3308 2.53622C15.5083 2.53622 15.6785 2.46562 15.804 2.34012C15.9295 2.21462 16 2.04442 16 1.86692C16 1.79432 16 1.72042 16 1.64772Z" fill="black"/>
</svg>
