<svg width="16" height="16" viewBox="0 0 16 16" fill="none" xmlns="http://www.w3.org/2000/svg">
<path fill-rule="evenodd" clip-rule="evenodd" d="M16 14.099C16 13.7294 15.7004 13.4298 15.3308 13.4298C12.7252 13.4298 3.2748 13.4298 0.6692 13.4298C0.2996 13.4298 0 13.7294 0 14.099C0 14.1715 0 14.2451 0 14.3175C0 14.6872 0.2996 14.9868 0.6692 14.9868C3.2748 14.9868 12.7252 14.9868 15.3308 14.9868C15.7004 14.9868 16 14.6872 16 14.3175C16 14.2451 16 14.1715 16 14.099ZM3.83882 7.00901C4.02982 7.19101 4.26592 7.25811 4.47332 7.18851C4.61922 7.14251 4.70962 7.07721 4.92972 6.86121L5.27442 6.52841V10.67C5.27442 10.9935 5.29212 11.1215 5.36542 11.2652C5.46872 11.468 5.69022 11.5985 5.97832 11.5985C6.26652 11.5985 6.48802 11.468 6.59132 11.2652C6.66452 11.1215 6.68222 10.9935 6.68222 10.67V5.27551C6.68222 5.01491 6.66252 4.77641 6.47662 4.58881C6.35242 4.46691 6.17412 4.39141 5.95822 4.39141C5.64172 4.39141 5.41412 4.54491 5.21902 4.73631L3.98972 5.93571C3.76922 6.15201 3.70262 6.24591 3.65532 6.39011C3.58962 6.59421 3.65272 6.82631 3.83882 7.00901ZM10.2059 6.47822L11.1593 4.72032C11.2462 4.56002 11.3933 4.44082 11.5681 4.38902C11.7429 4.33712 11.9311 4.35682 12.0914 4.44372C12.1122 4.45502 12.1329 4.46632 12.1537 4.47752C12.314 4.56442 12.4332 4.71152 12.485 4.88632C12.5369 5.06112 12.5172 5.24942 12.4302 5.40962L11.054 7.94712L12.4973 10.4471C12.5885 10.605 12.6132 10.7926 12.566 10.9687C12.5188 11.1449 12.4036 11.295 12.2456 11.3862C12.2252 11.398 12.2047 11.4098 12.1843 11.4216C12.0264 11.5128 11.8387 11.5375 11.6626 11.4903C11.4865 11.4431 11.3363 11.3279 11.2451 11.17L10.2453 9.43812L9.2918 11.196C9.2049 11.3563 9.0578 11.4754 8.883 11.5273C8.7082 11.5792 8.52 11.5595 8.3597 11.4725C8.3389 11.4613 8.3182 11.45 8.2974 11.4388C8.1371 11.3518 8.018 11.2048 7.9661 11.03C7.9142 10.8552 7.9339 10.6669 8.0209 10.5066L9.3972 7.96922L7.9538 5.46922C7.8626 5.31132 7.8379 5.12372 7.8851 4.94752C7.9323 4.77142 8.0475 4.62122 8.2055 4.53012C8.2259 4.51832 8.2464 4.50642 8.2668 4.49462C8.4247 4.40352 8.6124 4.37882 8.7885 4.42602C8.9646 4.47322 9.1148 4.58842 9.206 4.74632L10.2059 6.47822ZM16 1.64772C16 1.47032 15.9295 1.30002 15.804 1.17452C15.6785 1.04902 15.5083 0.978516 15.3308 0.978516C12.7252 0.978516 3.2748 0.978516 0.6692 0.978516C0.4917 0.978516 0.3215 1.04902 0.196 1.17452C0.0705 1.30002 0 1.47032 0 1.64772C0 1.72042 0 1.79432 0 1.86692C0 2.04442 0.0705 2.21462 0.196 2.34012C0.3215 2.46562 0.4917 2.53622 0.6692 2.53622C3.2748 2.53622 12.7252 2.53622 15.3308 2.53622C15.5083 2.53622 15.6785 2.46562 15.804 2.34012C15.9295 2.21462 16 2.04442 16 1.86692C16 1.79432 16 1.72042 16 1.64772Z" fill="black"/>
</svg>
