<svg width="24" height="24" viewBox="0 0 24 24" fill="none" xmlns="http://www.w3.org/2000/svg">
<path fill-rule="evenodd" clip-rule="evenodd" d="M23 19.9694C23 19.7123 22.8979 19.4658 22.7161 19.2839C22.5343 19.1021 22.2877 19 22.0306 19C18.3964 19 5.6036 19 1.9694 19C1.7123 19 1.4657 19.1021 1.2839 19.2839C1.1021 19.4658 1 19.7123 1 19.9694C1 19.9898 1 20.0102 1 20.0306C1 20.2877 1.1021 20.5342 1.2839 20.7161C1.4657 20.8979 1.7123 21 1.9694 21C5.6036 21 18.3964 21 22.0306 21C22.2877 21 22.5343 20.8979 22.7161 20.7161C22.8979 20.5342 23 20.2877 23 20.0306C23 20.0102 23 19.9898 23 19.9694ZM5.0874 10.7003C5.3444 10.9452 5.6615 11.0364 5.9406 10.9427C6.1394 10.88 6.2618 10.7907 6.5612 10.4969L7.0669 10.0087V15.7476C7.0669 16.1876 7.0903 16.3619 7.1899 16.5575C7.3291 16.8305 7.6279 17.0055 8.016 17.0055C8.4041 17.0055 8.703 16.8305 8.8421 16.5575C8.9418 16.3619 8.9652 16.1876 8.9652 15.7476V8.33C8.9652 7.977 8.9397 7.6533 8.6878 7.399C8.5203 7.2345 8.2797 7.1331 7.9884 7.1331C7.5587 7.1331 7.25 7.3422 6.985 7.6021L5.2949 9.2512C4.9951 9.5453 4.9039 9.6725 4.8397 9.8686C4.7514 10.1431 4.8371 10.4547 5.0874 10.7003ZM14.477 9.9083L15.7838 7.499C16.0351 7.0358 16.6143 6.8639 17.0775 7.1152C17.1008 7.1278 17.1242 7.1405 17.1476 7.1532C17.6108 7.4044 17.7826 7.9836 17.5314 8.4469L15.6432 11.9281L17.6234 15.3579C17.8868 15.8142 17.7305 16.3978 17.2741 16.6613C17.2511 16.6746 17.2281 16.6879 17.2051 16.7011C16.7487 16.9646 16.1651 16.8083 15.9017 16.3519L14.5312 13.9782L13.2245 16.3875C12.9732 16.8507 12.394 17.0226 11.9308 16.7713C11.9074 16.7587 11.8841 16.746 11.8607 16.7333C11.3975 16.4821 11.2257 15.9029 11.4769 15.4397L13.3651 11.9584L11.3849 8.5287C11.1214 8.0723 11.2778 7.4887 11.7342 7.2252C11.7572 7.212 11.7802 7.1987 11.8032 7.1854C12.2596 6.9219 12.8431 7.0783 13.1066 7.5346L14.477 9.9083ZM23 3.9694C23 3.7123 22.8979 3.4658 22.7161 3.2839C22.5343 3.1021 22.2877 3 22.0306 3C18.3964 3 5.6036 3 1.9694 3C1.7123 3 1.4657 3.1021 1.2839 3.2839C1.1021 3.4658 1 3.7123 1 3.9694C1 3.9898 1 4.0102 1 4.0306C1 4.2877 1.1021 4.5342 1.2839 4.7161C1.4657 4.8979 1.7123 5 1.9694 5C5.6036 5 18.3964 5 22.0306 5C22.2877 5 22.5343 4.8979 22.7161 4.7161C22.8979 4.5342 23 4.2877 23 4.0306C23 4.0102 23 3.9898 23 3.9694Z" fill="black"/>
</svg>
