<svg width="16" height="16" viewBox="0 0 16 16" fill="none" xmlns="http://www.w3.org/2000/svg">
<path fill-rule="evenodd" clip-rule="evenodd" d="M16 14.099C16 13.7294 15.7004 13.4298 15.3308 13.4298C12.7252 13.4298 3.2748 13.4298 0.6692 13.4298C0.2996 13.4298 0 13.7294 0 14.099C0 14.1715 0 14.2451 0 14.3175C0 14.6872 0.2996 14.9868 0.6692 14.9868C3.2748 14.9868 12.7252 14.9868 15.3308 14.9868C15.7004 14.9868 16 14.6872 16 14.3175C16 14.2451 16 14.1715 16 14.099ZM7.6592 10.936C7.6592 10.6597 7.5287 10.4582 7.3397 10.3568C7.2086 10.2877 7.088 10.2731 6.7786 10.2731H5.0802L6.6794 8.32332C7.3179 7.54842 7.6003 7.15382 7.6003 6.33292C7.6003 5.67542 7.3748 5.16642 6.9843 4.82082C6.5963 4.47752 6.043 4.29512 5.3786 4.29512C4.694 4.29512 4.2329 4.47642 3.8323 4.81072C3.4461 5.13452 3.2158 5.63162 3.2158 6.03902C3.2158 6.23112 3.2655 6.40102 3.3846 6.54922C3.5068 6.70132 3.6723 6.77162 3.9 6.77162C4.0835 6.77162 4.2273 6.71292 4.3107 6.64522L4.3127 6.64362C4.4239 6.54692 4.5093 6.42922 4.5835 6.24652C4.6707 6.02312 4.7737 5.86382 4.9079 5.76262C5.0395 5.66342 5.2008 5.62082 5.4031 5.62082C5.6519 5.62082 5.8444 5.69802 5.9739 5.83102C6.1029 5.96352 6.1682 6.14992 6.1682 6.36282C6.1682 6.79292 5.9905 7.07352 5.6936 7.44152L3.5225 10.1115C3.3188 10.3604 3.1667 10.5745 3.1667 10.8712C3.1667 11.0871 3.2442 11.2639 3.3641 11.3861C3.5506 11.5856 3.804 11.5988 4.0915 11.5988H6.7786C7.088 11.5988 7.2081 11.5846 7.3392 11.5154C7.5282 11.4139 7.6592 11.2122 7.6592 10.936ZM11.0083 6.45552L11.9617 4.69762C12.0487 4.53742 12.1957 4.41822 12.3705 4.36632C12.5453 4.31442 12.7336 4.33422 12.8939 4.42112C12.9146 4.43232 12.9354 4.44362 12.9561 4.45492C13.1164 4.54182 13.2356 4.68882 13.2874 4.86362C13.3393 5.03852 13.3196 5.22672 13.2327 5.38702L11.8564 7.92452L13.2997 10.4244C13.3909 10.5823 13.4156 10.77 13.3684 10.9461C13.3212 11.1222 13.206 11.2724 13.0481 11.3636C13.0276 11.3754 13.0072 11.3872 12.9867 11.399C12.8288 11.4901 12.6412 11.5148 12.465 11.4677C12.2889 11.4205 12.1387 11.3052 12.0476 11.1473L11.0477 9.41552L10.0942 11.1733C10.0073 11.3336 9.8603 11.4528 9.6854 11.5047C9.5106 11.5565 9.3224 11.5368 9.1621 11.4499C9.1414 11.4386 9.1206 11.4274 9.0998 11.4161C8.9396 11.3292 8.8204 11.1821 8.7685 11.0073C8.7167 10.8325 8.7364 10.6443 8.8233 10.484L10.1996 7.94652L8.7562 5.44662C8.6651 5.28872 8.6404 5.10102 8.6876 4.92492C8.7347 4.74872 8.85 4.59862 9.0079 4.50742C9.0283 4.49562 9.0488 4.48382 9.0692 4.47202C9.2271 4.38082 9.4148 4.35612 9.5909 4.40332C9.7671 4.45052 9.9172 4.56572 10.0084 4.72362L11.0083 6.45552ZM16 1.64772C16 1.47032 15.9295 1.30002 15.804 1.17452C15.6785 1.04902 15.5083 0.978516 15.3308 0.978516C12.7252 0.978516 3.2748 0.978516 0.6692 0.978516C0.4917 0.978516 0.3215 1.04902 0.196 1.17452C0.0705 1.30002 0 1.47032 0 1.64772C0 1.72042 0 1.79432 0 1.86692C0 2.04442 0.0705 2.21462 0.196 2.34012C0.3215 2.46562 0.4917 2.53622 0.6692 2.53622C3.2748 2.53622 12.7252 2.53622 15.3308 2.53622C15.5083 2.53622 15.6785 2.46562 15.804 2.34012C15.9295 2.21462 16 2.04442 16 1.86692C16 1.79432 16 1.72042 16 1.64772Z" fill="black"/>
</svg>
