<svg width="24" height="24" viewBox="0 0 24 24" fill="none" xmlns="http://www.w3.org/2000/svg">
<path fill-rule="evenodd" clip-rule="evenodd" d="M23 19.9694C23 19.7123 22.898 19.4658 22.716 19.2839C22.534 19.1021 22.288 19 22.031 19C18.396 19 5.604 19 1.9694 19C1.7123 19 1.4657 19.1021 1.2839 19.2839C1.1021 19.4658 1 19.7123 1 19.9694C1 19.9898 1 20.0102 1 20.0306C1 20.2877 1.1021 20.5342 1.2839 20.7161C1.4657 20.8979 1.7123 21 1.9694 21C5.604 21 18.396 21 22.031 21C22.288 21 22.534 20.8979 22.716 20.7161C22.898 20.5342 23 20.2877 23 20.0306C23 20.0102 23 19.9898 23 19.9694ZM11.041 16.0378C11.041 15.67 10.868 15.4013 10.617 15.2662L10.616 15.2659C10.439 15.1725 10.277 15.1545 9.859 15.1545H7.464L9.7 12.4275C10.573 11.3687 10.96 10.8303 10.96 9.7085C10.96 8.8138 10.654 8.1208 10.123 7.6505C9.594 7.1825 8.839 6.9347 7.933 6.9347C7 6.9347 6.371 7.1814 5.825 7.6371C5.301 8.0768 4.988 8.7513 4.988 9.3044C4.988 9.562 5.054 9.7897 5.214 9.9884C5.376 10.1909 5.597 10.2836 5.9 10.2836C6.145 10.2836 6.336 10.2062 6.447 10.1161L6.449 10.1145C6.599 9.9842 6.714 9.8254 6.814 9.5792L6.815 9.5783C6.937 9.2652 7.081 9.0438 7.269 8.9019C7.455 8.7621 7.682 8.7013 7.967 8.7013C8.318 8.7013 8.59 8.8112 8.772 8.9988C8.954 9.186 9.047 9.4489 9.047 9.7496C9.047 10.3479 8.801 10.7387 8.389 11.2505L5.403 14.9219C5.128 15.2586 4.92 15.5474 4.92 15.9487C4.92 16.2375 5.024 16.4741 5.184 16.6373C5.435 16.906 5.777 16.9211 6.164 16.9211H9.859C10.277 16.9211 10.439 16.9031 10.616 16.8097L10.617 16.8094C10.868 16.6743 11.041 16.4056 11.041 16.0378ZM16.014 9.8772L17.321 7.4679C17.572 7.0046 18.152 6.8328 18.615 7.084C18.638 7.0967 18.661 7.1094 18.685 7.122C19.148 7.3733 19.32 7.9525 19.069 8.4157L17.18 11.897L19.161 15.3267C19.424 15.7831 19.268 16.3666 18.811 16.6301C18.788 16.6434 18.765 16.6567 18.742 16.67C18.286 16.9335 17.702 16.7771 17.439 16.3207L16.068 13.9471L14.762 16.3564C14.51 16.8196 13.931 16.9914 13.468 16.7402C13.445 16.7275 13.421 16.7149 13.398 16.7022C12.935 16.4509 12.763 15.8717 13.014 15.4085L14.902 11.9273L12.922 8.4975C12.659 8.0411 12.815 7.4576 13.271 7.1941C13.294 7.1808 13.317 7.1675 13.34 7.1542C13.797 6.8908 14.38 7.0471 14.644 7.5035L16.014 9.8772ZM23 3.9694C23 3.7123 22.898 3.4658 22.716 3.2839C22.534 3.1021 22.288 3 22.031 3C18.396 3 5.604 3 1.9694 3C1.7123 3 1.4657 3.1021 1.2839 3.2839C1.1021 3.4658 1 3.7123 1 3.9694C1 3.9898 1 4.0102 1 4.0306C1 4.2877 1.1021 4.5342 1.2839 4.7161C1.4657 4.8979 1.7123 5 1.9694 5C5.604 5 18.396 5 22.031 5C22.288 5 22.534 4.8979 22.716 4.7161C22.898 4.5342 23 4.2877 23 4.0306C23 4.0102 23 3.9898 23 3.9694Z" fill="black"/>
</svg>
