<svg width="24" height="24" viewBox="0 0 24 24" fill="none" xmlns="http://www.w3.org/2000/svg">
<path fill-rule="evenodd" clip-rule="evenodd" d="M10.5003 2.40173C11.4284 1.86609 12.5716 1.86609 13.4997 2.40173L19.4997 5.86493C20.4281 6.40075 21 7.39123 21 8.46322V15.5732C21 16.6465 20.4267 17.6378 19.4968 18.1732L13.9956 21.3399C12.7603 22.051 11.2398 22.0511 10.0044 21.3399L4.50331 18.1733C3.57342 17.6379 3 16.6465 3 15.5732V8.46322C3 7.39124 3.57193 6.40077 4.5003 5.86494L10.5003 2.40173ZM11.5001 4.13391L6.01595 7.29936L5.5001 7.59711C5.19069 7.77569 5 8.10582 5 8.46322V9.02221V15.5732C5 15.9309 5.19104 16.2614 5.50109 16.44L11 19.6053L11.0022 19.6066C11.6198 19.9621 12.3801 19.9622 12.9978 19.6066L13 19.6053L18.4988 16.44C18.8089 16.2614 19 15.9309 19 15.5732V9.0224V8.46322C19 8.10582 18.8093 7.7757 18.4999 7.59712L17.9842 7.29946L12.4999 4.13391C12.1906 3.95536 11.8094 3.95537 11.5001 4.13391Z" fill="black"/>
<path d="M6.01595 7.29936L5.5001 7.59711C5.19069 7.77569 5 8.10582 5 8.46322V9.02221L11 12.4863V12C11 11.4477 11.4477 11 12 11C12.5523 11 13 11.4477 13 12V12.4865L19 9.0224V8.46322C19 8.10582 18.8093 7.7757 18.4999 7.59712L17.9842 7.29946L12.0002 10.7544L6.01595 7.29936Z" fill="black"/>
<path d="M11.5002 12.7751C11.8096 12.9538 12.1908 12.9538 12.5002 12.7751L13 12.4865V12C13 11.4477 12.5523 11 12 11C11.4477 11 11 11.4477 11 12V12.4863L11.5002 12.7751Z" fill="black"/>
<path d="M11 19.6053L11.0022 19.6066C11.6198 19.9621 12.3801 19.9622 12.9978 19.6066L13 19.6053V12.4865L12.5002 12.7751C12.1908 12.9538 11.8096 12.9538 11.5002 12.7751L11 12.4863V19.6053Z" fill="black"/>
</svg>
