<svg width="16" height="16" viewBox="0 0 16 16" fill="none" xmlns="http://www.w3.org/2000/svg">
<path fill-rule="evenodd" clip-rule="evenodd" d="M9.14152 15.379C10.288 14.7234 12.4737 13.4735 13.6262 12.8145C14.3418 12.4053 14.7836 11.6444 14.7844 10.8201L14.7896 5.56434C14.7904 4.73524 14.3449 3.96994 13.6236 3.56114L9.13582 1.01774C8.43272 0.619338 7.57212 0.619038 6.86882 1.01714L2.37462 3.56104C1.65272 3.96964 1.20672 4.73534 1.20752 5.56484L1.21272 10.8199C1.21352 11.6444 1.65562 12.4054 2.37142 12.8145C3.52452 13.4736 5.71152 14.7236 6.85842 15.3792C7.56582 15.7835 8.43432 15.7834 9.14152 15.379ZM13.1891 6.05054L13.1844 10.8185C13.1842 11.0694 13.0497 11.301 12.8319 11.4255L8.79722 13.7327V8.58364L13.1891 6.05054ZM2.80802 6.03014L7.19722 8.58184V13.7299L3.16532 11.4254C2.94752 11.3009 2.81292 11.0693 2.81272 10.8183L2.80802 6.03014ZM12.3579 4.68284L7.99882 7.19714L3.65762 4.67334L7.65702 2.40954C7.87102 2.28844 8.13292 2.28854 8.34692 2.40974L12.3579 4.68284Z" fill="black"/>
</svg>
