<svg width="16" height="16" viewBox="0 0 16 16" fill="none" xmlns="http://www.w3.org/2000/svg">
<path fill-rule="evenodd" clip-rule="evenodd" d="M7.28347 3.04688H3.55647C3.10447 3.04688 2.72247 3.38187 2.66347 3.82987C2.66347 3.82987 2.49047 5.15287 2.27247 7.08187C2.23747 7.39087 2.36447 7.69588 2.60947 7.88888C2.85347 8.08187 3.17947 8.13487 3.47247 8.02887C4.25047 7.74787 5.10747 7.76787 5.66447 8.21187C5.99347 8.47388 6.18147 8.89387 6.18147 9.45687C6.18147 11.0769 4.03147 11.4639 2.69047 10.2599C2.32147 9.92887 1.75147 9.95888 1.42047 10.3289C1.08847 10.6989 1.11847 11.2679 1.48847 11.5999C4.04847 13.8969 7.98147 12.5489 7.98147 9.45687C7.98147 8.24187 7.49647 7.36987 6.78647 6.80387C6.10147 6.25787 5.17047 6.00388 4.20247 6.05888C4.25947 5.57987 4.30947 5.16887 4.34947 4.84687H7.28347C7.78047 4.84687 8.18347 4.44387 8.18347 3.94687C8.18347 3.45087 7.78047 3.04688 7.28347 3.04688ZM11.1515 7.13788H9.73047C9.26147 7.13788 8.88047 7.51888 8.88047 7.98787C8.88047 8.45687 9.26147 8.83787 9.73047 8.83787H11.1515V10.2539C11.1515 10.7229 11.5315 11.1039 12.0015 11.1039C12.4705 11.1039 12.8515 10.7229 12.8515 10.2539V8.83787H14.2845C14.7535 8.83787 15.1345 8.45687 15.1345 7.98787C15.1345 7.51888 14.7535 7.13788 14.2845 7.13788H12.8515V5.69987C12.8515 5.23087 12.4705 4.84987 12.0015 4.84987C11.5315 4.84987 11.1515 5.23087 11.1515 5.69987V7.13788Z" fill="black"/>
</svg>
