<svg width="24" height="24" viewBox="0 0 24 24" fill="none" xmlns="http://www.w3.org/2000/svg">
<path fill-rule="evenodd" clip-rule="evenodd" d="M12 2C6.48 2 2 6.481 2 12C2 17.519 6.48 22 12 22C17.52 22 22 17.519 22 12C22 6.481 17.52 2 12 2ZM12 4C16.42 4 20 7.585 20 12C20 16.415 16.42 20 12 20C7.58 20 4 16.415 4 12C4 7.585 7.58 4 12 4ZM11.24 7.737H8.08C7.6 7.737 7.2 8.09 7.14 8.563C7.14 8.563 6.99 9.687 6.8 11.325C6.77 11.651 6.9 11.974 7.16 12.177C7.42 12.381 7.76 12.437 8.07 12.325C8.99 11.993 10.12 12.235 10.12 13.362C10.12 14.585 8.48 14.813 7.47 13.904C7.08 13.554 6.48 13.586 6.13 13.976C5.78 14.367 5.81 14.968 6.2 15.318C8.5 17.381 12.02 16.138 12.02 13.362C12.02 12.263 11.58 11.476 10.93 10.965C10.37 10.516 9.62 10.285 8.84 10.287C8.87 10.044 8.89 9.826 8.92 9.637H11.24C11.76 9.637 12.19 9.211 12.19 8.687C12.19 8.162 11.76 7.737 11.24 7.737ZM14.56 11.048H13.54C13.02 11.048 12.59 11.473 12.59 11.998C12.59 12.522 13.02 12.948 13.54 12.948H14.56V13.96C14.56 14.484 14.98 14.91 15.51 14.91C16.03 14.91 16.46 14.484 16.46 13.96V12.948H17.48C18.01 12.948 18.43 12.522 18.43 11.998C18.43 11.473 18.01 11.048 17.48 11.048H16.46V10.017C16.46 9.492 16.03 9.067 15.51 9.067C14.98 9.067 14.56 9.492 14.56 10.017V11.048Z" fill="black"/>
</svg>
