<svg width="16" height="16" viewBox="0 0 16 16" fill="none" xmlns="http://www.w3.org/2000/svg">
<path fill-rule="evenodd" clip-rule="evenodd" d="M8.0002 0.699219C3.9712 0.699219 0.700195 3.97022 0.700195 7.99922C0.700195 12.0282 3.9712 15.2992 8.0002 15.2992C12.0292 15.2992 15.3002 12.0282 15.3002 7.99922C15.3002 3.97022 12.0292 0.699219 8.0002 0.699219ZM8.0002 2.29922C11.1462 2.29922 13.7002 4.85322 13.7002 7.99922C13.7002 11.1452 11.1462 13.6992 8.0002 13.6992C4.8542 13.6992 2.3002 11.1452 2.3002 7.99922C2.3002 4.85322 4.8542 2.29922 8.0002 2.29922ZM7.7602 4.66922H5.3002C4.9242 4.66922 4.6062 4.94822 4.5572 5.32122C4.5572 5.32122 4.4422 6.19622 4.2982 7.47022C4.2692 7.72722 4.3752 7.98222 4.5782 8.14322C4.7822 8.30322 5.0542 8.34722 5.2982 8.25922C6.0062 8.00422 6.8762 8.18722 6.8762 9.05522C6.8762 9.99722 5.61419 10.1692 4.8342 9.46922C4.5262 9.19222 4.0512 9.21822 3.7742 9.52622C3.4982 9.83422 3.5242 10.3082 3.8322 10.5852C5.6272 12.1962 8.3762 11.2242 8.3762 9.05522C8.3762 8.19622 8.0312 7.58222 7.5292 7.18222C7.0932 6.83422 6.5142 6.65322 5.9032 6.65222C5.9252 6.47322 5.9442 6.31122 5.9622 6.16922H7.7602C8.1742 6.16922 8.5102 5.83322 8.5102 5.41922C8.5102 5.00522 8.1742 4.66922 7.7602 4.66922ZM10.2662 7.24722H9.3552C8.9412 7.24722 8.6052 7.58322 8.6052 7.99722C8.6052 8.41122 8.9412 8.74722 9.3552 8.74722H10.2662V9.65522C10.2662 10.0692 10.6022 10.4052 11.0162 10.4052C11.4302 10.4052 11.7662 10.0692 11.7662 9.65522V8.74722H12.6862C13.1002 8.74722 13.4362 8.41122 13.4362 7.99722C13.4362 7.58322 13.1002 7.24722 12.6862 7.24722H11.7662V6.32422C11.7662 5.91022 11.4302 5.57422 11.0162 5.57422C10.6022 5.57422 10.2662 5.91022 10.2662 6.32422V7.24722Z" fill="black"/>
</svg>
