<svg width="12" height="12" viewBox="0 0 12 12" fill="none" xmlns="http://www.w3.org/2000/svg">
<path d="M8.75278 4.18377C8.75278 4.58099 9.07479 4.903 9.47201 4.903C9.86924 4.903 10.1912 4.58099 10.1912 4.18377V3.23885H11.1362C11.5334 3.23885 11.8554 2.91683 11.8554 2.51961C11.8554 2.12239 11.5334 1.80037 11.1362 1.80037H10.1912V0.855467C10.1912 0.458243 9.86924 0.13623 9.47201 0.13623C9.07479 0.13623 8.75278 0.458245 8.75278 0.855468V1.80037H7.80786C7.41064 1.80037 7.08862 2.12239 7.08862 2.51961C7.08862 2.91683 7.41064 3.23885 7.80786 3.23885H8.75278V4.18377Z" fill="black"/>
<path fill-rule="evenodd" clip-rule="evenodd" d="M6.72443 8.40179L7.54036 10.4511C7.70379 10.8616 8.16905 11.0619 8.57954 10.8984C8.99003 10.735 9.1903 10.2697 9.02687 9.85924L6.18281 2.71602C5.74796 1.62386 4.20207 1.62386 3.76723 2.71602L0.923169 9.85924C0.759734 10.2697 0.96001 10.735 1.3705 10.8984C1.78099 11.0619 2.24624 10.8616 2.40968 10.4511L3.2256 8.40179H6.72443ZM6.08739 6.80179L4.97502 4.00792L3.86264 6.80179H6.08739Z" fill="black"/>
</svg>
