<svg width="16" height="16" viewBox="0 0 16 16" fill="none" xmlns="http://www.w3.org/2000/svg">
<path d="M12.0374 6.38044C12.0374 6.82227 12.3955 7.18044 12.8374 7.18044C13.2792 7.18044 13.6374 6.82227 13.6374 6.38045V4.90194H15.1159C15.5577 4.90194 15.9159 4.54377 15.9159 4.10194C15.9159 3.66011 15.5577 3.30194 15.1159 3.30194H13.6374V1.82344C13.6374 1.38161 13.2792 1.02344 12.8374 1.02344C12.3955 1.02344 12.0374 1.38161 12.0374 1.82344V3.30194H10.5588C10.117 3.30194 9.75885 3.66011 9.75885 4.10194C9.75885 4.54377 10.117 4.90194 10.5588 4.90194H12.0374V6.38044Z" fill="black"/>
<path fill-rule="evenodd" clip-rule="evenodd" d="M8.8013 10.7723L9.55681 12.6698C9.72025 13.0803 10.1855 13.2806 10.596 13.1172C11.0065 12.9537 11.2068 12.4885 11.0433 12.078L7.9826 4.39058C7.49201 3.15841 5.74792 3.1584 5.25733 4.39058L2.19661 12.078C2.03317 12.4885 2.23345 12.9537 2.64394 13.1172C3.05442 13.2806 3.51968 13.0803 3.68312 12.6698L4.43863 10.7723H8.8013ZM8.16426 9.17226L6.61996 5.29357L5.07567 9.17226H8.16426Z" fill="black"/>
</svg>
