<svg width="24" height="24" viewBox="0 0 24 24" fill="none" xmlns="http://www.w3.org/2000/svg">
<path d="M18.2559 9.99137C18.2559 10.5437 18.7036 10.9914 19.2559 10.9914C19.8081 10.9914 20.2559 10.5437 20.2559 9.99137V7.37369H22.8737C23.426 7.37369 23.8737 6.92598 23.8737 6.37369C23.8737 5.82141 23.426 5.37369 22.8737 5.37369H20.2559V2.75586C20.2559 2.20357 19.8081 1.75586 19.2559 1.75586C18.7036 1.75586 18.2559 2.20358 18.2559 2.75586V5.37369H15.6382C15.0859 5.37369 14.6382 5.82141 14.6382 6.37369C14.6382 6.92598 15.0859 7.37369 15.6382 7.37369H18.2559V9.99137Z" fill="black"/>
<path fill-rule="evenodd" clip-rule="evenodd" d="M11.7877 6.88071C11.1187 5.20046 8.74045 5.20045 8.07146 6.88071L3.48038 18.4118C3.27608 18.9249 3.52643 19.5065 4.03954 19.7108C4.55265 19.9151 5.13422 19.6647 5.33852 19.1516L6.4424 16.3791H13.4168L14.5207 19.1516C14.725 19.6647 15.3066 19.9151 15.8197 19.7108C16.3328 19.5065 16.5831 18.9249 16.3788 18.4118L11.7877 6.88071ZM12.6205 14.3791L9.9296 7.62052L7.2387 14.3791H12.6205Z" fill="black"/>
</svg>
