<svg width="16" height="16" viewBox="0 0 16 16" fill="none" xmlns="http://www.w3.org/2000/svg">
<path fill-rule="evenodd" clip-rule="evenodd" d="M2.45636 2.43586L2.45236 2.44716C1.90436 3.99416 0.818359 7.27976 0.818359 8.43796C0.818359 9.48846 1.48236 10.7674 2.53536 11.9368C3.99336 13.5566 6.15936 14.9864 7.81436 15.3778C7.93536 15.4064 8.06036 15.4065 8.18136 15.3782C9.81936 14.9937 12.0064 13.5579 13.4844 11.936C14.5534 10.7632 15.2294 9.48136 15.2294 8.43796C15.2294 7.28656 14.1854 4.02426 13.6484 2.46596C13.3964 1.70576 12.7634 1.13406 11.9804 0.961856C11.9684 0.959056 11.9554 0.956556 11.9424 0.954456C11.1624 0.821956 9.83536 0.660156 7.98136 0.660156C6.13336 0.660156 4.85736 0.824956 4.11336 0.957256C4.09536 0.960356 4.07836 0.963956 4.06136 0.968156C3.31136 1.15316 2.70736 1.70606 2.45636 2.43586ZM2.41833 8.43796C2.41833 7.37766 3.46533 4.37906 3.96433 2.97076C3.96634 2.96696 3.96733 2.96316 3.96833 2.95936C4.03934 2.75076 4.20733 2.59036 4.41734 2.52896C5.11733 2.40556 6.29234 2.26016 7.98134 2.26016C9.68334 2.26016 10.9093 2.40386 11.6413 2.52616C11.8783 2.58386 12.0583 2.75086 12.1303 2.97106C12.1308 2.9731 12.1316 2.97511 12.1324 2.97711C12.1331 2.97904 12.1343 2.98286 12.1343 2.98286C12.6253 4.40706 13.6293 7.38356 13.6293 8.43796C13.6293 9.17476 13.0563 10.0302 12.3013 10.8584C11.1003 12.1775 9.36733 13.3841 7.99933 13.7726C6.62134 13.3804 4.90833 12.1816 3.72433 10.8663C2.98033 10.039 2.41833 9.18116 2.41833 8.43796Z" fill="black"/>
<path fill-rule="evenodd" clip-rule="evenodd" d="M8.01434 7.70136C8.61934 7.70136 9.16534 7.45426 9.56234 7.05776C9.95834 6.66116 10.2053 6.11516 10.2053 5.51056C10.2053 4.90596 9.95834 4.35986 9.56234 3.96336C9.16534 3.56676 8.61934 3.31976 8.01434 3.31976C7.41034 3.31976 6.86434 3.56676 6.46734 3.96336C6.07134 4.35986 5.82434 4.90596 5.82434 5.51056C5.82434 6.11516 6.07134 6.66116 6.46734 7.05776C6.86434 7.45426 7.41034 7.70136 8.01434 7.70136ZM8.64339 6.13904C8.80439 5.97794 8.90439 5.75614 8.90439 5.51054C8.90439 5.26494 8.80439 5.04304 8.64339 4.88194C8.48239 4.72084 8.26039 4.62054 8.01439 4.62054C7.76939 4.62054 7.54739 4.72084 7.38639 4.88194C7.22539 5.04304 7.12439 5.26494 7.12439 5.51054C7.12439 5.75614 7.22539 5.97794 7.38639 6.13904C7.54739 6.30014 7.76939 6.40054 8.01439 6.40054C8.26039 6.40054 8.48239 6.30014 8.64339 6.13904Z" fill="black"/>
<path d="M10.1364 7.60235L10.7324 8.41505C10.7624 8.45725 10.7564 8.51145 10.7144 8.54155C10.2144 8.95085 9.63037 9.22176 9.02237 9.36625L10.1724 11.5817C10.2024 11.6479 10.1604 11.7202 10.0884 11.7202H8.86037C8.82437 11.7202 8.78837 11.6961 8.76937 11.66L8.00537 9.82985L7.23437 11.6539C7.22237 11.6901 7.18637 11.7141 7.14437 11.7141H5.91637C5.84437 11.7141 5.80237 11.6359 5.83237 11.5757L6.98237 9.36625C6.37337 9.22176 5.79637 8.95085 5.29037 8.54155C5.25437 8.51145 5.24237 8.45125 5.27237 8.41505L5.86837 7.60235C5.90437 7.55425 5.96437 7.54815 6.00637 7.58435C6.56637 8.05995 7.25837 8.37295 7.99937 8.37295C8.73937 8.37295 9.42637 8.06595 9.99237 7.58435C10.0404 7.54815 10.1064 7.55425 10.1364 7.60235Z" fill="black"/>
</svg>
