<svg width="24" height="24" viewBox="0 0 24 24" fill="none" xmlns="http://www.w3.org/2000/svg">
<path fill-rule="evenodd" clip-rule="evenodd" d="M4.47811 3.57394L4.47511 3.58294C3.78111 5.51994 2.05811 10.5969 2.05811 12.3159C2.05811 13.7649 2.98111 15.5249 4.43311 17.1389C6.46011 19.3899 9.46911 21.3809 11.7691 21.9249C11.9201 21.9599 12.0771 21.9609 12.2281 21.9249C14.5061 21.3909 17.5451 19.3919 19.5991 17.1369C21.0731 15.5189 22.0141 13.7549 22.0141 12.3159C22.0141 10.6009 20.3431 5.52694 19.6631 3.58194C19.4091 2.83294 18.8001 2.24594 18.0321 2.01694C18.0101 2.00994 17.9881 2.00394 17.9651 1.99894C16.9991 1.78294 15.0581 1.46094 11.9751 1.46094C9.03411 1.46094 7.12311 1.79294 6.16511 2.01094C6.14211 2.01594 6.12011 2.02194 6.09811 2.02894C5.34211 2.25594 4.74111 2.83094 4.47811 3.57394ZM4.05811 12.3159C4.05811 10.7239 5.72011 6.03594 6.36111 4.24994C6.36211 4.24694 6.36311 4.24394 6.36411 4.24194C6.41011 4.10894 6.51311 4.00394 6.64311 3.95394C7.54911 3.75094 9.3021 3.46094 11.9751 3.46094C14.7801 3.46094 16.5651 3.73994 17.4771 3.93994C17.6201 3.98994 17.7261 4.09694 17.7721 4.23294C17.7731 4.23594 17.7741 4.23894 17.7751 4.24294C18.4061 6.04394 20.0141 10.7269 20.0141 12.3159C20.0141 13.3719 19.2031 14.6029 18.1211 15.7899C16.4111 17.6659 13.9411 19.3789 12.0011 19.9189C10.0471 19.3739 7.60411 17.6719 5.91911 15.7999C4.85211 14.6149 4.05811 13.3809 4.05811 12.3159Z" fill="black"/>
<path d="M15.0271 11.0019L15.8721 12.1549C15.9151 12.2149 15.9071 12.2919 15.8471 12.3349C15.1381 12.9159 14.3091 13.2999 13.4471 13.5049L15.0781 16.6479C15.1211 16.7419 15.0611 16.8449 14.9581 16.8449H13.2161C13.1651 16.8449 13.1131 16.8109 13.0881 16.7589L12.0031 14.1629L10.9101 16.7509C10.8931 16.8019 10.8411 16.8359 10.7821 16.8359H9.03912C8.93712 16.8359 8.87712 16.7249 8.91912 16.6399L10.5511 13.5049C9.68812 13.2999 8.86812 12.9159 8.15112 12.3349C8.09912 12.2919 8.08212 12.2069 8.12512 12.1549L8.97112 11.0019C9.02212 10.9339 9.10712 10.9249 9.16712 10.9769C9.96212 11.6509 10.9441 12.0959 11.9941 12.0959C13.0451 12.0959 14.0191 11.6599 14.8221 10.9769C14.8901 10.9249 14.9841 10.9339 15.0271 11.0019Z" fill="black"/>
<path fill-rule="evenodd" clip-rule="evenodd" d="M11.9941 11.2289C12.8531 11.2289 13.6291 10.8779 14.1921 10.3139C14.7561 9.75092 15.1071 8.97492 15.1071 8.11492C15.1071 7.25592 14.7561 6.47992 14.1921 5.91692C13.6291 5.35292 12.8531 5.00192 11.9941 5.00192C11.1341 5.00192 10.3581 5.35292 9.79513 5.91692C9.23113 6.47992 8.88013 7.25592 8.88013 8.11492C8.88013 8.97492 9.23113 9.75092 9.79513 10.3139C10.3581 10.8779 11.1341 11.2289 11.9941 11.2289ZM12.8871 9.00895C13.1161 8.77995 13.2581 8.46395 13.2581 8.11495C13.2581 7.76595 13.1161 7.45095 12.8871 7.22195C12.6581 6.99295 12.3431 6.85095 11.9941 6.85095C11.6451 6.85095 11.3291 6.99295 11.1001 7.22195C10.8721 7.45095 10.7291 7.76595 10.7291 8.11495C10.7291 8.46395 10.8721 8.77995 11.1001 9.00895C11.3291 9.23795 11.6451 9.37995 11.9941 9.37995C12.3431 9.37995 12.6581 9.23795 12.8871 9.00895Z" fill="black"/>
</svg>
