<svg width="24" height="24" viewBox="0 0 24 24" fill="none" xmlns="http://www.w3.org/2000/svg">
<path fill-rule="evenodd" clip-rule="evenodd" d="M15.95 15.95H13.8907C13.3112 15.95 12.8407 16.4205 12.8407 17C12.8407 17.5795 13.3112 18.05 13.8907 18.05H15.95V20.1093C15.95 20.6888 16.4205 21.1593 17 21.1593C17.5795 21.1593 18.05 20.6888 18.05 20.1093V18.05H20.1093C20.6888 18.05 21.1593 17.5795 21.1593 17C21.1593 16.4205 20.6888 15.95 20.1093 15.95H18.05V13.8907C18.05 13.3112 17.5795 12.8407 17 12.8407C16.4205 12.8407 15.95 13.3112 15.95 13.8907V15.95ZM11.4501 18.2964V15.2932C11.4501 13.802 10.2413 12.5932 8.75007 12.5932H5.74688C4.25568 12.5932 3.04688 13.802 3.04688 15.2932V18.2964C3.04688 19.7875 4.25568 20.9963 5.74688 20.9963H8.75007C10.2413 20.9963 11.4501 19.7875 11.4501 18.2964ZM9.45008 15.2931V18.2963C9.45008 18.683 9.13668 18.9963 8.75008 18.9963H5.74688C5.36028 18.9963 5.04688 18.683 5.04688 18.2964V15.2932C5.04688 14.9066 5.36028 14.5932 5.74688 14.5932H8.75008C9.13668 14.5932 9.45008 14.9066 9.45008 15.2931ZM21.0371 8.7032V5.7C21.0371 4.2088 19.8283 3 18.3371 3H15.3339C13.8427 3 12.6339 4.2088 12.6339 5.7V8.7032C12.6339 10.1944 13.8427 11.4032 15.3339 11.4032H18.3371C19.8283 11.4032 21.0371 10.1944 21.0371 8.7032ZM11.4501 8.7032V5.7C11.4501 4.2088 10.2413 3 8.75007 3H5.74688C4.25568 3 3.04688 4.2088 3.04688 5.7V8.7032C3.04688 10.1944 4.25568 11.4032 5.74688 11.4032H8.75007C10.2413 11.4032 11.4501 10.1944 11.4501 8.7032ZM9.45008 5.7V8.7032C9.45008 9.0898 9.13668 9.4032 8.75008 9.4032H5.74688C5.36028 9.4032 5.04688 9.0898 5.04688 8.7032V5.7C5.04688 5.3134 5.36028 5 5.74688 5H8.75008C9.13668 5 9.45008 5.3134 9.45008 5.7ZM19.0371 5.7V8.7032C19.0371 9.0898 18.7237 9.4032 18.3371 9.4032H15.3339C14.9473 9.4032 14.6339 9.0898 14.6339 8.7032V5.7C14.6339 5.3134 14.9473 5 15.3339 5H18.3371C18.7237 5 19.0371 5.3134 19.0371 5.7Z" fill="black"/>
</svg>
