<svg width="24" height="24" viewBox="0 0 24 24" fill="none" xmlns="http://www.w3.org/2000/svg">
<path fill-rule="evenodd" clip-rule="evenodd" d="M12.8298 19.4095C12.5098 19.4095 12.1898 19.3195 11.8998 19.1595L10.2498 18.2495L8.58978 19.1595C8.08978 19.4395 7.47978 19.4895 6.93978 19.2895C6.38978 19.0995 5.95978 18.6695 5.75978 18.1295L5.07978 16.3595L3.21978 15.9995C2.64978 15.8895 2.15978 15.5395 1.86978 15.0395C1.57978 14.5395 1.51978 13.9395 1.70978 13.3895L2.32978 11.5995L1.12978 10.1295C0.769781 9.67953 0.619781 9.08953 0.719781 8.51953C0.819781 7.94953 1.15978 7.44953 1.65978 7.14953L3.27978 6.17953L3.30978 4.28953C3.31978 3.70953 3.57978 3.15953 4.02978 2.78953C4.46978 2.41953 5.05978 2.24953 5.62978 2.34953L7.49978 2.63953L8.73978 1.20953C9.11978 0.779531 9.66978 0.519531 10.2498 0.519531C10.8298 0.519531 11.3798 0.779531 11.7598 1.20953L12.9998 2.63953L14.8698 2.34953C15.4398 2.24953 16.0198 2.41953 16.4698 2.78953C16.9098 3.15953 17.1698 3.70953 17.1798 4.28953L17.2098 6.17953L18.8398 7.14953C19.3298 7.44953 19.6798 7.94953 19.7798 8.51953C19.8798 9.08953 19.7298 9.67953 19.3598 10.1295L18.1798 11.5895L21.0198 12.5195C21.6898 12.7395 22.1998 13.2995 22.3498 13.9795C22.4998 14.6695 22.2898 15.3895 21.7798 15.8695L21.3298 16.2995L22.4598 17.4195C23.5198 18.4895 23.5198 20.2095 22.4598 21.2795L21.8798 21.8595C20.8098 22.9195 19.0898 22.9195 18.0198 21.8595L16.8998 20.7295L16.4998 21.1495C16.0198 21.6595 15.2998 21.8695 14.6198 21.7195C13.9298 21.5695 13.3798 21.0695 13.1598 20.3995L12.8298 19.4095ZM15.0498 19.7695L12.3998 11.7995L20.3998 14.4195L18.4698 16.2595C18.4698 16.2595 20.1598 17.9595 21.0398 18.8395C21.3298 19.1195 21.3298 19.5795 21.0398 19.8695C20.8598 20.0495 20.6498 20.2595 20.4598 20.4395C20.1798 20.7295 19.7198 20.7295 19.4398 20.4395C18.5598 19.5595 16.8598 17.8695 16.8598 17.8695L15.0498 19.7695ZM16.1598 10.9295C16.1898 10.8695 16.2298 10.8195 16.2698 10.7695L17.7498 8.93953L17.7398 8.92953C17.7198 8.92953 17.7098 8.90953 17.7198 8.87953C17.7098 8.85953 17.6998 8.83953 17.7198 8.83953L17.7298 8.81953L15.7098 7.60953C15.4098 7.42953 15.2298 7.10953 15.2198 6.76953L15.1798 4.40953H15.1698C15.1598 4.41953 15.1398 4.40953 15.1198 4.38953C15.0998 4.37953 15.0798 4.36953 15.0998 4.34953L15.0898 4.33953L12.7698 4.69953C12.4198 4.75953 12.0798 4.62953 11.8498 4.36953L10.2498 2.51953L8.63976 4.36953C8.41976 4.62953 8.06976 4.75953 7.72976 4.69953L5.39976 4.33953V4.34953C5.40976 4.36953 5.39976 4.37953 5.36976 4.38953C5.35976 4.40953 5.33976 4.41953 5.32976 4.40953H5.30976L5.26976 6.76953C5.26976 7.10953 5.07976 7.42953 4.78976 7.60953L2.76976 8.81953V8.83953C2.78976 8.83953 2.78976 8.85953 2.77976 8.87953C2.77976 8.90953 2.77976 8.92953 2.75976 8.92953L2.74976 8.93953L4.22976 10.7695C4.44976 11.0395 4.50976 11.3995 4.39976 11.7295L3.62976 13.9495L3.63976 13.9595C3.65976 13.9495 3.66976 13.9695 3.67976 13.9895C3.69976 14.0095 3.70976 14.0295 3.68976 14.0395V14.0595L5.99976 14.5095C6.33976 14.5695 6.61976 14.8095 6.74976 15.1295L7.58976 17.3295C7.65976 17.3095 7.76976 17.3395 7.61976 17.4095L9.75976 16.2295C10.0598 16.0595 10.4298 16.0595 10.7298 16.2295L11.9998 16.9295L10.5998 12.4295C10.2598 11.7095 10.4498 10.9195 10.9798 10.3895C11.5098 9.84953 12.2998 9.65953 13.0198 9.89953L16.1598 10.9295Z" fill="black"/>
</svg>
