<svg width="12" height="12" viewBox="0 0 12 12" fill="none" xmlns="http://www.w3.org/2000/svg">
<path d="M5.00683 5.00147H1.73633C1.18443 5.00147 0.736328 5.44947 0.736328 6.00147C0.736328 6.55347 1.18443 7.00147 1.73633 7.00147H5.00683V10.2715C5.00683 10.8235 5.45493 11.2715 6.00683 11.2715C6.55873 11.2715 7.00683 10.8235 7.00683 10.2715V7.00147H10.2773C10.8292 7.00147 11.2773 6.55347 11.2773 6.00147C11.2773 5.44947 10.8292 5.00147 10.2773 5.00147H7.00683V1.73047C7.00683 1.17847 6.55873 0.730469 6.00683 0.730469C5.45493 0.730469 5.00683 1.17847 5.00683 1.73047V5.00147Z" fill="black"/>
</svg>
