<svg width="16" height="16" viewBox="0 0 16 16" fill="none" xmlns="http://www.w3.org/2000/svg">
<path fill-rule="evenodd" clip-rule="evenodd" d="M1.3335 10.6654C1.3335 11.7254 1.75483 12.7454 2.50483 13.492C3.2555 14.2454 4.27283 14.6654 5.3335 14.6654H10.6668C11.7275 14.6654 12.7448 14.2454 13.4955 13.492C14.2455 12.7454 14.6668 11.7254 14.6668 10.6654V5.33203C14.6668 4.27203 14.2455 3.25203 13.4955 2.50536C12.7448 1.75203 11.7275 1.33203 10.6668 1.33203H5.3335C4.27283 1.33203 3.2555 1.75203 2.50483 2.50536C1.75483 3.25203 1.3335 4.27203 1.3335 5.33203V10.6654ZM2.66683 10.6654V5.33203C2.66683 4.62536 2.9475 3.94536 3.44816 3.44536C3.94816 2.94536 4.62616 2.66536 5.3335 2.66536H10.6668C11.3742 2.66536 12.0522 2.94536 12.5522 3.44536C13.0528 3.94536 13.3335 4.62536 13.3335 5.33203V10.6654C13.3335 11.372 13.0528 12.052 12.5522 12.552C12.0522 13.052 11.3742 13.332 10.6668 13.332C9.0035 13.332 6.99683 13.332 5.3335 13.332C4.62616 13.332 3.94816 13.052 3.44816 12.552C2.9475 12.052 2.66683 11.372 2.66683 10.6654ZM7.3355 7.33203H4.8135C4.44616 7.33203 4.14683 7.63203 4.14683 7.9987C4.14683 8.37203 4.44616 8.66536 4.8135 8.66536H7.3355V11.192C7.3355 11.5587 7.63483 11.8587 8.00216 11.8587C8.37016 11.8587 8.66883 11.5587 8.66883 11.192V8.66536H11.1915C11.5588 8.66536 11.8582 8.37203 11.8582 7.9987C11.8582 7.63203 11.5588 7.33203 11.1915 7.33203H8.66883V4.81203C8.66883 4.44536 8.37016 4.14536 8.00216 4.14536C7.63483 4.14536 7.3355 4.44536 7.3355 4.81203V7.33203Z" fill="black"/>
</svg>
