<svg width="24" height="24" viewBox="0 0 24 24" fill="none" xmlns="http://www.w3.org/2000/svg">
<path fill-rule="evenodd" clip-rule="evenodd" d="M5.084 5.08C5.514 2.76 7.551 1 10 1C12.443 1 15.557 1 18 1C20.761 1 23 3.24 23 6C23 8.443 23 11.557 23 14C23 16.448 21.241 18.485 18.918 18.916C18.488 21.24 16.45 23 14.002 23C11.558 23 8.444 23 6 23C3.239 23 1 20.761 1 18V10C1 7.55 2.76 5.51 5.084 5.08ZM3 18V10C3 8.343 4.343 7 6 7C8.444 7 11.558 7 14.002 7C15.658 7 17.002 8.343 17.002 10V18C17.002 19.657 15.658 21 14.002 21C11.558 21 8.444 21 6 21C4.343 21 3 19.657 3 18ZM9.003 13.008H5.997C5.445 13.008 4.997 13.456 4.997 14.008C4.997 14.56 5.445 15.008 5.997 15.008H9.003V18.007C9.003 18.559 9.451 19.007 10.003 19.007C10.555 19.007 11.003 18.559 11.003 18.007V15.008H13.997C14.549 15.008 14.997 14.56 14.997 14.008C14.997 13.456 14.549 13.008 13.997 13.008H11.003V10.007C11.003 9.455 10.555 9.007 10.003 9.007C9.451 9.007 9.003 9.455 9.003 10.007V13.008ZM19.002 16.828C20.166 16.416 21 15.306 21 14V6C21 4.34 19.657 3 18 3H10C8.694 3 7.583 3.83 7.171 5H14.002C16.763 5 19.002 7.24 19.002 10V16.828Z" fill="black"/>
</svg>
