<svg width="16" height="16" viewBox="0 0 16 16" fill="none" xmlns="http://www.w3.org/2000/svg">
<path d="M7.00817 7.00163H3.02637C2.47447 7.00163 2.02637 7.44963 2.02637 8.00163C2.02637 8.55363 2.47447 9.00163 3.02637 9.00163H7.00817V12.9716C7.00817 13.5236 7.45717 13.9716 8.00817 13.9716C8.56017 13.9716 9.00817 13.5236 9.00817 12.9716V9.00163H12.9832C13.5352 9.00163 13.9832 8.55363 13.9832 8.00163C13.9832 7.44963 13.5352 7.00163 12.9832 7.00163H9.00817V3.01562C9.00817 2.46363 8.56017 2.01562 8.00817 2.01562C7.45717 2.01562 7.00817 2.46363 7.00817 3.01562V7.00163Z" fill="black"/>
</svg>
