<svg width="24" height="24" viewBox="0 0 24 24" fill="none" xmlns="http://www.w3.org/2000/svg">
<path fill-rule="evenodd" clip-rule="evenodd" d="M11.9995 2C6.48053 2 2 6.4812 2 12.005C2 17.5188 6.48053 22 11.9995 22C17.5195 22 22 17.5188 22 12.005C22 6.4812 17.5195 2 11.9995 2ZM11.9995 4.00501C16.4129 4.00501 19.9953 7.58396 19.9953 12.005C19.9953 16.416 16.4129 19.995 11.9995 19.995C7.58712 19.995 4.0047 16.416 4.0047 12.005C4.0047 7.58396 7.58712 4.00501 11.9995 4.00501ZM10.9711 10.9724H7.87782C7.29645 10.9724 6.82535 11.4436 6.82535 12.0251C6.82535 12.6065 7.29645 13.0777 7.87782 13.0777H10.9711V16.1754C10.9711 16.7569 11.4422 17.2281 12.0236 17.2281C12.6039 17.2281 13.076 16.7569 13.076 16.1754V13.0777H16.1693C16.7507 13.0777 17.2218 12.6065 17.2218 12.0251C17.2218 11.4436 16.7507 10.9724 16.1693 10.9724H13.076V7.87468C13.076 7.29323 12.6039 6.82205 12.0236 6.82205C11.4422 6.82205 10.9711 7.29323 10.9711 7.87468V10.9724Z" fill="black"/>
</svg>
