<svg width="24" height="24" viewBox="0 0 24 24" fill="none" xmlns="http://www.w3.org/2000/svg">
<path fill-rule="evenodd" clip-rule="evenodd" d="M2 16C2 17.59 2.632 19.12 3.757 20.24C4.883 21.37 6.409 22 8 22H16C17.591 22 19.117 21.37 20.243 20.24C21.368 19.12 22 17.59 22 16V8C22 6.41 21.368 4.88 20.243 3.76C19.117 2.63 17.591 2 16 2H8C6.409 2 4.883 2.63 3.757 3.76C2.632 4.88 2 6.41 2 8V16ZM4 16V8C4 6.94 4.421 5.92 5.172 5.17C5.922 4.42 6.939 4 8 4H16C17.061 4 18.078 4.42 18.828 5.17C19.579 5.92 20 6.94 20 8V16C20 17.06 19.579 18.08 18.828 18.83C18.078 19.58 17.061 20 16 20C13.505 20 10.495 20 8 20C6.939 20 5.922 19.58 5.172 18.83C4.421 18.08 4 17.06 4 16ZM11.003 11H7.22C6.669 11 6.22 11.45 6.22 12C6.22 12.56 6.669 13 7.22 13H11.003V16.79C11.003 17.34 11.452 17.79 12.003 17.79C12.555 17.79 13.003 17.34 13.003 16.79V13H16.787C17.338 13 17.787 12.56 17.787 12C17.787 11.45 17.338 11 16.787 11H13.003V7.22C13.003 6.67 12.555 6.22 12.003 6.22C11.452 6.22 11.003 6.67 11.003 7.22V11Z" fill="black"/>
</svg>
