<svg width="24" height="24" viewBox="0 0 24 24" fill="none" xmlns="http://www.w3.org/2000/svg">
<path d="M10.8131 10.8003H4.53906C3.87706 10.8003 3.33936 11.3403 3.33936 12.0003C3.33936 12.6603 3.87706 13.2003 4.53906 13.2003H10.8131V19.4603C10.8131 20.1203 11.3501 20.6603 12.0131 20.6603C12.6751 20.6603 13.2131 20.1203 13.2131 19.4603V13.2003H19.4741C20.1361 13.2003 20.6741 12.6603 20.6741 12.0003C20.6741 11.3403 20.1361 10.8003 19.4741 10.8003H13.2131V4.52031C13.2131 3.86031 12.6751 3.32031 12.0131 3.32031C11.3501 3.32031 10.8131 3.86031 10.8131 4.52031V10.8003Z" fill="black"/>
</svg>
