<svg width="16" height="16" viewBox="0 0 16 16" fill="none" xmlns="http://www.w3.org/2000/svg">
<path fill-rule="evenodd" clip-rule="evenodd" d="M3.28217 3.2829C0.681479 5.88359 0.681189 10.1077 3.28217 12.7086C5.88315 15.3096 10.1072 15.3093 12.7079 12.7086C15.3092 10.1073 15.3089 5.88388 12.7079 3.2829C10.1069 0.68192 5.88351 0.681563 3.28217 3.2829ZM4.31456 4.31529C6.34607 2.28378 9.64414 2.2842 11.6754 4.31543C13.7066 6.34666 13.707 9.64474 11.6755 11.6762C9.64465 13.7071 6.34593 13.7073 4.3147 11.6761C2.28347 9.64487 2.2837 6.34616 4.31456 4.31529ZM7.30334 7.22792L4.90351 7.22744C4.50085 7.22747 4.17367 7.55465 4.17364 7.95731C4.17362 8.36126 4.50075 8.6884 4.90406 8.68773L7.30324 8.68756L7.30308 11.0867C7.30241 11.4901 7.62955 11.8172 8.0335 11.8172C8.43616 11.8171 8.76334 11.49 8.76337 11.0873L8.76289 8.68746L11.1627 8.68794C11.566 8.68727 11.8926 8.36073 11.8932 7.95743C11.8926 7.55412 11.5655 7.22698 11.1628 7.22701L8.76363 7.22717L8.7638 4.82799C8.76382 4.42533 8.43669 4.09819 8.03338 4.09757C7.63007 4.09825 7.30354 4.42479 7.30286 4.82809L7.30334 7.22792Z" fill="black"/>
</svg>
