<svg width="24" height="24" viewBox="0 0 24 24" fill="none" xmlns="http://www.w3.org/2000/svg">
<path fill-rule="evenodd" clip-rule="evenodd" d="M7.12487 19.111C6.72687 19.658 6.66887 20.382 6.97587 20.985C7.28287 21.588 7.90187 21.969 8.57887 21.969L15.5989 21.975C16.2769 21.976 16.8969 21.596 17.2049 20.992C17.5119 20.389 17.4549 19.664 17.0559 19.116L13.5419 14.287C13.2029 13.821 12.6619 13.546 12.0859 13.546C11.5099 13.546 10.9689 13.822 10.6309 14.287L7.12487 19.111ZM8.97287 19.969L15.2079 19.975L12.0869 15.686L8.97287 19.969ZM5.33987 18.186C3.41687 16.393 2.21387 13.836 2.21387 11.001C2.21387 5.57397 6.61987 1.16797 12.0469 1.16797C17.4739 1.16797 21.8799 5.57397 21.8799 11.001C21.8799 13.81 20.6989 16.346 18.8059 18.136L18.6729 17.939L17.8029 16.743C19.2709 15.272 20.1799 13.242 20.1799 11.001C20.1799 6.51197 16.5349 2.86797 12.0469 2.86797C7.55787 2.86797 3.91387 6.51197 3.91387 11.001C3.91387 13.266 4.84187 15.316 6.33887 16.79L5.50687 17.935C5.44687 18.016 5.39187 18.1 5.33987 18.186ZM7.08987 15.756C5.90387 14.523 5.17487 12.847 5.17487 11.001C5.17487 7.20797 8.25387 4.12897 12.0469 4.12897C15.8399 4.12897 18.9189 7.20797 18.9189 11.001C18.9189 12.823 18.2089 14.48 17.0499 15.708L16.0269 14.302C16.7709 13.407 17.2189 12.256 17.2189 11.001C17.2189 8.14597 14.9019 5.82897 12.0469 5.82897C9.19187 5.82897 6.87487 8.14597 6.87487 11.001C6.87487 12.28 7.33987 13.451 8.11187 14.351L7.08987 15.756ZM8.91987 13.24C8.46387 12.612 8.19687 11.837 8.19687 11.001C8.19687 8.87597 9.92187 7.15097 12.0469 7.15097C14.1719 7.15097 15.8969 8.87597 15.8969 11.001C15.8969 11.813 15.6449 12.566 15.2139 13.186L15.1589 13.11C14.8299 12.658 14.4099 12.29 13.9339 12.031C14.1019 11.726 14.1969 11.374 14.1969 11.001C14.1969 9.81397 13.2339 8.85097 12.0469 8.85097C10.8599 8.85097 9.89687 9.81397 9.89687 11.001C9.89687 11.389 9.99987 11.753 10.1809 12.066C9.72787 12.321 9.32887 12.677 9.01287 13.111L8.91987 13.24Z" fill="black"/>
</svg>
