<svg width="24" height="24" viewBox="0 0 24 24" fill="none" xmlns="http://www.w3.org/2000/svg">
<path fill-rule="evenodd" clip-rule="evenodd" d="M12 2C17.5187 2 22 6.48 22 12C22 17.519 17.5187 22 12 22C6.4803 22 2 17.519 2 12C2 6.48 6.4803 2 12 2ZM11.9559 14.547C12.7608 14.547 13.4133 15.205 13.4133 16.016C13.4133 16.826 12.7608 17.485 11.9559 17.485C11.1511 17.485 10.4986 16.826 10.4986 16.016C10.4986 15.205 11.1511 14.547 11.9559 14.547ZM13.1466 7.54C13.1466 7.23 13.0234 6.93 12.8039 6.71C12.5833 6.49 12.2857 6.37 11.9739 6.37C11.6632 6.37 11.3645 6.49 11.145 6.71C10.9245 6.93 10.8012 7.23 10.8012 7.54C10.8012 8.836 10.8012 10.923 10.8012 12.223C10.8012 12.534 10.9245 12.831 11.145 13.051C11.3645 13.27 11.6632 13.393 11.9739 13.393C12.2857 13.393 12.5833 13.27 12.8039 13.051C13.0234 12.831 13.1466 12.534 13.1466 12.223C13.1466 10.923 13.1466 8.836 13.1466 7.54Z" fill="black"/>
</svg>
