<svg width="12" height="12" viewBox="0 0 12 12" fill="none" xmlns="http://www.w3.org/2000/svg">
<path fill-rule="evenodd" clip-rule="evenodd" d="M6 1C3.24017 1 1 3.24073 1 6.00004C1 8.75935 3.24017 11 6 11C8.75983 11 11 8.75935 11 6.00004C11 3.24073 8.75983 1 6 1ZM6.00001 2.38103C7.99802 2.38103 9.6207 4.00237 9.6207 6.00004C9.6207 7.99762 7.99802 9.61896 6.00001 9.61896C4.00199 9.61896 2.37932 7.99762 2.37932 6.00004C2.37932 4.00237 4.00199 2.38103 6.00001 2.38103ZM6.00035 7.18427C6.48173 7.18427 6.8725 7.57942 6.8725 8.06615C6.8725 8.55279 6.48173 8.94803 6.00035 8.94803C5.51906 8.94803 5.12828 8.55279 5.12828 8.06615C5.12828 7.57942 5.51906 7.18427 6.00035 7.18427ZM6.85861 5.7997V3.8716C6.85861 3.39523 6.47232 3.00846 5.99654 3.00846C5.52077 3.00846 5.13448 3.39523 5.13448 3.8716V5.7997C5.13448 6.27608 5.52077 6.66285 5.99654 6.66285C6.47232 6.66285 6.85861 6.27608 6.85861 5.7997Z" fill="black"/>
</svg>
