<svg width="24" height="24" viewBox="0 0 24 24" fill="none" xmlns="http://www.w3.org/2000/svg">
<path fill-rule="evenodd" clip-rule="evenodd" d="M11.9994 2C6.4804 2 2 6.48 2 12C2 17.519 6.4804 22 11.9994 22C17.5174 22 21.9984 17.519 21.9984 12C21.9984 6.48 17.5174 2 11.9994 2ZM11.9994 4C16.4134 4 19.9984 7.58 19.9984 12C19.9984 16.415 16.4134 20 11.9994 20C7.5844 20 4.0004 16.415 4.0004 12C4.0004 7.58 7.5844 4 11.9994 4ZM11.9924 14.523C12.7954 14.523 13.4474 15.181 13.4474 15.991C13.4474 16.802 12.7954 17.46 11.9924 17.46C11.1904 17.46 10.5384 16.802 10.5384 15.991C10.5384 15.181 11.1904 14.523 11.9924 14.523ZM13.1624 7.52C13.1624 7.21 13.0394 6.91 12.8204 6.69C12.6004 6.47 12.3034 6.35 11.9924 6.35C11.6824 6.35 11.3844 6.47 11.1654 6.69C10.9454 6.91 10.8224 7.21 10.8224 7.52C10.8224 8.817 10.8224 10.904 10.8224 12.204C10.8224 12.514 10.9454 12.812 11.1654 13.031C11.3844 13.251 11.6824 13.374 11.9924 13.374C12.3034 13.374 12.6004 13.251 12.8204 13.031C13.0394 12.812 13.1624 12.514 13.1624 12.204C13.1624 10.904 13.1624 8.817 13.1624 7.52Z" fill="black"/>
</svg>
