<svg width="16" height="16" viewBox="0 0 16 16" fill="none" xmlns="http://www.w3.org/2000/svg">
<path fill-rule="evenodd" clip-rule="evenodd" d="M7.99508 1.32812C11.674 1.32812 14.6601 4.31469 14.6601 7.99312C14.6601 11.6716 11.674 14.6581 7.99508 14.6581C4.31614 14.6581 1.33008 11.6716 1.33008 7.99312C1.33008 4.31469 4.31614 1.32812 7.99508 1.32812ZM7.99144 9.89715C8.50083 9.89715 8.91437 10.3152 8.91437 10.83C8.91437 11.3439 8.50083 11.7619 7.99144 11.7619C7.48205 11.7619 7.0676 11.3439 7.0676 10.83C7.0676 10.3152 7.48205 9.89715 7.99144 9.89715ZM8.80754 7.97852V5.10423C8.80754 4.6515 8.43964 4.28274 7.98594 4.28274C7.53223 4.28274 7.16434 4.6515 7.16434 5.10423V7.97852C7.16434 8.43216 7.53223 8.80001 7.98594 8.80001C8.43964 8.80001 8.80754 8.43216 8.80754 7.97852Z" fill="black"/>
</svg>
