<svg width="16" height="16" viewBox="0 0 16 16" fill="none" xmlns="http://www.w3.org/2000/svg">
<path fill-rule="evenodd" clip-rule="evenodd" d="M7.99499 1.32812C4.31658 1.32812 1.33008 4.31472 1.33008 7.99312C1.33008 11.6715 4.31658 14.6581 7.99499 14.6581C11.6739 14.6581 14.6601 11.6715 14.6601 7.99312C14.6601 4.31472 11.6739 1.32812 7.99499 1.32812ZM7.995 2.78456C10.8701 2.78456 13.2034 5.11849 13.2034 7.99312C13.2034 10.8678 10.8701 13.2017 7.995 13.2017C5.12085 13.2017 2.78674 10.8678 2.78674 7.99312C2.78674 5.11849 5.12085 2.78456 7.995 2.78456ZM7.99134 9.97205C8.52028 9.97205 8.95 10.4063 8.95 10.9406C8.95 11.4749 8.52028 11.9091 7.99134 11.9091C7.46148 11.9091 7.03177 11.4749 7.03177 10.9406C7.03177 10.4063 7.46148 9.97205 7.99134 9.97205ZM8.80524 7.97765V4.99196C8.80524 4.53956 8.43743 4.17272 7.98587 4.17272C7.5334 4.17272 7.1665 4.53956 7.1665 4.99196V7.97765C7.1665 8.43005 7.5334 8.79689 7.98587 8.79689C8.43743 8.79689 8.80524 8.43005 8.80524 7.97765Z" fill="black"/>
</svg>
