<svg width="24" height="24" viewBox="0 0 24 24" fill="none" xmlns="http://www.w3.org/2000/svg">
<path d="M1 6C1 5.44772 1.44772 5 2 5H22C22.5523 5 23 5.44772 23 6C23 6.55228 22.5523 7 22 7H2C1.44772 7 1 6.55228 1 6Z" fill="black"/>
<path d="M1 12C1 11.4477 1.44772 11 2 11H12C12.5523 11 13 11.4477 13 12C13 12.5523 12.5523 13 12 13H2C1.44772 13 1 12.5523 1 12Z" fill="black"/>
<path d="M1 18C1 17.4477 1.44772 17 2 17H18C18.5523 17 19 17.4477 19 18C19 18.5523 18.5523 19 18 19H2C1.44772 19 1 18.5523 1 18Z" fill="black"/>
</svg>
