<svg width="24" height="24" viewBox="0 0 24 24" fill="none" xmlns="http://www.w3.org/2000/svg">
<path d="M1 6C1 5.44772 1.44772 5 2 5H22C22.5523 5 23 5.44772 23 6C23 6.55228 22.5523 7 22 7H2C1.44772 7 1 6.55228 1 6Z" fill="black"/>
<path d="M11 12C11 11.4477 11.4477 11 12 11H22C22.5523 11 23 11.4477 23 12C23 12.5523 22.5523 13 22 13H12C11.4477 13 11 12.5523 11 12Z" fill="black"/>
<path d="M5 18C5 17.4477 5.44772 17 6 17H22C22.5523 17 23 17.4477 23 18C23 18.5523 22.5523 19 22 19H6C5.44772 19 5 18.5523 5 18Z" fill="black"/>
</svg>
