<svg width="12" height="12" viewBox="0 0 12 12" fill="none" xmlns="http://www.w3.org/2000/svg">
<path fill-rule="evenodd" clip-rule="evenodd" d="M7.95875 1.70946C7.67746 1.79963 7.21662 2.11838 6.72558 2.99001C7.74859 3.02653 8.26865 2.79962 8.49244 2.6081C8.72709 2.40729 8.73679 2.16002 8.61633 1.95026C8.49468 1.73843 8.26462 1.61142 7.95875 1.70946ZM1.57647 1.15997C1.19857 1.81804 1.15951 2.68872 1.64864 3.39717C1.16234 3.71378 0.84082 4.26222 0.84082 4.88577V8.14578C0.84082 9.62314 2.03846 10.8208 3.51582 10.8208H6.49034L5.95853 10.701C5.13404 10.5153 4.67257 9.89402 4.57412 9.22078H3.51582C2.92211 9.22078 2.44082 8.73949 2.44082 8.14578V4.88577C2.44082 4.78912 2.51917 4.71077 2.61582 4.71077H4.88901V7.87861C5.12296 7.55186 5.47947 7.2969 5.95853 7.18899L6.48901 7.06949V4.71077H8.82423C8.84224 4.71077 8.85962 4.71349 8.87597 4.71854C9.61658 4.75468 10.3364 5.22207 10.5388 6.12071L10.5992 6.38893V4.88577C10.5992 4.30212 10.3175 3.78426 9.88268 3.46074C10.4195 2.74137 10.3898 1.83786 10.0005 1.15997C9.54229 0.362074 8.56161 -0.168963 7.46072 0.183921C6.85938 0.376677 6.29551 0.809894 5.78848 1.48931C5.28145 0.809894 4.71759 0.376677 4.11625 0.183921C3.01536 -0.168963 2.03467 0.362074 1.57647 1.15997ZM9.36814 6.38442L9.60158 7.42069L9.63402 7.56472C9.69342 7.82843 9.89937 8.03438 10.1631 8.09378L11.3434 8.35966C11.9676 8.50027 11.9676 9.38972 11.3434 9.53032L10.1631 9.7962C9.89937 9.85561 9.69343 10.0615 9.63402 10.3253L9.36814 11.5056C9.22754 12.1298 8.33808 12.1298 8.19748 11.5056L8.00809 10.6648L7.9316 10.3253C7.8722 10.0615 7.66626 9.8556 7.40254 9.7962L6.22224 9.53032C5.63706 9.3985 5.60048 8.60852 6.11252 8.39443C6.14665 8.38016 6.18323 8.36844 6.22224 8.35966L6.48901 8.29956L7.40254 8.09378C7.66625 8.03438 7.8722 7.82844 7.9316 7.56472L8.19748 6.38442C8.28787 5.98313 8.68778 5.83982 8.99923 5.95451C9.17223 6.01821 9.31793 6.16151 9.36814 6.38442ZM4.85138 2.99001C4.36035 2.11838 3.89951 1.79963 3.61822 1.70946C3.31235 1.61142 3.08228 1.73843 2.96063 1.95026C2.84018 2.16002 2.84988 2.40729 3.08452 2.6081C3.30832 2.79962 3.82837 3.02653 4.85138 2.99001Z" fill="black"/>
</svg>
