<svg width="24" height="24" viewBox="0 0 24 24" fill="none" xmlns="http://www.w3.org/2000/svg">
<path fill-rule="evenodd" clip-rule="evenodd" d="M15.7185 11.5368L15.326 13.261C15.1505 14.0317 14.5454 14.6314 13.7732 14.7999L12.0355 15.1792C11.2651 15.3473 10.7139 16.0265 10.708 16.815C10.702 17.6034 11.243 18.2909 12.0107 18.4706L13.7942 18.8879C14.5494 19.0647 15.1389 19.6548 15.3148 20.4102C15.4389 20.943 15.5794 21.5463 15.7195 22.1478C15.8986 22.9171 16.5875 23.4592 17.3773 23.4524C18.1671 23.4456 18.8465 22.8918 19.0124 22.1196L19.381 20.404C19.5483 19.6254 20.1537 19.0156 20.931 18.8426L22.6791 18.4535C23.4518 18.2815 24.0011 17.5955 23.9998 16.8039C23.9986 16.0123 23.4472 15.328 22.6739 15.1584C22.0674 15.0254 21.4583 14.8918 20.9177 14.7733C20.1346 14.6015 19.5249 13.9867 19.3598 13.2023L19.0148 11.5637C18.8515 10.788 18.1702 10.2306 17.3775 10.2241C16.5848 10.2176 15.8945 10.7639 15.7185 11.5368ZM17.3594 12.438L17.5984 13.5731C17.9094 15.0504 19.0575 16.2081 20.5321 16.5315L21.7901 16.8074L20.5399 17.0856C19.0762 17.4114 17.9362 18.5598 17.6212 20.0259L17.3584 21.2492L17.0679 20.0019C16.7366 18.5793 15.6265 17.4681 14.2043 17.1353L12.9062 16.8315L14.157 16.5586C15.6111 16.2412 16.7507 15.1118 17.0811 13.6606L17.3594 12.438ZM12.9624 20.85H6.79834C5.47234 20.85 4.20054 20.3232 3.26284 19.3855C2.32514 18.4478 1.79834 17.1761 1.79834 15.85V7.98819C1.79834 6.5568 2.80074 5.35959 4.14184 5.06029C3.55364 4.09719 3.53594 2.92739 4.17184 1.94709C5.12114 0.483695 7.20314 0.150995 8.71194 1.02819C9.52064 1.49829 10.2774 2.50869 10.9089 3.67389C11.5404 2.50869 12.2972 1.49829 13.1059 1.02819C14.6147 0.150995 16.6967 0.483695 17.646 1.94709C18.2799 2.92419 18.2644 4.08959 17.6819 5.05069C19.045 5.33329 20.0696 6.54109 20.0696 7.98819V9.26149C19.5355 8.71629 18.8405 8.33599 18.0696 8.19019V7.98819C18.0696 7.43589 17.6219 6.98819 17.0696 6.98819H11.9295V13.0529L11.5877 13.1274C10.958 13.2649 10.3935 13.5545 9.92954 13.9528V6.98819H4.79834C4.24604 6.98819 3.79844 7.43589 3.79834 7.98819V15.85C3.79834 16.6456 4.11444 17.4087 4.67704 17.9713C5.23964 18.5339 6.00274 18.85 6.79834 18.85H9.19304C9.71024 19.6683 10.5362 20.2822 11.5322 20.5153L12.9624 20.85ZM14.3328 4.98819H12.3574C12.5973 4.49379 12.8615 4.02099 13.1479 3.61239C13.433 3.20549 13.7306 2.86279 14.0609 2.67069C14.7173 2.28909 15.639 2.34449 16.052 2.98109C16.4203 3.54869 16.1111 4.24139 15.4653 4.63159C15.1781 4.80519 14.7983 4.92109 14.3328 4.98819ZM9.46054 4.98819H7.48504C7.01954 4.92109 6.63984 4.80519 6.35254 4.63159C5.70674 4.24139 5.39764 3.54869 5.76584 2.98109C6.17884 2.34449 7.10064 2.28909 7.75704 2.67069C8.08734 2.86279 8.38484 3.20549 8.66994 3.61239C8.95634 4.02099 9.22064 4.49379 9.46054 4.98819Z" fill="black"/>
</svg>
