<svg width="16" height="16" viewBox="0 0 16 16" fill="none" xmlns="http://www.w3.org/2000/svg">
<path fill-rule="evenodd" clip-rule="evenodd" d="M5.83385 3.35027C5.24274 2.29585 4.67125 1.89727 4.29671 1.78165C3.87074 1.65015 3.54527 1.83246 3.38636 2.09895C3.30502 2.23535 3.27715 2.38009 3.2951 2.5069C3.31166 2.62389 3.3723 2.76658 3.54524 2.90912C3.84483 3.15603 4.52395 3.42346 5.83385 3.35027ZM4.76866 0.252838C5.58471 0.504751 6.35495 1.15277 7.02757 2.22808C7.7002 1.15277 8.47044 0.504751 9.28649 0.252838C10.4739 -0.113699 11.5369 0.430784 12.043 1.2795C12.2942 1.70071 12.4179 2.21068 12.3443 2.73113C12.3023 3.02779 12.1979 3.31407 12.0323 3.57621C12.7683 3.90269 13.2816 4.63977 13.2816 5.49674V6.57074C12.8651 6.12794 12.3033 5.82999 11.6816 5.74496V5.49674C11.6816 5.2206 11.4577 4.99674 11.1816 4.99674H7.8013L7.8013 8.71153L7.79358 8.71327C7.13399 8.86185 6.5767 9.2446 6.2013 9.76199L6.2013 4.99674H2.90371C2.62757 4.99674 2.40371 5.2206 2.40371 5.49674V10.7646C2.40371 11.7035 3.16483 12.4646 4.10371 12.4646H5.92874C6.27033 13.2153 6.94786 13.7908 7.79358 13.9813L8.16355 14.0646H4.10371C2.28117 14.0646 0.803711 12.5872 0.803711 10.7646V5.49674C0.803711 4.64889 1.30616 3.9184 2.02954 3.58677C1.86002 3.32178 1.75344 3.03178 1.71089 2.73113C1.63722 2.21068 1.76096 1.70071 2.01213 1.2795C2.51822 0.430784 3.58129 -0.1137 4.76866 0.252838ZM8.2213 3.35027C8.8124 2.29585 9.3839 1.89727 9.75843 1.78165C10.1844 1.65015 10.5099 1.83246 10.6688 2.09895C10.7501 2.23535 10.778 2.38009 10.76 2.5069C10.7435 2.62389 10.6828 2.76658 10.5099 2.90912C10.2103 3.15603 9.53119 3.42346 8.2213 3.35027ZM12.8751 8.06838C12.7107 7.33848 12.0624 6.81999 11.3142 6.81999C10.566 6.81999 9.91772 7.33848 9.7533 8.06838L9.60419 8.7303C9.50236 9.18238 9.14932 9.53542 8.69723 9.63726L8.03531 9.78636C7.30542 9.95078 6.78692 10.5991 6.78692 11.3473C6.78692 12.0954 7.30542 12.7437 8.03531 12.9081L8.69723 13.0572C9.14932 13.1591 9.50236 13.5121 9.60419 13.9642L9.7533 14.6261C9.91772 15.356 10.566 15.8745 11.3142 15.8745C12.0624 15.8745 12.7107 15.356 12.8751 14.6261L13.0242 13.9642C13.126 13.5121 13.4791 13.1591 13.9311 13.0572L14.5931 12.9081C15.323 12.7437 15.8415 12.0954 15.8415 11.3473C15.8415 10.5991 15.323 9.95078 14.5931 9.78636L13.9311 9.63726C13.4791 9.53542 13.126 9.18238 13.0242 8.7303L12.8751 8.06838ZM11.1651 9.08191L11.3142 8.41999L11.4633 9.08191C11.4686 9.10569 11.4743 9.12936 11.4803 9.1529C11.5947 9.60565 11.8177 10.0134 12.1205 10.3474C12.1819 10.415 12.2465 10.4796 12.3141 10.5409C12.648 10.8437 13.0558 11.0668 13.5085 11.1812C13.5321 11.1871 13.5557 11.1928 13.5795 11.1981L14.2415 11.3473L13.5795 11.4964C13.5557 11.5017 13.5321 11.5074 13.5085 11.5133C13.0558 11.6277 12.648 11.8508 12.3141 12.1536C12.2465 12.2149 12.1819 12.2795 12.1205 12.3471C11.8177 12.6811 11.5947 13.0889 11.4803 13.5416C11.4743 13.5651 11.4686 13.5888 11.4633 13.6126L11.3142 14.2745L11.1651 13.6126C11.1597 13.5888 11.1541 13.5651 11.1481 13.5416C11.0337 13.0889 10.8106 12.6811 10.5078 12.3471C10.4465 12.2795 10.3819 12.2149 10.3143 12.1536C9.98038 11.8508 9.57258 11.6277 9.11984 11.5133C9.09629 11.5074 9.07263 11.5017 9.04884 11.4964L8.38692 11.3473L9.04884 11.1981C9.07263 11.1928 9.09629 11.1871 9.11984 11.1812C9.57258 11.0668 9.98038 10.8437 10.3143 10.5409C10.3819 10.4796 10.4465 10.415 10.5078 10.3474C10.8106 10.0134 11.0337 9.60565 11.1481 9.1529C11.1541 9.12936 11.1597 9.10569 11.1651 9.08191Z" fill="black"/>
</svg>
