<svg width="16" height="16" viewBox="0 0 16 16" fill="none" xmlns="http://www.w3.org/2000/svg">
<path fill-rule="evenodd" clip-rule="evenodd" d="M1.06104 10.1425C1.06104 11.4125 1.56604 12.6325 2.46704 13.5325C3.36704 14.4325 4.58804 14.9425 5.86104 14.9425C7.23304 14.9425 8.76704 14.9425 10.139 14.9425C11.412 14.9425 12.633 14.4325 13.533 13.5325C14.434 12.6325 14.939 11.4125 14.939 10.1425C14.939 8.7725 14.939 7.2325 14.939 5.8625C14.939 4.5925 14.434 3.3725 13.533 2.4725C12.633 1.5725 11.412 1.0625 10.139 1.0625C8.76704 1.0625 7.23304 1.0625 5.86104 1.0625C4.58804 1.0625 3.36704 1.5725 2.46704 2.4725C1.56604 3.3725 1.06104 4.5925 1.06104 5.8625V10.1425ZM2.66104 10.1425V5.8625C2.66104 5.0125 2.99804 4.2025 3.59804 3.6025C4.19804 3.0025 5.01204 2.6625 5.86104 2.6625H10.139C10.988 2.6625 11.802 3.0025 12.402 3.6025C13.002 4.2025 13.339 5.0125 13.339 5.8625V10.1425C13.339 10.9925 13.002 11.8025 12.402 12.4025C11.802 13.0025 10.988 13.3425 10.139 13.3425H5.86104C5.01204 13.3425 4.19804 13.0025 3.59804 12.4025C2.99804 11.8025 2.66104 10.9925 2.66104 10.1425ZM9.74104 10.2525H7.22503L8.99004 8.5225C9.13404 8.3825 9.21603 8.1925 9.21503 7.9925C9.21503 7.7825 9.13304 7.5925 8.98804 7.4525L7.23503 5.7525H9.71503V5.7825C9.71503 6.2025 10.051 6.5325 10.465 6.5325C10.879 6.5325 11.215 6.2025 11.215 5.7825V5.0025C11.215 4.5925 10.879 4.2525 10.465 4.2525H5.38603C5.08004 4.2525 4.80504 4.4425 4.69104 4.7225C4.57604 5.0025 4.64403 5.3325 4.86303 5.5425L7.39004 7.9925L4.86104 10.4625C4.64304 10.6825 4.57604 11.0025 4.69104 11.2825C4.80604 11.5725 5.08104 11.7525 5.38603 11.7525H10.465C10.879 11.7525 11.215 11.4125 11.215 11.0025V10.4525C11.215 10.0325 10.879 9.7025 10.465 9.7025C10.119 9.7025 9.82804 9.9325 9.74104 10.2525Z" fill="black"/>
</svg>
