<svg width="24" height="24" viewBox="0 0 24 24" fill="none" xmlns="http://www.w3.org/2000/svg">
<path fill-rule="evenodd" clip-rule="evenodd" d="M21.98 7C21.98 4.24 19.74 2 16.98 2H6.97998C4.21998 2 1.97998 4.24 1.97998 7V16.997C1.97998 19.758 4.21998 21.997 6.97998 21.997H16.98C19.74 21.997 21.98 19.758 21.98 16.997V7ZM8.87998 8.935C8.22998 8.935 7.65998 9.294 7.34998 9.294C7.02998 9.294 6.56998 8.917 6.03998 8.935C5.35998 8.948 4.73998 9.352 4.37998 9.946C4.13998 10.372 4.03998 10.874 4.04998 11.384C4.05998 12.347 4.43998 13.349 4.87998 13.988C5.21998 14.476 5.60998 15 6.15998 15C6.64998 15 6.82998 14.672 7.46998 14.672C8.06998 14.672 8.25998 15 8.77998 15C9.31998 15 9.67998 14.503 10.01 14.011C10.41 13.438 10.55 12.892 10.57 12.87C10.55 12.87 9.51998 12.453 9.47998 11.264C9.47998 10.221 10.33 9.751 10.37 9.729C9.89998 9.019 9.15998 8.935 8.87998 8.935ZM17.13 10.002C17.21 10.013 17.27 10.059 17.3 10.132L18.3 13.014C18.64 12.048 18.93 11.065 19.31 10.115C19.32 10.098 19.33 10.083 19.35 10.068C19.38 10.03 19.42 10.009 19.48 10.002C19.84 9.985 20.19 9.985 20.55 10.002C20.64 10.014 20.72 10.077 20.73 10.168C20.73 10.193 20.73 10.217 20.73 10.242C20.22 11.812 19.64 13.36 18.98 14.877C18.94 14.939 18.89 14.976 18.82 14.986C18.44 15.003 18.06 15.003 17.69 14.986C17.61 14.976 17.56 14.94 17.53 14.877C16.87 13.36 16.28 11.812 15.77 10.242C15.75 10.155 15.78 10.065 15.87 10.022C15.89 10.011 15.92 10.005 15.94 10.002C16.34 9.983 16.73 9.983 17.13 10.002ZM14.04 11.218C14.04 12.043 14.01 12.654 14.04 13.478C14.04 13.511 14.04 13.543 14.05 13.575C14.06 13.611 14.07 13.647 14.09 13.675C14.12 13.713 14.17 13.729 14.22 13.74C14.33 13.765 14.44 13.767 14.55 13.763C14.59 13.761 14.64 13.758 14.68 13.754C14.72 13.75 14.77 13.744 14.81 13.737C14.88 13.725 14.94 13.706 15.01 13.692C15.03 13.69 15.03 13.69 15.05 13.69C15.13 13.699 15.19 13.738 15.22 13.807C15.23 13.827 15.23 13.847 15.24 13.868C15.25 14.12 15.25 14.372 15.24 14.624C15.23 14.651 15.23 14.677 15.21 14.701C15.18 14.752 15.14 14.777 15.09 14.802C15.04 14.822 15 14.842 14.96 14.859C14.7 14.96 14.42 14.998 14.14 14.998C13.94 14.998 13.73 14.98 13.53 14.925C13.41 14.894 13.3 14.85 13.2 14.792C13.11 14.746 13.04 14.691 12.97 14.627C12.79 14.457 12.68 14.23 12.62 13.989C12.59 13.85 12.58 13.709 12.58 13.567V11.218C12.42 11.218 12.25 11.226 12.09 11.217C12.07 11.214 12.07 11.214 12.05 11.208C11.97 11.179 11.92 11.12 11.91 11.039C11.9 10.747 11.9 10.455 11.91 10.163C11.91 10.142 11.92 10.122 11.93 10.103C11.96 10.028 12.03 9.988 12.11 9.984H12.58C12.58 9.67 12.57 9.14 12.58 8.827C12.59 8.806 12.59 8.806 12.59 8.786C12.62 8.709 12.68 8.661 12.76 8.649C13.12 8.629 13.49 8.629 13.86 8.649C13.88 8.652 13.9 8.656 13.92 8.665C13.99 8.698 14.03 8.769 14.04 8.848V9.984C14.36 9.984 14.68 9.968 15 9.985C15.02 9.988 15.02 9.988 15.04 9.994C15.12 10.023 15.17 10.082 15.18 10.163C15.2 10.455 15.2 10.747 15.18 11.039C15.18 11.06 15.17 11.08 15.17 11.099C15.13 11.174 15.06 11.214 14.98 11.218H14.04ZM8.46998 8.256C8.77998 7.92 8.94998 7.47 8.91998 7C8.49998 7 8.01998 7.24 7.70998 7.6C7.46998 7.9 7.21998 8.367 7.30998 8.833C7.73998 8.886 8.19998 8.615 8.46998 8.256Z" fill="black"/>
</svg>
