<svg width="24" height="24" viewBox="0 0 24 24" fill="none" xmlns="http://www.w3.org/2000/svg">
<path fill-rule="evenodd" clip-rule="evenodd" d="M4.24367 13.3249C3.24257 13.0498 2.23437 12.6687 1.58447 12.2323C0.85337 11.7414 0.50587 11.1236 0.50017 10.5551C0.47827 8.37099 2.56387 3.35059 11.9802 3.35059C21.3933 3.35059 23.5189 8.36699 23.4999 10.5415C23.4946 11.1393 23.1434 11.7505 22.4163 12.2328C21.7735 12.6592 20.771 13.02 19.7717 13.3041L19.5565 15.123C19.4128 16.1856 18.7418 17.1237 17.6499 17.8294C16.2929 18.7064 14.2391 19.2342 12.0172 19.2342C9.80687 19.2342 7.76207 18.6789 6.40517 17.7952C5.31857 17.0875 4.64767 16.1588 4.49177 15.1402C4.49097 15.1349 4.49017 15.1296 4.48947 15.1243L4.24367 13.3249ZM6.31277 13.6951L17.7084 13.7223L17.5738 14.8601C17.5006 15.3848 17.1041 15.8008 16.5643 16.1497C15.4716 16.8559 13.8064 17.2342 12.0172 17.2342C10.2409 17.2342 8.58707 16.8295 7.49657 16.1193C6.95587 15.767 6.55397 15.3562 6.47087 14.8509L6.46957 14.8425L6.31277 13.6951ZM21.4976 10.4084C21.4093 10.4781 21.1751 10.6565 20.9818 10.7534C20.1278 11.1812 18.8809 11.4965 17.891 11.7223C16.2016 11.7217 8.08657 11.6952 6.08417 11.6944C5.12297 11.5292 3.88387 11.2016 3.03467 10.7663C2.83607 10.6645 2.59707 10.4799 2.50277 10.4044C2.58347 8.62719 4.65717 5.35059 11.9802 5.35059C19.3274 5.35059 21.4246 8.64139 21.4976 10.4084ZM11.9936 6.64829C12.8689 6.64829 13.5796 7.49909 13.5796 8.54699C13.5796 9.59499 12.8689 10.4458 11.9936 10.4458C11.1183 10.4458 10.4077 9.59499 10.4077 8.54699C10.4077 7.49909 11.1183 6.64829 11.9936 6.64829Z" fill="black"/>
</svg>
