<svg width="16" height="16" viewBox="0 0 16 16" fill="none" xmlns="http://www.w3.org/2000/svg">
<path fill-rule="evenodd" clip-rule="evenodd" d="M2.71331 8.9507C2.06231 8.7607 1.41531 8.5207 0.992315 8.2507C0.450315 7.8907 0.204315 7.4407 0.200315 7.0307C0.185315 5.5907 1.57731 2.2207 7.98731 2.2207C14.3943 2.2207 15.8133 5.5907 15.8003 7.0207C15.7963 7.4507 15.5473 7.9007 15.0083 8.2507C14.5903 8.5207 13.9483 8.7507 13.2993 8.9307L13.1693 9.9807C13.0633 10.7407 12.5903 11.3807 11.8193 11.8607C10.9013 12.4207 9.51532 12.7407 8.01131 12.7407C6.51331 12.7407 5.14131 12.3707 4.22331 11.7907C3.46331 11.3207 2.99531 10.6907 2.86831 10.0207L2.71331 8.9507ZM4.36831 9.2107L11.6503 9.2307L11.5843 9.7607C11.5233 10.1807 11.1323 10.4507 10.6353 10.6707C9.93332 10.9807 9.00231 11.1407 8.01131 11.1407C6.85231 11.1407 5.78231 10.8807 5.07231 10.4407C4.75731 10.2407 4.50932 10.0207 4.44531 9.7507L4.36831 9.2107ZM14.1923 6.8607C14.1263 6.9107 14.0223 6.9707 13.9373 7.0207C13.3793 7.2907 12.5663 7.4807 11.9173 7.6307C10.7643 7.6307 5.41131 7.6107 4.06531 7.6107C3.43731 7.5107 2.62931 7.3007 2.07531 7.0207C1.98631 6.9807 1.87731 6.9107 1.80931 6.8607C1.84931 6.5007 2.03831 6.0407 2.43131 5.5907C3.26831 4.6407 4.94631 3.8207 7.98731 3.8207C11.0303 3.8207 12.7173 4.6407 13.5613 5.5907C13.9603 6.0407 14.1523 6.5007 14.1923 6.8607ZM7.99632 4.4307C8.57932 4.4307 9.05332 5.0007 9.05332 5.7007C9.05332 6.4007 8.57932 6.9607 7.99632 6.9607C7.41231 6.9607 6.93831 6.4007 6.93831 5.7007C6.93831 5.0007 7.41231 4.4307 7.99632 4.4307Z" fill="black"/>
</svg>
