<svg width="24" height="24" viewBox="0 0 24 24" fill="none" xmlns="http://www.w3.org/2000/svg">
<path fill-rule="evenodd" clip-rule="evenodd" d="M1.15039 12.0004C1.15039 6.01182 6.01188 1.15039 12.0004 1.15039C17.9889 1.15039 22.8504 6.01182 22.8504 12.0004C22.8504 17.989 17.9889 22.8504 12.0004 22.8504C6.01188 22.8504 1.15039 17.989 1.15039 12.0004ZM21.1504 12.0004C21.1504 6.9507 17.05 2.85039 12.0004 2.85039C6.95076 2.85039 2.85039 6.9507 2.85039 12.0004C2.85039 14.175 3.6108 16.1735 4.87997 17.7443C5.30006 18.2643 5.77588 18.7373 6.29831 19.1544C7.86272 20.4034 9.84509 21.1504 12.0004 21.1504C17.05 21.1504 21.1504 17.0501 21.1504 12.0004Z" fill="black"/>
<path d="M4.87997 17.7443C5.30006 18.2643 5.77588 18.7373 6.29831 19.1544L13.992 11.4605V10.0411L12.583 10.0411L4.87997 17.7443Z" fill="black"/>
<path d="M13.9415 8.68255C14.332 8.29202 14.9652 8.29201 15.3557 8.68253C15.7162 9.04301 15.7439 9.61024 15.4389 10.0025L15.3557 10.0967L13.992 11.4605V15.491L13.9987 15.6076C14.0565 16.105 14.4792 16.491 14.992 16.491C15.5443 16.491 15.992 16.0433 15.992 15.491V9.04102L15.9853 8.92439C15.9275 8.42706 15.5048 8.04102 14.992 8.04102H8.54199L8.42537 8.04774C7.92803 8.10551 7.54199 8.52818 7.54199 9.04102L7.54872 9.15764C7.60648 9.65497 8.02916 10.041 8.54199 10.041L12.583 10.0411L13.9415 8.68255Z" fill="black"/>
<path d="M15.3557 8.68253C14.9652 8.29201 14.332 8.29202 13.9415 8.68255L12.583 10.0411L13.992 10.0411V11.4605L15.3557 10.0967L15.4389 10.0025C15.7439 9.61024 15.7162 9.04301 15.3557 8.68253Z" fill="black"/>
</svg>
