<svg width="24" height="24" viewBox="0 0 24 24" fill="none" xmlns="http://www.w3.org/2000/svg">
<path d="M18.586 7.00055H8.442C4.884 7.00055 2 9.88055 2 13.4405V13.5605C2 17.1205 4.884 20.0005 8.442 20.0005C11.546 20.0005 14.823 20.0005 14.823 20.0005C15.375 20.0005 15.823 19.5505 15.823 19.0005C15.823 18.4505 15.375 18.0005 14.823 18.0005C14.823 18.0005 11.546 18.0005 8.442 18.0005C5.989 18.0005 4 16.0105 4 13.5605V13.4405C4 10.9905 5.989 9.00055 8.442 9.00055H18.586L15.793 11.7905C15.403 12.1805 15.403 12.8205 15.793 13.2105C16.183 13.6005 16.817 13.6005 17.207 13.2105L21.707 8.71055C22.098 8.32055 22.098 7.68055 21.707 7.29055L17.207 2.79055C16.817 2.40055 16.183 2.40055 15.793 2.79055C15.403 3.18055 15.403 3.82055 15.793 4.21055L18.586 7.00055Z" fill="black"/>
</svg>
