<svg width="24" height="24" viewBox="0 0 24 24" fill="none" xmlns="http://www.w3.org/2000/svg">
<path d="M5.41376 9.00055H15.5578C18.0108 9.00055 19.9998 10.9905 19.9998 13.4405V13.5605C19.9998 16.0105 18.0108 18.0005 15.5578 18.0005C12.4538 18.0005 9.17676 18.0005 9.17676 18.0005C8.62476 18.0005 8.17676 18.4505 8.17676 19.0005C8.17676 19.5505 8.62476 20.0005 9.17676 20.0005C9.17676 20.0005 12.4538 20.0005 15.5578 20.0005C19.1158 20.0005 21.9998 17.1205 21.9998 13.5605V13.4405C21.9998 9.88055 19.1158 7.00055 15.5578 7.00055H5.41376L8.20676 4.21055C8.59676 3.82055 8.59676 3.18055 8.20676 2.79055C7.81676 2.40055 7.18276 2.40055 6.79276 2.79055L2.29276 7.29055C1.90176 7.68055 1.90176 8.32055 2.29276 8.71055L6.79276 13.2105C7.18276 13.6005 7.81676 13.6005 8.20676 13.2105C8.59676 12.8205 8.59676 12.1805 8.20676 11.7905L5.41376 9.00055Z" fill="black"/>
</svg>
