<svg width="16" height="16" viewBox="0 0 16 16" fill="none" xmlns="http://www.w3.org/2000/svg">
<path d="M11.8531 9.80027C11.8531 9.80027 10.5341 11.1113 9.16408 12.4733C7.80908 13.8203 5.62008 13.8163 4.26908 12.4663L4.26808 12.4643C2.91508 11.1113 2.91408 8.91827 4.26608 7.56427L8.40808 3.41727C9.25308 2.57127 10.6241 2.57027 11.4701 3.41427L11.4721 3.41627C11.8781 3.82027 12.1061 4.36927 12.1061 4.94227C12.1071 5.51427 11.8791 6.06427 11.4751 6.46927L8.01708 9.92927C7.69808 10.2483 7.18308 10.2573 6.85408 9.94827L6.85308 9.94727C6.68608 9.79027 6.59008 9.57327 6.58608 9.34527C6.58208 9.11627 6.67008 8.89627 6.83208 8.73327L8.72508 6.82727C9.03608 6.51427 9.03408 6.00727 8.72108 5.69627C8.40808 5.38527 7.90108 5.38627 7.59008 5.70027C7.59008 5.70027 6.56508 6.73127 5.69608 7.60627C5.23108 8.07527 4.97408 8.71227 4.98608 9.37327C4.99808 10.0333 5.27608 10.6613 5.75808 11.1133L5.75908 11.1143C6.71908 12.0153 8.21908 11.9903 9.14908 11.0603C10.0911 10.1173 11.4631 8.74527 12.6071 7.60027C13.3111 6.89427 13.7071 5.93827 13.7061 4.94027C13.7051 3.94327 13.3081 2.98727 12.6021 2.28327L12.6001 2.28127C11.1281 0.813267 8.74508 0.815267 7.27608 2.28627C6.05308 3.51127 4.48808 5.07827 3.13408 6.43427C1.15808 8.41227 1.15908 11.6183 3.13708 13.5963L3.13808 13.5973C5.11208 15.5713 8.31208 15.5763 10.2921 13.6083C11.6621 12.2463 12.9811 10.9353 12.9811 10.9353C13.2941 10.6233 13.2961 10.1163 12.9841 9.80327C12.6731 9.49027 12.1661 9.48927 11.8531 9.80027Z" fill="black"/>
</svg>
