<svg width="24" height="24" viewBox="0 0 24 24" fill="none" xmlns="http://www.w3.org/2000/svg">
<path d="M17.3501 14.3671C17.3501 14.3671 15.2501 16.4541 13.1701 18.5291C11.2801 20.4051 8.23008 20.4011 6.35008 18.5201V18.5181C4.45008 16.6201 4.45008 13.5431 6.35008 11.6441L12.7201 5.26113C13.9601 4.01913 15.9801 4.01613 17.2201 5.25413V5.25613C17.8201 5.85413 18.1601 6.66713 18.1601 7.51513C18.1601 8.36413 17.8301 9.17713 17.2301 9.77813L12.2201 14.7941C11.9401 15.0651 11.5801 15.2171 11.1901 15.2171C10.8101 15.2171 10.4401 15.0651 10.1701 14.7941V14.7931C9.60008 14.2221 9.60008 13.2961 10.1701 12.7231L12.9301 9.94313C13.3201 9.55113 13.3201 8.91813 12.9301 8.52913C12.5301 8.14013 11.9001 8.14213 11.5101 8.53313C11.5101 8.53313 10.0201 10.0391 8.75008 11.3131C7.40008 12.6681 7.41008 14.8561 8.76008 16.2071C9.40008 16.8531 10.2801 17.2171 11.1901 17.2171C12.1101 17.2171 12.9801 16.8541 13.6301 16.2071L18.6401 11.1911C19.6201 10.2151 20.1601 8.89213 20.1601 7.51213C20.1601 6.13313 19.6101 4.81113 18.6301 3.83813C16.6001 1.82113 13.3301 1.82513 11.3101 3.84813C9.44008 5.71913 6.99008 8.16613 4.93008 10.2301C2.25008 12.9111 2.26008 17.2531 4.93008 19.9321C4.94008 19.9321 4.94008 19.9341 4.94008 19.9341C7.60008 22.5941 11.9101 22.6001 14.5801 19.9471C16.6601 17.8721 18.7601 15.7851 18.7601 15.7851C19.1501 15.3961 19.1601 14.7621 18.7701 14.3711C18.3801 13.9801 17.7401 13.9781 17.3501 14.3671Z" fill="black"/>
</svg>
