<svg width="12" height="12" viewBox="0 0 12 12" fill="none" xmlns="http://www.w3.org/2000/svg">
<path d="M8.51909 7.0055C8.51909 7.0055 7.46509 8.0534 6.38509 9.1275C5.40609 10.1004 3.82409 10.0981 2.84909 9.1223L2.84609 9.1198C1.86609 8.14 1.86609 6.5516 2.84509 5.5712C3.90109 4.5139 5.12909 3.2848 6.08909 2.3228C6.70509 1.7062 7.70409 1.7047 8.32209 2.3194L8.32409 2.3217C8.62309 2.6192 8.79109 3.0233 8.79209 3.4451C8.79309 3.8668 8.62509 4.2714 8.32709 4.5698L5.76509 7.1342C5.64909 7.2501 5.49209 7.3153 5.32809 7.3153C5.16409 7.3154 5.00709 7.2503 4.89109 7.1344L4.88909 7.1327C4.64809 6.8919 4.64809 6.5018 4.88809 6.2602L6.32709 4.8116C6.61809 4.518 6.61709 4.0427 6.32309 3.751C6.02909 3.4593 5.55409 3.4608 5.26209 3.7545L3.82309 5.2031C3.00109 6.031 3.00309 7.3682 3.82809 8.1934L3.83009 8.195C4.22709 8.5923 4.76609 8.8155 5.32809 8.8153C5.89009 8.8152 6.42909 8.5919 6.82609 8.1944L9.38809 5.63C9.96809 5.0499 10.2931 4.263 10.2921 3.4429C10.2911 2.6228 9.96309 1.8369 9.38209 1.2584L9.38009 1.2561C8.17609 0.0579036 6.22909 0.0608036 5.02809 1.2628C4.06709 2.2248 2.84009 3.4539 1.78409 4.5112C0.21909 6.0775 0.22009 8.6151 1.78509 10.1805L1.78809 10.183C3.34809 11.7434 5.87709 11.7471 7.44209 10.1912C8.52209 9.1171 9.57609 8.0693 9.57609 8.0693C9.87009 7.7774 9.87109 7.3022 9.58009 7.0086C9.28809 6.7151 8.81209 6.7137 8.51909 7.0055Z" fill="black"/>
</svg>
