<svg width="24" height="24" viewBox="0 0 24 24" fill="none" xmlns="http://www.w3.org/2000/svg">
<path fill-rule="evenodd" clip-rule="evenodd" d="M19.3798 10.683C19.7398 11.095 19.9998 11.653 19.9998 12.494C19.9998 13.599 19.4998 14.214 18.8798 14.687C18.6398 14.872 18.3698 15.025 18.1398 15.198C18.0498 15.269 17.9298 15.324 17.9298 15.467C17.9298 15.604 18.0098 15.68 18.0898 15.761C18.1998 15.861 18.3098 15.956 18.4298 16.057C18.8198 16.386 19.2198 16.762 19.5198 17.316C20.1198 18.403 19.9798 20.041 19.1598 20.937C18.2598 21.937 16.8298 22.435 15.1898 21.459C14.6998 21.167 14.3798 20.778 14.0898 20.399C13.9398 20.21 13.8498 19.97 13.5498 19.97C13.4898 19.97 13.4598 20.019 13.4198 20.054C13.3498 20.109 13.2898 20.173 13.2298 20.241C13.0198 20.466 12.8198 20.723 12.5998 20.957C12.0498 21.537 11.3898 21.974 10.4798 21.974C9.40981 21.974 8.7798 21.502 8.2898 20.915C8.0898 20.677 7.9298 20.415 7.7498 20.185C7.6798 20.096 7.6398 19.973 7.5198 19.971C7.3898 19.969 7.3298 20.062 7.2598 20.143C7.1598 20.254 7.0598 20.378 6.9598 20.503C6.6298 20.928 6.2398 21.351 5.6698 21.633C4.1598 22.386 2.7298 21.831 1.9298 20.961C1.1098 20.073 0.929805 18.402 1.5298 17.316C1.8298 16.762 2.2298 16.386 2.6198 16.057C2.7298 15.956 2.8498 15.861 2.9498 15.761C3.0298 15.68 3.1198 15.604 3.1198 15.467C3.1198 15.324 2.9998 15.269 2.9098 15.198C2.6698 15.025 2.4098 14.872 2.1698 14.687C1.5498 14.214 1.0498 13.599 1.0498 12.494C1.0498 11.308 1.5598 10.684 2.1698 10.226C2.3698 10.075 2.5898 9.94698 2.7898 9.81998C2.8798 9.76398 2.9698 9.70898 3.0398 9.64698C3.0698 9.62198 3.1098 9.60298 3.1098 9.55598C3.1098 9.44498 3.0198 9.39298 2.9498 9.32198C2.8398 9.21998 2.7298 9.12198 2.6098 9.01798C2.2298 8.67998 1.8398 8.29398 1.5798 7.75598C0.989805 6.54798 1.0398 5.17998 1.8298 4.15098C2.5898 3.16598 4.3198 2.66698 5.7798 3.38898C6.3098 3.64798 6.6798 4.05098 7.0098 4.46398C7.1098 4.58598 7.1998 4.70698 7.2998 4.81598C7.3698 4.89698 7.4298 4.99698 7.5498 4.99898C7.6798 5.00098 7.7098 4.87098 7.7798 4.78098C7.9698 4.54798 8.1398 4.28098 8.3398 4.03898C8.8498 3.42998 9.4898 2.95298 10.5398 2.97198C11.4398 2.98798 12.0498 3.35498 12.5498 3.84398L12.4398 3.97098L11.3098 5.45798L11.1598 5.28498C10.9998 5.12098 10.7998 4.97698 10.5098 4.97098C10.1698 4.96598 9.9998 5.16598 9.8398 5.36098C9.7098 5.53198 9.5898 5.71398 9.4598 5.88298C8.9598 6.54598 8.3898 7.01198 7.5198 6.99898C6.7998 6.98798 6.2998 6.67398 5.8598 6.20898C5.6998 6.03298 5.5498 5.83198 5.3798 5.63198C5.2498 5.46498 5.1098 5.28598 4.8898 5.18098C4.3598 4.91398 3.6998 5.00398 3.4198 5.36898C3.0898 5.79898 3.1298 6.37398 3.3798 6.87898C3.6198 7.38298 4.0898 7.63098 4.3998 7.94398C4.8398 8.38998 5.1198 8.88898 5.1098 9.57798C5.0998 10.343 4.7698 10.829 4.2798 11.218C4.0698 11.384 3.8198 11.528 3.5798 11.685C3.3198 11.845 3.0498 12.023 3.0498 12.494C3.0498 12.828 3.2298 12.991 3.4198 13.13C3.5998 13.257 3.7798 13.37 3.9498 13.488C4.6198 13.949 5.1098 14.5 5.1198 15.451C5.1198 16.193 4.8398 16.694 4.3998 17.137C4.0798 17.469 3.5798 17.723 3.2798 18.281C3.0598 18.674 3.0998 19.283 3.3998 19.605C3.6898 19.927 4.2198 20.12 4.7898 19.841C5.0298 19.722 5.1798 19.531 5.3198 19.351C5.4898 19.142 5.6498 18.934 5.8198 18.753C6.2598 18.278 6.7698 17.959 7.5498 17.972C8.4098 17.985 8.95981 18.449 9.4298 19.094C9.5498 19.256 9.6698 19.43 9.7998 19.593C9.9498 19.787 10.1298 19.974 10.4798 19.974C10.7298 19.974 10.8998 19.822 11.0598 19.668C11.2698 19.463 11.4498 19.227 11.6398 19.014C12.1798 18.397 12.7898 17.97 13.5498 17.97C14.3398 17.97 14.8398 18.266 15.2498 18.682C15.4198 18.855 15.5698 19.055 15.7298 19.261C15.8698 19.429 15.9998 19.613 16.2098 19.741C16.8198 20.1 17.3498 19.961 17.6798 19.593C17.9798 19.269 17.9898 18.674 17.7698 18.281C17.4598 17.723 16.9698 17.469 16.6398 17.137C16.2098 16.694 15.9198 16.193 15.9298 15.451C15.9398 14.5 16.4298 13.949 17.0898 13.488C17.2698 13.37 17.4498 13.257 17.6198 13.13C17.8098 12.991 17.9998 12.828 17.9998 12.494C17.9998 12.218 17.9098 12.042 17.7698 11.919L19.2498 10.794L19.3798 10.683ZM11.9698 7.90398L14.0298 5.17698C14.0898 5.10698 14.1498 5.04498 14.2198 4.99098L19.1098 1.18898C19.9798 0.508981 21.2198 0.586982 22.0098 1.36998V1.37198C22.8398 2.20298 22.8898 3.53298 22.1298 4.42798L18.1798 9.05798C18.1398 9.11198 18.0898 9.16098 18.0298 9.20398L15.3398 11.262C15.3698 11.619 15.3398 11.99 15.2498 12.369C14.6198 15.065 12.6098 15.799 10.7498 15.83C9.0898 15.858 7.5798 15.287 7.5798 15.287C7.2098 15.149 6.9598 14.809 6.9298 14.418C6.9298 14.418 6.7998 12.384 7.5798 10.632C8.1698 9.32698 9.2298 8.17798 11.0898 7.92298C11.3898 7.88198 11.6798 7.87598 11.9698 7.90398ZM11.3598 9.90398C12.5398 9.74298 13.5798 10.74 13.2998 11.912C12.9398 13.442 11.7698 13.813 10.7098 13.83C10.0298 13.842 9.3898 13.723 8.9298 13.609C8.9498 13.202 9.0198 12.654 9.1798 12.093C9.44981 11.135 10.0198 10.088 11.3598 9.90398ZM14.5798 9.32198L16.7298 7.67998L20.6098 3.12998C20.6898 3.02998 20.6898 2.87998 20.5898 2.78598V2.78398C20.5198 2.71398 20.4098 2.70698 20.3298 2.76798L15.5498 6.48898L13.9098 8.65698C14.1598 8.84898 14.3898 9.07198 14.5798 9.32198Z" fill="black"/>
</svg>
