<svg width="16" height="16" viewBox="0 0 16 16" fill="none" xmlns="http://www.w3.org/2000/svg">
<path fill-rule="evenodd" clip-rule="evenodd" d="M13.625 7.22913C13.798 7.50513 13.906 7.85813 13.906 8.33013C13.906 9.15613 13.533 9.61713 13.07 9.97113C12.929 10.0781 12.778 10.1721 12.636 10.2691C12.575 10.3101 12.515 10.3511 12.463 10.3971C12.442 10.4161 12.417 10.4331 12.417 10.4671C12.416 10.5401 12.468 10.5761 12.512 10.6191C12.584 10.6891 12.665 10.7561 12.749 10.8281C13.032 11.0701 13.327 11.3481 13.551 11.7551C13.997 12.5641 13.888 13.7841 13.283 14.4501C12.607 15.1951 11.546 15.5671 10.327 14.8411C9.965 14.6251 9.727 14.3391 9.511 14.0591C9.423 13.9461 9.38 13.7921 9.204 13.7841C9.191 13.7921 9.163 13.8111 9.148 13.8231C9.103 13.8611 9.06 13.9051 9.018 13.9511C8.869 14.1131 8.723 14.2981 8.564 14.4661C8.154 14.8991 7.662 15.2221 6.987 15.2221C6.186 15.2221 5.715 14.8701 5.351 14.4321C5.236 14.2941 5.134 14.1461 5.033 14.0051C4.988 13.9431 4.943 13.8821 4.895 13.8281C4.881 13.8131 4.88 13.7841 4.857 13.7841C4.791 13.7831 4.766 13.8381 4.729 13.8791C4.658 13.9581 4.592 14.0461 4.523 14.1351C4.275 14.4491 3.989 14.7601 3.569 14.9691C2.438 15.5291 1.378 15.1151 0.78 14.4681C0.17 13.8071 0.034 12.5641 0.48 11.7551C0.704 11.3481 0.999 11.0701 1.282 10.8281C1.366 10.7561 1.447 10.6891 1.519 10.6191C1.563 10.5761 1.615 10.5401 1.615 10.4671C1.614 10.4331 1.589 10.4161 1.568 10.3971C1.516 10.3511 1.457 10.3101 1.396 10.2691C1.253 10.1721 1.102 10.0781 0.962 9.97113C0.498 9.61713 0.125 9.15613 0.125 8.33013C0.125 7.44413 0.508 6.97813 0.965 6.63613C1.111 6.52613 1.268 6.43313 1.417 6.34013L1.609 6.20513C1.6 6.16013 1.549 6.14213 1.516 6.10913C1.442 6.03713 1.36 5.96813 1.277 5.89413C0.995 5.64513 0.712 5.35913 0.518 4.96213C0.08 4.06513 0.12 3.05113 0.706 2.28713C1.269 1.55413 2.561 1.17913 3.646 1.71613C4.033 1.90813 4.311 2.20513 4.557 2.51113C4.626 2.59713 4.692 2.68313 4.761 2.76013C4.796 2.79813 4.817 2.85313 4.869 2.86313C4.882 2.85113 4.904 2.83213 4.916 2.81813C4.967 2.76313 5.014 2.70113 5.061 2.63613C5.166 2.49413 5.27 2.34413 5.386 2.20413C5.763 1.74913 6.245 1.39413 7.03 1.40813C7.554 1.41713 7.951 1.58813 8.275 1.83913C8.14 1.94913 8.019 2.07813 7.914 2.21813L7.258 3.08413C7.188 3.03813 7.104 3.01013 7.001 3.00813C6.794 3.00413 6.689 3.13513 6.591 3.25713C6.494 3.37913 6.406 3.50913 6.317 3.63013C5.945 4.12813 5.512 4.47413 4.86 4.46413C4.318 4.45613 3.937 4.22113 3.609 3.87113C3.49 3.74313 3.379 3.59813 3.261 3.45313C3.169 3.34113 3.077 3.22013 2.936 3.15013C2.586 2.97713 2.157 3.02513 1.976 3.26113C1.757 3.54613 1.792 3.92613 1.956 4.26113C2.128 4.61413 2.457 4.78513 2.674 5.00413C3.005 5.34113 3.216 5.71713 3.21 6.23713C3.203 6.81513 2.953 7.18313 2.582 7.47813C2.43 7.59913 2.249 7.70413 2.069 7.81813C1.908 7.92013 1.725 8.03013 1.725 8.33013C1.725 8.53713 1.845 8.63513 1.962 8.72113C2.087 8.81213 2.219 8.89313 2.342 8.97713C2.842 9.32313 3.209 9.73913 3.215 10.4541C3.219 11.0121 3.005 11.3901 2.677 11.7231C2.448 11.9571 2.098 12.1331 1.881 12.5271C1.741 12.7811 1.764 13.1751 1.956 13.3831C2.149 13.5921 2.493 13.7161 2.859 13.5351C3.019 13.4561 3.12 13.3261 3.217 13.2051C3.34 13.0531 3.452 12.9021 3.574 12.7711C3.907 12.4131 4.296 12.1751 4.882 12.1841C5.411 12.1921 5.783 12.4201 6.093 12.7681C6.224 12.9141 6.342 13.0881 6.467 13.2601C6.586 13.4241 6.7 13.6221 6.987 13.6221C7.143 13.6221 7.245 13.5221 7.344 13.4251C7.492 13.2801 7.623 13.1121 7.757 12.9611C8.165 12.4981 8.619 12.1831 9.188 12.1831C9.787 12.1831 10.161 12.4061 10.47 12.7181C10.595 12.8451 10.707 12.9911 10.824 13.1421C10.912 13.2551 11.001 13.3801 11.146 13.4661C11.537 13.6991 11.882 13.6141 12.098 13.3751C12.288 13.1661 12.29 12.7811 12.15 12.5271C11.933 12.1341 11.583 11.9571 11.354 11.7231C11.026 11.3901 10.812 11.0121 10.817 10.4541C10.823 9.73913 11.189 9.32313 11.69 8.97713C11.812 8.89313 11.944 8.81213 12.069 8.72113C12.186 8.63513 12.306 8.53713 12.306 8.33013L12.304 8.30313L13.26 7.57313C13.393 7.47113 13.516 7.35613 13.625 7.22913ZM7.958 4.97713L9.269 3.24313C9.312 3.18713 9.361 3.13713 9.416 3.09413L12.926 0.365133C13.553 -0.122867 14.444 -0.0668665 15.005 0.494134L15.126 0.615134C15.706 1.19513 15.743 2.12413 15.211 2.74913C14.297 3.82113 12.351 6.10513 12.351 6.10513C12.314 6.14913 12.273 6.18813 12.228 6.22213L10.392 7.62513C10.393 7.82813 10.37 8.03613 10.32 8.24613C9.859 10.2081 8.403 10.7451 7.045 10.7671C5.856 10.7871 4.767 10.3771 4.767 10.3771C4.474 10.2661 4.272 9.99513 4.251 9.68213C4.251 9.68213 4.154 8.21913 4.721 6.95913C5.148 6.00913 5.92 5.17313 7.273 4.98813C7.507 4.95613 7.736 4.95313 7.958 4.97713ZM7.49 6.57313C8.259 6.46813 8.942 7.11613 8.762 7.88113C8.521 8.91013 7.731 9.15613 7.018 9.16813C6.583 9.17513 6.166 9.10513 5.856 9.03213C5.875 8.75913 5.92 8.41113 6.021 8.05613C6.206 7.40913 6.584 6.69713 7.49 6.57313ZM9.845 6.02913L11.189 5.00313L13.978 1.72913L13.89 1.64213L10.482 4.29313L9.469 5.63213C9.607 5.75113 9.734 5.88413 9.845 6.02913Z" fill="black"/>
</svg>
