<svg width="24" height="24" viewBox="0 0 24 24" fill="none" xmlns="http://www.w3.org/2000/svg">
<path d="M9.63283 4.99953H8.52783C4.66183 4.99953 1.52783 8.12953 1.52783 11.9995C1.52783 13.8595 2.26583 15.6395 3.57783 16.9495C4.89083 18.2595 6.67183 18.9995 8.52783 18.9995C10.7728 18.9995 13.3208 18.9995 15.5658 18.9995C17.4218 18.9995 19.2028 18.2595 20.5148 16.9495C21.8278 15.6395 22.5658 13.8595 22.5658 11.9995C22.5658 11.8795 22.5658 11.7495 22.5658 11.6295C22.5658 9.86953 21.8678 8.17953 20.6248 6.93953C19.3818 5.69953 17.6968 4.99953 15.9398 4.99953C15.3878 4.99953 14.9398 5.44953 14.9398 5.99953C14.9398 6.54953 15.3878 6.99953 15.9398 6.99953C17.1668 6.99953 18.3428 7.48953 19.2108 8.34953C20.0778 9.21953 20.5658 10.3995 20.5658 11.6295C20.5658 11.7495 20.5658 11.8795 20.5658 11.9995C20.5658 13.3295 20.0388 14.5995 19.1008 15.5395C18.1638 16.4695 16.8918 16.9995 15.5658 16.9995C13.3208 16.9995 10.7728 16.9995 8.52783 16.9995C7.20183 16.9995 5.92983 16.4695 4.99283 15.5395C4.05483 14.5995 3.52783 13.3295 3.52783 11.9995C3.52783 9.23953 5.76683 6.99953 8.52783 6.99953H9.63283L8.30083 8.32953C7.90983 8.71953 7.90983 9.35953 8.30083 9.74953C8.69083 10.1395 9.32483 10.1395 9.71483 9.74953L12.7538 6.70953C13.1448 6.31953 13.1448 5.67953 12.7538 5.28953L9.71483 2.24953C9.32483 1.85953 8.69083 1.85953 8.30083 2.24953C7.90983 2.63953 7.90983 3.27953 8.30083 3.66953L9.63283 4.99953Z" fill="black"/>
</svg>
