<svg width="24" height="24" viewBox="0 0 24 24" fill="none" xmlns="http://www.w3.org/2000/svg">
<path fill-rule="evenodd" clip-rule="evenodd" d="M5.07722 18.26C6.02722 19.365 7.41122 20 8.86822 20C10.9252 20 14.3232 20 17.0002 20C19.7612 20 22.0002 17.761 22.0002 15C22.0002 13.119 22.0002 10.881 22.0002 9C22.0002 6.239 19.7612 4 17.0002 4C14.3292 4 10.9412 4 8.88222 4C7.41522 4 6.02222 4.644 5.07222 5.762C3.99922 7.024 2.43722 8.861 1.39322 10.09C0.436223 11.216 0.441223 12.87 1.40422 13.99L5.07722 18.26ZM6.59422 16.956C5.52322 15.711 3.96522 13.901 2.92022 12.685C2.59922 12.312 2.59822 11.761 2.91622 11.386L6.59622 7.057C7.16622 6.386 8.00222 6 8.88222 6H17.0002C18.6572 6 20.0002 7.343 20.0002 9V15C20.0002 16.657 18.6572 18 17.0002 18H8.86822C7.99422 18 7.16322 17.619 6.59422 16.956ZM10.9982 12L8.84722 14.152C8.41722 14.581 8.41722 15.278 8.84722 15.707C9.27622 16.136 9.97322 16.136 10.4022 15.707L12.5542 13.556L14.7052 15.707C15.1352 16.136 15.8322 16.136 16.2612 15.707C16.6902 15.278 16.6902 14.581 16.2612 14.152L14.1102 12L16.2612 9.848C16.6902 9.419 16.6902 8.722 16.2612 8.293C15.8322 7.864 15.1352 7.864 14.7052 8.293L12.5542 10.444L10.4022 8.293C9.97322 7.864 9.27622 7.864 8.84722 8.293C8.41722 8.722 8.41722 9.419 8.84722 9.848L10.9982 12Z" fill="black"/>
</svg>
