<svg width="16" height="16" viewBox="0 0 16 16" fill="none" xmlns="http://www.w3.org/2000/svg">
<path d="M6.35303 4.56089L9.02783 4.84116C9.24302 4.86395 9.41929 5.02305 9.46436 5.23472L10.023 7.86558C10.0679 8.07736 9.97212 8.29436 9.78467 8.40269L7.45557 9.74741C7.26802 9.8557 7.03158 9.83075 6.87061 9.68589L4.87256 7.88608C4.71159 7.74114 4.66239 7.50877 4.75049 7.31089L5.84424 4.85483C5.93235 4.65695 6.1376 4.53825 6.35303 4.56089Z" fill="black"/>
<path fill-rule="evenodd" clip-rule="evenodd" d="M4.28174 1.55894C7.83893 -0.494558 12.3882 0.724468 14.4419 4.28159C16.4951 7.83859 15.2759 12.387 11.7192 14.4408C8.1621 16.4945 3.61294 15.2761 1.55909 11.7191C-0.494688 8.16185 0.724502 3.61271 4.28174 1.55894ZM9.48389 2.35483C8.68517 2.1448 7.842 2.10222 7.01221 2.24448C7.01567 2.34537 6.99036 2.44815 6.93018 2.53843L5.96143 3.99058C5.87504 4.12007 5.73297 4.20216 5.57764 4.21226L3.83545 4.32456C3.72296 4.33185 3.61747 4.3 3.52979 4.24253C2.98876 4.88638 2.6013 5.63491 2.3794 6.42905C2.53405 6.42272 2.68932 6.487 2.79248 6.61753L3.87451 7.98765C3.97091 8.10981 4.00469 8.27043 3.96631 8.42124L3.53467 10.1126C3.46707 10.3777 3.19903 10.54 2.93311 10.4759L2.68604 10.4164C2.76351 10.5862 2.84957 10.7543 2.94483 10.9193C3.5341 11.9397 4.38585 12.7132 5.36475 13.2074L5.09619 12.4486C5.00507 12.1909 5.13772 11.9077 5.39405 11.8128L7.03076 11.2074C7.17659 11.1535 7.33967 11.1704 7.47119 11.2533L8.94678 12.1869C9.17804 12.333 9.25004 12.6383 9.10694 12.8714L8.52783 13.8128C9.34556 13.7391 10.1607 13.4925 10.9185 13.055C11.6645 12.6243 12.2776 12.0521 12.7476 11.3939L11.6509 11.4242C11.3778 11.4311 11.1492 11.2177 11.1382 10.9447L11.0689 9.20054C11.0626 9.04499 11.1288 8.89474 11.2485 8.79526L12.5923 7.68101C12.8028 7.50623 13.115 7.53243 13.2925 7.74058L13.8247 8.36655C13.8955 7.25756 13.6524 6.11598 13.0552 5.0814C12.9666 4.92806 12.8709 4.78116 12.771 4.63901L12.7026 4.87339C12.625 5.13525 12.3514 5.28687 12.0884 5.21323L10.4077 4.74058C10.2579 4.69844 10.1362 4.58827 10.0786 4.4437L9.43311 2.82163C9.36941 2.66161 9.39378 2.48767 9.48389 2.35483Z" fill="black"/>
</svg>
