<svg width="24" height="24" viewBox="0 0 24 24" fill="none" xmlns="http://www.w3.org/2000/svg">
<path d="M10.1319 7.94264L12.9727 8.24147C13.2745 8.27319 13.5217 8.49549 13.585 8.79225L14.1787 11.5872C14.2418 11.8841 14.1067 12.1883 13.8438 12.3401L11.3701 13.7688C11.1072 13.9206 10.7764 13.885 10.5508 13.6819L8.42678 11.7708C8.20132 11.5677 8.13258 11.2423 8.25588 10.9651L9.41799 8.35475C9.54147 8.0774 9.82993 7.9109 10.1319 7.94264Z" fill="black"/>
<path fill-rule="evenodd" clip-rule="evenodd" d="M6.85451 3.08717C11.7507 0.260516 18.0111 1.93908 20.8379 6.83522C23.6643 11.7312 21.9875 17.9907 17.0918 20.8176C12.1957 23.6444 5.93433 21.9676 3.10744 17.0715C0.280748 12.1754 1.95844 5.914 6.85451 3.08717ZM14.6748 4.03541C13.2968 3.56588 11.8027 3.4556 10.3438 3.74537C10.4941 3.97366 10.5027 4.2786 10.3418 4.51979L9.12307 6.34694C9.00202 6.52817 8.80343 6.64228 8.58596 6.65651L6.39357 6.79908C6.09768 6.81811 5.83447 6.64959 5.71584 6.39576C4.72995 7.50556 4.07008 8.84691 3.77736 10.2688L3.79103 10.259C4.09507 10.0254 4.53097 10.0802 4.76857 10.3811L6.1299 12.1047C6.26467 12.2758 6.31147 12.5001 6.25783 12.7112L5.71584 14.8401C5.62104 15.2113 5.24558 15.4374 4.87307 15.3479L4.26271 15.2005C4.39679 15.5177 4.54994 15.831 4.72658 16.137C5.66043 17.7543 7.05276 18.9414 8.64455 19.6301L8.20314 18.384C8.07502 18.0228 8.26067 17.6255 8.62014 17.4924L10.6807 16.7307C10.8851 16.6554 11.1127 16.6799 11.2969 16.7962L13.1543 17.969C13.4779 18.1738 13.5768 18.6004 13.377 18.927L12.626 20.1516C12.5908 20.2089 12.5474 20.2591 12.499 20.303C13.7484 20.2253 14.9996 19.8687 16.1572 19.2005C17.2982 18.5417 18.2241 17.6534 18.9131 16.6292C18.8539 16.6471 18.7922 16.6587 18.7285 16.6604L17.293 16.6995C16.9099 16.7095 16.5896 16.4096 16.5742 16.0266L16.4863 13.8323C16.4777 13.6145 16.5717 13.4052 16.7393 13.2659L18.4287 11.8616C18.7236 11.6172 19.1605 11.6552 19.4092 11.9465L20.2793 12.9671C20.4932 11.2265 20.165 9.40446 19.2207 7.76881C19.0534 7.47899 18.8691 7.20447 18.6738 6.94264L18.5 7.53346C18.3912 7.90093 18.0067 8.11281 17.6377 8.00904L15.5235 7.41432C15.3139 7.3551 15.1442 7.20156 15.0635 6.99928L14.25 4.95826C14.1087 4.60234 14.28 4.19954 14.6338 4.05299L14.6748 4.03541Z" fill="black"/>
</svg>
