<svg width="24" height="24" viewBox="0 0 24 24" fill="none" xmlns="http://www.w3.org/2000/svg">
<path d="M9.74318 7.27076L13.4922 7.66529C13.7939 7.6972 14.0404 7.91933 14.1035 8.21608L14.8877 11.9026C14.9508 12.1995 14.8156 12.5037 14.5528 12.6555L11.2881 14.5403C11.0253 14.6918 10.6943 14.6564 10.4688 14.4534L7.66799 11.9319C7.44246 11.7288 7.37369 11.4035 7.49709 11.1262L9.03029 7.68287C9.15376 7.40563 9.44135 7.23912 9.74318 7.27076Z" fill="black"/>
<path fill-rule="evenodd" clip-rule="evenodd" d="M6.85451 3.08717C11.7507 0.260516 18.0111 1.93908 20.8379 6.83522C23.6643 11.7312 21.9875 17.9907 17.0918 20.8176C12.1957 23.6444 5.93433 21.9676 3.10744 17.0715C0.280748 12.1754 1.95844 5.914 6.85451 3.08717ZM14.4043 3.94752C13.1764 3.57494 11.8656 3.48236 10.5762 3.70045C10.7039 3.92399 10.7051 4.20844 10.5528 4.43678L9.19533 6.47194C9.0743 6.65335 8.87582 6.76825 8.65822 6.78248L6.21584 6.94069C5.93539 6.95868 5.68425 6.80819 5.55764 6.57643C4.72009 7.57602 4.13959 8.75023 3.83986 9.99342C4.13884 9.80949 4.53263 9.87303 4.7549 10.1546L6.27053 12.0745C6.4056 12.2456 6.454 12.4697 6.40041 12.6809L5.79592 15.053C5.70106 15.4242 5.32569 15.6504 4.95314 15.5608L4.35646 15.4172C4.46739 15.6604 4.59022 15.9008 4.72658 16.137C5.61338 17.6728 6.91438 18.8192 8.40627 19.5208L7.98244 18.3264C7.85468 17.9653 8.04198 17.5687 8.40139 17.4358L10.6953 16.5872C10.8999 16.5115 11.1281 16.5352 11.3125 16.6516L13.3809 17.9592C13.7047 18.1641 13.8039 18.5906 13.6035 18.9172L12.7656 20.2825C13.9258 20.1729 15.082 19.8212 16.1572 19.2005C17.216 18.5891 18.0887 17.7795 18.7598 16.8479L17.1709 16.8909C16.7878 16.9011 16.4676 16.601 16.4522 16.218L16.3545 13.7737C16.3458 13.5558 16.4388 13.3457 16.6065 13.2063L18.4893 11.6428C18.7842 11.3983 19.221 11.4363 19.4697 11.7278L20.3057 12.7063C20.4573 11.0454 20.118 9.323 19.2207 7.76881C19.0939 7.54913 18.9566 7.33867 18.8135 7.13502L18.6446 7.70924C18.5357 8.07666 18.1512 8.28761 17.7822 8.18385L15.4278 7.52174C15.2179 7.46273 15.0467 7.31006 14.9658 7.10768L14.0606 4.83326C13.9247 4.49124 14.0783 4.10726 14.4043 3.94752Z" fill="black"/>
</svg>
