<svg width="24" height="24" viewBox="0 0 24 24" fill="none" xmlns="http://www.w3.org/2000/svg">
<path fill-rule="evenodd" clip-rule="evenodd" d="M10.1402 4.17C11.5402 2.82 13.4302 2 15.5002 2C19.8202 2 23.3302 5.58 23.3302 10C23.3302 13.72 20.8402 16.84 17.4802 17.74L17.9402 18.43C18.2102 18.82 18.2802 19.31 18.1402 19.76C18.0002 20.22 17.6602 20.58 17.2202 20.75C17.1502 20.78 17.0802 20.79 17.0102 20.8C16.1202 20.89 14.8902 20.89 14.0102 20.76C13.9502 20.75 13.9002 20.74 13.8402 20.72C13.4102 20.55 13.0702 20.19 12.9302 19.74C12.8002 19.32 12.8602 18.86 13.1002 18.49C12.3302 19.06 11.4502 19.49 10.5002 19.74C10.6402 19.95 10.7902 20.17 10.9602 20.43C11.2202 20.82 11.3002 21.31 11.1602 21.76C11.0202 22.21 10.6802 22.58 10.2402 22.75C10.1702 22.78 10.1002 22.8 10.0302 22.8C9.1302 22.9 7.8802 22.9 6.9902 22.76C6.9302 22.75 6.8802 22.74 6.8202 22.72C6.3902 22.55 6.0502 22.19 5.9102 21.75C5.7802 21.3 5.85019 20.83 6.1102 20.44C6.2802 20.19 6.4402 19.96 6.5802 19.75C3.2002 18.86 0.700195 15.73 0.700195 12C0.700195 7.58 4.2102 4 8.5302 4C9.0802 4 9.6202 4.06 10.1402 4.17ZM8.3502 20C8.1402 20.29 7.8602 20.7 7.5202 21.22C8.1602 21.28 8.9302 21.29 9.5802 21.24C9.2202 20.7 8.9402 20.29 8.7202 20H8.3502ZM15.5002 18H15.3702C15.1602 18.29 14.8902 18.69 14.5402 19.21C15.1702 19.28 15.9302 19.28 16.5602 19.23C16.2102 18.71 15.9302 18.3 15.7102 17.99L15.5002 18ZM8.5302 6C11.7502 6 14.3502 8.7 14.3502 12C14.3502 15.3 11.7502 18 8.5302 18C5.3002 18 2.7002 15.3 2.7002 12C2.7002 8.7 5.3002 6 8.5302 6ZM15.9402 15.98C18.9602 15.75 21.3302 13.15 21.3302 10C21.3302 6.7 18.7302 4 15.5002 4C14.3202 4 13.2102 4.36 12.3002 4.99C14.7102 6.35 16.3502 8.98 16.3502 12C16.3502 13.45 15.9802 14.8 15.3202 15.97L15.4302 15.99L15.4802 16H15.6302C15.7302 15.97 15.8302 15.97 15.9402 15.98ZM6.1002 13.03C5.9802 12.71 5.9102 12.36 5.9102 12C5.9102 10.91 6.5302 9.97 7.4302 9.54C7.8802 9.33 8.0702 8.79 7.8602 8.34C7.6402 7.89 7.1102 7.7 6.6602 7.92C5.1602 8.63 4.1102 10.19 4.1102 12C4.1102 12.6 4.2202 13.17 4.4302 13.69C4.6202 14.15 5.1402 14.38 5.6002 14.2C6.0602 14.01 6.2902 13.49 6.1002 13.03Z" fill="black"/>
</svg>
