<svg width="16" height="16" viewBox="0 0 16 16" fill="none" xmlns="http://www.w3.org/2000/svg">
<path fill-rule="evenodd" clip-rule="evenodd" d="M6.68316 1.80512C7.66826 0.808619 8.99676 0.199219 10.4503 0.199219C13.4589 0.199219 15.932 2.81002 15.932 6.06102C15.932 8.67592 14.3321 10.8765 12.1403 11.6378C12.25 11.8067 12.3776 12.0004 12.5252 12.2202L12.5282 12.2247C12.7354 12.5383 12.7908 12.929 12.6788 13.2882C12.5669 13.6474 12.2995 13.9368 11.951 14.0762C11.8928 14.0995 11.8318 14.1153 11.7696 14.1233C11.0444 14.2169 9.97726 14.2104 9.27116 14.0912C9.21726 14.0821 9.16446 14.0671 9.11386 14.0465C8.77496 13.9084 8.51546 13.6252 8.40676 13.2749C8.33486 13.0435 8.33376 12.7988 8.39926 12.5709C8.02296 12.8112 7.61776 13.0052 7.19106 13.1455C7.31476 13.3497 7.45706 13.5816 7.61916 13.8415L7.62016 13.8431C7.80996 14.1491 7.85886 14.5225 7.75426 14.8673C7.64966 15.2122 7.40166 15.4949 7.07406 15.6429C7.01396 15.6701 6.95046 15.6892 6.88536 15.6997C6.12286 15.8223 4.93906 15.8179 4.18206 15.6757C4.12536 15.665 4.06996 15.6478 4.01716 15.6243C3.68936 15.4788 3.44176 15.1961 3.34016 14.8512C3.23846 14.5063 3.29296 14.1341 3.48496 13.8397C3.65016 13.5805 3.79526 13.3483 3.92146 13.1432C1.68076 12.403 0.0390625 10.184 0.0390625 7.54492C0.0390625 4.29552 2.52776 1.68312 5.55976 1.68312C5.94426 1.68312 6.31996 1.72512 6.68316 1.80512ZM5.51156 13.4065C5.37426 13.6374 5.19976 13.9246 4.98486 14.2675C5.35176 14.2961 5.75986 14.2978 6.12716 14.2743C5.91306 13.9264 5.73976 13.6375 5.60386 13.4065C5.58946 13.4066 5.57466 13.4067 5.55976 13.4067C5.54366 13.4067 5.52766 13.4066 5.51156 13.4065ZM10.5478 11.9219L10.53 11.9222L10.4264 12.0806L10.0476 12.6709C10.3656 12.6926 10.7124 12.6954 11.0339 12.6806C10.8263 12.3651 10.6666 12.114 10.5478 11.9219ZM5.55976 3.28312C7.74146 3.28312 9.48556 5.20682 9.48556 7.54492C9.48556 9.88302 7.74146 11.8067 5.55976 11.8067C3.37806 11.8067 1.63406 9.88302 1.63406 7.54492C1.63406 5.20682 3.37806 3.28312 5.55976 3.28312ZM10.4218 10.3228C10.4313 10.3228 10.4408 10.3229 10.4503 10.3229C12.6125 10.3229 14.3371 8.39752 14.3371 6.06102C14.3371 3.72462 12.6125 1.79922 10.4503 1.79922C9.66936 1.79922 8.94556 2.05032 8.33956 2.48132C9.97496 3.49642 11.0806 5.37922 11.0806 7.54492C11.0806 8.55152 10.8417 9.49712 10.4218 10.3228ZM3.95756 8.27842C3.87136 8.05202 3.82426 7.80432 3.82426 7.54492C3.82426 6.77792 4.23676 6.10982 4.84586 5.80602C5.19076 5.63402 5.33156 5.21352 5.16006 4.86762C4.98866 4.52162 4.56946 4.38042 4.22456 4.55242C3.17046 5.07812 2.42866 6.21762 2.42866 7.54492C2.42866 7.98092 2.50886 8.39712 2.65366 8.77762C2.79106 9.13862 3.19466 9.31982 3.55446 9.18202C3.91426 9.04422 4.09486 8.63932 3.95756 8.27842Z" fill="black"/>
</svg>
