<svg width="16" height="16" viewBox="0 0 16 16" fill="none" xmlns="http://www.w3.org/2000/svg">
<path d="M6.69385 5.15073L8.5708 5.348C8.78623 5.37064 8.96327 5.52967 9.0083 5.74155L9.40088 7.58823C9.4458 7.80004 9.34915 8.01708 9.16162 8.12534L7.52686 9.0687C7.33927 9.17701 7.10287 9.15212 6.9419 9.00718L5.53858 7.74448C5.37774 7.59955 5.32847 7.3671 5.41651 7.16929L6.18506 5.44468C6.2732 5.24688 6.47848 5.1281 6.69385 5.15073Z" fill="black"/>
<path fill-rule="evenodd" clip-rule="evenodd" d="M4.28174 1.55894C7.83893 -0.494558 12.3882 0.724468 14.4419 4.28159C16.4951 7.83859 15.2759 12.387 11.7192 14.4408C8.1621 16.4945 3.61294 15.2761 1.55909 11.7191C-0.494688 8.16185 0.724502 3.61271 4.28174 1.55894ZM9.71338 2.42124C8.7808 2.13498 7.77913 2.08156 6.80225 2.28647C6.81478 2.39935 6.79194 2.51674 6.72412 2.61851L5.89014 3.86851C5.8038 3.99769 5.66237 4.079 5.50733 4.08921L4.0083 4.18686C3.882 4.19505 3.76448 4.15418 3.67139 4.08237C3.00255 4.82118 2.54374 5.71123 2.31983 6.65854C2.497 6.62499 2.68582 6.6872 2.80518 6.83823L3.73682 8.01792C3.83269 8.13984 3.86572 8.29919 3.82764 8.44956L3.45752 9.90561C3.39 10.1707 3.12189 10.3329 2.85596 10.2689L2.59619 10.2054C2.69531 10.4475 2.81042 10.6865 2.94483 10.9193C3.58025 12.0196 4.52089 12.8326 5.59717 13.3177L5.30908 12.5052C5.21787 12.2477 5.35089 11.9646 5.60694 11.8695L7.01709 11.348C7.1628 11.2944 7.3252 11.3121 7.45655 11.3949L8.72608 12.1966C8.95729 12.3428 9.0292 12.6481 8.88623 12.8812L8.37647 13.7093C8.3479 13.7559 8.31143 13.7954 8.271 13.8294C9.17428 13.7882 10.0814 13.5383 10.9185 13.055C11.7422 12.5794 12.4048 11.9321 12.8901 11.1859C12.8432 11.202 12.7938 11.2119 12.7427 11.2132L11.771 11.2386C11.4978 11.2458 11.2695 11.0321 11.2583 10.7591L11.1978 9.25718C11.1917 9.10199 11.259 8.9532 11.3784 8.85386L12.5337 7.8939C12.7441 7.71927 13.0564 7.74546 13.2339 7.95347L13.8032 8.62144C13.9314 7.4335 13.6983 6.19545 13.0552 5.0814C12.9277 4.86056 12.7869 4.65196 12.6362 4.45444L12.563 4.70249C12.4853 4.9645 12.2109 5.11523 11.9478 5.04136L10.5015 4.63511C10.3521 4.59292 10.231 4.48335 10.1733 4.33921L9.61768 2.9437C9.54455 2.76 9.58825 2.55848 9.71338 2.42124Z" fill="black"/>
</svg>
