<svg xmlns="http://www.w3.org/2000/svg" viewBox="0 0 24 24" fill="currentColor"><path fill-rule="evenodd" d="M10.49 23h4a1.001 1.001 0 0 0 0-2h-4a1.001 1.001 0 0 0 0 2M6.25 7.942l-.3 3.464-2.5 1.986c-.43.341-.7.843-.75 1.39l-.12 1.367c-.09 1.1.72 2.07 1.82 2.166l14.86 1.301a1.99 1.99 0 0 0 2.16-1.818l.12-1.366a2 2 0 0 0-.49-1.503l-2.17-2.433c.07-.843.23-2.701.3-3.455.33-3.584-2.34-6.78-5.92-7.051-3.49-.265-6.69 2.363-7.01 5.952m13.18 9.681-14.85-1.3.11-1.368c.83-.652 2.86-2.269 2.87-2.276.2-.17.32-.41.34-.672 0 0 .25-2.813.34-3.89.22-2.492 2.45-4.317 4.87-4.133 2.47.187 4.31 2.398 4.08 4.871-.1.993-.34 3.9-.34 3.9-.03.261.06.521.22.723.01.01 1.77 1.987 2.48 2.78z" clip-rule="evenodd"/></svg>
