<svg width="24" height="24" viewBox="0 0 24 24" fill="none" xmlns="http://www.w3.org/2000/svg">
<path fill-rule="evenodd" clip-rule="evenodd" d="M16.4448 15.1074C17.956 13.5961 18.4388 11.4459 17.8933 9.52638C17.7033 8.858 17.3887 8.21759 16.9494 7.64184C16.7963 7.4412 16.628 7.24841 16.4447 7.06503C16.2609 6.88129 16.0677 6.71275 15.8667 6.55941C15.2908 6.12022 14.6502 5.80574 13.9817 5.61597C12.0625 5.07115 9.91294 5.55421 8.4021 7.06515L7.22422 8.24309L4.68147 8.5871C4.2476 8.6458 3.84498 8.84524 3.53539 9.15483L2.58434 10.1059C1.80328 10.8869 1.80329 12.1533 2.58434 12.9343L10.5893 20.9393C11.3704 21.7203 12.6367 21.7203 13.4177 20.9392L14.3669 19.9901C14.6788 19.6782 14.8789 19.2719 14.9359 18.8345L15.2686 16.2836L16.4448 15.1074ZM15.0305 8.47925C16.4702 9.91903 16.4703 12.2534 15.0305 13.6932L13.7861 14.9377C13.5185 15.2054 13.3468 15.554 13.2979 15.9293L12.9527 18.5759L12.0035 19.525L3.99855 11.5201L4.94961 10.569L7.58717 10.2122C7.95955 10.1618 8.30511 9.99065 8.57082 9.72493L9.81635 8.47932C11.2562 7.03944 13.5906 7.0394 15.0305 8.47925Z" fill="black"/>
<path d="M16.9494 7.64184C17.3887 8.21759 17.7033 8.858 17.8933 9.52638L20.8744 6.54521C21.9544 5.46522 21.9544 3.7142 20.8744 2.63421C19.7945 1.55422 18.0434 1.55422 16.9634 2.63421L13.9817 5.61597C14.6502 5.80574 15.2908 6.12022 15.8667 6.55941L18.3777 4.04843C18.6766 3.74948 19.1613 3.74948 19.4602 4.04843C19.7592 4.34737 19.7592 4.83205 19.4602 5.131L16.9494 7.64184Z" fill="black"/>
<path d="M1.87688 15.4091C2.2674 15.0186 2.90057 15.0186 3.29109 15.4091L5.68515 17.8032C6.07567 18.1937 6.07567 18.8269 5.68515 19.2174C5.29462 19.6079 4.66146 19.6079 4.27093 19.2174L1.87688 16.8233C1.48635 16.4328 1.48635 15.7997 1.87688 15.4091Z" fill="black"/>
</svg>
