<svg width="24" height="24" viewBox="0 0 24 24" fill="none" xmlns="http://www.w3.org/2000/svg">
<path fill-rule="evenodd" clip-rule="evenodd" d="M2 16C2 18.76 4.239 21 7 21C9.977 21 14.024 21 17.002 21C19.763 21 22.002 18.76 22.002 16C22.002 13.56 22.002 10.44 22.002 8C22.002 5.24 19.763 3 17.002 3C14.024 3 9.977 3 7 3C4.239 3 2 5.24 2 8V16ZM19.83 7C19.941 7.31 20.002 7.65 20.002 8V16C20.002 16.35 19.941 16.69 19.83 17H4.171C4.06 16.69 4 16.35 4 16V8C4 7.65 4.06 7.31 4.171 7H19.83Z" fill="black"/>
</svg>
