<svg width="24" height="24" viewBox="0 0 24 24" fill="none" xmlns="http://www.w3.org/2000/svg">
<path fill-rule="evenodd" clip-rule="evenodd" d="M2 16C2 18.76 4.239 21 7 21C9.977 21 14.024 21 17.002 21C19.763 21 22.002 18.76 22.002 16C22.002 13.56 22.002 10.44 22.002 8C22.002 5.24 19.763 3 17.002 3C14.024 3 9.977 3 7 3C4.239 3 2 5.24 2 8V16ZM4 16V8C4 6.34 5.343 5 7 5C9.977 5 14.024 5 17.002 5C18.658 5 20.002 6.34 20.002 8V16C20.002 17.66 18.658 19 17.002 19C14.024 19 9.977 19 7 19C5.343 19 4 17.66 4 16ZM15.224 14.3C15.417 14.06 15.455 13.73 15.322 13.45C15.189 13.17 14.908 12.99 14.6 12.99C13.079 12.99 10.845 12.99 9.326 12.99C9.018 12.99 8.738 13.17 8.605 13.45C8.472 13.73 8.509 14.05 8.701 14.29C9.522 15.32 10.642 16.72 11.331 17.58C11.482 17.77 11.712 17.89 11.955 17.89C12.197 17.89 12.427 17.78 12.579 17.59C13.271 16.73 14.397 15.32 15.224 14.3ZM8.708 9.68C8.515 9.92 8.477 10.25 8.61 10.53C8.743 10.8 9.024 10.98 9.332 10.98C10.853 10.98 13.087 10.98 14.606 10.98C14.914 10.98 15.194 10.8 15.327 10.53C15.46 10.25 15.423 9.92 15.231 9.68C14.41 8.65 13.29 7.25 12.601 6.39C12.45 6.2 12.22 6.09 11.977 6.09C11.735 6.09 11.505 6.2 11.353 6.39C10.661 7.25 9.535 8.65 8.708 9.68Z" fill="black"/>
</svg>
