<svg width="12" height="12" viewBox="0 0 12 12" fill="none" xmlns="http://www.w3.org/2000/svg">
<path fill-rule="evenodd" clip-rule="evenodd" d="M6 1C3.24043 1 1 3.24052 1 6C1 8.75948 3.24043 11 6 11C8.75948 11 11 8.75948 11 6C11 3.24052 8.75948 1 6 1ZM9.00087 3.97414C9.39225 4.55259 9.62069 5.25 9.62069 6C9.62069 7.99828 7.99828 9.62069 6 9.62069C5.25 9.62069 4.55259 9.39224 3.97449 9.00086L9.00087 3.97414ZM8.02585 2.99914L2.99922 8.02586C2.60792 7.44741 2.3793 6.75 2.3793 6C2.3793 4.00172 4.00172 2.37931 5.99999 2.37931C6.74999 2.37931 7.44741 2.60776 8.02585 2.99914Z" fill="black"/>
</svg>
