<svg width="16" height="16" viewBox="0 0 16 16" fill="none" xmlns="http://www.w3.org/2000/svg">
<path fill-rule="evenodd" clip-rule="evenodd" d="M8.00001 0.707031C3.97501 0.707031 0.708008 3.97403 0.708008 7.99903C0.708008 12.024 3.97501 15.291 8.00001 15.291C12.025 15.291 15.292 12.024 15.292 7.99903C15.292 3.97403 12.025 0.707031 8.00001 0.707031ZM12.58 4.62003C13.279 5.56503 13.692 6.73403 13.692 7.99903C13.692 11.141 11.142 13.691 8.00001 13.691C6.73501 13.691 5.56601 13.278 4.62101 12.579L12.58 4.62003ZM11.458 3.47903L3.48001 11.457C2.74501 10.498 2.30801 9.29903 2.30801 7.99903C2.30801 4.85703 4.85801 2.30703 8.00001 2.30703C9.30001 2.30703 10.499 2.74403 11.458 3.47903Z" fill="black"/>
</svg>
