<svg width="24" height="24" viewBox="0 0 24 24" fill="none" xmlns="http://www.w3.org/2000/svg">
<path fill-rule="evenodd" clip-rule="evenodd" d="M8.98009 10.1822L6.89009 8.84317C6.42009 8.54617 5.80009 8.68317 5.51009 9.14817C5.21009 9.61317 5.35009 10.2322 5.81009 10.5292L8.11009 11.9962L5.87009 13.4482C5.40009 13.7482 5.27009 14.3672 5.57009 14.8312C5.87009 15.2942 6.49009 15.4272 6.95009 15.1272L8.98009 13.8132V19.8092C8.98009 20.5762 9.42009 21.2752 10.1101 21.6092C10.8001 21.9432 11.6201 21.8542 12.2201 21.3792L16.4101 18.0752C16.9201 17.6742 17.2001 17.0522 17.1701 16.4052C17.1401 15.7592 16.7901 15.1682 16.2501 14.8202L11.8101 11.9862L16.2601 9.10917C16.8001 8.75817 17.1401 8.16517 17.1701 7.51817C17.2001 6.87217 16.9101 6.25117 16.4001 5.85317L12.2101 2.58717C11.6101 2.11717 10.7901 2.03117 10.1101 2.36717C9.42009 2.70217 8.98009 3.39917 8.98009 4.16417V10.1822ZM10.9801 19.8092L15.1701 16.5052L10.9801 13.8322V19.8092ZM10.9801 4.16417V10.1372L15.1701 7.43017L10.9801 4.16417Z" fill="black"/>
</svg>
