<svg width="16" height="16" viewBox="0 0 16 16" fill="none" xmlns="http://www.w3.org/2000/svg">
<path fill-rule="evenodd" clip-rule="evenodd" d="M13.7969 4.52984C13.7969 3.65084 13.4479 2.80684 12.8259 2.18584C12.2039 1.56384 11.3609 1.21484 10.4819 1.21484C8.96687 1.21484 7.04387 1.21484 5.52887 1.21484C4.64987 1.21484 3.80687 1.56384 3.18487 2.18584C2.56387 2.80684 2.21387 3.65084 2.21387 4.52984V13.1338C2.21387 13.7458 2.57487 14.2998 3.13387 14.5478C3.69287 14.7968 4.34487 14.6918 4.79887 14.2818L8.00587 11.3828L11.2129 14.2778C11.6669 14.6878 12.3189 14.7918 12.8779 14.5438C13.4369 14.2948 13.7969 13.7408 13.7969 13.1298V4.52984ZM12.1969 13.0108L8.54187 9.71084C8.23687 9.43584 7.77387 9.43584 7.46887 9.71084L3.81387 13.0148V4.52984C3.81387 4.07484 3.99487 3.63884 4.31687 3.31684C4.63787 2.99484 5.07487 2.81484 5.52887 2.81484H10.4819C10.9369 2.81484 11.3729 2.99484 11.6949 3.31684C12.0159 3.63884 12.1969 4.07484 12.1969 4.52984V13.0108Z" fill="black"/>
</svg>
