<svg width="12" height="12" viewBox="0 0 12 12" fill="none" xmlns="http://www.w3.org/2000/svg">
<path fill-rule="evenodd" clip-rule="evenodd" d="M1.88035 3.13421L0.641353 1.89521C0.309653 1.56351 0.309653 1.02481 0.641353 0.693111C0.973053 0.361411 1.51175 0.361411 1.84345 0.693111L2.66035 1.51001C3.07865 1.14261 3.61775 0.938311 4.17795 0.938311C5.26755 0.938311 6.73595 0.938311 7.82565 0.938311C8.43565 0.938311 9.02065 1.18061 9.45195 1.61191C9.88335 2.04321 10.1257 2.62831 10.1257 3.23831V8.97531L11.0508 9.90041C11.3825 10.2321 11.3825 10.7708 11.0508 11.1025C10.7191 11.4342 10.1804 11.4342 9.84865 11.1025L9.47395 10.7278L9.47215 10.7287L5.60855 6.86521L5.61035 6.86421L3.47795 4.73181V4.73451L1.88025 3.13681L1.88035 3.13421ZM1.87795 5.53871V9.66371C1.87795 10.138 2.15725 10.5678 2.59065 10.7604C3.02415 10.9529 3.53025 10.8722 3.88225 10.5543L5.46445 9.12521L4.33165 7.99241L3.47795 8.76351V7.13871L1.87795 5.53871ZM8.52565 7.37531L3.79965 2.64931C3.91165 2.57741 4.04275 2.53831 4.17795 2.53831H7.82565C8.01125 2.53831 8.18935 2.61201 8.32055 2.74331C8.45185 2.87461 8.52565 3.05261 8.52565 3.23831V7.37531Z" fill="black"/>
</svg>
