<svg width="24" height="24" viewBox="0 0 24 24" fill="none" xmlns="http://www.w3.org/2000/svg">
<path d="M17.4443 4.8998C18.5919 4.68155 19.655 5.56086 19.6553 6.7289V18.0531C19.6552 19.865 18.1859 21.3334 16.374 21.3334H8.25879L15.2363 17.3051C16.5892 16.5236 17.4227 15.0794 17.4229 13.517V4.90175C17.4299 4.90049 17.4373 4.90113 17.4443 4.8998Z" fill="black"/>
<path fill-rule="evenodd" clip-rule="evenodd" d="M11.8193 0.531632C13.3518 -0.318411 15.2344 0.789912 15.2344 2.54237V3.06972C15.2344 3.08148 15.2361 3.09317 15.2363 3.10487V13.517C15.2362 14.2979 14.8187 15.0198 14.1426 15.4105L5.40234 20.4564C4.75777 19.8574 4.35456 19.0025 4.35449 18.0531V6.6039C4.35465 5.41177 5.00143 4.314 6.04395 3.73573L11.8193 0.531632ZM11.5068 4.55312C11.5068 4.057 10.9771 3.7404 10.54 3.97499L8.37598 5.1371C7.91471 5.38478 7.62703 5.86552 7.62695 6.38905V6.87343C7.62728 7.36913 8.15588 7.68564 8.59277 7.45155L10.7568 6.28944C11.2182 6.04173 11.5069 5.56015 11.5068 5.03651V4.55312Z" fill="black"/>
</svg>
