<svg width="24" height="24" viewBox="0 0 24 24" fill="none" xmlns="http://www.w3.org/2000/svg">
<path d="M5.85667 5.51777C5.55045 5.69724 5.3623 6.02558 5.3623 6.38052V18.997C5.3623 19.7697 6.20129 20.2505 6.86794 19.8598L7.0687 19.7421H9.04643H15.6376C16.7421 19.7421 17.6376 18.8467 17.6376 17.7421V8.80744C17.6376 7.92473 17.0657 7.17558 16.2723 6.91025C16.0728 6.84356 15.8594 6.80744 15.6376 6.80744H15.2723V4.80744H15.6376C15.8536 4.80744 16.0656 4.82456 16.2723 4.85751C18.1798 5.16163 19.6376 6.81429 19.6376 8.80744V17.7421C19.6376 19.9513 17.8467 21.7421 15.6376 21.7421H6.3623C5.25774 21.7421 4.3623 20.8467 4.3623 19.7421V6.80744C4.3623 5.70287 5.25774 4.80744 6.3623 4.80744H7.0687L5.85667 5.51777Z" fill="black"/>
<path fill-rule="evenodd" clip-rule="evenodd" d="M5.85667 5.51777C5.55045 5.69724 5.3623 6.02558 5.3623 6.38052V18.997C5.3623 19.7697 6.20129 20.2505 6.86794 19.8598L7.0687 19.7421H9.04643L13.8004 16.9559C15.3315 16.0586 16.2723 14.4169 16.2723 12.6422V6.91025C16.0728 6.84356 15.8594 6.80744 15.6376 6.80744H15.2723V4.80744H15.6376C15.8536 4.80744 16.0656 4.82456 16.2723 4.85751V3.48989C16.2723 1.17179 13.7553 -0.270461 11.7554 0.90164L5.35104 4.65502C4.7386 5.01396 4.3623 5.67064 4.3623 6.38052V6.80744C4.3623 5.70287 5.25774 4.80744 6.3623 4.80744H7.0687L5.85667 5.51777ZM14.2723 3.48989C14.2723 2.71719 13.4333 2.23644 12.7666 2.62714L6.3623 6.38052V18.997L12.7892 15.2304C13.7078 14.692 14.2723 13.707 14.2723 12.6422V3.48989Z" fill="black"/>
<path d="M12.0619 7.52908C12.5383 7.24982 12.6982 6.63718 12.419 6.1607C12.1397 5.68421 11.5271 5.52432 11.0506 5.80358L8.57249 7.25591C8.09601 7.53517 7.93612 8.14781 8.21538 8.6243C8.49463 9.10078 9.10727 9.26067 9.58376 8.98141L12.0619 7.52908Z" fill="black"/>
</svg>
