<svg width="12" height="12" viewBox="0 0 12 12" fill="none" xmlns="http://www.w3.org/2000/svg">
<path fill-rule="evenodd" clip-rule="evenodd" d="M10.1259 3.2375C10.1259 2.6275 9.88293 2.0424 9.45193 1.6111C9.02093 1.1798 8.43593 0.9375 7.82593 0.9375C6.73593 0.9375 5.26793 0.9375 4.17793 0.9375C3.56793 0.9375 2.98293 1.1798 2.55193 1.6111C2.11993 2.0424 1.87793 2.6274 1.87793 3.2374V9.6629C1.87793 10.1372 2.15693 10.567 2.59093 10.7596C3.02393 10.9521 3.52993 10.8714 3.88193 10.5535L6.00193 8.6388L8.12193 10.5507C8.47393 10.8682 8.97993 10.9487 9.41293 10.756C9.84593 10.5634 10.1259 10.1337 10.1259 9.6596V3.2375ZM8.52593 8.7601L6.53793 6.9671C6.23293 6.6924 5.76993 6.6926 5.46593 6.9675L3.47793 8.7627V3.2375C3.47793 3.0518 3.55193 2.8737 3.68293 2.7425C3.81393 2.6112 3.99193 2.5375 4.17793 2.5375H7.82593C8.01093 2.5375 8.18893 2.6112 8.32093 2.7425C8.45193 2.8738 8.52593 3.0518 8.52593 3.2375V8.7601Z" fill="black"/>
</svg>
