<svg width="12" height="12" viewBox="0 0 12 12" fill="none" xmlns="http://www.w3.org/2000/svg">
<path d="M10.123 1.03565C10.1664 1.03817 10.2009 1.0406 10.2256 1.04248C10.2378 1.04342 10.2476 1.0448 10.2549 1.04541C10.2583 1.04571 10.2614 1.04521 10.2637 1.04541L10.2676 1.04639H10.2695C10.6808 1.08471 10.9951 1.43017 10.9951 1.84327V2.40381C11.5876 2.69845 11.9951 3.30859 11.9951 4.01514V9.51514C11.9951 10.5092 11.1894 11.3149 10.1953 11.3149H1.80469C0.810605 11.3149 0.00493126 10.5092 0.00488281 9.51514V4.01514C0.00488281 3.30859 0.412441 2.69845 1.00488 2.40381V1.84327C1.00488 1.43017 1.3192 1.08471 1.73047 1.04639H1.73242L1.73633 1.04541C1.73862 1.04521 1.74168 1.04571 1.74512 1.04541C1.75241 1.0448 1.76218 1.04342 1.77441 1.04248C1.79907 1.0406 1.83362 1.03817 1.87695 1.03565C1.96354 1.03061 2.08596 1.02535 2.23633 1.02295C2.53616 1.01818 2.95317 1.02576 3.42285 1.07471C4.17634 1.15326 5.15558 1.34817 6 1.84327C6.84444 1.34822 7.82365 1.15324 8.57715 1.07471C9.04685 1.02576 9.46382 1.01818 9.76367 1.02295C9.91403 1.02535 10.0365 1.03062 10.123 1.03565ZM2.60449 8.26416C3.41506 8.34341 4.17119 8.53214 4.79492 8.75342C4.93568 8.80336 5.07092 8.85613 5.2002 8.90967V3.23096C4.65285 2.90663 3.93958 2.73669 3.25684 2.66553C3.0203 2.64088 2.79857 2.63029 2.60449 2.62549V8.26416ZM9.39551 2.62549C9.20143 2.63029 8.9797 2.64088 8.74316 2.66553C8.06061 2.73667 7.34708 2.9059 6.7998 3.22998V8.90967C6.92907 8.85614 7.06433 8.80335 7.20508 8.75342C7.82884 8.53215 8.58494 8.3434 9.39551 8.26416V2.62549ZM1.79102 2.21534C1.76171 2.21556 1.73268 2.21685 1.7041 2.22022C1.73294 2.21863 1.76183 2.21556 1.79102 2.21534ZM10.2949 2.22022C10.2926 2.21995 10.2904 2.21949 10.2881 2.21924L10.209 2.21534C10.2378 2.21555 10.2664 2.21866 10.2949 2.22022Z" fill="black"/>
</svg>
