<svg width="16" height="16" viewBox="0 0 16 16" fill="none" xmlns="http://www.w3.org/2000/svg">
<path d="M11.9829 3.22535C12.7772 3.07438 13.5131 3.68345 13.5132 4.49195V12.3298C13.5132 13.5841 12.4959 14.6013 11.2417 14.6013H5.62451L10.4536 11.8132C11.3903 11.2724 11.9672 10.2718 11.9673 9.19019V3.2273C11.9724 3.22639 11.9778 3.22632 11.9829 3.22535Z" fill="black"/>
<path fill-rule="evenodd" clip-rule="evenodd" d="M8.08936 0.201913C9.15001 -0.386176 10.4524 0.380736 10.4526 1.59351V1.95875C10.4526 1.96423 10.4535 1.96988 10.4536 1.97535V9.19019C10.4535 9.73087 10.165 10.2313 9.69678 10.5017L3.64893 13.9929C3.20245 13.5782 2.92139 12.9873 2.92139 12.3298V4.40601C2.92139 3.58072 3.3696 2.82 4.09131 2.41969L8.08936 0.201913ZM7.87158 2.87769C7.87156 2.58332 7.55775 2.39505 7.29834 2.53394L5.64795 3.41969C5.36358 3.57238 5.18607 3.86938 5.18604 4.19215V4.69996C5.18633 4.99428 5.50087 5.18201 5.76025 5.04273L7.40967 4.15699C7.69408 4.00428 7.8716 3.70735 7.87158 3.38453V2.87769Z" fill="black"/>
</svg>
