<svg width="24" height="24" viewBox="0 0 24 24" fill="none" xmlns="http://www.w3.org/2000/svg">
<path fill-rule="evenodd" clip-rule="evenodd" d="M19.4999 17.9496L21.6699 20.1136C22.0999 20.5426 22.0999 21.2396 21.6699 21.6696C21.2399 22.0986 20.5399 22.0986 20.1099 21.6696L1.9099 3.46759C1.4799 3.03759 1.4799 2.34059 1.9099 1.91159C2.3399 1.48259 3.0399 1.48259 3.4699 1.91159L5.6999 4.14659C6.4499 3.41059 7.4499 2.99959 8.4999 2.99959C10.5999 2.99959 13.3999 2.99959 15.4999 2.99959C16.5699 2.99959 17.5799 3.42059 18.3299 4.17159C19.0799 4.92159 19.4999 5.93859 19.4999 6.99959V17.9496ZM4.4999 8.87759V18.9306C4.4999 19.6856 4.9499 20.3686 5.6399 20.6716C6.3299 20.9746 7.1399 20.8406 7.6899 20.3286L11.9899 16.3686L10.5799 14.9526L6.4999 18.7066V10.8776L4.4999 8.87759ZM17.4999 15.9496L7.1199 5.56159C7.4899 5.20059 7.9799 4.99959 8.4999 4.99959H15.4999C16.0299 4.99959 16.5399 5.21059 16.9199 5.58559C17.2899 5.96059 17.4999 6.46959 17.4999 6.99959V15.9496Z" fill="black"/>
</svg>
