<svg width="16" height="16" viewBox="0 0 16 16" fill="none" xmlns="http://www.w3.org/2000/svg">
<path fill-rule="evenodd" clip-rule="evenodd" d="M2.40976 3.41863L0.800758 1.80963C0.468758 1.47863 0.468758 0.939625 0.800758 0.607625C1.13276 0.276625 1.67076 0.276625 2.00276 0.607625L3.39176 1.99662C3.98676 1.49262 4.74376 1.21363 5.52876 1.21363C7.04376 1.21363 8.96676 1.21363 10.4818 1.21363C11.3608 1.21363 12.2038 1.56263 12.8258 2.18463C13.4478 2.80562 13.7968 3.64963 13.7968 4.52863V12.4016L15.2768 13.8816C15.6088 14.2136 15.6088 14.7526 15.2768 15.0836C14.9448 15.4156 14.4068 15.4156 14.0748 15.0836L13.2748 14.2846L13.2728 14.2876L10.1168 11.1316L10.1748 11.1846L3.81376 4.82363V4.82963L2.40776 3.42263L2.40976 3.41863ZM2.21376 6.05762V13.1326C2.21376 13.7446 2.57476 14.2986 3.13376 14.5466C3.69276 14.7956 4.34476 14.6906 4.79876 14.2806L7.75976 11.6036L6.62776 10.4706L3.81376 13.0136V7.65762L2.21376 6.05762ZM12.1968 10.8016L4.53276 3.13863C4.81976 2.92663 5.16876 2.81363 5.52876 2.81363H10.4818C10.9368 2.81363 11.3728 2.99363 11.6948 3.31563C12.0158 3.63763 12.1968 4.07363 12.1968 4.52863V10.8016Z" fill="black"/>
</svg>
