<svg width="16" height="16" viewBox="0 0 16 16" fill="none" xmlns="http://www.w3.org/2000/svg">
<path d="M6.47754 4.09656C6.80891 3.90265 7.23543 4.01439 7.42969 4.34558C7.62377 4.6769 7.5127 5.10334 7.18164 5.29773L5.45703 6.3075C5.12554 6.50176 4.69916 6.39094 4.50488 6.05945C4.31084 5.72799 4.4225 5.30153 4.75391 5.1073L6.47754 4.09656Z" fill="black"/>
<path fill-rule="evenodd" clip-rule="evenodd" d="M6.25879 0.601443C7.73599 -0.412317 9.74502 0.64569 9.74512 2.43738V8.71961C9.74497 9.91157 9.15748 11.0274 8.1748 11.702L5.7168 13.3895H10.8262C11.5173 13.3889 12.0781 12.8278 12.0781 12.1366V5.92078C12.0776 5.33733 11.6771 4.84837 11.1367 4.70984V3.01551C12.6037 3.17104 13.7475 4.41275 13.748 5.92078V12.1366C13.748 13.75 12.4394 15.0588 10.8262 15.0595H3.7207C2.87557 15.0592 2.19043 14.3734 2.19043 13.5282V12.9315C2.19027 12.9221 2.18945 12.9126 2.18945 12.9032V4.20105C2.18949 3.69694 2.43805 3.22481 2.85352 2.93933L6.25879 0.601443ZM8.0752 2.43738C8.0751 1.98947 7.57241 1.72486 7.20312 1.9784L3.85938 4.27332V12.6386L7.22949 10.3251C7.75857 9.96183 8.07505 9.36135 8.0752 8.71961V2.43738Z" fill="black"/>
</svg>
