<svg width="24" height="24" viewBox="0 0 24 24" fill="none" xmlns="http://www.w3.org/2000/svg">
<path fill-rule="evenodd" clip-rule="evenodd" d="M19.5 7C19.5 5.939 19.08 4.922 18.33 4.172C17.58 3.421 16.57 3 15.5 3C13.4 3 10.6 3 8.5 3C7.44 3 6.42 3.421 5.67 4.172C4.92 4.922 4.5 5.939 4.5 7V18.931C4.5 19.686 4.95 20.369 5.64 20.672C6.33 20.975 7.14 20.841 7.69 20.329L12 16.359L16.32 20.324C16.87 20.835 17.68 20.969 18.37 20.666C19.06 20.363 19.5 19.679 19.5 18.924V7ZM17.5 18.701L12.68 14.264C12.3 13.912 11.71 13.912 11.33 14.264L6.5 18.707V7C6.5 6.47 6.71 5.961 7.09 5.586C7.46 5.211 7.97 5 8.5 5H15.5C16.03 5 16.54 5.211 16.92 5.586C17.29 5.961 17.5 6.47 17.5 7V18.701Z" fill="black"/>
</svg>
