<svg width="24" height="24" viewBox="0 0 24 24" fill="none" xmlns="http://www.w3.org/2000/svg">
<path fill-rule="evenodd" clip-rule="evenodd" d="M12 13.0898C12.52 13.6798 13.25 14.4498 14.1 15.1298C15.34 16.1198 16.82 16.8898 18.25 16.8798C21.69 16.8598 24 14.4498 24 11.4998C24 8.54975 21.69 6.13975 18.25 6.10975C16.8 6.09975 15.32 6.86975 14.08 7.85975C13.24 8.53975 12.52 9.29975 12.01 9.88975C11.5 9.29975 10.78 8.53975 9.94 7.85975C8.71 6.86975 7.21 6.08975 5.73 6.10975C2.29 6.14975 0 8.54975 0 11.4998C0 14.4498 2.3 16.8898 5.74 16.8798C7.2 16.8798 8.68 16.1098 9.91 15.1198C10.76 14.4398 11.49 13.6798 12 13.0898ZM18.23 14.8798C17.23 14.8898 16.22 14.2598 15.35 13.5698C14.46 12.8598 13.72 12.0298 13.27 11.4898C13.71 10.9498 14.45 10.1298 15.34 9.41975C16.2 8.72975 17.21 8.09975 18.23 8.10975C20.44 8.12975 22 9.59975 22 11.4998C22 13.3898 20.44 14.8698 18.23 14.8798ZM5.75 8.10975C6.8 8.09975 7.82 8.71975 8.68 9.41975C9.57 10.1298 10.3 10.9498 10.73 11.4898C10.29 12.0298 9.55 12.8498 8.66 13.5598C7.79 14.2598 6.77 14.8798 5.74 14.8798C3.53 14.8898 2 13.3898 2 11.4998C2 9.59975 3.54 8.13975 5.75 8.10975Z" fill="black"/>
</svg>
