<svg width="16" height="16" viewBox="0 0 16 16" fill="none" xmlns="http://www.w3.org/2000/svg">
<path fill-rule="evenodd" clip-rule="evenodd" d="M7.20824 2.82551C6.77964 2.56491 6.49314 2.09341 6.49314 1.55561C6.49314 0.735812 7.15874 0.0703125 7.97844 0.0703125C8.79814 0.0703125 9.46374 0.735812 9.46374 1.55561C9.46374 2.06811 9.20354 2.52031 8.80824 2.78731V4.19971H10.785C12.058 4.19971 13.2789 4.70541 14.1791 5.60561C15.0793 6.50581 15.585 7.72671 15.585 8.99971C15.585 9.66431 15.585 10.3537 15.585 11.0183C15.585 12.2913 15.0793 13.5122 14.1791 14.4124C13.2789 15.3125 12.058 15.8183 10.785 15.8183C9.02874 15.8183 6.97134 15.8183 5.21504 15.8183C3.94204 15.8183 2.72114 15.3125 1.82094 14.4124C0.920739 13.5122 0.415039 12.2913 0.415039 11.0183C0.415039 10.3537 0.415039 9.66431 0.415039 8.99971C0.415039 7.72671 0.920739 6.50581 1.82094 5.60561C2.72114 4.70541 3.94204 4.19971 5.21504 4.19971H7.20824V2.82551ZM13.985 8.99971C13.985 9.66431 13.985 10.3537 13.985 11.0183C13.985 11.867 13.6479 12.6809 13.0477 13.281C12.4476 13.8811 11.6337 14.2183 10.785 14.2183C9.02874 14.2183 6.97134 14.2183 5.21504 14.2183C4.36634 14.2183 3.55244 13.8811 2.95234 13.281C2.35214 12.6809 2.01504 11.867 2.01504 11.0183C2.01504 10.3537 2.01504 9.66431 2.01504 8.99971C2.01504 8.15101 2.35214 7.33711 2.95234 6.73701C3.55244 6.13681 4.36634 5.79971 5.21504 5.79971C6.97134 5.79971 9.02874 5.79971 10.785 5.79971C11.6337 5.79971 12.4476 6.13681 13.0477 6.73701C13.6479 7.33711 13.985 8.15101 13.985 8.99971ZM8.87564 11.1087C8.84374 11.2353 8.73384 11.3289 8.61304 11.4059C8.43674 11.5182 8.21844 11.5848 8.00334 11.5848C7.63014 11.5848 7.21804 11.4041 7.12844 11.0924C7.00654 10.668 6.56304 10.4224 6.13874 10.5443C5.71434 10.6662 5.46874 11.1097 5.59064 11.534C5.85134 12.4418 6.91664 13.1848 8.00334 13.1848C9.10154 13.1848 10.19 12.4427 10.4273 11.4988C10.5349 11.0705 10.2747 10.6355 9.84654 10.5278C9.41834 10.4202 8.98324 10.6804 8.87564 11.1087ZM9.99194 7.02281C10.6125 7.02281 11.1164 7.52671 11.1164 8.14731C11.1164 8.76791 10.6125 9.27181 9.99194 9.27181C9.37124 9.27181 8.86744 8.76791 8.86744 8.14731C8.86744 7.52671 9.37124 7.02281 9.99194 7.02281ZM5.97484 7.02281C6.59554 7.02281 7.09944 7.52671 7.09944 8.14731C7.09944 8.76791 6.59554 9.27181 5.97484 9.27181C5.35424 9.27181 4.85034 8.76791 4.85034 8.14731C4.85034 7.52671 5.35424 7.02281 5.97484 7.02281Z" fill="black"/>
</svg>
