<svg width="24" height="24" viewBox="0 0 24 24" fill="none" xmlns="http://www.w3.org/2000/svg">
<path fill-rule="evenodd" clip-rule="evenodd" d="M3.17513 7.86727C3.08913 7.53537 3.04413 7.18737 3.04413 6.82877C3.04413 4.54137 4.90113 2.68437 7.18813 2.68437C7.86513 2.68437 8.50513 2.84717 9.07013 3.13567C9.66013 1.56557 11.1751 0.447266 12.9501 0.447266C14.6401 0.447266 16.0961 1.46107 16.7401 2.91347C16.8941 2.89587 17.0511 2.88687 17.2091 2.88687C19.4791 2.88687 21.3231 4.72997 21.3231 7.00007C21.3231 8.37397 20.6471 9.59137 19.6111 10.3385C18.5851 13.1918 17.1041 17.3111 17.1041 17.3111C17.6571 17.9587 18.7091 19.1688 19.4131 19.8358C19.8101 20.2119 19.8311 20.837 19.4601 21.2391C18.4031 22.3868 16.9541 22.9942 15.5831 23.2858C13.6371 23.6994 11.8801 23.4806 11.8801 23.4806C11.6091 23.4473 11.3641 23.3048 11.2011 23.086C11.0371 22.8672 10.9711 22.5911 11.0161 22.322L11.5631 19.072L11.5051 18.889L5.48513 15.4397C5.45613 15.4403 5.42713 15.4406 5.39913 15.4406C3.12913 15.4406 1.28613 13.5975 1.28613 11.3274C1.28613 9.87607 2.03913 8.59937 3.17513 7.86727ZM15.6831 18.725C15.1671 18.9056 14.3941 19.1656 13.5331 19.4204C13.3851 20.2953 13.1761 21.5394 13.1761 21.5394C13.7211 21.534 14.4281 21.4867 15.1671 21.3295C15.8731 21.1792 16.6181 20.9307 17.2641 20.4999C16.6961 19.8926 16.0901 19.199 15.6831 18.725ZM17.2071 11.1133C16.5201 11.1129 15.8721 10.9438 15.3031 10.6449C14.7411 12.2476 13.2141 13.3982 11.4201 13.3982C10.6231 13.3982 9.87913 13.171 9.24813 12.778C8.98313 13.4801 8.53213 14.0909 7.95413 14.5496L13.0601 17.4746C13.9331 17.2142 14.7011 16.9515 15.1671 16.7865L17.2071 11.1133ZM5.39913 9.21417C6.56513 9.21417 7.51213 10.1611 7.51213 11.3274C7.51213 12.4937 6.56513 13.4406 5.39913 13.4406C4.23213 13.4406 3.28613 12.4937 3.28613 11.3274C3.28613 10.1611 4.23213 9.21417 5.39913 9.21417ZM13.3481 8.41877C13.0171 7.68387 12.2781 7.17177 11.4201 7.17177C10.2541 7.17177 9.30713 8.11867 9.30713 9.28497C9.30713 10.4513 10.2541 11.3982 11.4201 11.3982C12.5861 11.3982 13.5331 10.4513 13.5331 9.28497C13.5331 9.04567 13.4931 8.81557 13.4201 8.60097C13.3941 8.54097 13.3701 8.48017 13.3481 8.41877ZM15.2821 7.86627C15.6131 8.60117 16.3521 9.11327 17.2091 9.11327C18.3761 9.11327 19.3231 8.16637 19.3231 7.00007C19.3231 5.83377 18.3761 4.88687 17.2091 4.88687C16.0431 4.88687 15.0961 5.83377 15.0961 7.00007C15.0961 7.23937 15.1361 7.46947 15.2101 7.68397C15.2351 7.74407 15.2591 7.80477 15.2821 7.86627ZM9.03013 5.93797C8.98813 5.81677 8.95213 5.69307 8.92213 5.56717C8.53213 5.03227 7.90013 4.68437 7.18813 4.68437C6.00513 4.68437 5.04413 5.64527 5.04413 6.82877C5.04413 6.96457 5.05613 7.09747 5.08113 7.22637C5.18513 7.21837 5.29213 7.21417 5.39913 7.21417C6.19613 7.21417 6.94013 7.44137 7.57013 7.83437C7.86013 7.06667 8.37313 6.40807 9.03013 5.93797ZM14.8631 3.62207C14.5091 2.92517 13.7851 2.44727 12.9501 2.44727C11.7671 2.44727 10.8061 3.40817 10.8061 4.59167C10.8061 4.67247 10.8111 4.75227 10.8191 4.83097C10.8841 4.94837 10.9431 5.06937 10.9971 5.19337C11.1361 5.17907 11.2771 5.17177 11.4201 5.17177C12.1081 5.17177 12.7571 5.34097 13.3271 5.64007C13.6161 4.81637 14.1591 4.11197 14.8631 3.62207Z" fill="black"/>
</svg>
