<svg width="24" height="24" viewBox="0 0 24 24" fill="none" xmlns="http://www.w3.org/2000/svg">
<path fill-rule="evenodd" clip-rule="evenodd" d="M10.5083 2.38857C11.429 1.86397 12.5581 1.86397 13.4788 2.38857L19.4528 5.7926C20.3893 6.32623 20.9675 7.32126 20.9675 8.39914V15.6151C20.9675 16.6947 20.3875 17.691 19.4487 18.224L13.4747 21.6157C12.5561 22.1373 11.4309 22.1373 10.5123 21.6157L4.53835 18.224C3.59956 17.691 3.01953 16.6947 3.01953 15.6151V8.39914C3.01953 7.32126 3.59779 6.32623 4.5343 5.7926L10.5083 2.38857ZM12.4886 4.12627C12.1817 3.9514 11.8053 3.9514 11.4985 4.12627L5.94634 7.2899L7.90271 8.40284L13.9004 4.93074L12.4886 4.12627ZM15.9122 6.07707L9.91611 9.54823L12.0304 10.751L18.0506 7.29551L15.9122 6.07707ZM18.9675 9.07522L13.0326 12.4818V19.5669L18.4613 16.4847C18.7742 16.3071 18.9675 15.975 18.9675 15.6151V9.07522ZM11.0326 19.6112V12.4844L8.79414 11.2109L8.79414 14.1509C8.79414 14.7031 8.34643 15.1509 7.79414 15.1509C7.24186 15.1509 6.79414 14.7031 6.79414 14.1509L6.79413 10.0732L5.01953 9.06363V15.6151C5.01953 15.975 5.21287 16.3071 5.5258 16.4847L11.0326 19.6112Z" fill="black"/>
</svg>
