<svg width="24" height="24" viewBox="0 0 24 24" fill="none" xmlns="http://www.w3.org/2000/svg">
<path d="M13.4305 10.4072C13.8322 10.0283 14.4651 10.0468 14.8441 10.4486L13.3891 11.8208C13.0102 11.419 13.0287 10.7861 13.4305 10.4072Z" fill="black"/>
<path d="M16.2524 20.267C17.376 21.3344 19.1457 21.3117 20.2416 20.2158L20.2681 20.1893C21.3467 19.1107 21.372 17.37 20.3255 16.2604L14.8817 10.4885L14.8441 10.4486L13.3891 11.8208L13.9475 12.4129L18.8705 17.6326C19.1749 17.9554 19.1675 18.4615 18.8539 18.7751L18.8274 18.8016C18.4984 19.1306 17.9671 19.1374 17.6298 18.817L12.4591 13.9056L11.8765 13.3521C11.476 12.9717 10.8424 12.9874 10.462 13.3878C10.0817 13.7882 10.0979 14.4212 10.4984 14.8016L10.4996 14.8027L16.2524 20.267Z" fill="black"/>
<path fill-rule="evenodd" clip-rule="evenodd" d="M13.4305 10.4072C13.8322 10.0283 14.4651 10.0468 14.8441 10.4486L14.8817 10.4885C14.8691 10.408 14.8545 10.3147 14.8379 10.2096C14.7741 9.80549 14.6817 9.22624 14.5671 8.52474C14.3378 7.12218 14.0192 5.22887 13.6621 3.2686C13.5818 2.82791 13.2183 2.49436 12.7723 2.45224C9.95638 2.18628 7.15998 3.54247 5.22024 5.49206C3.28902 7.43308 2.00807 10.1716 2.57264 12.8457C2.6565 13.2429 2.97217 13.55 3.37153 13.6229C5.22493 13.9611 7.11407 14.2721 8.53826 14.4983C9.25076 14.6115 9.84777 14.7035 10.2669 14.7674C10.3519 14.7803 10.4297 14.7921 10.4996 14.8027L10.4984 14.8016C10.0979 14.4212 10.0817 13.7882 10.462 13.3878C10.8424 12.9874 11.476 12.9717 11.8765 13.3521L12.4591 13.9056L13.9475 12.4129L13.3891 11.8208C13.0102 11.419 13.0287 10.7861 13.4305 10.4072ZM12.8824 10.6487L10.7234 12.8138L10.568 12.7902C10.1524 12.7269 9.55964 12.6354 8.85198 12.5231C7.61987 12.3274 6.04213 12.0685 4.44587 11.7843C4.36296 10.1554 5.18724 8.36083 6.63803 6.90269C8.08062 5.45277 9.98901 4.49733 11.8382 4.42382C12.134 6.07917 12.3965 7.64388 12.5933 8.84738C12.7072 9.54475 12.7991 10.1203 12.8623 10.5213L12.8824 10.6487Z" fill="black"/>
</svg>
