<svg width="16" height="16" viewBox="0 0 16 16" fill="none" xmlns="http://www.w3.org/2000/svg">
<path fill-rule="evenodd" clip-rule="evenodd" d="M4.90169 8.16332L6.67409 5.62082C6.71589 5.56092 6.76579 5.50692 6.82229 5.46042C6.82229 5.46042 10.3955 2.52212 12.0832 1.13432C12.891 0.470125 14.0712 0.527525 14.8107 1.26702L14.812 1.26832C15.5567 2.01312 15.6113 3.20262 14.9379 4.01242L10.5772 9.25642C10.5286 9.31483 10.4719 9.36612 10.4089 9.40852L8.06409 10.9874C8.08609 11.1031 8.10139 11.2207 8.10969 11.34C8.15409 11.9812 8.00699 12.5008 7.55759 13.3548C6.97159 14.468 5.87839 14.9972 4.66219 15.126C3.03379 15.2985 1.20959 14.7242 0.478789 14.2309C0.237389 14.0679 0.103589 13.7865 0.129689 13.4963C0.155689 13.2061 0.337389 12.9531 0.604089 12.8357C0.604089 12.8357 1.47989 12.3906 1.56359 11.0533C1.61669 10.2044 1.89449 9.62082 2.24389 9.20552C2.76599 8.58512 3.47709 8.33512 4.00629 8.21432C4.29349 8.14882 4.59609 8.13322 4.90169 8.16332ZM3.16039 11.1532C3.18649 10.736 3.29639 10.4398 3.46809 10.2357C3.72789 9.92702 4.09879 9.83432 4.36219 9.77422C4.80719 9.67272 5.31349 9.84592 5.72489 10.1482C6.14439 10.4565 6.47639 10.9147 6.51349 11.4505C6.53939 11.8241 6.40359 12.112 6.14169 12.6095C5.81539 13.2294 5.17099 13.4632 4.49369 13.5349C3.78449 13.61 3.02279 13.507 2.40409 13.3351C2.77129 12.8466 3.09859 12.1418 3.16039 11.1532ZM7.37159 9.52472L9.42019 8.14532L13.7077 2.98942C13.8524 2.81542 13.8407 2.55972 13.6806 2.39972L13.6793 2.39842C13.5221 2.24112 13.2712 2.22892 13.0995 2.37022L7.92359 6.62632L6.46579 8.71742C6.53599 8.76212 6.60479 8.80932 6.67219 8.85882C6.93179 9.04952 7.16849 9.27382 7.37159 9.52472Z" fill="black"/>
</svg>
