<svg width="24" height="24" viewBox="0 0 24 24" fill="none" xmlns="http://www.w3.org/2000/svg">
<path fill-rule="evenodd" clip-rule="evenodd" d="M8.74318 11.5907L11.1162 8.46269C11.1622 8.40169 11.2142 8.34769 11.2722 8.29869C11.2722 8.29869 15.8702 4.46069 17.9522 2.72269C18.9182 1.91669 20.3382 1.98069 21.2282 2.87069C22.1222 3.76469 22.1832 5.19469 21.3682 6.16069L15.7472 12.8257C15.7012 12.8807 15.6482 12.9307 15.5912 12.9747L12.7082 15.1837C12.7332 15.3157 12.7502 15.4507 12.7592 15.5867C12.8152 16.3947 12.6302 17.0497 12.0632 18.1257C11.3252 19.5287 9.94718 20.1957 8.41418 20.3577C6.36018 20.5757 4.05918 19.8507 3.13718 19.2287C2.83518 19.0247 2.66818 18.6737 2.70018 18.3107C2.73318 17.9477 2.96018 17.6317 3.29318 17.4847C3.29318 17.4847 4.40618 16.9207 4.51218 15.2247C4.57918 14.1547 4.92818 13.4197 5.36918 12.8967C6.02618 12.1147 6.92218 11.7997 7.58918 11.6477C7.95918 11.5637 8.34918 11.5447 8.74318 11.5907ZM6.50818 15.3497C6.54118 14.8197 6.68118 14.4437 6.89918 14.1847C7.22918 13.7927 7.70018 13.6737 8.03418 13.5977C8.59918 13.4687 9.24218 13.6887 9.76418 14.0717C10.2962 14.4627 10.7172 15.0447 10.7642 15.7247C10.7972 16.1987 10.6262 16.5637 10.2932 17.1947C9.88018 17.9807 9.06318 18.2777 8.20418 18.3687C7.30118 18.4647 6.33118 18.3317 5.54518 18.1117C6.01218 17.4957 6.42918 16.6037 6.50818 15.3497ZM11.8472 13.3237L14.2882 11.4527L19.8392 4.87169C19.9842 4.69969 19.9732 4.44469 19.8142 4.28469H19.8132C19.6562 4.12669 19.4052 4.11569 19.2342 4.25869L12.6412 9.76169L10.7122 12.3037L10.9482 12.4607C11.2832 12.7067 11.5872 12.9967 11.8472 13.3237Z" fill="black"/>
</svg>
