<svg width="16" height="16" viewBox="0 0 16 16" fill="none" xmlns="http://www.w3.org/2000/svg">
<path d="M8.00996 0.0317383C8.45179 0.0317383 8.80996 0.38991 8.80996 0.831738V1.83243C8.80996 2.27426 8.45179 2.63243 8.00996 2.63243C7.56813 2.63243 7.20996 2.27426 7.20996 1.83243V0.831738C7.20996 0.38991 7.56813 0.0317383 8.00996 0.0317383Z" fill="black"/>
<path d="M4.76436 0.532082C5.20618 0.532082 5.56436 0.890254 5.56436 1.33208V1.83243C5.56436 2.27425 5.20618 2.63243 4.76436 2.63243C4.32253 2.63243 3.96436 2.27425 3.96436 1.83243V1.33208C3.96436 0.890254 4.32253 0.532082 4.76436 0.532082Z" fill="black"/>
<path d="M11.2355 0.532082C11.6774 0.532082 12.0355 0.890254 12.0355 1.33208V1.83243C12.0355 2.27425 11.6774 2.63243 11.2355 2.63243C10.7937 2.63243 10.4355 2.27425 10.4355 1.83243V1.33208C10.4355 0.890254 10.7937 0.532082 11.2355 0.532082Z" fill="black"/>
<path fill-rule="evenodd" clip-rule="evenodd" d="M14.4924 9.54157C14.5829 9.46136 14.6659 9.37378 14.7408 9.28072C15.109 8.82303 15.2939 8.22703 15.2939 7.64533V6.12338C15.2939 4.57698 14.0403 3.32337 12.4939 3.32339L3.5075 3.32345C1.96111 3.32346 0.70752 4.57706 0.70752 6.12345V7.64545C0.70752 8.22806 0.894099 8.82508 1.26714 9.27997C1.34058 9.36953 1.42165 9.45366 1.50977 9.53065V11.0315C1.50977 12.5779 2.76337 13.8315 4.30977 13.8315H11.6924C13.2388 13.8315 14.4924 12.5778 14.4924 11.0315V9.54157ZM12.4939 4.92339L3.50751 4.92345C2.84477 4.92345 2.30752 5.46071 2.30752 6.12345V7.64545C2.30752 7.90574 2.39442 8.13138 2.50433 8.2654C2.59998 8.38203 2.69284 8.41582 2.80499 8.4035C3.35468 8.34312 3.88447 8.12 4.26255 7.83143C4.66553 7.52387 4.76201 7.25575 4.76201 7.14358C4.76201 6.70175 5.12018 6.34358 5.56201 6.34358C6.00383 6.34358 6.36201 6.70175 6.36201 7.14358C6.36201 7.44189 6.50988 7.69414 6.82281 7.9048C7.15127 8.12592 7.60149 8.25015 8.00017 8.25015C8.39952 8.25015 8.85003 8.12586 9.17857 7.90474C9.49158 7.69409 9.63942 7.44187 9.63942 7.14358C9.63942 6.70175 9.99759 6.34358 10.4394 6.34358C10.8813 6.34358 11.2394 6.70175 11.2394 7.14358C11.2394 7.28344 11.3467 7.56811 11.7322 7.87362C12.0978 8.16341 12.6161 8.38508 13.177 8.4315C13.2934 8.44114 13.3938 8.40255 13.4942 8.27775C13.6074 8.13707 13.6939 7.90658 13.6939 7.64533V6.12339C13.6939 5.46064 13.1566 4.92338 12.4939 4.92339ZM10.4801 8.90226C10.3526 9.02588 10.2149 9.13589 10.0719 9.23213C9.45113 9.64992 8.682 9.85015 8.00017 9.85015C7.31874 9.85015 6.54989 9.64985 5.92929 9.23207C5.77799 9.13021 5.63262 9.01292 5.49893 8.88039C5.41258 8.96011 5.32341 9.03453 5.23328 9.10331C4.65527 9.54447 3.90153 9.8669 3.10977 9.97769V11.0315C3.10977 11.6942 3.64702 12.2315 4.30977 12.2315H11.6924C12.3552 12.2315 12.8924 11.6942 12.8924 11.0315V10.0107C12.0717 9.91305 11.3131 9.58305 10.7383 9.12754C10.65 9.05749 10.5634 8.98227 10.4801 8.90226Z" fill="black"/>
</svg>
