<svg width="24" height="25" viewBox="0 0 24 25" fill="none" xmlns="http://www.w3.org/2000/svg">
<path d="M12.0146 0C12.5669 0 13.0146 0.447715 13.0146 1V2.9691C13.0146 3.52139 12.5669 3.9691 12.0146 3.9691C11.4624 3.9691 11.0146 3.52139 11.0146 2.9691V1C11.0146 0.447715 11.4624 0 12.0146 0Z" fill="black"/>
<path d="M7.14648 0.876587C7.69877 0.876587 8.14648 1.3243 8.14648 1.87659V2.96917C8.14648 3.52146 7.69877 3.96917 7.14648 3.96917C6.5942 3.96917 6.14648 3.52146 6.14648 2.96917V1.87659C6.14648 1.3243 6.5942 0.876587 7.14648 0.876587Z" fill="black"/>
<path d="M16.853 0.876587C17.4053 0.876587 17.853 1.3243 17.853 1.87659V2.96917C17.853 3.52146 17.4053 3.96917 16.853 3.96917C16.3007 3.96917 15.853 3.52146 15.853 2.96917V1.87659C15.853 1.3243 16.3007 0.876587 16.853 0.876587Z" fill="black"/>
<path fill-rule="evenodd" clip-rule="evenodd" d="M21.5384 13.8291C21.6917 13.7013 21.831 13.5583 21.9548 13.4044C22.4753 12.7574 22.7403 11.9091 22.7403 11.0766L22.7403 8.79372C22.7403 6.58457 20.9494 4.79371 18.7403 4.79372L5.26071 4.79382C3.05159 4.79383 1.26074 6.58469 1.26074 8.79382V11.0768C1.26074 11.9104 1.52815 12.7595 2.05482 13.4018C2.17707 13.5509 2.31402 13.689 2.46436 13.8122V16.156C2.46436 18.3651 4.25522 20.156 6.46436 20.156H17.5384C19.7475 20.156 21.5384 18.3651 21.5384 16.156V13.8291ZM18.7403 6.79372L5.26073 6.79382C4.15616 6.79383 3.26074 7.68925 3.26074 8.79382V11.0768C3.26074 11.5075 3.40356 11.8924 3.60131 12.1336C3.78123 12.353 3.98387 12.4396 4.22879 12.4127C5.08948 12.3182 5.91857 11.9697 6.51463 11.5148C7.14181 11.0361 7.34247 10.582 7.34247 10.324C7.34247 9.77173 7.79019 9.32401 8.34247 9.32401C8.89476 9.32401 9.34247 9.77173 9.34247 10.324C9.34247 10.8541 9.61219 11.2886 10.122 11.6318C10.6512 11.988 11.3663 12.1839 11.9997 12.1839C12.6341 12.1839 13.3496 11.9879 13.879 11.6317C14.3889 11.2885 14.6586 10.8541 14.6586 10.324C14.6586 9.77173 15.1063 9.32401 15.6586 9.32401C16.2109 9.32401 16.6586 9.77173 16.6586 10.324C16.6586 10.6185 16.8697 11.0972 17.4735 11.5758C18.0525 12.0347 18.8674 12.3823 19.7485 12.4552C19.999 12.4759 20.2109 12.3814 20.3966 12.1506C20.5982 11.9 20.7403 11.5086 20.7403 11.0766L20.7403 8.79372C20.7403 7.68915 19.8449 6.79371 18.7403 6.79372ZM15.7183 12.6782C15.4995 12.9125 15.2542 13.1169 14.9957 13.2909C14.101 13.893 12.9872 14.1839 11.9997 14.1839C11.0129 14.1839 9.89946 13.8929 9.00509 13.2908C8.73519 13.1091 8.47969 12.8943 8.25362 12.6467C8.08695 12.813 7.90963 12.966 7.72805 13.1046C6.84676 13.7773 5.68044 14.2619 4.46436 14.3988V16.156C4.46436 17.2606 5.35979 18.156 6.46436 18.156H17.5384C18.6429 18.156 19.5384 17.2606 19.5384 16.156V14.4445C18.2768 14.3308 17.1055 13.8362 16.2312 13.1432C16.0522 13.0013 15.8795 12.8458 15.7183 12.6782Z" fill="black"/>
</svg>
