<svg width="16" height="16" viewBox="0 0 16 16" fill="none" xmlns="http://www.w3.org/2000/svg">
<path fill-rule="evenodd" clip-rule="evenodd" d="M4.20018 2.20059H4.18218C2.37518 2.20059 0.90918 3.66559 0.90918 5.47359V10.0006C0.90918 11.2736 1.41518 12.4946 2.31518 13.3946C3.21518 14.2946 4.43618 14.8006 5.70918 14.8006C7.17318 14.8006 8.82718 14.8006 10.2912 14.8006C11.5642 14.8006 12.7852 14.2946 13.6852 13.3946C14.5852 12.4946 15.0912 11.2736 15.0912 10.0006C15.0912 8.48559 15.0912 6.80759 15.0912 5.47359C15.0912 3.66559 13.6252 2.20059 11.8182 2.20059H11.8002V0.983594C11.8002 0.542594 11.4422 0.183594 11.0002 0.183594C10.5582 0.183594 10.2002 0.542594 10.2002 0.983594V2.20059H5.80018V0.983594C5.80018 0.542594 5.44218 0.183594 5.00018 0.183594C4.55818 0.183594 4.20018 0.542594 4.20018 0.983594V2.20059ZM11.8002 3.80059V4.36759C11.8002 4.80859 11.4422 5.16759 11.0002 5.16759C10.5582 5.16759 10.2002 4.80859 10.2002 4.36759V3.80059H5.80018V4.36759C5.80018 4.80859 5.44218 5.16759 5.00018 5.16759C4.55818 5.16759 4.20018 4.80859 4.20018 4.36759V3.80059H4.18218C3.25818 3.80059 2.50918 4.54959 2.50918 5.47359V10.0006C2.50918 10.8496 2.84718 11.6636 3.44718 12.2636C4.04718 12.8636 4.86118 13.2006 5.70918 13.2006H10.2912C11.1392 13.2006 11.9532 12.8636 12.5532 12.2636C13.1532 11.6636 13.4912 10.8496 13.4912 10.0006V5.47359C13.4912 4.54959 12.7422 3.80059 11.8182 3.80059H11.8002ZM7.20018 8.09259V11.0006C7.20018 11.4426 7.55818 11.8006 8.00018 11.8006C8.44218 11.8006 8.80018 11.4426 8.80018 11.0006V6.38259C8.80018 6.07159 8.62018 5.78859 8.33818 5.65659C8.05618 5.52559 7.72318 5.56959 7.48518 5.76959L6.24618 6.81059C5.90818 7.09559 5.86518 7.60059 6.14918 7.93859C6.41218 8.25159 6.86618 8.31259 7.20018 8.09259Z" fill="black"/>
</svg>
