<svg width="24" height="24" viewBox="0 0 24 24" fill="none" xmlns="http://www.w3.org/2000/svg">
<path fill-rule="evenodd" clip-rule="evenodd" d="M16 4.00008H8V2.83008C8 2.27008 7.55 1.83008 7 1.83008C6.45 1.83008 6 2.27008 6 2.83008V4.00008C3.79 4.00008 2 5.79008 2 8.00008V16.0001C2 19.3101 4.69 22.0001 8 22.0001C10.5 22.0001 13.5 22.0001 16 22.0001C19.31 22.0001 22 19.3101 22 16.0001V8.00008C22 5.79008 20.21 4.00008 18 4.00008V2.83008C18 2.27008 17.55 1.83008 17 1.83008C16.45 1.83008 16 2.27008 16 2.83008V4.00008ZM18 6.00008V7.00008C18 7.55008 17.55 8.00008 17 8.00008C16.45 8.00008 16 7.55008 16 7.00008V6.00008H8V7.00008C8 7.55008 7.55 8.00008 7 8.00008C6.45 8.00008 6 7.55008 6 7.00008V6.00008C4.9 6.00008 4 6.90008 4 8.00008V16.0001C4 18.2101 5.79 20.0001 8 20.0001C10.5 20.0001 13.5 20.0001 16 20.0001C18.21 20.0001 20 18.2101 20 16.0001V8.00008C20 6.90008 19.1 6.00008 18 6.00008ZM10 17.9001H13.99C14.48 17.9001 14.89 17.5001 14.89 17.0001C14.89 16.5001 14.48 16.1001 13.99 16.1001H10C9.5 16.1001 9.1 16.5001 9.1 17.0001C9.1 17.5001 9.5 17.9001 10 17.9001ZM11.1 11.6201V13.6501C11.1 14.1501 11.5 14.5501 12 14.5501C12.5 14.5501 12.9 14.1501 12.9 13.6501V9.56008C12.9 9.20008 12.69 8.88008 12.36 8.74008C12.03 8.59008 11.65 8.66008 11.39 8.90008L9.96 10.2301C9.6 10.5701 9.58 11.1401 9.92 11.5001C10.23 11.8401 10.74 11.8801 11.1 11.6201Z" fill="black"/>
</svg>
