<svg width="24" height="24" viewBox="0 0 24 24" fill="none" xmlns="http://www.w3.org/2000/svg">
<path fill-rule="evenodd" clip-rule="evenodd" d="M7.23086 3.02934C4.03486 3.16234 1.48486 5.79534 1.48486 9.02334C1.48486 10.8973 1.48486 13.0443 1.48486 14.9993C1.48486 18.8653 4.61886 21.9993 8.48486 21.9993C10.7279 21.9993 13.2759 21.9993 15.5199 21.9993C19.3859 21.9993 22.5199 18.8653 22.5199 14.9993C22.5199 13.0443 22.5199 10.8973 22.5199 9.02334C22.5199 5.82234 20.0129 3.20734 16.8549 3.03334C16.4449 1.86434 15.3319 1.02734 14.0239 1.02734H10.0599C9.26286 1.02734 8.49986 1.34434 7.93686 1.90734C7.61786 2.22734 7.37786 2.61134 7.23086 3.02934ZM15.0239 4.02434C15.0249 4.57534 15.4719 5.02134 16.0229 5.02234L16.0239 5.02334H16.5199C18.7289 5.02334 20.5199 6.81434 20.5199 9.02334V14.9993C20.5199 17.7603 18.2809 19.9993 15.5199 19.9993C13.2759 19.9993 10.7279 19.9993 8.48486 19.9993C5.72286 19.9993 3.48486 17.7603 3.48486 14.9993V9.02334C3.48486 6.81434 5.27486 5.02334 7.48486 5.02334H8.05986C8.61186 5.02334 9.05986 4.57634 9.05986 4.02534C9.05986 3.76034 9.16586 3.50734 9.35186 3.32034C9.53986 3.13234 9.79386 3.02734 10.0599 3.02734H14.0239C14.5749 3.02734 15.0229 3.47334 15.0239 4.02434ZM12.0159 6.87634C9.02586 6.87634 6.59886 9.30334 6.59886 12.2933C6.59886 15.2833 9.02586 17.7103 12.0159 17.7103C15.0059 17.7103 17.4329 15.2833 17.4329 12.2933C17.4329 9.30334 15.0059 6.87634 12.0159 6.87634ZM12.0159 8.87634C13.9019 8.87634 15.4329 10.4073 15.4329 12.2933C15.4329 14.1793 13.9019 15.7103 12.0159 15.7103C10.1299 15.7103 8.59886 14.1793 8.59886 12.2933C8.59886 10.4073 10.1299 8.87634 12.0159 8.87634Z" fill="black"/>
</svg>
