<svg width="16" height="16" viewBox="0 0 16 16" fill="none" xmlns="http://www.w3.org/2000/svg">
<path fill-rule="evenodd" clip-rule="evenodd" d="M4.66777 2.08731C4.98847 1.16057 5.85585 0.460938 6.91103 0.460938H9.10663C10.1592 0.460938 11.0282 1.16234 11.3497 2.08837C13.5653 2.25105 15.3122 4.10016 15.3122 6.35724V9.51654C15.3122 12.4344 12.9469 14.7997 10.029 14.7997H5.97363C3.0558 14.7997 0.69043 12.4344 0.69043 9.51654V6.35724C0.69043 4.09513 2.44521 2.24283 4.66777 2.08731ZM4.96281 3.67675C3.48617 3.68113 2.29043 4.87957 2.29043 6.35724V9.51654C2.29043 11.5507 3.93946 13.1997 5.97363 13.1997H10.029C12.0632 13.1997 13.7122 11.5507 13.7122 9.51654V6.35724C13.7122 4.87685 12.5122 3.67674 11.0317 3.67674H10.6832C10.2414 3.67674 9.88323 3.31857 9.88323 2.87674C9.88323 2.4237 9.50877 2.06094 9.10663 2.06094H6.91103C6.50915 2.06094 6.14049 2.41479 6.1347 2.86596C6.13621 2.976 6.11499 3.08523 6.07244 3.18665C5.95765 3.46023 5.73544 3.57134 5.69643 3.59084L5.6941 3.59201C5.58333 3.64779 5.48249 3.66408 5.4719 3.66579C5.42336 3.67437 5.38138 3.67698 5.3713 3.67759C5.34107 3.67945 5.30975 3.68 5.29069 3.68023C5.24732 3.68073 5.19398 3.68037 5.1468 3.67984C5.09809 3.67928 5.04969 3.67845 5.01384 3.67778L4.97011 3.67691L4.96281 3.67675Z" fill="black"/>
<path fill-rule="evenodd" clip-rule="evenodd" d="M8.03623 4.24142C5.96953 4.24142 4.29173 5.91932 4.29173 7.98602C4.29173 10.0526 5.96953 11.7305 8.03623 11.7305C10.1029 11.7305 11.7807 10.0526 11.7807 7.98602C11.7807 5.91932 10.1029 4.24142 8.03623 4.24142ZM10.1807 7.98602C10.1807 6.80242 9.21983 5.84142 8.03623 5.84142C6.85263 5.84142 5.89173 6.80242 5.89173 7.98602C5.89173 9.16962 6.85263 10.1305 8.03623 10.1305C9.21983 10.1305 10.1807 9.16962 10.1807 7.98602Z" fill="black"/>
</svg>
