<svg width="24" height="24" viewBox="0 0 24 24" fill="none" xmlns="http://www.w3.org/2000/svg">
<path fill-rule="evenodd" clip-rule="evenodd" d="M11.977 0C18.587 0 23.953 5.377 23.953 12C23.953 18.623 18.587 24 11.977 24C5.367 24 0 18.623 0 12C0 5.377 5.367 0 11.977 0ZM8.418 5.63C7.388 5.633 6.4 6.043 5.672 6.772C4.94 7.503 4.529 8.495 4.529 9.529C4.529 10.95 4.529 12.666 4.529 14.195C4.529 15.494 5.046 16.74 5.965 17.659C6.884 18.578 8.13 19.095 9.429 19.095C11.035 19.095 12.882 19.095 14.488 19.095C15.787 19.095 17.034 18.578 17.952 17.659C18.871 16.74 19.388 15.494 19.388 14.195C19.388 12.666 19.388 10.95 19.388 9.529C19.388 8.495 18.977 7.503 18.245 6.772C17.521 6.047 16.54 5.637 15.515 5.63C15.287 4.837 14.556 4.257 13.69 4.257H10.243C9.738 4.257 9.254 4.458 8.898 4.815C8.67 5.044 8.506 5.324 8.418 5.63ZM13.791 6.529L13.79 6.157C13.79 6.102 13.745 6.057 13.69 6.057H10.242C10.216 6.057 10.191 6.068 10.172 6.087C10.153 6.105 10.142 6.131 10.143 6.157V6.52C10.144 7.345 9.243 7.429 9.243 7.429H8.429C7.872 7.429 7.338 7.651 6.944 8.044C6.551 8.438 6.329 8.972 6.329 9.529C6.329 10.95 6.329 12.666 6.329 14.195C6.329 15.017 6.656 15.805 7.237 16.387C7.819 16.968 8.607 17.295 9.429 17.295H14.488C15.31 17.295 16.098 16.968 16.68 16.387C17.261 15.805 17.588 15.017 17.588 14.195V9.529C17.588 8.972 17.366 8.438 16.973 8.044C16.579 7.651 16.045 7.429 15.488 7.429H14.691C14.358 7.429 13.791 7.306 13.791 6.529ZM11.96 8.277C9.799 8.277 8.044 10.031 8.044 12.19C8.044 14.35 9.799 16.103 11.96 16.103C14.122 16.103 15.877 14.35 15.877 12.19C15.877 10.031 14.122 8.277 11.96 8.277ZM11.96 10.077C13.128 10.077 14.077 11.024 14.077 12.19C14.077 13.357 13.128 14.303 11.96 14.303C10.793 14.303 9.844 13.357 9.844 12.19C9.844 11.024 10.793 10.077 11.96 10.077Z" fill="black"/>
</svg>
