<svg width="24" height="24" viewBox="0 0 24 24" fill="none" xmlns="http://www.w3.org/2000/svg">
<path fill-rule="evenodd" clip-rule="evenodd" d="M7.23086 3.02934C5.73186 3.09234 4.30686 3.71634 3.24186 4.78134C2.11686 5.90634 1.48486 7.43234 1.48486 9.02334C1.48486 10.8973 1.48486 13.0443 1.48486 14.9993C1.48486 18.8653 4.61886 21.9993 8.48486 21.9993C10.7269 21.9993 13.2729 21.9993 15.5149 21.9993C19.3809 21.9993 22.5149 18.8653 22.5149 14.9993C22.5149 13.0443 22.5149 10.8973 22.5149 9.02334C22.5149 7.43234 21.8829 5.90634 20.7579 4.78134C19.7129 3.73634 18.3229 3.11634 16.8549 3.03334C16.4449 1.86434 15.3319 1.02734 14.0239 1.02734H10.0599C9.26286 1.02734 8.49986 1.34434 7.93686 1.90734C7.61786 2.22734 7.37786 2.61134 7.23086 3.02934ZM16.0239 5.02234L16.5149 5.02334C17.5759 5.02334 18.5939 5.44534 19.3439 6.19534C20.0939 6.94534 20.5149 7.96334 20.5149 9.02334V14.9993C20.5149 17.7603 18.2769 19.9993 15.5149 19.9993C13.2729 19.9993 10.7269 19.9993 8.48486 19.9993C5.72286 19.9993 3.48486 17.7603 3.48486 14.9993V9.02334C3.48486 7.96334 3.90586 6.94534 4.65586 6.19534C5.40586 5.44534 6.42386 5.02334 7.48486 5.02334H8.05986C8.61186 5.02334 9.05886 4.57734 9.05986 4.02534C9.05986 3.76134 9.16486 3.50734 9.35186 3.32034C9.53986 3.13234 9.79386 3.02734 10.0599 3.02734H14.0239C14.5749 3.02734 15.0229 3.47334 15.0239 4.02434C15.0249 4.57634 15.4729 5.02234 16.0239 5.02234ZM6.94886 11.6933L6.51486 12.1273C6.16386 12.4783 5.59386 12.4783 5.24286 12.1273C4.89086 11.7763 4.89086 11.2053 5.24286 10.8543L7.18586 8.91134C7.53686 8.55934 8.10686 8.55934 8.45786 8.91134L10.4019 10.8543C10.7529 11.2053 10.7529 11.7763 10.4019 12.1273C10.0499 12.4783 9.47986 12.4783 9.12886 12.1273L8.75586 11.7543C8.72986 11.9183 8.71786 12.0863 8.71786 12.2573C8.71786 14.1013 10.2149 15.5983 12.0579 15.5983C12.3959 15.5983 12.7219 15.5483 13.0289 15.4553L14.4059 16.8313C13.7019 17.1943 12.9039 17.3983 12.0579 17.3983C9.22086 17.3983 6.91786 15.0953 6.91786 12.2573C6.91786 12.0673 6.92786 11.8783 6.94886 11.6933ZM15.3919 12.4593C15.3969 12.3923 15.3989 12.3253 15.3989 12.2573C15.3989 10.4143 13.9019 8.91734 12.0579 8.91734C11.8629 8.91734 11.6719 8.93334 11.4869 8.96534L10.0469 7.52634C10.6649 7.26234 11.3449 7.11734 12.0579 7.11734C14.8959 7.11734 17.1989 9.42034 17.1989 12.2573L17.1979 12.3143L17.5279 11.9843C17.8789 11.6333 18.4489 11.6333 18.8009 11.9843C19.1519 12.3353 19.1519 12.9063 18.8009 13.2573L16.8589 15.1983C16.5079 15.5503 15.9379 15.5503 15.5859 15.1983L13.6449 13.2573C13.2939 12.9063 13.2939 12.3353 13.6449 11.9843C13.9959 11.6333 14.5659 11.6333 14.9179 11.9843L15.3919 12.4593Z" fill="black"/>
</svg>
