<svg width="12" height="12" viewBox="0 0 12 12" fill="none" xmlns="http://www.w3.org/2000/svg">
<path fill-rule="evenodd" clip-rule="evenodd" d="M3.39015 1.21314H3.20215C2.40715 1.21314 1.64415 1.52924 1.08115 2.09184C0.518148 2.65444 0.202148 3.41754 0.202148 4.21314C0.202148 5.35324 0.202148 6.76254 0.202148 8.00094C0.202148 9.00874 0.603148 9.97534 1.31515 10.6879C2.02815 11.4005 2.99415 11.8009 4.00215 11.8009C5.26715 11.8009 6.73515 11.8009 8.00015 11.8009C9.00815 11.8009 9.97415 11.4005 10.6871 10.6879C11.3991 9.97534 11.8001 9.00874 11.8001 8.00094C11.8001 6.76254 11.8001 5.35324 11.8001 4.21314C11.8001 3.41754 11.4841 2.65444 10.9211 2.09184C10.3591 1.52924 9.59515 1.21314 8.80015 1.21314H8.62415C8.32915 0.621244 7.71815 0.214844 7.01215 0.214844C6.39915 0.214844 5.61615 0.214844 5.00215 0.214844C4.52415 0.214844 4.06515 0.404844 3.72815 0.743044C3.58915 0.881844 3.47615 1.04084 3.39015 1.21314ZM7.21215 2.01434C7.21215 1.90404 7.12215 1.81484 7.01215 1.81484H5.00215C4.94815 1.81484 4.89815 1.83594 4.86015 1.87354C4.82315 1.91084 4.80215 1.96134 4.80215 2.01404C4.80115 2.45554 4.44315 2.81314 4.00215 2.81314H3.20215C2.83115 2.81314 2.47515 2.96064 2.21215 3.22324C1.95015 3.48574 1.80215 3.84184 1.80215 4.21314V8.00094C1.80215 8.58444 2.03415 9.14404 2.44715 9.55654C2.85915 9.96914 3.41915 10.2009 4.00215 10.2009C5.26715 10.2009 6.73515 10.2009 8.00015 10.2009C8.58315 10.2009 9.14315 9.96914 9.55515 9.55654C9.96815 9.14404 10.2001 8.58444 10.2001 8.00094V4.21314C10.2001 3.84184 10.0521 3.48574 9.79015 3.22324C9.52715 2.96064 9.17115 2.81314 8.80015 2.81314L8.01115 2.81244C7.57015 2.81214 7.21315 2.45524 7.21215 2.01434Z" fill="black"/>
<path fill-rule="evenodd" clip-rule="evenodd" d="M5.99115 3.43829C4.30915 3.43829 2.94315 4.80409 2.94315 6.48629C2.94315 8.16849 4.30915 9.53429 5.99115 9.53429C7.67315 9.53429 9.03915 8.16849 9.03915 6.48629C9.03915 4.80409 7.67315 3.43829 5.99115 3.43829ZM7.43915 6.48629C7.43915 5.68709 6.79015 5.03829 5.99115 5.03829C5.19215 5.03829 4.54315 5.68709 4.54315 6.48629C4.54315 7.28549 5.19215 7.93429 5.99115 7.93429C6.79015 7.93429 7.43915 7.28549 7.43915 6.48629Z" fill="black"/>
</svg>
