<svg width="16" height="16" viewBox="0 0 16 16" fill="none" xmlns="http://www.w3.org/2000/svg">
<path d="M12.2017 8.02417C12.7817 8.02417 13.2517 8.49398 13.2517 9.07398C13.2517 9.64398 12.7817 10.124 12.2017 10.124C11.6217 10.124 11.1516 9.64398 11.1516 9.07398C11.1516 8.49398 11.6217 8.02417 12.2017 8.02417Z" fill="black"/>
<path d="M3.82178 8.02417C4.40178 8.02417 4.87183 8.49398 4.87183 9.07398C4.87183 9.64398 4.40178 10.124 3.82178 10.124C3.24178 10.124 2.77173 9.64398 2.77173 9.07398C2.77173 8.49398 3.24178 8.02417 3.82178 8.02417Z" fill="black"/>
<path fill-rule="evenodd" clip-rule="evenodd" d="M0.95166 11.624C0.93166 11.614 0.921621 11.604 0.911621 11.594C0.481621 11.174 0.241699 10.5941 0.241699 9.98414V8.14405C0.241699 7.53405 0.481621 6.95418 0.911621 6.53418C1.23162 6.21418 1.63177 6.00407 2.06177 5.91407L2.63159 3.81397C2.98159 2.54397 4.14167 1.66406 5.46167 1.66406H10.5417C11.8617 1.66406 13.0118 2.53396 13.3618 3.80396L13.9517 5.91407C14.3717 6.00407 14.7718 6.21418 15.0818 6.53418C15.5118 6.95418 15.7517 7.53405 15.7517 8.14405V9.98414C15.7517 10.5941 15.5118 11.174 15.0818 11.594C15.0718 11.604 15.0618 11.614 15.0518 11.624V12.7441C15.0518 13.5941 14.3617 14.2742 13.5217 14.2742H12.2717C11.4317 14.2742 10.7517 13.5941 10.7517 12.7441V12.2642H5.2417V12.7241C5.2417 13.1341 5.08175 13.534 4.79175 13.824C4.50175 14.114 4.11166 14.2742 3.70166 14.2742H2.4917C2.0817 14.2742 1.69161 14.114 1.40161 13.824C1.11161 13.534 0.95166 13.1341 0.95166 12.7241V11.624ZM13.4717 7.36402H2.52173C2.32173 7.36402 2.12168 7.444 1.97168 7.594C1.83168 7.734 1.7417 7.93405 1.7417 8.14405V9.98414C1.7417 10.1941 1.83168 10.3942 1.97168 10.5342C2.12168 10.6842 2.32173 10.7642 2.52173 10.7642H13.4717C13.6817 10.7642 13.8717 10.6842 14.0217 10.5342C14.1617 10.3942 14.2517 10.1941 14.2517 9.98414V8.14405C14.2517 7.93405 14.1617 7.734 14.0217 7.594C13.8717 7.444 13.6817 7.36402 13.4717 7.36402ZM12.3816 5.86402L11.9216 4.2041C11.7416 3.5841 11.1817 3.16406 10.5417 3.16406H5.46167C4.81167 3.16406 4.25179 3.59411 4.08179 4.21411L3.63159 5.86402H12.3816ZM12.2517 12.2642V12.7441C12.2517 12.7641 12.2617 12.7742 12.2717 12.7742H13.5217C13.5317 12.7742 13.5518 12.7641 13.5518 12.7441V12.2642C13.5218 12.2642 13.5017 12.2642 13.4717 12.2642H12.2517ZM2.45166 12.2642V12.7241C2.45166 12.7341 2.45167 12.7542 2.46167 12.7642C2.47167 12.7742 2.4817 12.7742 2.4917 12.7742H3.70166C3.71166 12.7742 3.72169 12.7742 3.73169 12.7642C3.74169 12.7542 3.7417 12.7341 3.7417 12.7241V12.2642H2.52173C2.49173 12.2642 2.47166 12.2642 2.45166 12.2642Z" fill="black"/>
</svg>
