<svg width="16" height="16" viewBox="0 0 16 16" fill="none" xmlns="http://www.w3.org/2000/svg">
<path fill-rule="evenodd" clip-rule="evenodd" d="M11.7572 13.7992C12.6427 13.7992 13.492 13.4474 14.1182 12.8212C14.7444 12.195 15.0962 11.3457 15.0962 10.4602C15.0962 8.95212 15.0962 7.04632 15.0962 5.53822C15.0962 4.65272 14.7444 3.80342 14.1182 3.17722C13.492 2.55102 12.6427 2.19922 11.7572 2.19922C9.57021 2.19922 6.42981 2.19922 4.24281 2.19922C3.35731 2.19922 2.50801 2.55102 1.88181 3.17722C1.25561 3.80342 0.903809 4.65272 0.903809 5.53822C0.903809 7.04632 0.903809 8.95212 0.903809 10.4602C0.903809 11.3457 1.25561 12.195 1.88181 12.8212C2.50801 13.4474 3.35731 13.7992 4.24281 13.7992H11.7572ZM13.4962 7.57222V10.4602C13.4962 10.9214 13.313 11.3637 12.9869 11.6898C12.6607 12.016 12.2184 12.1992 11.7572 12.1992H4.24281C3.78161 12.1992 3.33931 12.016 3.01311 11.6898C2.68701 11.3637 2.50381 10.9214 2.50381 10.4602V7.62602L13.4962 7.57222ZM13.4962 5.97222L2.50381 6.02602V5.53822C2.50381 5.07702 2.68701 4.63472 3.01311 4.30862C3.33931 3.98242 3.78161 3.79922 4.24281 3.79922H11.7572C12.2184 3.79922 12.6607 3.98242 12.9869 4.30862C13.313 4.63472 13.4962 5.07702 13.4962 5.53822V5.97222Z" fill="black"/>
</svg>
