<svg width="16" height="16" viewBox="0 0 16 16" fill="none" xmlns="http://www.w3.org/2000/svg">
<path fill-rule="evenodd" clip-rule="evenodd" d="M8.24521 9.75922H7.73821C6.63821 9.75922 5.74621 10.6492 5.74621 11.7492V12.2492C5.74621 13.3492 6.63821 14.2392 7.73821 14.2392H8.24521C9.34521 14.2392 10.2362 13.3492 10.2362 12.2492V11.7492C10.2362 10.6492 9.34521 9.75922 8.24521 9.75922ZM13.2532 9.75922H12.7452C11.6462 9.75922 10.7542 10.6492 10.7542 11.7492V12.2492C10.7542 13.3492 11.6462 14.2392 12.7452 14.2392H13.2532C14.3522 14.2392 15.2442 13.3492 15.2442 12.2492V11.7492C15.2442 10.6492 14.3522 9.75922 13.2532 9.75922ZM3.23921 9.75922H2.73221C1.63221 9.75922 0.741211 10.6492 0.741211 11.7492V12.2492C0.741211 13.3492 1.63221 14.2392 2.73221 14.2392H3.23921C4.33921 14.2392 5.23121 13.3492 5.23121 12.2492V11.7492C5.23121 10.6492 4.33921 9.75922 3.23921 9.75922ZM7.73821 11.2592H8.24521C8.51621 11.2592 8.73621 11.4792 8.73621 11.7492V12.2492C8.73621 12.5192 8.51621 12.7392 8.24521 12.7392H7.73821C7.46621 12.7392 7.24721 12.5192 7.24621 12.2492V11.7492C7.24721 11.4792 7.46621 11.2592 7.73821 11.2592ZM12.7452 11.2592H13.2532C13.5242 11.2592 13.7442 11.4792 13.7442 11.7492V12.2492C13.7442 12.5192 13.5242 12.7392 13.2532 12.7392H12.7452C12.4742 12.7392 12.2542 12.5192 12.2542 12.2492V11.7492C12.2542 11.4792 12.4742 11.2592 12.7452 11.2592ZM2.73221 11.2592H3.23921C3.51121 11.2592 3.73021 11.4792 3.73121 11.7492V12.2492C3.73021 12.5192 3.51121 12.7392 3.23921 12.7392H2.73221C2.46121 12.7392 2.24121 12.5192 2.24121 12.2492V11.7492C2.24121 11.4792 2.46121 11.2592 2.73221 11.2592ZM4.00021 1.19922C2.45421 1.19922 1.20021 2.44922 1.20021 3.99922V5.99922C1.20021 7.54922 2.45421 8.79922 4.00021 8.79922H12.0002C13.5462 8.79922 14.8002 7.54922 14.8002 5.99922V3.99922C14.8002 2.44922 13.5462 1.19922 12.0002 1.19922H4.00021ZM4.00021 2.79922H12.0002C12.6632 2.79922 13.2002 3.33922 13.2002 3.99922V5.99922C13.2002 6.65922 12.6632 7.19922 12.0002 7.19922H4.00021C3.33721 7.19922 2.80021 6.65922 2.80021 5.99922V3.99922C2.80021 3.33922 3.33721 2.79922 4.00021 2.79922Z" fill="black"/>
</svg>
