<svg width="24" height="24" viewBox="0 0 24 24" fill="none" xmlns="http://www.w3.org/2000/svg">
<path fill-rule="evenodd" clip-rule="evenodd" d="M19.0489 15.1H19.0449C17.4439 15.1 16.1469 16.4 16.1469 18C16.1469 19.6 17.4439 20.9 19.0449 20.9H19.0489C20.6489 20.9 21.9469 19.6 21.9469 18C21.9469 16.4 20.6489 15.1 19.0489 15.1ZM12.0489 15.1H12.0449C10.4439 15.1 9.14687 16.4 9.14687 18C9.14687 19.6 10.4439 20.9 12.0449 20.9H12.0489C13.6489 20.9 14.9469 19.6 14.9469 18C14.9469 16.4 13.6489 15.1 12.0489 15.1ZM5.04887 15.1H5.04487C3.44387 15.1 2.14688 16.4 2.14688 18C2.14688 19.6 3.44387 20.9 5.04487 20.9H5.04887C6.64887 20.9 7.94688 19.6 7.94688 18C7.94688 16.4 6.64887 15.1 5.04887 15.1ZM19.0449 16.9H19.0489C19.6549 16.9 20.1469 17.39 20.1469 18C20.1469 18.61 19.6549 19.1 19.0489 19.1H19.0449C18.4379 19.1 17.9469 18.61 17.9469 18C17.9469 17.39 18.4379 16.9 19.0449 16.9ZM12.0449 16.9H12.0489C12.6549 16.9 13.1469 17.39 13.1469 18C13.1469 18.61 12.6549 19.1 12.0489 19.1H12.0449C11.4379 19.1 10.9469 18.61 10.9469 18C10.9469 17.39 11.4379 16.9 12.0449 16.9ZM5.04488 16.9H5.04887C5.65487 16.9 6.14687 17.39 6.14687 18C6.14687 18.61 5.65487 19.1 5.04887 19.1H5.04488C4.43788 19.1 3.94687 18.61 3.94687 18C3.94687 17.39 4.43788 16.9 5.04488 16.9ZM5.04688 3C4.25087 3 3.48787 3.32 2.92588 3.88C2.36287 4.44 2.04688 5.2 2.04688 6C2.04688 7.49 2.04688 9.51 2.04688 11C2.04688 11.8 2.36287 12.56 2.92588 13.12C3.48787 13.68 4.25087 14 5.04688 14C8.50988 14 15.5839 14 19.0469 14C19.8429 14 20.6059 13.68 21.1679 13.12C21.7309 12.56 22.0469 11.8 22.0469 11C22.0469 9.51 22.0469 7.49 22.0469 6C22.0469 5.2 21.7309 4.44 21.1679 3.88C20.6059 3.32 19.8429 3 19.0469 3H5.04688ZM5.04688 5H19.0469C19.3119 5 19.5659 5.11 19.7539 5.29C19.9419 5.48 20.0469 5.73 20.0469 6V11C20.0469 11.27 19.9419 11.52 19.7539 11.71C19.5659 11.89 19.3119 12 19.0469 12H5.04688C4.78188 12 4.52688 11.89 4.33987 11.71C4.15188 11.52 4.04688 11.27 4.04688 11V6C4.04688 5.73 4.15188 5.48 4.33987 5.29C4.52688 5.11 4.78188 5 5.04688 5Z" fill="black"/>
</svg>
