<svg width="24" height="24" viewBox="0 0 24 24" fill="none" xmlns="http://www.w3.org/2000/svg">
<path fill-rule="evenodd" clip-rule="evenodd" d="M22.8273 16.5588L18.8787 13.6885C18.3314 13.2907 17.6071 13.2334 17.004 13.5403C16.401 13.8471 16.0209 14.4663 16.0204 15.143C16.019 16.7612 16.0169 19.2705 16.0156 20.8902C16.015 21.5676 16.3948 22.1879 16.9983 22.4955C17.6018 22.803 18.3269 22.7457 18.8747 22.3471L22.8281 19.4702C23.2937 19.1314 23.5691 18.5902 23.569 18.0143C23.5688 17.4385 23.2931 16.8974 22.8273 16.5588ZM4.01323 15.1H4.00913C2.40863 15.1 1.11123 16.3975 1.11123 17.998V18.002C1.11123 19.6025 2.40863 20.9 4.00913 20.9H4.01323C5.61373 20.9 6.91123 19.6025 6.91123 18.002V17.998C6.91123 16.3975 5.61373 15.1 4.01323 15.1ZM11.0132 15.1H11.0091C9.40863 15.1 8.11123 16.3975 8.11123 17.998V18.002C8.11123 19.6025 9.40863 20.9 11.0091 20.9H11.0132C12.6137 20.9 13.9112 19.6025 13.9112 18.002V17.998C13.9112 16.3975 12.6137 15.1 11.0132 15.1ZM18.0159 20.4986L21.4289 18.0149L18.02 15.5369L18.0159 20.4986ZM11.0091 16.9H11.0132C11.6196 16.9 12.1111 17.3916 12.1112 17.9979V18.002C12.1111 18.6084 11.6196 19.1 11.0132 19.1H11.0092C10.4027 19.1 9.91123 18.6084 9.91123 18.0021V17.998C9.91123 17.3916 10.4027 16.9 11.0091 16.9ZM4.00913 16.9H4.01323C4.61963 16.9 5.11113 17.3916 5.11123 17.9979V18.002C5.11113 18.6084 4.61963 19.1 4.01323 19.1H4.00923C3.40273 19.1 2.91123 18.6084 2.91123 18.0021V17.998C2.91123 17.3916 3.40273 16.9 4.00913 16.9ZM14.1967 14H4.01123C3.21553 14 2.45253 13.6839 1.88983 13.1213C1.32723 12.5587 1.01123 11.7956 1.01123 11C1.01123 9.5115 1.01123 7.4885 1.01123 6C1.01123 5.2044 1.32723 4.4413 1.88983 3.8787C2.45253 3.3161 3.21553 3 4.01123 3H18.0112C18.8068 3 19.5699 3.3161 20.1325 3.8787C20.6951 4.4413 21.0112 5.2044 21.0112 6C21.0112 7.4885 21.0112 9.5115 21.0112 11C21.0112 11.5239 20.8741 12.0337 20.6198 12.4815L20.0547 12.0708C19.6932 11.808 19.2953 11.6156 18.8799 11.4951C18.9652 11.3456 19.0112 11.1751 19.0112 11V6C19.0112 5.7348 18.9058 5.4804 18.7183 5.2929C18.5307 5.1054 18.2764 5 18.0112 5H4.01123C3.74603 5 3.49163 5.1054 3.30413 5.2929C3.11653 5.4804 3.01123 5.7348 3.01123 6V11C3.01123 11.2652 3.11653 11.5196 3.30413 11.7071C3.49163 11.8946 3.74603 12 4.01123 12H15.6867C14.9743 12.4832 14.4523 13.191 14.1967 14Z" fill="black"/>
</svg>
