<svg width="24" height="24" viewBox="0 0 24 24" fill="none" xmlns="http://www.w3.org/2000/svg">
<path fill-rule="evenodd" clip-rule="evenodd" d="M5.98805 8V16C5.98805 18.209 7.77555 20 9.98023 20C11.2428 20 12.7099 20 13.9724 20C16.1771 20 17.9646 18.209 17.9646 16V8C17.9646 5.791 16.1771 4 13.9724 4C12.7099 4 11.2428 4 9.98023 4C7.77555 4 5.98805 5.791 5.98805 8ZM7.98414 16V8C7.98414 6.895 8.87739 6 9.98023 6C11.2428 6 12.7099 6 13.9724 6C15.0752 6 15.9685 6.895 15.9685 8V16C15.9685 17.105 15.0752 18 13.9724 18C12.7099 18 11.2428 18 9.98023 18C8.87739 18 7.98414 17.105 7.98414 16ZM2.87629 9.275L0.363217 11.793C-0.0260202 12.183 -0.0260202 12.817 0.363217 13.207L2.87629 15.725C3.26553 16.115 3.89829 16.115 4.28753 15.725C4.67776 15.335 4.67776 14.701 4.28753 14.311L2.48107 12.5L4.28753 10.689C4.67776 10.299 4.67776 9.665 4.28753 9.275C3.89829 8.885 3.26553 8.885 2.87629 9.275ZM21.1943 15.725L23.7073 13.207C24.0976 12.817 24.0976 12.183 23.7073 11.793L21.1943 9.275C20.805 8.885 20.1723 8.885 19.783 9.275C19.3938 9.665 19.3938 10.299 19.783 10.689L21.5905 12.5L19.783 14.311C19.3938 14.701 19.3938 15.335 19.783 15.725C20.1723 16.115 20.805 16.115 21.1943 15.725Z" fill="black"/>
</svg>
