<svg width="24" height="24" viewBox="0 0 24 24" fill="none" xmlns="http://www.w3.org/2000/svg">
<path fill-rule="evenodd" clip-rule="evenodd" d="M5.539 5H4C1.791 5 0 6.791 0 9C0 10.832 0 13.168 0 15C0 16.061 0.421 17.078 1.172 17.828C1.922 18.579 2.939 19 4 19H5.539C6.229 20.197 7.521 21 9 21C10.832 21 13.168 21 15 21C16.479 21 17.771 20.197 18.461 19H20C22.209 19 24 17.209 24 15C24 13.168 24 10.832 24 9C24 6.791 22.209 5 20 5H18.461C17.771 3.803 16.479 3 15 3C13.168 3 10.832 3 9 3C7.521 3 6.229 3.803 5.539 5ZM7 17V7C7 5.895 7.895 5 9 5H15C16.105 5 17 5.895 17 7V17C17 18.105 16.105 19 15 19H9C7.895 19 7 18.105 7 17ZM5 7H4C2.895 7 2 7.895 2 9V15C2 15.53 2.211 16.039 2.586 16.414C2.961 16.789 3.47 17 4 17H5V7ZM19 7V17H20C21.105 17 22 16.105 22 15V9C22 7.895 21.105 7 20 7H19Z" fill="black"/>
</svg>
