<svg width="24" height="24" viewBox="0 0 24 24" fill="none" xmlns="http://www.w3.org/2000/svg">
<path fill-rule="evenodd" clip-rule="evenodd" d="M9.45998 4.24093C9.44998 4.21093 9.42998 4.19093 9.40998 4.17093C8.99998 3.60093 8.35998 3.24093 7.65998 3.18093C6.95998 3.12093 6.26998 3.36093 5.76998 3.85093C5.73998 3.88093 5.70998 3.91093 5.67998 3.94093C4.30998 5.64093 2.97998 8.63093 2.97998 11.8909C2.97998 17.6909 7.78998 20.9609 12.06 20.9609C16.34 20.9609 21.11 17.6409 21.11 12.0109C21.11 8.82093 19.79 5.80093 18.47 4.03093C18.45 4.00093 18.42 3.97093 18.4 3.94093C17.88 3.39093 17.14 3.11093 16.4 3.19093C15.65 3.26093 14.98 3.67093 14.58 4.31093C14.57 4.32093 14.56 4.34093 14.55 4.35093C14.22 4.95093 13.91 5.69093 13.58 6.57093C12.67 6.51093 11.42 6.50093 10.52 6.55093C10.18 5.61093 9.82998 4.84093 9.45998 4.24093ZM7.77998 5.32093C8.16998 5.98093 8.52998 6.85093 8.88998 7.94093C9.04998 8.41093 9.53998 8.70093 10.03 8.60093C10.79 8.45093 13.24 8.48093 14.06 8.63093C14.54 8.73093 15.01 8.46093 15.18 8.00093C15.58 6.91093 15.91 6.04093 16.28 5.36093C16.36 5.25093 16.47 5.19093 16.59 5.18093C16.71 5.17093 16.82 5.20093 16.91 5.28093C18.01 6.80093 19.11 9.34093 19.11 12.0109C19.11 16.3909 15.39 18.9609 12.06 18.9609C8.72998 18.9609 4.97998 16.4109 4.97998 11.8909C4.97998 9.19093 6.04998 6.70093 7.18998 5.27093C7.26998 5.20093 7.37998 5.17093 7.48998 5.17093C7.59998 5.18093 7.69998 5.24093 7.77998 5.32093ZM12 14.7109C12.88 14.7109 13.6 14.6909 13.6 15.3709C13.6 16.0409 12.6 17.1609 12 17.1609C11.4 17.1609 10.4 16.0409 10.4 15.3709C10.4 14.6909 11.11 14.7109 12 14.7109ZM9.90998 10.1509C10.62 10.1509 11.19 10.7609 11.19 11.5209C11.19 12.2809 10.62 12.8909 9.90998 12.8909C9.19998 12.8909 8.61998 12.2809 8.61998 11.5209C8.61998 10.7609 9.19998 10.1509 9.90998 10.1509ZM14.22 10.1609C14.92 10.1609 15.49 10.7709 15.49 11.5209C15.49 12.2809 14.92 12.8909 14.22 12.8909C13.51 12.8909 12.94 12.2809 12.94 11.5209C12.94 10.7709 13.51 10.1609 14.22 10.1609Z" fill="black"/>
</svg>
