<svg width="16" height="16" viewBox="0 0 16 16" fill="none" xmlns="http://www.w3.org/2000/svg">
<path d="M5.8611 6.96189C6.3811 6.96189 6.80104 7.41189 6.80104 7.96189C6.80104 8.52189 6.3811 8.96189 5.8611 8.96189C5.3411 8.96189 4.92091 8.52189 4.92091 7.96189C4.92091 7.41189 5.3411 6.96189 5.8611 6.96189Z" fill="black"/>
<path d="M10.1011 6.9719C10.6111 6.9719 11.031 7.41189 11.031 7.96189C11.031 8.51189 10.6111 8.96189 10.1011 8.96189C9.5911 8.96189 9.17092 8.51189 9.17092 7.96189C9.17092 7.41189 9.5911 6.9719 10.1011 6.9719Z" fill="black"/>
<path d="M7.98098 9.95187C8.59098 9.95187 9.08108 9.93183 9.08108 10.4018C9.08108 10.8618 8.39098 11.6218 7.98098 11.6218C7.57098 11.6218 6.88112 10.8618 6.88112 10.4018C6.88112 9.93183 7.38098 9.95187 7.98098 9.95187Z" fill="black"/>
<path fill-rule="evenodd" clip-rule="evenodd" d="M5.96095 2.05174C6.25095 2.56174 6.52104 3.20192 6.80104 3.99192C7.51104 3.95192 8.51098 3.95194 9.23098 4.01194C9.50098 3.26194 9.74101 2.65182 10.011 2.14183C10.011 2.13183 10.021 2.1218 10.031 2.1118C10.341 1.5918 10.8609 1.26189 11.4409 1.2119C12.021 1.1519 12.591 1.37176 12.991 1.82176C13.011 1.84176 13.0311 1.86182 13.0511 1.88182C14.0711 3.34181 15.1111 5.82185 15.1111 8.42185C15.1111 12.7218 11.391 14.7019 8.03103 14.7019C4.66102 14.7019 0.920898 12.8017 0.920898 8.32175C0.920898 5.65175 1.951 3.21176 3.021 1.82176C3.041 1.79176 3.06107 1.77193 3.09107 1.75193C3.48107 1.35193 4.02104 1.15189 4.56105 1.20189C5.11105 1.25189 5.60091 1.54193 5.92091 2.00193C5.93091 2.02193 5.94095 2.03174 5.96095 2.05174ZM4.68092 2.84178L4.67091 2.83177C4.61091 2.76177 4.52092 2.70188 4.43092 2.70188C4.34092 2.69188 4.25092 2.72196 4.18092 2.78196C3.27091 3.98196 2.4209 6.06175 2.4209 8.32175C2.4209 11.8117 5.41102 13.2019 8.03103 13.2019C10.641 13.2019 13.6111 11.7618 13.6111 8.42185C13.6111 6.19185 12.7311 4.06173 11.8511 2.79173C11.7811 2.72173 11.6811 2.69188 11.5911 2.70188C11.4811 2.71188 11.3811 2.77181 11.3211 2.88181C11.0211 3.44181 10.761 4.17175 10.451 5.07175C10.321 5.42175 9.96109 5.63174 9.59109 5.56174C8.95109 5.43174 7.03093 5.41196 6.43092 5.53196C6.05092 5.61196 5.68105 5.39195 5.56105 5.02195C5.27105 4.11195 4.99092 3.38178 4.68092 2.84178Z" fill="black"/>
</svg>
