<svg width="16" height="16" viewBox="0 0 16 16" fill="none" xmlns="http://www.w3.org/2000/svg">
<path fill-rule="evenodd" clip-rule="evenodd" d="M3.2062 3.21322C3.2732 2.44222 3.6092 1.71722 4.1602 1.16622C4.7792 0.547219 5.6182 0.199219 6.4942 0.199219C8.2912 0.199219 10.7062 0.199219 12.5032 0.199219C13.3792 0.199219 14.2182 0.547219 14.8372 1.16622C15.4562 1.78422 15.8032 2.62422 15.8032 3.49922C15.8032 4.74422 15.8032 6.24622 15.8032 7.49122C15.8032 8.36622 15.4562 9.20622 14.8372 9.82422C14.2852 10.3772 13.5572 10.7132 12.7842 10.7782C12.7172 11.5482 12.3812 12.2742 11.8302 12.8242C11.2122 13.4432 10.3722 13.7912 9.4972 13.7912C7.7032 13.7912 5.2942 13.7912 3.5002 13.7912C2.6252 13.7912 1.7852 13.4432 1.1672 12.8242C0.548195 12.2062 0.200195 11.3662 0.200195 10.4912C0.200195 9.24622 0.200195 7.74422 0.200195 6.49922C0.200195 5.62422 0.548195 4.78422 1.1672 4.16622C1.7162 3.61622 2.4392 3.28122 3.2062 3.21322ZM9.4972 4.79922C9.9482 4.79922 10.3802 4.97822 10.6992 5.29722C11.0182 5.61622 11.1972 6.04822 11.1972 6.49922V10.4912C11.1972 10.9422 11.0182 11.3742 10.6992 11.6932C10.3802 12.0122 9.9482 12.1912 9.4972 12.1912H3.5002C3.0492 12.1912 2.6172 12.0122 2.2982 11.6932C1.9792 11.3742 1.8002 10.9422 1.8002 10.4912V6.49922C1.8002 6.04822 1.9792 5.61622 2.2982 5.29722C2.6172 4.97822 3.0492 4.79922 3.5002 4.79922H9.4972ZM9.0002 9.24922H4.0002C3.5862 9.24922 3.2502 9.58522 3.2502 9.99922C3.2502 10.4132 3.5862 10.7492 4.0002 10.7492H9.0002C9.4142 10.7492 9.7502 10.4132 9.7502 9.99922C9.7502 9.58522 9.4142 9.24922 9.0002 9.24922ZM12.7972 9.16522C13.1392 9.10622 13.4572 8.94222 13.7062 8.69322C14.0242 8.37422 14.2032 7.94222 14.2032 7.49122V3.49922C14.2032 3.04822 14.0242 2.61622 13.7062 2.29722C13.3872 1.97822 12.9542 1.79922 12.5032 1.79922C10.7062 1.79922 8.29119 1.79922 6.49419 1.79922C6.04319 1.79922 5.6102 1.97822 5.29119 2.29722C5.04419 2.54422 4.8812 2.85922 4.8212 3.19922H9.4972C10.3722 3.19922 11.2122 3.54722 11.8302 4.16622C12.4492 4.78422 12.7972 5.62422 12.7972 6.49922V9.16522ZM9.0002 6.24922H4.0002C3.5862 6.24922 3.2502 6.58522 3.2502 6.99922C3.2502 7.41322 3.5862 7.74922 4.0002 7.74922H9.0002C9.4142 7.74922 9.7502 7.41322 9.7502 6.99922C9.7502 6.58522 9.4142 6.24922 9.0002 6.24922Z" fill="black"/>
</svg>
