<svg width="16" height="16" viewBox="0 0 16 16" fill="none" xmlns="http://www.w3.org/2000/svg">
<path fill-rule="evenodd" clip-rule="evenodd" d="M13.2097 11.0314V12.9794C13.2097 13.0357 13.1873 13.0897 13.1475 13.1296C13.1077 13.1694 13.0536 13.1918 12.9973 13.1918H11.0451C10.6036 13.1918 10.2451 13.5502 10.2451 13.9918C10.2451 14.4333 10.6036 14.7918 11.0451 14.7918C11.0451 14.7918 12.1385 14.7918 12.9973 14.7918C13.478 14.7918 13.939 14.6008 14.2789 14.2609C14.6188 13.921 14.8097 13.46 14.8097 12.9793C14.8097 12.122 14.8097 11.0314 14.8097 11.0314C14.8097 10.5898 14.4512 10.2314 14.0097 10.2314C13.5682 10.2314 13.2097 10.5898 13.2097 11.0314ZM4.9561 13.1918H3.0127C2.8953 13.1917 2.8002 13.0967 2.8002 12.9794V11.0142C2.8002 10.5727 2.4417 10.2142 2.0002 10.2142C1.5587 10.2142 1.2002 10.5727 1.2002 11.0142V12.9794C1.2002 13.9803 2.0116 14.7918 3.0126 14.7918H4.9561C5.3977 14.7918 5.7561 14.4333 5.7561 13.9918C5.7561 13.5502 5.3977 13.1918 4.9561 13.1918ZM8.00469 5.79062C9.23619 5.79062 10.236 6.79042 10.236 8.02192C10.236 9.25332 9.23619 10.2531 8.00469 10.2531C6.77319 10.2531 5.7735 9.25332 5.7735 8.02192C5.7735 6.79042 6.77319 5.79062 8.00469 5.79062ZM2.8002 5.00612V3.01172C2.8002 2.89432 2.8953 2.79922 3.0126 2.79922H4.9753C5.4169 2.79922 5.7753 2.44072 5.7753 1.99922C5.7753 1.55772 5.4169 1.19922 4.9753 1.19922H3.0126C2.0116 1.19922 1.2002 2.01072 1.2002 3.01162V5.00612C1.2002 5.44772 1.5587 5.80612 2.0002 5.80612C2.4417 5.80612 2.8002 5.44772 2.8002 5.00612ZM11.0135 2.79922H12.9973C13.1146 2.79922 13.2097 2.89432 13.2097 3.01162V4.98252C13.2097 5.42402 13.5682 5.78252 14.0097 5.78252C14.4512 5.78252 14.8097 5.42402 14.8097 4.98252V3.01162C14.8097 2.01062 13.9982 1.19922 12.9973 1.19922C12.1278 1.19922 11.0135 1.19922 11.0135 1.19922C10.572 1.19922 10.2135 1.55772 10.2135 1.99922C10.2135 2.44072 10.572 2.79922 11.0135 2.79922Z" fill="black"/>
</svg>
