<svg width="16" height="16" viewBox="0 0 16 16" fill="none" xmlns="http://www.w3.org/2000/svg">
<g clip-path="url(#clip0_28274_40)">
<path fill-rule="evenodd" clip-rule="evenodd" d="M10.5676 12.6633L9.7175 13.5234C8.8675 14.3634 7.50744 14.3634 6.66744 13.5234L6.02755 12.8833L4.03755 14.8733C3.63755 15.2733 3.09754 15.5034 2.52754 15.5034C1.95753 15.5034 1.41752 15.2733 1.01752 14.8733C0.187519 14.0433 0.187519 12.6933 1.01752 11.8633L3.00752 9.87327L2.24751 9.11327C1.4875 8.35327 1.38753 7.15344 2.02753 6.29344L2.93745 5.06347C2.96745 5.03347 2.99754 4.99337 3.02754 4.96337C3.03754 4.94337 3.05759 4.92331 3.07759 4.90331C4.53759 3.13331 5.7876 1.78327 7.08761 0.863276C7.08761 0.863276 7.09762 0.863266 7.09762 0.853266C7.76762 0.403267 8.67752 0.483472 9.24753 1.06347C10.4675 2.30347 13.5676 5.45344 15.1076 7.03343C15.4977 7.42343 15.6576 7.9734 15.5576 8.5034C15.4576 9.0334 15.0977 9.48335 14.6076 9.70335L14.5976 9.71336C13.0976 10.3934 11.8075 11.3732 10.6675 12.5832C10.6375 12.6132 10.6076 12.6433 10.5676 12.6633ZM3.76753 6.6433L3.31758 7.24339C3.14758 7.47339 3.17763 7.78337 3.36763 7.97337L4.22749 8.83324C4.50749 9.10324 4.66743 9.48326 4.66743 9.86326C4.66743 10.2633 4.5075 10.6333 4.2375 10.9033L2.14741 12.9934C1.93741 13.2034 1.93741 13.5334 2.14741 13.7434C2.24741 13.8434 2.38754 13.9033 2.52754 13.9033C2.66754 13.9033 2.80742 13.8434 2.90742 13.7434L4.9875 11.6533C5.2575 11.3833 5.63754 11.2334 6.02755 11.2234C6.41755 11.2234 6.78758 11.3833 7.05758 11.6533L7.79757 12.3833C8.00757 12.6033 8.36761 12.6033 8.58761 12.3833L8.95749 12.0134L3.76753 6.6433ZM8.99753 3.09325C8.64752 2.73325 8.33763 2.42335 8.10763 2.19335C8.07763 2.16335 8.03752 2.15333 7.99752 2.17333C6.93752 2.93333 5.92754 4.00328 4.76753 5.37328L10.0876 10.8833C11.2276 9.79328 12.5075 8.9034 13.9475 8.2534C13.9475 8.2434 13.9475 8.24339 13.9575 8.24339C13.9675 8.23339 13.9775 8.22335 13.9875 8.20335C13.9875 8.18335 13.9875 8.1633 13.9675 8.15331C13.0175 7.17331 11.4577 5.5934 10.1277 4.2434C9.63765 4.5734 9.07752 5.07345 8.73751 5.54345C8.48751 5.90344 7.98765 5.9934 7.62765 5.7434C7.26765 5.4834 7.17746 4.98328 7.43746 4.62328C7.81746 4.08328 8.41752 3.52325 8.99753 3.09325Z" fill="black"/>
</g>
<defs>
<clipPath id="clip0_28274_40">
<rect width="16" height="16" fill="white"/>
</clipPath>
</defs>
</svg>
