<svg width="24" height="24" viewBox="0 0 24 24" fill="none" xmlns="http://www.w3.org/2000/svg">
<g clip-path="url(#clip0_28251_2535)">
<path fill-rule="evenodd" clip-rule="evenodd" d="M15.6993 18.8593L14.3992 20.1513C13.2192 21.3353 11.2992 21.3343 10.1092 20.1493L9.00934 19.0534L5.88924 22.1843C5.32924 22.7483 4.55937 23.0643 3.76937 23.0643C2.96937 23.0643 2.20925 22.7474 1.63925 22.1834V22.1813C0.479258 21.0104 0.479268 19.1143 1.64926 17.9453L4.76937 14.8183L3.47933 13.5384C2.40934 12.4764 2.27929 10.7894 3.17929 9.57537L4.54915 7.72839C4.57915 7.67739 4.62927 7.63135 4.66927 7.58935C4.67927 7.56635 4.69932 7.5444 4.71932 7.5224C6.76931 4.83241 8.7793 2.85136 10.7193 1.47237C10.7193 1.46837 10.7293 1.46441 10.7393 1.46041C11.6693 0.829407 12.9093 0.952376 13.6993 1.75337C15.5293 3.60937 20.1793 8.33238 22.4993 10.6974C23.0293 11.2334 23.2591 11.9934 23.1191 12.7314C22.9791 13.4654 22.4891 14.0834 21.7991 14.3874L21.7891 14.3924C19.5191 15.4264 17.5591 16.9134 15.8291 18.7443C15.7891 18.7863 15.7493 18.8253 15.6993 18.8593ZM5.5992 9.66338L4.78914 10.7644C4.47914 11.1794 4.52924 11.7554 4.88924 12.1184L6.17927 13.3984C6.55927 13.7734 6.76936 14.2824 6.76936 14.8144C6.76936 15.3464 6.55928 15.8563 6.18928 16.2323L3.05917 19.3593C2.66917 19.7483 2.66917 20.3794 3.05917 20.7694V20.7713C3.24917 20.9593 3.49937 21.0643 3.76937 21.0643C4.02937 21.0643 4.28932 20.9593 4.46932 20.7713L7.59919 17.6403C7.96919 17.2653 8.47934 17.0544 9.00934 17.0534C9.53934 17.0534 10.0493 17.2634 10.4293 17.6394L11.5293 18.7353C11.9293 19.1403 12.5893 19.1403 12.9893 18.7353L13.6893 18.0373L5.5992 9.66338ZM13.7693 4.67341C13.1793 4.07241 12.6693 3.55038 12.2793 3.15638C12.1693 3.04538 11.9992 3.02636 11.8692 3.11036C10.2292 4.27336 8.54917 5.90239 6.82917 8.05938L15.1092 16.6253C16.8392 14.9423 18.7793 13.5654 20.9793 12.5664C20.9793 12.5664 20.9793 12.5634 20.9893 12.5614C21.0693 12.5244 21.1292 12.4464 21.1492 12.3544C21.1692 12.2624 21.1391 12.1684 21.0691 12.1014V12.0993C19.6091 10.6054 17.2192 8.17437 15.1892 6.11737C14.4092 6.62837 13.4692 7.44838 12.9292 8.21838C12.6092 8.66938 11.9793 8.77734 11.5293 8.45935C11.0794 8.14135 10.9691 7.51637 11.2891 7.06537C11.8891 6.21537 12.8793 5.31541 13.7693 4.67341Z" fill="black"/>
</g>
<defs>
<clipPath id="clip0_28251_2535">
<rect width="24" height="24" fill="white"/>
</clipPath>
</defs>
</svg>
