<svg width="16" height="16" viewBox="0 0 16 16" fill="none" xmlns="http://www.w3.org/2000/svg">
<path fill-rule="evenodd" clip-rule="evenodd" d="M0.381739 8.8409L3.72074 12.2259C3.88574 12.3929 4.11174 12.4849 4.34574 12.4789C4.57974 12.4739 4.80174 12.3719 4.95874 12.1969L11.4577 4.9569C11.7707 4.6079 11.7417 4.0699 11.3927 3.7559C11.0437 3.4429 10.5057 3.4719 10.1927 3.8209L4.29674 10.3899L1.59174 7.6469C1.26274 7.3129 0.723739 7.3089 0.389739 7.6379C0.0557391 7.9679 0.0517391 8.5059 0.381739 8.8409ZM8.53074 10.3129L7.39374 11.5809L8.02674 12.2229C8.19174 12.3899 8.41774 12.4809 8.65174 12.4759C8.88674 12.4699 9.10774 12.3679 9.26474 12.1939L15.7637 4.9529C16.0767 4.6039 16.0477 4.0659 15.6987 3.7529C15.3497 3.4389 14.8117 3.4679 14.4987 3.8179L8.60274 10.3859L8.53074 10.3129Z" fill="black"/>
</svg>
