<svg width="16" height="16" viewBox="0 0 16 16" fill="none" xmlns="http://www.w3.org/2000/svg">
<path fill-rule="evenodd" clip-rule="evenodd" d="M7.99462 1.32812C4.31638 1.32812 1.33008 4.31422 1.33008 7.99312C1.33008 11.672 4.31638 14.6581 7.99462 14.6581C11.6738 14.6581 14.6601 11.672 14.6601 7.99312C14.6601 4.31422 11.6738 1.32812 7.99462 1.32812ZM7.09591 10.5197L5.05648 8.46036C4.77333 8.1745 4.77606 7.71384 5.06103 7.43071C5.34692 7.14757 5.80852 7.1503 6.09167 7.43526L7.58846 8.94651L10.4091 5.81476C10.6786 5.51615 11.1392 5.49248 11.4379 5.76104C11.7365 6.03052 11.7611 6.49118 11.4916 6.78979L8.15477 10.4942C8.02093 10.6435 7.83156 10.7309 7.63125 10.7354C7.43095 10.74 7.23703 10.6617 7.09591 10.5197Z" fill="black"/>
</svg>
