<svg width="24" height="24" viewBox="0 0 24 24" fill="none" xmlns="http://www.w3.org/2000/svg">
<path fill-rule="evenodd" clip-rule="evenodd" d="M12 2C6.481 2 2 6.481 2 12C2 17.519 6.481 22 12 22C17.519 22 22 17.519 22 12C22 6.481 17.519 2 12 2ZM12 4C16.415 4 20 7.585 20 12C20 16.415 16.415 20 12 20C7.585 20 4 16.415 4 12C4 7.585 7.585 4 12 4ZM7.05794 12.6768L10.1499 15.7987C10.3629 16.0138 10.6549 16.1318 10.9569 16.1237C11.2599 16.1167 11.5459 15.9858 11.7489 15.7607L16.9779 9.95475C17.3839 9.50275 17.3479 8.80675 16.8969 8.40075C16.4449 7.99475 15.7489 8.03075 15.3429 8.48175L10.8929 13.4228L8.62094 11.1287C8.19394 10.6978 7.49694 10.6937 7.06494 11.1217C6.63394 11.5487 6.63094 12.2458 7.05794 12.6768Z" fill="black"/>
</svg>
