<svg width="16" height="16" viewBox="0 0 16 16" fill="none" xmlns="http://www.w3.org/2000/svg">
<path fill-rule="evenodd" clip-rule="evenodd" d="M7.99462 1.32812C4.31638 1.32812 1.33008 4.31422 1.33008 7.99312C1.33008 11.672 4.31638 14.6581 7.99462 14.6581C11.6738 14.6581 14.6601 11.672 14.6601 7.99312C14.6601 4.31422 11.6738 1.32812 7.99462 1.32812ZM7.99462 2.78476C10.8698 2.78476 13.2033 5.1181 13.2033 7.99312C13.2033 10.8681 10.8698 13.2015 7.99462 13.2015C5.12031 13.2015 2.7868 10.8681 2.7868 7.99312C2.7868 5.1181 5.12031 2.78476 7.99462 2.78476ZM5.05657 8.46198L7.096 10.5213C7.23712 10.6633 7.43105 10.7416 7.63135 10.7371C7.83165 10.7325 8.02102 10.6451 8.15486 10.4958L11.4917 6.7914C11.7612 6.49279 11.7366 6.03213 11.438 5.76266C11.1393 5.49409 10.6786 5.51776 10.4092 5.81637L7.58855 8.94813L6.09176 7.43687C5.80861 7.15192 5.34701 7.14919 5.06113 7.43232C4.77615 7.71545 4.77342 8.17611 5.05657 8.46198Z" fill="black"/>
</svg>
