<svg width="24" height="24" viewBox="0 0 24 24" fill="none" xmlns="http://www.w3.org/2000/svg">
<path fill-rule="evenodd" clip-rule="evenodd" d="M20 10.8888V15.9988C20 18.7588 17.761 20.9988 15 20.9988C12.557 20.9988 9.443 20.9988 7 20.9988C4.239 20.9988 2 18.7588 2 15.9988C2 13.5588 2 10.4388 2 7.99883C2 5.23883 4.239 2.99883 7 2.99883C9.443 2.99883 12.557 2.99883 15 2.99883C15.865 2.99883 16.68 3.21883 17.389 3.60883L15.991 5.16883C15.681 5.05883 15.347 4.99883 15 4.99883H7C5.343 4.99883 4 6.33883 4 7.99883V15.9988C4 17.6588 5.343 18.9988 7 18.9988H15C16.657 18.9988 18 17.6588 18 15.9988V13.1288L20 10.8888ZM7.455 11.0988L11.491 15.1888C11.723 15.4288 12.043 15.5588 12.374 15.5488C12.706 15.5388 13.019 15.3988 13.239 15.1488L22.549 4.73883C22.991 4.23883 22.948 3.47883 22.455 3.03883C21.961 2.59883 21.202 2.63883 20.76 3.13883L12.302 12.5988L9.164 9.41883C8.698 8.94883 7.938 8.93883 7.467 9.40883C6.995 9.86883 6.99 10.6288 7.455 11.0988Z" fill="black"/>
</svg>
