<svg width="24" height="24" viewBox="0 0 24 24" fill="none" xmlns="http://www.w3.org/2000/svg">
<path fill-rule="evenodd" clip-rule="evenodd" d="M12 2C6.481 2 2 6.481 2 12C2 17.519 6.481 22 12 22C17.519 22 22 17.519 22 12C22 6.481 17.519 2 12 2ZM6.74124 11.844C6.75518 11.5808 6.86316 11.3217 7.06494 11.1217C7.49694 10.6937 8.19394 10.6978 8.62094 11.1287L10.8929 13.4228L15.3429 8.48175C15.7489 8.03075 16.4449 7.99475 16.8969 8.40075C17.1531 8.63136 17.2754 8.95553 17.2588 9.27541C17.246 9.51829 17.1531 9.75862 16.978 9.95356L11.749 15.7596C11.546 15.9846 11.26 16.1156 10.957 16.1226C10.655 16.1306 10.363 16.0126 10.15 15.7976L7.05801 12.6756C6.83122 12.4467 6.72573 12.1427 6.74124 11.844Z" fill="black"/>
</svg>
