<svg width="24" height="24" viewBox="0 0 24 24" fill="none" xmlns="http://www.w3.org/2000/svg">
<path fill-rule="evenodd" clip-rule="evenodd" d="M0.411059 12.7596L5.63606 18.0596C5.82906 18.2496 6.09506 18.3596 6.37106 18.3496C6.64706 18.3496 6.90806 18.2296 7.09206 18.0196L17.2601 6.68962C17.6281 6.27962 17.5941 5.64962 17.1831 5.27962C16.7731 4.90962 16.1401 4.94962 15.7711 5.35962L6.31306 15.8896L1.83506 11.3496C1.44806 10.9596 0.814059 10.9596 0.421059 11.3396C0.0280587 11.7296 0.0240587 12.3696 0.411059 12.7596ZM11.9631 15.5896L10.6251 17.0796L11.5871 18.0596C11.7811 18.2496 12.0471 18.3596 12.3231 18.3496C12.5981 18.3496 12.8591 18.2296 13.0431 18.0196L23.2111 6.68962C23.5801 6.27962 23.5451 5.64962 23.1351 5.27962C22.7241 4.90962 22.0911 4.94962 21.7231 5.35962L12.2651 15.8896L11.9631 15.5896Z" fill="black"/>
</svg>
