<svg width="16" height="16" viewBox="0 0 16 16" fill="none" xmlns="http://www.w3.org/2000/svg">
<path fill-rule="evenodd" clip-rule="evenodd" d="M13.8002 7.63107V10.5021C13.8002 12.8771 11.8752 14.8021 9.5002 14.8021H5.5002C3.1252 14.8021 1.2002 12.8771 1.2002 10.5021C1.2002 9.22407 1.2002 7.78007 1.2002 6.50207C1.2002 4.12707 3.1252 2.20207 5.5002 2.20207H9.5002C9.9722 2.20207 10.4272 2.27807 10.8512 2.42207L9.57419 3.80607L9.5002 3.80207H5.5002C4.0092 3.80207 2.8002 5.01107 2.8002 6.50207V10.5021C2.8002 11.9931 4.0092 13.2021 5.5002 13.2021H9.5002C10.9912 13.2021 12.2002 11.9931 12.2002 10.5021V9.36407L13.8002 7.63107ZM4.7872 8.04307L7.3672 10.4031C7.7132 10.7191 8.2482 10.6961 8.5662 10.3531L15.0032 3.38007C15.3212 3.03507 15.2992 2.49707 14.9552 2.17807C14.6102 1.86007 14.0722 1.88207 13.7542 2.22607L7.8912 8.57807L5.9352 6.78907C5.5892 6.47207 5.0512 6.49607 4.7342 6.84207C4.4172 7.18807 4.4412 7.72607 4.7872 8.04307Z" fill="black"/>
</svg>
