<svg width="16" height="16" viewBox="0 0 16 16" fill="none" xmlns="http://www.w3.org/2000/svg">
<path fill-rule="evenodd" clip-rule="evenodd" d="M14.8002 5.99922C14.8002 4.72622 14.2942 3.50522 13.3942 2.60522C12.4942 1.70522 11.2732 1.19922 10.0002 1.19922C8.7132 1.19922 7.2872 1.19922 6.0002 1.19922C4.7272 1.19922 3.5062 1.70522 2.6062 2.60522C1.7062 3.50522 1.2002 4.72622 1.2002 5.99922C1.2002 7.28622 1.2002 8.71222 1.2002 9.99922C1.2002 11.2722 1.7062 12.4932 2.6062 13.3932C3.5062 14.2932 4.7272 14.7992 6.0002 14.7992C7.2872 14.7992 8.7132 14.7992 10.0002 14.7992C11.2732 14.7992 12.4942 14.2932 13.3942 13.3932C14.2942 12.4932 14.8002 11.2722 14.8002 9.99922V5.99922ZM13.2002 5.99922V9.99922C13.2002 10.8482 12.8632 11.6622 12.2632 12.2622C11.6632 12.8622 10.8492 13.1992 10.0002 13.1992H6.0002C5.1512 13.1992 4.3372 12.8622 3.7372 12.2622C3.1372 11.6622 2.8002 10.8482 2.8002 9.99922V5.99922C2.8002 5.15022 3.1372 4.33622 3.7372 3.73622C4.3372 3.13622 5.1512 2.79922 6.0002 2.79922H10.0002C10.8492 2.79922 11.6632 3.13622 12.2632 3.73622C12.8632 4.33622 13.2002 5.15022 13.2002 5.99922Z" fill="black"/>
</svg>
