<svg width="16" height="16" viewBox="0 0 16 16" fill="none" xmlns="http://www.w3.org/2000/svg">
<path fill-rule="evenodd" clip-rule="evenodd" d="M4.98873 6.78315C3.52173 11.1731 5.51773 15.1741 5.51773 15.1741C5.66273 15.4651 5.96973 15.6391 6.29373 15.6151C6.29373 15.6151 8.38173 15.4541 9.98173 14.5751C12.4537 13.2191 13.8557 11.8531 14.6677 9.56915C14.7477 9.34615 14.7237 9.10015 14.6037 8.89615C14.4847 8.69215 14.2807 8.55115 14.0467 8.51215C10.3927 7.89815 6.57073 6.01615 6.57073 6.01615L6.48873 5.98215L3.34973 0.546149C3.11573 0.140149 2.59473 0.000149257 2.18873 0.235149C1.78273 0.469149 1.64273 0.990149 1.87773 1.39615L4.98873 6.78315ZM9.26873 13.1411C10.9667 12.2031 12.0787 11.2801 12.7897 9.89615C10.0807 9.29815 7.46173 8.18315 6.38173 7.69315C5.61473 10.4221 6.34173 12.9131 6.73573 13.9501C7.01273 13.9071 7.37073 13.8401 7.75873 13.7341C7.15173 12.6961 6.77973 11.6391 6.77973 11.6391C6.63373 11.2221 6.85373 10.7651 7.27073 10.6191C7.68773 10.4741 8.14473 10.6941 8.28973 11.1101C8.28973 11.1101 8.66473 12.1881 9.26873 13.1411Z" fill="black"/>
</svg>
