<svg width="24" height="24" viewBox="0 0 24 24" fill="none" xmlns="http://www.w3.org/2000/svg">
<path fill-rule="evenodd" clip-rule="evenodd" d="M8.19988 10.5428C8.18988 10.5788 8.16988 10.6168 8.15988 10.6558C6.03988 16.9378 8.89988 22.6718 8.89988 22.6718C9.07988 23.0348 9.46988 23.2528 9.86988 23.2228C9.86988 23.2228 12.8499 22.9938 15.1299 21.7428C18.6499 19.8078 20.6599 17.8638 21.8099 14.6068C21.9099 14.3278 21.8799 14.0198 21.7299 13.7648C21.5799 13.5098 21.3299 13.3348 21.0399 13.2858C15.7499 12.3958 10.2099 9.67279 10.2099 9.67279C10.1299 9.63279 10.0499 9.60479 9.95988 9.58879L5.43988 1.75979C5.16988 1.28179 4.55988 1.11779 4.07988 1.39379C3.59988 1.66979 3.43988 2.28179 3.70988 2.75979L8.19988 10.5428ZM13.9999 20.0768L14.1699 19.9888C16.7599 18.5628 18.4299 17.1658 19.4799 15.0218C15.3699 14.1428 11.3699 12.4098 9.90988 11.7398C8.67988 15.8858 9.84988 19.6838 10.4199 21.1458C10.8999 21.0758 11.5699 20.9508 12.2999 20.7368C11.3499 19.0808 10.6799 17.0998 10.6799 17.0998C10.5199 16.6288 10.7799 16.1178 11.2499 15.9598C11.7199 15.8008 12.2299 16.0548 12.3899 16.5248C12.3899 16.5248 13.0599 18.5398 13.9999 20.0768Z" fill="black"/>
</svg>
