<svg width="24" height="24" viewBox="0 0 24 24" fill="none" xmlns="http://www.w3.org/2000/svg">
<path d="M16.2911 10.6957C16.6883 10.2813 17.3462 10.2673 17.7606 10.6645C22.3687 15.0806 19.2675 22.655 11.9709 22.5899C7.32536 22.5484 4.20374 19.6433 4.10434 16.1023C4.01531 12.9277 5.75529 11.0623 8.20028 10.9828C9.83167 10.9298 11.3074 11.8097 11.9679 13.2939C12.2012 13.8183 11.9653 14.4327 11.4409 14.666C10.9164 14.8994 10.3021 14.6635 10.0687 14.139C9.75969 13.4446 9.07148 13.0343 8.26777 13.0604C6.97086 13.1025 6.12516 14.0092 6.18222 16.044C6.24955 18.4424 8.43854 20.4795 11.9895 20.5113C17.4066 20.5596 19.5694 15.2771 16.3223 12.1653C15.9079 11.7681 15.8939 11.1102 16.2911 10.6957Z" fill="black"/>
<path d="M8.23818 1.66588C8.79168 1.59206 9.30323 1.95007 9.43328 2.4803L9.45519 2.59646L10.1427 7.75106C10.2218 8.3441 9.80516 8.88897 9.21212 8.96807C8.65861 9.04189 8.14707 8.68388 8.01701 8.15365L7.99511 8.03749L7.30761 2.88289C7.22851 2.28985 7.64514 1.74498 8.23818 1.66588Z" fill="black"/>
<path d="M14.6026 2.46737C14.7606 1.8903 15.3564 1.55055 15.9335 1.70851C16.4721 1.85593 16.8039 2.38481 16.7174 2.92385L16.6923 3.03938L15.1287 8.75168C14.9708 9.32874 14.3749 9.66849 13.7979 9.51054C13.2593 9.36311 12.9274 8.83423 13.014 8.29519L13.039 8.17967L14.6026 2.46737Z" fill="black"/>
</svg>
