<svg width="24" height="24" viewBox="0 0 24 24" fill="none" xmlns="http://www.w3.org/2000/svg">
<path fill-rule="evenodd" clip-rule="evenodd" d="M11.9731 1.9668C6.45414 1.9668 1.97314 6.4478 1.97314 11.9668C1.97314 17.4858 6.45414 21.9668 11.9731 21.9668C17.4921 21.9668 21.9731 17.4858 21.9731 11.9668C21.9731 6.4478 17.4921 1.9668 11.9731 1.9668ZM11.9731 3.9668C16.3881 3.9668 19.9731 7.5518 19.9731 11.9668C19.9731 16.3818 16.3881 19.9668 11.9731 19.9668C7.55814 19.9668 3.97314 16.3818 3.97314 11.9668C3.97314 7.5518 7.55814 3.9668 11.9731 3.9668ZM10.9221 6.9798V11.9978C10.9221 12.2898 11.0381 12.5698 11.2441 12.7758L13.8571 15.3898C14.2871 15.8188 14.9841 15.8188 15.4131 15.3898C15.8421 14.9598 15.8421 14.2628 15.4131 13.8338L13.1221 11.5428V6.9798C13.1221 6.3728 12.6291 5.8798 12.0221 5.8798C11.4151 5.8798 10.9221 6.3728 10.9221 6.9798Z" fill="black"/>
</svg>
