<svg width="12" height="12" viewBox="0 0 12 12" fill="none" xmlns="http://www.w3.org/2000/svg">
<path fill-rule="evenodd" clip-rule="evenodd" d="M6 1C3.24043 1 1 3.24043 1 6C1 8.75957 3.24043 11 6 11C8.75957 11 11 8.75957 11 6C11 3.24043 8.75957 1 6 1ZM5.99999 2.37939C7.99827 2.37939 9.62068 4.00181 9.62068 6.00008C9.62068 7.99836 7.99827 9.62077 5.99999 9.62077C4.00172 9.62077 2.3793 7.99836 2.3793 6.00008C2.3793 4.00181 4.00172 2.37939 5.99999 2.37939ZM5.31207 3.58754V5.99108C5.31207 6.17392 5.38475 6.34935 5.51406 6.47866L6.76569 7.73039C7.03492 7.99953 7.4719 7.99953 7.74104 7.73039C8.01018 7.46125 8.01018 7.02418 7.74104 6.75504L6.69138 5.70539V3.58754C6.69138 3.20694 6.38233 2.89789 6.00173 2.89789C5.62112 2.89789 5.31207 3.20694 5.31207 3.58754Z" fill="black"/>
</svg>
