<svg width="16" height="16" viewBox="0 0 16 16" fill="none" xmlns="http://www.w3.org/2000/svg">
<path fill-rule="evenodd" clip-rule="evenodd" d="M7.99462 1.33008C11.6732 1.33008 14.6601 4.3168 14.6601 7.99508C14.6601 11.6734 11.6732 14.6601 7.99462 14.6601C4.31609 14.6601 1.33008 11.6734 1.33008 7.99508C1.33008 4.3168 4.31609 1.33008 7.99462 1.33008ZM7.18912 4.8079V7.99325C7.18912 8.21101 7.27568 8.41966 7.42968 8.57273L9.08898 10.2319C9.40881 10.5517 9.9282 10.5517 10.248 10.2319C10.5688 9.91211 10.5688 9.39276 10.248 9.07204L8.82928 7.65339V4.8079C8.82928 4.35506 8.46207 3.98787 8.0092 3.98787C7.55724 3.98787 7.18912 4.35506 7.18912 4.8079Z" fill="black"/>
</svg>
