<svg width="16" height="16" viewBox="0 0 16 16" fill="none" xmlns="http://www.w3.org/2000/svg">
<path fill-rule="evenodd" clip-rule="evenodd" d="M7.99462 1.33008C4.31646 1.33008 1.33008 4.31625 1.33008 7.99508C1.33008 11.6739 4.31646 14.6601 7.99462 14.6601C11.6737 14.6601 14.6601 11.6739 14.6601 7.99508C14.6601 4.31625 11.6737 1.33008 7.99462 1.33008ZM7.99462 2.79792C10.8636 2.79792 13.1921 5.12631 13.1921 7.99506C13.1921 10.8638 10.8636 13.1922 7.99462 13.1922C5.12659 13.1922 2.79803 10.8638 2.79803 7.99506C2.79803 5.12631 5.12659 2.79792 7.99462 2.79792ZM7.18451 4.78597V7.99325C7.18451 8.21251 7.27167 8.4226 7.42581 8.57672L9.14882 10.2996C9.47086 10.6216 9.99382 10.6216 10.3168 10.2996C10.6388 9.97761 10.6388 9.45377 10.3168 9.13176L8.83596 7.65105V4.78597C8.83596 4.33002 8.4653 3.9603 8.01024 3.9603C7.55425 3.9603 7.18451 4.33002 7.18451 4.78597Z" fill="black"/>
</svg>
