<svg width="16" height="16" viewBox="0 0 16 16" fill="none" xmlns="http://www.w3.org/2000/svg">
<path fill-rule="evenodd" clip-rule="evenodd" d="M7.99508 1.32812C11.6738 1.32812 14.6601 4.3144 14.6601 7.99312C14.6601 11.6718 11.6738 14.6581 7.99508 14.6581C4.31636 14.6581 1.33008 11.6718 1.33008 7.99312C1.33008 4.3144 4.31636 1.32812 7.99508 1.32812ZM8.04624 6.70142L6.48779 5.14296C6.1306 4.78578 5.55235 4.78578 5.19517 5.14296C4.8389 5.49923 4.8389 6.0784 5.19517 6.43467L6.75454 7.99313L5.19517 9.55158C4.8389 9.90785 4.8389 10.487 5.19517 10.8433C5.55235 11.2005 6.1306 11.2005 6.48779 10.8433L8.04624 9.28484L9.6047 10.8433C9.96097 11.2005 10.5401 11.2005 10.8964 10.8433C11.2536 10.487 11.2536 9.90785 10.8964 9.55158L9.33795 7.99313L10.8964 6.43467C11.2536 6.0784 11.2536 5.49923 10.8964 5.14296C10.5401 4.78578 9.96097 4.78578 9.6047 5.14296L8.04624 6.70142Z" fill="black"/>
</svg>
