<svg width="16" height="16" viewBox="0 0 16 16" fill="none" xmlns="http://www.w3.org/2000/svg">
<path d="M6.65602 7.99922L3.25002 11.4052C2.86002 11.7952 2.86002 12.4292 3.25002 12.8192C3.64002 13.2092 4.27402 13.2092 4.66402 12.8192L8.07002 9.41322L11.476 12.8192C11.866 13.2092 12.5 13.2092 12.89 12.8192C13.28 12.4292 13.28 11.7952 12.89 11.4052L9.48402 7.99922L12.89 4.59322C13.28 4.20322 13.28 3.56922 12.89 3.17922C12.5 2.78922 11.866 2.78922 11.476 3.17922L8.07002 6.58522L4.66402 3.17922C4.27402 2.78922 3.64002 2.78922 3.25002 3.17922C2.86002 3.56922 2.86002 4.20322 3.25002 4.59322L6.65602 7.99922Z" fill="black"/>
</svg>
