<svg width="24" height="24" viewBox="0 0 24 24" fill="none" xmlns="http://www.w3.org/2000/svg">
<path fill-rule="evenodd" clip-rule="evenodd" d="M22 12C22 6.481 17.519 2 12 2C6.481 2 2 6.481 2 12C2 17.519 6.481 22 12 22C17.519 22 22 17.519 22 12ZM9.055 7.41898L12.08 10.444L15.106 7.41898C15.535 6.98998 16.232 6.98998 16.661 7.41898C17.091 7.84798 17.091 8.54598 16.661 8.97498L13.636 12L16.661 15.025C17.091 15.454 17.091 16.152 16.661 16.581C16.232 17.01 15.535 17.01 15.106 16.581L12.08 13.556L9.055 16.581C8.626 17.01 7.929 17.01 7.5 16.581C7.07 16.152 7.07 15.454 7.5 15.025L10.525 12L7.5 8.97498C7.07 8.54598 7.07 7.84798 7.5 7.41898C7.929 6.98998 8.626 6.98998 9.055 7.41898Z" fill="black"/>
</svg>
