<svg width="16" height="16" viewBox="0 0 16 16" fill="none" xmlns="http://www.w3.org/2000/svg">
<path fill-rule="evenodd" clip-rule="evenodd" d="M7.99508 1.32812C4.31714 1.32812 1.33008 4.31478 1.33008 7.99312C1.33008 11.6715 4.31714 14.6581 7.99508 14.6581C11.6739 14.6581 14.6601 11.6715 14.6601 7.99312C14.6601 4.31478 11.6739 1.32812 7.99508 1.32812ZM7.99508 2.78815C10.8681 2.78815 13.1999 5.12053 13.1999 7.99312C13.1999 10.8657 10.8681 13.1981 7.99508 13.1981C5.123 13.1981 2.7903 10.8657 2.7903 7.99312C2.7903 5.12053 5.123 2.78815 7.99508 2.78815ZM8.04893 6.96107L6.35233 5.2638C6.06759 4.97909 5.60488 4.97909 5.32014 5.2638C5.03448 5.54942 5.03448 6.01206 5.32014 6.29676L7.01673 7.99313L5.32014 9.68949C5.03448 9.97419 5.03448 10.4368 5.32014 10.7225C5.60488 11.0072 6.06759 11.0072 6.35233 10.7225L8.04893 9.02518L9.74552 10.7225C10.0312 11.0072 10.493 11.0072 10.7786 10.7225C11.0634 10.4368 11.0634 9.97419 10.7786 9.68949L9.08203 7.99313L10.7786 6.29676C11.0634 6.01206 11.0634 5.54942 10.7786 5.2638C10.493 4.97909 10.0312 4.97909 9.74552 5.2638L8.04893 6.96107Z" fill="black"/>
</svg>
