<svg width="24" height="24" viewBox="0 0 24 24" fill="none" xmlns="http://www.w3.org/2000/svg">
<path d="M10.4078 11.9975L5.08684 17.3175C4.61884 17.7875 4.61884 18.5475 5.08684 19.0175C5.55584 19.4875 6.31584 19.4875 6.78384 19.0175L12.1048 13.6975L17.4258 19.0175C17.8938 19.4875 18.6538 19.4875 19.1228 19.0175C19.5908 18.5475 19.5908 17.7875 19.1228 17.3175L13.8018 11.9975L19.1228 6.6775C19.5908 6.2075 19.5908 5.4475 19.1228 4.9775C18.6538 4.5075 17.8938 4.5075 17.4258 4.9775L12.1048 10.2975L6.78384 4.9775C6.31584 4.5075 5.55584 4.5075 5.08684 4.9775C4.61884 5.4475 4.61884 6.2075 5.08684 6.6775L10.4078 11.9975Z" fill="black"/>
</svg>
