<svg width="24" height="24" viewBox="0 0 24 24" fill="none" xmlns="http://www.w3.org/2000/svg">
<path fill-rule="evenodd" clip-rule="evenodd" d="M12 2C6.481 2 2 6.481 2 12C2 17.519 6.481 22 12 22C17.519 22 22 17.519 22 12C22 6.481 17.519 2 12 2ZM12 4C16.415 4 20 7.585 20 12C20 16.415 16.415 20 12 20C7.585 20 4 16.415 4 12C4 7.585 7.585 4 12 4ZM10.525 12L7.947 14.578C7.518 15.007 7.518 15.704 7.947 16.133C8.376 16.563 9.073 16.563 9.503 16.133L12.08 13.556L14.658 16.133C15.087 16.563 15.785 16.563 16.214 16.133C16.643 15.704 16.643 15.007 16.214 14.578L13.636 12L16.214 9.422C16.643 8.993 16.643 8.296 16.214 7.867C15.785 7.437 15.087 7.437 14.658 7.867L12.08 10.444L9.503 7.867C9.073 7.437 8.376 7.437 7.947 7.867C7.518 8.296 7.518 8.993 7.947 9.422L10.525 12Z" fill="black"/>
</svg>
