<svg width="12" height="12" viewBox="0 0 12 12" fill="none" xmlns="http://www.w3.org/2000/svg">
<path d="M4.63801 5.99856L1.66701 8.96956C1.27701 9.35956 1.27701 9.99356 1.66701 10.3836C2.05701 10.7746 2.69101 10.7746 3.08101 10.3836L6.05301 7.41256L9.02401 10.3836C9.41401 10.7746 10.048 10.7746 10.438 10.3836C10.828 9.99356 10.828 9.35956 10.438 8.96956L7.46701 5.99856L10.438 3.02756C10.828 2.63756 10.828 2.00356 10.438 1.61356C10.048 1.22256 9.41401 1.22256 9.02401 1.61356L6.05301 4.58456L3.08101 1.61356C2.69101 1.22256 2.05701 1.22256 1.66701 1.61356C1.27701 2.00356 1.27701 2.63756 1.66701 3.02756L4.63801 5.99856Z" fill="black"/>
</svg>
