<svg width="24" height="24" viewBox="0 0 24 24" fill="none" xmlns="http://www.w3.org/2000/svg">
<path fill-rule="evenodd" clip-rule="evenodd" d="M2 16C2 17.591 2.632 19.117 3.757 20.243C4.883 21.368 6.409 22 8 22H16C17.591 22 19.117 21.368 20.243 20.243C21.368 19.117 22 17.591 22 16V8C22 6.409 21.368 4.883 20.243 3.757C19.117 2.632 17.591 2 16 2H8C6.409 2 4.883 2.632 3.757 3.757C2.632 4.883 2 6.409 2 8V16ZM4 12H11V20H8C6.939 20 5.922 19.579 5.172 18.828C4.421 18.078 4 17.061 4 16V12ZM13 12H20V16C20 17.061 19.579 18.078 18.828 18.828C18.078 19.579 17.061 20 16 20H13V12ZM20 10H4V8C4 6.939 4.421 5.922 5.172 5.172C5.922 4.421 6.939 4 8 4H16C17.061 4 18.078 4.421 18.828 5.172C19.579 5.922 20 6.939 20 8V10Z" fill="black"/>
</svg>
