<svg width="16" height="16" viewBox="0 0 16 16" fill="none" xmlns="http://www.w3.org/2000/svg">
<path fill-rule="evenodd" clip-rule="evenodd" d="M3.2172 12.3992V14.4492C3.2172 15.0292 3.5602 15.5492 4.0892 15.7692C4.6182 15.9992 5.2312 15.8892 5.6472 15.4892L7.4212 13.7992H9.0002C12.2032 13.7992 14.8002 11.1992 14.8002 7.99922C14.8002 7.66922 14.8002 7.32922 14.8002 6.99922C14.8002 3.79922 12.2032 1.19922 9.0002 1.19922H7.0002C3.7972 1.19922 1.2002 3.79922 1.2002 6.99922C1.2002 7.32922 1.2002 7.66922 1.2002 7.99922C1.2002 9.75922 1.9812 11.3292 3.2172 12.3992ZM4.8172 14.0692V12.0092C4.8172 11.7592 4.6982 11.5192 4.4952 11.3692C3.4662 10.6092 2.8002 9.37922 2.8002 7.99922C2.8002 7.66922 2.8002 7.32922 2.8002 6.99922C2.8002 4.67922 4.6802 2.79922 7.0002 2.79922H9.0002C11.3202 2.79922 13.2002 4.67922 13.2002 6.99922C13.2002 7.32922 13.2002 7.66922 13.2002 7.99922C13.2002 10.3192 11.3202 12.1992 9.0002 12.1992H7.1002C6.8952 12.1992 6.6972 12.2792 6.5482 12.4192L4.8172 14.0692Z" fill="black"/>
</svg>
