<svg width="12" height="12" viewBox="0 0 12 12" fill="none" xmlns="http://www.w3.org/2000/svg">
<path fill-rule="evenodd" clip-rule="evenodd" d="M2.21624 8.773V10.489C2.21624 11.009 2.52624 11.48 3.00524 11.684C3.48324 11.889 4.03724 11.789 4.41424 11.43L6.12824 9.794H7.03624C8.17624 9.794 9.27024 9.341 10.0762 8.534C10.8832 7.728 11.3362 6.634 11.3362 5.494V4.925C11.3362 3.785 10.8832 2.691 10.0762 1.885C9.27024 1.078 8.17624 0.625 7.03624 0.625C6.36724 0.625 5.66724 0.625 4.99824 0.625C3.85724 0.625 2.76424 1.078 1.95724 1.885C1.15124 2.691 0.698242 3.785 0.698242 4.925V5.494C0.698242 6.634 1.15124 7.728 1.95724 8.534L2.21624 8.773ZM3.81624 9.788V8.378C3.81624 8.113 3.68524 7.866 3.46724 7.717C3.33224 7.625 3.20524 7.52 3.08824 7.403C2.58224 6.896 2.29824 6.21 2.29824 5.494V4.925C2.29824 4.209 2.58224 3.522 3.08824 3.016C3.59524 2.51 4.28224 2.225 4.99824 2.225H7.03624C7.75224 2.225 8.43924 2.51 8.94524 3.016C9.45124 3.522 9.73624 4.209 9.73624 4.925V5.494C9.73624 6.21 9.45124 6.896 8.94524 7.403C8.43924 7.909 7.75224 8.194 7.03624 8.194H5.80824C5.60224 8.194 5.40524 8.273 5.25624 8.415L3.81624 9.788Z" fill="black"/>
</svg>
