<svg width="16" height="16" viewBox="0 0 16 16" fill="none" xmlns="http://www.w3.org/2000/svg">
<path fill-rule="evenodd" clip-rule="evenodd" d="M1.42285 5.41961L2.80985 6.80961L2.79985 6.99961C2.79985 7.32961 2.79985 7.66961 2.79985 7.99961C2.79985 9.37961 3.46585 10.6096 4.49485 11.3696C4.69785 11.5196 4.81685 11.7596 4.81685 12.0096V14.0696L6.54785 12.4196C6.69685 12.2796 6.89485 12.1996 7.09985 12.1996H8.19985L9.74685 13.7496C9.50285 13.7796 9.25285 13.7996 8.99985 13.7996H7.42085L5.64685 15.4896C5.23085 15.8896 4.61785 15.9996 4.08885 15.7696C3.55985 15.5496 3.21685 15.0296 3.21685 14.4496L3.21785 12.3996C1.98185 11.3296 1.19985 9.75961 1.19985 7.99961C1.19985 7.66961 1.19985 7.32961 1.19985 6.99961C1.19985 6.44961 1.27585 5.91961 1.42285 5.41961ZM13.2039 11.9896L14.9229 13.7096C15.2549 14.0396 15.2549 14.5796 14.9229 14.9096C14.5909 15.2396 14.0529 15.2396 13.7209 14.9096L0.671852 1.85961C0.339852 1.52961 0.339852 0.989609 0.671852 0.659609C1.00385 0.329609 1.54185 0.329609 1.87385 0.659609L3.55885 2.33961C4.51685 1.61961 5.70885 1.19961 6.99985 1.19961H8.99985C12.2029 1.19961 14.7999 3.79961 14.7999 6.99961C14.7999 7.32961 14.7999 7.66961 14.7999 7.99961C14.7999 9.54961 14.1939 10.9496 13.2039 11.9896ZM12.0729 10.8596L4.70485 3.48961C5.36185 3.04961 6.15185 2.79961 6.99985 2.79961H8.99985C11.3199 2.79961 13.1999 4.67961 13.1999 6.99961C13.1999 7.32961 13.1999 7.66961 13.1999 7.99961C13.1999 9.10961 12.7729 10.1096 12.0729 10.8596Z" fill="black"/>
</svg>
