<svg width="24" height="24" viewBox="0 0 24 24" fill="none" xmlns="http://www.w3.org/2000/svg">
<path fill-rule="evenodd" clip-rule="evenodd" d="M11.084 18.6702H13.3291C15.4508 18.6702 17.4857 17.8274 18.986 16.3271C20.4862 14.8268 21.3291 12.792 21.3291 10.6702V10.0156C21.3291 7.89392 20.4862 5.85903 18.986 4.35882C17.4857 2.85852 15.4508 2.01562 13.3291 2.01562H10.7979C8.67615 2.01562 6.64125 2.85852 5.14095 4.35882C3.64075 5.85903 2.79785 7.89392 2.79785 10.0156C2.79785 10.2337 2.79785 10.4522 2.79785 10.6702C2.79785 12.792 3.64075 14.8268 5.14095 16.3271L5.16525 16.3511V19.9327C5.16515 20.6838 5.61295 21.3625 6.30345 21.6581C6.99395 21.9537 7.79425 21.8091 8.33765 21.2906L11.084 18.6702ZM13.3291 16.6702C13.3291 16.6702 13.3282 16.6693 10.7133 16.6669C10.2856 16.6669 10.0526 16.8905 9.99595 16.944C9.28945 17.6107 7.16525 19.6449 7.16525 19.6449V15.9158C7.16525 15.6253 7.03885 15.3491 6.81895 15.1591C6.72785 15.0804 6.64035 14.9981 6.55525 14.9129C5.42995 13.7877 4.79785 12.2615 4.79785 10.6702C4.79785 10.4522 4.79785 10.2337 4.79785 10.0156C4.79785 8.42432 5.42995 6.89822 6.55525 5.77303C7.68045 4.64773 9.20655 4.01562 10.7979 4.01562H13.3291C14.9204 4.01562 16.4465 4.64773 17.5717 5.77303C18.697 6.89822 19.3291 8.42432 19.3291 10.0156V10.6702C19.3291 12.2615 18.697 13.7877 17.5717 14.9129C16.4465 16.0381 14.9204 16.6702 13.3291 16.6702Z" fill="black"/>
</svg>
