<svg width="24" height="24" viewBox="0 0 24 24" fill="none" xmlns="http://www.w3.org/2000/svg">
<path fill-rule="evenodd" clip-rule="evenodd" d="M9.88 4.99915L8.4 2.51915C8.12 2.03915 8.27 1.42915 8.74 1.14915C9.22 0.859149 9.83 1.01915 10.12 1.48915L11.96 4.58915L13.81 1.48915C14.1 1.01915 14.71 0.859149 15.18 1.14915C15.66 1.42915 15.81 2.03915 15.53 2.51915L14.05 4.99915H18C19.33 4.99915 20.6 5.52915 21.54 6.45915C22.47 7.39915 23 8.66915 23 9.99915C23 12.1691 23 14.8291 23 16.9991C23 18.3291 22.47 19.5991 21.54 20.5391C20.82 21.2491 19.92 21.7191 18.94 21.9091C18.76 22.5391 18.19 22.9991 17.5 22.9991C16.85 22.9991 16.29 22.5791 16.09 21.9991H7.91C7.71 22.5791 7.15 22.9991 6.5 22.9991C5.81 22.9991 5.24 22.5391 5.06 21.9091C4.08 21.7191 3.18 21.2491 2.46 20.5391C1.53 19.5991 1 18.3291 1 16.9991C1 14.8291 1 12.1691 1 9.99915C1 8.66915 1.53 7.39915 2.46 6.45915C3.4 5.52915 4.67 4.99915 6 4.99915H9.88ZM15.3 19.9991L15.29 19.9291C15.02 18.7391 13.97 17.8991 12.75 17.8991H7.45C6.28 17.8991 5.25 18.6791 4.94 19.8091C5.28 19.9291 5.64 19.9991 6 19.9991H15.3ZM18 6.99915H6C5.2 6.99915 4.44 7.31915 3.88 7.87915C3.32 8.43915 3 9.19915 3 9.99915C3 12.1691 3 14.8291 3 16.9991C3 17.5791 3.17 18.1391 3.47 18.6191C4.19 17.0991 5.72 16.0991 7.45 16.0991C9.07 16.0991 11.12 16.0991 12.75 16.0991C14.81 16.0991 16.6 17.5291 17.04 19.5391L17.15 19.9991H18C18.8 19.9991 19.56 19.6791 20.12 19.1191C20.68 18.5591 21 17.7991 21 16.9991C21 14.8291 21 12.1691 21 9.99915C21 9.19915 20.68 8.43915 20.12 7.87915C19.56 7.31915 18.8 6.99915 18 6.99915ZM10.04 8.21915C8.15 8.21915 6.61 9.73915 6.61 11.6191C6.61 13.4891 8.15 15.0191 10.04 15.0191C11.93 15.0191 13.46 13.4891 13.46 11.6191C13.46 9.73915 11.93 8.21915 10.04 8.21915ZM10.04 10.0191C10.93 10.0191 11.66 10.7291 11.66 11.6191C11.66 12.4991 10.93 13.2191 10.04 13.2191C9.14 13.2191 8.41 12.4991 8.41 11.6191C8.41 10.7291 9.14 10.0191 10.04 10.0191ZM17.54 8.77915C18.49 8.77915 19.26 9.54915 19.26 10.4991C19.26 11.4491 18.49 12.2191 17.54 12.2191C16.59 12.2191 15.82 11.4491 15.82 10.4991C15.82 9.54915 16.59 8.77915 17.54 8.77915Z" fill="black"/>
</svg>
