<svg width="24" height="24" viewBox="0 0 24 24" fill="none" xmlns="http://www.w3.org/2000/svg">
<path fill-rule="evenodd" clip-rule="evenodd" d="M3.45044 6.84977L5.01504 8.41437C4.87194 8.93127 4.79764 9.46927 4.79764 10.0149C4.79764 10.233 4.79764 10.4515 4.79764 10.6695C4.79764 12.2608 5.42974 13.787 6.55504 14.9122C6.64014 14.9974 6.72764 15.0797 6.81874 15.1584C7.03864 15.3484 7.16504 15.6246 7.16504 15.9151V19.6442C7.16504 19.6442 9.28924 17.61 9.99574 16.9433C10.0523 16.8898 10.2853 16.6662 10.713 16.6662C12.5902 16.6679 13.1203 16.6689 13.2699 16.6693L15.0768 18.4762C14.5076 18.6037 13.9216 18.6695 13.3288 18.6695H11.0837L8.33744 21.2899C7.79404 21.8084 6.99374 21.953 6.30324 21.6574C5.61274 21.3618 5.16494 20.6831 5.16504 19.932V16.3504L5.14074 16.3264C3.64054 14.8261 2.79764 12.7913 2.79764 10.6695C2.79764 10.4515 2.79764 10.233 2.79764 10.0149C2.79764 8.91577 3.02384 7.84007 3.45044 6.84977ZM18.9214 16.3898L22.1323 19.6007C22.5616 20.0299 22.5616 20.727 22.1323 21.1563C21.703 21.5856 21.0059 21.5856 20.5766 21.1563L1.76094 2.34047C1.33164 1.91117 1.33164 1.21417 1.76094 0.784866C2.19024 0.355566 2.88724 0.355566 3.31654 0.784866L6.08324 3.55157C7.44374 2.55917 9.09264 2.01487 10.7976 2.01487H13.3288C15.4505 2.01487 17.4854 2.85777 18.9857 4.35807C20.4859 5.85827 21.3288 7.89317 21.3288 10.0149V10.6695C21.3288 12.7913 20.4859 14.8261 18.9857 16.3264C18.9643 16.3477 18.9429 16.3689 18.9214 16.3898ZM17.5071 14.9755L7.52054 4.98887C8.48804 4.35807 9.62514 4.01487 10.7976 4.01487H13.3288C14.9201 4.01487 16.4462 4.64697 17.5714 5.77227C18.6967 6.89747 19.3288 8.42357 19.3288 10.0149V10.6695C19.3288 12.2608 18.6967 13.787 17.5714 14.9122C17.5501 14.9335 17.5287 14.9546 17.5071 14.9755Z" fill="black"/>
</svg>
