<svg width="16" height="16" viewBox="0 0 16 16" fill="none" xmlns="http://www.w3.org/2000/svg">
<path d="M11.6134 1.37695C11.9209 1.37722 12.2167 1.48679 12.4484 1.68262L12.5441 1.77246L12.6359 1.87793C12.7909 2.07794 12.8821 2.31937 12.8966 2.57129L12.8976 2.68164V2.69531L12.8986 2.71094C12.8917 2.89183 12.883 3.0734 12.8751 3.25488C13.3572 3.24077 13.8051 3.31835 14.2043 3.4873C15.0979 3.8659 15.6499 4.66369 15.7062 5.59668C15.8102 7.32657 14.2996 9.08345 11.3703 9.89941C10.7585 10.5194 9.919 10.9937 9.00113 11.1914V13.8818H10.7501C11.1642 13.882 11.5001 14.2177 11.5001 14.6318C11.5001 15.0459 11.1642 15.3817 10.7501 15.3818H5.35074C4.93656 15.3818 4.6008 15.046 4.60074 14.6318C4.60074 14.2176 4.93652 13.8818 5.35074 13.8818H7.00113V11.1562C6.15251 10.9402 5.40131 10.4836 4.83902 9.89746C1.9144 9.08063 0.405962 7.32517 0.509916 5.59668C0.566263 4.66369 1.11818 3.8659 2.01187 3.4873C2.38202 3.33058 2.79411 3.25238 3.23648 3.25293C3.22651 3.07155 3.21639 2.89002 3.20816 2.70898L3.20718 2.69824L3.20523 2.69043V2.68457C3.19512 2.35098 3.31995 2.02416 3.55386 1.7793L3.55777 1.77637C3.79983 1.52653 4.13588 1.38196 4.48745 1.38184L11.6134 1.37695ZM13.6193 4.86816C13.4187 4.78336 13.1434 4.73371 12.7941 4.76172C12.7645 5.21165 12.7316 5.65014 12.6896 6.06543C12.621 6.74357 12.5308 7.37494 12.4113 7.90527C13.8369 7.17236 14.2415 6.22299 14.2091 5.68652C14.187 5.32168 13.988 5.02438 13.6193 4.86816ZM3.34097 4.75684C3.02989 4.74229 2.78159 4.78999 2.59683 4.86816C2.22807 5.02438 2.02907 5.32167 2.00699 5.68652C1.97479 6.22061 2.37595 7.16392 3.78628 7.89551C3.66273 7.3828 3.56047 6.76062 3.47671 6.08594C3.4244 5.6645 3.38033 5.21743 3.34097 4.75684Z" fill="black"/>
</svg>
