<svg width="16" height="16" viewBox="0 0 16 16" fill="none" xmlns="http://www.w3.org/2000/svg">
<path fill-rule="evenodd" clip-rule="evenodd" d="M3.102 3.116C1.9827 2.931 0.765822 3.344 0.240033 4.604C-0.46799 6.302 0.281857 8.534 3.95342 9.618C3.99823 9.631 4.04404 9.64 4.08885 9.645C4.75007 10.654 5.88231 11.471 7.20674 11.712V13.736H5.37145C4.9313 13.736 4.5748 14.094 4.5748 14.536C4.5748 14.977 4.9313 15.336 5.37145 15.336H10.6821C11.1213 15.336 11.4788 14.977 11.4788 14.536C11.4788 14.094 11.1213 13.736 10.6821 13.736H8.80004V11.711C10.1434 11.464 11.3334 10.617 11.9936 9.602C12.0275 9.597 12.0623 9.589 12.0972 9.579C15.7369 8.48 16.4698 6.275 15.7528 4.598C15.221 3.355 14.0002 2.936 12.8679 3.112C12.7644 2.779 12.5841 2.47 12.3392 2.212C11.907 1.757 11.3075 1.5 10.6821 1.5C9.15156 1.5 6.8114 1.5 5.28183 1.504C4.65845 1.504 4.05997 1.762 3.62878 2.216C3.38381 2.474 3.20457 2.783 3.102 3.116ZM10.6821 3.1C10.8723 3.1 11.0546 3.178 11.186 3.317C11.3174 3.455 11.3872 3.641 11.3782 3.832C11.3782 3.835 11.3782 3.837 11.3782 3.84C11.3125 5.606 11.195 7.426 10.8693 8.316C10.5049 9.313 9.29695 10.185 8.00538 10.185C6.6919 10.185 5.55568 9.307 5.1713 8.284C4.85861 7.452 4.6714 5.619 4.59173 3.837V3.834C4.58277 3.644 4.65148 3.458 4.78193 3.32C4.91338 3.182 5.09462 3.104 5.28382 3.104H5.28581C6.81439 3.1 9.15355 3.1 10.6821 3.1ZM3.04723 4.74C2.54434 4.581 1.94785 4.653 1.70985 5.223C1.33642 6.118 1.85425 7.041 3.39178 7.718C3.23743 6.89 3.11893 5.831 3.04723 4.74ZM12.6508 7.674C14.1545 7.002 14.6634 6.106 14.288 5.229C14.047 4.665 13.4465 4.586 12.9337 4.729C12.8779 5.799 12.7883 6.84 12.6508 7.674Z" fill="black"/>
</svg>
