<svg width="16" height="16" viewBox="0 0 16 16" fill="none" xmlns="http://www.w3.org/2000/svg">
<path fill-rule="evenodd" clip-rule="evenodd" d="M10.4842 2.23186L11.7812 0.934859C12.2152 0.500859 12.8042 0.255859 13.4192 0.255859C14.0332 0.255859 14.6222 0.500859 15.0572 0.934859C15.0592 0.937859 15.0622 0.940859 15.0652 0.942859C15.4992 1.37786 15.7442 1.96686 15.7442 2.58086C15.7442 3.19586 15.4992 3.78486 15.0652 4.21886L13.7682 5.51586C13.7902 5.67386 13.8002 5.83586 13.8002 5.99986C13.8002 7.55386 13.8002 9.44586 13.8002 10.9999C13.8002 13.0989 12.0992 14.7999 10.0002 14.7999H5.0002C2.9012 14.7999 1.2002 13.0989 1.2002 10.9999V5.99986C1.2002 3.90086 2.9012 2.19986 5.0002 2.19986H10.0002C10.1642 2.19986 10.3262 2.20986 10.4842 2.23186ZM8.9162 3.79986H5.0002C3.7852 3.79986 2.8002 4.78486 2.8002 5.99986V10.9999C2.8002 12.2149 3.7852 13.1999 5.0002 13.1999H10.0002C11.2152 13.1999 12.2002 12.2149 12.2002 10.9999V7.08386L8.9432 10.3409C8.8242 10.4599 8.6702 10.5389 8.5042 10.5659L5.9402 10.9769C5.6862 11.0179 5.4292 10.9339 5.2472 10.7529C5.0662 10.5709 4.9822 10.3139 5.0232 10.0599L5.4342 7.49586C5.4612 7.32986 5.5402 7.17586 5.6592 7.05686L8.9162 3.79986ZM11.4402 3.53886L12.4612 4.55986L7.9952 9.02686L6.7782 9.22186L6.9732 8.00486L11.4402 3.53886ZM13.4512 3.56986L12.4302 2.54886L12.9122 2.06586C13.0462 1.93186 13.2292 1.85586 13.4192 1.85586C13.6092 1.85586 13.7912 1.93186 13.9252 2.06586L13.9342 2.07486C14.0682 2.20886 14.1442 2.39086 14.1442 2.58086C14.1442 2.77086 14.0682 2.95386 13.9342 3.08786L13.4512 3.56986Z" fill="black"/>
</svg>
