<svg width="24" height="24" viewBox="0 0 24 24" fill="none" xmlns="http://www.w3.org/2000/svg">
<path fill-rule="evenodd" clip-rule="evenodd" d="M17.0346 1.98047C17.4766 1.98073 17.9018 2.13837 18.2348 2.41992L18.3715 2.54785L18.5043 2.69922C18.727 2.98653 18.8574 3.33344 18.8784 3.69531L18.8793 3.85352V3.87402L18.8813 3.89648C18.8769 4.01125 18.8712 4.12618 18.8666 4.24121C19.8291 4.12833 20.71 4.22562 21.4682 4.52051C22.8084 5.04198 23.6962 6.16872 23.7875 7.55664C23.8766 8.91364 23.1951 10.296 21.9047 11.4199C20.8002 12.3817 19.2144 13.1931 17.1176 13.7344C16.1915 14.9046 14.7212 15.8188 13.0961 16.1191V19.9424H15.7963C16.3909 19.9427 16.8733 20.4249 16.8735 21.0195C16.8735 21.6143 16.3911 22.0964 15.7963 22.0967H8.03949C7.44449 22.0967 6.96235 21.6145 6.96235 21.0195C6.96256 20.4247 7.44462 19.9424 8.03949 19.9424H10.5961V16.0732C9.07289 15.7338 7.75246 14.8529 6.88422 13.7354C4.7869 13.1941 3.20084 12.3819 2.09613 11.4199C0.805723 10.296 0.124238 8.91365 0.213322 7.55664C0.304699 6.16872 1.1925 5.04198 2.53266 4.52051C3.24968 4.24166 4.07633 4.13951 4.97797 4.22461C4.97251 4.11419 4.96638 4.00379 4.96137 3.89355L4.95942 3.87793L4.95844 3.86621V3.8584C4.94393 3.37929 5.12255 2.91031 5.45844 2.55859L5.46332 2.55371C5.81121 2.19456 6.29488 1.9873 6.80024 1.9873L17.0346 1.98047ZM20.687 6.5293C20.2398 6.3554 19.5933 6.27898 18.7592 6.43555C18.7116 7.22461 18.6544 7.99378 18.5815 8.71484C18.4934 9.58596 18.3801 10.4033 18.2348 11.1113C19.2184 10.7154 19.9582 10.2577 20.4897 9.79492C21.4249 8.98035 21.6713 8.20555 21.6381 7.69824C21.6067 7.22199 21.321 6.77602 20.687 6.5293ZM5.11567 6.41406C4.34223 6.28766 3.73833 6.36425 3.31391 6.5293C2.67983 6.77602 2.39415 7.22199 2.36274 7.69824C2.32952 8.20555 2.576 8.98035 3.51117 9.79492C4.03727 10.253 4.76697 10.7074 5.73578 11.1006C5.58337 10.414 5.45544 9.60895 5.34809 8.74414C5.2571 8.01107 5.17949 7.22437 5.11567 6.41406Z" fill="black"/>
</svg>
