<svg width="24" height="24" viewBox="0 0 24 24" fill="none" xmlns="http://www.w3.org/2000/svg">
<path fill-rule="evenodd" clip-rule="evenodd" d="M5.08976 3.98047C3.45976 3.63047 1.61976 4.16047 0.849759 5.97047C-0.170241 8.34047 0.92976 11.4505 6.16976 12.9605C6.27976 12.9905 6.38976 13.0005 6.48976 13.0005C7.49976 14.4705 9.14976 15.6305 11.0498 15.9405C11.0498 15.9605 11.0498 15.9805 11.0498 16.0005V20.0005H8.04976C7.48976 20.0005 7.04976 20.4505 7.04976 21.0005C7.04976 21.5505 7.48976 22.0005 8.04976 22.0005H16.0498C16.5998 22.0005 17.0498 21.5505 17.0498 21.0005C17.0498 20.4505 16.5998 20.0005 16.0498 20.0005H13.0498V16.0005C13.0498 15.9805 13.0498 15.9605 13.0398 15.9405C14.9598 15.6205 16.6798 14.4205 17.6898 12.9405C17.8198 12.9505 17.9598 12.9405 18.0998 12.9005C23.1698 11.3705 24.2298 8.32047 23.2298 5.97047C22.4598 4.16047 20.6298 3.63047 18.9998 3.98047C18.8998 3.51047 18.6698 3.08047 18.3298 2.73047C17.8598 2.25047 17.2198 1.98047 16.5498 1.98047C14.2298 1.98047 9.83976 1.98047 7.52976 1.98047C6.85976 1.98047 6.21976 2.25047 5.74976 2.73047C5.40976 3.07047 5.17976 3.51047 5.08976 3.98047ZM16.5498 3.98047C16.6798 3.98047 16.8098 4.03047 16.9098 4.13047C16.9998 4.22047 17.0498 4.35047 17.0498 4.49047C17.0498 4.49047 17.0498 4.49047 17.0498 4.50047C17.0198 7.19047 17.0098 9.43047 16.4698 10.9605C15.9098 12.5805 14.0398 14.0205 12.0398 14.0205C9.99976 14.0205 8.23976 12.5705 7.64976 10.9105C7.13976 9.48047 7.05976 7.21047 7.03976 4.49047C7.02976 4.35047 7.07976 4.22047 7.17976 4.13047C7.26976 4.03047 7.39976 3.98047 7.52976 3.98047C9.83976 3.98047 14.2298 3.98047 16.5498 3.98047ZM5.05976 6.06047C4.21976 5.71047 3.09976 5.77047 2.68976 6.76047C2.08976 8.14047 2.93976 9.60047 5.48976 10.6205C5.22976 9.40047 5.10976 7.85047 5.05976 6.06047ZM18.6398 10.5905C21.1498 9.57047 21.9698 8.13047 21.3898 6.76047C20.9698 5.78047 19.8598 5.72047 19.0198 6.05047C18.9798 7.81047 18.8998 9.35047 18.6398 10.5905Z" fill="black"/>
</svg>
