<svg width="24" height="24" viewBox="0 0 24 24" fill="none" xmlns="http://www.w3.org/2000/svg">
<path fill-rule="evenodd" clip-rule="evenodd" d="M11 18V20H8C7.4481 20 7 20.4481 7 21C7 21.5519 7.4481 22 8 22H16C16.5519 22 17 21.5519 17 21C17 20.4481 16.5519 20 16 20H13V18H18C20.2092 18 22 16.2091 22 14V7C22 4.7909 20.2092 3 18 3H6C3.7908 3 2 4.7909 2 7C2 9.1015 2 11.8985 2 14C2 16.2091 3.7908 18 6 18H11ZM5.9999 5H18C19.1046 5 20 5.8955 20 7V14C20 15.1045 19.1046 16 18.0001 16H6C4.8954 16 4 15.1045 4 14V7C4 5.8955 4.8954 5 5.9999 5ZM11.5738 6.7906C11.27 6.5645 10.8644 6.5294 10.5262 6.7001C10.1881 6.8708 9.9754 7.2179 9.9768 7.5967C9.9834 9.3101 9.9928 11.7635 9.9994 13.4663C10.0008 13.8425 10.2132 14.186 10.549 14.3554C10.8849 14.5248 11.2873 14.4914 11.5907 14.269C12.8137 13.3722 14.4741 12.1547 15.5523 11.3642C15.8082 11.1766 15.9599 10.8786 15.961 10.5613C15.9621 10.244 15.8126 9.945 15.558 9.7555C14.4775 8.9515 12.8072 7.7085 11.5738 6.7906Z" fill="black"/>
</svg>
