<svg width="16" height="16" viewBox="0 0 16 16" fill="none" xmlns="http://www.w3.org/2000/svg">
<path fill-rule="evenodd" clip-rule="evenodd" d="M0.978027 9.99922C0.978027 11.0072 1.37803 11.9732 2.09103 12.6862C2.80403 13.3992 3.77003 13.7992 4.77803 13.7992C6.73103 13.7992 9.26903 13.7992 11.222 13.7992C12.23 13.7992 13.196 13.3992 13.909 12.6862C14.622 11.9732 15.022 11.0072 15.022 9.99922C15.022 8.44522 15.022 6.55322 15.022 4.99922C15.022 3.99122 14.622 3.02522 13.909 2.31222C13.196 1.59922 12.23 1.19922 11.222 1.19922C9.26903 1.19922 6.73103 1.19922 4.77803 1.19922C3.77003 1.19922 2.80403 1.59922 2.09103 2.31222C1.37803 3.02522 0.978027 3.99122 0.978027 4.99922C0.978027 6.55322 0.978027 8.44522 0.978027 9.99922ZM2.57803 9.99922C2.57803 8.44522 2.57803 6.55322 2.57803 4.99922C2.57803 4.41622 2.81003 3.85622 3.22203 3.44322C3.63503 3.03122 4.19403 2.79922 4.77803 2.79922H11.222C11.806 2.79922 12.365 3.03122 12.778 3.44322C13.19 3.85622 13.422 4.41622 13.422 4.99922C13.422 6.55322 13.422 8.44522 13.422 9.99922C13.422 10.5822 13.19 11.1422 12.778 11.5552C12.365 11.9672 11.806 12.1992 11.222 12.1992H4.77803C4.19403 12.1992 3.63503 11.9672 3.22203 11.5552C2.81003 11.1422 2.57803 10.5822 2.57803 9.99922ZM10.654 8.19922H5.38903C4.94703 8.19922 4.58903 8.55722 4.58903 8.99922C4.58903 9.44122 4.94703 9.79922 5.38903 9.79922H10.654C11.095 9.79922 11.454 9.44122 11.454 8.99922C11.454 8.55722 11.095 8.19922 10.654 8.19922ZM10.654 5.19922H5.38903C4.94703 5.19922 4.58903 5.55722 4.58903 5.99922C4.58903 6.44122 4.94703 6.79922 5.38903 6.79922H10.654C11.095 6.79922 11.454 6.44122 11.454 5.99922C11.454 5.55722 11.095 5.19922 10.654 5.19922Z" fill="black"/>
</svg>
