<svg width="24" height="24" viewBox="0 0 24 24" fill="none" xmlns="http://www.w3.org/2000/svg">
<path d="M7 7V6C7 3.791 8.79 2 11 2H17C19.21 2 21 3.791 21 6V14C21 16.209 19.21 18 17 18H16V16H17C18.1 16 19 15.105 19 14V6C19 4.895 18.1 4 17 4H11C9.9 4 9 4.895 9 6V7H7Z" fill="black"/>
<path fill-rule="evenodd" clip-rule="evenodd" d="M7 7V6C4.79 6 3 7.791 3 10V18C3 20.209 4.79 22 7 22H13C15.21 22 17 20.209 17 18H16V16H17V10C17 7.791 15.21 6 13 6H9V7H7ZM15 10C15 8.895 14.1 8 13 8H7C5.9 8 5 8.895 5 10V18C5 19.105 5.9 20 7 20H13C14.1 20 15 19.105 15 18V10Z" fill="black"/>
</svg>
