<svg width="16" height="16" viewBox="0 0 16 16" fill="none" xmlns="http://www.w3.org/2000/svg">
<path fill-rule="evenodd" clip-rule="evenodd" d="M4.71601 4.21322C4.78101 3.44322 5.11701 2.71722 5.66801 2.16622C6.28701 1.54722 7.12601 1.19922 8.00201 1.19922C8.96001 1.19922 10.053 1.19922 11.012 1.19922C11.887 1.19922 12.726 1.54722 13.345 2.16622C13.964 2.78422 14.312 3.62422 14.312 4.49922C14.312 5.74422 14.312 7.24622 14.312 8.49122C14.312 9.36622 13.964 10.2062 13.345 10.8242C12.792 11.3772 12.064 11.7142 11.291 11.7772C11.226 12.5482 10.89 13.2732 10.339 13.8242C9.72001 14.4432 8.88001 14.7912 8.00501 14.7912C7.05101 14.7912 5.96301 14.7912 5.00801 14.7912C4.13301 14.7912 3.29401 14.4432 2.67501 13.8242C2.05601 13.2062 1.70801 12.3662 1.70801 11.4912C1.70801 10.2462 1.70801 8.74422 1.70801 7.49922C1.70801 6.62422 2.05601 5.78422 2.67501 5.16622C3.22401 4.61622 3.94801 4.28022 4.71601 4.21322ZM5.00801 5.79922H8.00501C8.45601 5.79922 8.88801 5.97822 9.20701 6.29722C9.52601 6.61622 9.70501 7.04822 9.70501 7.49922V11.4912C9.70501 11.9422 9.52601 12.3742 9.20701 12.6932C8.88801 13.0122 8.45601 13.1912 8.00501 13.1912H5.00801C4.55701 13.1912 4.12501 13.0122 3.80601 12.6932C3.48701 12.3742 3.30801 11.9422 3.30801 11.4912V7.49922C3.30801 7.04822 3.48701 6.61622 3.80601 6.29722C4.12501 5.97822 4.55701 5.79922 5.00801 5.79922ZM11.305 10.1642C11.647 10.1052 11.965 9.94222 12.214 9.69322C12.533 9.37422 12.712 8.94222 12.712 8.49122V4.49922C12.712 4.04822 12.533 3.61622 12.214 3.29722C11.895 2.97822 11.462 2.79922 11.012 2.79922C10.053 2.79922 8.96001 2.79922 8.00201 2.79922C7.55101 2.79922 7.11801 2.97822 6.80001 3.29722C6.55201 3.54422 6.38901 3.85922 6.33001 4.19922H8.00501C8.88001 4.19922 9.72001 4.54722 10.339 5.16622C10.957 5.78422 11.305 6.62422 11.305 7.49922V10.1642Z" fill="black"/>
</svg>
