<svg width="16" height="16" viewBox="0 0 16 16" fill="none" xmlns="http://www.w3.org/2000/svg">
<path fill-rule="evenodd" clip-rule="evenodd" d="M11.2002 3.2002H6.0002C4.4542 3.2002 3.2002 4.4542 3.2002 6.0002V11.2002H1.3332C0.892203 11.2002 0.533203 11.5582 0.533203 12.0002C0.533203 12.4422 0.892203 12.8002 1.3332 12.8002H3.2002V14.6672C3.2002 15.1082 3.5582 15.4672 4.0002 15.4672C4.4422 15.4672 4.8002 15.1082 4.8002 14.6672V12.8002H10.0002C11.5462 12.8002 12.8002 11.5462 12.8002 10.0002V4.8002H14.6672C15.1082 4.8002 15.4672 4.4422 15.4672 4.0002C15.4672 3.5582 15.1082 3.2002 14.6672 3.2002H12.8002V1.3332C12.8002 0.892203 12.4422 0.533203 12.0002 0.533203C11.5582 0.533203 11.2002 0.892203 11.2002 1.3332V3.2002ZM11.2002 4.8002H6.0002C5.3372 4.8002 4.8002 5.3372 4.8002 6.0002V11.2002H10.0002C10.6632 11.2002 11.2002 10.6632 11.2002 10.0002V4.8002Z" fill="black"/>
</svg>
