<svg width="16" height="16" viewBox="0 0 16 16" fill="none" xmlns="http://www.w3.org/2000/svg">
<path fill-rule="evenodd" clip-rule="evenodd" d="M12.9746 0.606445C14.2348 0.688517 15.2322 1.73378 15.2324 3.01465C15.2324 4.34918 14.1499 5.43153 12.8154 5.43164C12.5874 5.43163 12.3674 5.39694 12.1582 5.33789V5.34277C11.7946 5.19081 11.6231 4.94492 11.623 4.61621C11.6232 4.17731 11.9324 3.93679 12.1787 3.93652C12.5722 3.93645 12.8916 3.6171 12.8916 3.22363C12.8914 2.83028 12.5721 2.51081 12.1787 2.51074C11.0238 2.51098 10.1974 3.51761 10.1973 4.61621C10.1973 5.78765 11.009 6.48054 11.8594 6.75098C11.9534 6.78086 12.0567 6.8 12.1582 6.81445V13.1641H13.4229C14.0165 13.1643 14.498 13.6456 14.498 14.2393C14.4979 14.8328 14.0164 15.3142 13.4229 15.3145H2.5752C1.98144 15.3145 1.50013 14.833 1.5 14.2393C1.5 13.6454 1.98136 13.1641 2.5752 13.1641H3.83984V6.81445C3.94198 6.79999 4.04601 6.78106 4.14062 6.75098C4.991 6.48052 5.8027 5.78761 5.80273 4.61621C5.80258 3.51764 4.97617 2.51104 3.82129 2.51074C3.42785 2.51074 3.10856 2.83023 3.1084 3.22363C3.10844 3.61714 3.42777 3.93652 3.82129 3.93652C4.06754 3.93686 4.37681 4.17737 4.37695 4.61621C4.37693 4.9454 4.20458 5.19087 3.83984 5.34277V5.33887C3.63078 5.39787 3.41055 5.43162 3.18262 5.43164C1.84802 5.43164 0.766602 4.34924 0.766602 3.01465C0.766807 1.72552 1.77616 0.675474 3.04785 0.605469V0.598633H12.9746V0.606445ZM5.76074 13.1641H7.10254V7.27637H5.76074V13.1641ZM8.89551 13.1641H10.2373V7.27637H8.89551V13.1641Z" fill="black"/>
</svg>
