<svg width="24" height="24" viewBox="0 0 24 24" fill="none" xmlns="http://www.w3.org/2000/svg">
<path fill-rule="evenodd" clip-rule="evenodd" d="M18.6143 2.09277C20.2899 2.20183 21.6151 3.59566 21.6152 5.29883C21.6151 7.07312 20.1767 8.51172 18.4023 8.51172C18.0994 8.51168 17.8062 8.46808 17.5283 8.38965V8.41016C17.0371 8.20638 16.8018 7.8744 16.8018 7.42773C16.802 6.8365 17.2198 6.50792 17.5576 6.50781C18.0717 6.50758 18.4882 6.09028 18.4883 5.57617C18.4881 5.06217 18.0716 4.64476 17.5576 4.64453C16.0321 4.64463 14.9387 5.9744 14.9385 7.42773C14.9386 8.97589 16.0107 9.89177 17.1367 10.25C17.2597 10.2891 17.3951 10.3129 17.5283 10.332V19.0674H19.2109C19.9868 19.0676 20.6162 19.6967 20.6162 20.4727C20.616 21.2484 19.9867 21.8777 19.2109 21.8779H4.78809C4.01209 21.8779 3.38301 21.2486 3.38281 20.4727C3.38281 19.6965 4.01196 19.0674 4.78809 19.0674H6.46875V10.333C6.60364 10.3139 6.74077 10.2896 6.86523 10.25C7.99115 9.89169 9.06337 8.97573 9.06348 7.42773C9.06326 5.97447 7.96971 4.64476 6.44434 4.64453C5.93036 4.64479 5.5139 5.06219 5.51367 5.57617C5.51378 6.09026 5.93028 6.50755 6.44434 6.50781C6.78206 6.50806 7.2 6.83663 7.2002 7.42773C7.20012 7.87572 6.96301 8.2075 6.46875 8.41113V8.38965C6.19095 8.46798 5.89759 8.51172 5.59473 8.51172C3.82075 8.51129 2.38201 7.07286 2.38184 5.29883C2.38195 3.58472 3.72514 2.18393 5.41602 2.09082V2.08594H18.6143V2.09277ZM9.03809 19.0674H10.792V10.9658H9.03809V19.0674ZM13.207 19.0674H14.9609V10.9658H13.207V19.0674Z" fill="black"/>
</svg>
