<svg width="16" height="16" viewBox="0 0 16 16" fill="none" xmlns="http://www.w3.org/2000/svg">
<path d="M12.7295 13.7559C13.1713 13.7559 13.5293 14.1138 13.5293 14.5557C13.5291 14.9973 13.1712 15.3555 12.7295 15.3555H3.27051C2.8288 15.3555 2.4709 14.9973 2.4707 14.5557C2.4707 14.1138 2.82868 13.7559 3.27051 13.7559H12.7295Z" fill="black"/>
<path d="M5.99121 12.7402H4.3916V5.54785H5.99121V12.7402Z" fill="black"/>
<path d="M8.7998 12.7402H7.2002V5.54785H8.7998V12.7402Z" fill="black"/>
<path d="M11.6094 12.7402H10.0098V5.54785H11.6094V12.7402Z" fill="black"/>
<path d="M13.2441 0.644531C13.2718 0.644548 13.2992 0.645679 13.3262 0.648438C14.5457 0.691902 15.5204 1.69179 15.5205 2.92188C15.5205 4.17973 14.501 5.19922 13.2432 5.19922C12.2844 5.1991 11.466 4.60707 11.1299 3.77148C10.9652 3.36169 11.1635 2.89537 11.5732 2.73047C11.9831 2.5657 12.4493 2.76506 12.6143 3.1748C12.7151 3.42504 12.9598 3.59949 13.2432 3.59961C13.6174 3.59961 13.9209 3.29607 13.9209 2.92188C13.9208 2.59444 13.6887 2.32087 13.3799 2.25781L13.2441 2.24414H2.75684L2.62012 2.25781C2.31122 2.32087 2.07922 2.59443 2.0791 2.92188C2.0791 3.29607 2.38264 3.59961 2.75684 3.59961C3.0424 3.59941 3.28947 3.42222 3.38867 3.16895C3.5498 2.75778 4.01351 2.55396 4.4248 2.71484C4.8359 2.87592 5.03862 3.34071 4.87793 3.75195C4.54674 4.59781 3.72286 5.19902 2.75684 5.19922C1.49899 5.19922 0.479492 4.17973 0.479492 2.92188C0.479622 1.69244 1.45329 0.692901 2.67188 0.648438C2.69961 0.645531 2.72833 0.644531 2.75684 0.644531H13.2441Z" fill="black"/>
</svg>
