<svg width="24" height="24" viewBox="0 0 24 24" fill="none" xmlns="http://www.w3.org/2000/svg">
<path d="M18.3838 19.7119C18.957 19.7121 19.4219 20.1768 19.4219 20.75C19.4218 21.3232 18.9569 21.7879 18.3838 21.7881H5.61719C5.04385 21.7881 4.57916 21.3233 4.5791 20.75C4.5791 20.1766 5.04382 19.7119 5.61719 19.7119H18.3838Z" fill="black"/>
<path d="M9.47461 18.4775H7.39844V8.4873H9.47461V18.4775Z" fill="black"/>
<path d="M13.0381 18.4775H10.9619V8.4873H13.0381V18.4775Z" fill="black"/>
<path d="M16.6016 18.4775H14.5254V8.4873H16.6016V18.4775Z" fill="black"/>
<path d="M19.2168 2.21484L19.2227 2.21582C19.2305 2.21648 19.2383 2.21694 19.2461 2.21777C20.9277 2.31608 22.2617 3.71075 22.2617 5.41699C22.2616 7.1867 20.8263 8.62181 19.0566 8.62207C17.7078 8.62195 16.5561 7.78813 16.083 6.6123C15.8691 6.08046 16.1265 5.47578 16.6582 5.26172C17.1899 5.04815 17.7947 5.30542 18.0088 5.83691C18.1764 6.25345 18.584 6.54481 19.0566 6.54492C19.6796 6.54466 20.1854 6.03996 20.1855 5.41699C20.1855 4.83279 19.7408 4.35193 19.1719 4.29395L19.0566 4.28809H4.94434L4.82812 4.29395C4.25918 4.35193 3.81543 4.83279 3.81543 5.41699C3.81558 6.04013 4.32116 6.54492 4.94434 6.54492C5.42048 6.5446 5.83106 6.24952 5.99609 5.82812C6.20509 5.29429 6.80693 5.03034 7.34082 5.23926C7.87429 5.44828 8.13817 6.05032 7.92969 6.58398C7.46375 7.77468 6.30374 8.62175 4.94434 8.62207C3.17442 8.62207 1.73843 7.18687 1.73828 5.41699C1.73828 3.7104 3.0728 2.31459 4.75488 2.2168C4.76166 2.21607 4.76857 2.21641 4.77539 2.21582C4.77833 2.21567 4.78124 2.21499 4.78418 2.21484C4.81124 2.21272 4.83861 2.21192 4.86621 2.21191H19.1338C19.1616 2.21191 19.1895 2.2127 19.2168 2.21484Z" fill="black"/>
</svg>
