<svg width="16" height="16" viewBox="0 0 16 16" fill="none" xmlns="http://www.w3.org/2000/svg">
<path fill-rule="evenodd" clip-rule="evenodd" d="M7.06272 6.54853L5.49772 8.95453C5.18872 8.83053 4.85172 8.76453 4.49972 8.76453C2.98872 8.76453 1.76172 9.99053 1.76172 11.5015C1.76172 13.0125 2.98872 14.2395 4.49972 14.2395C6.01072 14.2395 7.23772 13.0125 7.23772 11.5015C7.23772 10.9275 7.05972 10.3935 6.75672 9.95353L8.01672 8.01653L9.26872 9.94353C8.94772 10.3895 8.76072 10.9375 8.76072 11.5285C8.76072 13.0395 9.98672 14.2665 11.4987 14.2665C13.0097 14.2665 14.2357 13.0395 14.2357 11.5285C14.2357 10.0175 13.0097 8.79053 11.4987 8.79053C11.1617 8.79053 10.8387 8.85153 10.5417 8.96653L8.97172 6.54953L11.3927 2.82853C11.6337 2.45853 11.5287 1.96253 11.1587 1.72153C10.7887 1.48053 10.2927 1.58553 10.0517 1.95553L8.01772 5.08153L5.97972 1.94653C5.73972 1.57553 5.24372 1.47053 4.87372 1.71153C4.50272 1.95153 4.39772 2.44753 4.63872 2.81753L7.06272 6.54853ZM11.4987 10.3905C12.1257 10.3905 12.6357 10.9005 12.6357 11.5285C12.6357 12.1565 12.1257 12.6665 11.4987 12.6665C10.8707 12.6665 10.3607 12.1565 10.3607 11.5285C10.3607 10.9005 10.8707 10.3905 11.4987 10.3905ZM4.49972 10.3645C5.12772 10.3645 5.63772 10.8735 5.63772 11.5015C5.63772 12.1295 5.12772 12.6395 4.49972 12.6395C3.87172 12.6395 3.36172 12.1295 3.36172 11.5015C3.36172 10.8735 3.87172 10.3645 4.49972 10.3645Z" fill="black"/>
</svg>
