<svg width="24" height="24" viewBox="0 0 24 24" fill="none" xmlns="http://www.w3.org/2000/svg">
<path fill-rule="evenodd" clip-rule="evenodd" d="M10.9009 9.93815L8.55694 13.5402C8.10294 13.3442 7.60294 13.2372 7.07794 13.2372C5.00094 13.2372 3.31494 14.9232 3.31494 17.0002C3.31494 19.0772 5.00094 20.7632 7.07794 20.7632C9.15494 20.7632 10.8409 19.0772 10.8409 17.0002C10.8409 16.1762 10.5759 15.4142 10.1259 14.7952L12.0929 11.7722L14.0479 14.7802C13.5749 15.4092 13.2939 16.1912 13.2939 17.0382C13.2939 19.1152 14.9799 20.8012 17.0569 20.8012C19.1339 20.8012 20.8199 19.1152 20.8199 17.0382C20.8199 14.9612 19.1339 13.2752 17.0569 13.2752C16.5549 13.2752 16.0749 13.3742 15.6359 13.5552L13.2859 9.93815L16.7889 4.55515C17.0909 4.09315 16.9589 3.47315 16.4969 3.17215C16.0339 2.87115 15.4139 3.00215 15.1129 3.46515L12.0939 8.10415L9.07094 3.45115C8.76994 2.98815 8.14994 2.85715 7.68794 3.15715C7.22494 3.45815 7.09294 4.07815 7.39394 4.54115L10.9009 9.93815ZM17.0569 15.2752C18.0299 15.2752 18.8199 16.0652 18.8199 17.0382C18.8199 18.0112 18.0299 18.8012 17.0569 18.8012C16.0839 18.8012 15.2939 18.0112 15.2939 17.0382C15.2939 16.0652 16.0839 15.2752 17.0569 15.2752ZM7.07794 15.2372C8.05094 15.2372 8.84094 16.0272 8.84094 17.0002C8.84094 17.9732 8.05094 18.7632 7.07794 18.7632C6.10494 18.7632 5.31494 17.9732 5.31494 17.0002C5.31494 16.0272 6.10494 15.2372 7.07794 15.2372Z" fill="black"/>
</svg>
