<svg width="16" height="16" viewBox="0 0 16 16" fill="none" xmlns="http://www.w3.org/2000/svg">
<path fill-rule="evenodd" clip-rule="evenodd" d="M5.8595 15.2933L6.376 14.0528C6.5457 13.6452 6.3526 13.1765 5.945 13.0068C5.5374 12.8371 5.0687 13.0302 4.8989 13.4378L4.3824 14.6784C4.2127 15.086 4.4059 15.5547 4.8135 15.7244C5.2211 15.8941 5.6898 15.701 5.8595 15.2933ZM11.6441 14.6725L11.1321 13.4301C10.9639 13.0218 10.4959 12.827 10.0876 12.9952C9.6794 13.1634 9.4846 13.6314 9.6528 14.0397L10.1647 15.2821C10.333 15.6903 10.801 15.8851 11.2092 15.7169C11.6174 15.5487 11.8123 15.0807 11.6441 14.6725ZM8.0001 3.66659C5.6087 3.66659 3.6673 5.60809 3.6673 7.99939C3.6673 10.3908 5.6087 12.3323 8.0001 12.3323C10.3914 12.3323 12.3329 10.3908 12.3329 7.99939C12.3329 5.60809 10.3914 3.66659 8.0001 3.66659ZM1.9507 9.65589L0.719803 10.1684C0.312203 10.3381 0.119103 10.8068 0.288803 11.2144C0.458503 11.622 0.927203 11.8152 1.3348 11.6455L2.5657 11.133C2.9733 10.9633 3.1664 10.4946 2.9967 10.087C2.827 9.67939 2.3583 9.48619 1.9507 9.65589ZM15.2953 10.1432L14.0548 9.62669C13.6472 9.45699 13.1785 9.65009 13.0088 10.0577C12.839 10.4653 13.0322 10.934 13.4398 11.1038L14.6803 11.6202C15.0879 11.79 15.5566 11.5968 15.7264 11.1892C15.8961 10.7816 15.7029 10.3129 15.2953 10.1432ZM8.0001 5.26659C9.5084 5.26659 10.7329 6.49119 10.7329 7.99939C10.7329 9.50769 9.5084 10.7323 8.0001 10.7323C6.4918 10.7323 5.2673 9.50769 5.2673 7.99939C5.2673 6.49119 6.4918 5.26659 8.0001 5.26659ZM2.5525 4.89189L1.3198 4.38389C0.911603 4.21569 0.443603 4.41049 0.275303 4.81869C0.107103 5.22699 0.301903 5.69499 0.710203 5.86319L1.9429 6.37119C2.3511 6.53939 2.8191 6.34459 2.9874 5.93639C3.1556 5.52809 2.9607 5.06009 2.5525 4.89189ZM14.6744 4.35859L13.432 4.87059C13.0238 5.03879 12.829 5.50679 12.9972 5.91509C13.1654 6.32329 13.6334 6.51809 14.0416 6.34989L15.284 5.83799C15.6923 5.66969 15.8871 5.20169 15.7189 4.79349C15.5507 4.38529 15.0827 4.19039 14.6744 4.35859ZM6.3468 1.94869L5.8343 0.717893C5.6646 0.310293 5.1959 0.117093 4.7883 0.286793C4.3807 0.456493 4.1875 0.925193 4.3572 1.33279L4.8697 2.56369C5.0394 2.97129 5.5081 3.16449 5.9157 2.99479C6.3233 2.82509 6.5165 2.35639 6.3468 1.94869ZM11.1108 2.55049L11.6188 1.31779C11.787 0.909593 11.5922 0.441593 11.184 0.273393C10.7757 0.105093 10.3077 0.299993 10.1395 0.708193L9.6315 1.94089C9.4633 2.34919 9.6581 2.81719 10.0663 2.98539C10.4746 3.15359 10.9426 2.95879 11.1108 2.55049Z" fill="black"/>
</svg>
