<svg width="24" height="24" viewBox="0 0 24 24" fill="none" xmlns="http://www.w3.org/2000/svg">
<path d="M16.3734 4.40403C16.1316 4.99083 15.4588 5.27093 14.872 5.02913C14.2852 4.78723 14.0051 4.11453 14.2469 3.52773L14.9561 1.80673C15.1979 1.21993 15.8707 0.939835 16.4575 1.18163C17.0443 1.42343 17.3244 2.09623 17.0826 2.68303L16.3734 4.40403Z" fill="black"/>
<path fill-rule="evenodd" clip-rule="evenodd" d="M11.9999 6.06635C15.2739 6.06635 17.932 8.72444 17.932 11.9984C17.932 15.2724 15.2739 17.9305 11.9999 17.9305C8.72593 17.9305 6.06793 15.2724 6.06793 11.9984C6.06793 8.72444 8.72593 6.06635 11.9999 6.06635ZM8.06793 11.9984C8.06793 9.82825 9.82983 8.06635 11.9999 8.06635C14.1701 8.06635 15.932 9.82825 15.932 11.9984C15.932 14.1686 14.1701 15.9305 11.9999 15.9305C9.82983 15.9305 8.06793 14.1686 8.06793 11.9984Z" fill="black"/>
<path d="M21.3053 6.88494C21.8921 6.64314 22.5649 6.92324 22.8067 7.51014C23.0485 8.09694 22.7684 8.76964 22.1816 9.01154L20.4471 9.72624C19.8603 9.96804 19.1875 9.68794 18.9457 9.10114C18.7039 8.51434 18.984 7.84154 19.5708 7.59974L21.3053 6.88494Z" fill="black"/>
<path d="M9.72246 3.53843C9.96636 4.12443 9.68876 4.79823 9.10276 5.04213C8.51686 5.28613 7.84306 5.00843 7.59916 4.42253L6.88366 2.70413C6.63976 2.11813 6.91736 1.44443 7.50336 1.20043C8.08926 0.956532 8.76306 1.23413 9.00706 1.82013L9.72246 3.53843Z" fill="black"/>
<path d="M4.40745 7.62948C4.99425 7.87128 5.27435 8.54408 5.03255 9.13088C4.79065 9.71768 4.11795 9.99778 3.53105 9.75598L1.81015 9.04678C1.22335 8.80498 0.943253 8.13218 1.18505 7.54538C1.42685 6.95858 2.09965 6.67848 2.68645 6.92028L4.40745 7.62948Z" fill="black"/>
<path d="M3.54183 14.2804C4.12783 14.0365 4.80163 14.3141 5.04553 14.9001C5.28953 15.486 5.01183 16.1598 4.42583 16.4037L2.70753 17.1192C2.12153 17.3631 1.44773 17.0855 1.20383 16.4995C0.959831 15.9136 1.23753 15.2398 1.82353 14.9958L3.54183 14.2804Z" fill="black"/>
<path d="M9.04228 22.194C8.79828 22.7799 8.12458 23.0576 7.53858 22.8136C6.95268 22.5697 6.67498 21.8959 6.91898 21.3099L7.63998 19.5781C7.88398 18.9921 8.55778 18.7145 9.14368 18.9585C9.72968 19.2024 10.0073 19.8762 9.76338 20.4621L9.04228 22.194Z" fill="black"/>
<path d="M17.118 21.3019C17.3598 21.8887 17.0797 22.5615 16.4928 22.8033C15.906 23.0451 15.2333 22.765 14.9914 22.1782L14.2767 20.4437C14.0349 19.8569 14.315 19.1842 14.9018 18.9423C15.4887 18.7005 16.1614 18.9806 16.4032 19.5675L17.118 21.3019Z" fill="black"/>
<path d="M22.1974 14.9607C22.7833 15.2047 23.061 15.8784 22.817 16.4644C22.573 17.0503 21.8993 17.328 21.3133 17.084L19.5815 16.363C18.9955 16.119 18.7179 15.4452 18.9618 14.8593C19.2058 14.2733 19.8796 13.9957 20.4655 14.2396L22.1974 14.9607Z" fill="black"/>
</svg>
