<svg width="24" height="24" viewBox="0 0 24 24" fill="none" xmlns="http://www.w3.org/2000/svg">
<path fill-rule="evenodd" clip-rule="evenodd" d="M13.7598 18.187C13.7298 17.843 13.9298 16.147 13.9298 16.147C13.9298 16.147 14.3498 16.217 14.7498 16.262C15.1498 16.307 15.7998 16.342 15.7998 16.342C15.7998 16.342 15.4498 17.615 15.6498 17.905C16.1198 18.576 18.6698 20.234 19.2598 20.9C19.5598 21.196 19.8498 21.483 20.2198 21.741C20.4798 21.963 21.3098 21.989 21.5298 22.211C21.6798 22.371 21.8598 22.839 21.7698 22.923C21.7098 22.981 20.4398 23.009 20.2198 22.968C19.9798 22.968 19.6898 22.733 19.6898 22.733C19.6898 22.733 19.5098 22.923 19.2598 22.789C18.8198 22.568 18.8898 22.111 18.6298 21.741C18.4798 21.594 16.3398 20.167 14.9498 19.379C13.7598 18.702 13.8198 18.712 13.7598 18.187ZM5.2198 13.797C4.9598 13.566 4.0098 14.388 3.7398 14.328C3.4698 14.269 3.7398 13.59 3.4998 13.632C3.1698 13.688 3.0798 14.459 2.7898 14.519C2.3198 14.699 2.0498 13.984 2.0498 13.13C2.0498 12.276 2.3498 11.346 3.3698 10.751C4.3998 10.155 5.9098 10.003 7.0898 10.402C8.2098 9.79801 9.6698 8.04601 12.9498 7.96402C16.2198 7.88202 17.4398 9.53401 18.1398 9.13801C18.8298 8.74301 19.0698 7.85101 18.9198 7.18601C18.6298 5.91001 18.0698 5.21601 17.6198 4.08101C17.3298 3.36801 17.3198 2.42701 17.6698 1.73601C17.8298 1.43001 18.2198 1.07201 18.8098 1.00601C19.3898 0.940015 19.5398 1.43601 19.9498 1.57201C20.3598 1.70701 21.2398 1.79001 21.3098 2.10501C21.3698 2.42001 20.3198 2.66801 20.0898 2.64201C19.5298 2.58201 19.1798 2.96001 19.2098 3.62901C19.2398 4.48001 19.4398 4.78301 20.2198 5.99401C20.9998 7.20501 20.9898 9.21801 19.9998 10.623C19.6798 11.034 19.3498 11.382 19.1298 11.851C18.9498 12.227 19.1298 11.47 19.1298 12.97C19.1298 14.471 18.3798 15.193 17.3998 15.51C16.0898 15.937 14.9498 15.777 13.7798 15.638C12.1698 15.447 10.9098 15.469 10.2598 15.638C9.6898 15.786 7.8998 16.802 7.6798 17.275C7.5698 17.53 6.9398 20.188 6.8198 20.772C6.7798 21.012 6.7998 21.49 6.6898 21.703C6.5698 21.94 5.0998 22.874 4.6098 23.066C4.3798 23.155 3.9098 23.268 3.8598 23.187C3.5298 22.81 3.5298 22.722 4.4798 22.034C4.1498 21.344 5.0998 21.175 5.3798 20.835C5.6798 20.464 6.2398 16.431 6.4298 15.906C6.6198 15.381 7.3598 15.2 7.6598 14.733C7.5198 14.567 7.3198 14.656 6.7998 14.803C6.3498 14.93 5.4198 15.266 5.2198 15.098C5.0198 14.93 5.4798 14.028 5.2198 13.797Z" fill="black"/>
</svg>
