<svg width="24" height="24" viewBox="0 0 24 24" fill="none" xmlns="http://www.w3.org/2000/svg">
<path fill-rule="evenodd" clip-rule="evenodd" d="M4 19H12C12.5519 19 13 18.5519 13 18C13 17.4481 12.5519 17 12 17H4C3.4481 17 3 17.4481 3 18C3 18.5519 3.4481 19 4 19ZM4 13H20C20.5519 13 21 12.5519 21 12C21 11.4481 20.5519 11 20 11H4C3.4481 11 3 11.4481 3 12C3 12.5519 3.4481 13 4 13ZM4 7H20C20.5519 7 21 6.5519 21 6C21 5.4481 20.5519 5 20 5H4C3.4481 5 3 5.4481 3 6C3 6.5519 3.4481 7 4 7Z" fill="black"/>
</svg>
