<svg width="16" height="16" viewBox="0 0 16 16" fill="none" xmlns="http://www.w3.org/2000/svg">
<path fill-rule="evenodd" clip-rule="evenodd" d="M1.69795 13.7992H8.02295C8.46395 13.7992 8.82295 13.4412 8.82295 12.9992C8.82295 12.5572 8.46395 12.1992 8.02295 12.1992H1.69795C1.25595 12.1992 0.897949 12.5572 0.897949 12.9992C0.897949 13.4412 1.25595 13.7992 1.69795 13.7992ZM1.69795 8.79922H13.9539C14.3949 8.79922 14.7539 8.44122 14.7539 7.99922C14.7539 7.55722 14.3949 7.19922 13.9539 7.19922H1.69795C1.25595 7.19922 0.897949 7.55722 0.897949 7.99922C0.897949 8.44122 1.25595 8.79922 1.69795 8.79922ZM1.69795 3.79922H13.9539C14.3949 3.79922 14.7539 3.44122 14.7539 2.99922C14.7539 2.55722 14.3949 2.19922 13.9539 2.19922H1.69795C1.25595 2.19922 0.897949 2.55722 0.897949 2.99922C0.897949 3.44122 1.25595 3.79922 1.69795 3.79922Z" fill="black"/>
</svg>
