<svg width="16" height="16" viewBox="0 0 16 16" fill="none" xmlns="http://www.w3.org/2000/svg">
<path d="M13.7998 12.0817C13.7998 13.5617 12.5998 14.7719 11.1098 14.7719H10.0198C9.57976 14.7719 9.21971 14.4119 9.21971 13.9719C9.21971 13.5219 9.57976 13.1718 10.0198 13.1718H11.1098C11.7099 13.1718 12.1997 12.6817 12.1997 12.0817V10.4619C12.1997 9.47188 12.6298 8.5919 13.3098 7.98191C12.6398 7.38191 12.2097 6.50172 12.2097 5.53172V3.8518C12.2097 3.2618 11.7299 2.77197 11.1299 2.77197H10.0398C9.59978 2.77197 9.23973 2.41192 9.23973 1.97192C9.23973 1.53192 9.59978 1.17188 10.0398 1.17188H11.1299C12.6099 1.17188 13.8098 2.3718 13.8098 3.8518V5.53172C13.8098 6.35172 14.3997 7.03187 15.1697 7.19187C15.5997 7.28187 15.8798 7.70182 15.7898 8.14182C15.7698 8.22182 15.7397 8.3018 15.6997 8.3718C15.5997 8.5818 15.3996 8.74172 15.1496 8.79172C14.3796 8.95172 13.7998 9.64188 13.7998 10.4619V12.0817Z" fill="black"/>
<path d="M0.319811 8.3718C0.279811 8.3018 0.249723 8.22182 0.229723 8.14182C0.139723 7.70182 0.419841 7.28187 0.849841 7.19187C1.61984 7.03187 2.19969 6.35172 2.19969 5.53172V3.8518C2.19969 2.3718 3.39964 1.17188 4.88964 1.17188H5.97972C6.41972 1.17188 6.77977 1.53192 6.77977 1.97192C6.77977 2.41192 6.41972 2.77197 5.97972 2.77197H4.88964C4.28964 2.77197 3.79979 3.2618 3.79979 3.8518V5.53172C3.79979 6.50172 3.3797 7.38191 2.7097 7.98191C3.3897 8.5919 3.81981 9.47188 3.81981 10.4619V12.0817C3.81981 12.6817 4.30966 13.1718 4.90966 13.1718H5.99974C6.43974 13.1718 6.79979 13.5219 6.79979 13.9719C6.79979 14.4119 6.43974 14.7719 5.99974 14.7719H4.90966C3.41966 14.7719 2.21971 13.5617 2.21971 12.0817V10.4619C2.21971 9.64188 1.63986 8.95172 0.86986 8.79172C0.61986 8.74172 0.419811 8.5818 0.319811 8.3718Z" fill="black"/>
</svg>
