<svg width="24" height="24" viewBox="0 0 24 24" fill="none" xmlns="http://www.w3.org/2000/svg">
<g clip-path="url(#clip0_29217_53)">
<path d="M19.9865 18.2273C19.9865 20.3473 18.2767 22.0573 16.1567 22.0573H14.5266C13.9766 22.0573 13.5266 21.6073 13.5266 21.0573C13.5266 20.5073 13.9766 20.0573 14.5266 20.0573H16.1567C17.1667 20.0573 17.9865 19.2373 17.9865 18.2273V15.6873C17.9865 14.1873 18.6866 12.8473 19.7666 11.9773C18.6966 11.1073 18.0166 9.78726 18.0166 8.29726V5.85731C18.0166 4.84731 17.1965 4.02735 16.1865 4.02735H14.5466C13.9966 4.02735 13.5466 3.57735 13.5466 3.02735C13.5466 2.47734 13.9966 2.02734 14.5466 2.02734H16.1865C18.2965 2.02734 20.0166 3.7373 20.0166 5.85731V8.29726C20.0166 9.61726 20.9565 10.7273 22.2065 10.9873C22.7465 11.0973 23.0965 11.6273 22.9765 12.1673C22.9565 12.2773 22.9167 12.3773 22.8667 12.4673C22.7367 12.7273 22.4865 12.9373 22.1765 12.9973C20.9265 13.2573 19.9865 14.3673 19.9865 15.6873V18.2273Z" fill="black"/>
<path d="M1.09663 12.4673C1.04663 12.3773 1.01652 12.2773 0.986523 12.1673C0.876523 11.6273 1.22655 11.0973 1.76655 10.9873C3.01655 10.7273 3.9565 9.61726 3.9565 8.29726V5.86732C3.9565 3.75731 5.66657 2.03723 7.78658 2.03723H9.4167C9.9767 2.03723 10.4167 2.48723 10.4167 3.03723C10.4167 3.59724 9.9767 4.03724 9.4167 4.03724H7.78658C6.77657 4.03724 5.9565 4.85732 5.9565 5.86732V8.29726C5.9565 9.78726 5.26649 11.1073 4.19649 11.9773C5.28649 12.8473 5.98653 14.1873 5.98653 15.6873V18.2273C5.98653 19.2373 6.79659 20.0573 7.80659 20.0573H9.44649C9.99649 20.0573 10.4465 20.5073 10.4465 21.0573C10.4465 21.6073 9.99649 22.0573 9.44649 22.0573H7.80659C5.69659 22.0573 3.98652 20.3473 3.98652 18.2273V15.6873C3.98652 14.3673 3.04658 13.2573 1.79658 12.9973C1.47658 12.9373 1.23663 12.7273 1.09663 12.4673Z" fill="black"/>
</g>
<defs>
<clipPath id="clip0_29217_53">
<rect width="24" height="24" fill="white"/>
</clipPath>
</defs>
</svg>
