<svg width="16" height="16" viewBox="0 0 16 16" fill="none" xmlns="http://www.w3.org/2000/svg">
<path fill-rule="evenodd" clip-rule="evenodd" d="M7.31294 13.4028L10.0899 3.03677C10.2119 2.58377 9.94294 2.11677 9.48894 1.99577C9.03594 1.87477 8.56994 2.14377 8.44794 2.59677L5.67094 12.9628C5.54894 13.4158 5.81894 13.8828 6.27194 14.0038C6.72494 14.1248 7.19094 13.8558 7.31294 13.4028ZM11.3969 5.85677L13.5339 8.01077L11.3979 10.1498C11.0669 10.4818 11.0669 11.0208 11.3999 11.3528C11.7319 11.6838 12.2699 11.6828 12.6019 11.3508L15.3349 8.61277C15.6659 8.28177 15.6659 7.74577 15.3369 7.41377L12.6029 4.65877C12.2729 4.32577 11.7339 4.32377 11.4009 4.65477C11.0679 4.98477 11.0659 5.52377 11.3969 5.85677ZM4.54894 10.1518L2.41094 7.99777L4.54694 5.85777C4.87794 5.52577 4.87794 4.98777 4.54594 4.65577C4.21394 4.32477 3.67494 4.32477 3.34394 4.65777L0.609943 7.39577C0.279943 7.72677 0.278943 8.26277 0.607943 8.59477L3.34194 11.3498C3.67194 11.6828 4.21094 11.6848 4.54394 11.3538C4.87694 11.0238 4.87894 10.4848 4.54894 10.1518Z" fill="black"/>
</svg>
