<svg width="24" height="24" viewBox="0 0 24 24" fill="none" xmlns="http://www.w3.org/2000/svg">
<path fill-rule="evenodd" clip-rule="evenodd" d="M11.3399 21.2C11.5299 21.42 11.7999 21.54 12.0899 21.54C12.3799 21.54 12.6599 21.42 12.8499 21.2L22.3399 10.27C22.4999 10.08 22.5799 9.85 22.5799 9.61V7.72C22.5799 7.46 22.4799 7.2 22.2899 7.01L17.5399 2.29C17.3599 2.1 17.0999 2 16.8399 2H7.19986C6.92986 2 6.66986 2.11 6.48986 2.3L1.88986 7.02C1.70986 7.21 1.60986 7.46 1.60986 7.72V9.61C1.60986 9.85 1.68986 10.08 1.84986 10.27L11.3399 21.2ZM4.26986 10L11.6099 18.46L14.5099 10H4.26986ZM16.4099 10L14.1299 16.67L19.9199 10H16.4099ZM3.72986 8H7.77986L9.11986 4H7.61986L3.72986 8ZM11.0199 4L9.67986 8H20.4399L16.4299 4H11.0199Z" fill="black"/>
</svg>
