<svg width="24" height="24" viewBox="0 0 24 24" fill="none" xmlns="http://www.w3.org/2000/svg">
<path fill-rule="evenodd" clip-rule="evenodd" d="M6.265 6.23C6.572 5.03 7.196 3.93 8.082 3.05C9.391 1.74 11.168 1 13.02 1H16.016C17.868 1 19.645 1.74 20.954 3.05C22.264 4.36 23 6.13 23 7.98V7.99C23 9.84 22.264 11.61 20.954 12.92C20.347 13.53 19.638 14.02 18.868 14.35C18.238 17.57 15.402 20 12 20H10.113L7.392 22.64C6.815 23.2 5.96 23.36 5.22 23.04C4.48 22.73 4 22 4 21.2V18.74C2.186 17.48 1 15.38 1 13C1 9.73 3.238 6.99 6.265 6.23ZM17 13C17 15.76 14.761 18 12 18H9.708C9.448 18 9.199 18.1 9.012 18.28L6 21.2V18.2C6 17.84 5.81 17.51 5.5 17.33C4.005 16.47 3 14.85 3 13C3 10.24 5.239 8 8 8C9.308 8 10.692 8 12 8C14.761 8 17 10.24 17 13ZM18.931 12.02C19.147 11.87 19.35 11.7 19.54 11.51C20.475 10.58 21 9.31 21 7.99V7.98C21 6.66 20.475 5.39 19.54 4.46C18.606 3.53 17.338 3 16.016 3H13.02C11.698 3 10.431 3.53 9.496 4.46C9.049 4.91 8.696 5.43 8.45 6H12C15.534 6 18.456 8.62 18.931 12.02Z" fill="black"/>
</svg>
