<svg width="16" height="16" viewBox="0 0 16 16" fill="none" xmlns="http://www.w3.org/2000/svg">
<path fill-rule="evenodd" clip-rule="evenodd" d="M7.99508 1.32812C4.31661 1.32812 1.33008 4.31466 1.33008 7.99312C1.33008 11.6716 4.31661 14.6581 7.99508 14.6581C11.6735 14.6581 14.6601 11.6716 14.6601 7.99312C14.6601 4.31466 11.6735 1.32812 7.99508 1.32812ZM7.99507 2.78675C10.8686 2.78675 13.2014 5.11964 13.2014 7.99313C13.2014 10.8666 10.8686 13.1995 7.99507 13.1995C5.12158 13.1995 2.7887 10.8666 2.7887 7.99313C2.7887 5.11964 5.12158 2.78675 7.99507 2.78675ZM5.91929 7.09153L4.80617 10.3133C4.64481 10.78 4.79614 11.2987 5.18359 11.606C5.57013 11.9132 6.10891 11.9424 6.52735 11.6789L9.41178 9.86291C9.72812 9.66326 9.96697 9.36242 10.0882 9.00962L11.2013 5.78788C11.3627 5.32112 11.2114 4.8024 10.8239 4.49518C10.4374 4.18795 9.89859 4.15878 9.48015 4.42224L6.59572 6.23823C6.27938 6.43788 6.04145 6.73872 5.91929 7.09153ZM9.54941 6.10238L8.70979 8.53373C8.69611 8.57293 8.66968 8.60575 8.63503 8.62854L6.45804 9.99873L7.29766 7.56739C7.31133 7.52819 7.33777 7.49537 7.37332 7.47258L9.54941 6.10238Z" fill="black"/>
</svg>
