<svg width="16" height="16" viewBox="0 0 16 16" fill="none" xmlns="http://www.w3.org/2000/svg">
<path fill-rule="evenodd" clip-rule="evenodd" d="M0.752743 5.76882L1.96924 6.98532C1.85734 7.30902 1.80024 7.65232 1.80024 8.00162V8.33312C1.80024 9.18182 2.13734 9.99572 2.73754 10.5958C3.00854 10.8669 3.32324 11.0843 3.66574 11.2406C3.95074 11.3707 4.13354 11.6551 4.13354 11.9684V13.8178C4.13354 13.8178 5.95924 12.0798 6.25894 11.7585C6.30474 11.7094 6.32894 11.6087 6.54474 11.5609L8.05264 13.0688C7.80704 13.1132 7.55694 13.1331 7.30474 13.1331H7.13964L5.16354 15.0477C4.71624 15.4811 4.05314 15.6049 3.47964 15.362C2.90614 15.1191 2.53354 14.5568 2.53354 13.934L2.53394 12.4507C2.19864 12.2502 1.88684 12.0079 1.60614 11.7272C0.705943 10.827 0.200243 9.60612 0.200243 8.33312V8.00162C0.200243 7.21622 0.392743 6.45072 0.752743 5.76882ZM3.60934 3.41172C3.65094 3.39932 3.69264 3.38752 3.73454 3.37632C3.96824 2.71552 4.34894 2.10992 4.85374 1.60512C5.75394 0.704919 6.97484 0.199219 8.24784 0.199219H10.5523C11.8254 0.199219 13.0463 0.704919 13.9464 1.60512C14.8466 2.50532 15.3523 3.72622 15.3523 4.99922C15.3523 5.10972 15.3523 5.22032 15.3523 5.33072C15.3523 6.60382 14.8466 7.82472 13.9464 8.72482C13.3506 9.32062 12.6144 9.74362 11.8151 9.95852C11.6784 10.3475 11.4902 10.7171 11.2557 11.0581L14.0135 13.8159C14.3452 14.1476 14.3452 14.6862 14.0135 15.0179C13.6818 15.3497 13.1431 15.3497 12.8114 15.0179L0.283443 2.48992C-0.048257 2.15822 -0.048257 1.61962 0.283443 1.28792C0.615143 0.956119 1.15374 0.956119 1.48554 1.28792L3.60934 3.41172ZM4.99924 4.80162H7.30474C8.15344 4.80162 8.96734 5.13872 9.56754 5.73882C10.1676 6.33892 10.5047 7.15292 10.5047 8.00162V8.33312C10.5047 8.88612 10.3616 9.42432 10.0958 9.89822L4.99924 4.80162ZM12.1047 8.12812C12.3632 7.98552 12.6025 7.80602 12.8151 7.59352C13.4152 6.99332 13.7523 6.17942 13.7523 5.33072V4.99922C13.7523 4.15052 13.4152 3.33662 12.8151 2.73652C12.2149 2.13632 11.401 1.79922 10.5523 1.79922H8.24784C7.39914 1.79922 6.58524 2.13632 5.98514 2.73652C5.84254 2.87902 5.71484 3.03362 5.60684 3.20162H7.30474C8.57774 3.20162 9.79864 3.70732 10.6988 4.60752C11.599 5.50762 12.1047 6.72852 12.1047 8.00162V8.12812Z" fill="black"/>
</svg>
