<svg width="24" height="24" viewBox="0 0 24 24" fill="none" xmlns="http://www.w3.org/2000/svg">
<path fill-rule="evenodd" clip-rule="evenodd" d="M3.36412 7.76062L4.77912 9.18062C3.69112 10.0906 3.00012 11.4706 3.00012 13.0006C3.00012 14.8506 4.00512 16.4706 5.50012 17.3306C5.81012 17.5106 6.00012 17.8406 6.00012 18.2006V21.2006L9.01212 18.2806C9.19912 18.1006 9.44812 18.0006 9.70812 18.0006H12.0001C12.4851 18.0006 12.9551 17.9306 13.3981 17.8006L14.9491 19.3506C14.0531 19.7706 13.0541 20.0006 12.0001 20.0006H10.1131L7.39212 22.6406C6.81512 23.2006 5.96012 23.3606 5.22012 23.0406C4.48012 22.7306 4.00012 22.0006 4.00012 21.2006V18.7406C2.18612 17.4806 1.00012 15.3806 1.00012 13.0006C1.00012 10.9106 1.91312 9.04062 3.36412 7.76062ZM18.0391 16.5406L21.4701 19.9706C21.8991 20.4006 21.8991 21.0906 21.4701 21.5206C21.0401 21.9506 20.3431 21.9506 19.9141 21.5206L1.09812 2.71063C0.669117 2.28063 0.669117 1.58062 1.09812 1.15062C1.52812 0.720625 2.22512 0.720625 2.65412 1.15062L6.64612 5.14062C6.98712 4.37063 7.47212 3.66062 8.08212 3.05063C9.39112 1.74063 11.1681 1.00063 13.0201 1.00063H16.0161C17.8681 1.00063 19.6451 1.74063 20.9541 3.05063C22.2641 4.36063 23.0001 6.13063 23.0001 7.98063V7.99062C23.0001 9.84062 22.2641 11.6106 20.9541 12.9206C20.3471 13.5306 19.6381 14.0206 18.8681 14.3506C18.7151 15.1406 18.4311 15.8706 18.0391 16.5406ZM9.50412 8.00063H12.0001C14.7611 8.00063 17.0001 10.2406 17.0001 13.0006C17.0001 13.7306 16.8421 14.4306 16.5561 15.0506L9.50412 8.00063ZM18.9311 12.0206C19.1471 11.8706 19.3501 11.7006 19.5401 11.5106C20.4751 10.5806 21.0001 9.31063 21.0001 7.99062V7.98063C21.0001 6.66062 20.4751 5.39062 19.5401 4.46062C18.6061 3.53062 17.3381 3.00062 16.0161 3.00062H13.0201C11.6981 3.00062 10.4311 3.53062 9.49612 4.46062C9.04912 4.91062 8.69612 5.43062 8.45012 6.00063H12.0001C15.5341 6.00063 18.4561 8.62063 18.9311 12.0206Z" fill="black"/>
</svg>
