<svg width="24" height="24" viewBox="0 0 24 24" fill="none" xmlns="http://www.w3.org/2000/svg">
<path fill-rule="evenodd" clip-rule="evenodd" d="M12 2C6.48 2 2 6.481 2 12C2 17.519 6.48 22 12 22C17.52 22 22 17.519 22 12C22 6.481 17.52 2 12 2ZM12 4C16.42 4 20 7.585 20 12C20 16.415 16.42 20 12 20C7.58 20 4 16.415 4 12C4 7.585 7.58 4 12 4ZM9.26 10.227L6.74 15.49C6.49 16.026 6.6 16.664 7.02 17.084C7.44 17.503 8.07 17.613 8.61 17.357L13.87 14.843C14.27 14.655 14.58 14.339 14.77 13.947L17.28 8.684C17.54 8.148 17.43 7.51 17.01 7.09C16.59 6.671 15.95 6.561 15.42 6.817L10.15 9.332C9.76 9.519 9.45 9.835 9.26 10.227ZM15.17 8.929L13.14 13.171C13.13 13.192 13.12 13.209 13.1 13.218L8.86 15.245L10.88 11.003C10.89 10.982 10.91 10.966 10.93 10.956L15.17 8.929Z" fill="black"/>
</svg>
