<svg width="16" height="16" viewBox="0 0 16 16" fill="none" xmlns="http://www.w3.org/2000/svg">
<path fill-rule="evenodd" clip-rule="evenodd" d="M3.7372 3.37922C3.9682 2.71922 4.3492 2.10922 4.8532 1.60922C5.7542 0.709219 6.9752 0.199219 8.2482 0.199219H10.5522C11.8252 0.199219 13.0462 0.709219 13.9462 1.60922C14.8462 2.50922 15.3522 3.72922 15.3522 4.99922V5.32922C15.3522 6.59922 14.8462 7.82922 13.9462 8.72922C13.3512 9.31922 12.6152 9.73922 11.8162 9.95922C11.5842 10.6192 11.2032 11.2192 10.6992 11.7292C9.79819 12.6292 8.6252 13.1292 7.3052 13.1292H7.1392L5.1632 15.0492C4.7162 15.4792 4.0532 15.6092 3.4792 15.3592C2.9062 15.1192 2.5332 14.5592 2.5332 13.9292V12.4492C2.1982 12.2492 1.8872 12.0092 1.6062 11.7292C0.706195 10.8292 0.200195 9.60922 0.200195 8.32922V7.99922C0.200195 6.72922 0.706195 5.50922 1.6062 4.60922C2.2012 4.00922 2.9372 3.58922 3.7372 3.37922ZM4.1332 13.8192V11.9692C4.1332 11.6592 3.9512 11.3692 3.6672 11.2392C3.3242 11.0892 3.0092 10.8692 2.7372 10.5992C2.1372 9.99922 1.8002 9.17922 1.8002 8.32922V7.99922C1.8002 7.14922 2.1372 6.33922 2.7372 5.73922C3.3372 5.13922 4.1512 4.79922 5.0002 4.79922H7.3052C8.1532 4.79922 8.9672 5.13922 9.5672 5.73922C10.1672 6.33922 10.5052 7.14922 10.5052 7.99922V8.32922C10.5052 9.17922 10.1672 9.99922 9.5672 10.5992C8.9672 11.1992 8.1852 11.5292 7.3052 11.5292H6.8252C6.4802 11.5292 6.2842 11.7292 6.2592 11.7592L4.1332 13.8192ZM12.1052 8.12922C12.3632 7.98922 12.6022 7.80922 12.8152 7.58922C13.4152 6.98922 13.7522 6.17922 13.7522 5.32922C13.7522 5.21922 13.7522 5.10922 13.7522 4.99922C13.7522 4.14922 13.4152 3.33922 12.8152 2.73922C12.2152 2.13922 11.4012 1.79922 10.5522 1.79922H8.2482C7.3992 1.79922 6.5852 2.13922 5.9852 2.73922C5.8422 2.87922 5.7152 3.02922 5.6072 3.19922H7.3052C8.5782 3.19922 9.7982 3.70922 10.6992 4.60922C11.5992 5.50922 12.1052 6.72922 12.1052 7.99922V8.12922Z" fill="black"/>
</svg>
