<svg width="24" height="24" viewBox="0 0 24 24" fill="none" xmlns="http://www.w3.org/2000/svg">
<path fill-rule="evenodd" clip-rule="evenodd" d="M8.46133 15.5153C8.19653 16.8113 8.03473 17.9062 7.88603 19.1066C7.64633 21.0401 9.06783 22.4223 10.605 22.5334C11.6244 22.607 12.7355 22.1552 13.4443 20.8593C14.398 19.1156 15.0757 17.8297 17.1076 13.693C17.1278 13.6518 17.1481 13.6104 17.1686 13.5686C17.6727 12.5487 17.958 11.4337 18.0067 10.2973C18.0118 10.1793 18.0143 10.0612 18.0142 9.94285L18.0109 7.78465C18.0109 7.71014 18.0095 7.63594 18.0067 7.56208C17.945 5.90777 17.2099 4.42081 16.0635 3.3729C15.0493 2.44582 13.7132 1.86237 12.2368 1.81065C12.1507 1.80755 12.0639 1.80505 11.9764 1.80315C9.49563 1.75015 8.22503 2.04005 6.54923 2.40695C5.06833 2.73105 3.94773 3.76605 3.19143 5.19085C2.19173 7.07415 1.84083 9.65945 2.01243 11.7941C2.12463 13.1908 3.28783 14.4382 4.69823 14.8085C5.82363 15.104 6.89793 15.3406 8.46133 15.5153ZM10.4682 15.6874C10.1863 17.0291 10.0218 18.1341 9.87083 19.3525C9.78993 20.0049 10.2305 20.5011 10.7492 20.5386C11.1008 20.564 11.4451 20.3466 11.6896 19.8996C12.6424 18.1575 13.3162 16.877 15.3733 12.6872L15.3745 12.6848C15.7957 11.8325 16.0146 10.8945 16.0142 9.94385L16.0109 7.78805C16.0096 5.64315 14.3101 3.88435 12.1665 3.80945L11.9337 3.80275C9.66753 3.75425 8.50763 4.02555 6.97683 4.36065C6.06583 4.56015 5.42333 5.25195 4.95793 6.12855C4.12533 7.69725 3.86303 9.85585 4.00593 11.6338C4.05393 12.2309 4.60323 12.7158 5.20613 12.8741C6.65033 13.2533 8.00483 13.5252 10.577 13.6908C11.1278 13.7262 11.5461 14.2022 11.5107 14.7529C11.4756 15.2972 11.0105 15.7121 10.4682 15.6874Z" fill="black"/>
<path d="M17.1686 13.5686C17.1481 13.6104 17.1278 13.6518 17.1076 13.693C17.3837 13.8345 17.6966 13.9143 18.0282 13.9143H19.0623C20.1231 13.9143 21.1405 13.4929 21.8907 12.7428C22.6408 11.9926 23.0623 10.9752 23.0623 9.91434V5.82904C23.0623 4.76824 22.6408 3.75074 21.8907 3.00064C21.1405 2.25054 20.1231 1.82904 19.0623 1.82904H18.0282C17.0763 1.82904 16.2781 2.48697 16.0635 3.3729C17.2099 4.42081 17.945 5.90777 18.0067 7.56208V3.85054C18.0067 3.83864 18.0163 3.82904 18.0282 3.82904H19.0623C19.5927 3.82904 20.1014 4.03974 20.4765 4.41484C20.8516 4.78994 21.0623 5.29864 21.0623 5.82904V9.91434C21.0623 10.4448 20.8516 10.9535 20.4765 11.3285C20.1014 11.7036 19.5927 11.9143 19.0623 11.9143H18.0282C18.0163 11.9143 18.0067 11.9047 18.0067 11.8929V10.2973C17.958 11.4337 17.6727 12.5487 17.1686 13.5686Z" fill="black"/>
</svg>
