<svg width="16" height="16" viewBox="0 0 16 16" fill="none" xmlns="http://www.w3.org/2000/svg">
<path d="M5.91379 9.14206C4.97689 9.01946 3.51099 8.81466 2.67289 8.61316C2.01789 8.45566 1.21029 7.86316 1.21539 7.03556C1.22499 5.47606 1.71479 3.73236 2.26799 2.89626C2.70969 2.22866 3.46179 1.87216 4.15489 1.78336C4.94279 1.68246 5.48129 1.66856 6.61789 1.69286C6.90269 1.69896 7.19139 1.71596 7.47719 1.74516C9.04069 1.90806 10.2287 3.22546 10.2296 4.79736C10.2593 5.13906 10.2596 5.47496 10.2599 5.80046C10.2608 6.91016 10.0044 8.00486 9.51089 8.99876C8.58269 10.8577 7.78179 12.152 7.35959 12.8963C6.56709 14.2935 4.82648 13.3801 5.14569 12.0116C5.34619 11.1517 5.63309 10.0683 5.91379 9.14206Z" fill="black"/>
<path d="M11.6056 7.07837C11.6056 7.61257 12.0192 8.04567 12.5295 8.04567H12.6918C13.6081 8.04567 14.2988 7.02707 14.2988 5.85897V3.68587C14.2988 2.51777 13.5928 1.60627 12.6918 1.60627H12.5295C12.0192 1.60627 11.6056 2.03927 11.6056 2.57357V7.07837Z" fill="black"/>
</svg>
