<svg width="16" height="16" viewBox="0 0 16 16" fill="none" xmlns="http://www.w3.org/2000/svg">
<path fill-rule="evenodd" clip-rule="evenodd" d="M10.8658 9.20394C11.1468 9.34894 11.4658 9.42894 11.8028 9.42894H11.8688C12.6508 9.42894 13.3998 9.11894 13.9518 8.56594C14.5048 8.01394 14.8148 7.26394 14.8148 6.48294C14.8148 5.74294 14.8148 4.91594 14.8148 4.17594C14.8148 3.39494 14.5048 2.64494 13.9518 2.09294C13.3998 1.53994 12.6508 1.22994 11.8688 1.22994H11.8028C11.0458 1.22994 10.3828 1.63494 10.0218 2.24094C9.30583 1.61794 8.37583 1.23494 7.35483 1.21294H7.35283C5.66083 1.17694 4.62783 1.22594 3.54283 1.59894C2.30383 2.02394 1.49883 2.97594 1.04883 4.21194C0.649831 5.30794 0.537831 6.63794 0.625831 7.95494C0.691831 8.93694 1.51383 9.82094 2.50483 10.0809C3.13683 10.2469 3.97583 10.4009 4.85583 10.5129C4.67583 11.3199 4.51683 12.1339 4.43783 12.9639C4.30983 14.3259 5.31183 15.2859 6.37783 15.3629C7.09083 15.4139 7.87183 15.0999 8.37383 14.1829C8.97083 13.0919 9.44683 12.1029 10.6498 9.68494C10.7278 9.52794 10.8008 9.36694 10.8658 9.20394ZM9.72483 4.54894C9.37283 3.55394 8.43383 2.83594 7.32083 2.81194H7.31883C5.87383 2.78194 4.98883 2.79394 4.06283 3.11194C3.29583 3.37494 2.83083 3.99494 2.55283 4.75894C2.22383 5.66294 2.14983 6.76194 2.22283 7.84794C2.24583 8.18394 2.57183 8.44394 2.91183 8.53294C3.85883 8.78194 5.31283 8.99794 6.61183 9.07094C7.05283 9.09594 7.39083 9.47394 7.36583 9.91494C7.34083 10.3559 6.96283 10.6929 6.52283 10.6689L6.46183 10.6649C6.27783 11.4709 6.10983 12.2839 6.03083 13.1139C5.99783 13.4669 6.21583 13.7469 6.49283 13.7669C6.67483 13.7799 6.84183 13.6499 6.96983 13.4149C7.55983 12.3369 8.02983 11.3609 9.21583 8.97394C9.44983 8.50294 9.62283 8.00594 9.73183 7.49494L9.72483 7.35094V4.54894ZM11.3248 7.35094V3.30794C11.3248 3.04394 11.5388 2.82994 11.8028 2.82994H11.8688C12.2258 2.82994 12.5688 2.97194 12.8208 3.22394C13.0738 3.47694 13.2148 3.81894 13.2148 4.17594V6.48294C13.2148 6.83994 13.0738 7.18194 12.8208 7.43494C12.5688 7.68694 12.2258 7.82894 11.8688 7.82894H11.8028C11.5388 7.82894 11.3248 7.61494 11.3248 7.35094Z" fill="black"/>
</svg>
