<svg width="24" height="24" viewBox="0 0 24 24" fill="none" xmlns="http://www.w3.org/2000/svg">
<path d="M8.87117 13.7131C7.46582 13.5292 5.26697 13.222 4.00982 12.9197C3.02732 12.6835 1.81592 11.7947 1.82357 10.5533C1.83797 8.21409 2.57267 5.59854 3.40247 4.34439C4.06502 3.34299 5.19317 2.80824 6.23282 2.67504C7.41467 2.52369 8.22242 2.50284 9.92732 2.53929C10.3545 2.54844 10.7876 2.57394 11.2163 2.61774C13.5615 2.86209 15.3435 4.83819 15.3449 7.19604C15.3894 7.70859 15.3899 8.21244 15.3903 8.70069C15.3917 10.3652 15.0071 12.0073 14.2668 13.4981C12.8745 16.2865 11.6732 18.2279 11.0399 19.3444C9.85112 21.4402 7.24022 20.0701 7.71902 18.0173C8.01977 16.7275 8.45012 15.1024 8.87117 13.7131Z" fill="black"/>
<path d="M17.4089 10.6176C17.4089 11.4189 18.0293 12.0685 18.7948 12.0685H19.0382C20.4127 12.0685 21.4487 10.5406 21.4487 8.78845V5.5288C21.4487 3.77666 20.3897 2.4094 19.0382 2.4094H18.7948C18.0293 2.4094 17.4089 3.05891 17.4089 3.86036V10.6176Z" fill="black"/>
</svg>
