<svg width="12" height="12" viewBox="0 0 12 12" fill="none" xmlns="http://www.w3.org/2000/svg">
<path fill-rule="evenodd" clip-rule="evenodd" d="M8.57073 7.08544C8.68673 7.11844 8.80873 7.13644 8.93573 7.13644C9.13773 7.13644 9.37873 7.13644 9.62673 7.13644C10.2367 7.13644 10.8217 6.89344 11.2527 6.46244C11.6847 6.03144 11.9267 5.44644 11.9267 4.83644C11.9267 4.11444 11.9267 3.25044 11.9267 2.52744C11.9267 1.91744 11.6847 1.33244 11.2527 0.901437C10.8217 0.470437 10.2367 0.227437 9.62673 0.227437H8.93573C8.43973 0.227437 8.00673 0.498437 7.77773 0.901437C7.21273 0.483437 6.51773 0.230438 5.76273 0.214438C4.42773 0.185438 3.74373 0.340437 2.84173 0.538437C1.98373 0.726437 1.32873 1.31744 0.890726 2.14244C0.341726 3.17744 0.144726 4.59644 0.239726 5.76844C0.306726 6.61344 1.00373 7.37444 1.85673 7.59844C2.38373 7.73644 2.88973 7.85044 3.56873 7.94044C3.44173 8.52744 3.33173 9.11944 3.27473 9.72144C3.16273 10.9094 4.04073 11.7434 4.97073 11.8094C5.59273 11.8544 6.27673 11.5864 6.71473 10.7864C7.16573 9.96244 7.52973 9.21144 8.37973 7.50144C8.44773 7.36444 8.51173 7.22544 8.57073 7.08544ZM7.60473 3.62444C7.54873 2.63044 6.73573 1.83544 5.72873 1.81344C4.56473 1.78944 3.96973 1.92944 3.18373 2.10144C2.78173 2.18944 2.50973 2.50644 2.30373 2.89244C1.88873 3.67544 1.76273 4.75344 1.83373 5.64044C1.85073 5.84544 2.05573 5.99644 2.26273 6.05044C3.00873 6.24644 3.70873 6.38644 5.03773 6.47144C5.47873 6.50044 5.81273 6.88144 5.78473 7.32144C5.76173 7.67644 5.51073 7.96244 5.18373 8.04544C5.04873 8.64644 4.92673 9.25344 4.86773 9.87244C4.85073 10.0504 4.94473 10.2034 5.08473 10.2144C5.17673 10.2204 5.24673 10.1364 5.31073 10.0184C5.75373 9.20844 6.11173 8.47144 6.94573 6.79044C7.35073 5.97244 7.57573 5.07644 7.60473 4.16544V3.62444ZM9.20473 4.18944V5.53644H9.62673C9.81273 5.53644 9.99073 5.46244 10.1217 5.33144C10.2527 5.20044 10.3267 5.02144 10.3267 4.83644V2.52744C10.3267 2.34244 10.2527 2.16444 10.1217 2.03244C9.99073 1.90144 9.81273 1.82744 9.62673 1.82744H9.20473V3.58544C9.20673 3.63344 9.20773 3.68244 9.20773 3.73144V3.95744C9.20773 4.03444 9.20673 4.11244 9.20473 4.18944Z" fill="black"/>
</svg>
