<svg width="16" height="16" viewBox="0 0 16 16" fill="none" xmlns="http://www.w3.org/2000/svg">
<path d="M3.00508 6.55469C3.80638 6.55469 4.45698 7.20469 4.45698 8.00669C4.45698 8.80769 3.80638 9.45869 3.00508 9.45869C2.20368 9.45869 1.55298 8.80769 1.55298 8.00669C1.55298 7.20469 2.20368 6.55469 3.00508 6.55469Z" fill="black"/>
<path d="M8.01098 6.55469C8.81298 6.55469 9.46298 7.20469 9.46298 8.00669C9.46298 8.80769 8.81298 9.45869 8.01098 9.45869C7.20998 9.45869 6.55898 8.80769 6.55898 8.00669C6.55898 7.20469 7.20998 6.55469 8.01098 6.55469Z" fill="black"/>
<path d="M13.012 6.55469C13.813 6.55469 14.464 7.20469 14.464 8.00669C14.464 8.80769 13.813 9.45869 13.012 9.45869C12.21 9.45869 11.56 8.80769 11.56 8.00669C11.56 7.20469 12.21 6.55469 13.012 6.55469Z" fill="black"/>
</svg>
