<svg width="16" height="16" viewBox="0 0 16 16" fill="none" xmlns="http://www.w3.org/2000/svg">
<path fill-rule="evenodd" clip-rule="evenodd" d="M6.0002 1.19922C3.9012 1.19922 2.2002 2.90022 2.2002 4.99922C2.2002 6.83122 2.2002 9.16722 2.2002 10.9992C2.2002 13.0982 3.9012 14.7992 6.0002 14.7992C7.2652 14.7992 8.7352 14.7992 10.0002 14.7992C12.0992 14.7992 13.8002 13.0982 13.8002 10.9992C13.8002 9.16722 13.8002 6.83122 13.8002 4.99922C13.8002 2.90022 12.0992 1.19922 10.0002 1.19922C8.7352 1.19922 7.2652 1.19922 6.0002 1.19922ZM6.0002 2.79922C7.2652 2.79922 8.7352 2.79922 10.0002 2.79922C11.2152 2.79922 12.2002 3.78422 12.2002 4.99922V10.9992C12.2002 12.2142 11.2152 13.1992 10.0002 13.1992C8.7352 13.1992 7.2652 13.1992 6.0002 13.1992C4.7852 13.1992 3.8002 12.2142 3.8002 10.9992V4.99922C3.8002 3.78422 4.7852 2.79922 6.0002 2.79922Z" fill="black"/>
<path d="M10.0002 4.64648H6.00024C5.58624 4.64648 5.25024 4.98348 5.25024 5.39648C5.25024 5.81048 5.58624 6.14648 6.00024 6.14648H10.0002C10.4142 6.14648 10.7502 5.81048 10.7502 5.39648C10.7502 4.98348 10.4142 4.64648 10.0002 4.64648Z" fill="black"/>
<path d="M10.0002 7.24414H6.00024C5.58624 7.24414 5.25024 7.58014 5.25024 7.99414C5.25024 8.40814 5.58624 8.74414 6.00024 8.74414H10.0002C10.4142 8.74414 10.7502 8.40814 10.7502 7.99414C10.7502 7.58014 10.4142 7.24414 10.0002 7.24414Z" fill="black"/>
<path d="M10.0002 9.85547H6.00024C5.58624 9.85547 5.25024 10.1915 5.25024 10.6055C5.25024 11.0195 5.58624 11.3555 6.00024 11.3555H10.0002C10.4142 11.3555 10.7502 11.0195 10.7502 10.6055C10.7502 10.1915 10.4142 9.85547 10.0002 9.85547Z" fill="black"/>
</svg>
