<svg width="24" height="24" viewBox="0 0 24 24" fill="none" xmlns="http://www.w3.org/2000/svg">
<path d="M5 3C6.1038 3 7 3.8962 7 5C7 6.1038 6.1038 7 5 7C3.8962 7 3 6.1038 3 5C3 3.8962 3.8962 3 5 3Z" fill="black"/>
<path d="M19 17C20.1038 17 21 17.8962 21 19C21 20.1038 20.1038 21 19 21C17.8962 21 17 20.1038 17 19C17 17.8962 17.8962 17 19 17Z" fill="black"/>
<path d="M12 17C13.1038 17 14 17.8962 14 19C14 20.1038 13.1038 21 12 21C10.8962 21 10 20.1038 10 19C10 17.8962 10.8962 17 12 17Z" fill="black"/>
<path d="M5 17C6.1038 17 7 17.8962 7 19C7 20.1038 6.1038 21 5 21C3.8962 21 3 20.1038 3 19C3 17.8962 3.8962 17 5 17Z" fill="black"/>
<path d="M5 10C6.1038 10 7 10.8962 7 12C7 13.1038 6.1038 14 5 14C3.8962 14 3 13.1038 3 12C3 10.8962 3.8962 10 5 10Z" fill="black"/>
<path d="M12 10C13.1038 10 14 10.8962 14 12C14 13.1038 13.1038 14 12 14C10.8962 14 10 13.1038 10 12C10 10.8962 10.8962 10 12 10Z" fill="black"/>
<path d="M19 10C20.1038 10 21 10.8962 21 12C21 13.1038 20.1038 14 19 14C17.8962 14 17 13.1038 17 12C17 10.8962 17.8962 10 19 10Z" fill="black"/>
<path d="M19 3C20.1038 3 21 3.8962 21 5C21 6.1038 20.1038 7 19 7C17.8962 7 17 6.1038 17 5C17 3.8962 17.8962 3 19 3Z" fill="black"/>
<path d="M12 3C13.1038 3 14 3.8962 14 5C14 6.1038 13.1038 7 12 7C10.8962 7 10 6.1038 10 5C10 3.8962 10.8962 3 12 3Z" fill="black"/>
</svg>
