<svg width="24" height="24" viewBox="0 0 24 24" fill="none" xmlns="http://www.w3.org/2000/svg">
<path fill-rule="evenodd" clip-rule="evenodd" d="M16.4832 19.0015H3.8877C3.3358 19.0015 2.8877 19.4496 2.8877 20.0015C2.8877 20.5534 3.3358 21.0015 3.8877 21.0015H18.4832L16.4832 19.0015ZM16.3769 12.9642L18.3122 11.0288C18.7025 10.6386 18.7025 10.0049 18.3122 9.61464C17.922 9.22444 17.2883 9.22444 16.898 9.61464L14.9627 11.55L12.9928 9.58014V3.08034C12.9928 2.52844 12.5447 2.08034 11.9928 2.08034C11.4409 2.08034 10.9928 2.52844 10.9928 3.08034V7.58014L4.9495 1.53674C4.5202 1.10754 3.8231 1.10754 3.3939 1.53674C2.9646 1.96604 2.9646 2.66314 3.3939 3.09244L20.7526 20.4512C21.1819 20.8805 21.879 20.8805 22.3083 20.4512C22.7376 20.0219 22.7376 19.3248 22.3083 18.8955L16.3769 12.9642ZM13.4114 15.9297L10.9928 13.5111V13.5199L7.0876 9.61464C6.6974 9.22444 6.0637 9.22444 5.6734 9.61464C5.2831 10.0049 5.2831 10.6386 5.6734 11.0288L11.2857 16.6412C11.6762 17.0317 12.3094 17.0317 12.6999 16.6412L13.4114 15.9297Z" fill="black"/>
</svg>
