<svg width="24" height="24" viewBox="0 0 24 24" fill="none" xmlns="http://www.w3.org/2000/svg">
<path fill-rule="evenodd" clip-rule="evenodd" d="M3.88818 21.0001H20.1372C20.6892 21.0001 21.1372 20.5501 21.1372 20.0001C21.1372 19.4501 20.6892 19.0001 20.1372 19.0001H3.88818C3.33618 19.0001 2.88818 19.4501 2.88818 20.0001C2.88818 20.5501 3.33618 21.0001 3.88818 21.0001ZM10.9932 13.5201L7.08818 9.61008C6.69818 9.22008 6.06418 9.22008 5.67418 9.61008C5.28318 10.0001 5.28318 10.6401 5.67418 11.0301L11.2862 16.6401C11.6762 17.0301 12.3102 17.0301 12.7002 16.6401L18.3122 11.0301C18.7032 10.6401 18.7032 10.0001 18.3122 9.61008C17.9222 9.22008 17.2882 9.22008 16.8982 9.61008L12.9932 13.5201V3.08008C12.9932 2.53008 12.5452 2.08008 11.9932 2.08008C11.4412 2.08008 10.9932 2.53008 10.9932 3.08008V13.5201Z" fill="black"/>
</svg>
