<svg width="12" height="12" viewBox="0 0 12 12" fill="none" xmlns="http://www.w3.org/2000/svg">
<path fill-rule="evenodd" clip-rule="evenodd" d="M1.60498 11.9439H10.4C10.952 11.9439 11.4 11.4959 11.4 10.9439C11.4 10.3919 10.952 9.94388 10.4 9.94388H1.60498C1.05298 9.94388 0.60498 10.3919 0.60498 10.9439C0.60498 11.4959 1.05298 11.9439 1.60498 11.9439ZM4.99598 5.82387L3.41598 4.30088C3.01898 3.91788 2.38498 3.92888 2.00198 4.32688C1.61898 4.72388 1.63098 5.35787 2.02798 5.74087L5.30198 8.89787C5.68898 9.27087 6.30298 9.27087 6.68998 8.89787L9.96398 5.74087C10.361 5.35787 10.373 4.72388 9.98998 4.32688C9.60598 3.92888 8.97298 3.91788 8.57598 4.30088L6.99598 5.82387V1.29688C6.99598 0.744875 6.54798 0.296875 5.99598 0.296875C5.44398 0.296875 4.99598 0.744875 4.99598 1.29688V5.82387Z" fill="black"/>
</svg>
