<svg width="16" height="16" viewBox="0 0 16 16" fill="none" xmlns="http://www.w3.org/2000/svg">
<path fill-rule="evenodd" clip-rule="evenodd" d="M11.2435 13.0995H3.01084C2.51404 13.0995 2.11084 13.5028 2.11084 13.9995C2.11084 14.4962 2.51404 14.8995 3.01084 14.8995H13.0059L13.04 14.8961L11.2435 13.0995ZM11.7703 8.54608L12.3925 7.92388C12.7437 7.57268 12.7437 7.00238 12.3925 6.65108C12.0412 6.29988 11.4709 6.29988 11.1197 6.65108L10.4975 7.27328L8.89524 5.67098V2.73698C8.89524 2.24028 8.49204 1.83698 7.99524 1.83698C7.49854 1.83698 7.09524 2.24028 7.09524 2.73698V3.87098L3.81874 0.594478C3.48704 0.262778 2.94834 0.262778 2.61664 0.594478C2.28494 0.926178 2.28494 1.46488 2.61664 1.79658L14.3031 13.483C14.6348 13.8148 15.1734 13.8148 15.5052 13.483C15.8369 13.1513 15.8369 12.6127 15.5052 12.281L11.7703 8.54608ZM9.23024 11.0862L4.62464 6.48058C4.29074 6.31518 3.87584 6.37328 3.59804 6.65108C3.24684 7.00238 3.24684 7.57268 3.59804 7.92388L7.35894 11.6847C7.71034 12.0362 8.28024 12.0362 8.63164 11.6847L9.23024 11.0862Z" fill="black"/>
</svg>
