<svg width="16" height="16" viewBox="0 0 16 16" fill="none" xmlns="http://www.w3.org/2000/svg">
<path fill-rule="evenodd" clip-rule="evenodd" d="M3.01084 14.8998H13.0059C13.5029 14.8998 13.9059 14.4998 13.9059 13.9998C13.9059 13.4998 13.5029 13.0998 13.0059 13.0998H3.01084C2.51404 13.0998 2.11084 13.4998 2.11084 13.9998C2.11084 14.4998 2.51404 14.8998 3.01084 14.8998ZM7.09494 8.87984L4.87094 6.64984C4.51994 6.29984 3.94934 6.29984 3.59804 6.64984C3.24684 6.99984 3.24684 7.56984 3.59804 7.91984L7.35894 11.6898C7.70994 12.0398 8.27994 12.0398 8.63194 11.6898L12.3929 7.91984C12.7439 7.56984 12.7439 6.99984 12.3929 6.64984C12.0409 6.29984 11.4709 6.29984 11.1199 6.64984L8.89494 8.87984V2.73984C8.89494 2.23984 8.49194 1.83984 7.99494 1.83984C7.49894 1.83984 7.09494 2.23984 7.09494 2.73984V8.87984Z" fill="black"/>
</svg>
