<svg width="24" height="24" viewBox="0 0 24 24" fill="none" xmlns="http://www.w3.org/2000/svg">
<path fill-rule="evenodd" clip-rule="evenodd" d="M3.97998 18H20.01C20.56 18 21.01 17.552 21.01 17C21.01 16.448 20.56 16 20.01 16H3.97998C3.42998 16 2.97998 16.448 2.97998 17C2.97998 17.552 3.42998 18 3.97998 18ZM3.97998 13H20.01C20.56 13 21.01 12.552 21.01 12C21.01 11.448 20.56 11 20.01 11H3.97998C3.42998 11 2.97998 11.448 2.97998 12C2.97998 12.552 3.42998 13 3.97998 13ZM3.97998 8H20.01C20.56 8 21.01 7.552 21.01 7C21.01 6.448 20.56 6 20.01 6H3.97998C3.42998 6 2.97998 6.448 2.97998 7C2.97998 7.552 3.42998 8 3.97998 8Z" fill="black"/>
</svg>
