<svg width="24" height="24" viewBox="0 0 24 24" fill="none" xmlns="http://www.w3.org/2000/svg">
<path fill-rule="evenodd" clip-rule="evenodd" d="M10.4898 1.81813L9.23976 3.36812L7.07976 2.78813C6.55976 2.63813 5.99976 2.74813 5.55976 3.06813C5.11976 3.38812 4.84976 3.88812 4.81976 4.42812L4.69976 6.65812L2.84976 7.36812C2.27976 7.58812 1.84976 8.04812 1.65976 8.61812C1.46976 9.19812 1.54976 9.82812 1.87976 10.3281L2.96976 11.9981L1.87976 13.6681C1.54976 14.1681 1.46976 14.7981 1.65976 15.3781C1.84976 15.9481 2.27976 16.4081 2.84976 16.6281L4.69976 17.3381L4.79976 19.3181C4.83976 19.9181 5.13976 20.4781 5.62976 20.8381C6.11976 21.1881 6.73976 21.3081 7.31976 21.1481L9.23976 20.6281L10.4898 22.1781C10.8698 22.6481 11.4398 22.9181 12.0498 22.9181C12.6498 22.9181 13.2198 22.6481 13.5998 22.1781L14.8498 20.6281L16.7698 21.1481C17.3598 21.3081 17.9798 21.1881 18.4698 20.8381C18.9598 20.4781 19.2598 19.9181 19.2898 19.3181L19.3898 17.3381L21.2498 16.6281C21.8098 16.4081 22.2498 15.9481 22.4398 15.3781C22.6198 14.7981 22.5398 14.1681 22.2098 13.6681L21.1298 11.9981L22.2098 10.3281C22.5398 9.82812 22.6198 9.19812 22.4398 8.61812C22.2498 8.04812 21.8098 7.58812 21.2498 7.36812L19.3898 6.65812L19.2898 4.67812C19.2598 4.07812 18.9598 3.51813 18.4698 3.15812C17.9798 2.80812 17.3598 2.68813 16.7698 2.84812L14.8498 3.36812L13.5998 1.81813C13.2198 1.34813 12.6498 1.07812 12.0498 1.07812C11.4398 1.07812 10.8698 1.34813 10.4898 1.81813ZM15.0098 13.1881C15.1898 13.2081 15.2998 13.2481 15.3598 13.3081C15.4198 13.3681 15.4498 13.4481 15.4498 13.5681C15.4498 13.8381 15.1998 13.9881 14.6598 13.9881C14.3198 13.9881 13.9898 13.9181 13.6498 13.7781C13.2898 13.6381 13.2098 13.6081 13.0698 13.5881C13.0398 13.5881 13.0098 13.5881 12.9798 13.5881C12.7698 13.5881 12.5898 13.6481 12.4398 13.7881C12.2798 13.9381 12.1798 14.1781 12.1798 14.3881C12.1798 14.8681 12.4798 15.1581 13.1198 15.3981C13.5298 15.5481 14.0098 15.6081 14.6498 15.6081C16.1798 15.6081 17.2898 14.8081 17.2898 13.5381C17.2898 12.8981 17.1298 12.4181 16.7598 12.0881C16.4598 11.7981 16.0198 11.6181 15.4098 11.5381L14.6298 11.4381C14.4598 11.4081 14.3398 11.3581 14.2598 11.2881C14.1998 11.2381 14.1798 11.1681 14.1798 11.0681C14.1798 10.8681 14.4098 10.6881 14.8198 10.6881C15.0998 10.6881 15.3898 10.7481 15.6498 10.8481C15.9198 10.9581 16.0898 11.0081 16.2698 11.0081C16.4998 11.0081 16.6998 10.9081 16.8398 10.7481C16.9798 10.5981 17.0598 10.3781 17.0598 10.1881C17.0598 9.80812 16.7698 9.49813 16.3098 9.31812C15.8698 9.15812 15.4198 9.07812 14.8698 9.07812C13.3598 9.07812 12.3598 9.91813 12.3598 11.1581C12.3598 11.7281 12.5298 12.1781 12.8498 12.4981C13.1698 12.8081 13.6298 12.9981 14.2298 13.0781L15.0098 13.1881ZM6.57976 10.4581L8.09976 14.7781C8.20976 15.0881 8.30976 15.2481 8.45976 15.3781C8.62976 15.5281 8.82976 15.5981 9.08976 15.5981C9.34976 15.5981 9.54976 15.5281 9.71976 15.3781C9.87976 15.2481 9.96976 15.0881 10.0798 14.7781L11.5998 10.4581C11.7198 10.1181 11.7498 9.97812 11.7198 9.78813C11.6598 9.35812 11.2298 9.08813 10.8098 9.08813C10.5898 9.08813 10.3898 9.16813 10.2398 9.30813C10.0998 9.44813 10.0398 9.55813 9.91976 9.91813L9.08976 12.3381L8.25976 9.91813C8.13976 9.55813 8.07976 9.44813 7.93976 9.30813C7.78976 9.16813 7.58976 9.08813 7.36976 9.08813C6.94976 9.08813 6.51976 9.35812 6.45976 9.78813C6.42976 9.97812 6.45976 10.1181 6.57976 10.4581Z" fill="black"/>
</svg>
