<svg width="24" height="24" viewBox="0 0 24 24" fill="none" xmlns="http://www.w3.org/2000/svg">
<path fill-rule="evenodd" clip-rule="evenodd" d="M10.16 2.14219L9.22004 3.30219L7.77004 2.91219C7.07004 2.72219 6.31004 2.86219 5.72004 3.29219C5.13004 3.72219 4.76004 4.40219 4.72004 5.13219L4.65004 6.62219L3.25004 7.16219C2.57004 7.42219 2.04004 7.98219 1.81004 8.67219C1.58004 9.37219 1.69004 10.1322 2.08004 10.7422L2.90004 12.0022L2.08004 13.2622C1.69004 13.8722 1.58004 14.6322 1.81004 15.3322C2.04004 16.0222 2.57004 16.5822 3.25004 16.8422L4.65004 17.3822L4.72004 18.8722C4.76004 19.6022 5.13004 20.2822 5.72004 20.7122C6.31004 21.1422 7.07004 21.2822 7.77004 21.0922L9.22004 20.7022L10.16 21.8622C10.62 22.4322 11.31 22.7622 12.05 22.7622C12.78 22.7622 13.47 22.4322 13.93 21.8622L14.87 20.7022L16.32 21.0922C17.03 21.2822 17.78 21.1422 18.37 20.7122C18.97 20.2822 19.33 19.6022 19.37 18.8722L19.45 17.3822L20.84 16.8422C21.53 16.5822 22.06 16.0222 22.28 15.3322C22.51 14.6322 22.41 13.8722 22.01 13.2622L21.19 12.0022L22.01 10.7422C22.41 10.1322 22.51 9.37219 22.28 8.67219C22.06 7.98219 21.53 7.42219 20.84 7.16219L19.45 6.62219L19.37 5.13219C19.33 4.40219 18.97 3.72219 18.37 3.29219C17.78 2.86219 17.03 2.72219 16.32 2.91219L14.87 3.30219L13.93 2.14219C13.47 1.57219 12.78 1.24219 12.05 1.24219C11.31 1.24219 10.62 1.57219 10.16 2.14219ZM11.72 3.39219C11.8 3.30219 11.92 3.24219 12.05 3.24219C12.17 3.24219 12.3 3.30219 12.38 3.39219L13.73 5.07219C13.98 5.37219 14.38 5.50219 14.76 5.40219L16.84 4.84219C16.96 4.81219 17.09 4.84219 17.2 4.91219C17.3 4.99219 17.36 5.10219 17.37 5.23219L17.48 7.38219C17.5 7.77219 17.75 8.12219 18.12 8.26219L20.13 9.03219C20.25 9.07219 20.34 9.17219 20.38 9.29219C20.42 9.41219 20.4 9.55219 20.33 9.65219L19.16 11.4522C18.95 11.7922 18.95 12.2122 19.16 12.5522L20.33 14.3522C20.4 14.4522 20.42 14.5922 20.38 14.7122C20.34 14.8322 20.25 14.9322 20.13 14.9722L18.12 15.7422C17.75 15.8822 17.5 16.2322 17.48 16.6222L17.37 18.7722C17.36 18.9022 17.3 19.0122 17.2 19.0922C17.09 19.1622 16.96 19.1922 16.84 19.1622L14.76 18.6022C14.38 18.5022 13.98 18.6322 13.73 18.9322L12.38 20.6122C12.3 20.7022 12.17 20.7622 12.05 20.7622C11.92 20.7622 11.8 20.7022 11.72 20.6122L10.37 18.9322C10.12 18.6322 9.71004 18.5022 9.33004 18.6022L7.26004 19.1622C7.13004 19.1922 7.00004 19.1622 6.90004 19.0922C6.79004 19.0122 6.73004 18.9022 6.72004 18.7722L6.61004 16.6222C6.59004 16.2322 6.34004 15.8822 5.97004 15.7422L3.96004 14.9722C3.85004 14.9322 3.75004 14.8322 3.71004 14.7122C3.67004 14.5922 3.69004 14.4522 3.76004 14.3522L4.93004 12.5522C5.15004 12.2122 5.15004 11.7922 4.93004 11.4522L3.76004 9.65219C3.69004 9.55219 3.67004 9.41219 3.71004 9.29219C3.75004 9.17219 3.85004 9.07219 3.96004 9.03219L5.97004 8.26219C6.34004 8.12219 6.59004 7.77219 6.61004 7.38219L6.72004 5.23219C6.73004 5.10219 6.79004 4.99219 6.90004 4.91219C7.00004 4.84219 7.13004 4.81219 7.26004 4.84219L9.33004 5.40219C9.71004 5.50219 10.12 5.37219 10.37 5.07219L11.72 3.39219Z" fill="black"/>
<path d="M15.01 13.192C15.19 13.212 15.3 13.252 15.36 13.312C15.42 13.372 15.45 13.452 15.45 13.572C15.45 13.842 15.2 13.992 14.66 13.992C14.32 13.992 13.99 13.922 13.65 13.782C13.29 13.642 13.21 13.612 13.07 13.592H12.98C12.77 13.592 12.59 13.652 12.44 13.792C12.28 13.942 12.18 14.182 12.18 14.392C12.18 14.872 12.48 15.162 13.12 15.402C13.53 15.552 14.01 15.612 14.65 15.612C16.18 15.612 17.29 14.812 17.29 13.542C17.29 12.902 17.13 12.422 16.76 12.092C16.46 11.802 16.02 11.622 15.41 11.542L14.63 11.442C14.46 11.412 14.34 11.362 14.26 11.292C14.2 11.242 14.18 11.172 14.18 11.072C14.18 10.872 14.41 10.692 14.82 10.692C15.1 10.692 15.39 10.752 15.65 10.852C15.92 10.962 16.09 11.012 16.27 11.012C16.5 11.012 16.7 10.912 16.84 10.752C16.98 10.602 17.06 10.382 17.06 10.192C17.06 9.81203 16.77 9.50203 16.31 9.32203C15.87 9.16203 15.42 9.08203 14.87 9.08203C13.36 9.08203 12.36 9.92203 12.36 11.162C12.36 11.732 12.53 12.182 12.85 12.502C13.17 12.812 13.63 13.002 14.23 13.082L15.01 13.192Z" fill="black"/>
<path d="M6.58004 10.462L8.10004 14.782C8.21004 15.092 8.31004 15.252 8.46004 15.382C8.63004 15.532 8.83004 15.602 9.09004 15.602C9.35004 15.602 9.55004 15.532 9.72004 15.382C9.88004 15.252 9.97004 15.092 10.08 14.782L11.6 10.462C11.72 10.122 11.75 9.98203 11.72 9.79203C11.66 9.36203 11.23 9.09203 10.81 9.09203C10.59 9.09203 10.39 9.17203 10.24 9.31203C10.1 9.45203 10.04 9.56203 9.92004 9.92203L9.09004 12.342L8.26004 9.92203C8.14004 9.56203 8.08004 9.45203 7.94004 9.31203C7.79004 9.17203 7.59004 9.09203 7.37004 9.09203C6.95004 9.09203 6.52004 9.36203 6.46004 9.79203C6.43004 9.98203 6.46004 10.122 6.58004 10.462Z" fill="black"/>
</svg>
