<svg width="16" height="16" viewBox="0 0 16 16" fill="none" xmlns="http://www.w3.org/2000/svg">
<path fill-rule="evenodd" clip-rule="evenodd" d="M7.99508 1.33008C4.3168 1.33008 1.33008 4.31862 1.33008 7.99963C1.33008 11.6715 4.3168 14.6601 7.99508 14.6601C11.6734 14.6601 14.6601 11.6715 14.6601 7.99963C14.6601 4.31862 11.6734 1.33008 7.99508 1.33008ZM13.1631 8.40053C12.9471 8.4552 12.7412 8.43698 12.5809 8.31853C12.1062 7.96318 11.8264 7.34361 11.298 7.31627C10.7686 7.27983 10.7003 7.00649 10.549 7.00649C10.3978 7.0156 10.1691 7.24338 10.6146 7.47117C11.0602 7.70806 10.7203 8.12719 10.4169 8.11808C9.91396 8.10897 9.4921 7.69895 9.17502 7.38005C8.85703 7.05204 8.59827 7.56228 8.80783 7.85385C9.09757 8.24564 9.99778 8.71943 10.0096 9.04744C10.0206 9.38456 9.8438 9.83102 9.53492 10.1226C9.22604 10.4142 9.124 10.8788 8.90623 11.5804C8.66752 12.3549 8.44155 12.8833 7.69168 12.8105C6.87894 12.7376 6.69581 11.8446 6.6384 11.2251C6.59285 10.7239 6.59558 9.82191 6.28397 9.53035C5.97236 9.24789 5.48216 9.32078 4.8553 9.175C4.08538 8.98366 3.38745 8.07252 4.4954 7.17049C5.00837 6.75137 5.48216 6.70581 5.97236 6.68759C6.55093 6.66025 6.81334 7.22516 7.69806 7.04293C8.33586 6.91537 7.97505 6.35957 8.31126 6.28668C9.17775 6.11357 8.89074 5.60333 8.39782 5.62155C7.90398 5.63977 7.73177 5.51221 7.3418 5.49399C6.71312 5.47577 6.43704 5.17509 5.86484 5.31176C5.27989 5.44843 5.04573 5.11131 5.35825 4.76508C5.61975 4.4644 5.90858 4.29128 6.27941 4.20928C7.03111 4.03616 7.10126 3.65348 6.71949 3.5897C6.28306 3.51681 6.05892 3.52592 6.03523 3.19791C6.63931 2.94279 7.30171 2.80612 7.99509 2.80612C10.8588 2.80612 13.184 5.12953 13.184 7.99963L13.1631 8.40053Z" fill="black"/>
</svg>
