<svg width="24" height="24" viewBox="0 0 24 24" fill="none" xmlns="http://www.w3.org/2000/svg">
<path fill-rule="evenodd" clip-rule="evenodd" d="M20.9419 8.77169C21.5049 8.20869 21.8209 7.44569 21.8209 6.64969C21.8209 5.85469 21.5049 5.09169 20.9419 4.52869C20.7859 4.37269 20.6279 4.21469 20.4719 4.05869C19.9089 3.49569 19.1459 3.17969 18.3509 3.17969C17.5549 3.17969 16.7919 3.49569 16.2289 4.05869C12.9649 7.32269 5.18187 15.1057 5.18187 15.1057C5.04487 15.2427 4.95087 15.4167 4.91087 15.6057L4.02187 19.7927C3.95137 20.1237 4.05387 20.4687 4.29287 20.7077C4.53187 20.9467 4.87687 21.0497 5.20787 20.9787L9.39487 20.0897C9.58387 20.0497 9.75787 19.9557 9.89487 19.8187L20.9419 8.77169ZM15.3219 7.79469L17.2059 9.67869L8.68987 18.1947L6.29787 18.7027L6.80587 16.3107L15.3219 7.79469ZM18.6209 8.26469L16.7359 6.37969L17.6439 5.47269C17.8309 5.28569 18.0859 5.17969 18.3509 5.17969C18.6159 5.17969 18.8699 5.28569 19.0579 5.47269L19.5279 5.94269C19.7149 6.13069 19.8209 6.38469 19.8209 6.64969C19.8209 6.91469 19.7149 7.16969 19.5279 7.35669L18.6209 8.26469Z" fill="black"/>
</svg>
