<svg width="12" height="12" viewBox="0 0 12 12" fill="none" xmlns="http://www.w3.org/2000/svg">
<path fill-rule="evenodd" clip-rule="evenodd" d="M11.1891 4.27683C11.8921 3.57383 11.8921 2.43413 11.1891 1.73123L10.3161 0.85823C9.6131 0.15533 8.4741 0.15533 7.7711 0.85823C6.0161 2.61233 1.6061 7.02293 1.6061 7.02293C1.4821 7.14703 1.4021 7.30863 1.3791 7.48263L1.0261 10.1227C0.993095 10.3698 1.0771 10.6182 1.2531 10.7944C1.4291 10.9707 1.6781 11.0547 1.9251 11.0217L4.5651 10.6687C4.7391 10.6454 4.9001 10.5656 5.0241 10.4414C5.0241 10.4414 9.4351 6.03093 11.1891 4.27683ZM7.3321 3.55933L8.4881 4.71513L4.0841 9.11873L2.7501 9.29713L2.9291 7.96293L7.3321 3.55933ZM9.6191 3.58373L8.4641 2.42793L8.9021 1.98963C8.9801 1.91153 9.1071 1.91153 9.1851 1.98953L10.0581 2.86253C10.1361 2.94073 10.1361 3.06733 10.0581 3.14543L9.6191 3.58373Z" fill="black"/>
</svg>
