<svg width="16" height="16" viewBox="0 0 16 16" fill="none" xmlns="http://www.w3.org/2000/svg">
<path fill-rule="evenodd" clip-rule="evenodd" d="M13.7917 6.14184C14.2227 5.71084 14.4657 5.12584 14.4657 4.51584C14.4657 3.90584 14.2227 3.32084 13.7917 2.88884C13.6667 2.76484 13.5397 2.63784 13.4157 2.51284C12.9847 2.08184 12.3997 1.83984 11.7897 1.83984C11.1797 1.83984 10.5947 2.08184 10.1627 2.51284C7.8467 4.82984 2.5407 10.1358 2.5407 10.1358C2.4237 10.2528 2.3457 10.4028 2.3177 10.5648L1.7977 13.5828C1.7537 13.8388 1.8367 14.0998 2.0207 14.2838C2.2047 14.4678 2.4657 14.5508 2.7217 14.5068L5.7397 13.9868C5.9027 13.9588 6.0527 13.8808 6.1697 13.7638L13.7917 6.14184ZM9.6787 5.25984L11.0447 6.62584L5.2177 12.4528L3.5667 12.7378L3.8517 11.0868L9.6787 5.25984ZM12.1767 5.49484L10.8107 4.12884L11.2947 3.64484C11.4257 3.51284 11.6037 3.43984 11.7897 3.43984C11.9747 3.43984 12.1527 3.51284 12.2847 3.64484L12.6597 4.02084C12.7917 4.15184 12.8657 4.32984 12.8657 4.51584C12.8657 4.70084 12.7917 4.87884 12.6597 5.01084L12.1767 5.49484Z" fill="black"/>
</svg>
