<svg width="24" height="24" viewBox="0 0 24 24" fill="none" xmlns="http://www.w3.org/2000/svg">
<path fill-rule="evenodd" clip-rule="evenodd" d="M4.62401 11.2966L1.66031 10.2456C1.01131 10.0155 0.576714 9.40293 0.573914 8.71443C0.572914 8.47733 0.571814 8.18653 0.570814 7.94953C0.568014 7.26183 0.996714 6.64623 1.64271 6.41023C3.58421 5.70113 11.6479 2.75603 11.6479 2.75603C11.8678 2.67573 12.1088 2.67503 12.3291 2.75423C12.3291 2.75423 20.4344 5.66643 22.3851 6.36733C23.0335 6.60033 23.4657 7.21553 23.4651 7.90453L23.4643 8.66833C23.4643 8.71133 23.4625 8.75403 23.4592 8.79643L23.4518 14.885C23.4512 15.3817 23.0474 15.7845 22.5507 15.7839C22.054 15.7833 21.6512 15.3795 21.6518 14.8828L21.6572 10.4617L19.3762 11.2753V16.8886C19.3762 17.3378 19.164 17.9514 18.5513 18.5367C17.6296 19.4171 15.5796 20.4145 12.0001 20.4145C8.42061 20.4145 6.37061 19.4171 5.44891 18.5367C4.83621 17.9514 4.62401 17.3378 4.62401 16.8886V11.2966ZM17.3762 11.9888L12.327 13.7899C12.1103 13.8672 11.8736 13.8674 11.6567 13.7905L6.62401 12.0059V16.828C6.66741 16.8851 6.88461 17.1609 7.12481 17.3272C7.98371 17.922 9.55602 18.4145 12.0001 18.4145C14.4442 18.4145 16.0165 17.922 16.8754 17.3272C17.1156 17.1609 17.3328 16.8851 17.3762 16.828V11.9888ZM2.57181 8.20013L2.57281 8.44723L11.99 11.7867L21.4646 8.40693L21.4648 8.16193L11.9938 4.75893L2.57181 8.20013Z" fill="black"/>
</svg>
