<svg width="16" height="16" viewBox="0 0 16 16" fill="none" xmlns="http://www.w3.org/2000/svg">
<path fill-rule="evenodd" clip-rule="evenodd" d="M14.3791 7.15L13.1211 7.6V11.81C13.1211 12.14 12.9711 12.59 12.5251 13.02C11.8881 13.63 10.4741 14.33 8.00006 14.33C5.52606 14.33 4.11206 13.63 3.47506 13.02C3.02906 12.59 2.87906 12.14 2.87906 11.81V7.62L1.19606 7.01C0.630065 6.81 0.251065 6.27 0.249065 5.67C0.248065 5.6 0.248065 5.52 0.248065 5.44C0.245065 4.84 0.619065 4.3 1.18306 4.09C2.67906 3.54 7.71606 1.67 7.71606 1.67C7.89406 1.61 8.08906 1.61 8.26806 1.67L14.8351 4.06C15.4011 4.27 15.7771 4.81 15.7771 5.41L15.7761 5.64C15.7761 5.66 15.7761 5.68 15.7751 5.71C15.7791 5.74 15.7811 5.77 15.7811 5.8L15.7761 9.96C15.7751 10.34 15.4611 10.66 15.0751 10.66C14.6891 10.66 14.3751 10.34 14.3761 9.95L14.3791 7.15ZM11.5211 8.18L8.26606 9.36C8.09106 9.42 7.89907 9.42 7.72306 9.36L4.47906 8.19V11.74C4.51906 11.79 4.64406 11.93 4.76707 12.01C5.33607 12.41 6.38006 12.73 8.00006 12.73C9.62006 12.73 10.6641 12.41 11.2331 12.01C11.3561 11.93 11.4811 11.79 11.5211 11.74V8.18ZM1.85306 5.55L7.99306 7.75L14.1701 5.52L7.99606 3.28L1.85306 5.55Z" fill="black"/>
</svg>
