<svg width="16" height="16" viewBox="0 0 16 16" fill="none" xmlns="http://www.w3.org/2000/svg">
<path d="M7.98082 1.10938C8.64356 1.10938 9.18082 1.64663 9.18082 2.30938V13.6537C9.18082 14.3164 8.64356 14.8537 7.98082 14.8537C7.31808 14.8537 6.78082 14.3164 6.78082 13.6537V2.30938C6.78082 1.64663 7.31808 1.10938 7.98082 1.10938Z" fill="black"/>
<path d="M4.18662 5.24678C4.18662 4.58404 3.64936 4.04678 2.98662 4.04678C2.32388 4.04678 1.78662 4.58404 1.78662 5.24678V10.7019C1.78662 11.3646 2.32388 11.9019 2.98662 11.9019C3.64936 11.9019 4.18662 11.3646 4.18662 10.7019V5.24678Z" fill="black"/>
<path d="M14.1816 6.99907C14.1816 6.33633 13.6444 5.79907 12.9816 5.79907C12.3189 5.79907 11.7816 6.33633 11.7816 6.99907V8.94957C11.7816 9.61231 12.3189 10.1496 12.9816 10.1496C13.6444 10.1496 14.1816 9.61231 14.1816 8.94957V6.99907Z" fill="black"/>
</svg>
