<svg width="16" height="16" viewBox="0 0 16 16" fill="none" xmlns="http://www.w3.org/2000/svg">
<path d="M12.9998 6.39062C13.6625 6.39062 14.1998 6.92788 14.1998 7.59063V8.36372C14.1998 9.02647 13.6625 9.56372 12.9998 9.56372C12.3371 9.56372 11.7998 9.02647 11.7998 8.36372V7.59063C11.7998 6.92788 12.3371 6.39062 12.9998 6.39062Z" fill="black"/>
<path d="M9.1998 7.59063C9.1998 6.92788 8.66255 6.39062 7.9998 6.39062C7.33706 6.39062 6.7998 6.92788 6.7998 7.59063V8.36372C6.7998 9.02647 7.33706 9.56372 7.9998 9.56372C8.66255 9.56372 9.1998 9.02647 9.1998 8.36372V7.59063Z" fill="black"/>
<path d="M4.1998 7.59063C4.1998 6.92788 3.66255 6.39062 2.9998 6.39062C2.33706 6.39062 1.7998 6.92788 1.7998 7.59063V8.36372C1.7998 9.02647 2.33706 9.56372 2.9998 9.56372C3.66255 9.56372 4.1998 9.02647 4.1998 8.36372V7.59063Z" fill="black"/>
</svg>
