<svg width="16" height="16" viewBox="0 0 16 16" fill="none" xmlns="http://www.w3.org/2000/svg">
<path d="M7.98082 1.10938C8.64356 1.10938 9.18082 1.64663 9.18082 2.30938V13.6537C9.18082 14.3164 8.64356 14.8537 7.98082 14.8537C7.31808 14.8537 6.78082 14.3164 6.78082 13.6537V2.30938C6.78082 1.64663 7.31808 1.10938 7.98082 1.10938Z" fill="black"/>
<path d="M14.1993 2.30938C14.1993 1.64663 13.6621 1.10938 12.9993 1.10938C12.3366 1.10938 11.7993 1.64663 11.7993 2.30938V13.6537C11.7993 14.3164 12.3366 14.8537 12.9993 14.8537C13.6621 14.8537 14.1993 14.3164 14.1993 13.6537V2.30938Z" fill="black"/>
<path d="M4.17002 2.30938C4.17002 1.64663 3.63276 1.10938 2.97002 1.10938C2.30728 1.10938 1.77002 1.64663 1.77002 2.30938V13.6537C1.77002 14.3164 2.30728 14.8537 2.97002 14.8537C3.63276 14.8537 4.17002 14.3164 4.17002 13.6537V2.30938Z" fill="black"/>
</svg>
