<svg width="24" height="24" viewBox="0 0 24 24" fill="none" xmlns="http://www.w3.org/2000/svg">
<path fill-rule="evenodd" clip-rule="evenodd" d="M12.8198 14.142C12.5798 14.03 12.3098 13.969 12.0298 13.969C11.7398 13.969 11.4198 13.969 11.0998 13.969C10.3298 13.969 9.5898 14.274 9.0498 14.818C8.4998 15.362 8.1998 16.099 8.1998 16.869C8.1998 17.843 8.1998 19.013 8.1998 19.987C8.1998 20.757 8.4998 21.494 9.0498 22.038C9.5898 22.582 10.3298 22.888 11.0998 22.888C11.4198 22.888 11.7398 22.888 12.0298 22.888C12.7898 22.888 13.4398 22.447 13.7498 21.805C14.5298 22.458 15.5198 22.86 16.6098 22.883C18.4098 22.921 19.3298 22.714 20.5398 22.451C21.6498 22.209 22.4898 21.442 23.0598 20.38C23.7898 19.013 24.0498 17.137 23.9298 15.587C23.8398 14.521 22.9498 13.562 21.8698 13.279C21.1098 13.081 20.3798 12.92 19.3698 12.797C19.5498 11.951 19.7198 11.097 19.7998 10.227C19.9398 8.74 18.8498 7.69 17.6698 7.606C16.8898 7.55 16.0298 7.892 15.4798 8.892C14.8298 10.079 14.3098 11.153 12.9698 13.825L12.8198 14.142ZM12.1498 16.762V15.89C12.1498 15.823 12.0898 15.769 12.0298 15.769H11.0998C10.8098 15.769 10.5298 15.884 10.3198 16.091C10.1098 16.297 9.9998 16.577 9.9998 16.869V19.987C9.9998 20.279 10.1098 20.559 10.3198 20.765C10.5298 20.972 10.8098 21.088 11.0998 21.088H12.0298C12.0898 21.088 12.1498 21.033 12.1498 20.966V18.815C12.1298 18.644 12.1198 18.47 12.1198 18.293V17.44C12.1198 17.213 12.1198 16.986 12.1498 16.762ZM13.9498 18.683C14.1298 20.019 15.2598 21.054 16.6498 21.083C18.2498 21.117 19.0698 20.927 20.1498 20.692C20.7498 20.562 21.1698 20.103 21.4698 19.531C22.0498 18.449 22.2298 16.959 22.1298 15.732C22.1098 15.383 21.7698 15.113 21.4098 15.021C20.3898 14.754 19.4298 14.563 17.6098 14.447C17.1098 14.415 16.7298 13.987 16.7698 13.491C16.7898 13.053 17.1298 12.708 17.5498 12.656C17.7498 11.8 17.9298 10.938 18.0098 10.057C18.0498 9.703 17.8198 9.422 17.5398 9.402C17.3598 9.388 17.1898 9.523 17.0598 9.761C16.4098 10.933 15.8998 11.994 14.5798 14.63C14.2298 15.32 14.0198 16.066 13.9498 16.831V18.683ZM6.0998 16.752C2.6298 15.893 0.0498047 12.745 0.0498047 9C0.0498047 4.585 3.6298 1 8.0498 1C11.4098 1 14.2898 3.077 15.4698 6.018C14.8698 6.336 14.3198 6.832 13.8598 7.543C13.2098 4.932 10.8498 3 8.0498 3C4.7398 3 2.0498 5.689 2.0498 9C2.0498 11.796 3.9598 14.148 6.5498 14.805C6.2798 15.397 6.1198 16.057 6.0998 16.752ZM9.89981 5.387H7.0998C6.64981 5.387 6.2698 5.722 6.2098 6.17C6.2098 6.17 6.0798 7.164 5.9198 8.612C5.8798 8.921 6.00981 9.227 6.2498 9.419C6.4998 9.612 6.8198 9.665 7.1198 9.56C7.8898 9.28 8.8498 9.471 8.8498 10.419C8.8498 11.452 7.45981 11.621 6.5998 10.854C6.2298 10.522 5.6598 10.553 5.3298 10.922C4.9998 11.292 5.02981 11.861 5.39981 12.193C7.4698 14.054 10.6498 12.923 10.6498 10.419C10.6498 9.426 10.2398 8.715 9.65981 8.253C9.16981 7.862 8.5298 7.653 7.8398 7.641C7.8598 7.475 7.87981 7.323 7.89981 7.187H9.89981C10.3898 7.187 10.7998 6.783 10.7998 6.287C10.7998 5.79 10.3898 5.387 9.89981 5.387Z" fill="black"/>
</svg>
