<svg width="24" height="24" viewBox="0 0 24 24" fill="none" xmlns="http://www.w3.org/2000/svg">
<path fill-rule="evenodd" clip-rule="evenodd" d="M2.00146 16C2.00146 17.5913 2.63366 19.1174 3.75886 20.2426C4.88406 21.3679 6.41026 22 8.00156 22C10.5 22 13.5151 22 16.0135 22C17.6048 22 19.1309 21.3679 20.2562 20.2426C21.3814 19.1174 22.0135 17.5913 22.0135 16C22.0135 13.505 22.0135 10.495 22.0135 8C22.0135 6.4087 21.3814 4.8826 20.2562 3.7574C19.1309 2.6321 17.6048 2 16.0135 2C13.5151 2 10.5 2 8.00156 2C6.41026 2 4.88406 2.6321 3.75886 3.7574C2.63366 4.8826 2.00146 6.4087 2.00146 8C2.00146 10.495 2.00146 13.505 2.00146 16ZM4.00146 16C4.00146 13.505 4.00146 10.495 4.00146 8C4.00146 6.9391 4.42296 5.9217 5.17306 5.1716C5.92326 4.4214 6.94067 4 8.00156 4C10.5 4 13.5151 4 16.0135 4C17.0744 4 18.0918 4.4214 18.842 5.1716C19.5921 5.9217 20.0135 6.9391 20.0135 8C20.0135 10.495 20.0135 13.505 20.0135 16C20.0135 17.0609 19.5921 18.0783 18.842 18.8284C18.0918 19.5786 17.0744 20 16.0135 20C13.5151 20 10.5 20 8.00156 20C6.94067 20 5.92326 19.5786 5.17306 18.8284C4.42296 18.0783 4.00146 17.0609 4.00146 16ZM15.0751 14.9545H10.0295L10.0294 13.0692H14.2914C14.9252 13.0692 15.3651 12.6153 15.3651 12.0154C15.3651 11.3761 14.9217 10.9308 14.2914 10.9308H10.0295L10.0294 9.0622H15.0751C15.709 9.0622 16.1488 8.6297 16.1488 8.0084C16.1488 7.3691 15.7055 6.9237 15.0751 6.9237H8.94057C8.27856 6.9237 7.82136 7.3832 7.82136 8.0545V15.9622C7.82136 16.6335 8.27856 17.0929 8.94057 17.0929H15.0751C15.7055 17.0929 16.1488 16.6476 16.1488 16.0083C16.1488 15.387 15.709 14.9545 15.0751 14.9545Z" fill="black"/>
</svg>
