<svg width="16" height="16" viewBox="0 0 16 16" fill="none" xmlns="http://www.w3.org/2000/svg">
<path fill-rule="evenodd" clip-rule="evenodd" d="M2.60571 13.3942C1.70571 12.4942 1.19971 11.2732 1.19971 10.0002V6.00117C1.19971 4.72817 1.70571 3.50717 2.60571 2.60717C3.50571 1.70717 4.72671 1.20117 5.99971 1.20117H9.99971C11.2727 1.20117 12.4937 1.70717 13.3937 2.60717C14.2937 3.50717 14.7997 4.72817 14.7997 6.00117V10.0002C14.7997 11.2732 14.2937 12.4942 13.3937 13.3942C12.4937 14.2942 11.2727 14.8002 9.99971 14.8002H5.99971C4.72671 14.8002 3.50571 14.2942 2.60571 13.3942ZM6.68593 9.96959H10.0497C10.4723 9.96959 10.7655 10.2579 10.7655 10.6721C10.7655 11.0983 10.4699 11.3952 10.0497 11.3952H5.96C5.51867 11.3952 5.21387 11.0889 5.21387 10.6414V5.36959C5.21387 4.92206 5.51867 4.61572 5.96 4.61572H10.0497C10.4699 4.61572 10.7655 4.91266 10.7655 5.33886C10.7655 5.75306 10.4723 6.04139 10.0497 6.04139H6.68587L6.68593 7.28712H9.5272C9.9474 7.28712 10.243 7.58399 10.243 8.01019C10.243 8.41012 9.94973 8.71272 9.5272 8.71272H6.68587L6.68593 9.96959Z" fill="black"/>
</svg>
