<svg width="12" height="12" viewBox="0 0 12 12" fill="none" xmlns="http://www.w3.org/2000/svg">
<path fill-rule="evenodd" clip-rule="evenodd" d="M0.0898438 7.88372C0.0898438 10.0928 1.88064 11.8837 4.08984 11.8837C5.31304 11.8837 6.65804 11.8837 7.88124 11.8837C10.0904 11.8837 11.8812 10.0928 11.8812 7.88372C11.8812 6.65492 11.8812 5.30302 11.8812 4.07422C11.8812 1.86512 10.0904 0.0742188 7.88124 0.0742188C6.65804 0.0742188 5.31304 0.0742188 4.08984 0.0742188C1.88064 0.0742188 0.0898438 1.86512 0.0898438 4.07422C0.0898438 5.30302 0.0898438 6.65492 0.0898438 7.88372ZM7.91354 7.84102H4.93044V6.67152H7.44684C7.83354 6.67152 8.10754 6.38362 8.10754 5.99552C8.10754 5.58222 7.83104 5.30002 7.44684 5.30002H4.93044V4.14122L7.91354 4.14112C8.30024 4.14112 8.57424 3.86712 8.57424 3.46512C8.57424 3.05182 8.29774 2.76962 7.91354 2.76962H4.26074C3.85754 2.76962 3.57294 3.06072 3.57294 3.49422V8.48792C3.57294 8.92142 3.85754 9.21252 4.26074 9.21252H7.91354C8.29774 9.21252 8.57424 8.93022 8.57424 8.51702C8.57424 8.11502 8.30024 7.84102 7.91354 7.84102Z" fill="black"/>
</svg>
