<svg width="12" height="12" viewBox="0 0 12 12" fill="none" xmlns="http://www.w3.org/2000/svg">
<path fill-rule="evenodd" clip-rule="evenodd" d="M0.215332 7.98392C0.215332 10.0826 1.91663 11.7839 4.01533 11.7839C5.27143 11.7839 6.72863 11.7839 7.98473 11.7839C10.0834 11.7839 11.7847 10.0826 11.7847 7.98392C11.7847 6.72332 11.7847 5.25992 11.7847 3.99922C11.7847 1.90052 10.0834 0.199219 7.98473 0.199219C6.72863 0.199219 5.27143 0.199219 4.01533 0.199219C1.91663 0.199219 0.215332 1.90052 0.215332 3.99922V7.98392ZM1.81533 7.98402V3.99922C1.81533 2.78412 2.80033 1.79922 4.01533 1.79922C5.27143 1.79922 6.72863 1.79922 7.98473 1.79922C9.19973 1.79922 10.1847 2.78412 10.1847 3.99922V7.98392C10.1847 9.19902 9.19973 10.1839 7.98473 10.1839C6.72863 10.1839 5.27143 10.1839 4.01533 10.1839C2.80033 10.1839 1.81533 9.19902 1.81533 7.98402ZM7.82963 7.72262H5.04203V6.71192H7.38423C7.78683 6.71192 8.07393 6.41132 8.07393 6.00372C8.07393 5.57032 7.78373 5.27682 7.38423 5.27682H5.04203V4.27632H7.82963C8.23223 4.27632 8.51923 3.99032 8.51923 3.56812C8.51923 3.13472 8.22913 2.84122 7.82963 2.84122H4.34373C3.92603 2.84122 3.62823 3.14292 3.62823 3.59612V8.40272C3.62823 8.85592 3.92603 9.15772 4.34373 9.15772H7.82963C8.22913 9.15772 8.51923 8.86422 8.51923 8.43082C8.51923 8.00862 8.23223 7.72262 7.82963 7.72262Z" fill="black"/>
</svg>
