<svg width="24" height="24" viewBox="0 0 24 24" fill="none" xmlns="http://www.w3.org/2000/svg">
<path fill-rule="evenodd" clip-rule="evenodd" d="M2.00146 16C2.00146 17.5913 2.63366 19.1174 3.75886 20.2426C4.88406 21.3679 6.41026 22 8.00156 22C10.5 22 13.5151 22 16.0135 22C17.6048 22 19.1309 21.3679 20.2562 20.2426C21.3814 19.1174 22.0135 17.5913 22.0135 16C22.0135 13.505 22.0135 10.495 22.0135 8C22.0135 6.4087 21.3814 4.8826 20.2562 3.7574C19.1309 2.6321 17.6048 2 16.0135 2C13.5151 2 10.5 2 8.00156 2C6.41026 2 4.88406 2.6321 3.75886 3.7574C2.63366 4.8826 2.00146 6.4087 2.00146 8C2.00146 10.495 2.00146 13.505 2.00146 16ZM15.0751 14.9545H10.0295L10.0294 13.0692H14.2914C14.9252 13.0692 15.3651 12.6153 15.3651 12.0154C15.3651 11.3761 14.9217 10.9308 14.2914 10.9308H10.0295L10.0294 9.0622H15.0751C15.709 9.0622 16.1488 8.6297 16.1488 8.0084C16.1488 7.3691 15.7055 6.9237 15.0751 6.9237H8.94057C8.27856 6.9237 7.82136 7.3832 7.82136 8.0545V15.9622C7.82136 16.6335 8.27856 17.0929 8.94057 17.0929H15.0751C15.7055 17.0929 16.1488 16.6476 16.1488 16.0083C16.1488 15.387 15.709 14.9545 15.0751 14.9545Z" fill="black"/>
</svg>
