<svg width="24" height="24" viewBox="0 0 24 24" fill="none" xmlns="http://www.w3.org/2000/svg">
<path fill-rule="evenodd" clip-rule="evenodd" d="M8.59687 5.3143C9.85457 4.4912 11.3582 4.0127 12.9728 4.0127C17.3878 4.0127 20.9728 7.5917 20.9728 12.0009C20.9728 16.4101 17.3878 19.9891 12.9728 19.9891C11.3302 19.9891 9.80247 19.4939 8.53167 18.6445C8.07287 18.3378 7.45127 18.4613 7.14457 18.9201C6.83787 19.379 6.96137 20.0005 7.42027 20.3072C9.00917 21.3693 10.9191 21.9891 12.9728 21.9891C18.4923 21.9891 22.9728 17.5132 22.9728 12.0009C22.9728 6.4886 18.4923 2.0127 12.9728 2.0127C10.954 2.0127 9.07417 2.6117 7.50167 3.6408C7.03987 3.943 6.91027 4.5633 7.21247 5.0251C7.51467 5.4869 8.13497 5.6165 8.59687 5.3143ZM7.91837 14.6773H1.40967C0.857768 14.6773 0.409668 15.1254 0.409668 15.6773C0.409668 16.2292 0.857768 16.6773 1.40967 16.6773H7.91837C8.47027 16.6773 8.91837 16.2292 8.91837 15.6773C8.91837 15.1254 8.47027 14.6773 7.91837 14.6773ZM11.9216 6.9791V11.9976C11.9216 12.2894 12.0375 12.5691 12.2438 12.7754L14.8573 15.3889C15.2866 15.8182 15.9836 15.8182 16.4129 15.3889C16.8422 14.9596 16.8422 14.2626 16.4129 13.8333L14.1216 11.542V6.9791C14.1216 6.372 13.6287 5.8791 13.0216 5.8791C12.4145 5.8791 11.9216 6.372 11.9216 6.9791ZM9.29207 11.0004H2.78347C2.23157 11.0004 1.78347 11.4485 1.78347 12.0004C1.78347 12.5523 2.23157 13.0004 2.78347 13.0004H9.29207C9.84407 13.0004 10.2921 12.5523 10.2921 12.0004C10.2921 11.4485 9.84407 11.0004 9.29207 11.0004ZM7.91837 7.3235H1.40967C0.857768 7.3235 0.409668 7.7716 0.409668 8.3235C0.409668 8.8754 0.857768 9.3235 1.40967 9.3235H7.91837C8.47027 9.3235 8.91837 8.8754 8.91837 8.3235C8.91837 7.7716 8.47027 7.3235 7.91837 7.3235Z" fill="black"/>
</svg>
