<svg width="24" height="24" viewBox="0 0 24 24" fill="none" xmlns="http://www.w3.org/2000/svg">
<path fill-rule="evenodd" clip-rule="evenodd" d="M7.92471 6.76887L9.82891 3.29557C10.2679 2.49487 11.1085 1.99707 12.0216 1.99707C12.9348 1.99707 13.7754 2.49487 14.2143 3.29557L16.1186 6.76887L20.0103 7.50657C20.9075 7.67667 21.6406 8.32227 21.9228 9.19077C22.205 10.0592 21.9913 11.0125 21.3655 11.6774L18.6506 14.5617L19.1516 18.491C19.2671 19.3968 18.8797 20.2936 18.1409 20.8303C17.4021 21.367 16.4295 21.4584 15.6037 21.0687L12.0216 19.378L8.43951 21.0686C7.61371 21.4584 6.64111 21.367 5.90241 20.8303C5.16361 20.2936 4.77611 19.3968 4.89161 18.491L5.39261 14.5618L2.67781 11.6774C2.05191 11.0125 1.83831 10.0592 2.12051 9.19077C2.40261 8.32227 3.13581 7.67667 4.03301 7.50657L7.92471 6.76887ZM12.0226 3.99707C12.2054 3.99707 12.3737 4.09677 12.4616 4.25707L14.5928 8.14417C14.7364 8.40627 14.9898 8.59027 15.2834 8.64597L19.6388 9.47157C19.8184 9.50567 19.9652 9.63487 20.0217 9.80877C20.0782 9.98267 20.0354 10.1735 19.9101 10.3066L16.8718 13.5347C16.667 13.7523 16.5702 14.0501 16.608 14.3465L17.1687 18.7439C17.1918 18.9253 17.1142 19.1048 16.9663 19.2123C16.8184 19.3197 16.6237 19.338 16.4584 19.26L12.4494 17.3679C12.3073 17.3008 12.1533 17.269 12 17.2724L12.0226 3.99707Z" fill="black"/>
</svg>
