<svg width="12" height="12" viewBox="0 0 12 12" fill="none" xmlns="http://www.w3.org/2000/svg">
<path fill-rule="evenodd" clip-rule="evenodd" d="M4.67506 1.22166L3.68506 3.02746L1.66206 3.41106C1.11506 3.51466 0.669056 3.90796 0.497056 4.43696C0.325056 4.96596 0.455056 5.54666 0.836056 5.95176L2.24806 7.45136L1.98706 9.49426C1.91706 10.0461 2.15306 10.5923 2.60306 10.9193C3.05306 11.2463 3.64606 11.3019 4.14906 11.0645L6.01106 10.1855L7.87306 11.0645C8.37706 11.3019 8.96906 11.2463 9.41906 10.9193C9.86906 10.5923 10.1051 10.0461 10.0351 9.49426L9.77406 7.45136L11.1861 5.95176C11.5671 5.54666 11.6971 4.96596 11.5251 4.43696C11.3531 3.90796 10.9071 3.51466 10.3601 3.41106L8.33706 3.02756L7.34706 1.22166C7.07906 0.733964 6.56706 0.430664 6.01106 0.430664C5.45506 0.430664 4.94306 0.733964 4.67506 1.22166ZM6.01106 2.11356L7.11506 4.12776C7.23006 4.33746 7.43306 4.48466 7.66806 4.52916L9.92506 4.95706L8.35006 6.62966C8.18606 6.80376 8.10906 7.04206 8.13906 7.27916L8.43006 9.55776L6.35306 8.57736C6.13606 8.47526 5.88606 8.47526 5.67006 8.57736L3.59206 9.55776L3.88306 7.27916C3.91306 7.04206 3.83606 6.80376 3.67206 6.62966L2.09706 4.95706L4.35406 4.52916C4.58906 4.48466 4.79206 4.33746 4.90706 4.12776L6.01106 2.11356Z" fill="black"/>
</svg>
