<svg width="24" height="24" viewBox="0 0 24 24" fill="none" xmlns="http://www.w3.org/2000/svg">
<path fill-rule="evenodd" clip-rule="evenodd" d="M9.8294 3.29557L7.9252 6.76887L4.0335 7.50657C3.1363 7.67667 2.4031 8.32227 2.121 9.19077C1.8388 10.0592 2.0524 11.0125 2.6783 11.6774L5.3931 14.5618L4.8921 18.491C4.7766 19.3968 5.1641 20.2936 5.9029 20.8303C6.6416 21.367 7.6142 21.4584 8.44 21.0686L12.0221 19.378L15.6042 21.0687C16.43 21.4584 17.4026 21.367 18.1414 20.8303C18.8802 20.2936 19.2676 19.3968 19.1521 18.491L18.6511 14.5617L21.366 11.6774C21.9918 11.0125 22.2055 10.0592 21.9233 9.19077C21.6411 8.32227 20.908 7.67667 20.0108 7.50657L16.1191 6.76887L14.2148 3.29557C13.7759 2.49487 12.9353 1.99707 12.0221 1.99707C11.109 1.99707 10.2684 2.49487 9.8294 3.29557ZM9.452 8.14417L11.5831 4.25707C11.671 4.09677 11.8393 3.99707 12.0221 3.99707C12.2049 3.99707 12.3732 4.09677 12.4611 4.25707L14.5923 8.14417C14.7359 8.40627 14.9893 8.59027 15.2829 8.64597L19.6383 9.47157C19.8179 9.50567 19.9647 9.63487 20.0212 9.80877C20.0777 9.98267 20.0349 10.1735 19.9096 10.3066L16.8713 13.5347C16.6665 13.7523 16.5697 14.0501 16.6075 14.3465L17.1682 18.7439C17.1913 18.9253 17.1137 19.1048 16.9658 19.2123C16.8179 19.3197 16.6232 19.338 16.4579 19.26L12.4489 17.3679C12.1787 17.2403 11.8656 17.2403 11.5953 17.3679L7.5864 19.26C7.4211 19.338 7.2263 19.3197 7.0784 19.2123C6.9305 19.1048 6.853 18.9253 6.8761 18.7439L7.4367 14.3465C7.4745 14.0501 7.3778 13.7523 7.173 13.5347L4.1346 10.3066C4.0093 10.1735 3.9666 9.98267 4.0231 9.80877C4.0796 9.63487 4.2263 9.50567 4.406 9.47157L8.7614 8.64597C9.055 8.59027 9.3083 8.40627 9.452 8.14417Z" fill="black"/>
</svg>
