<svg width="16" height="16" viewBox="0 0 16 16" fill="none" xmlns="http://www.w3.org/2000/svg">
<path fill-rule="evenodd" clip-rule="evenodd" d="M6.5199 1.8032L5.21289 4.1862L2.5429 4.6922C1.9239 4.8102 1.4189 5.2542 1.2249 5.8532C1.0299 6.4522 1.1769 7.1092 1.6089 7.5672L3.47189 9.5462L3.12789 12.2422C3.04789 12.8672 3.3149 13.4852 3.8249 13.8552C4.3339 14.2252 5.0039 14.2882 5.5729 14.0192L8.0309 12.8592L10.4889 14.0192C11.0579 14.2882 11.7289 14.2252 12.2379 13.8552C12.7469 13.4852 13.0139 12.8672 12.9349 12.2422L12.5909 9.5462L14.4539 7.5672C14.8849 7.1092 15.0319 6.4522 14.8379 5.8532C14.6429 5.2542 14.1379 4.8102 13.5199 4.6922L10.8489 4.1862L9.5429 1.8032C9.23989 1.2512 8.6609 0.908203 8.0309 0.908203C7.4019 0.908203 6.8229 1.2512 6.5199 1.8032ZM6.4349 5.2862L7.92289 2.5722C7.94489 2.5322 7.98589 2.5082 8.03089 2.5082C8.07589 2.5082 8.1179 2.5322 8.13989 2.5722L9.6279 5.2862C9.7429 5.4962 9.9449 5.6432 10.1799 5.6882L13.2219 6.2642C13.2659 6.2732 13.3019 6.3052 13.3159 6.3472C13.3299 6.3902 13.3199 6.4372 13.2889 6.4702L11.1669 8.7242C11.0029 8.8992 10.9259 9.1372 10.9559 9.3742L11.3469 12.4452C11.3529 12.4902 11.3339 12.5342 11.2979 12.5602C11.2609 12.5872 11.2129 12.5912 11.1719 12.5722L8.37289 11.2512C8.15689 11.1492 7.90589 11.1492 7.68989 11.2512L4.88989 12.5722C4.8499 12.5912 4.80089 12.5872 4.76489 12.5602C4.72889 12.5342 4.70889 12.4902 4.7149 12.4452L5.10689 9.3742C5.13689 9.1372 5.0589 8.8992 4.8959 8.7242L2.7739 6.4702C2.7429 6.4372 2.73189 6.3902 2.7459 6.3472C2.7599 6.3052 2.79589 6.2732 2.84089 6.2642L5.8819 5.6882C6.1169 5.6432 6.3199 5.4962 6.4349 5.2862Z" fill="black"/>
</svg>
