<svg width="16" height="16" viewBox="0 0 16 16" fill="none" xmlns="http://www.w3.org/2000/svg">
<path fill-rule="evenodd" clip-rule="evenodd" d="M3.61656 4.48946L0.865963 1.73896C0.534263 1.40716 0.534263 0.868561 0.865963 0.536861C1.19766 0.205161 1.73626 0.205161 2.06806 0.536861L5.39186 3.86076L6.51976 1.80346C6.82236 1.25156 7.40166 0.908561 8.03106 0.908561C8.66046 0.908561 9.23976 1.25156 9.54236 1.80346L10.8491 4.18686L13.5196 4.69306C14.1379 4.81026 14.6433 5.25526 14.8377 5.85386C15.0322 6.45236 14.885 7.10936 14.4536 7.56766L12.5907 9.54696L12.8117 11.2805L15.3236 13.7924C15.6553 14.1241 15.6553 14.6627 15.3236 14.9945C14.9918 15.3262 14.4532 15.3262 14.1215 14.9945L12.6092 13.4822L12.6071 13.4857L11.3152 12.1939L11.3144 12.1874L4.98546 5.85846L4.98076 5.85936L3.61176 4.49036L3.61656 4.48946ZM1.55676 5.26386L2.92906 6.63616L4.89536 8.72526C5.05926 8.89936 5.13666 9.13756 5.10646 9.37476L4.71486 12.4456C4.70916 12.4903 4.72836 12.5346 4.76486 12.5611C4.80126 12.5876 4.84936 12.5921 4.89016 12.5729L7.59096 11.2981L10.155 13.8621L8.03106 12.8597L5.57306 14.0198C5.00386 14.2884 4.33356 14.2255 3.82436 13.8555C3.31516 13.4856 3.04816 12.8675 3.12776 12.2432L3.47156 9.54696L1.60856 7.56766C1.17726 7.10936 1.02996 6.45236 1.22446 5.85386C1.29616 5.63316 1.41006 5.43346 1.55676 5.26386ZM10.9631 9.43186L6.57046 5.03926L7.92276 2.57266C7.94446 2.53306 7.98596 2.50856 8.03106 2.50856C8.07616 2.50856 8.11766 2.53306 8.13936 2.57266L9.62756 5.28706C9.74256 5.49676 9.94516 5.64396 10.1801 5.68856L13.2216 6.26506C13.2659 6.27346 13.3021 6.30536 13.3161 6.34826C13.33 6.39116 13.3194 6.43826 13.2885 6.47106L11.1668 8.72526C11.003 8.89936 10.9255 9.13756 10.9558 9.37476L10.9631 9.43186Z" fill="black"/>
</svg>
