<svg width="16" height="16" viewBox="0 0 16 16" fill="none" xmlns="http://www.w3.org/2000/svg">
<path d="M6.85812 1.41328L5.25412 4.33928L1.97612 4.96028C1.51012 5.04828 1.12912 5.38428 0.982125 5.83528C0.835125 6.28728 0.947125 6.78228 1.27212 7.12828L3.55812 9.55728L3.13612 12.8663C3.07612 13.3373 3.27812 13.8043 3.66212 14.0833C4.04612 14.3623 4.55212 14.4093 4.98112 14.2063L7.99812 12.7833L11.0151 14.2063C11.4441 14.4093 11.9491 14.3623 12.3331 14.0833C12.7181 13.8043 12.9191 13.3373 12.8591 12.8663L12.4371 9.55728L14.7231 7.12828C15.0491 6.78228 15.1601 6.28728 15.0131 5.83528C14.8661 5.38428 14.4851 5.04828 14.0191 4.96028L10.7411 4.33928L9.13812 1.41328C8.90912 0.997281 8.47212 0.738281 7.99812 0.738281C7.52312 0.738281 7.08612 0.997281 6.85812 1.41328Z" fill="black"/>
</svg>
