<svg width="24" height="24" viewBox="0 0 24 24" fill="none" xmlns="http://www.w3.org/2000/svg">
<path d="M10.5563 2.85145L8.20447 7.14115L3.39808 8.05225C2.78808 8.16785 2.28968 8.60675 2.09788 9.19715C1.90608 9.78755 2.05128 10.4356 2.47678 10.8876L5.82967 14.45L5.21098 19.3027C5.13248 19.9186 5.39587 20.5281 5.89808 20.893C6.40028 21.2579 7.06148 21.32 7.62288 21.0551L12.047 18.9671L16.4711 21.0551C17.0325 21.32 17.6937 21.2579 18.1959 20.893C18.6981 20.5281 18.9615 19.9186 18.883 19.3027L18.2643 14.45L21.6172 10.8876C22.0427 10.4356 22.188 9.78755 21.9961 9.19715C21.8043 8.60675 21.3059 8.16785 20.696 8.05225L15.8895 7.14115L13.5377 2.85145C13.2392 2.30715 12.6678 1.96875 12.047 1.96875C11.4262 1.96875 10.8548 2.30715 10.5563 2.85145Z" fill="black"/>
</svg>
