<svg width="24" height="24" viewBox="0 0 24 24" fill="none" xmlns="http://www.w3.org/2000/svg">
<path fill-rule="evenodd" clip-rule="evenodd" d="M4.94018 7.33926L6.65118 9.05046L4.43118 9.47136C4.25118 9.50546 4.10418 9.63466 4.04818 9.80856C3.99158 9.98246 4.03418 10.1733 4.15918 10.3064L7.19818 13.5345C7.40318 13.7521 7.49918 14.0499 7.46218 14.3463L6.90118 18.7437C6.87818 18.9251 6.95518 19.1046 7.10318 19.2121C7.25118 19.3195 7.44618 19.3378 7.61118 19.2598L11.6202 17.3677C11.8902 17.2401 12.2032 17.2401 12.4742 17.3677L16.4832 19.2598C16.6082 19.3188 16.7492 19.3227 16.8752 19.2746L18.3142 20.7137C18.2672 20.7542 18.2172 20.793 18.1662 20.8301C17.4272 21.3668 16.4552 21.4582 15.6292 21.0685L12.0472 19.3778L8.46518 21.0684C7.63918 21.4582 6.66618 21.3668 5.92818 20.8301C5.18918 20.2934 4.80118 19.3966 4.91718 18.4908L5.41818 14.5616L2.70328 11.6772C2.07738 11.0123 1.86368 10.059 2.14588 9.19056C2.42808 8.32206 3.16128 7.67646 4.05818 7.50636L4.94018 7.33926ZM18.7612 15.2296L22.7942 19.2625C23.2232 19.6918 23.2232 20.3889 22.7942 20.8182C22.3652 21.2475 21.6682 21.2475 21.2382 20.8182L3.30298 2.88246C2.87368 2.45316 2.87368 1.75616 3.30298 1.32686C3.73228 0.897558 4.42918 0.897558 4.85818 1.32686L8.78218 5.25066L9.85418 3.29536C10.2932 2.49466 11.1342 1.99686 12.0472 1.99686C12.9602 1.99686 13.8012 2.49466 14.2402 3.29536L16.1442 6.76866L20.0362 7.50636C20.9332 7.67646 21.6662 8.32206 21.9482 9.19056C22.2302 10.059 22.0172 11.0123 21.3912 11.6772L18.6762 14.5615L18.7612 15.2296ZM16.9782 13.4469L10.2552 6.72386L11.6082 4.25686C11.6962 4.09656 11.8642 3.99686 12.0472 3.99686C12.2302 3.99686 12.3982 4.09656 12.4862 4.25686L14.6172 8.14396C14.7612 8.40606 15.0142 8.59006 15.3082 8.64576L19.6632 9.47136C19.8432 9.50546 19.9892 9.63466 20.0462 9.80856C20.1022 9.98246 20.0602 10.1733 19.9342 10.3064L16.9782 13.4469Z" fill="black"/>
</svg>
