<svg width="12" height="12" viewBox="0 0 12 12" fill="none" xmlns="http://www.w3.org/2000/svg">
<path d="M5.06614 1.04582L3.85414 3.25532L1.37814 3.72472C0.986139 3.79902 0.666139 4.08102 0.543139 4.46042C0.420139 4.83982 0.513139 5.25622 0.786139 5.54672L2.51314 7.38162L2.19514 9.88132C2.14414 10.277 2.31414 10.6688 2.63614 10.9032C2.95914 11.1377 3.38414 11.1776 3.74514 11.0074L6.02314 9.93182L8.30214 11.0074C8.66314 11.1776 9.08814 11.1377 9.41114 10.9032C9.73314 10.6688 9.90314 10.277 9.85214 9.88132L9.53314 7.38162L11.2611 5.54672C11.5341 5.25622 11.6271 4.83982 11.5041 4.46042C11.3811 4.08102 11.0611 3.79902 10.6691 3.72472L8.19314 3.25532L6.98114 1.04582C6.79014 0.696016 6.42214 0.478516 6.02314 0.478516C5.62514 0.478516 5.25714 0.696016 5.06614 1.04582Z" fill="black"/>
</svg>
