<svg width="16" height="16" viewBox="0 0 16 16" fill="none" xmlns="http://www.w3.org/2000/svg">
<path fill-rule="evenodd" clip-rule="evenodd" d="M7.6482 12.5242L10.2422 15.1562C10.4072 15.3242 10.6342 15.4152 10.8682 15.4092C11.1032 15.4042 11.3252 15.3012 11.4812 15.1262L15.6042 10.5112C15.9172 10.1612 15.8872 9.62422 15.5372 9.31122C15.1872 8.99922 14.6492 9.02922 14.3372 9.37922L10.8172 13.3182L8.8592 11.3312C8.5302 10.9972 7.9912 10.9932 7.6572 11.3222C7.3232 11.6512 7.3192 12.1902 7.6482 12.5242ZM7.5412 14.7992H5.0002C2.9012 14.7992 1.2002 13.0982 1.2002 10.9992C1.2002 9.16722 1.2002 6.83122 1.2002 4.99922C1.2002 2.90022 2.9012 1.19922 5.0002 1.19922C6.2652 1.19922 7.7352 1.19922 9.0002 1.19922C11.0992 1.19922 12.8002 2.90022 12.8002 4.99922V8.56722L11.2002 10.4212V4.99922C11.2002 3.78422 10.2152 2.79922 9.0002 2.79922C7.7352 2.79922 6.2652 2.79922 5.0002 2.79922C3.7852 2.79922 2.8002 3.78422 2.8002 4.99922V10.9992C2.8002 12.2142 3.7852 13.1992 5.0002 13.1992H5.9412L7.5412 14.7992ZM7.0002 8.19922H5.0002C4.5582 8.19922 4.2002 8.55722 4.2002 8.99922C4.2002 9.44122 4.5582 9.79922 5.0002 9.79922H7.0002C7.4422 9.79922 7.8002 9.44122 7.8002 8.99922C7.8002 8.55722 7.4422 8.19922 7.0002 8.19922ZM9.0002 5.19922H5.0002C4.5582 5.19922 4.2002 5.55722 4.2002 5.99922C4.2002 6.44122 4.5582 6.79922 5.0002 6.79922H9.0002C9.4422 6.79922 9.8002 6.44122 9.8002 5.99922C9.8002 5.55722 9.4422 5.19922 9.0002 5.19922Z" fill="black"/>
</svg>
