<svg width="16" height="16" viewBox="0 0 16 16" fill="none" xmlns="http://www.w3.org/2000/svg">
<path fill-rule="evenodd" clip-rule="evenodd" d="M11.1502 11.1492H9.1802C8.7112 11.1492 8.3302 11.5302 8.3302 11.9992C8.3302 12.4682 8.7112 12.8492 9.1802 12.8492H11.1502V14.8192C11.1502 15.2882 11.5312 15.6692 12.0002 15.6692C12.4692 15.6692 12.8502 15.2882 12.8502 14.8192V12.8492H14.8202C15.2892 12.8492 15.6702 12.4682 15.6702 11.9992C15.6702 11.5302 15.2892 11.1492 14.8202 11.1492H12.8502V9.17922C12.8502 8.71022 12.4692 8.32922 12.0002 8.32922C11.5312 8.32922 11.1502 8.71022 11.1502 9.17922V11.1492ZM9.7502 14.7242C9.5082 14.7742 9.2572 14.7992 9.0002 14.7992C7.7352 14.7992 6.2652 14.7992 5.0002 14.7992C2.9012 14.7992 1.2002 13.0982 1.2002 10.9992C1.2002 9.16722 1.2002 6.83122 1.2002 4.99922C1.2002 2.90022 2.9012 1.19922 5.0002 1.19922C6.2652 1.19922 7.7352 1.19922 9.0002 1.19922C11.0992 1.19922 12.8002 2.90022 12.8002 4.99922V7.07822C12.5522 6.98122 12.2822 6.92922 12.0002 6.92922C11.7182 6.92922 11.4482 6.98122 11.2002 7.07822V4.99922C11.2002 3.78422 10.2152 2.79922 9.0002 2.79922C7.7352 2.79922 6.2652 2.79922 5.0002 2.79922C3.7852 2.79922 2.8002 3.78422 2.8002 4.99922V10.9992C2.8002 12.2142 3.7852 13.1992 5.0002 13.1992H7.2802C7.6772 13.8302 8.3802 14.2492 9.1802 14.2492H9.7502V14.7242ZM7.0002 8.19922H5.0002C4.5582 8.19922 4.2002 8.55722 4.2002 8.99922C4.2002 9.44122 4.5582 9.79922 5.0002 9.79922H7.0002C7.4422 9.79922 7.8002 9.44122 7.8002 8.99922C7.8002 8.55722 7.4422 8.19922 7.0002 8.19922ZM9.0002 5.19922H5.0002C4.5582 5.19922 4.2002 5.55722 4.2002 5.99922C4.2002 6.44122 4.5582 6.79922 5.0002 6.79922H9.0002C9.4422 6.79922 9.8002 6.44122 9.8002 5.99922C9.8002 5.55722 9.4422 5.19922 9.0002 5.19922Z" fill="black"/>
</svg>
