<svg width="24" height="24" viewBox="0 0 24 24" fill="none" xmlns="http://www.w3.org/2000/svg">
<path fill-rule="evenodd" clip-rule="evenodd" d="M8 2C5.24 2 3 4.239 3 7C3 9.977 3 14.023 3 17C3 19.761 5.24 22 8 22C10.44 22 13.56 22 16 22C18.76 22 21 19.761 21 17C21 14.023 21 9.977 21 7C21 4.239 18.76 2 16 2H8ZM8 4H16C17.66 4 19 5.343 19 7C19 9.977 19 14.023 19 17C19 18.657 17.66 20 16 20H8C6.34 20 5 18.657 5 17C5 14.023 5 9.977 5 7C5 5.343 6.34 4 8 4ZM12 13.004H9C8.45 13.004 8 13.452 8 14.004C8 14.556 8.45 15.004 9 15.004H12C12.55 15.004 13 14.556 13 14.004C13 13.452 12.55 13.004 12 13.004ZM15 8H9C8.45 8 8 8.448 8 9C8 9.552 8.45 10 9 10H15C15.55 10 16 9.552 16 9C16 8.448 15.55 8 15 8Z" fill="black"/>
</svg>
