<svg width="24" height="24" viewBox="0 0 24 24" fill="none" xmlns="http://www.w3.org/2000/svg">
<path fill-rule="evenodd" clip-rule="evenodd" d="M20.7198 18.6275L22.9698 20.8765C23.3998 21.3055 23.3998 22.0025 22.9698 22.4325C22.5398 22.8615 21.8498 22.8615 21.4198 22.4325L1.53979 2.55548C1.10979 2.12648 1.10979 1.42948 1.53979 0.999484C1.96979 0.570484 2.66979 0.570484 3.09979 0.999484L5.05979 2.96548C5.87979 2.35448 6.89979 1.99948 7.99978 1.99948H15.9998C18.7598 1.99948 20.9998 4.23848 20.9998 6.99948C20.9998 9.97648 20.9998 14.0225 20.9998 16.9995C20.9998 17.5715 20.8998 18.1205 20.7198 18.6275ZM3.00979 6.84348L4.99979 8.83548V16.9995C4.99979 18.6565 6.33979 19.9995 7.99979 19.9995H15.9998L16.1498 19.9845L17.8198 21.6535C17.2598 21.8785 16.6398 21.9995 15.9998 21.9995C13.5598 21.9995 10.4398 21.9995 7.99979 21.9995C5.23979 21.9995 2.99979 19.7605 2.99979 16.9995C2.99979 14.0225 2.99979 9.97648 2.99979 6.99948L3.00979 6.84348ZM18.9998 16.9045V6.99948C18.9998 5.34248 17.6598 3.99948 15.9998 3.99948H7.99978C7.44978 3.99948 6.93979 4.14548 6.49978 4.40648L10.0998 7.99948H14.9998C15.5498 7.99948 15.9998 8.44748 15.9998 8.99948C15.9998 9.55148 15.5498 9.99948 14.9998 9.99948H12.0998L18.9998 16.9045ZM9.16979 13.0035H8.99978C8.44978 13.0035 7.99978 13.4515 7.99978 14.0035C7.99978 14.5555 8.44978 15.0035 8.99978 15.0035H11.1698L9.16979 13.0035Z" fill="black"/>
</svg>
