<svg width="24" height="24" viewBox="0 0 24 24" fill="none" xmlns="http://www.w3.org/2000/svg">
<path fill-rule="evenodd" clip-rule="evenodd" d="M16.13 21.867C15.77 21.956 15.39 22 15 22C12.56 22 9.44 22 7 22C4.24 22 2 19.761 2 17C2 14.023 2 9.977 2 7C2 4.239 4.24 2 7 2H15C17.76 2 20 4.239 20 7V10.175C19.69 10.06 19.35 10 19 10C18.65 10 18.31 10.06 18 10.175V7C18 5.343 16.66 4 15 4H7C5.34 4 4 5.343 4 7C4 9.977 4 14.023 4 17C4 18.657 5.34 20 7 20H16V21C16 21.302 16.04 21.593 16.13 21.867ZM17.92 15.918H15.06C14.49 15.918 14.03 16.403 14.03 17C14.03 17.597 14.49 18.082 15.06 18.082H17.92V20.936C17.92 21.507 18.4 21.97 19 21.97C19.6 21.97 20.08 21.507 20.08 20.936V18.082H22.94C23.51 18.082 23.97 17.597 23.97 17C23.97 16.403 23.51 15.918 22.94 15.918H20.08V13.064C20.08 12.493 19.6 12.03 19 12.03C18.4 12.03 17.92 12.493 17.92 13.064V15.918ZM11 12.004H8C7.45 12.004 7 12.452 7 13.004C7 13.556 7.45 14.004 8 14.004H11C11.55 14.004 12 13.556 12 13.004C12 12.452 11.55 12.004 11 12.004ZM14 7H8C7.45 7 7 7.448 7 8C7 8.552 7.45 9 8 9H14C14.55 9 15 8.552 15 8C15 7.448 14.55 7 14 7Z" fill="black"/>
</svg>
