<svg width="16" height="16" viewBox="0 0 16 16" fill="none" xmlns="http://www.w3.org/2000/svg">
<path fill-rule="evenodd" clip-rule="evenodd" d="M6.0002 1.19922C3.9012 1.19922 2.2002 2.90022 2.2002 4.99922C2.2002 6.83122 2.2002 9.16722 2.2002 10.9992C2.2002 13.0982 3.9012 14.7992 6.0002 14.7992C7.2652 14.7992 8.7352 14.7992 10.0002 14.7992C12.0992 14.7992 13.8002 13.0982 13.8002 10.9992C13.8002 9.16722 13.8002 6.83122 13.8002 4.99922C13.8002 2.90022 12.0992 1.19922 10.0002 1.19922C8.7352 1.19922 7.2652 1.19922 6.0002 1.19922ZM6.0002 2.79922C7.2652 2.79922 8.7352 2.79922 10.0002 2.79922C11.2152 2.79922 12.2002 3.78422 12.2002 4.99922V10.9992C12.2002 12.2142 11.2152 13.1992 10.0002 13.1992C8.7352 13.1992 7.2652 13.1992 6.0002 13.1992C4.7852 13.1992 3.8002 12.2142 3.8002 10.9992V4.99922C3.8002 3.78422 4.7852 2.79922 6.0002 2.79922ZM8.0002 8.19922H6.0002C5.5582 8.19922 5.2002 8.55722 5.2002 8.99922C5.2002 9.44122 5.5582 9.79922 6.0002 9.79922H8.0002C8.4422 9.79922 8.8002 9.44122 8.8002 8.99922C8.8002 8.55722 8.4422 8.19922 8.0002 8.19922ZM10.0002 5.19922H6.0002C5.5582 5.19922 5.2002 5.55722 5.2002 5.99922C5.2002 6.44122 5.5582 6.79922 6.0002 6.79922H10.0002C10.4422 6.79922 10.8002 6.44122 10.8002 5.99922C10.8002 5.55722 10.4422 5.19922 10.0002 5.19922Z" fill="black"/>
</svg>
