<svg width="24" height="24" viewBox="0 0 24 24" fill="none" xmlns="http://www.w3.org/2000/svg">
<path fill-rule="evenodd" clip-rule="evenodd" d="M14.25 22H7C4.24 22 2 19.761 2 17C2 14.023 2 9.977 2 7C2 4.239 4.24 2 7 2H15C17.76 2 20 4.239 20 7V13.495L18 15.697V7C18 5.343 16.66 4 15 4H7C5.34 4 4 5.343 4 7C4 9.977 4 14.023 4 17C4 18.657 5.34 20 7 20H12.25L14.25 22ZM13.38 18.381L16.57 21.621C16.78 21.837 17.08 21.956 17.38 21.949C17.68 21.942 17.97 21.811 18.17 21.585L23.66 15.498C24.06 15.047 24.03 14.351 23.57 13.944C23.12 13.538 22.43 13.575 22.02 14.026L17.32 19.245L14.95 16.837C14.52 16.405 13.83 16.399 13.39 16.825C12.96 17.251 12.96 17.948 13.38 18.381ZM11 13.004H8C7.45 13.004 7 13.452 7 14.004C7 14.556 7.45 15.004 8 15.004H11C11.55 15.004 12 14.556 12 14.004C12 13.452 11.55 13.004 11 13.004ZM14 8H8C7.45 8 7 8.448 7 9C7 9.552 7.45 10 8 10H14C14.55 10 15 9.552 15 9C15 8.448 14.55 8 14 8Z" fill="black"/>
</svg>
