<svg width="16" height="16" viewBox="0 0 16 16" fill="none" xmlns="http://www.w3.org/2000/svg">
<path fill-rule="evenodd" clip-rule="evenodd" d="M2.31607 4.08497L0.600074 2.36897C0.268074 2.03697 0.268074 1.49797 0.600074 1.16697C0.931074 0.834969 1.47007 0.834969 1.80207 1.16697L3.13907 2.50397C3.83307 1.70397 4.85807 1.19997 6.00007 1.19997C7.26507 1.19997 8.73507 1.19997 10.0001 1.19997C12.0991 1.19997 13.8001 2.90097 13.8001 4.99997C13.8001 6.83197 13.8001 9.16797 13.8001 11C13.8001 11.628 13.6481 12.221 13.3771 12.742L14.8041 14.169C15.1361 14.501 15.1361 15.039 14.8041 15.371C14.4721 15.703 13.9341 15.703 13.6021 15.371L12.2711 14.04L12.2561 14.053L11.1041 12.901L11.1211 12.89L3.80007 5.56897V5.59697L2.31007 4.10697L2.31607 4.08497ZM2.20007 6.82597L3.80007 8.42597V11C3.80007 12.215 4.78507 13.2 6.00007 13.2H8.57407L10.1661 14.792L10.0001 14.8C8.73507 14.8 7.26507 14.8 6.00007 14.8C3.90107 14.8 2.20007 13.099 2.20007 11V6.82597ZM12.1381 11.503C12.1801 11.342 12.2001 11.174 12.2001 11V4.99997C12.2001 3.78497 11.2151 2.79997 10.0001 2.79997C8.73507 2.79997 7.26507 2.79997 6.00007 2.79997C5.30007 2.79997 4.67607 3.12697 4.27407 3.63897L5.85007 5.21497L6.00007 5.19997H10.0001C10.4421 5.19997 10.8001 5.55797 10.8001 5.99997C10.8001 6.44197 10.4421 6.79997 10.0001 6.79997H7.43507L12.1381 11.503Z" fill="black"/>
</svg>
