<svg width="12" height="12" viewBox="0 0 12 12" fill="none" xmlns="http://www.w3.org/2000/svg">
<path fill-rule="evenodd" clip-rule="evenodd" d="M6.6111 0.424805H4.0002C2.4538 0.424805 1.2002 1.6784 1.2002 3.2248C1.2002 4.8481 1.2002 7.1258 1.2002 8.7491C1.2002 9.4917 1.4952 10.2039 2.0203 10.729C2.5454 11.2541 3.2576 11.5491 4.0002 11.5491H8.0002C9.5466 11.5491 10.8002 10.2955 10.8002 8.7491V4.6139C10.8002 4.0039 10.5579 3.4189 10.1265 2.9876C9.6092 2.4702 8.7549 1.6159 8.2375 1.0985C7.8061 0.667105 7.2211 0.424805 6.6111 0.424805ZM5.5849 2.0248H4.0001C3.3374 2.0249 2.8002 2.5621 2.8002 3.2248V8.7491C2.8002 9.0674 2.9266 9.3726 3.1517 9.5976C3.3767 9.8227 3.6819 9.94911 4.0002 9.94911H8.0003C8.6629 9.94911 9.2002 9.4119 9.2002 8.7491V5.5997H7.3848C6.3907 5.5997 5.5849 4.7938 5.5849 3.7997V2.0248ZM7.1849 2.3086V3.7998C7.1849 3.9102 7.2744 3.9997 7.3849 3.9997H8.876L7.1849 2.3086Z" fill="black"/>
</svg>
