<svg width="24" height="24" viewBox="0 0 24 24" fill="none" xmlns="http://www.w3.org/2000/svg">
<path fill-rule="evenodd" clip-rule="evenodd" d="M13.22 2H8C6.67 2 5.4 2.527 4.46 3.464C3.53 4.402 3 5.674 3 7C3 9.977 3 14.023 3 17C3 19.761 5.24 22 8 22C10.44 22 13.56 22 16 22C18.76 22 21 19.761 21 17C21 14.501 21 11.45 21 9.778C21 8.717 20.58 7.7 19.83 6.95C18.79 5.915 17.09 4.206 16.05 3.172C15.3 2.421 14.28 2 13.22 2ZM12 4H13.22C13.49 4 13.76 4.055 14 4.158V8C14 8.552 14.45 9 15 9H18.84C18.95 9.244 19 9.508 19 9.778V11H15C13.34 11 12 9.657 12 8V4Z" fill="black"/>
</svg>
