<svg width="16" height="16" viewBox="0 0 16 16" fill="none" xmlns="http://www.w3.org/2000/svg">
<path fill-rule="evenodd" clip-rule="evenodd" d="M8.90423 1.2002C8.11863 1.2002 6.77723 1.2002 5.55713 1.2002C3.62413 1.2002 2.05713 2.7672 2.05713 4.7002V11.3002C2.05713 13.2332 3.62413 14.8002 5.55713 14.8002C7.06403 14.8002 8.93563 14.8002 10.4425 14.8002C11.3708 14.8002 12.261 14.4315 12.9174 13.7751C13.5738 13.1187 13.9425 12.2284 13.9425 11.3002V6.3363C13.9425 5.7149 13.7015 5.1177 13.2702 4.6704L10.6318 1.9343C10.1795 1.4652 9.55593 1.2002 8.90423 1.2002ZM7.66623 2.8002H8.90423C9.09223 2.8002 9.27323 2.8663 9.41623 2.9855V5.0126C9.41623 5.184 9.48423 5.3484 9.60543 5.4696C9.72663 5.5907 9.89103 5.6588 10.0624 5.6588H12.0006L12.1184 5.781C12.2622 5.9301 12.3425 6.1291 12.3425 6.3363V7.4088H10.0624C9.42683 7.4088 8.81743 7.1564 8.36803 6.707C7.91863 6.2576 7.66623 5.6481 7.66623 5.0126V2.8002Z" fill="black"/>
</svg>
