<svg width="16" height="16" viewBox="0 0 16 16" fill="none" xmlns="http://www.w3.org/2000/svg">
<path fill-rule="evenodd" clip-rule="evenodd" d="M8.73413 1.19922H5.85713C3.75913 1.19922 2.05713 2.90022 2.05713 4.99922C2.05713 6.83122 2.05713 9.16722 2.05713 10.9992C2.05713 12.0072 2.45813 12.9732 3.17013 13.6862C3.88313 14.3992 4.84913 14.7992 5.85713 14.7992C7.20613 14.7992 8.79413 14.7992 10.1431 14.7992C12.2411 14.7992 13.9431 13.0982 13.9431 10.9992V6.49722C13.9431 5.77222 13.6621 5.07522 13.1581 4.55322L10.7501 2.05522C10.2221 1.50822 9.49513 1.19922 8.73413 1.19922ZM7.74113 2.79922H5.85713C4.64213 2.79922 3.65713 3.78422 3.65713 4.99922V10.9992C3.65713 11.5832 3.88913 12.1422 4.30213 12.5552C4.71413 12.9672 5.27413 13.1992 5.85713 13.1992C7.20613 13.1992 8.79413 13.1992 10.1431 13.1992C11.3581 13.1992 12.3431 12.2142 12.3431 10.9992V7.33322H10.0631C9.44713 7.33322 8.85713 7.08822 8.42113 6.65322C7.98613 6.21722 7.74113 5.62722 7.74113 5.01122V2.79922ZM9.34113 2.97022V5.01122C9.34113 5.20322 9.41713 5.38622 9.55313 5.52122C9.68813 5.65722 9.87113 5.73322 10.0631 5.73322H12.0611L12.0071 5.66422L9.59813 3.16622C9.52213 3.08722 9.43613 3.02022 9.34113 2.97022Z" fill="black"/>
</svg>
