<svg width="24" height="24" viewBox="0 0 24 24" fill="none" xmlns="http://www.w3.org/2000/svg">
<path fill-rule="evenodd" clip-rule="evenodd" d="M13.22 2H8C6.67 2 5.4 2.527 4.46 3.464C3.53 4.402 3 5.674 3 7C3 9.977 3 14.023 3 17C3 19.761 5.24 22 8 22C10.44 22 13.56 22 16 22C18.76 22 21 19.761 21 17C21 14.501 21 11.45 21 9.778C21 8.717 20.58 7.7 19.83 6.95C18.79 5.915 17.09 4.206 16.05 3.172C15.3 2.421 14.28 2 13.22 2ZM12 4H8C7.2 4 6.44 4.316 5.88 4.879C5.32 5.441 5 6.204 5 7C5 9.977 5 14.023 5 17C5 18.657 6.34 20 8 20H16C17.66 20 19 18.657 19 17V11H15C13.34 11 12 9.657 12 8V4ZM14 4.159V8C14 8.552 14.45 9 15 9H18.84C18.74 8.764 18.6 8.548 18.41 8.364C17.38 7.329 15.67 5.621 14.64 4.586C14.45 4.402 14.24 4.257 14 4.159Z" fill="black"/>
</svg>
