<svg width="24" height="24" viewBox="0 0 24 24" fill="none" xmlns="http://www.w3.org/2000/svg">
<path fill-rule="evenodd" clip-rule="evenodd" d="M13.8627 6.14799C14.3047 4.47041 15.8321 3.2334 17.6485 3.2334C19.8105 3.2334 21.5631 4.98604 21.5631 7.14803C21.5631 9.31002 19.8105 11.0627 17.6485 11.0627C15.8321 11.0627 14.3047 9.82556 13.8627 8.14799L3.43652 8.14799C2.88424 8.14799 2.43652 7.70027 2.43652 7.14799C2.43652 6.5957 2.88424 6.14799 3.43652 6.14799L13.8627 6.14799ZM17.6485 5.2334C16.591 5.2334 15.7338 6.09059 15.7338 7.14799C15.7338 8.20542 16.5911 9.06266 17.6485 9.06266C18.7059 9.06266 19.5631 8.20545 19.5631 7.14803C19.5631 6.09061 18.7059 5.2334 17.6485 5.2334Z" fill="black"/>
<path fill-rule="evenodd" clip-rule="evenodd" d="M5.29944 15.8518C5.74138 14.1742 7.26882 12.9371 9.08519 12.9371C10.9016 12.9371 12.429 14.1742 12.8709 15.8518H20.5631C21.1154 15.8518 21.5631 16.2995 21.5631 16.8518C21.5631 17.4041 21.1154 17.8518 20.5631 17.8518H12.8709C12.429 19.5294 10.9016 20.7664 9.08519 20.7664C7.26884 20.7664 5.74139 19.5294 5.29944 17.8518L3.43652 17.8518C2.88424 17.8518 2.43652 17.4041 2.43652 16.8518C2.43652 16.2995 2.88424 15.8518 3.43652 15.8518L5.29944 15.8518ZM9.08519 14.9371C8.02778 14.9371 7.17056 15.7944 7.17056 16.8518C7.17056 17.9092 8.02776 18.7664 9.08519 18.7664C10.1426 18.7664 10.9998 17.9092 10.9998 16.8518C10.9998 15.7944 10.1426 14.9371 9.08519 14.9371Z" fill="black"/>
</svg>
