<svg width="16" height="16" viewBox="0 0 16 16" fill="none" xmlns="http://www.w3.org/2000/svg">
<path fill-rule="evenodd" clip-rule="evenodd" d="M9.28985 3.6891C9.63738 2.47151 10.7583 1.58008 12.0875 1.58008C13.694 1.58008 14.9964 2.88247 14.9964 4.48906C14.9964 6.09565 13.694 7.39805 12.0875 7.39805C10.7583 7.39805 9.63738 6.50668 9.28986 5.2891L1.80391 5.2891C1.36208 5.2891 1.00391 4.93093 1.00391 4.4891C1.00391 4.04727 1.36208 3.6891 1.80391 3.6891L9.28985 3.6891ZM12.0875 3.18008C11.3645 3.18008 10.7785 3.76615 10.7785 4.4891C10.7785 5.21201 11.3645 5.79805 12.0875 5.79805C12.8104 5.79805 13.3964 5.21199 13.3964 4.48906C13.3964 3.76613 12.8104 3.18008 12.0875 3.18008Z" fill="black"/>
<path fill-rule="evenodd" clip-rule="evenodd" d="M3.0936 10.7106C3.44113 9.49299 4.56211 8.60162 5.89122 8.60162C7.22035 8.60162 8.34129 9.493 8.68881 10.7106L14.1965 10.7106C14.6383 10.7106 14.9965 11.0688 14.9965 11.5106C14.9965 11.9524 14.6383 12.3106 14.1965 12.3106L8.68881 12.3106C8.34129 13.5282 7.22037 14.4196 5.89122 14.4196C4.56209 14.4196 3.44113 13.5282 3.0936 12.3106H1.80391C1.36208 12.3106 1.00391 11.9524 1.00391 11.5106C1.00391 11.0688 1.36208 10.7106 1.80391 10.7106H3.0936ZM5.89122 10.2016C5.16826 10.2016 4.58221 10.7877 4.58221 11.5106C4.58221 12.2335 5.16829 12.8196 5.89122 12.8196C6.61414 12.8196 7.2002 12.2335 7.2002 11.5106C7.2002 10.7877 6.61416 10.2016 5.89122 10.2016Z" fill="black"/>
</svg>
