<svg width="12" height="12" viewBox="0 0 12 12" fill="none" xmlns="http://www.w3.org/2000/svg">
<path fill-rule="evenodd" clip-rule="evenodd" d="M5.64536 0.254105C6.48522 0.914554 6.97781 1.65023 7.20622 2.47827C7.23928 2.59811 7.26635 2.71835 7.28813 2.83881C7.37277 2.76289 7.46768 2.69789 7.57126 2.64624C8.00159 2.43166 8.54063 2.47482 8.94618 2.84229C9.95319 3.75474 10.9263 5.07955 10.9263 6.89468C10.9263 8.00236 10.5765 9.26509 9.74191 10.2658C8.88727 11.2906 7.57058 11.9827 5.77716 11.9827C1.8874 11.9827 -0.612334 7.23868 2.44642 3.35339C3.42083 2.11567 3.62421 1.63644 3.69194 1.10778C3.74709 0.67735 4.01097 0.318487 4.36967 0.133824C4.74458 -0.0591788 5.24151 -0.0634779 5.64536 0.254105ZM5.13989 1.96114C4.92137 2.6724 4.48119 3.35537 3.70358 4.34311C1.3624 7.31693 3.39595 10.3827 5.77716 10.3827C7.11923 10.3827 7.97711 9.88381 8.51315 9.24107C9.06922 8.5743 9.32628 7.69302 9.32628 6.89468C9.32628 5.94879 8.92994 5.16717 8.34721 4.50701C8.28437 4.80476 8.19009 5.12489 8.04993 5.45456C7.92867 5.73977 7.71991 6.00859 7.40328 6.158C7.0792 6.31091 6.72799 6.29621 6.43485 6.16219C5.85802 5.89847 5.60932 5.26529 5.68925 4.67046C5.78644 3.94718 5.79743 3.38804 5.66383 2.90375C5.57772 2.59157 5.42259 2.27952 5.13989 1.96114Z" fill="black"/>
</svg>
