<svg width="16" height="16" viewBox="0 0 16 16" fill="none" xmlns="http://www.w3.org/2000/svg">
<path fill-rule="evenodd" clip-rule="evenodd" d="M6.7722 1.98366C6.55278 3.00242 6.00185 3.91176 4.8617 5.36C1.74367 9.32059 4.42938 13.5099 7.71275 13.5099C9.5059 13.5099 10.6766 12.8397 11.4127 11.957C12.1689 11.0504 12.5132 9.86064 12.5132 8.7881C12.5132 7.32721 11.818 6.16497 10.8753 5.22147C10.8099 5.68275 10.6879 6.20462 10.4668 6.74923C10.3303 7.08546 10.0981 7.39075 9.75115 7.56112C9.39531 7.73588 9.00705 7.72322 8.68092 7.57512C8.04115 7.28457 7.74854 6.56957 7.83876 5.87044C7.95646 4.95834 7.96774 4.22017 7.78294 3.56704C7.63245 3.03519 7.33795 2.51228 6.7722 1.98366ZM6.01546 0.304469C6.43369 0.0896329 6.98354 0.0862989 7.4307 0.441495C8.44945 1.25071 9.04205 2.14027 9.3225 3.13143C9.4189 3.47214 9.47589 3.81646 9.50372 4.16249C9.64884 3.8975 9.86889 3.68126 10.1394 3.54716C10.62 3.30896 11.22 3.35703 11.6747 3.77278C12.9328 4.92313 14.1132 6.56232 14.1132 8.7881C14.1132 10.17 13.6762 11.7412 12.6415 12.9818C11.5868 14.2464 9.95725 15.1099 7.71275 15.1099C2.92084 15.1099 -0.23106 9.24234 3.60454 4.37028C4.85029 2.78791 5.15254 2.12733 5.25213 1.39382C5.31758 0.911839 5.61444 0.51046 6.01546 0.304469Z" fill="black"/>
</svg>
