<svg width="24" height="24" viewBox="0 0 24 24" fill="none" xmlns="http://www.w3.org/2000/svg">
<path fill-rule="evenodd" clip-rule="evenodd" d="M9.11487 0.633876C9.68045 0.343354 10.4195 0.339595 11.022 0.818118C12.5215 2.00927 13.3838 3.30943 13.7916 4.75086C14.092 5.81269 14.1315 6.90316 14.0521 8.00155C14.1121 7.7089 14.1519 7.42896 14.1775 7.16711C14.2491 6.43359 14.6786 5.80635 15.2983 5.49921C15.9486 5.17687 16.759 5.24065 17.3773 5.80604C19.2425 7.51143 20.9701 9.92069 20.9701 13.1814C20.9701 15.2156 20.3261 17.5247 18.8089 19.3439C17.2667 21.1931 14.8798 22.4641 11.5694 22.4641C4.57013 22.4641 -0.0994449 13.8726 5.56426 6.67841C7.43687 4.29977 7.91968 3.27321 8.07669 2.1169C8.16596 1.45942 8.57082 0.91334 9.11487 0.633876ZM10.028 2.59003C9.76157 4.21475 8.97191 5.58318 7.13571 7.91556C2.36897 13.9704 6.45581 20.4641 11.5694 20.4641C14.3156 20.4641 16.129 19.4346 17.273 18.0629C18.442 16.6612 18.9701 14.8289 18.9701 13.1814C18.9701 10.7687 17.7434 8.89228 16.1634 7.40776C16.0848 8.17687 15.9045 9.08876 15.5152 10.0479C15.3238 10.5194 15.0042 10.9329 14.5389 11.1614C14.0623 11.3955 13.5428 11.3789 13.1044 11.1798C12.2432 10.7887 11.8299 9.81406 11.9568 8.83052C12.1345 7.45372 12.1554 6.31427 11.8672 5.29538C11.6074 4.37742 11.0753 3.48522 10.028 2.59003Z" fill="black"/>
</svg>
