<svg width="16" height="16" viewBox="0 0 16 16" fill="none" xmlns="http://www.w3.org/2000/svg">
<path fill-rule="evenodd" clip-rule="evenodd" d="M5.59874 11.1769C4.97874 11.7869 4.2587 12.397 3.5587 12.757C2.52869 13.277 1.5487 13.2768 0.818699 12.5468C0.0586965 11.7868 0.0587355 10.9069 0.358736 10.1269C0.518737 9.69687 0.78866 9.29698 1.02866 8.99698C0.79866 8.67698 0.528747 8.24679 0.368746 7.79679C0.0687453 6.96679 0.0886965 6.07684 0.818699 5.34684C1.6387 4.52684 2.63855 4.5368 3.65855 5.0568C4.36855 5.4268 5.08858 6.08698 5.68859 6.73698C5.76859 6.66698 5.84858 6.59703 5.92858 6.53703C5.69858 6.07703 5.56868 5.60692 5.53868 5.17692C5.48868 4.48692 5.69877 3.87694 6.12877 3.44694C6.55877 3.01694 7.16876 2.80685 7.85876 2.85685C8.68876 2.90685 9.64861 3.34689 10.4486 4.14689C10.7386 4.42689 10.9686 4.73679 11.1686 5.04679C13.9386 5.36679 15.7587 7.08699 15.7587 8.99698C15.7587 11.107 13.5186 12.997 10.2186 12.997C8.36862 12.997 6.66875 12.1269 5.59874 11.1769ZM4.62877 7.92692C4.28877 7.54692 3.89862 7.15684 3.47862 6.84684C3.20862 6.62684 2.91853 6.44685 2.63853 6.35685C2.38853 6.27685 2.14859 6.27697 1.94858 6.47697C1.71858 6.70697 1.77875 6.997 1.86875 7.257C2.10875 7.90699 2.65855 8.46695 2.65855 8.46695C2.81855 8.61695 2.89853 8.8368 2.88853 9.0568C2.88853 9.2768 2.78876 9.47687 2.62876 9.62686C2.62876 9.62686 2.23861 9.96692 1.97861 10.4369C1.80861 10.7269 1.63858 11.1069 1.94858 11.4069C2.10859 11.5669 2.31867 11.5269 2.53867 11.4569C2.81868 11.3569 3.11855 11.187 3.40855 10.977C3.81855 10.677 4.21871 10.3069 4.56871 9.95694C4.37871 9.59694 4.28868 9.25698 4.28868 8.99698C4.28868 8.70698 4.39877 8.32692 4.62877 7.92692ZM7.2987 5.68693C7.8587 5.41693 8.46877 5.20683 9.11877 5.08683C8.74877 4.77683 8.35863 4.56698 7.97863 4.48698C7.69863 4.42698 7.42867 4.41682 7.26867 4.57682C7.09867 4.74682 7.10857 5.01679 7.16857 5.29679C7.19857 5.42679 7.2387 5.55693 7.2987 5.68693ZM10.2186 6.58683C8.77862 6.58683 7.45878 7.28701 6.62877 8.02701C6.37877 8.25701 6.16867 8.49695 6.02867 8.71695C5.94867 8.82695 5.88854 8.91698 5.88854 8.99698C5.88854 9.07698 5.94867 9.16701 6.02867 9.27701C6.16867 9.49701 6.37877 9.72694 6.62877 9.95694C7.45878 10.6969 8.77862 11.3969 10.2186 11.3969C11.4086 11.3969 12.4386 11.1068 13.1686 10.6068C13.7686 10.1868 14.1586 9.62698 14.1586 8.99698C14.1586 8.35698 13.7686 7.80688 13.1686 7.38688C12.4386 6.88688 11.4086 6.58683 10.2186 6.58683Z" fill="black"/>
</svg>
