<svg width="16" height="16" viewBox="0 0 16 16" fill="none" xmlns="http://www.w3.org/2000/svg">
<path fill-rule="evenodd" clip-rule="evenodd" d="M3.25674 2.27937C3.17974 2.37937 3.13574 2.50937 3.13574 2.64937C3.13574 4.82938 3.13574 11.8594 3.13574 14.0494C3.13574 14.4094 3.42774 14.6994 3.78774 14.6994C3.89074 14.6994 3.99774 14.6994 4.10074 14.6994C4.46074 14.6994 4.75274 14.4094 4.75274 14.0494V10.0294C5.79074 10.2994 6.64474 10.0294 7.51074 9.64937C8.78074 9.08938 10.0837 8.16938 12.6127 9.53938C12.8607 9.66938 13.1617 9.66937 13.4037 9.51937C13.6457 9.37937 13.7947 9.11938 13.7947 8.83938V2.67937C13.7947 2.38937 13.6337 2.11937 13.3767 1.97937C10.8757 0.619375 9.50174 1.25937 8.12574 1.92937C7.12974 2.40937 6.13274 2.91937 4.31574 1.96937C4.06774 1.83937 3.77074 1.84937 3.53074 1.99937C3.41574 2.06937 3.32174 2.15937 3.25674 2.27937ZM4.75274 8.33938V3.88937C6.54274 4.46937 7.68374 3.91937 8.82474 3.36937C9.73774 2.91937 10.6487 2.47937 12.1937 3.17937L12.1947 7.58938C10.1467 6.81938 8.79274 7.30938 7.58974 7.84938C6.67574 8.26938 5.88774 8.79938 4.75274 8.33938Z" fill="black"/>
</svg>
