<svg width="24" height="24" viewBox="0 0 24 24" fill="none" xmlns="http://www.w3.org/2000/svg">
<path fill-rule="evenodd" clip-rule="evenodd" d="M6.74 3.26995C6.57 3.09995 6.34 2.99995 6.08 2.99995C6.03 2.99995 5.97 2.99995 5.92 2.99995C5.41 2.99995 5 3.40995 5 3.91995V20.08C5 20.59 5.41 21 5.92 21C5.97 21 6.03 21 6.08 21C6.59 21 7 20.59 7 20.08V14.8C8.55 15.27 9.8 14.87 11.08 14.29C12.93 13.43 14.82 12.04 18.51 14.12C18.82 14.3 19.2 14.3 19.5 14.12C19.81 13.94 20 13.61 20 13.25V4.01995C20 3.65995 19.81 3.32995 19.49 3.14995C15.95 1.13995 14 2.08995 12.06 3.07995C10.65 3.78995 9.23 4.53995 6.74 3.26995ZM7 5.57995C9.65 6.53995 11.3 5.69995 12.96 4.85995C14.32 4.17995 15.67 3.48995 18 4.61995V11.65C14.99 10.41 13.03 11.14 11.28 11.97C9.91 12.62 8.73 13.45 7 12.66V5.57995Z" fill="black"/>
</svg>
