<svg width="24" height="24" viewBox="0 0 24 24" fill="none" xmlns="http://www.w3.org/2000/svg">
<path fill-rule="evenodd" clip-rule="evenodd" d="M11.8809 8.98017L12.7519 3.64017C12.8719 2.90317 12.4689 2.18117 11.7789 1.89617C11.0889 1.61117 10.2939 1.83817 9.85888 2.44517L3.48588 11.3422C2.98388 12.0432 2.91588 12.9652 3.30988 13.7322C3.70388 14.4992 4.49388 14.9812 5.35588 14.9812H8.13988L7.36888 20.4142C7.26488 21.1502 7.67788 21.8612 8.36788 22.1342C9.05888 22.4082 9.84688 22.1732 10.2739 21.5662C12.0009 19.1152 14.8649 15.0502 16.5879 12.6042C17.0829 11.9022 17.1449 10.9832 16.7489 10.2212C16.3539 9.45817 15.5669 8.98017 14.7079 8.98017H11.8809ZM10.5079 4.97417L9.71688 9.81917C9.66988 10.1082 9.75288 10.4042 9.94288 10.6272C10.1329 10.8512 10.4109 10.9802 10.7039 10.9802C10.7039 10.9802 12.8739 10.9802 14.7079 10.9802C14.8199 10.9802 14.9219 11.0422 14.9739 11.1422C15.0259 11.2412 15.0169 11.3612 14.9529 11.4522L9.57788 19.0812L10.2819 14.1212C10.3229 13.8352 10.2369 13.5442 10.0469 13.3252C9.85688 13.1072 9.58088 12.9812 9.29188 12.9812H5.35588C5.24288 12.9812 5.13988 12.9182 5.08888 12.8182C5.03788 12.7182 5.04688 12.5982 5.11188 12.5062L10.5079 4.97417ZM17.8519 6.40417H20.2349L20.7809 7.82017C20.9499 8.25817 21.4429 8.47617 21.8799 8.30717C22.3179 8.13817 22.5359 7.64617 22.3669 7.20817C22.3669 7.20817 21.0119 3.69517 20.2819 1.80517C20.0839 1.29017 19.5889 0.951172 19.0369 0.951172C18.4849 0.952172 17.9909 1.29217 17.7929 1.80717L15.7349 7.17717C15.5679 7.61517 15.7869 8.10717 16.2249 8.27517C16.6629 8.44317 17.1549 8.22317 17.3229 7.78517L17.8519 6.40417ZM18.5039 4.70417H19.5789L19.0389 3.30617L18.5039 4.70417Z" fill="black"/>
</svg>
