<svg width="24" height="24" viewBox="0 0 24 24" fill="none" xmlns="http://www.w3.org/2000/svg">
<path fill-rule="evenodd" clip-rule="evenodd" d="M13.26 7.48977H4.5C3.57 7.48977 2.68 7.85977 2.03 8.50977C1.37 9.16977 1 10.0598 1 10.9898C1 11.6498 1 12.3498 1 13.0098C1 13.9398 1.37 14.8298 2.03 15.4898C2.68 16.1398 3.57 16.5098 4.5 16.5098H13.44L13.69 16.8698C14.8 18.5098 16.66 19.4898 18.64 19.4898H20.63C21.26 19.4898 21.86 19.2398 22.31 18.7998C22.75 18.3498 23 17.7498 23 17.1198C23 14.6298 23 9.36977 23 6.87977C23 6.24977 22.75 5.64977 22.31 5.19977C21.86 4.75977 21.26 4.50977 20.63 4.50977H18.5C16.61 4.50977 14.83 5.39977 13.7 6.89977L13.26 7.48977ZM20 6.50977H20.63C20.73 6.50977 20.82 6.54977 20.89 6.61977C20.96 6.68977 21 6.77977 21 6.87977V17.1198C21 17.2198 20.96 17.3098 20.89 17.3798C20.82 17.4498 20.73 17.4898 20.63 17.4898H20V6.50977ZM18 6.53977V17.4398C16.93 17.2598 15.96 16.6598 15.34 15.7398L14.79 14.9498C14.61 14.6798 14.3 14.5098 13.97 14.5098H4.5C4.1 14.5098 3.72 14.3498 3.44 14.0698C3.16 13.7898 3 13.4098 3 13.0098V10.9898C3 10.5898 3.16 10.2098 3.44 9.92977C3.72 9.64977 4.1 9.48977 4.5 9.48977H13.76C14.08 9.48977 14.37 9.33977 14.56 9.08977L15.3 8.10977C15.95 7.22977 16.93 6.66977 18 6.53977ZM11.05 10.9998H9.05C8.49 10.9998 8.05 11.4498 8.05 11.9998C8.05 12.5498 8.49 12.9998 9.05 12.9998H11.05C11.6 12.9998 12.05 12.5498 12.05 11.9998C12.05 11.4498 11.6 10.9998 11.05 10.9998Z" fill="black"/>
</svg>
