<svg width="16" height="16" viewBox="0 0 16 16" fill="none" xmlns="http://www.w3.org/2000/svg">
<path fill-rule="evenodd" clip-rule="evenodd" d="M9.45609 5.7394L9.98409 2.1394C10.0711 1.5424 9.74009 0.962401 9.18209 0.734401C8.62409 0.506401 7.98209 0.687401 7.62609 1.1744L3.09709 7.3724C2.69709 7.9194 2.63909 8.6454 2.94509 9.2494C3.25209 9.8534 3.87309 10.2344 4.55009 10.2344H6.55109L6.07309 13.8694C5.99409 14.4654 6.33009 15.0374 6.88809 15.2604C7.44609 15.4824 8.08409 15.2974 8.43609 14.8114L12.9421 8.5964C13.3391 8.0484 13.3961 7.3244 13.0881 6.7224C12.7811 6.1194 12.1611 5.7394 11.4851 5.7394H9.45609ZM8.23209 3.0574L7.73909 6.4234C7.70509 6.6534 7.77309 6.8874 7.92509 7.0634C8.07709 7.2384 8.29809 7.3394 8.53009 7.3394H11.4851C11.5601 7.3394 11.6291 7.3824 11.6631 7.4494C11.6971 7.5164 11.6911 7.5964 11.6471 7.6574L7.80709 12.9524L8.25709 9.5384C8.28709 9.3104 8.21709 9.0804 8.06509 8.9064C7.91309 8.7334 7.69409 8.6344 7.46409 8.6344C7.46409 8.6344 5.90609 8.6344 4.55009 8.6344C4.47509 8.6344 4.40609 8.5924 4.37209 8.5244C4.33809 8.4574 4.34509 8.3774 4.38909 8.3164L8.23209 3.0574Z" fill="black"/>
</svg>
