<svg width="24" height="24" viewBox="0 0 24 24" fill="none" xmlns="http://www.w3.org/2000/svg">
<path fill-rule="evenodd" clip-rule="evenodd" d="M6.08084 10.5104L7.51484 11.9434L7.11184 12.5054C7.04684 12.5974 7.03784 12.7174 7.08884 12.8174C7.13984 12.9174 7.24284 12.9804 7.35584 12.9804H8.55184L11.9598 16.3894L11.5778 19.0804L12.8488 17.2774L14.2838 18.7124L12.2738 21.5654C11.8468 22.1724 11.0588 22.4074 10.3678 22.1334C9.67784 21.8604 9.26484 21.1494 9.36884 20.4134L10.1398 14.9804H7.35584C6.49384 14.9804 5.70384 14.4984 5.30984 13.7314C4.91584 12.9644 4.98384 12.0424 5.48584 11.3414L6.08084 10.5104ZM8.55684 7.05443L11.8588 2.44443C12.2938 1.83743 13.0888 1.61043 13.7788 1.89543C14.4688 2.18043 14.8718 2.90243 14.7518 3.63943L13.8808 8.97943H16.7078C17.5668 8.97943 18.3538 9.45743 18.7488 10.2204C19.1448 10.9824 19.0828 11.9014 18.5878 12.6034L16.7348 15.2334L21.5428 20.0404C21.9718 20.4694 21.9718 21.1664 21.5428 21.5964C21.1128 22.0254 20.4158 22.0254 19.9868 21.5964L2.47484 4.08343C2.04484 3.65443 2.04484 2.95743 2.47484 2.52843C2.90384 2.09843 3.60084 2.09843 4.02984 2.52843L8.55684 7.05443ZM12.4418 10.9394C12.5268 10.9674 12.6148 10.9794 12.7038 10.9794C12.7038 10.9794 14.8738 10.9794 16.7078 10.9794C16.8198 10.9794 16.9218 11.0414 16.9738 11.1414C17.0258 11.2404 17.0168 11.3604 16.9528 11.4514L15.2998 13.7974L12.4418 10.9394ZM9.98984 8.48743L12.5078 4.97343L11.7168 9.81843C11.6938 9.95943 11.7018 10.1024 11.7388 10.2374L9.98984 8.48743Z" fill="black"/>
</svg>
