<svg width="24" height="24" viewBox="0 0 24 24" fill="none" xmlns="http://www.w3.org/2000/svg">
<path fill-rule="evenodd" clip-rule="evenodd" d="M13.8809 8.97943L14.7519 3.63943C14.8719 2.90243 14.4689 2.18043 13.7789 1.89543C13.0889 1.61043 12.2939 1.83743 11.8589 2.44443L5.48588 11.3414C4.98388 12.0424 4.91588 12.9644 5.30988 13.7314C5.70388 14.4984 6.49388 14.9804 7.35588 14.9804H10.1399L9.36888 20.4134C9.26488 21.1494 9.67788 21.8604 10.3679 22.1334C11.0589 22.4074 11.8469 22.1724 12.2739 21.5654C14.0009 19.1144 16.8649 15.0494 18.5879 12.6034C19.0829 11.9014 19.1449 10.9824 18.7489 10.2204C18.3539 9.45743 17.5669 8.97943 16.7079 8.97943H13.8809ZM12.5079 4.97343L11.7169 9.81843C11.6699 10.1074 11.7529 10.4034 11.9429 10.6264C12.1329 10.8504 12.4109 10.9794 12.7039 10.9794C12.7039 10.9794 14.8739 10.9794 16.7079 10.9794C16.8199 10.9794 16.9219 11.0414 16.9739 11.1414C17.0259 11.2404 17.0169 11.3604 16.9529 11.4514L11.5779 19.0804L12.2819 14.1204C12.3229 13.8344 12.2369 13.5434 12.0469 13.3244C11.8569 13.1064 11.5809 12.9804 11.2919 12.9804H7.35588C7.24288 12.9804 7.13988 12.9174 7.08888 12.8174C7.03788 12.7174 7.04688 12.5974 7.11188 12.5054L12.5079 4.97343Z" fill="black"/>
</svg>
