<svg width="24" height="24" viewBox="0 0 24 24" fill="none" xmlns="http://www.w3.org/2000/svg">
<path d="M7 21C4.31128 21 2.11818 18.8777 2.00462 16.2169L2 16V8C2 5.31128 4.12234 3.11818 6.78311 3.00462L7 3H8.78517L8.78532 5H7C5.40236 5 4.09634 6.24896 4.00509 7.82373L4 8V16C4 17.5976 5.24896 18.9037 6.82373 18.9949L7 19H8.78517L8.78532 21H7Z" fill="black"/>
<path d="M21 12.9365C21.5128 12.9365 21.9355 13.3225 21.9933 13.8199L22 13.9365V16C22 16.5523 21.5523 17 21 17C20.4872 17 20.0645 16.614 20.0067 16.1166L20 16V13.9365C20 13.3842 20.4477 12.9365 21 12.9365Z" fill="black"/>
<path d="M21 7C21.5128 7 21.9355 7.38604 21.9933 7.88338L22 8V9.9365C22 10.4888 21.5523 10.9365 21 10.9365C20.4872 10.9365 20.0645 10.5505 20.0067 10.0531L20 9.9365V8C20 7.44772 20.4477 7 21 7Z" fill="black"/>
<path d="M17 5H15.2156L15.2147 3H17C17.9354 3 18.8354 3.25822 19.616 3.7383C20.0864 4.02763 20.2332 4.64354 19.9439 5.11397C19.6752 5.5508 19.125 5.7086 18.6711 5.49726L18.5682 5.4419C18.159 5.19024 17.6962 5.04065 17.2098 5.00719L17 5Z" fill="black"/>
<path d="M13 2C13 1.4477 12.5523 1 12 1C11.4477 1 11 1.4477 11 2V4C11 4.5523 11.4477 5 12 5C12.5523 5 13 4.5523 13 4V2Z" fill="black"/>
<path d="M13 8C13 7.4477 12.5523 7 12 7C11.4477 7 11 7.4477 11 8V10C11 10.5523 11.4477 11 12 11C12.5523 11 13 10.5523 13 10V8Z" fill="black"/>
<path d="M13 14C13 13.4477 12.5523 13 12 13C11.4477 13 11 13.4477 11 14V16C11 16.5523 11.4477 17 12 17C12.5523 17 13 16.5523 13 16V14Z" fill="black"/>
<path d="M13 20C13 19.4477 12.5523 19 12 19C11.4477 19 11 19.4477 11 20V22C11 22.5523 11.4477 23 12 23C12.5523 23 13 22.5523 13 22V20Z" fill="black"/>
<path d="M17 21H15.2156L15.2147 19H17C17.5505 19 18.077 18.8524 18.5378 18.5765C19.0117 18.2928 19.6258 18.447 19.9095 18.9208C20.1932 19.3947 20.039 20.0088 19.5652 20.2925C18.873 20.7069 18.09 20.9485 17.2734 20.9926L17 21Z" fill="black"/>
</svg>
