<svg width="16" height="16" viewBox="0 0 16 16" fill="none" xmlns="http://www.w3.org/2000/svg">
<path d="M8.46684 6.5619C8.92957 6.70057 9.29863 7.05682 9.45501 7.51163L9.45592 7.50859C9.59009 6.93087 9.05275 6.40349 8.46684 6.5619Z" fill="black"/>
<path fill-rule="evenodd" clip-rule="evenodd" d="M6.45495 1.99284C7.15776 0.701247 8.56629 0.0207167 10.0463 0.417296C11.4447 0.791987 12.3028 1.9694 12.3609 3.34128L12.3638 3.5295L12.3599 3.64303L12.4724 3.63897C13.8004 3.62193 14.9778 4.35406 15.4694 5.60052L15.5349 5.78206L15.5885 5.96211C15.9632 7.36069 15.3726 8.69254 14.2136 9.42871L14.052 9.52536L13.9519 9.57903L13.9608 9.5914C14.6875 10.741 14.6655 12.1583 13.827 13.2305L13.6951 13.3886L13.5577 13.5343C12.5111 14.5809 11.0206 14.719 9.78727 14.0333L9.6069 13.926L9.57578 13.9861C8.93171 15.1696 7.69509 15.84 6.354 15.6388L6.16176 15.604L5.98456 15.5616C4.58601 15.1869 3.72788 14.0095 3.66987 12.6376L3.66694 12.4494L3.6719 12.336L3.5584 12.3399C2.23044 12.357 1.05298 11.6248 0.561364 10.3784L0.495857 10.1968L0.442249 10.0168C0.0675585 8.61818 0.658157 7.28633 1.81722 6.55016L1.97876 6.45351L2.0799 6.40103L2.06998 6.38754C1.34323 5.23793 1.36526 3.82054 2.20383 2.74839L2.33575 2.59024L2.47314 2.44452C3.5197 1.39806 5.01021 1.25994 6.24348 1.94559L6.4249 2.05403L6.45495 1.99284ZM7.60756 3.58626C7.74591 2.37142 8.6529 1.70037 9.63213 1.96277L9.76174 2.00311C10.6453 2.31808 11.0314 3.30924 10.5703 4.38613C10.2853 5.05177 10.9607 5.72341 11.6247 5.43468C12.746 4.94712 13.7807 5.39706 14.0431 6.37621C14.3042 7.35082 13.632 8.25469 12.4134 8.40039C11.6944 8.48636 11.4505 9.40709 12.0325 9.83781C13.0154 10.5651 13.1431 11.6861 12.4263 12.403C11.7129 13.1164 10.594 12.9862 9.85853 12.0037C9.42459 11.424 8.50522 11.6731 8.42324 12.3926C8.28482 13.6074 7.37781 14.2785 6.39868 14.0161C5.42407 13.755 4.97737 12.721 5.4605 11.5928C5.74556 10.9271 5.07011 10.2554 4.40606 10.5442L4.25376 10.6049C3.19235 10.9898 2.23821 10.5373 1.98773 9.60265C1.72663 8.62805 2.39878 7.72418 3.61737 7.57848C4.33638 7.49251 4.58034 6.57171 3.99822 6.14102C3.01531 5.4138 2.88765 4.29275 3.60448 3.57592C4.31792 2.86255 5.43675 2.99272 6.17229 3.97519C6.60625 4.55484 7.52563 4.30571 7.60756 3.58626Z" fill="black"/>
<path d="M7.55587 9.42039C7.09139 9.26333 6.72859 8.8848 6.59339 8.41072L6.57488 8.47028C6.44139 9.04505 6.97259 9.57 7.55587 9.42039Z" fill="black"/>
<path d="M6.57364 8.33373C6.54907 8.2261 6.5361 8.11407 6.5361 7.99903C6.5361 7.59939 6.69271 7.23605 6.94786 6.96709L6.87305 6.98401C6.30047 7.16239 6.1183 7.90923 6.57364 8.33373Z" fill="black"/>
<path d="M8.31516 6.49773C7.87341 6.0902 7.13312 6.30763 6.99578 6.9188C7.26555 6.65892 7.63229 6.49903 8.0361 6.49903C8.14268 6.49903 8.24669 6.51017 8.347 6.53135L8.31516 6.49773Z" fill="black"/>
<path d="M9.50488 7.6934C9.52534 7.79209 9.5361 7.89431 9.5361 7.99903C9.5361 8.3811 9.39296 8.72998 9.15743 8.99494C9.70935 8.82304 9.89884 8.12291 9.50488 7.6934Z" fill="black"/>
<path d="M9.01465 9.13556C8.7519 9.36204 8.40988 9.49903 8.0361 9.49903C7.91903 9.49903 7.80507 9.48559 7.69569 9.46018L7.71569 9.48128C8.13893 9.87152 8.83599 9.68834 9.01465 9.13556Z" fill="black"/>
<path fill-rule="evenodd" clip-rule="evenodd" d="M8.0361 5.74903C6.79398 5.74903 5.7861 6.75692 5.7861 7.99903C5.7861 9.24115 6.79398 10.249 8.0361 10.249C9.27821 10.249 10.2861 9.24115 10.2861 7.99903C10.2861 6.75692 9.27821 5.74903 8.0361 5.74903ZM9.45501 7.51163C9.29863 7.05682 8.92957 6.70057 8.46684 6.5619C9.05275 6.40349 9.59009 6.93087 9.45592 7.50859L9.45501 7.51163ZM9.5361 7.99903C9.5361 7.89431 9.52534 7.79209 9.50488 7.6934C9.89884 8.12291 9.70935 8.82304 9.15743 8.99494C9.39296 8.72998 9.5361 8.3811 9.5361 7.99903ZM8.0361 9.49903C8.40988 9.49903 8.7519 9.36204 9.01465 9.13556C8.83599 9.68834 8.13893 9.87152 7.71569 9.48128L7.69569 9.46018C7.80507 9.48559 7.91903 9.49903 8.0361 9.49903ZM6.59339 8.41072C6.72859 8.8848 7.09139 9.26333 7.55587 9.42039C6.97259 9.57 6.44139 9.04505 6.57488 8.47028L6.59339 8.41072ZM6.5361 7.99903C6.5361 8.11407 6.54907 8.2261 6.57364 8.33373C6.1183 7.90923 6.30047 7.16239 6.87305 6.98401L6.94786 6.96709C6.69271 7.23605 6.5361 7.59939 6.5361 7.99903ZM6.99578 6.9188C7.13312 6.30763 7.87341 6.0902 8.31516 6.49773L8.347 6.53135C8.24669 6.51017 8.14268 6.49903 8.0361 6.49903C7.63229 6.49903 7.26555 6.65892 6.99578 6.9188ZM8.7861 7.99903C8.7861 7.58535 8.44978 7.24903 8.0361 7.24903C7.62241 7.24903 7.2861 7.58535 7.2861 7.99903C7.2861 8.41272 7.62241 8.74903 8.0361 8.74903C8.44978 8.74903 8.7861 8.41272 8.7861 7.99903Z" fill="black"/>
</svg>
