<svg width="16" height="16" viewBox="0 0 16 16" fill="none" xmlns="http://www.w3.org/2000/svg">
<path d="M8.83535 13.3503V11.8305V9.98636V8.90311V8.40591H8.17412H7.88247H7.23535V8.91628V9.97455V11.9409V13.3503H7.58225H8.38097H8.83535Z" fill="black"/>
<path d="M6.774 9.957C6.92562 9.97136 7.06673 9.97685 7.19572 9.97527C7.02813 9.84956 6.84174 9.67895 6.651 9.46331C6.34777 9.12033 6.01866 8.65107 5.72316 8.08954C4.92057 7.81546 4.00726 7.33222 3.2315 6.5669C2.5799 5.9241 2.2326 5.1868 2.2104 4.5567C2.2004 4.2706 2.2532 4.0115 2.4204 3.843C2.5766 3.6856 2.8281 3.6374 3.1072 3.6429C3.63211 3.65322 4.2404 3.8838 4.80254 4.33635C4.82392 3.71495 4.95722 3.14894 5.17106 2.65328C4.47713 2.24826 3.76389 2.05548 3.1387 2.0432C2.3691 2.028 1.7155 2.2819 1.2848 2.7159C0.832299 3.1718 0.584199 3.8387 0.611399 4.6129C0.645199 5.5731 1.1148 6.7263 2.1079 7.7059C3.6405 9.2178 5.6037 9.8461 6.774 9.957Z" fill="black"/>
<path d="M8.83535 8.40591V8.90311C8.97619 8.74549 9.12303 8.55966 9.2689 8.3496C9.4626 8.3297 9.6895 8.2966 9.896 8.2417C10.0447 8.2022 10.2 8.15474 10.3601 8.0988C10.9028 7.10972 11.3429 5.83643 11.3429 4.47111C11.3429 4.40899 11.3417 4.34739 11.3394 4.28634C11.2256 4.37595 11.1136 4.4746 11.0044 4.5823C10.8228 4.7614 10.6564 4.9486 10.5041 5.1406C10.5293 4.9209 10.5429 4.6974 10.5429 4.4711C10.5429 3.9611 10.4493 3.4915 10.2889 3.0783C10.5076 2.90147 10.732 2.74827 10.9584 2.61758C10.3642 1.28727 9.17774 0.473557 8.092 0.470711C6.94386 0.467711 5.75607 1.29726 5.17106 2.65328C5.39806 2.78577 5.62299 2.94097 5.8421 3.12C5.6881 3.5346 5.5995 4.0044 5.5995 4.5136C5.5995 4.7476 5.6133 4.9782 5.6388 5.2041C5.4769 4.9986 5.2993 4.7981 5.1049 4.6063C5.00617 4.50892 4.90512 4.41894 4.80254 4.33635C4.80052 4.39495 4.7995 4.45404 4.7995 4.51361C4.7995 5.86483 5.21079 7.11589 5.72316 8.08954C5.89723 8.14899 6.06608 8.19859 6.2272 8.2391C6.412 8.2855 6.613 8.3146 6.7931 8.3328C6.9414 8.55581 7.09144 8.75181 7.23535 8.91628V8.40591H7.88247C7.7258 8.23681 7.54164 8.02017 7.4029 7.80341C6.8832 6.99131 6.3995 5.81141 6.3995 4.51361C6.3995 3.63281 6.7224 2.89701 7.2071 2.45611C7.4678 2.21891 7.7731 2.06981 8.0878 2.07061C8.3828 2.07141 8.6763 2.22111 8.9318 2.45271C9.4099 2.88611 9.7429 3.60661 9.7429 4.47111C9.7429 5.76651 9.2333 6.95451 8.6917 7.77521C8.54145 8.00286 8.34167 8.23044 8.17412 8.40591H8.83535Z" fill="black"/>
<path d="M5.5995 4.5136C5.5995 4.0044 5.6881 3.5346 5.8421 3.12C5.62299 2.94097 5.39806 2.78577 5.17106 2.65328C4.95722 3.14894 4.82392 3.71495 4.80254 4.33635C4.90512 4.41894 5.00617 4.50892 5.1049 4.6063C5.2993 4.7981 5.4769 4.9986 5.6388 5.2041C5.6133 4.9782 5.5995 4.7476 5.5995 4.5136Z" fill="black"/>
<path d="M10.5041 5.1406C10.6564 4.9486 10.8228 4.7614 11.0044 4.5823C11.1136 4.4746 11.2256 4.37595 11.3394 4.28634C11.3162 3.66961 11.1776 3.10843 10.9584 2.61758C10.732 2.74827 10.5076 2.90147 10.2889 3.0783C10.4493 3.4915 10.5429 3.9611 10.5429 4.4711C10.5429 4.6974 10.5293 4.9209 10.5041 5.1406Z" fill="black"/>
<path d="M14.8245 2.6919C14.3937 2.2579 13.7402 2.004 12.9705 2.0192C12.3515 2.03139 11.646 2.22057 10.9584 2.61758C11.1776 3.10843 11.3162 3.66961 11.3394 4.28634C11.8924 3.85096 12.4873 3.62902 13.002 3.6189C13.2812 3.6134 13.5326 3.6616 13.6889 3.819C13.8561 3.9875 13.9089 4.2466 13.8988 4.5327C13.8767 5.1628 13.5294 5.9001 12.8778 6.5429C12.0883 7.32177 11.1648 7.81756 10.3601 8.0988C10.0557 8.65349 9.7191 9.11879 9.4097 9.46081C9.20797 9.68385 9.01187 9.85917 8.83761 9.98645C8.99752 9.99273 9.1795 9.98716 9.3799 9.9655C10.5342 9.8407 12.4712 9.1914 14.0014 7.6819C14.9945 6.7023 15.4641 5.5491 15.4978 4.5889C15.5251 3.8147 15.277 3.1479 14.8245 2.6919Z" fill="black"/>
<path d="M9.896 8.2417C9.6895 8.2966 9.4626 8.3297 9.2689 8.3496C9.12303 8.55966 8.97619 8.74549 8.83535 8.90311V9.98636L8.83761 9.98645C9.01187 9.85917 9.20797 9.68385 9.4097 9.46081C9.7191 9.11879 10.0557 8.65349 10.3601 8.0988C10.2 8.15474 10.0447 8.2022 9.896 8.2417Z" fill="black"/>
<path d="M6.7931 8.3328C6.613 8.3146 6.412 8.2855 6.2272 8.2391C6.06608 8.19859 5.89723 8.14899 5.72316 8.08954C6.01866 8.65107 6.34777 9.12033 6.651 9.46331C6.84174 9.67895 7.02813 9.84956 7.19572 9.97527C7.20906 9.9751 7.22227 9.97486 7.23535 9.97455V8.91628C7.09144 8.75181 6.9414 8.55581 6.7931 8.3328Z" fill="black"/>
<path fill-rule="evenodd" clip-rule="evenodd" d="M7.58225 13.3503H7.23535V11.9409C6.86125 11.6151 6.40166 11.2978 5.84604 11.025C4.89924 10.5601 3.98424 10.4617 3.32914 10.598C2.70924 10.7268 2.28044 11.0633 2.07504 11.4855C1.91854 11.8072 1.88244 12.2072 2.01164 12.6425C2.21424 13.3253 2.88504 14.1668 3.99934 14.7139C5.72954 15.5634 7.26884 15.3915 7.89314 15.1456C7.93132 15.1306 7.96759 15.1147 8.00202 15.0981C7.68218 14.9495 7.51449 14.7421 7.44485 14.6003C7.35595 14.4192 7.29005 13.9895 7.53555 13.4483C7.54997 13.4165 7.56553 13.3838 7.58225 13.3503ZM6.83054 13.8444C6.86444 13.8422 6.89874 13.8388 6.93274 13.8344C6.91934 13.8127 6.90544 13.7914 6.89114 13.7707C6.58214 13.3223 6.02794 12.7853 5.18494 12.3714C4.68344 12.1252 4.20054 12.0183 3.81164 12.0434C3.69804 12.0507 3.59514 12.069 3.50784 12.1031C3.48134 12.1135 3.45174 12.115 3.43464 12.1289C3.43684 12.1497 3.44204 12.1901 3.44964 12.2158C3.47624 12.3053 3.52434 12.3981 3.58754 12.4928C3.80004 12.8114 4.16924 13.1263 4.66044 13.3674C5.50144 13.7804 6.27644 13.8814 6.83054 13.8444Z" fill="black"/>
<path fill-rule="evenodd" clip-rule="evenodd" d="M13.9037 11.4721C13.6973 11.0477 13.268 10.7099 12.6499 10.5778C11.9919 10.4372 11.0742 10.5327 10.1261 10.9982C9.61789 11.2478 9.19024 11.5345 8.83535 11.8305V13.3503H8.38097C8.46638 13.5147 8.52601 13.6621 8.56224 13.7845C8.67574 14.1679 8.61044 14.4579 8.53384 14.6139C8.46629 14.7514 8.30588 14.9516 8.00202 15.0981C8.02798 15.1101 8.05495 15.1218 8.08295 15.133C8.71015 15.3841 10.2544 15.5641 11.986 14.7139C13.1015 14.1662 13.7709 13.3198 13.9712 12.6309C14.0977 12.1956 14.0608 11.7951 13.9037 11.4721ZM12.5308 12.2123C12.5393 12.183 12.5444 12.1365 12.5461 12.1166C12.5281 12.0982 12.4947 12.0945 12.4641 12.0823C12.3764 12.0475 12.273 12.0285 12.1589 12.0206C11.77 11.9935 11.2876 12.099 10.7872 12.3447C9.94555 12.758 9.39335 13.2966 9.08615 13.747C9.06885 13.7724 9.05215 13.7986 9.03605 13.8251C9.07565 13.831 9.11575 13.8355 9.15535 13.8383C9.71005 13.878 10.4851 13.7798 11.3249 13.3674C11.8149 13.1269 12.1826 12.8115 12.3937 12.4917C12.4567 12.3963 12.5045 12.3026 12.5308 12.2123Z" fill="black"/>
<path d="M7.53555 13.4483C7.29005 13.9895 7.35595 14.4192 7.44485 14.6003C7.51449 14.7421 7.68218 14.9495 8.00202 15.0981C8.30588 14.9516 8.46629 14.7514 8.53384 14.6139C8.61044 14.4579 8.67574 14.1679 8.56224 13.7845C8.52601 13.6621 8.46638 13.5147 8.38097 13.3503H7.58225C7.56553 13.3838 7.54997 13.4165 7.53555 13.4483Z" fill="black"/>
</svg>
