<svg width="24" height="24" viewBox="0 0 24 24" fill="none" xmlns="http://www.w3.org/2000/svg">
<path d="M12.1373 1.71484C13.0492 1.71504 13.7803 2.24356 14.2672 2.74512L14.4508 2.94629C15.345 3.98452 15.8756 5.51034 15.8756 7.2002C15.8752 10.4235 14.4828 13.2648 13.3151 14.7412L13.3131 14.7441C13.2327 14.8446 13.1413 14.9437 13.0524 15.0342V18.584C13.5596 17.9968 14.2546 17.4208 15.1705 16.9717L15.1774 16.9688L15.1832 16.9658L15.4645 16.8379L15.4723 16.835L15.4791 16.8311C16.1958 16.5322 16.9572 16.399 17.6637 16.5098L17.6686 16.5107C17.8942 16.5412 18.164 16.599 18.4225 16.7188C18.6258 16.8131 18.8709 16.9694 19.0621 17.2217L19.1412 17.3359L19.1481 17.3486L19.1549 17.3604L19.2067 17.4561L19.2213 17.4814L19.2321 17.5078L19.2721 17.6064L19.277 17.6182L19.2809 17.6309C19.4041 17.9846 19.3716 18.3187 19.3102 18.5645C19.2808 18.6818 19.2392 18.7929 19.1959 18.8955L19.2076 18.9072L19.0309 19.2383C18.6514 19.9475 17.9795 20.5383 17.1696 20.9434L17.0631 20.9971H17.0533C15.7474 21.6142 14.4914 21.6975 13.5397 21.5527C13.5372 21.5524 13.5343 21.5521 13.5319 21.5518H13.526C13.387 21.5334 13.2541 21.5046 13.1334 21.4727L12.8033 21.3701L12.2887 21.1865L12.0192 21.0908L11.7838 21.1758L11.3043 21.3477C11.1109 21.4167 10.8671 21.4895 10.6237 21.5352H10.6207L10.5973 21.54L10.5865 21.541L10.5768 21.543C9.61545 21.6783 8.34144 21.5923 7.00549 20.9531L6.99475 20.9502L6.96448 20.9355C6.1547 20.5375 5.50272 19.9459 5.12659 19.25C5.03009 19.0762 4.90749 18.8365 4.83948 18.5645C4.76983 18.2857 4.73868 17.8947 4.92542 17.4932L4.92932 17.4834L4.9342 17.4727L4.94006 17.4619L4.94397 17.4541L4.94788 17.4453C5.14541 17.0683 5.45837 16.8487 5.71936 16.7236C5.97713 16.6003 6.24702 16.5378 6.46936 16.502L6.48206 16.5L6.49377 16.498L6.50354 16.4971C7.28636 16.3892 8.1596 16.5556 8.9762 16.9639C9.87475 17.4018 10.5553 17.9691 11.0524 18.5498V15.0371C10.9813 14.9604 10.9115 14.8874 10.8571 14.8262L10.8424 14.8115L10.8258 14.793L10.8102 14.7734L10.7975 14.7568L10.7936 14.752C9.67226 13.2927 8.35038 10.4784 8.35022 7.27051C8.35024 5.46484 8.91769 3.81752 9.95764 2.74512C10.4655 2.22199 11.2094 1.71489 12.1373 1.71484Z" fill="black"/>
<path d="M4.45667 5.04688C5.42227 5.06995 6.49613 5.44844 7.47717 6.17188C7.43391 6.53285 7.41272 6.90062 7.41272 7.27051L7.41663 7.5918C7.48271 10.1983 8.34207 12.5338 9.28479 14.165L8.95862 14.0723C7.43788 13.6377 5.60454 12.7457 4.06799 11.2334C2.86843 10.0576 2.19764 8.6562 2.15588 7.3916C2.12962 6.7596 2.26899 6.09043 2.72424 5.61816L2.73108 5.61035L2.73889 5.60352C3.20173 5.15797 3.85086 5.03402 4.45667 5.04688Z" fill="black"/>
<path d="M19.8268 5.00684C20.3501 5.03334 20.9215 5.16464 21.3248 5.58301C21.7933 6.05657 21.9311 6.72824 21.9049 7.35742C21.8631 8.61127 21.1912 10.0111 19.9918 11.1865C18.4708 12.6834 16.6875 13.5883 15.191 14.0469L14.8473 14.1514C15.8718 12.4389 16.8128 9.95635 16.8131 7.2002C16.8131 6.80034 16.7844 6.40568 16.7321 6.02051C17.6701 5.3724 18.6797 5.02433 19.5905 5.00098H19.6051L19.8268 5.00684Z" fill="black"/>
</svg>
