<svg width="24" height="24" viewBox="0 0 24 24" fill="none" xmlns="http://www.w3.org/2000/svg">
<path fill-rule="evenodd" clip-rule="evenodd" d="M9.9599 4.3C8.2699 3.12 6.1599 3.3 4.7499 4.71C3.3299 6.13 3.1499 8.25 4.3299 9.93C2.4699 10.8 1.5599 12.71 2.0799 14.65C2.5999 16.58 4.3399 17.8 6.3899 17.61C6.2199 19.66 7.4199 21.4 9.3499 21.92C11.2899 22.44 13.2099 21.54 14.0799 19.67C15.7699 20.85 17.8699 20.68 19.2899 19.26C20.7099 17.85 20.8899 15.73 19.7099 14.05C21.5699 13.18 22.4699 11.26 21.9599 9.33C21.4399 7.39 19.6899 6.18 17.6399 6.36C17.8199 4.31 16.6199 2.57 14.6799 2.05C12.7499 1.53 10.8199 2.43 9.9599 4.3ZM9.6999 6.53C9.9199 6.83 10.2999 6.96 10.6499 6.86C11.0099 6.77 11.2699 6.46 11.3099 6.1C11.4999 4.42 12.8199 3.42 14.2199 3.79C15.6199 4.17 16.2399 5.7 15.5799 7.25C15.4299 7.59 15.5099 7.98 15.7699 8.24C16.0299 8.5 16.4299 8.58 16.7699 8.43C18.3199 7.75 19.8399 8.39 20.2199 9.79C20.5899 11.19 19.5799 12.5 17.8999 12.7C17.5399 12.74 17.2299 13.01 17.1399 13.36C17.0499 13.72 17.1799 14.1 17.4699 14.32C18.8299 15.32 19.0399 16.97 18.0199 17.99C16.9899 19.01 15.3599 18.79 14.3399 17.44C14.1199 17.14 13.7399 17.01 13.3899 17.11C13.0299 17.21 12.7699 17.51 12.7299 17.88C12.5399 19.56 11.2199 20.56 9.8199 20.18C8.4199 19.81 7.7899 18.28 8.4599 16.73C8.5999 16.39 8.5299 15.99 8.2699 15.73C8.0099 15.47 7.6099 15.4 7.2699 15.55C5.7199 16.22 4.1999 15.58 3.8199 14.18C3.4499 12.78 4.4599 11.47 6.1399 11.27C6.4999 11.23 6.7999 10.97 6.8999 10.61C6.9899 10.25 6.8599 9.88 6.5599 9.66C5.1999 8.65 4.9999 7.01 6.0199 5.98C7.0499 4.96 8.6799 5.18 9.6999 6.53ZM12.0499 9.1C10.4499 9.1 9.1499 10.4 9.1499 12C9.1499 13.6 10.4499 14.9 12.0499 14.9C13.6499 14.9 14.9499 13.6 14.9499 12C14.9499 10.4 13.6499 9.1 12.0499 9.1ZM12.0499 10.9C12.6499 10.9 13.1499 11.39 13.1499 12C13.1499 12.61 12.6499 13.1 12.0499 13.1C11.4399 13.1 10.9499 12.61 10.9499 12C10.9499 11.39 11.4399 10.9 12.0499 10.9Z" fill="black"/>
</svg>
