<svg width="24" height="24" viewBox="0 0 24 24" fill="none" xmlns="http://www.w3.org/2000/svg">
<path fill-rule="evenodd" clip-rule="evenodd" d="M8.50996 4.21055C8.78996 3.38055 9.21996 2.69055 9.70996 2.17055C10.42 1.44055 11.27 1.06055 12.12 1.06055H12.13C12.93 1.06055 13.78 1.44055 14.48 2.16055C14.96 2.66055 15.37 3.32055 15.66 4.11055C16.65 3.49055 17.69 3.19055 18.59 3.18055C19.61 3.15055 20.48 3.49055 21.05 4.06055C21.65 4.67055 21.98 5.55055 21.94 6.58055C21.89 7.90055 21.24 9.47055 19.88 10.8205C17.76 12.9105 15.06 13.8205 13.46 13.9905L13.05 14.0205V16.8105C13.45 16.4705 13.92 16.1505 14.47 15.8805C15.67 15.2905 16.86 15.2305 17.73 15.5005C18.47 15.7205 19 16.1705 19.28 16.7405C19.54 17.2805 19.57 17.9705 19.3 18.6805C18.98 19.5305 18.22 20.4305 17.04 21.0105C15.16 21.9405 13.4 21.7805 12.43 21.4505C12.28 21.4005 12.15 21.3405 12.03 21.2805C11.92 21.3305 11.8 21.3805 11.67 21.4305C10.71 21.7605 8.95996 21.9205 7.08996 21.0005C5.90996 20.4205 5.15996 19.5205 4.83996 18.6705C4.56996 17.9605 4.59996 17.2705 4.85996 16.7305C5.13996 16.1705 5.67996 15.7205 6.39996 15.5005C7.27996 15.2305 8.45996 15.2905 9.64996 15.8705C10.19 16.1405 10.66 16.4405 11.05 16.7705V14.0305L11.01 14.0005L10.66 13.9805C9.02996 13.8305 6.30996 12.9505 4.17996 10.8505C2.80996 9.51055 2.16996 7.93055 2.11996 6.62055C2.07996 5.59055 2.40996 4.70055 3.00996 4.09055C3.57996 3.52055 4.44996 3.19055 5.46996 3.21055C6.39996 3.23055 7.47996 3.54055 8.50996 4.21055ZM13.04 19.7405C13.09 19.6105 13.15 19.4605 13.22 19.3305C13.58 18.7205 14.23 18.0105 15.27 17.5005C15.88 17.2005 16.48 17.0905 16.97 17.1705C17.28 17.2105 17.56 17.3105 17.66 17.5205C17.76 17.7305 17.66 17.9905 17.51 18.2605C17.28 18.6905 16.84 19.1005 16.24 19.4005C15.21 19.9105 14.23 19.9705 13.52 19.8605C13.35 19.8405 13.18 19.7905 13.04 19.7405ZM11.06 19.7205C10.92 19.7705 10.75 19.8205 10.59 19.8505C9.87996 19.9505 8.90996 19.8905 7.87996 19.3905C7.28996 19.1005 6.85996 18.6905 6.62996 18.2605C6.47996 17.9905 6.37996 17.7305 6.47996 17.5205C6.58996 17.3105 6.85996 17.2105 7.16996 17.1605C7.65996 17.0905 8.25996 17.1905 8.85996 17.4905C9.88996 17.9905 10.53 18.7005 10.88 19.3105C10.96 19.4405 11.02 19.5905 11.06 19.7205ZM12.04 12.4905C11.96 12.4105 11.87 12.3105 11.79 12.2205C10.96 11.1405 9.93996 8.98055 9.93996 6.53055C9.93996 5.20055 10.36 4.09055 11.01 3.42055C11.34 3.08055 11.72 2.86055 12.12 2.86055C12.49 2.86055 12.86 3.08055 13.19 3.42055C13.82 4.07055 14.26 5.16055 14.26 6.47055C14.26 8.92055 13.19 11.1005 12.32 12.2005C12.24 12.3005 12.13 12.4105 12.04 12.4905ZM8.13996 6.18055C7.25996 5.41055 6.26996 5.03055 5.42996 5.01055C4.95996 5.00055 4.54996 5.10055 4.27996 5.36055C4.00996 5.64055 3.89996 6.07055 3.91996 6.55055C3.94996 7.50055 4.45996 8.61055 5.43996 9.57055C6.70996 10.8205 8.22996 11.5605 9.48996 11.9205C8.76996 10.5305 8.13996 8.62055 8.13996 6.53055C8.13996 6.41055 8.13996 6.30055 8.13996 6.18055ZM14.64 11.9005C15.88 11.5205 17.36 10.7705 18.62 9.53055C19.6 8.57055 20.11 7.46055 20.14 6.52055C20.16 6.04055 20.05 5.61055 19.77 5.33055C19.51 5.06055 19.09 4.97055 18.62 4.97055C17.83 4.99055 16.9 5.34055 16.05 6.03055C16.06 6.18055 16.06 6.32055 16.06 6.47055C16.06 8.56055 15.4 10.5005 14.64 11.9005Z" fill="black"/>
</svg>
