<svg width="16" height="16" viewBox="0 0 16 16" fill="none" xmlns="http://www.w3.org/2000/svg">
<path d="M8.09187 1.47656C8.69973 1.47673 9.18721 1.82873 9.51179 2.16309L9.63386 2.29688C10.23 2.98896 10.584 4.00631 10.5841 5.13281C10.5839 7.28163 9.65548 9.17574 8.87702 10.1602L8.87605 10.1621C8.82256 10.229 8.76141 10.2953 8.70222 10.3555V12.7256C9.04045 12.3337 9.50206 11.9473 10.1134 11.6475L10.1182 11.6455L10.1221 11.6436L10.3096 11.5586L10.3145 11.5566L10.3194 11.5537C10.7971 11.3545 11.3045 11.2661 11.7755 11.3398L11.7794 11.3408C11.9297 11.3611 12.1091 11.3997 12.2813 11.4795C12.4169 11.5424 12.5805 11.6462 12.7081 11.8145L12.7608 11.8906L12.7657 11.8994L12.7696 11.9072L12.8048 11.9707L12.8145 11.9873L12.8214 12.0049L12.8477 12.0713L12.8516 12.0791L12.8536 12.0869C12.9358 12.3228 12.9141 12.5461 12.8731 12.71C12.8535 12.7881 12.8257 12.8623 12.7969 12.9307L12.8048 12.9385L12.6876 13.1592C12.4345 13.6319 11.9863 14.0259 11.4464 14.2959L11.3751 14.3311H11.3692C10.4985 14.7425 9.6609 14.7987 9.02644 14.7021L9.02155 14.7012H9.01765C8.92506 14.6889 8.83635 14.6697 8.75593 14.6484L8.53523 14.5801L8.19245 14.458L8.01277 14.3936L7.5362 14.5654C7.4072 14.6115 7.24439 14.66 7.0821 14.6904H7.08015L7.06452 14.6934L7.05085 14.6953C6.40996 14.7855 5.56053 14.7278 4.66999 14.3018L4.66316 14.2998L4.64265 14.29C4.1031 14.0247 3.66877 13.6307 3.41804 13.167C3.35375 13.0512 3.272 12.8912 3.22663 12.71C3.1802 12.5241 3.15879 12.2628 3.28327 11.9951L3.2862 11.9893L3.28913 11.9814L3.29304 11.9746L3.29597 11.9697L3.2989 11.9639C3.43052 11.7126 3.63861 11.5659 3.81257 11.4824C3.98432 11.4002 4.16437 11.3589 4.31257 11.335L4.32136 11.333L4.32917 11.332L4.33601 11.3311C4.85783 11.2592 5.44012 11.3704 5.98445 11.6426C6.58406 11.9348 7.03678 12.3146 7.36823 12.7021V10.3574C7.32097 10.3064 7.27455 10.2575 7.23835 10.2168L7.22859 10.207L7.21784 10.1953L7.2071 10.1816L7.19831 10.1709L7.19636 10.168C6.44878 9.19511 5.56747 7.31844 5.56745 5.17969C5.56754 3.97594 5.94538 2.87794 6.63874 2.16309C6.97735 1.81434 7.47323 1.47656 8.09187 1.47656Z" fill="black"/>
<path d="M2.97077 3.69727C3.61448 3.71259 4.33042 3.96603 4.98444 4.44824C4.95568 4.68854 4.94247 4.93347 4.94245 5.17969L4.94441 5.39355C4.98841 7.13196 5.56271 8.68976 6.19148 9.77734L5.97273 9.71484C4.95891 9.42511 3.73634 8.83048 2.71198 7.82227C1.91239 7.03844 1.4654 6.10375 1.43757 5.26074C1.42012 4.83947 1.51299 4.39289 1.81648 4.07812L1.82624 4.06836C2.13467 3.77162 2.56713 3.68877 2.97077 3.69727Z" fill="black"/>
<path d="M13.2178 3.6709C13.5668 3.68856 13.948 3.77662 14.2169 4.05566C14.5289 4.37117 14.6209 4.81809 14.6036 5.2373C14.5758 6.07313 14.1276 7.00645 13.3282 7.79004C12.3141 8.78801 11.1257 9.39152 10.128 9.69727L9.89851 9.76758C10.5816 8.62588 11.2089 6.97038 11.2091 5.13281C11.209 4.86668 11.1891 4.60403 11.1544 4.34766C11.78 3.9152 12.4532 3.68257 13.0606 3.66699H13.0704L13.2178 3.6709Z" fill="black"/>
</svg>
