<svg width="24" height="24" viewBox="0 0 24 24" fill="none" xmlns="http://www.w3.org/2000/svg">
<path fill-rule="evenodd" clip-rule="evenodd" d="M9 21.7687C9.28 21.9087 9.59 21.9888 9.91 21.9888C11.09 21.9888 13.01 21.9988 14.13 21.9988C14.17 21.9988 14.21 21.9888 14.25 21.9888C14.52 21.9587 14.77 21.8687 14.99 21.7388C15.28 21.8988 15.62 21.9888 15.96 21.9888C16.57 21.9888 17.39 21.9888 18.18 21.9988C18.21 21.9988 18.23 21.9988 18.25 21.9988C20.36 21.8588 22 20.1187 22 18.0087V6.97875C22 4.76875 20.21 2.96875 18 2.96875H6C3.79 2.96875 2 4.76875 2 6.97875C2 9.30875 2 18.0087 2 18.0087C2 19.1087 2.45 20.1688 3.26 20.9188C4.06 21.6688 5.13 22.0688 6.23 21.9988C6.95 21.9988 7.67 21.9988 8.2 21.9988C8.24 21.9988 8.28 21.9888 8.32 21.9888C8.57 21.9587 8.8 21.8787 9 21.7687ZM20 6.97875L19.99 18.0087C19.99 19.0487 19.19 19.9088 18.16 19.9888L15.9902 19.9789L15.95 19.9788C15.84 19.5287 15.43 19.2087 14.96 19.2087C14.5 19.2188 14.1 19.5387 14 19.9888C13.9968 19.9888 13.9935 19.9888 13.9902 19.9888C12.8827 19.9985 11.1209 19.9891 9.99023 19.9794C9.96654 19.9792 9.94313 19.979 9.92 19.9788H9.9C9.74 19.6187 9.38 19.3787 8.98 19.3888C8.58 19.3888 8.23 19.6287 8.07 19.9888C8.04377 19.9888 8.01718 19.9888 7.99023 19.9888C7.47268 19.9888 6.82586 19.9892 6.17 19.9988C6.16 19.9988 6.14 19.9988 6.12 19.9988C5.57 20.0288 5.03 19.8387 4.63 19.4587C4.23 19.0788 4 18.5588 4 18.0087C4 18.0087 4 9.30875 4 6.97875C4 5.86875 4.9 4.97875 6 4.97875H18C19.1 4.97875 20 5.86875 20 6.97875Z" fill="black"/>
<path d="M7.0499 8.89766H17.0499C17.5399 8.89766 17.9499 8.49766 17.9499 7.99766C17.9499 7.49766 17.5399 7.09766 17.0499 7.09766H7.0499C6.5499 7.09766 6.1499 7.49766 6.1499 7.99766C6.1499 8.49766 6.5499 8.89766 7.0499 8.89766Z" fill="black"/>
<path d="M7.0499 12.8977H12.1599C12.6599 12.8977 13.0599 12.4977 13.0599 11.9977C13.0599 11.4977 12.6599 11.0977 12.1599 11.0977H7.0499C6.5499 11.0977 6.1499 11.4977 6.1499 11.9977C6.1499 12.4977 6.5499 12.8977 7.0499 12.8977Z" fill="black"/>
<path d="M9.92 19.9788C9.94313 19.979 9.96654 19.9792 9.99023 19.9794V16.3887C9.99023 15.8387 9.54023 15.3887 8.99023 15.3887C8.44023 15.3887 7.99023 15.8387 7.99023 16.3887V19.9888C8.01718 19.9888 8.04377 19.9888 8.07 19.9888C8.23 19.6287 8.58 19.3888 8.98 19.3888C9.38 19.3787 9.74 19.6187 9.9 19.9788H9.92Z" fill="black"/>
<path d="M15.95 19.9788L15.9902 19.9789V16.3672C15.9902 15.8172 15.5402 15.3672 14.9902 15.3672C14.4402 15.3672 13.9902 15.8172 13.9902 16.3672V19.9888C13.9935 19.9888 13.9968 19.9888 14 19.9888C14.1 19.5387 14.5 19.2188 14.96 19.2087C15.43 19.2087 15.84 19.5287 15.95 19.9788Z" fill="black"/>
</svg>
