<svg width="16" height="16" viewBox="0 0 16 16" fill="none" xmlns="http://www.w3.org/2000/svg">
<path fill-rule="evenodd" clip-rule="evenodd" d="M5.9912 14.5592C6.2642 14.7192 6.5762 14.7992 6.8952 14.7892C7.6042 14.7892 8.5382 14.7992 9.2192 14.7992C9.2462 14.7992 9.2732 14.7992 9.3002 14.7892C9.5632 14.7692 9.8072 14.6792 10.0212 14.5592C10.2982 14.7092 10.6152 14.7992 10.9382 14.7892H11.6662C13.4162 14.7192 14.7952 13.2692 14.7952 11.5192L14.8002 4.48922C14.8002 2.66922 13.3292 1.19922 11.5142 1.19922H4.4862C2.6712 1.19922 1.2002 2.66922 1.2002 4.48922V11.5292C1.2002 12.4492 1.5832 13.3192 2.2572 13.9392C2.9282 14.5592 3.8252 14.8692 4.7332 14.7992L5.2812 14.7892C5.5392 14.7692 5.7792 14.6792 5.9912 14.5592ZM10.8112 13.1592C10.8422 13.1792 10.8792 13.1892 10.9162 13.1892H11.6222C12.5042 13.1392 13.1952 12.4092 13.1952 11.5192L13.2002 4.48922C13.2002 3.54922 12.4452 2.79922 11.5142 2.79922H4.4862C3.5552 2.79922 2.8002 3.54922 2.8002 4.48922V11.5292C2.8002 11.9992 2.9962 12.4492 3.3412 12.7692C3.6872 13.0892 4.1492 13.2392 4.6172 13.2092L5.1402 13.1992C5.1582 13.1892 5.1762 13.1792 5.1922 13.1692V10.8792C5.1922 10.4392 5.5502 10.0792 5.9922 10.0792C6.4332 10.0792 6.7922 10.4392 6.7922 10.8792V13.1692C6.8182 13.1892 6.8472 13.1892 6.8762 13.1892C6.8822 13.1892 6.88919 13.1892 6.8952 13.1892C7.5832 13.1892 8.4852 13.1992 9.1632 13.1992C9.1802 13.1892 9.1962 13.1892 9.21119 13.1792V10.8692C9.21119 10.4292 9.56919 10.0692 10.0112 10.0692C10.4522 10.0692 10.8112 10.4292 10.8112 10.8692V13.1592ZM4.6982 8.69922H8.1092C8.4962 8.69922 8.8092 8.38922 8.8092 7.99922C8.8092 7.60922 8.4962 7.29922 8.1092 7.29922H4.6982C4.3122 7.29922 3.9982 7.60922 3.9982 7.99922C3.9982 8.38922 4.3122 8.69922 4.6982 8.69922ZM4.6982 5.67922H11.3652C11.7512 5.67922 12.0652 5.36922 12.0652 4.97922C12.0652 4.58922 11.7512 4.27922 11.3652 4.27922H4.6982C4.3122 4.27922 3.9982 4.58922 3.9982 4.97922C3.9982 5.36922 4.3122 5.67922 4.6982 5.67922Z" fill="black"/>
</svg>
