<svg width="16" height="16" viewBox="0 0 16 16" fill="none" xmlns="http://www.w3.org/2000/svg">
<path fill-rule="evenodd" clip-rule="evenodd" d="M4.56674 11.4188C5.15374 12.0057 5.15374 12.9588 4.56674 13.5457C3.97984 14.1327 3.02674 14.1327 2.43974 13.5457C1.85284 12.9588 1.85284 12.0057 2.43974 11.4188C3.02674 10.8318 3.97984 10.8318 4.56674 11.4188ZM2.73834 7.67345C5.57764 7.94665 8.01944 10.3812 8.28734 13.2212C8.33094 13.6831 8.74144 14.0227 9.20344 13.9792C9.66544 13.9356 10.0051 13.5252 9.96154 13.0632C9.62044 9.44795 6.51374 6.34745 2.89944 5.99965C2.43754 5.95515 2.02644 6.29415 1.98194 6.75605C1.93754 7.21795 2.27644 7.62905 2.73834 7.67345ZM3.18024 3.71285C8.15474 3.71285 12.2481 7.80625 12.2481 12.7809C12.2481 13.2449 12.6249 13.6216 13.0889 13.6216C13.5529 13.6216 13.9297 13.2449 13.9297 12.7809C13.9297 6.88375 9.07724 2.03125 3.18024 2.03125C2.71614 2.03125 2.33944 2.40805 2.33944 2.87205C2.33944 3.33615 2.71614 3.71285 3.18024 3.71285Z" fill="black"/>
</svg>
