<svg width="24" height="24" viewBox="0 0 24 24" fill="none" xmlns="http://www.w3.org/2000/svg">
<path fill-rule="evenodd" clip-rule="evenodd" d="M5.97243 16.0728C7.05743 16.0728 7.93843 16.9538 7.93843 18.0388C7.93843 19.1239 7.05743 20.0049 5.97243 20.0049C4.88733 20.0049 4.00633 19.1239 4.00633 18.0388C4.00633 16.9538 4.88733 16.0728 5.97243 16.0728ZM5.13383 11.6474C5.40833 11.6117 5.68823 11.5933 5.97243 11.5933C9.52973 11.5933 12.4179 14.4815 12.4179 18.0388C12.4179 18.3088 12.4013 18.5749 12.369 18.8361C12.3014 19.3839 12.6912 19.8835 13.239 19.9511C13.7868 20.0187 14.2864 19.6289 14.354 19.0811C14.3961 18.7396 14.4179 18.3917 14.4179 18.0388C14.4179 13.3776 10.6336 9.59328 5.97243 9.59328C5.60093 9.59328 5.23493 9.61737 4.87603 9.66407C4.32873 9.73518 3.94213 10.2373 4.01333 10.7846C4.08443 11.332 4.58653 11.7185 5.13383 11.6474ZM5.12023 5.01178C5.40203 4.99367 5.68613 4.98438 5.97243 4.98438C13.1773 4.98438 19.0268 10.8339 19.0268 18.0388C19.0268 18.3251 19.0175 18.6093 18.9994 18.891C18.9638 19.4417 19.3822 19.9177 19.9329 19.9533C20.4837 19.9888 20.9597 19.5705 20.9952 19.0197C21.0161 18.6954 21.0268 18.3684 21.0268 18.0388C21.0268 9.73008 14.2811 2.98438 5.97243 2.98438C5.64283 2.98438 5.31583 2.99507 4.99153 3.01597C4.44073 3.05148 4.02243 3.52747 4.05803 4.07827C4.09353 4.62897 4.56953 5.04737 5.12023 5.01178Z" fill="black"/>
</svg>
