<svg width="24" height="24" viewBox="0 0 24 24" fill="none" xmlns="http://www.w3.org/2000/svg">
<path d="M17.5614 13.9875L20.3632 16.7892C20.844 17.2701 21.2119 17.8878 21.3075 18.5675C21.4072 19.277 21.199 20.0003 20.6229 20.5763C20.0665 21.1327 19.3653 21.3758 18.6561 21.3136C17.9663 21.2531 17.331 20.9111 16.8339 20.4142L13.6815 17.2619C13.2927 16.8731 13.0396 16.312 13.0214 15.7726C13.0121 15.4953 13.0643 15.1653 13.2587 14.8684C13.4661 14.5516 13.7874 14.3462 14.1649 14.2746L14.288 14.2561C14.5699 14.2218 14.8249 14.2541 15.0106 14.2824C15.2589 14.3203 15.3804 14.3485 15.5419 14.3576C15.7493 14.3693 16.0063 14.3517 16.4139 13.9689L16.9969 13.4221L17.5614 13.9875ZM7.26159 2.18191C7.65214 1.79167 8.28523 1.79148 8.67566 2.18191L10.4237 3.92995C11.7408 5.24746 11.7499 7.37634 10.453 8.70628L11.7274 9.98069L18.3768 3.38307C19.5064 2.26239 21.3966 3.3263 21.0243 4.8733C20.5181 6.97633 19.4415 8.89933 17.912 10.4289L16.4471 11.8938C15.8344 12.5065 14.959 12.7797 14.1063 12.6252C13.5539 12.5253 12.9871 12.6976 12.5839 13.0881L11.2587 14.3713C11.3901 15.0734 11.1847 15.8261 10.6415 16.3693L6.72253 20.2892C5.84769 21.1639 4.42838 21.164 3.55358 20.2892C2.67889 19.4144 2.6789 17.9951 3.55358 17.1203L7.47351 13.2014C7.93155 12.7434 8.53852 12.5274 9.13855 12.549L10.3065 11.3899L9.03601 10.1194C7.70182 11.3404 5.62929 11.3054 4.33776 10.0139L2.59069 8.26683C2.2002 7.87634 2.20027 7.24233 2.59069 6.8518C2.98119 6.46172 3.61435 6.46158 4.00476 6.8518L5.7528 8.59984C6.26316 9.11006 7.06925 9.1438 7.61902 8.7014L3.69519 4.7776C3.30467 4.38709 3.3047 3.75407 3.69519 3.36354C4.08571 2.97302 4.71872 2.97302 5.10925 3.36354L9.03796 7.29125C9.55405 6.74248 9.54506 5.88039 9.00867 5.344L7.26159 3.59596C6.87107 3.20544 6.87107 2.57243 7.26159 2.18191Z" fill="black"/>
</svg>
</svg>
