<svg width="16" height="16" viewBox="0 0 16 16" fill="none" xmlns="http://www.w3.org/2000/svg">
<g clip-path="url(#clip0_29409_53)">
<path fill-rule="evenodd" clip-rule="evenodd" d="M1.17366 9.2871C1.15366 9.2771 1.14387 9.26706 1.13387 9.24706L0.433673 8.54711C0.123672 8.23711 0.123672 7.72698 0.433673 7.41698C0.633673 7.21698 0.913664 7.14702 1.17366 7.20702C1.26367 4.96703 3.10386 3.18701 5.36386 3.18701H5.41367C5.44367 1.77701 6.59377 0.646973 8.01377 0.646973C9.42378 0.646973 10.5839 1.77701 10.6139 3.18701C12.8539 3.20701 14.6738 4.98704 14.7538 7.21703C15.0338 7.13703 15.3438 7.19698 15.5538 7.41698C15.8738 7.72698 15.8738 8.23711 15.5538 8.54711L14.8639 9.24706C14.8239 9.27706 14.7938 9.30689 14.7538 9.32689V11.5869C14.7538 13.8969 12.8838 15.7771 10.5738 15.7771H5.36386C3.04386 15.7771 1.17366 13.8969 1.17366 11.5869V9.2871ZM7.01377 3.18701H9.01377C8.98378 2.66701 8.54377 2.24707 8.01377 2.24707C7.48377 2.24707 7.04377 2.66701 7.01377 3.18701ZM13.0638 6.65697C12.7538 5.57698 11.7538 4.7871 10.5738 4.7871H5.36386C4.17386 4.7871 3.18387 5.57698 2.87387 6.65697H13.0638ZM2.77377 8.25707V11.5869C2.77377 13.0169 3.93386 14.177 5.36386 14.177H10.5738C12.0038 14.177 13.1537 13.0169 13.1537 11.5869V8.25707H2.77377Z" fill="black"/>
</g>
<defs>
<clipPath id="clip0_29409_53">
<rect width="16" height="16" fill="white"/>
</clipPath>
</defs>
</svg>
