<svg width="16" height="16" viewBox="0 0 16 16" fill="none" xmlns="http://www.w3.org/2000/svg">
<path d="M14.1996 11.0941C14.9677 11.8624 14.9675 13.108 14.1996 13.8763C13.4312 14.6447 12.1857 14.6446 11.4173 13.8763L9.1195 11.5795C8.86512 11.325 8.69534 10.967 8.68005 10.6058C8.6639 10.2208 8.83486 9.77984 9.31091 9.58044L9.49841 9.51501C9.68414 9.46297 9.86195 9.44845 10.016 9.44372C10.1171 9.44063 10.2188 9.4419 10.306 9.44274C10.3975 9.44363 10.4784 9.44387 10.558 9.44079C10.8426 9.42971 11.1099 9.37622 11.4291 9.07653L11.8177 8.71227L14.1996 11.0941ZM4.47888 0.800168C4.79126 0.487792 5.29829 0.486902 5.61072 0.799192L6.94372 2.13318C7.88099 3.07044 7.88099 4.59046 6.94372 5.52771L6.94275 5.52868L7.80896 6.39489L12.5082 1.73376C13.3006 0.947752 14.6275 1.69444 14.3666 2.77966C14.0053 4.28068 13.2356 5.6528 12.1439 6.7445L11.0961 7.79333C10.6627 8.22652 10.0437 8.41916 9.44079 8.30993C9.03857 8.23722 8.62601 8.36345 8.33239 8.64782L7.40564 9.54431C7.63812 10.2365 7.48049 11.0309 6.92907 11.5824L4.724 13.7865C3.94819 14.5623 2.69122 14.5623 1.91541 13.7865C1.13981 13.0107 1.13967 11.7536 1.91541 10.9779L4.12049 8.77282C4.6177 8.27583 5.31232 8.09852 5.95154 8.23864L6.67322 7.52184L5.80798 6.65661C4.86724 7.54092 3.38949 7.52613 2.4701 6.60681L1.13709 5.27282C0.824714 4.96044 0.824776 4.45439 1.13709 4.14196C1.44951 3.82957 1.95554 3.82956 2.26795 4.14196L3.60193 5.47497C3.89624 5.76921 4.36275 5.78591 4.67713 5.52575L1.92811 2.77575C1.61569 2.46333 1.61569 1.95731 1.92811 1.64489C2.24055 1.33279 2.74665 1.33258 3.05896 1.64489L5.81091 4.39685H5.81287C6.1253 4.08443 6.12431 3.57744 5.81189 3.26501L4.47888 1.93103C4.16671 1.61872 4.16686 1.11257 4.47888 0.800168Z" fill="black"/>
</svg>
