<svg width="24" height="24" viewBox="0 0 24 24" fill="none" xmlns="http://www.w3.org/2000/svg">
<path d="M20.7717 16.1121C21.9342 17.2747 21.9342 19.1594 20.7717 20.3221C19.609 21.4847 17.7244 21.4846 16.5617 20.3221L12.5656 16.326L13.9797 14.9119L17.9758 18.908C18.3574 19.2895 18.976 19.2896 19.3576 18.908C19.7391 18.5264 19.7391 17.9077 19.3576 17.5262L16.1672 14.3357L17.5812 12.9217L20.7717 16.1121ZM6.96704 1.99494C7.35753 1.60454 7.99059 1.60456 8.38109 1.99494L10.1399 3.75275C11.4597 5.07267 11.4665 7.20738 10.1623 8.53692L11.1467 9.5213L17.8371 2.83186C19.3521 1.31683 21.9034 2.74593 21.4025 4.82892C20.8756 7.01821 19.7535 9.01979 18.1613 10.6121L16.6828 12.0916C15.9484 12.826 14.8991 13.1537 13.8772 12.9686C13.5007 12.9006 13.1145 13.0213 12.844 13.2918L11.842 14.2928C11.9455 15.1743 11.6618 16.0922 10.9856 16.7683L7.55688 20.198C6.384 21.3709 4.48187 21.3707 3.30885 20.198C2.13586 19.025 2.13589 17.123 3.30885 15.95L6.73755 12.5203C7.36449 11.8934 8.19986 11.604 9.02074 11.6473L9.73167 10.9354L8.74535 9.94903C7.41148 11.1773 5.33434 11.1454 4.04029 9.85137L2.28249 8.09259C1.89226 7.70204 1.89207 7.06895 2.28249 6.67853C2.67293 6.28834 3.30608 6.28838 3.69654 6.67853L5.45533 8.43731C5.96811 8.9497 6.77957 8.98191 7.32934 8.53302L3.38991 4.59357C2.99965 4.20305 2.99954 3.56996 3.38991 3.17951C3.78035 2.78907 4.41342 2.78923 4.80396 3.17951L8.7473 7.12189C9.27044 6.57353 9.26454 5.70563 8.72582 5.16681L6.96704 3.409C6.57671 3.01855 6.57679 2.38545 6.96704 1.99494ZM9.57152 13.9344C9.17954 13.5427 8.54347 13.5425 8.1516 13.9344L4.72291 17.3641C4.33099 17.756 4.33096 18.392 4.72291 18.784C5.11488 19.1755 5.75098 19.1758 6.14282 18.784L9.57152 15.3543C9.96342 14.9624 9.96331 14.3263 9.57152 13.9344ZM19.2971 4.21174C19.2895 4.21536 19.2736 4.22456 19.2521 4.24592L12.1701 11.3289C12.7938 10.9935 13.5203 10.8714 14.2346 11.0008C14.611 11.0689 14.9972 10.9479 15.2678 10.6775L16.7473 9.19805C18.0789 7.86631 19.0165 6.19214 19.4572 4.36115C19.4642 4.33183 19.4649 4.3139 19.4641 4.30549C19.4632 4.29695 19.4603 4.28955 19.4572 4.28303C19.4501 4.26829 19.432 4.24417 19.3986 4.22541C19.365 4.20663 19.3347 4.20418 19.3185 4.20588C19.3115 4.20665 19.3046 4.20819 19.2971 4.21174Z" fill="black"/>
</svg>
