<svg width="16" height="16" viewBox="0 0 16 16" fill="none" xmlns="http://www.w3.org/2000/svg">
<path d="M4.42035 0.879334C4.73277 0.566915 5.23977 0.566915 5.55219 0.879334L6.9223 2.24945C7.8596 3.18675 7.85967 4.70674 6.9223 5.64398L6.89496 5.67035L7.45941 6.2348L12.2114 1.48383C13.3656 0.329705 15.3092 1.41933 14.9272 3.00629C14.5406 4.61238 13.7174 6.08034 12.5493 7.24847L11.4731 8.32465C10.922 8.87576 10.1355 9.12166 9.36859 8.98285C9.11784 8.93742 8.86032 9.01849 8.68012 9.19867L7.97601 9.9018C8.04232 10.5536 7.82694 11.2285 7.32758 11.728L4.83148 14.2241C3.94961 15.1057 2.5199 15.1058 1.63812 14.2241C0.756442 13.3423 0.756527 11.9125 1.63812 11.0307L4.13422 8.53461C4.59727 8.07164 5.21131 7.85412 5.81781 7.87738L6.32855 7.36566L5.76215 6.80023C4.82277 7.70846 3.32638 7.7004 2.39887 6.77289L1.02875 5.40277C0.716329 5.09035 0.716329 4.58336 1.02875 4.27094C1.34112 3.95875 1.84723 3.95875 2.15961 4.27094L3.5307 5.64203C3.8335 5.9446 4.31733 5.95245 4.63129 5.6684L1.83051 2.86859C1.51809 2.55617 1.51809 2.04918 1.83051 1.73676C2.14282 1.42463 2.64898 1.42475 2.96137 1.73676L5.7641 4.53949L5.79144 4.51215C6.10366 4.19977 6.10366 3.69367 5.79144 3.38129L4.42035 2.01019C4.10841 1.69786 4.10841 1.19166 4.42035 0.879334ZM14.2045 10.8969C14.9984 11.7882 14.9984 13.1999 14.2045 14.0912C13.3627 15.0361 11.9556 15.036 11.1137 14.0912L8.40277 11.0483L9.59711 9.98383L12.308 13.0268C12.5136 13.2576 12.8046 13.2576 13.0102 13.0268C13.2637 12.7421 13.2637 12.2461 13.0102 11.9614L10.8461 9.53168L11.4428 8.99945L12.0405 8.4682L14.2045 10.8969ZM6.19574 9.66644C5.93872 9.40953 5.52206 9.40946 5.26508 9.66644L2.76996 12.1616C2.51298 12.4185 2.51304 12.8352 2.76996 13.0922C3.02697 13.3492 3.44361 13.3492 3.70062 13.0922L6.19574 10.5971C6.45275 10.3401 6.45275 9.92346 6.19574 9.66644ZM13.3432 2.61566L8.45746 7.50043C8.83646 7.37023 9.24789 7.3351 9.65375 7.40863C9.90432 7.45391 10.1611 7.37378 10.3412 7.19379L11.4174 6.11762C12.3772 5.15782 13.0539 3.95096 13.3715 2.63129C13.3727 2.62627 13.3722 2.62229 13.3725 2.61957C13.3702 2.6175 13.3666 2.61492 13.3627 2.61273C13.3582 2.61026 13.3542 2.60868 13.351 2.60785C13.3489 2.60954 13.3465 2.61234 13.3432 2.61566Z" fill="black"/>
</svg>
