<svg width="24" height="24" viewBox="0 0 24 24" fill="none" xmlns="http://www.w3.org/2000/svg">
<path fill-rule="evenodd" clip-rule="evenodd" d="M9.8399 20.9493C9.6599 20.9793 9.4799 20.9993 9.2999 20.9993H4.8299C3.2899 20.9993 1.9999 19.8293 1.8399 18.2893L0.919902 8.87927C0.669902 8.81927 0.149902 8.62927 0.149902 7.98927C0.149902 7.90927 0.149902 7.49927 0.149902 6.99927C0.149902 6.22927 0.449902 5.48927 0.999902 4.94927C1.5399 4.40927 2.2799 4.09927 3.0499 4.09927H4.2599L3.4399 1.35927C3.2799 0.829268 3.5799 0.269268 4.1099 0.119268C4.6399 -0.0407319 5.1899 0.259268 5.3499 0.779268L6.3499 4.09927H11.0499C11.8199 4.09927 12.5499 4.40927 13.0999 4.94927C13.6399 5.48927 13.9499 6.22927 13.9499 6.99927V7.98927C13.9499 8.61927 13.4399 8.81927 13.1899 8.87927L13.0199 10.6693C13.7999 10.4393 14.6499 10.3093 15.5499 10.3093C19.5899 10.3093 22.7699 12.8393 22.7699 16.1093C22.7699 16.6693 22.6299 17.2193 22.3499 17.6893V18.4093C22.3499 20.3393 20.7899 21.8993 18.8599 21.8993H12.2299C11.3099 21.8993 10.4599 21.5393 9.8399 20.9493ZM10.6299 18.9393C10.8499 19.6193 11.4899 20.0993 12.2299 20.0993H18.8599C19.5999 20.0993 20.2399 19.6193 20.4599 18.9493C20.2699 18.9893 20.0699 18.9993 19.8499 18.9993C19.6799 18.9993 11.4099 18.9993 11.2399 18.9993C11.0199 18.9993 10.8199 18.9793 10.6299 18.9393ZM10.9199 11.6293L11.1799 8.89927H2.9299L3.8299 18.0993C3.8799 18.6093 4.3199 18.9993 4.8299 18.9993H8.7899C8.7599 18.8093 8.7399 18.6093 8.7399 18.4093V17.6293C8.4499 17.1193 8.3299 16.5493 8.3299 16.1093C8.3299 14.2793 9.3199 12.6793 10.9199 11.6293ZM15.5499 12.3093C18.3699 12.3093 20.7699 13.8293 20.7699 16.1093C20.7699 16.3793 20.7099 16.6593 20.4999 16.8293C20.3499 16.9493 20.1299 16.9993 19.8499 16.9993C19.6799 16.9993 11.4099 16.9993 11.2399 16.9993C10.5599 16.9993 10.3299 16.4493 10.3299 16.1093C10.3299 13.8293 12.7299 12.3093 15.5499 12.3093ZM12.1499 7.09927H1.9499V6.99927C1.9499 6.70927 2.0599 6.42927 2.2699 6.21927C2.4799 6.01927 2.7599 5.89927 3.0499 5.89927H11.0499C11.3399 5.89927 11.6199 6.01927 11.8199 6.21927C12.0299 6.42927 12.1499 6.70927 12.1499 6.99927V7.09927Z" fill="black"/>
</svg>
