<svg width="24" height="24" viewBox="0 0 24 24" fill="none" xmlns="http://www.w3.org/2000/svg">
<path fill-rule="evenodd" clip-rule="evenodd" d="M4.047 18.28V20.73C4.047 21.5 4.488 22.2 5.181 22.54C5.874 22.87 6.697 22.78 7.297 22.3L10.164 20H15C19.418 20 23 16.42 23 12V10C23 5.58 19.418 2 15 2C13.056 2 10.944 2 9 2C4.582 2 1 5.58 1 10V12C1 14.55 2.191 16.82 4.047 18.28ZM6.047 20.73V17.78C6.047 17.45 5.884 17.14 5.612 16.95C4.035 15.87 3 14.06 3 12V10C3 6.69 5.686 4 9 4C10.944 4 13.056 4 15 4C18.314 4 21 6.69 21 10V12C21 15.31 18.314 18 15 18H9.813C9.586 18 9.365 18.08 9.188 18.22L6.047 20.73ZM15.631 13.77H8.458C7.989 13.77 7.608 14.15 7.608 14.62C7.608 15.09 7.989 15.47 8.458 15.47H15.631C16.1 15.47 16.481 15.09 16.481 14.62C16.481 14.15 16.1 13.77 15.631 13.77ZM15.631 10.15H8.458C7.989 10.15 7.608 10.53 7.608 11C7.608 11.47 7.989 11.85 8.458 11.85H15.631C16.1 11.85 16.481 11.47 16.481 11C16.481 10.53 16.1 10.15 15.631 10.15ZM15.631 6.53H8.458C7.989 6.53 7.608 6.91 7.608 7.38C7.608 7.85 7.989 8.23 8.458 8.23H15.631C16.1 8.23 16.481 7.85 16.481 7.38C16.481 6.91 16.1 6.53 15.631 6.53Z" fill="black"/>
</svg>
