<svg width="16" height="16" viewBox="0 0 16 16" fill="none" xmlns="http://www.w3.org/2000/svg">
<path fill-rule="evenodd" clip-rule="evenodd" d="M7.1223 4.95018H2.9958C2.0017 4.95018 1.1958 5.75608 1.1958 6.75018V9.26368C1.1958 10.2579 2.0017 11.0637 2.9958 11.0637H7.1223V12.0992C7.1223 12.8029 7.5323 13.442 8.1719 13.7354C8.8115 14.0287 9.5634 13.9224 10.0967 13.4634L14.8601 9.36248C15.2578 9.02008 15.4863 8.52128 15.4857 7.99648C15.4852 7.47178 15.2557 6.97338 14.8573 6.63188L10.0939 2.54778C9.5602 2.09018 8.8089 1.98518 8.1702 2.27898C7.5315 2.57268 7.1223 3.21128 7.1223 3.91428V4.95018ZM7.9223 6.55018C8.3641 6.55018 8.7223 6.19198 8.7223 5.75018V3.91428C8.7223 3.83618 8.7678 3.76528 8.8387 3.73258C8.9097 3.69998 8.9931 3.71158 9.0524 3.76248L13.8159 7.84648C13.8602 7.88448 13.8857 7.93988 13.8857 7.99818C13.8858 8.05648 13.8604 8.11188 13.8163 8.14988L9.0528 12.2508C8.9935 12.3018 8.91 12.3136 8.8389 12.281C8.7678 12.2484 8.7223 12.1774 8.7223 12.0992V10.2637C8.7223 9.82188 8.3641 9.46368 7.9223 9.46368H2.9958C2.8854 9.46368 2.7958 9.37418 2.7958 9.26378V6.75018C2.7958 6.63968 2.8854 6.55018 2.9958 6.55018H7.9223Z" fill="black"/>
</svg>
