<svg width="24" height="24" viewBox="0 0 24 24" fill="none" xmlns="http://www.w3.org/2000/svg">
<path fill-rule="evenodd" clip-rule="evenodd" d="M10.6289 8.35035V6.18035C10.6289 5.40035 11.0849 4.69035 11.7959 4.36035C12.5059 4.03035 13.3419 4.15035 13.9339 4.66035C16.0539 6.49035 19.6529 9.58035 21.3087 11.0104C21.7506 11.3904 22.0045 11.9504 22.0039 12.5304C22.0033 13.1104 21.7483 13.6604 21.3057 14.0404L13.9309 20.3704C13.3379 20.8804 12.5029 20.9904 11.7939 20.6704C11.0839 20.3404 10.6289 19.6304 10.6289 18.8504V16.6704H3.67285C3.14185 16.6704 2.63385 16.4504 2.25885 16.0804C1.88385 15.7004 1.67285 15.2004 1.67285 14.6704C1.67285 13.4804 1.67285 11.5304 1.67285 10.3504C1.67285 9.82035 1.88385 9.31035 2.25885 8.93035C2.63385 8.56035 3.14185 8.35035 3.67285 8.35035H10.6289ZM12.6289 6.18035V9.35035C12.6289 9.90035 12.1819 10.3504 11.6289 10.3504H3.67285V14.6704C3.67885 14.5304 3.73685 14.6104 3.75185 14.6704H11.6289C12.1819 14.6704 12.6289 15.1104 12.6289 15.6704V18.8504L20.0039 12.5304L12.6289 6.18035Z" fill="black"/>
</svg>
