<svg width="12" height="12" viewBox="0 0 12 12" fill="none" xmlns="http://www.w3.org/2000/svg">
<path fill-rule="evenodd" clip-rule="evenodd" d="M5.17644 3.44217H1.85264C1.48134 3.44217 1.12524 3.58967 0.862737 3.85217C0.600137 4.11477 0.452637 4.47087 0.452637 4.84217C0.452637 5.49077 0.452637 6.51847 0.452637 7.16707C0.452637 7.53827 0.600137 7.89447 0.862737 8.15697C1.12524 8.41957 1.48134 8.56707 1.85264 8.56707H5.17644L5.17654 9.08597C5.17654 9.63327 5.49544 10.1304 5.99284 10.3586C6.49034 10.5867 7.07514 10.5041 7.48994 10.147C8.56144 9.22457 10.2286 7.78917 11.0735 7.06187C11.3828 6.79557 11.5605 6.40757 11.5601 5.99947C11.5597 5.59127 11.3812 5.20367 11.0714 4.93807L7.48774 1.86547C7.07264 1.50957 6.48834 1.42797 5.99154 1.65637C5.49484 1.88487 5.17654 2.38157 5.17654 2.92837L5.17644 3.44217ZM6.77654 3.36327L9.85324 6.00117L6.77654 8.64987V7.76707C6.77654 7.32517 6.41834 6.96707 5.97654 6.96707H2.05264V5.04217H5.97654C6.41834 5.04217 6.77654 4.68397 6.77654 4.24217V3.36327Z" fill="black"/>
</svg>
