<svg width="16" height="16" viewBox="0 0 16 16" fill="none" xmlns="http://www.w3.org/2000/svg">
<path fill-rule="evenodd" clip-rule="evenodd" d="M3.13301 11.4008V9.83078C3.13301 9.33078 2.73001 8.93078 2.23301 8.93078C1.73701 8.93078 1.33301 9.33078 1.33301 9.83078V13.7708C1.33301 14.2608 1.73601 14.6708 2.23301 14.6708H6.22001C6.71701 14.6708 7.12001 14.2608 7.12001 13.7708C7.12001 13.2708 6.71701 12.8708 6.22001 12.8708H4.49801L7.19801 10.1708C7.58801 9.78078 7.58801 9.14078 7.19801 8.75078C6.80801 8.36078 6.17401 8.36078 5.78401 8.75078L3.13301 11.4008ZM11.528 3.10078L8.81601 5.81078C8.42601 6.20078 8.42601 6.83078 8.81601 7.22078C9.20701 7.61078 9.84001 7.61078 10.231 7.22078L12.892 4.56078V6.13078C12.892 6.63078 13.296 7.03078 13.792 7.03078C14.289 7.03078 14.692 6.63078 14.692 6.13078V2.20078C14.692 1.70078 14.29 1.30078 13.792 1.30078H9.80601C9.30901 1.30078 8.90601 1.70078 8.90601 2.20078C8.90601 2.69078 9.30901 3.10078 9.80601 3.10078H11.528Z" fill="black"/>
</svg>
