<svg width="24" height="24" viewBox="0 0 24 24" fill="none" xmlns="http://www.w3.org/2000/svg">
<path fill-rule="evenodd" clip-rule="evenodd" d="M8.9973 13.0453V20.8453C8.9973 21.365 9.2664 21.8477 9.7084 22.121C10.1504 22.3944 10.7024 22.4194 11.1674 22.1873L14.1728 20.6866C14.6814 20.4327 15.0027 19.9131 15.0027 19.3446V13.0453L21.1231 7.7889C21.6797 7.3109 22 6.6136 22 5.8799C22 5.4911 22 4.9907 22 4.5165C22 3.1267 20.8733 2 19.4835 2H4.5165C3.1267 2 2 3.1267 2 4.5165V5.8799C2 6.6136 2.3203 7.3109 2.8769 7.7889L8.9973 13.0453ZM13.0027 19.0354L10.9973 20.0367V12.586C10.9973 12.2944 10.87 12.0173 10.6488 11.8274L4.18 6.2717C4.0657 6.1736 4 6.0305 4 5.8799V4.5165C4 4.2312 4.2312 4 4.5164 4H19.4835C19.7688 4 20 4.2312 20 4.5165V5.8799C20 6.0305 19.9343 6.1736 19.8201 6.2717L13.3512 11.8274C13.13 12.0173 13.0027 12.2944 13.0027 12.586V19.0354Z" fill="black"/>
</svg>
