<svg width="16" height="16" viewBox="0 0 16 16" fill="none" xmlns="http://www.w3.org/2000/svg">
<path fill-rule="evenodd" clip-rule="evenodd" d="M7.23552 11.0264H8.77722L10.4632 13.3576C10.959 14.0432 11.7542 14.4487 12.6003 14.4473L13.2703 14.4462C14.0431 14.4449 14.7762 14.1041 15.2754 13.5142C15.7745 12.9243 15.9892 12.1449 15.8626 11.3826L14.9263 5.7488C14.5529 3.5015 12.609 1.854 10.3309 1.854H5.63912C3.36002 1.854 1.41562 3.5029 1.04322 5.7514C0.74192 7.5711 0.37432 9.791 0.10862 11.3951C-0.0175804 12.1573 0.19742 12.9364 0.69662 13.526C1.19582 14.1156 1.92882 14.4561 2.70142 14.4573L3.43112 14.4584C4.28402 14.4597 5.08482 14.0476 5.57942 13.3527L7.23552 11.0264ZM6.83162 9.4599C6.57832 9.4599 6.34052 9.5825 6.19362 9.7889L4.30332 12.4443C4.10302 12.7256 3.77882 12.8925 3.43352 12.892L2.70382 12.8909C2.39102 12.8904 2.09422 12.7525 1.89212 12.5138C1.69002 12.2751 1.60292 11.9596 1.65402 11.651L2.58862 6.0073C2.83582 4.5149 4.12642 3.4204 5.63912 3.4204H10.3309C11.843 3.4204 13.1332 4.514 13.3811 6.0056L14.3173 11.6393C14.3686 11.948 14.2817 12.2636 14.0796 12.5024C13.8775 12.7413 13.5807 12.8792 13.2678 12.8798L12.5978 12.8809C12.2551 12.8814 11.9332 12.7173 11.7324 12.4397L9.81192 9.7842C9.66472 9.5805 9.42862 9.4599 9.17732 9.4599H6.83162ZM4.75802 5.7747H4.00222C3.59692 5.7747 3.26792 6.1037 3.26792 6.509C3.26792 6.9142 3.59692 7.2432 4.00222 7.2432H4.75802V8.0248C4.75802 8.4301 5.08702 8.7591 5.49232 8.7591C5.89752 8.7591 6.22652 8.4301 6.22652 8.0248V7.2432H7.01752C7.42282 7.2432 7.75182 6.9142 7.75182 6.509C7.75182 6.1037 7.42282 5.7747 7.01752 5.7747H6.22652V5.0095C6.22652 4.6042 5.89752 4.2752 5.49232 4.2752C5.08702 4.2752 4.75802 4.6042 4.75802 5.0095V5.7747ZM10.4894 5.2904C11.1656 5.2904 11.7146 5.8394 11.7146 6.5156C11.7146 7.1918 11.1656 7.7407 10.4894 7.7407C9.81322 7.7407 9.26422 7.1918 9.26422 6.5156C9.26422 5.8394 9.81322 5.2904 10.4894 5.2904Z" fill="black"/>
</svg>
