<svg width="24" height="24" viewBox="0 0 24 24" fill="none" xmlns="http://www.w3.org/2000/svg">
<path fill-rule="evenodd" clip-rule="evenodd" d="M10.4702 16.363H13.4102L16.1002 19.883C16.8602 20.887 18.0602 21.475 19.3202 21.473C20.5902 21.471 21.7902 20.91 22.6102 19.94C23.4302 18.969 23.7802 17.688 23.5702 16.435L22.2502 8.599C21.7102 5.367 18.9102 3 15.6302 3H8.25016C4.97016 3 2.17016 5.369 1.62016 8.603C1.21016 11.097 0.700158 14.109 0.310158 16.455C0.100158 17.707 0.450158 18.988 1.27016 19.957C2.09016 20.927 3.29016 21.488 4.56016 21.49C5.83016 21.492 7.02016 20.902 7.78016 19.896L10.4702 16.363ZM9.98016 14.363C9.67016 14.363 9.37016 14.509 9.18016 14.757L6.19016 18.685C5.81016 19.193 5.20016 19.491 4.57016 19.49H4.56016C3.88016 19.489 3.24016 19.188 2.80016 18.667C2.36016 18.146 2.17016 17.458 2.28016 16.786L3.60016 8.934C3.98016 6.663 5.94016 5 8.25016 5H15.6302C17.9302 5 19.9002 6.662 20.2802 8.931L21.6002 16.767C21.7102 17.44 21.5302 18.128 21.0902 18.649C20.6502 19.17 20.0002 19.472 19.3202 19.473C18.6802 19.474 18.0802 19.177 17.6902 18.67L14.7002 14.756C14.5102 14.508 14.2202 14.363 13.9102 14.363H9.98016ZM7.15016 9.191H5.92016C5.48016 9.191 5.12016 9.55 5.12016 9.991C5.12016 10.433 5.48016 10.791 5.92016 10.791H7.15016V12.062C7.15016 12.504 7.51016 12.862 7.95016 12.862C8.39016 12.862 8.75016 12.504 8.75016 12.062V10.791H10.0402C10.4802 10.791 10.8402 10.433 10.8402 9.991C10.8402 9.55 10.4802 9.191 10.0402 9.191H8.75016V7.943C8.75016 7.502 8.39016 7.143 7.95016 7.143C7.51016 7.143 7.15016 7.502 7.15016 7.943V9.191ZM15.9502 8.349C16.8602 8.349 17.6002 9.089 17.6002 10C17.6002 10.911 16.8602 11.651 15.9502 11.651C15.0402 11.651 14.3002 10.911 14.3002 10C14.3002 9.089 15.0402 8.349 15.9502 8.349Z" fill="black"/>
</svg>
