<svg width="24" height="24" viewBox="0 0 24 24" fill="none" xmlns="http://www.w3.org/2000/svg">
<path fill-rule="evenodd" clip-rule="evenodd" d="M16.1346 0.979492C20.181 0.979767 23.4616 4.26124 23.4618 8.30762C23.4616 11.1004 21.8973 13.5248 19.5985 14.7607L19.7157 15.5264C20.0921 17.9963 18.1799 20.2216 15.6815 20.2217H8.26156C6.57832 20.2215 5.06733 19.1872 4.45785 17.6182L0.344564 7.03125C0.17966 6.60661 0.323618 6.1237 0.693197 5.85742L2.28402 4.71191L2.37288 4.6543C2.58621 4.53274 2.83857 4.49416 3.08089 4.54688C3.35792 4.60728 3.59676 4.78199 3.73714 5.02832L6.47249 9.83594L6.56527 9.33984C6.82863 7.91838 7.81014 6.78374 9.09261 6.28223C9.97134 3.22085 12.7908 0.979672 16.1346 0.979492ZM2.4891 7.02734L6.3221 16.8945C6.63286 17.6944 7.40347 18.2215 8.26156 18.2217H15.6815C16.9551 18.2216 17.9298 17.0872 17.7381 15.8281L16.8153 9.76953C16.6604 8.75354 15.7863 8.00316 14.7586 8.00293H10.577C9.57453 8.00328 8.71476 8.71838 8.53206 9.7041L7.94124 12.8916C7.86463 13.3044 7.53784 13.6255 7.12386 13.6953C6.71008 13.7648 6.29631 13.5688 6.08871 13.2041L2.54867 6.98438L2.4891 7.02734ZM16.1346 2.98047C14.0183 2.98062 12.1911 4.21492 11.3319 6.00293H14.7586C16.7746 6.00316 18.4881 7.47575 18.7918 9.46875L19.2703 12.6084C20.5972 11.6397 21.4616 10.0761 21.4618 8.30762C21.4616 5.36581 19.0764 2.98074 16.1346 2.98047Z" fill="black"/>
</svg>
