<svg width="16" height="16" viewBox="0 0 16 16" fill="none" xmlns="http://www.w3.org/2000/svg">
<path d="M4.31738 7.17383L4.48926 6.24805C4.71809 5.01295 5.79565 4.11625 7.05176 4.11621H9.83887C11.1265 4.11621 12.2211 5.05715 12.415 6.33008L13.0303 10.3682C13.2704 11.9454 12.0496 13.3672 10.4541 13.3672H5.41602C4.40018 13.3672 3.47608 12.7765 3.0498 11.8545L0.297852 4.43945L1.75684 3.3623L4.31738 7.17383Z" fill="black"/>
<path d="M11.2646 0.620117C13.7001 0.620612 15.6748 2.5957 15.6748 5.03125C15.6746 6.52377 14.9316 7.8417 13.7969 8.63965L13.5449 6.99023C13.9978 6.46354 14.2743 5.78041 14.2744 5.03125C14.2744 3.3689 12.9269 2.021 11.2646 2.02051C10.2773 2.02051 9.40354 2.49809 8.85449 3.23242H7.2373C7.92598 1.69333 9.46969 0.620123 11.2646 0.620117Z" fill="black"/>
</svg>
