<svg width="24" height="24" viewBox="0 0 24 24" fill="none" xmlns="http://www.w3.org/2000/svg">
<path d="M6.47656 10.7598L6.73438 9.37109C7.07774 7.51856 8.694 6.17383 10.5781 6.17383H14.7588C16.6901 6.17391 18.332 7.58491 18.623 9.49414L19.5459 15.5518C19.9063 17.9178 18.075 20.0497 15.6816 20.0498H8.12402C6.60022 20.0497 5.21453 19.1644 4.5752 17.7812L0.446289 6.15918L2.63574 4.54297L6.47656 10.7598Z" fill="black"/>
<path d="M16.8955 0.979492C20.5215 0.979492 23.4616 3.91999 23.4619 7.5459C23.4618 9.73034 22.3933 11.6647 20.752 12.8584L20.3896 10.4834C21.0579 9.68933 21.4618 8.66472 21.4619 7.5459C21.4616 5.02456 19.4169 2.98047 16.8955 2.98047C15.3913 2.98058 14.0573 3.70867 13.2256 4.83105H10.918C11.9511 2.56032 14.2382 0.979625 16.8955 0.979492Z" fill="black"/>
</svg>
