<svg width="16" height="16" viewBox="0 0 16 16" fill="none" xmlns="http://www.w3.org/2000/svg">
<path fill-rule="evenodd" clip-rule="evenodd" d="M10.7549 0.520508C13.5262 0.520508 15.7732 2.76682 15.7734 5.53809C15.7733 7.41706 14.7409 9.05424 13.2119 9.91406L13.2754 10.3311C13.5384 12.0583 12.2013 13.6142 10.4541 13.6143H5.4863C4.32377 13.6141 3.27786 12.9087 2.84176 11.8311L0.110319 5.0791C-0.0279222 4.73738 0.0846892 4.34534 0.383757 4.12988L1.4443 3.36621L1.51462 3.32129C1.68197 3.22547 1.87941 3.19297 2.07028 3.23145C2.28843 3.27545 2.47856 3.40879 2.59469 3.59863L4.23239 6.27539L4.24606 6.20215C4.42592 5.23178 5.08462 4.45376 5.95016 4.09082C6.57119 2.02544 8.48717 0.521043 10.7549 0.520508ZM7.05173 5.46875C6.44745 5.46875 5.92939 5.89998 5.8193 6.49414L5.42575 8.61816C5.36536 8.9439 5.10991 9.1995 4.78415 9.25977C4.45845 9.31997 4.12893 9.17312 3.95602 8.89062L2.24606 6.09473L4.32419 11.2314C4.5158 11.7046 4.97577 12.0145 5.4863 12.0146H10.4541C11.2215 12.0146 11.8087 11.331 11.6933 10.5723L11.0781 6.5332C10.9847 5.92092 10.4582 5.46877 9.83883 5.46875H7.05173ZM10.7549 2.12012C9.47457 2.12056 8.36062 2.8259 7.77536 3.86816H9.83883C11.2487 3.86818 12.4476 4.89822 12.6601 6.29199L12.9443 8.15918C13.6944 7.53246 14.1728 6.59222 14.1728 5.53809C14.1727 3.65047 12.6425 2.12012 10.7549 2.12012Z" fill="black"/>
</svg>
