<svg width="24" height="24" viewBox="0 0 24 24" fill="none" xmlns="http://www.w3.org/2000/svg">
<path fill-rule="evenodd" clip-rule="evenodd" d="M3.34398 16.1757C3.34398 16.1757 8.50698 19.6667 10.574 21.0627C11.42 21.6347 12.528 21.6347 13.374 21.0627L20.579 16.1927C21.036 15.8837 21.156 15.2617 20.847 14.8047C20.538 14.3467 19.916 14.2267 19.458 14.5357L12.254 19.4067C12.085 19.5207 11.863 19.5207 11.694 19.4067L4.46398 14.5187C4.00698 14.2097 3.38498 14.3297 3.07498 14.7867C2.76598 15.2447 2.88698 15.8667 3.34398 16.1757ZM13.415 3.06966C12.583 2.52366 11.507 2.52366 10.674 3.06966C9.25798 3.99766 6.32398 5.92066 4.38298 7.19266C3.68398 7.65166 3.25998 8.42966 3.25398 9.26566C3.24798 10.1027 3.66098 10.8867 4.35398 11.3547C6.28598 12.6607 9.21698 14.6427 10.645 15.6077C11.491 16.1797 12.599 16.1797 13.445 15.6077C14.872 14.6427 17.804 12.6607 19.736 11.3547C20.429 10.8867 20.842 10.1027 20.836 9.26566C20.83 8.42966 20.406 7.65166 19.706 7.19266L13.415 3.06966ZM12.319 4.74266L18.61 8.86566C18.75 8.95766 18.835 9.11266 18.836 9.27966C18.837 9.44766 18.755 9.60366 18.616 9.69766L12.325 13.9507C12.156 14.0647 11.934 14.0647 11.765 13.9507L5.47398 9.69766C5.33498 9.60366 5.25298 9.44766 5.25398 9.27966C5.25498 9.11266 5.33998 8.95766 5.47998 8.86566L11.771 4.74266C11.937 4.63266 12.153 4.63266 12.319 4.74266Z" fill="black"/>
</svg>
