<svg width="16" height="16" viewBox="0 0 16 16" fill="none" xmlns="http://www.w3.org/2000/svg">
<path fill-rule="evenodd" clip-rule="evenodd" d="M6.23504 13.9707C6.29204 14.6877 6.82804 15.2747 7.53704 15.3967C8.24604 15.5187 8.94704 15.1447 9.24004 14.4877C10.57 11.5127 12.647 6.86475 13.792 4.30374C14.058 3.70874 13.929 3.01074 13.468 2.54874C13.006 2.08774 12.308 1.95874 11.712 2.22474L1.51604 6.78274C0.860041 7.07575 0.485041 7.77674 0.606041 8.48475C0.727041 9.19275 1.31304 9.72874 2.02904 9.78774L5.92604 10.1087L6.23504 13.9707ZM7.82204 13.7417L7.46704 9.30374C7.43604 8.91274 7.12604 8.60174 6.73504 8.56974L2.26204 8.20174L12.303 3.71374L7.82204 13.7417Z" fill="black"/>
</svg>
