<svg width="24" height="24" viewBox="0 0 24 24" fill="none" xmlns="http://www.w3.org/2000/svg">
<path fill-rule="evenodd" clip-rule="evenodd" d="M10.213 20.3306C10.279 21.2406 10.953 21.9916 11.852 22.1546C12.751 22.3166 13.645 21.8506 14.026 21.0206L21.12 5.55663C21.468 4.79663 21.307 3.89963 20.716 3.30863C20.125 2.71663 19.228 2.55663 18.468 2.90463C14.666 4.64963 7.32996 8.01463 2.96796 10.0166C2.13996 10.3966 1.67296 11.2886 1.83296 12.1856C1.99296 13.0826 2.73896 13.7576 3.64796 13.8286L9.77796 14.3016L10.213 20.3306ZM19.302 4.72263L12.208 20.1866L11.711 13.2996C11.675 12.8056 11.284 12.4126 10.791 12.3746L3.80196 11.8346L19.302 4.72263Z" fill="black"/>
</svg>
