<svg width="24" height="24" viewBox="0 0 24 24" fill="none" xmlns="http://www.w3.org/2000/svg">
<path fill-rule="evenodd" clip-rule="evenodd" d="M21.9834 10.8793L21.9821 10.8674C21.4064 5.83904 17.1285 2 12.0237 2C6.49099 2 2 6.48707 2 12.0149C2 17.1151 5.84321 21.3925 10.8798 21.9833C11.8191 22.0788 12.736 21.7612 13.4024 21.1171C15.1782 19.3619 19.4705 15.0562 21.098 13.3964C21.7532 12.7358 22.0797 11.8105 21.9834 10.8793ZM4.18848 12.0149C4.18848 7.69472 7.69962 4.18663 12.0236 4.18663C16.0104 4.18663 19.3541 7.18521 19.8069 11.1091C19.8073 11.1136 19.8077 11.118 19.8081 11.1224C19.831 11.3959 19.7329 11.6662 19.5389 11.8618C19.2157 12.1914 18.7871 12.6257 18.2939 13.1236C16.7788 14.6535 14.6545 16.7844 13.1075 18.3265C12.6286 18.8038 12.205 19.2248 11.872 19.554C11.6779 19.7415 11.3987 19.8382 11.1179 19.8097C11.1125 19.8091 11.107 19.8084 11.1015 19.8078C7.18807 19.3403 4.18848 15.9962 4.18848 12.0149Z" fill="black"/>
<path d="M19.5389 11.8618C19.7329 11.6662 19.831 11.3959 19.8081 11.1224C19.274 10.9987 18.7241 10.9354 18.1664 10.9354C14.1649 10.9354 10.9169 14.1806 10.9169 18.1786C10.9169 18.732 10.9793 19.2777 11.1015 19.8078C11.107 19.8084 11.1125 19.8091 11.1179 19.8097C11.3987 19.8382 11.6779 19.7415 11.872 19.554C12.205 19.2248 12.6286 18.8038 13.1075 18.3265C13.1061 18.2773 13.1054 18.228 13.1054 18.1786C13.1054 15.3883 15.3736 13.122 18.1664 13.122C18.209 13.122 18.2515 13.1226 18.2939 13.1236C18.7871 12.6257 19.2157 12.1914 19.5389 11.8618Z" fill="black"/>
</svg>
