<svg width="24" height="24" viewBox="0 0 24 24" fill="none" xmlns="http://www.w3.org/2000/svg">
<path d="M3 5H21C21.5523 5 22 4.55228 22 4C22 3.44772 21.5523 3 21 3H3C2.44772 3 2 3.44772 2 4C2 4.55228 2.44772 5 3 5Z" fill="black"/>
<path d="M16.76 11.154V8.723H20.24C20.65 8.723 20.81 8.709 20.997 8.612C21.24 8.487 21.407 8.202 21.407 7.861C21.407 7.521 21.24 7.236 20.997 7.111C20.81 7.014 20.65 7 20.24 7H15.996C15.711 7 15.356 7 15.085 7.271C14.815 7.542 14.815 7.896 14.815 8.181V15.642C14.815 16.093 14.828 16.253 14.947 16.489C15.092 16.76 15.405 16.948 15.787 16.948C16.169 16.948 16.482 16.76 16.628 16.489C16.746 16.253 16.76 16.093 16.76 15.642V12.877H19.566C19.976 12.877 20.136 12.863 20.323 12.766C20.566 12.641 20.733 12.356 20.733 12.016C20.733 11.675 20.566 11.39 20.323 11.265C20.136 11.168 19.976 11.154 19.566 11.154H16.76Z" fill="black"/>
<path d="M13.189 8.316C13.189 7.864 13.176 7.705 13.057 7.468C12.912 7.197 12.599 7.01 12.217 7.01C11.835 7.01 11.522 7.197 11.376 7.468C11.258 7.705 11.244 7.864 11.244 8.316V15.707C11.244 16.159 11.258 16.319 11.376 16.555C11.522 16.826 11.835 17.013 12.217 17.013C12.599 17.013 12.912 16.826 13.057 16.555C13.176 16.319 13.189 16.159 13.189 15.707V8.316Z" fill="black"/>
<path d="M4.945 12.03C4.945 10.266 5.022 9.724 5.431 9.252C5.716 8.932 6.098 8.724 6.605 8.724C7.286 8.724 7.752 9.05 8.064 9.745C8.196 10.03 8.349 10.28 8.544 10.433C8.669 10.53 8.877 10.599 9.099 10.599C9.349 10.599 9.586 10.523 9.773 10.335C9.954 10.155 10.03 9.939 10.03 9.599C10.03 9.21 9.829 8.508 9.183 7.89C8.564 7.286 7.828 7.001 6.647 7.001C5.543 7.001 4.681 7.369 4.014 8.043C3.035 9.022 3 10.141 3 12.03C3 13.92 3.035 15.038 4.014 16.018C4.681 16.692 5.522 17.06 6.668 17.06C7.745 17.06 8.516 16.747 9.266 15.997C10.002 15.261 10.183 14.337 10.183 12.933V12.829C10.183 12.544 10.183 12.19 9.912 11.919C9.641 11.648 9.287 11.648 9.002 11.648H7.647C7.238 11.648 7.085 11.662 6.89 11.759C6.647 11.885 6.48 12.176 6.48 12.51C6.48 12.843 6.647 13.135 6.89 13.253C7.085 13.35 7.238 13.371 7.647 13.371H8.342C8.342 14.052 8.252 14.469 7.897 14.837C7.599 15.15 7.175 15.337 6.668 15.337C6.14 15.337 5.702 15.129 5.424 14.809C5.056 14.392 4.945 13.92 4.945 12.03Z" fill="black"/>
<path d="M3 21H21C21.5523 21 22 20.5523 22 20C22 19.4477 21.5523 19 21 19H3C2.44772 19 2 19.4477 2 20C2 20.5523 2.44772 21 3 21Z" fill="black"/>
</svg>
