<svg width="24" height="24" viewBox="0 0 24 24" fill="none" xmlns="http://www.w3.org/2000/svg">
<path d="M23.947 21.8898C23.947 21.6537 23.8532 21.4275 23.6863 21.2605C23.5194 21.0936 23.293 20.9998 23.057 20.9998C20.4004 20.9998 12.5472 20.9998 9.89064 20.9998C9.65464 20.9998 9.42824 21.0936 9.26134 21.2605C9.09444 21.4275 9.00064 21.6537 9.00064 21.8898C9.00064 21.9056 9.00064 21.9214 9.00064 21.9373C9.00064 22.1733 9.09444 22.3996 9.26134 22.5665C9.42824 22.7334 9.65464 22.8272 9.89064 22.8272C12.5472 22.8272 20.4004 22.8272 23.057 22.8272C23.293 22.8272 23.5194 22.7334 23.6863 22.5665C23.8532 22.3996 23.947 22.1733 23.947 21.9373C23.947 21.9214 23.947 21.9056 23.947 21.8898Z" fill="black"/>
<path fill-rule="evenodd" clip-rule="evenodd" d="M7.72044 19.6835C7.11364 18.7649 6.96094 17.6677 6.96094 16.0146C6.96094 15.3223 6.98774 14.7274 7.06374 14.2022L7.03404 14.0896H7.08414C7.17334 13.5175 7.32794 13.0304 7.57534 12.5896H6.74484C6.54744 11.1966 6.54634 9.79505 6.73374 8.42285H7.65284C7.72344 8.31885 7.80254 8.22295 7.88844 8.13275C8.36864 7.62825 9.02004 7.34485 9.69914 7.34485H18.29C16.9937 3.73795 13.541 1.15625 9.49014 1.15625C4.32974 1.15625 0.140137 5.34585 0.140137 10.5063C0.140137 15.0613 3.40454 18.86 7.72044 19.6835ZM5.49214 14.0896H2.73134C3.58504 15.6958 4.99454 16.9621 6.70294 17.6315C6.16124 16.4769 5.75894 15.2894 5.49214 14.0896ZM5.21984 8.42285H2.12784C1.94044 9.08545 1.84014 9.78425 1.84014 10.5063C1.84014 11.2283 1.94044 11.927 2.12784 12.5896H5.22924C5.05004 11.1965 5.04874 9.79725 5.21984 8.42285ZM6.67734 3.39085C4.98064 4.06295 3.58074 5.32455 2.73134 6.92285H5.47584C5.74114 5.70895 6.14314 4.52425 6.67734 3.39085ZM10.3874 2.90895C10.0932 2.87395 9.79374 2.85625 9.49014 2.85625C9.19714 2.85625 8.90794 2.87275 8.62344 2.90545C7.89214 4.17065 7.35344 5.52395 7.01614 6.92285H11.993C11.6557 5.52455 11.1179 4.17265 10.3874 2.90895ZM12.3382 3.40525C12.8691 4.53425 13.269 5.71435 13.533 6.92285H16.2489C15.4054 5.33585 14.0192 4.08055 12.3382 3.40525Z" fill="black"/>
<path d="M23.947 10.0349C23.947 9.79875 23.8532 9.57245 23.6863 9.40555C23.5194 9.23865 23.293 9.14485 23.057 9.14485C20.4004 9.14485 12.5472 9.14485 9.89064 9.14485C9.65464 9.14485 9.42824 9.23865 9.26134 9.40555C9.09444 9.57245 9.00064 9.79875 9.00064 10.0349C9.00064 10.0598 9.00064 10.0848 9.00064 10.1098C9.00064 10.3458 9.09444 10.5722 9.26134 10.7392C9.42824 10.906 9.65464 10.9998 9.89064 10.9998C12.5472 10.9998 20.4004 10.9998 23.057 10.9998C23.293 10.9998 23.5194 10.906 23.6863 10.7392C23.8532 10.5722 23.947 10.3458 23.947 10.1098C23.947 10.0848 23.947 10.0598 23.947 10.0349Z" fill="black"/>
<path d="M17.3064 13.1937C17.3064 12.8508 17.2953 12.7295 17.2008 12.5501C17.0841 12.3443 16.834 12.2019 16.5284 12.2019C16.2227 12.2019 15.9726 12.3443 15.8559 12.5501C15.7614 12.7295 15.7503 12.8508 15.7503 13.1937V18.8067C15.7503 19.1496 15.7614 19.271 15.8559 19.4503C15.9726 19.6561 16.2227 19.7985 16.5284 19.7985C16.834 19.7985 17.0841 19.6561 17.2008 19.4503C17.2953 19.271 17.3064 19.1496 17.3064 18.8067V13.1937Z" fill="black"/>
<path d="M10.517 16.0146C10.517 14.6746 10.5781 14.2632 10.906 13.9044C11.1339 13.6618 11.4395 13.5035 11.8452 13.5035C12.3898 13.5035 12.7622 13.7514 13.0123 14.279C13.1179 14.4953 13.2401 14.6852 13.3957 14.8013C13.4958 14.8751 13.6625 14.9279 13.8403 14.9279C14.0404 14.9279 14.2293 14.8698 14.3794 14.7274C14.5239 14.5901 14.585 14.4267 14.585 14.1681C14.585 13.8728 14.4239 13.3399 13.907 12.8705C13.4124 12.4115 12.8233 12.1952 11.8786 12.1952C10.9949 12.1952 10.3058 12.4748 9.77234 12.9865C8.98874 13.7303 8.96094 14.5796 8.96094 16.0146C8.96094 17.4494 8.98874 18.2987 9.77234 19.0427C10.3058 19.5543 10.9783 19.834 11.8952 19.834C12.7566 19.834 13.3735 19.5965 13.9737 19.0268C14.5628 18.4676 14.7073 17.7659 14.7073 16.7003V16.6213C14.7073 16.405 14.7073 16.1358 14.4905 15.9302C14.2738 15.7243 13.9904 15.7243 13.7625 15.7243H12.6788C12.3509 15.7243 12.2287 15.735 12.0731 15.8089C11.8786 15.9038 11.7452 16.1254 11.7452 16.3786C11.7452 16.6318 11.8786 16.8533 12.0731 16.9431C12.2287 17.0169 12.3509 17.0326 12.6788 17.0326H13.2346C13.2346 17.5497 13.1623 17.8663 12.8789 18.1459C12.6399 18.3833 12.3009 18.5257 11.8952 18.5257C11.4729 18.5257 11.1227 18.3673 10.9005 18.1248C10.6059 17.8082 10.517 17.4494 10.517 16.0146Z" fill="black"/>
<path d="M20.2729 15.3491V13.5027H23.0572C23.3851 13.5027 23.5129 13.4921 23.6629 13.4183C23.8574 13.3233 23.9908 13.107 23.9908 12.8485C23.9908 12.59 23.8574 12.3737 23.6629 12.2788C23.5129 12.2049 23.3851 12.1944 23.0572 12.1944H19.6616C19.4337 12.1944 19.1503 12.1944 18.9336 12.4001C18.7168 12.6059 18.7168 12.8749 18.7168 13.0912V18.757C18.7168 19.0999 18.728 19.2212 18.8224 19.4006C18.9391 19.6063 19.1892 19.7488 19.4949 19.7488C19.8005 19.7488 20.0506 19.6063 20.1673 19.4006C20.2618 19.2212 20.2729 19.0999 20.2729 18.757V16.6574H22.5181C22.846 16.6574 22.9738 16.6468 23.1239 16.573C23.3184 16.478 23.4518 16.2617 23.4518 16.0032C23.4518 15.7447 23.3184 15.5284 23.1239 15.4335C22.9738 15.3596 22.846 15.3491 22.5181 15.3491H20.2729Z" fill="black"/>
</svg>
