<svg width="16" height="16" viewBox="0 0 16 16" fill="none" xmlns="http://www.w3.org/2000/svg">
<path fill-rule="evenodd" clip-rule="evenodd" d="M15.2404 7.38924C15.2401 7.38634 15.2397 7.38344 15.2394 7.38054C14.8179 3.87414 11.8297 1.15234 8.21056 1.15234C4.30316 1.15234 1.13086 4.32464 1.13086 8.23204C1.13086 11.8523 3.85486 14.8417 7.36196 15.2748C7.36606 15.2753 7.37026 15.2758 7.37446 15.2763C8.05306 15.3492 8.72896 15.1171 9.21956 14.6425C9.22176 14.6404 9.22386 14.6383 9.22606 14.6362C10.4421 13.4327 13.4177 10.4461 14.5949 9.24304C15.0766 8.75704 15.3151 8.07464 15.2404 7.38924ZM13.65 7.56464C13.3207 4.85434 11.009 2.75234 8.21056 2.75234C5.18626 2.75234 2.73086 5.20774 2.73086 8.23204C2.73086 11.022 4.81996 13.3277 7.52296 13.6822C7.44366 13.3242 7.40176 12.9521 7.40176 12.5704C7.40176 9.73984 9.69986 7.44174 12.5305 7.44174C12.915 7.44174 13.2896 7.48424 13.65 7.56464ZM12.5473 9.04184L12.5305 9.04174C10.583 9.04174 9.00176 10.6229 9.00176 12.5704L9.00196 12.6023C10.061 11.5454 11.4968 10.1039 12.5473 9.04184Z" fill="black"/>
</svg>
