<svg width="24" height="24" viewBox="0 0 24 24" fill="none" xmlns="http://www.w3.org/2000/svg">
<path fill-rule="evenodd" clip-rule="evenodd" d="M21.9834 10.8793L21.9821 10.8674C21.4064 5.83904 17.1285 2 12.0237 2C6.49099 2 2 6.48707 2 12.0149C2 17.1151 5.84321 21.3925 10.8798 21.9833C11.8191 22.0788 12.736 21.7612 13.4024 21.1171C15.1782 19.3619 19.4705 15.0562 21.098 13.3964C21.7532 12.7358 22.0797 11.8105 21.9834 10.8793ZM11.869 19.7332C12.2056 19.4005 12.6326 18.9764 13.1152 18.4955C13.1087 18.3904 13.1054 18.2848 13.1054 18.1787C13.1054 15.3883 15.3736 13.1221 18.1664 13.1221C18.2663 13.1221 18.3658 13.1249 18.4648 13.1307C18.9619 12.6288 19.3941 12.1911 19.721 11.8578C19.9033 11.674 20.003 11.4258 19.9999 11.1697C19.4061 11.0148 18.7912 10.9354 18.1664 10.9354C14.1649 10.9354 10.9169 14.1806 10.9169 18.1787C10.9169 18.7987 10.9953 19.4091 11.1483 19.9988C11.4181 20.012 11.6821 19.9137 11.869 19.7332Z" fill="black"/>
</svg>
