<svg width="16" height="16" viewBox="0 0 16 16" fill="none" xmlns="http://www.w3.org/2000/svg">
<path fill-rule="evenodd" clip-rule="evenodd" d="M16 14.1005C16 13.7305 15.7 13.4305 15.331 13.4305C12.725 13.4305 3.275 13.4305 0.669 13.4305C0.3 13.4305 0 13.7305 0 14.1005C0 14.1705 0 14.2505 0 14.3205C0 14.6905 0.3 14.9905 0.669 14.9905C3.275 14.9905 12.725 14.9905 15.331 14.9905C15.7 14.9905 16 14.6905 16 14.3205C16 14.2505 16 14.1705 16 14.1005ZM2.517 8.01047C2.517 6.67047 2.578 6.26047 2.906 5.90047C3.134 5.66047 3.44 5.50047 3.845 5.50047C4.39 5.50047 4.762 5.75047 5.012 6.28047C5.118 6.50047 5.24 6.69047 5.396 6.80047C5.496 6.88047 5.663 6.93047 5.841 6.93047C6.041 6.93047 6.23 6.87047 6.38 6.73047C6.524 6.59047 6.585 6.43047 6.585 6.17047C6.585 5.87047 6.424 5.34047 5.907 4.87047C5.413 4.41047 4.824 4.20047 3.879 4.20047C2.995 4.20047 2.306 4.47047 1.772 4.99047C0.989 5.73047 0.961 6.58047 0.961 8.01047C0.961 9.45047 0.989 10.3005 1.772 11.0405C2.306 11.5505 2.978 11.8305 3.895 11.8305C4.757 11.8305 5.374 11.6005 5.974 11.0305C6.563 10.4705 6.707 9.77047 6.707 8.70047V8.62047C6.707 8.41047 6.707 8.14047 6.491 7.93047C6.274 7.72047 5.991 7.72047 5.763 7.72047H4.679C4.351 7.72047 4.229 7.74047 4.073 7.81047C3.879 7.90047 3.745 8.13047 3.745 8.38047C3.745 8.63047 3.879 8.85047 4.073 8.94047C4.229 9.02047 4.351 9.03047 4.679 9.03047H5.235C5.235 9.55047 5.163 9.87047 4.879 10.1505C4.64 10.3805 4.301 10.5305 3.895 10.5305C3.473 10.5305 3.123 10.3705 2.901 10.1205C2.606 9.81047 2.517 9.45047 2.517 8.01047ZM9.307 5.19047C9.307 4.85047 9.295 4.73047 9.201 4.55047C9.084 4.34047 8.834 4.20047 8.529 4.20047C8.223 4.20047 7.973 4.34047 7.856 4.55047C7.762 4.73047 7.751 4.85047 7.751 5.19047V10.8105C7.751 11.1505 7.762 11.2705 7.856 11.4505C7.973 11.6605 8.223 11.8005 8.529 11.8005C8.834 11.8005 9.084 11.6605 9.201 11.4505C9.295 11.2705 9.307 11.1505 9.307 10.8105V5.19047ZM12.273 7.35047V5.50047H15.057C15.385 5.50047 15.513 5.49047 15.663 5.42047C15.858 5.32047 15.991 5.11047 15.991 4.85047C15.991 4.59047 15.858 4.37047 15.663 4.28047C15.513 4.21047 15.385 4.19047 15.057 4.19047H11.662C11.434 4.19047 11.151 4.19047 10.934 4.40047C10.717 4.61047 10.717 4.88047 10.717 5.09047V10.7605C10.717 11.1005 10.728 11.2205 10.823 11.4005C10.939 11.6105 11.189 11.7505 11.495 11.7505C11.801 11.7505 12.051 11.6105 12.168 11.4005C12.262 11.2205 12.273 11.1005 12.273 10.7605V8.66047H14.518C14.846 8.66047 14.974 8.65047 15.124 8.57047C15.319 8.48047 15.452 8.26047 15.452 8.00047C15.452 7.74047 15.319 7.53047 15.124 7.43047C14.974 7.36047 14.846 7.35047 14.518 7.35047H12.273ZM16 1.65047C16 1.47047 15.929 1.30047 15.804 1.18047C15.678 1.05047 15.508 0.980469 15.331 0.980469C12.725 0.980469 3.275 0.980469 0.669 0.980469C0.492 0.980469 0.322 1.05047 0.196 1.18047C0.071 1.30047 0 1.47047 0 1.65047C0 1.72047 0 1.79047 0 1.87047C0 2.05047 0.071 2.22047 0.196 2.34047C0.322 2.47047 0.492 2.54047 0.669 2.54047C3.275 2.54047 12.725 2.54047 15.331 2.54047C15.508 2.54047 15.678 2.47047 15.804 2.34047C15.929 2.22047 16 2.05047 16 1.87047C16 1.79047 16 1.72047 16 1.65047Z" fill="black"/>
</svg>
