<svg width="24" height="24" viewBox="0 0 24 24" fill="none" xmlns="http://www.w3.org/2000/svg">
<path fill-rule="evenodd" clip-rule="evenodd" d="M11.9834 10.2066C12.6168 9.63914 13.4822 9.28164 14.6467 9.44294C16.7575 9.73534 18.4626 12.6613 16.5296 15.1425C15.7086 16.1963 14.2813 17.4273 12.5325 18.5764C12.1992 18.7955 11.7675 18.7955 11.4342 18.5764C9.68538 17.4273 8.25808 16.1963 7.43708 15.1425C5.50408 12.6613 7.20918 9.73534 9.31998 9.44294C10.4845 9.28164 11.35 9.63914 11.9834 10.2066ZM11.1067 12.3002C10.8405 11.8151 10.3935 11.3133 9.59448 11.424C8.69568 11.5485 8.19168 12.8569 9.01478 13.9134C9.64628 14.724 10.6988 15.6407 11.9835 16.5338C13.2679 15.6407 14.3204 14.724 14.9519 13.9134C15.775 12.8569 15.2711 11.5485 14.3722 11.424C13.5732 11.3133 13.1262 11.8151 12.86 12.3002C12.6844 12.6202 12.3484 12.8191 11.9834 12.8191C11.6183 12.8191 11.2823 12.6202 11.1067 12.3002Z" fill="black"/>
<path fill-rule="evenodd" clip-rule="evenodd" d="M19.0513 6.03104C20.502 6.24174 21.6163 7.49064 21.6163 8.99974V16.9997C21.6163 19.7611 19.3777 21.9997 16.6163 21.9997H7.43018C4.66878 21.9997 2.43018 19.7611 2.43018 16.9997V8.99974C2.43018 7.50734 3.51998 6.26944 4.94708 6.03844C4.28638 5.02354 4.24738 3.77064 4.92578 2.72494C5.91328 1.20254 8.07977 0.858943 9.64948 1.77144C10.5171 2.27584 11.3263 3.37374 11.9968 4.63134C12.6673 3.37374 13.4766 2.27584 14.3442 1.77144C15.9138 0.858943 18.0803 1.20254 19.0679 2.72494C19.7446 3.76814 19.7074 5.01744 19.0513 6.03104ZM10.5703 5.99974C10.301 5.43324 10.0019 4.88954 9.67568 4.42414C9.36948 3.98724 9.04908 3.62024 8.69448 3.41404C7.97728 2.99704 6.97098 3.06334 6.51968 3.75894C6.11478 4.38314 6.44638 5.14794 7.15658 5.57704C7.53238 5.80414 8.05688 5.93944 8.71678 5.99974H10.5703ZM15.2765 5.99974C15.9365 5.93944 16.4612 5.80414 16.837 5.57704C17.5472 5.14794 17.8789 4.38314 17.4739 3.75894C17.0227 3.06334 16.0164 2.99704 15.2991 3.41404C14.9445 3.62024 14.6241 3.98724 14.3179 4.42414C13.9918 4.88954 13.6926 5.43324 13.4234 5.99974H15.2765ZM4.43018 16.9997C4.43018 18.6566 5.77338 19.9997 7.43018 19.9997H16.6163C18.2732 19.9997 19.6163 18.6566 19.6163 16.9997V8.99974C19.6163 8.44744 19.1686 7.99974 18.6163 7.99974H5.43018C4.87788 7.99974 4.43018 8.44744 4.43018 8.99974V16.9997Z" fill="black"/>
</svg>
