<svg width="16" height="16" viewBox="0 0 16 16" fill="none" xmlns="http://www.w3.org/2000/svg">
<path fill-rule="evenodd" clip-rule="evenodd" d="M9.04447 12.2784C8.42457 12.7123 7.59888 12.71 6.98138 12.2726L6.97657 12.2693C6.09398 11.6344 5.31927 10.8928 4.86277 10.295C3.50697 8.51972 4.72948 6.43342 6.21007 6.22422C6.98277 6.11502 7.57078 6.33302 8.01108 6.69702C8.45157 6.33302 9.03968 6.11502 9.81238 6.22422C11.2929 6.43342 12.5155 8.51972 11.1597 10.295C10.7016 10.8948 9.94477 11.6392 9.04897 12.2753L9.04447 12.2784ZM8.12617 10.9682C8.87187 10.4382 9.50657 9.82352 9.88807 9.32392C10.2036 8.91072 10.201 8.45022 10.0059 8.12872C9.90697 7.96572 9.76328 7.83312 9.58848 7.80842C9.12338 7.74272 8.87068 8.05252 8.71568 8.34062C8.57618 8.59992 8.30558 8.76162 8.01118 8.76162C7.71677 8.76162 7.44618 8.59992 7.30667 8.34062C7.15167 8.05252 6.89897 7.74272 6.43388 7.80842C6.25908 7.83312 6.11548 7.96572 6.01648 8.12872C5.82138 8.45022 5.81878 8.91072 6.13438 9.32392C6.51597 9.82372 7.16948 10.4366 7.91008 10.9697C7.97548 11.0136 8.06117 11.0131 8.12617 10.9682Z" fill="black"/>
<path fill-rule="evenodd" clip-rule="evenodd" d="M13.0624 3.89552C13.4667 3.99502 13.84 4.20332 14.1393 4.50262C14.5707 4.93392 14.813 5.51892 14.813 6.12892V11.3868C14.813 12.3947 14.4126 13.3612 13.7 14.0739C12.9874 14.7865 12.0208 15.1868 11.013 15.1868H5.03438C4.02648 15.1868 3.05998 14.7865 2.34738 14.0739C1.63468 13.3612 1.23438 12.3947 1.23438 11.3868V6.12892C1.23438 5.51892 1.47667 4.93392 1.90797 4.50262C2.27248 4.13812 2.74657 3.90862 3.25287 3.84622C2.85287 3.13922 2.85718 2.29442 3.31808 1.58402C4.02358 0.496518 5.56958 0.243118 6.69088 0.895018C7.22848 1.20762 7.73738 1.84992 8.17198 2.60572C8.60658 1.84992 9.11538 1.20762 9.65308 0.895018C10.7744 0.243118 12.3204 0.496518 13.0259 1.58402C13.4975 2.31102 13.491 3.17882 13.0624 3.89552ZM9.38048 3.71092C10.2576 3.74632 10.9148 3.67392 11.3126 3.43352C11.6985 3.20032 11.9036 2.79392 11.6836 2.45472C11.4297 2.06342 10.8608 2.04362 10.4573 2.27822C10.2389 2.40522 10.0445 2.63412 9.85588 2.90312C9.68577 3.14592 9.52697 3.42132 9.38048 3.71092ZM2.83438 11.3868C2.83438 11.9703 3.06607 12.5299 3.47867 12.9425C3.89127 13.3551 4.45088 13.5868 5.03438 13.5868H11.013C11.5965 13.5868 12.156 13.3551 12.5686 12.9425C12.9812 12.5299 13.213 11.9703 13.213 11.3868V6.12892C13.213 5.94332 13.1392 5.76522 13.008 5.63392C12.8767 5.50272 12.6987 5.42892 12.513 5.42892H3.53428C3.34868 5.42892 3.17057 5.50272 3.03937 5.63392C2.90807 5.76522 2.83438 5.94332 2.83438 6.12892V11.3868ZM6.96357 3.71092C6.81707 3.42132 6.65818 3.14592 6.48808 2.90312C6.29948 2.63412 6.10507 2.40522 5.88667 2.27822C5.48307 2.04362 4.91428 2.06342 4.66038 2.45472C4.44038 2.79392 4.64547 3.20032 5.03137 3.43352C5.42917 3.67392 6.08637 3.74632 6.96357 3.71092Z" fill="black"/>
</svg>
