<svg width="24" height="24" viewBox="0 0 24 24" fill="none" xmlns="http://www.w3.org/2000/svg">
<path fill-rule="evenodd" clip-rule="evenodd" d="M12.0098 4.63369C11.3398 3.37469 10.5298 2.27669 9.6698 1.77269C8.0998 0.859691 5.9298 1.20369 4.9398 2.72569C4.2598 3.77769 4.2998 5.03969 4.9798 6.05669C3.5898 6.32369 2.5498 7.54069 2.5498 9.00069V17.0007C2.5498 18.3267 3.0798 19.5987 4.0198 20.5367C4.9498 21.4737 6.2298 22.0007 7.5498 22.0007C10.2698 22.0007 13.8498 22.0007 16.5698 22.0007C17.8998 22.0007 19.1698 21.4737 20.1098 20.5367C21.0498 19.5987 21.5698 18.3267 21.5698 17.0007V9.00069C21.5698 7.50869 20.4898 6.27169 19.0598 6.04369C19.7198 5.02869 19.7598 3.77369 19.0798 2.72569C18.0998 1.20369 15.9298 0.859691 14.3598 1.77269C13.4898 2.27669 12.6798 3.37469 12.0098 4.63369ZM12.0498 16.5237C12.8498 16.5237 13.4998 17.1817 13.4998 17.9917C13.4998 18.8027 12.8498 19.4607 12.0498 19.4607C11.2498 19.4607 10.5898 18.8027 10.5898 17.9917C10.5898 17.1817 11.2498 16.5237 12.0498 16.5237ZM12.1698 8.49469C10.9598 8.49469 9.8098 9.04869 9.14981 9.64869C8.3498 10.3807 9.08981 12.0757 10.2498 11.3457C10.6898 11.0647 11.2498 10.6577 12.2098 10.6537C12.8398 10.6507 13.2798 11.1847 13.2798 11.6967C13.2798 12.2407 11.9598 13.1307 11.2398 13.8057C10.2598 14.7227 11.5898 16.2857 12.7398 15.2537C13.9398 14.1847 15.4698 12.9127 15.4698 11.4727C15.4698 9.80769 14.0998 8.49469 12.1698 8.49469ZM10.5898 6.00069H8.7698C8.08981 5.94569 7.5598 5.80969 7.1698 5.57769C6.4598 5.14869 6.1298 4.38369 6.5398 3.75969C6.9898 3.06469 7.9898 2.99769 8.7098 3.41469C9.0698 3.62069 9.3898 3.98869 9.6898 4.42469C10.0198 4.89069 10.3198 5.43369 10.5898 6.00069ZM15.2598 6.00069H13.4398C13.7098 5.43369 14.0098 4.89069 14.3298 4.42469C14.6398 3.98869 14.9598 3.62069 15.3198 3.41469C16.0298 2.99769 17.0398 3.06469 17.4898 3.75969C17.8998 4.38369 17.5598 5.14869 16.8498 5.57769C16.4698 5.80969 15.9298 5.94569 15.2598 6.00069Z" fill="black"/>
</svg>
