<svg width="24" height="24" viewBox="0 0 24 24" fill="none" xmlns="http://www.w3.org/2000/svg">
<path fill-rule="evenodd" clip-rule="evenodd" d="M20.97 19.4427L22.78 21.2467C23.21 21.6767 23.21 22.3737 22.78 22.8027C22.35 23.2317 21.65 23.2317 21.22 22.8027L1.46002 3.04572C1.04002 2.61672 1.04002 1.91872 1.46002 1.48972C1.89002 1.06072 2.59002 1.06072 3.02002 1.48972L4.69002 3.16072C4.76002 3.01172 4.83002 2.86672 4.93002 2.72572C5.91002 1.20372 8.08002 0.859719 9.65002 1.77272C10.52 2.27672 11.33 3.37472 12 4.63372C12.67 3.37472 13.48 2.27672 14.34 1.77272C15.91 0.859719 18.08 1.20372 19.07 2.72572C19.74 3.76972 19.71 5.01872 19.05 6.03272C20.5 6.24272 21.62 7.49172 21.62 9.00072V17.0007C21.62 17.8907 21.38 18.7257 20.97 19.4427ZM2.94002 7.34172L4.45002 8.84572L4.43002 9.00072V17.0007C4.43002 18.6577 5.77002 20.0007 7.43002 20.0007H11.02V15.4187L13.02 17.4187V20.0007H15.6L17.52 21.9157C17.22 21.9727 16.92 22.0007 16.62 22.0007C13.85 22.0007 10.19 22.0007 7.43002 22.0007C4.67002 22.0007 2.43002 19.7617 2.43002 17.0007V9.00072C2.43002 8.38272 2.62002 7.80972 2.94002 7.34172ZM19.46 17.9317L13.02 11.4877V8.00072H18.62C19.17 8.00072 19.62 8.44872 19.62 9.00072V17.0007C19.62 17.3277 19.56 17.6417 19.46 17.9317ZM9.53002 8.00072L11.02 9.48772V8.00072H9.53002ZM6.99002 5.46172L6.61002 5.08172C6.31002 4.68072 6.24002 4.18772 6.52002 3.75972C6.97002 3.06472 7.98002 2.99772 8.69002 3.41472C9.05002 3.62072 9.37002 3.98872 9.68002 4.42472C10 4.89072 10.3 5.43472 10.57 6.00072H8.72002C8.06002 5.94072 7.53002 5.80572 7.16002 5.57772L6.99002 5.46172ZM15.27 6.00072H13.42C13.69 5.43472 13.99 4.89072 14.32 4.42472C14.62 3.98872 14.94 3.62072 15.3 3.41472C16.02 2.99772 17.02 3.06472 17.47 3.75972C17.88 4.38372 17.55 5.14872 16.84 5.57772C16.46 5.80572 15.93 5.94072 15.27 6.00072Z" fill="black"/>
</svg>
