<svg width="24" height="24" viewBox="0 0 24 24" fill="none" xmlns="http://www.w3.org/2000/svg">
<path fill-rule="evenodd" clip-rule="evenodd" d="M4.95018 6.03969C3.52018 6.26969 2.43018 7.50769 2.43018 9.00069V17.0007C2.43018 19.7617 4.67018 22.0007 7.43018 22.0007C10.1902 22.0007 13.8502 22.0007 16.6202 22.0007C19.3802 22.0007 21.6202 19.7617 21.6202 17.0007V9.00069C21.6202 7.49169 20.5002 6.24269 19.0502 6.03269C19.7102 5.01869 19.7402 3.76969 19.0702 2.72569C18.0802 1.20369 15.9102 0.859691 14.3402 1.77269C13.4802 2.27669 12.6702 3.37469 12.0002 4.63369C11.3302 3.37469 10.5202 2.27669 9.65018 1.77269C8.08018 0.859691 5.91018 1.20369 4.93018 2.72569C4.25018 3.77169 4.29018 5.02569 4.95018 6.03969ZM11.0202 8.00069V20.0007H7.43018C5.77018 20.0007 4.43018 18.6577 4.43018 17.0007V9.00069C4.43018 8.44869 4.88018 8.00069 5.43018 8.00069H11.0202ZM13.0202 8.00069H18.6202C19.1702 8.00069 19.6202 8.44869 19.6202 9.00069V17.0007C19.6202 18.6577 18.2702 20.0007 16.6202 20.0007H13.0202V8.00069ZM10.5702 6.00069H8.72018C8.06018 5.94069 7.53018 5.80569 7.16018 5.57769C6.45018 5.14869 6.11018 4.38369 6.52018 3.75969C6.97018 3.06469 7.98018 2.99769 8.69018 3.41469C9.05018 3.62069 9.37018 3.98869 9.68018 4.42469C10.0002 4.89069 10.3002 5.43469 10.5702 6.00069ZM15.2702 6.00069H13.4202C13.6902 5.43469 13.9902 4.89069 14.3202 4.42469C14.6202 3.98869 14.9402 3.62069 15.3002 3.41469C16.0202 2.99769 17.0202 3.06469 17.4702 3.75969C17.8802 4.38369 17.5502 5.14869 16.8402 5.57769C16.4602 5.80569 15.9302 5.94069 15.2702 6.00069Z" fill="black"/>
</svg>
