<svg width="16" height="16" viewBox="0 0 16 16" fill="none" xmlns="http://www.w3.org/2000/svg">
<path fill-rule="evenodd" clip-rule="evenodd" d="M3.25108 4.09617C2.92908 4.23417 2.63208 4.43417 2.37908 4.68717C1.85408 5.21217 1.55908 5.92417 1.55908 6.66717V10.9892C1.55908 13.0942 3.26608 14.8002 5.37108 14.8002C7.00708 14.8002 9.02408 14.8002 10.6601 14.8002C12.7651 14.8002 14.4711 13.0942 14.4711 10.9892C14.4711 9.57417 14.4711 7.92517 14.4711 6.66717C14.4711 5.92417 14.1761 5.21217 13.6511 4.68717C13.3911 4.42717 13.0851 4.22317 12.7521 4.08417C13.2161 3.37417 13.2411 2.49517 12.7661 1.76317C12.0801 0.705173 10.5751 0.460173 9.48508 1.09417C8.94208 1.40917 8.43108 2.06617 7.99808 2.83517C7.56408 2.06617 7.05308 1.40917 6.51108 1.09417C5.42008 0.460173 3.91608 0.705173 3.22908 1.76317C2.75108 2.49917 2.78008 3.38417 3.25108 4.09617ZM7.19708 5.46717V13.2002H5.37108C4.14908 13.2002 3.15908 12.2102 3.15908 10.9892V6.66717C3.15908 6.34817 3.28608 6.04317 3.51108 5.81817C3.73608 5.59317 4.04108 5.46717 4.35908 5.46717H7.19708ZM8.79708 5.46717H11.6711C11.9901 5.46717 12.2951 5.59317 12.5201 5.81817C12.7451 6.04317 12.8711 6.34817 12.8711 6.66717V10.9892C12.8711 12.2102 11.8811 13.2002 10.6601 13.2002H8.79708V5.46717ZM6.85908 3.86717H5.80408C5.41108 3.82717 5.09708 3.74417 4.86808 3.60617C4.46408 3.36217 4.25708 2.93417 4.48808 2.57917C4.75108 2.17417 5.33908 2.14817 5.75708 2.39117C5.97808 2.51917 6.17508 2.75017 6.36508 3.02117C6.54308 3.27517 6.70808 3.56317 6.85908 3.86717ZM10.1911 3.86717H9.13608C9.28808 3.56317 9.45308 3.27517 9.63008 3.02117C9.82108 2.75017 10.0181 2.51917 10.2381 2.39117C10.6561 2.14817 11.2451 2.17417 11.5081 2.57917C11.7381 2.93417 11.5311 3.36217 11.1271 3.60617C10.8991 3.74417 10.5841 3.82717 10.1911 3.86717Z" fill="black"/>
</svg>
