<svg width="12" height="12" viewBox="0 0 12 12" fill="none" xmlns="http://www.w3.org/2000/svg">
<path fill-rule="evenodd" clip-rule="evenodd" d="M5.99817 1.95122C5.64617 1.35422 5.23817 0.84922 4.80817 0.59922C3.86917 0.05422 2.57617 0.26822 1.98517 1.17822C1.55917 1.83422 1.59717 2.62822 2.04117 3.25222C1.27017 3.45622 0.701172 4.15822 0.701172 4.99322V8.99322C0.701172 10.5402 1.95517 11.7932 3.50117 11.7932C4.99517 11.7932 7.02817 11.7932 8.52217 11.7932C10.0682 11.7932 11.3222 10.5402 11.3222 8.99322C11.3222 7.68522 11.3222 6.03222 11.3222 4.99322C11.3222 4.15022 10.7422 3.44222 9.95917 3.24722C10.4002 2.62322 10.4362 1.83222 10.0112 1.17822C9.42117 0.26822 8.12717 0.05422 7.18917 0.59922C6.75917 0.84922 6.35017 1.35422 5.99817 1.95122ZM6.79717 4.79322H9.52217C9.63217 4.79322 9.72217 4.88322 9.72217 4.99322V8.99322C9.72217 9.65622 9.18517 10.1932 8.52217 10.1932H6.79717V4.79322ZM5.19717 4.79322V10.1932H3.50117C2.83817 10.1932 2.30117 9.65622 2.30117 8.99322V4.99322C2.30117 4.88322 2.39117 4.79322 2.50117 4.79322H5.19717ZM7.06017 2.90322C7.17017 2.69022 7.28817 2.48822 7.41417 2.30822C7.56417 2.09422 7.71917 1.91122 7.89317 1.81022C8.20317 1.62922 8.64217 1.63922 8.83717 1.94022C9.00417 2.19722 8.84017 2.50222 8.54817 2.67922C8.23717 2.86622 7.73217 2.92522 7.06017 2.90322ZM4.93717 2.90322C4.26517 2.92522 3.75917 2.86622 3.44917 2.67922C3.15617 2.50222 2.99317 2.19722 3.16017 1.94022C3.35517 1.63922 3.79317 1.62922 4.10417 1.81022C4.27817 1.91122 4.43217 2.09422 4.58217 2.30822C4.70817 2.48822 4.82717 2.69022 4.93717 2.90322Z" fill="black"/>
</svg>
