<svg width="24" height="24" viewBox="0 0 24 24" fill="none" xmlns="http://www.w3.org/2000/svg">
<path fill-rule="evenodd" clip-rule="evenodd" d="M4.54901 16.1733L3.74901 20.767L2.61101 20.5687C2.06701 20.474 1.54801 20.8386 1.45401 21.3824C1.35901 21.9261 1.72401 22.4444 2.26701 22.5391L6.51201 23.2782C7.05601 23.3728 7.57401 23.0082 7.66901 22.4645C7.76301 21.9208 7.39901 21.4025 6.85501 21.3078L5.72001 21.1101L6.51601 16.5366C7.35601 16.5173 8.14301 16.2682 8.81701 15.7601C9.68801 15.1038 10.4 13.9838 10.705 12.2283C10.958 10.779 11.462 4.67838 11.464 3.66288C11.465 3.17598 11.116 2.75908 10.636 2.67558L5.39801 1.76368C4.91901 1.68008 4.44901 1.95428 4.28501 2.41288C3.94401 3.36928 2.32701 9.20948 2.06301 10.7235C1.58101 13.495 2.74901 15.416 4.54901 16.1733ZM17.532 16.513L18.364 21.0795L17.221 21.2877C16.678 21.3866 16.318 21.9077 16.417 22.4507C16.516 22.9937 17.037 23.3542 17.58 23.2553L21.836 22.4799C22.379 22.381 22.74 21.8598 22.641 21.3168C22.542 20.7739 22.021 20.4133 21.478 20.5123L20.332 20.721L19.496 16.1345C21.299 15.363 22.457 13.4308 21.953 10.6622C21.678 9.15008 20.012 3.32268 19.663 2.36898C19.496 1.91208 19.024 1.64198 18.545 1.72918L13.293 2.68598C12.814 2.77318 12.468 3.19238 12.472 3.67898C12.482 4.69468 13.032 10.792 13.295 12.2394C13.615 13.9933 14.337 15.1077 15.217 15.7568C15.897 16.2591 16.689 16.5013 17.532 16.513ZM5.91701 3.88408L9.42701 4.49518C9.30901 6.44148 8.93701 10.7223 8.73501 11.8852C8.54101 12.998 8.16601 13.7467 7.61301 14.1627C7.12301 14.5325 6.51101 14.6 5.87601 14.4894C4.52401 14.2541 3.70601 12.9509 4.03401 11.0666C4.24501 9.85258 5.36301 5.74308 5.91701 3.88408ZM18.043 3.85358C18.613 5.70758 19.764 9.80828 19.985 11.0206C20.328 12.9033 19.513 14.2132 18.156 14.4603C17.518 14.5766 16.901 14.5143 16.405 14.1477C15.848 13.7367 15.465 12.9915 15.263 11.8809C15.052 10.7196 14.648 6.44118 14.515 4.49628L18.043 3.85358Z" fill="black"/>
</svg>
