<svg width="16" height="16" viewBox="0 0 16 16" fill="none" xmlns="http://www.w3.org/2000/svg">
<path fill-rule="evenodd" clip-rule="evenodd" d="M6.19981 13.0798V14.1998H4.62581C4.18481 14.1998 3.82581 14.5598 3.82581 14.9998C3.82581 15.4398 4.18481 15.7998 4.62581 15.7998H9.37382C9.81482 15.7998 10.1738 15.4398 10.1738 14.9998C10.1738 14.5598 9.81482 14.1998 9.37382 14.1998H7.79981V13.0798C11.3548 12.6798 14.1228 9.6598 14.1228 5.9998C14.1228 4.3298 13.5498 2.7998 12.5908 1.5898C12.3168 1.2398 11.8138 1.1798 11.4668 1.4598C11.1208 1.7298 11.0618 2.2298 11.3348 2.5798C12.0788 3.5198 12.5228 4.7098 12.5228 5.9998C12.5228 9.0498 10.0478 11.5198 6.99981 11.5198C5.73781 11.5198 4.57481 11.0998 3.64381 10.3898C3.29381 10.1198 2.79081 10.1798 2.52281 10.5298C2.25381 10.8798 2.31981 11.3898 2.67081 11.6498C3.67181 12.4198 4.88181 12.9298 6.19981 13.0798ZM6.99981 1.6398C4.59081 1.6398 2.63481 3.5898 2.63481 5.9998C2.63481 8.4098 4.59081 10.3598 6.99981 10.3598C9.40881 10.3598 11.3648 8.4098 11.3648 5.9998C11.3648 3.5898 9.40881 1.6398 6.99981 1.6398ZM6.99981 3.2398C8.52582 3.2398 9.76481 4.4698 9.76481 5.9998C9.76481 7.5298 8.52582 8.7598 6.99981 8.7598C5.47381 8.7598 4.23481 7.5298 4.23481 5.9998C4.23481 4.4698 5.47381 3.2398 6.99981 3.2398Z" fill="black"/>
</svg>
