<svg width="24" height="24" viewBox="0 0 24 24" fill="none" xmlns="http://www.w3.org/2000/svg">
<path d="M9.99982 19.7321V21.0002H7.43902C6.88712 21.0002 6.43902 21.4483 6.43902 22.0002C6.43902 22.5521 6.88712 23.0002 7.43902 23.0002H14.5606C15.1125 23.0002 15.5606 22.5521 15.5606 22.0002C15.5606 21.4483 15.1125 21.0002 14.5606 21.0002H11.9998V19.7393C17.4792 19.2528 21.7817 14.6443 21.7817 9.03869C21.7817 6.36449 20.8025 3.91719 19.1835 2.03599C18.8234 1.61769 18.1915 1.57029 17.7732 1.93039C17.3549 2.29039 17.3076 2.92229 17.6676 3.34059C18.985 4.87129 19.7817 6.86269 19.7817 9.03869C19.7817 13.8642 15.8641 17.7818 11.0386 17.7818C8.60002 17.7818 6.39332 16.7811 4.80692 15.1684C4.41982 14.775 3.78612 14.7698 3.39272 15.1569C2.99932 15.5439 2.99412 16.1776 3.38112 16.571C5.10262 18.3209 7.41862 19.4841 9.99982 19.7321Z" fill="black"/>
<path fill-rule="evenodd" clip-rule="evenodd" d="M11.0386 2.34919C7.34662 2.34919 4.34912 5.34669 4.34912 9.03869C4.34912 12.7308 7.34662 15.7283 11.0386 15.7283C14.7307 15.7283 17.7282 12.7308 17.7282 9.03869C17.7282 5.34669 14.7307 2.34919 11.0386 2.34919ZM11.0386 4.34919C13.6269 4.34919 15.7282 6.45049 15.7282 9.03869C15.7282 11.627 13.6269 13.7283 11.0386 13.7283C8.45042 13.7283 6.34912 11.627 6.34912 9.03869C6.34912 6.45049 8.45042 4.34919 11.0386 4.34919Z" fill="black"/>
</svg>
