<svg width="24" height="24" viewBox="0 0 24 24" fill="none" xmlns="http://www.w3.org/2000/svg">
<path fill-rule="evenodd" clip-rule="evenodd" d="M3.05014 18.814C3.70014 18.814 4.22014 19.337 4.22014 19.982C4.23014 20.626 3.71014 21.15 3.06014 21.15C2.42014 21.15 1.89014 20.626 1.89014 19.982C1.89014 19.337 2.41014 18.814 3.05014 18.814ZM3.07014 17.013C4.73014 17.013 6.08014 18.359 6.09014 20.018C6.09014 20.57 6.54014 21.016 7.09014 21.013C7.64014 21.01 8.09014 20.56 8.09014 20.008C8.07014 17.251 5.82014 15.013 3.07014 15.013C2.52014 15.013 2.07014 15.461 2.07014 16.013C2.07014 16.565 2.52014 17.013 3.07014 17.013ZM3.00014 8.946L3.05014 8.947L3.09014 8.943C3.28014 8.918 4.05014 8.768 4.05014 7.95C4.05014 7.16 4.36014 6.42 4.91014 5.86C5.46014 5.31 6.21014 5 6.99014 5H17.0501C18.7001 5 20.0501 6.34 20.0501 8V16C20.0501 17.657 18.7001 19 17.0501 19C15.9901 19 15.1301 19 15.1301 19C14.5801 19 14.1301 19.448 14.1301 20C14.1301 20.552 14.5801 21 15.1301 21H17.0501C19.8101 21 22.0501 18.761 22.0501 16C22.0501 13.557 22.0501 10.443 22.0501 8C22.0501 5.24 19.8101 3 17.0501 3C14.0501 3 9.97014 3 6.99014 3C5.68014 3 4.42014 3.52 3.50014 4.45C2.57014 5.38 2.05014 6.63 2.05014 7.95V8.01C2.06014 8.317 2.19014 8.524 2.35014 8.663C2.52014 8.828 2.74014 8.933 3.00014 8.946ZM3.07014 12.992C6.94014 12.992 10.0901 16.131 10.1101 19.997C10.1201 20.548 10.5701 20.994 11.1201 20.992C11.6701 20.989 12.1201 20.539 12.1101 19.987C12.0901 15.022 8.04014 10.992 3.07014 10.992C2.52014 10.992 2.07014 11.44 2.07014 11.992C2.07014 12.544 2.52014 12.992 3.07014 12.992Z" fill="black"/>
</svg>
