<svg width="24" height="24" viewBox="0 0 24 24" fill="none" xmlns="http://www.w3.org/2000/svg">
<path fill-rule="evenodd" clip-rule="evenodd" d="M20.941 19.4225L23.0223 21.5038C23.4516 21.9331 23.4516 22.6302 23.0223 23.0595C22.593 23.4888 21.896 23.4888 21.4667 23.0595L0.861037 2.45375C0.431737 2.02445 0.431737 1.32745 0.861037 0.898147C1.29034 0.468847 1.98734 0.468847 2.41664 0.898147L4.58534 3.06685C5.58194 2.37645 6.77234 1.99925 8.00164 1.99925C10.5 1.99925 13.5151 1.99925 16.0135 1.99925C17.6048 1.99925 19.1309 2.63135 20.2562 3.75665C21.3814 4.88185 22.0135 6.40795 22.0135 7.99925C22.0135 10.4942 22.0135 13.5042 22.0135 15.9992C22.0135 17.2313 21.6345 18.4244 20.941 19.4225ZM2.17104 6.58365C2.05934 7.04345 2.00154 7.51835 2.00154 7.99925C2.00154 10.4942 2.00154 13.5042 2.00154 15.9992C2.00154 17.5905 2.63374 19.1166 3.75894 20.2418C4.88414 21.3671 6.41034 21.9992 8.00164 21.9992C10.5 21.9992 13.5151 21.9992 16.0135 21.9992C16.4911 21.9992 16.9627 21.9423 17.4195 21.8321L14.15 18.5625V19.9992H9.85004V15.8492H11.4367L8.15004 12.5625V14.1492H4.00154V9.84925H5.43674L2.17104 6.58365ZM4.00154 15.8492H8.15004V19.9992H8.00164C6.94074 19.9992 5.92334 19.5778 5.17314 18.8276C4.42304 18.0775 4.00154 17.0601 4.00154 15.9992V15.8492ZM17.3677 15.8492H20.0135V15.9992C20.0135 16.6975 19.831 17.3769 19.4922 17.9737L17.3677 15.8492ZM15.85 14.1492H20.0135V9.84925H15.85V14.1492ZM11.3677 9.84925L14.15 12.6315V9.84925H11.3677ZM15.85 3.99925H16.0135C17.0744 3.99925 18.0918 4.42065 18.842 5.17085C19.5921 5.92095 20.0135 6.93835 20.0135 7.99925V8.14925H15.85V3.99925ZM9.85004 8.14925H14.15V3.99925H9.85004V8.14925ZM8.15004 6.63155L6.03474 4.51625C6.62964 4.18025 7.30634 3.99925 8.00164 3.99925H8.15004V6.63155Z" fill="black"/>
</svg>
