<svg width="24" height="24" viewBox="0 0 24 24" fill="none" xmlns="http://www.w3.org/2000/svg">
<path fill-rule="evenodd" clip-rule="evenodd" d="M2.00146 16C2.00146 17.5913 2.63366 19.1174 3.75886 20.2426C4.88406 21.3679 6.41026 22 8.00156 22C10.5 22 13.5151 22 16.0135 22C17.6048 22 19.1309 21.3679 20.2562 20.2426C21.3814 19.1174 22.0135 17.5913 22.0135 16C22.0135 13.505 22.0135 10.495 22.0135 8C22.0135 6.4087 21.3814 4.8826 20.2562 3.7574C19.1309 2.6321 17.6048 2 16.0135 2C13.5151 2 10.5 2 8.00156 2C6.41026 2 4.88406 2.6321 3.75886 3.7574C2.63366 4.8826 2.00146 6.4087 2.00146 8C2.00146 10.495 2.00146 13.505 2.00146 16ZM20.0135 15.85V16C20.0135 17.0609 19.5921 18.0783 18.842 18.8284C18.0918 19.5786 17.0744 20 16.0135 20H15.85V15.85H20.0135ZM9.84996 20H14.15V15.85H9.84996V20ZM4.00146 15.85H8.14996V20H8.00156C6.94067 20 5.92326 19.5786 5.17306 18.8284C4.42296 18.0783 4.00146 17.0609 4.00146 16V15.85ZM15.85 14.15H20.0135V9.85H15.85V14.15ZM9.84996 14.15H14.15V9.85H9.84996V14.15ZM4.00146 14.15H8.14996V9.85H4.00146V14.15ZM15.85 4H16.0135C17.0744 4 18.0918 4.4214 18.842 5.1716C19.5921 5.9217 20.0135 6.9391 20.0135 8V8.15H15.85V4ZM9.84996 8.15H14.15V4H9.84996V8.15ZM8.14996 4V8.15H4.00146V8C4.00146 6.9391 4.42296 5.9217 5.17306 5.1716C5.92326 4.4214 6.94067 4 8.00156 4H8.14996Z" fill="black"/>
</svg>
