<svg width="24" height="24" viewBox="0 0 24 24" fill="none" xmlns="http://www.w3.org/2000/svg">
<path d="M6.18359 4H19.0002C19.2654 4 19.5198 4.1054 19.7073 4.2929C19.8948 4.4804 20.0002 4.7348 20.0002 5V17.8166C20.4206 17.6791 20.8031 17.4397 21.1215 17.1213C21.6841 16.5587 22.0002 15.7956 22.0002 15V5C22.0002 4.2044 21.6841 3.4413 21.1215 2.8787C20.5589 2.3161 19.7958 2 19.0002 2C16.7402 2 11.2602 2 9.00019 2C8.20459 2 7.44149 2.3161 6.87889 2.8787C6.56039 3.1972 6.32089 3.5799 6.18359 4Z" fill="black"/>
<path fill-rule="evenodd" clip-rule="evenodd" d="M18 9C18 8.2044 17.6839 7.4413 17.1213 6.8787C16.5587 6.3161 15.7956 6 15 6H5C4.2044 6 3.4413 6.3161 2.8787 6.8787C2.3161 7.4413 2 8.2044 2 9V19C2 19.7956 2.3161 20.5587 2.8787 21.1213C3.4413 21.6839 4.2044 22 5 22H15C15.7956 22 16.5587 21.6839 17.1213 21.1213C17.6839 20.5587 18 19.7956 18 19V9ZM15.7071 8.2929C15.8946 8.4804 16 8.7348 16 9V19C16 19.2652 15.8946 19.5196 15.7071 19.7071C15.5196 19.8946 15.2652 20 15 20H5C4.7348 20 4.4804 19.8946 4.2929 19.7071C4.1054 19.5196 4 19.2652 4 19V9C4 8.7348 4.1054 8.4804 4.2929 8.2929C4.4804 8.1054 4.7348 8 5 8H15C15.2652 8 15.5196 8.1054 15.7071 8.2929Z" fill="black"/>
<path d="M14 15V11C14 10.4477 13.5523 10 13 10H9C8.4481 10 8 10.4481 8 11C8 11.5519 8.4481 12 9 12H12V15C12 15.5519 12.4481 16 13 16C13.5519 16 14 15.5519 14 15Z" fill="black"/>
</svg>
