<svg width="24" height="24" viewBox="0 0 24 24" fill="none" xmlns="http://www.w3.org/2000/svg">
<path fill-rule="evenodd" clip-rule="evenodd" d="M4.05989 18.2697C4.17989 18.7097 4.64989 20.1397 4.94989 20.9497C5.51989 22.4797 7.10989 23.2897 8.75989 22.8097C10.3499 22.3597 11.3799 20.7197 10.9299 19.0597C10.6999 18.1897 10.2599 16.7797 10.1599 16.4597C10.0999 16.0897 9.83989 14.3197 10.0299 13.2797C10.2399 12.1197 10.4699 10.9097 10.2799 9.37971C10.2799 9.36971 10.2699 9.35971 10.2699 9.34971C9.96989 7.41971 8.93989 5.67971 7.38989 4.47971C7.38989 4.47971 7.38989 4.47971 7.37989 4.46971C5.43989 2.99971 2.83989 3.98971 1.74989 8.12971C1.74989 8.15971 1.73989 8.17971 1.73989 8.19971C1.28989 10.4597 1.56989 12.5397 2.60989 14.8497C2.76989 15.1997 3.87989 17.8497 4.05989 18.2697ZM8.19989 16.8097V16.8597C8.20989 16.9097 8.21989 16.9497 8.23989 16.9997C8.23989 16.9997 8.74989 18.6297 8.99989 19.5797C9.15989 20.1697 8.76989 20.7297 8.20989 20.8897C7.61989 21.0597 7.02989 20.8097 6.82989 20.2597C6.52989 19.4397 6.02989 17.9397 5.97989 17.7197C5.95989 17.6597 5.94989 17.6097 5.92989 17.5597L5.89989 17.4897L8.19989 16.8097ZM13.3599 13.1397C13.2899 13.3397 12.7199 14.8097 12.3799 15.6597C11.7999 17.1097 12.3099 18.8497 13.9099 19.5997C15.3099 20.2597 17.1299 19.8797 17.9899 18.1797C18.4499 17.2797 18.9699 15.9897 19.0799 15.7097C19.2799 15.3397 20.4499 13.2497 21.0099 12.4597C22.3699 10.5197 23.0499 8.07971 22.7699 5.90971C22.5799 4.46971 22.0299 3.12971 21.2699 2.26971C20.3099 1.18971 19.0499 0.769714 17.6199 1.45971C17.5999 1.47971 17.5799 1.48971 17.5599 1.49971C15.8599 2.47971 14.7499 4.12971 14.2599 6.01971C13.8699 7.52971 14.1499 8.84971 14.0699 10.0497C13.9999 11.1597 13.4599 12.8397 13.3699 13.1297L13.3599 13.1397ZM15.2799 13.7097L17.3899 14.6297L17.2999 14.7997C17.2699 14.8397 17.2599 14.8797 17.2399 14.9197C17.2399 14.9197 16.6899 16.3297 16.2099 17.2797C15.8999 17.8797 15.2599 18.0197 14.7599 17.7897C14.1999 17.5197 14.0299 16.9097 14.2299 16.4097C14.6099 15.4797 15.2399 13.8397 15.2399 13.8397C15.2399 13.8297 15.2499 13.8097 15.2599 13.7897L15.2799 13.7097ZM7.99989 14.9897L5.19989 15.8197C4.85989 15.0297 4.51989 14.2197 4.43989 14.0297C3.58989 12.1597 3.33989 10.4597 3.68989 8.61971C3.97989 7.55971 4.34989 6.77971 4.80989 6.27971C5.03989 6.03971 5.26989 5.87971 5.52989 5.83971C5.73989 5.81971 5.95989 5.89971 6.16989 6.05971C7.29989 6.94971 8.05989 8.21971 8.28989 9.62971C8.44989 10.9197 8.23989 11.9497 8.05989 12.9197C7.94989 13.4997 7.95989 14.2797 7.99989 14.9897ZM18.2899 13.0597L15.7699 11.9597C15.9099 11.3597 16.0299 10.7197 16.0699 10.1797C16.1399 9.08971 15.8399 7.88971 16.1999 6.51971C16.5499 5.16971 17.3099 3.96971 18.5199 3.24971C19.0199 3.02971 19.4399 3.22971 19.7699 3.59971C20.3099 4.19971 20.6499 5.15971 20.7799 6.16971C21.0099 7.86971 20.4399 9.78971 19.3699 11.3097C19.0999 11.6997 18.6799 12.3897 18.2899 13.0597Z" fill="black"/>
</svg>
