<svg width="24" height="24" viewBox="0 0 24 24" fill="none" xmlns="http://www.w3.org/2000/svg">
<path fill-rule="evenodd" clip-rule="evenodd" d="M3.52686 18.0419C1.86826 18.0419 0.526855 19.3797 0.526855 21.0211C0.526855 22.6625 1.86826 24.0004 3.52686 24.0004C5.18546 24.0004 6.52686 22.6625 6.52686 21.0211C6.52686 19.3797 5.18546 18.0419 3.52686 18.0419ZM3.52686 20.0419C4.07596 20.0419 4.52686 20.4778 4.52686 21.0211C4.52686 21.5645 4.07596 22.0004 3.52686 22.0004C2.97786 22.0004 2.52686 21.5645 2.52686 21.0211C2.52686 20.4778 2.97786 20.0419 3.52686 20.0419ZM8.21046 2.23624C6.57786 1.95614 4.72836 2.48824 3.56156 3.73364C2.37286 5.00244 2.14226 6.66394 2.74876 8.02004C1.50066 9.00534 0.882355 10.6119 1.30806 12.1993C1.72956 13.7709 3.11236 14.9742 4.73396 15.3587C4.85676 16.7908 5.85736 18.206 7.54726 18.8986C9.22056 19.5845 11.136 19.3543 12.4599 18.5025C13.7831 19.3543 15.6984 19.5845 17.3718 18.8986C19.0616 18.206 20.0622 16.7908 20.1852 15.3583C21.8066 14.9743 23.1895 13.771 23.6109 12.1993C24.0366 10.6119 23.4183 9.00524 22.1702 8.01974C22.7767 6.66384 22.5461 5.00234 21.3574 3.73364C20.1905 2.48824 18.341 1.95614 16.7082 2.23624C15.9151 0.987836 14.3153 0.0693359 12.4595 0.0693359C10.6039 0.0693359 9.00416 0.987636 8.21046 2.23624ZM8.39176 4.35044C8.65396 4.45384 8.94756 4.44164 9.20046 4.31704C9.45326 4.19244 9.64176 3.96694 9.71946 3.69604C9.99536 2.73484 11.1569 2.06934 12.4595 2.06934C13.7621 2.06934 14.9236 2.73484 15.1995 3.69604C15.2773 3.96694 15.4658 4.19244 15.7186 4.31704C15.9714 4.44164 16.265 4.45384 16.5273 4.35044C17.6225 3.91894 19.0548 4.20114 19.8979 5.10104C20.6303 5.88274 20.6766 6.96784 20.0356 7.67374C19.818 7.91344 19.7299 8.24354 19.7991 8.55984C19.8683 8.87604 20.0862 9.13914 20.384 9.26604C21.3517 9.67824 21.949 10.6751 21.6792 11.6813C21.3911 12.7556 20.271 13.4736 19.1158 13.4886C18.8103 13.4925 18.5233 13.636 18.3368 13.878C18.1502 14.12 18.0846 14.434 18.1585 14.7305C18.3848 15.638 17.7137 16.5969 16.6132 17.048C15.3922 17.5485 13.9469 17.3221 13.1785 16.5272C12.9901 16.3322 12.7306 16.2222 12.4595 16.2222C12.1884 16.2222 11.9289 16.3322 11.7405 16.5272C10.9721 17.3221 9.52676 17.5485 8.30576 17.048C7.20526 16.5969 6.53415 15.638 6.76046 14.7305C6.83446 14.434 6.76876 14.12 6.58216 13.878C6.39566 13.636 6.10866 13.4925 5.80316 13.4886C4.64796 13.4736 3.52786 12.7556 3.23986 11.6813C2.96996 10.6751 3.56726 9.67824 4.53496 9.26604C4.83276 9.13914 5.05076 8.87604 5.11996 8.55984C5.18916 8.24354 5.10096 7.91344 4.88336 7.67374C4.24236 6.96784 4.28866 5.88274 5.02106 5.10104C5.86426 4.20114 7.29656 3.91894 8.39176 4.35044ZM7.94246 8.57154C8.74396 8.57154 9.39466 9.22944 9.39466 10.0399C9.39466 10.8503 8.74396 11.5083 7.94246 11.5083C7.14106 11.5083 6.49036 10.8503 6.49036 10.0399C6.49036 9.22944 7.14106 8.57154 7.94246 8.57154ZM12.4876 8.57154C13.2891 8.57154 13.9397 9.22944 13.9397 10.0399C13.9397 10.8503 13.2891 11.5083 12.4876 11.5083C11.6862 11.5083 11.0355 10.8503 11.0355 10.0399C11.0355 9.22944 11.6862 8.57154 12.4876 8.57154ZM17.0704 8.57154C17.8718 8.57154 18.5225 9.22944 18.5225 10.0399C18.5225 10.8503 17.8718 11.5083 17.0704 11.5083C16.269 11.5083 15.6183 10.8503 15.6183 10.0399C15.6183 9.22944 16.269 8.57154 17.0704 8.57154Z" fill="black"/>
</svg>
