<svg width="24" height="24" viewBox="0 0 24 24" fill="none" xmlns="http://www.w3.org/2000/svg">
<path d="M16.3019 13.7765C16.2959 13.2246 16.7399 12.7718 17.2919 12.766C17.8439 12.7602 18.2959 13.2035 18.3019 13.7554C18.3043 13.9817 18.2969 14.2066 18.2804 14.4296C18.2186 15.2636 18.0284 16.0703 17.74 16.8211C17.442 17.5969 17.0392 18.313 16.5649 18.9382C16.2944 19.2948 16.0007 19.6218 15.6899 19.9134C14.5939 20.9429 13.2849 21.5299 12.0269 21.5213C10.7029 21.5122 9.37188 20.9027 8.27288 19.8475C7.97103 19.5575 7.68675 19.2337 7.42534 18.881C6.95903 18.2518 6.56551 17.5307 6.27488 16.746C5.92073 15.7899 5.71935 14.7393 5.72522 13.6456C5.72553 13.588 5.72642 13.5302 5.72788 13.4724C5.74188 12.9207 6.20088 12.4841 6.75288 12.498C7.30488 12.5119 7.74088 12.9712 7.72688 13.5229C7.72621 13.55 7.72569 13.5771 7.72534 13.6042C7.70037 15.5325 8.50409 17.2958 9.65888 18.4052C10.3619 19.0805 11.1929 19.5156 12.0409 19.5214C12.8319 19.5268 13.6309 19.1031 14.3219 18.4552C15.3838 17.4585 16.1812 15.9157 16.2896 14.232C16.2993 14.0812 16.3035 13.9293 16.3019 13.7765Z" fill="black"/>
<path d="M16.3019 13.7765C16.2959 13.2246 16.7399 12.7718 17.2919 12.766C17.8439 12.7602 18.2959 13.2035 18.3019 13.7554C18.3043 13.9817 18.2969 14.2066 18.2804 14.4296C18.773 14.3653 19.1579 13.9476 19.1661 13.4363C19.1751 12.8743 18.7261 12.4106 18.1641 12.4015C15.8012 12.3633 12.8335 11.1905 11.4174 8.61748C11.4985 8.87567 11.4772 9.16542 11.335 9.42005C11.1459 9.75791 10.8338 10.2333 10.4191 10.7757C11.9294 12.6671 14.1558 13.7965 16.2896 14.232C16.2993 14.0812 16.3035 13.9293 16.3019 13.7765Z" fill="black"/>
<path d="M9.55703 8.42575C9.54154 8.45346 9.52507 8.48222 9.50765 8.512C9.38233 8.7866 9.37947 9.11398 9.52808 9.40281C9.7839 9.89847 10.0838 10.3558 10.4191 10.7757C10.8338 10.2333 11.1459 9.75791 11.335 9.42005C11.4772 9.16542 11.4985 8.87567 11.4174 8.61748C11.3904 8.5684 11.364 8.51881 11.3381 8.46871C11.0811 7.96921 10.4661 7.77301 9.96608 8.03081C9.87152 8.07965 9.78783 8.14131 9.71605 8.21258C9.6553 8.27497 9.60162 8.34622 9.55703 8.42575Z" fill="black"/>
<path d="M5.72522 13.6456C5.72553 13.588 5.72642 13.5302 5.72788 13.4724C5.74188 12.9207 6.20088 12.4841 6.75288 12.498C7.30488 12.5119 7.74088 12.9712 7.72688 13.5229C7.72621 13.55 7.72569 13.5771 7.72534 13.6042C8.83014 12.6818 9.75583 11.643 10.4191 10.7757C10.0838 10.3558 9.7839 9.89847 9.52808 9.40281C9.37947 9.11398 9.38233 8.7866 9.50765 8.512C9.0059 9.36976 7.71486 11.0629 6.01003 12.3687C5.61227 12.6737 5.50244 13.2154 5.72522 13.6456Z" fill="black"/>
<path d="M3.25898 18.4372C4.6057 18.6475 6.30573 18.8127 7.42534 18.881C6.95903 18.2518 6.56551 17.5307 6.27488 16.746C5.406 16.6665 4.43466 16.5554 3.60098 16.4262C3.23798 16.353 2.97198 16.0598 2.93498 15.7015C2.70698 11.7906 4.58498 7.81114 7.03098 5.82444C8.43298 4.68534 10.032 4.21214 11.453 5.11824C11.789 5.33224 12.219 5.33134 12.553 5.11584C14.012 4.17714 15.624 4.64134 17.038 5.78964C19.509 7.79534 21.412 11.8303 21.316 15.7504C21.296 16.1188 21.035 16.4244 20.679 16.5017C19.7645 16.6409 18.6807 16.7493 17.74 16.8211C17.442 17.5969 17.0392 18.313 16.5649 18.9382C17.704 18.8851 19.5592 18.7364 20.992 18.5179C21.003 18.5163 21.013 18.5146 21.024 18.5126C22.328 18.272 23.293 17.1642 23.354 15.8397C23.354 15.833 23.355 15.8262 23.355 15.8194C23.473 11.243 21.209 6.54774 18.324 4.20594C16.34 2.59594 14.078 2.05524 11.997 3.08924C9.95998 2.10104 7.71198 2.64304 5.74498 4.24134C2.86998 6.57654 0.625983 11.2414 0.898983 15.8273C0.898983 15.8348 0.899983 15.8423 0.899983 15.8497C1.00598 17.1368 1.95898 18.1944 3.22798 18.432C3.23798 18.4339 3.24798 18.4356 3.25898 18.4372Z" fill="black"/>
</svg>
