<svg width="16" height="16" viewBox="0 0 16 16" fill="none" xmlns="http://www.w3.org/2000/svg">
<rect width="14.9712" height="13.2154" transform="translate(0.736328 0.898438)" fill="#FF0000"/>
<circle cx="8.00846" cy="7.22575" r="6.32731" stroke="white" stroke-width="1.6"/>
<path d="M3.68945 2.39844C4.64391 4.73155 8.07994 9.39776 14.1884 9.39776" stroke="white" stroke-width="1.6"/>
<path d="M3.21973 3.09766C3.29917 5.56918 4.90956 11.0798 10.7156 13.3502" stroke="white" stroke-width="1.6"/>
<path d="M8.28809 0.898438C8.46976 2.68345 9.91229 6.5914 14.229 7.94312" stroke="white" stroke-width="1.6"/>
<path d="M6.31543 13.2969C8.48164 14.0835 12.4373 14.5465 14.8962 13.5223" stroke="white" stroke-width="1.6" stroke-linecap="round"/>
<path d="M8.0083 0.101562C11.9446 0.101562 15.1361 3.29228 15.1362 7.22852C15.1362 9.80233 13.7709 12.0568 11.7261 13.3096C12.8009 13.2785 13.8013 13.1159 14.5884 12.7881C14.9961 12.6183 15.4642 12.8113 15.6343 13.2188C15.8042 13.6266 15.6115 14.0957 15.2036 14.2656C13.8161 14.8435 12.0754 14.9807 10.4526 14.8916C8.97077 14.8102 7.50939 14.5328 6.37939 14.166C3.22845 13.429 0.881348 10.6041 0.881348 7.22852C0.881436 3.29234 4.07212 0.101651 8.0083 0.101562ZM4.3501 5.11426C4.99041 7.47351 6.6602 10.5727 10.2515 12.2793C11.2791 11.8222 12.1414 11.0625 12.7241 10.1113C8.72509 9.63657 5.95839 7.27334 4.3501 5.11426ZM7.61377 1.7168C6.54465 1.79225 5.55991 2.17094 4.74463 2.76855C5.88244 4.92594 8.73347 8.21505 13.3716 8.56641C13.3774 8.54312 13.3817 8.51949 13.3872 8.49609C9.62335 7.04657 8.05895 3.76611 7.61377 1.7168ZM9.29541 1.85254C9.75498 3.43515 10.9737 5.65024 13.519 6.81641C13.3402 4.3913 11.598 2.40171 9.29541 1.85254ZM2.48096 7.22852C2.48096 9.7023 4.10628 11.7967 6.34717 12.502C6.42756 12.5052 6.50872 12.5209 6.58838 12.5498C6.65936 12.5756 6.73367 12.598 6.80908 12.623C7.14911 12.6983 7.50045 12.7425 7.86084 12.752C4.86715 10.7095 3.39398 7.75783 2.78174 5.42871C2.58746 5.99297 2.48098 6.59829 2.48096 7.22852Z" fill="black"/>
</svg>
