<svg width="24" height="24" viewBox="0 0 24 24" fill="none" xmlns="http://www.w3.org/2000/svg">
<path fill-rule="evenodd" clip-rule="evenodd" d="M13.518 3.5272C13.1073 2.5275 12.0572 1.9536 11.0084 2.0458C10.088 2.1267 9.11062 2.708 8.67162 4.1001C8.24862 5.4416 7.83702 6.8848 7.16212 9.0392C7.13752 8.9731 7.11282 8.9065 7.08852 8.84C6.58922 7.4769 5.50612 6.4015 3.74632 6.7372C2.16852 7.0381 1.50512 8.5633 1.79622 10.069C1.97622 10.9996 2.39102 12.602 3.11172 14.7331C3.99392 17.3418 5.51522 19.9297 8.54872 21.1805C11.2511 22.2947 14.9191 21.7889 16.918 19.7807C18.5816 18.1093 20.7026 14.9227 22.2971 12.3926C23.3795 10.6751 22.301 8.9376 20.8358 8.5425C20.9586 8.3393 21.0804 8.1341 21.2007 7.9285C22.4131 5.856 20.4309 3.8916 18.6246 4.2886C18.7729 2.7488 17.3906 1.4813 15.9632 1.5495C15.2631 1.583 14.5389 1.9105 14.0012 2.7099C13.8747 2.898 13.7078 3.1831 13.518 3.5272ZM20.6051 11.3263C19.0874 13.7345 17.084 16.7789 15.5005 18.3698C14.025 19.8522 11.3059 20.154 9.31112 19.3315C6.87222 18.3258 5.71562 16.1898 5.00632 14.0924C4.32572 12.08 3.92982 10.5681 3.75982 9.6892C3.68052 9.2792 3.69132 8.7837 4.12102 8.7018C4.73042 8.5855 5.03762 9.0559 5.21052 9.5279C5.58232 10.543 6.03352 11.605 6.31572 12.3712C6.46282 12.7705 6.84652 13.033 7.27202 13.0254C7.69752 13.0178 8.07162 12.7417 8.20432 12.3373C9.44192 8.56501 9.99982 6.5383 10.579 4.7015C10.681 4.3783 10.8335 4.1596 11.0407 4.0733C11.369 3.9364 11.7584 4.2073 11.6834 4.631C11.4052 6.2035 10.9844 8.6443 10.9844 8.6443C10.8996 9.1364 11.1908 9.6157 11.6667 9.7671C12.1426 9.9185 12.6572 9.6956 12.8723 9.245C12.8723 9.245 14.9421 4.8946 15.6608 3.8261C15.7754 3.6557 15.9094 3.5544 16.0586 3.5472C16.3999 3.5309 16.7464 3.8684 16.5943 4.2502C15.8494 6.1204 14.3575 9.188 14.3575 9.188C14.1286 9.6589 14.3017 10.2266 14.7543 10.4897C15.207 10.7528 15.786 10.6222 16.0819 10.1903C16.0819 10.1903 17.2187 8.5309 18.814 6.4381C19.1279 6.0263 19.7379 6.4682 19.4744 6.9187C18.1918 9.1113 16.7206 11.2539 16.7206 11.2539C16.4177 11.6951 16.5158 12.2965 16.9432 12.6186C17.3706 12.9406 17.9757 12.8691 18.3163 12.4563C18.3163 12.4563 19.4484 11.0815 19.8761 10.644C20.2989 10.2114 20.9375 10.7988 20.6051 11.3263Z" fill="black"/>
</svg>
