<svg width="24" height="24" viewBox="0 0 24 24" fill="none" xmlns="http://www.w3.org/2000/svg">
<path fill-rule="evenodd" clip-rule="evenodd" d="M7.67853 6.91715H4.79793C4.42393 6.91715 4.11913 7.20255 4.07623 7.57415C4.01563 8.09995 4.03593 7.85545 3.99593 8.30775C3.97793 8.51095 4.04433 8.71265 4.18163 8.86355C4.31903 9.01435 4.51353 9.10045 4.71753 9.10045H7.46953L6.94023 14.6289H3.93673C3.56273 14.6289 3.25793 14.9143 3.21503 15.2859C3.15443 15.8117 3.17473 15.5672 3.13473 16.0195C3.11673 16.2227 3.18313 16.4244 3.32043 16.5753C3.45783 16.7261 3.65233 16.8122 3.85633 16.8122H6.73123L6.40613 20.208C6.38653 20.4114 6.45383 20.6135 6.59123 20.7645C6.72853 20.9157 6.92333 21.002 7.12763 21.002H7.83963C8.21313 21.002 8.52553 20.718 8.56103 20.3462L8.89943 16.8122H13.6803L13.3552 20.208C13.3356 20.4114 13.4029 20.6135 13.5403 20.7645C13.6776 20.9157 13.8724 21.002 14.0767 21.002H14.7887C15.1622 21.002 15.4746 20.718 15.5102 20.3462L15.8485 16.8122H19.1645C19.5387 16.812 19.8512 16.5275 19.8861 16.1551C19.9235 15.7571 19.9271 15.8415 19.9665 15.4214C19.9856 15.2183 19.9182 15.0166 19.7808 14.8656C19.6434 14.7149 19.4488 14.6289 19.2449 14.6289H16.0575L16.5869 9.10045H20.0257C20.3999 9.10025 20.7124 8.81575 20.7473 8.44335C20.7847 8.04535 20.7883 8.12975 20.8277 7.70965C20.8468 7.50655 20.7794 7.30485 20.642 7.15385C20.5046 7.00315 20.31 6.91715 20.1061 6.91715H16.7959L17.0947 3.79585C17.1141 3.59255 17.0469 3.39045 16.9096 3.23925C16.7722 3.08815 16.5775 3.00195 16.3733 3.00195H15.6611C15.2877 3.00195 14.9753 3.28595 14.9396 3.65775L14.6276 6.91715H9.84683L10.1456 3.79585C10.165 3.59255 10.0978 3.39045 9.96053 3.23925C9.82313 3.08815 9.62843 3.00195 9.42413 3.00195H8.71203C8.33863 3.00195 8.02623 3.28595 7.99053 3.65775L7.67853 6.91715ZM14.4186 9.10045H9.63773L9.10843 14.6289H13.8893L14.4186 9.10045Z" fill="black"/>
</svg>
