<svg width="24" height="24" viewBox="0 0 24 24" fill="none" xmlns="http://www.w3.org/2000/svg">
<path fill-rule="evenodd" clip-rule="evenodd" d="M2.00146 16C2.00146 17.5913 2.63366 19.1174 3.75886 20.2426C4.88406 21.3679 6.41026 22 8.00156 22C10.5 22 13.5151 22 16.0135 22C17.6048 22 19.1309 21.3679 20.2562 20.2426C21.3814 19.1174 22.0135 17.5913 22.0135 16C22.0135 13.505 22.0135 10.495 22.0135 8C22.0135 6.4087 21.3814 4.8826 20.2562 3.7574C19.1309 2.6321 17.6048 2 16.0135 2C13.5151 2 10.5 2 8.00156 2C6.41026 2 4.88406 2.6321 3.75886 3.7574C2.63366 4.8826 2.00146 6.4087 2.00146 8C2.00146 10.495 2.00146 13.505 2.00146 16ZM4.00146 16C4.00146 13.505 4.00146 10.495 4.00146 8C4.00146 6.9391 4.42296 5.9217 5.17306 5.1716C5.92326 4.4214 6.94067 4 8.00156 4C10.5 4 13.5151 4 16.0135 4C17.0744 4 18.0918 4.4214 18.842 5.1716C19.5921 5.9217 20.0135 6.9391 20.0135 8C20.0135 10.495 20.0135 13.505 20.0135 16C20.0135 17.0609 19.5921 18.0783 18.842 18.8284C18.0918 19.5786 17.0744 20 16.0135 20C13.5151 20 10.5 20 8.00156 20C6.94067 20 5.92326 19.5786 5.17306 18.8284C4.42296 18.0783 4.00146 17.0609 4.00146 16ZM8.86476 8.3007H6.96297C6.70196 8.3007 6.48376 8.4992 6.45946 8.7591C6.43336 9.0367 6.39996 9.3926 6.37246 9.6857C6.35916 9.8274 6.40626 9.9682 6.50206 10.0735C6.59786 10.1787 6.73366 10.2388 6.87596 10.2388H8.67927L8.34026 13.7797H6.39636C6.13536 13.7797 5.91716 13.9784 5.89276 14.2382C5.86666 14.5159 5.83336 14.8717 5.80586 15.1649C5.79256 15.3066 5.83956 15.4474 5.93536 15.5527C6.03126 15.6579 6.16707 15.7178 6.30946 15.7178H8.15466L7.96437 17.7062C7.95066 17.8481 7.99766 17.9891 8.09346 18.0945C8.18926 18.2 8.32526 18.2601 8.46776 18.2601H9.38976C9.65036 18.2601 9.86836 18.062 9.89316 17.8026L10.0928 15.7178H13.0253L12.8349 17.7062C12.8213 17.8481 12.8683 17.9891 12.9641 18.0945C13.06 18.2 13.1959 18.2601 13.3384 18.2601H14.2604C14.5211 18.2601 14.7389 18.062 14.7638 17.8026L14.9634 15.7178H16.9908C17.2519 15.7178 17.47 15.5193 17.4944 15.2594C17.5205 14.9818 17.5538 14.6259 17.5814 14.3328C17.5947 14.191 17.5477 14.0503 17.4518 13.945C17.356 13.8397 17.2202 13.7797 17.0778 13.7797H15.149L15.488 10.2388H17.5575C17.8186 10.2387 18.0366 10.0401 18.061 9.7803C18.0871 9.5026 18.1205 9.1468 18.148 8.8537C18.1613 8.712 18.1143 8.5712 18.0184 8.4659C17.9225 8.3607 17.7868 8.3007 17.6445 8.3007H15.6736L15.8695 6.2544C15.883 6.1125 15.8361 5.9715 15.7402 5.866C15.6444 5.7606 15.5085 5.7004 15.366 5.7004H14.444C14.1833 5.7004 13.9655 5.8986 13.9406 6.158L13.7354 8.3007H10.8029L10.9988 6.2544C11.0124 6.1125 10.9655 5.9715 10.8697 5.866C10.7738 5.7606 10.6379 5.7004 10.4954 5.7004H9.57327C9.31277 5.7004 9.09476 5.8986 9.06986 6.158L8.86476 8.3007ZM10.6174 10.2388L10.2783 13.7797H13.2108L13.5499 10.2388H10.6174Z" fill="black"/>
</svg>
