<svg width="24" height="24" viewBox="0 0 24 24" fill="none" xmlns="http://www.w3.org/2000/svg">
<path fill-rule="evenodd" clip-rule="evenodd" d="M2.04123 14.412C2.03323 14.53 2.03723 14.648 2.04923 14.767C2.17123 15.942 2.34023 17.574 2.46223 18.749C2.53123 19.408 2.85823 20.013 3.37223 20.431C3.88623 20.848 4.54623 21.045 5.20523 20.976C5.20523 20.976 5.20723 20.976 5.20923 20.976C5.86823 20.907 6.47223 20.58 6.89023 20.066C7.30823 19.551 7.50423 18.892 7.43523 18.233C7.31423 17.058 7.14423 15.426 7.02223 14.251C6.95423 13.592 6.62723 12.987 6.11223 12.569C5.59823 12.152 4.93923 11.955 4.28023 12.024H4.27623C4.18623 12.034 4.09723 12.048 4.00923 12.068C4.32423 7.682 6.91523 4 12.0472 4C17.0572 4 19.6912 7.685 20.0592 12.06L19.8252 12.024C19.8232 12.024 19.8212 12.024 19.8212 12.024C19.1622 11.955 18.5032 12.152 17.9882 12.569C17.4742 12.987 17.1472 13.592 17.0782 14.251C16.9562 15.426 16.7872 17.058 16.6652 18.233C16.5972 18.892 16.7932 19.551 17.2112 20.066C17.6282 20.58 18.2332 20.907 18.8922 20.976H18.8962C19.5552 21.045 20.2142 20.848 20.7292 20.431C21.2432 20.013 21.5702 19.408 21.6392 18.749L22.0522 14.767C22.0662 14.625 22.0692 14.483 22.0572 14.343C22.5572 7.926 19.1662 2 12.0472 2C4.73623 2 1.45223 7.956 2.04123 14.412ZM20.0502 14.395C20.0342 14.321 20.0012 14.254 19.9542 14.195C19.8702 14.092 19.7502 14.027 19.6182 14.014C19.6182 14.014 19.6162 14.013 19.6142 14.013C19.4832 14 19.3522 14.039 19.2492 14.122C19.1472 14.205 19.0812 14.326 19.0682 14.457L18.6552 18.44C18.6412 18.571 18.6802 18.702 18.7632 18.805C18.8472 18.908 18.9672 18.973 19.0982 18.986C19.1002 18.987 19.1022 18.987 19.1022 18.987C19.2342 19 19.3652 18.961 19.4682 18.878C19.5702 18.795 19.6362 18.674 19.6492 18.543L20.0582 14.598L20.0532 14.566C20.0512 14.533 20.0492 14.499 20.0472 14.466L20.0502 14.395ZM4.03923 14.571L4.45223 18.543C4.46523 18.674 4.53023 18.795 4.63323 18.878C4.73523 18.961 4.86723 19 4.99823 18.987C5.00023 18.987 5.00223 18.986 5.00223 18.986C5.13423 18.973 5.25423 18.908 5.33723 18.805C5.42123 18.702 5.46023 18.571 5.44623 18.44L5.03323 14.457C5.01923 14.326 4.95423 14.205 4.85223 14.122C4.74923 14.039 4.61823 14 4.48623 14.013C4.48623 14.013 4.48423 14.013 4.48223 14.014C4.35123 14.027 4.23023 14.092 4.14723 14.195C4.09323 14.261 4.05823 14.34 4.04523 14.424C4.04723 14.474 4.04523 14.523 4.03923 14.571Z" fill="black"/>
</svg>
