<svg width="16" height="16" viewBox="0 0 16 16" fill="none" xmlns="http://www.w3.org/2000/svg">
<path fill-rule="evenodd" clip-rule="evenodd" d="M1.21818 9.75022L1.22418 9.86422C1.30618 10.6472 1.41818 11.7332 1.49918 12.5162C1.54918 12.9912 1.78518 13.4272 2.15518 13.7282C2.52618 14.0292 3.00118 14.1702 3.47618 14.1212L3.78318 14.0892C4.25718 14.0402 4.69318 13.8042 4.99418 13.4332C5.29518 13.0632 5.43618 12.5882 5.38718 12.1132C5.30618 11.3302 5.19318 10.2432 5.11218 9.46022C5.06318 8.98622 4.82718 8.55022 4.45618 8.24922C4.08618 7.94822 3.61118 7.80622 3.13618 7.85622L2.82918 7.88822L2.79618 7.89322C3.05318 5.10922 4.73218 2.79922 8.00918 2.79922C11.2092 2.79922 12.9122 5.11222 13.2022 7.89022L13.1952 7.88922C13.0822 7.87722 12.9662 7.86522 12.8532 7.85322C12.3782 7.80422 11.9032 7.94522 11.5332 8.24622C11.1622 8.54722 10.9262 8.98322 10.8772 9.45822C10.7962 10.2412 10.6832 11.3272 10.6022 12.1102C10.5522 12.5852 10.6942 13.0602 10.9952 13.4312C11.2962 13.8012 11.7322 14.0372 12.2062 14.0872C12.3202 14.0982 12.4352 14.1102 12.5492 14.1222C13.0242 14.1712 13.4992 14.0302 13.8692 13.7292C14.2402 13.4282 14.4762 12.9922 14.5252 12.5172L14.8002 9.86522C14.8072 9.79822 14.8102 9.73122 14.8092 9.66422C15.1872 5.27122 12.8762 1.19922 8.00918 1.19922C3.00918 1.19922 0.774184 5.29322 1.21318 9.71322L1.21818 9.75022ZM13.2092 9.70022L12.9332 12.3522C12.9282 12.4052 12.9022 12.4542 12.8612 12.4872C12.8192 12.5202 12.7672 12.5362 12.7142 12.5312L12.3712 12.4952C12.3192 12.4902 12.2702 12.4632 12.2372 12.4222C12.2032 12.3812 12.1882 12.3282 12.1932 12.2762L12.4682 9.62322C12.4742 9.57022 12.5002 9.52222 12.5412 9.48822C12.5822 9.45522 12.6352 9.43922 12.6882 9.44522L13.0302 9.48022C13.0832 9.48622 13.1312 9.51222 13.1652 9.55322C13.1982 9.59422 13.2142 9.64722 13.2092 9.70022ZM3.09118 12.3512L2.81618 9.69922C2.81018 9.64622 2.82618 9.59322 2.85918 9.55222C2.89318 9.51122 2.94118 9.48422 2.99418 9.47922L3.30118 9.44722C3.35418 9.44222 3.40718 9.45722 3.44818 9.49122C3.48918 9.52422 3.51518 9.57322 3.52118 9.62522L3.79618 12.2782C3.80118 12.3312 3.78618 12.3832 3.75218 12.4252C3.71918 12.4662 3.67018 12.4922 3.61718 12.4972L3.31018 12.5292C3.25818 12.5352 3.20518 12.5192 3.16418 12.4862C3.12318 12.4522 3.09618 12.4042 3.09118 12.3512Z" fill="black"/>
</svg>
