<svg width="12" height="12" viewBox="0 0 12 12" fill="none" xmlns="http://www.w3.org/2000/svg">
<path d="M0.720938 7.08478L0.721938 7.10178C0.723938 7.11978 0.725938 7.13778 0.726938 7.15578C0.727938 7.16578 0.729938 7.17578 0.730938 7.18578L0.991938 9.70278C1.06094 10.3638 1.65194 10.8448 2.31394 10.7758L2.90994 10.7138C3.57094 10.6458 4.05194 10.0538 3.98294 9.39278C3.91394 8.72178 3.78394 7.46778 3.71394 6.79678C3.64494 6.13578 3.05394 5.65478 2.39194 5.72378L2.31894 5.73078C2.52194 3.77178 3.70894 2.15078 6.02294 2.15078C8.28294 2.15078 9.48594 3.77278 9.71294 5.72978L9.65794 5.72378C8.99694 5.65478 8.40494 6.13578 8.33594 6.79678C8.26694 7.46778 8.13694 8.72178 8.06694 9.39278C7.99794 10.0538 8.47894 10.6458 9.13994 10.7138L9.73694 10.7758C10.3979 10.8448 10.9899 10.3638 11.0579 9.70278C11.1279 9.03178 11.2579 7.77778 11.3279 7.10678C11.3319 7.06278 11.3339 7.01778 11.3339 6.97378C11.5659 3.61578 9.75294 0.550781 6.02294 0.550781C2.16494 0.550781 0.410938 3.67678 0.720938 7.08478Z" fill="black"/>
</svg>
