<svg width="16" height="16" viewBox="0 0 16 16" fill="none" xmlns="http://www.w3.org/2000/svg">
<path d="M11.9334 12.9994L10.4223 11.4883C10.1101 11.1761 10.1101 10.6691 10.4223 10.3569C10.7345 10.0447 11.2414 10.0447 11.5536 10.3569L13.0647 11.868L14.5758 10.3569C14.888 10.0447 15.395 10.0447 15.7072 10.3569C16.0194 10.6691 16.0194 11.1761 15.7072 11.4883L14.1961 12.9994L15.7072 14.5105C16.0194 14.8227 16.0194 15.3296 15.7072 15.6419C15.395 15.9541 14.888 15.9541 14.5758 15.6419L13.0647 14.1308L11.5536 15.6419C11.2414 15.9541 10.7345 15.9541 10.4223 15.6419C10.1101 15.3296 10.1101 14.8227 10.4223 14.5105L11.9334 12.9994Z" fill="black"/>
<path d="M8.60875 14.219C7.99795 14.3895 7.32545 14.2921 6.78265 13.9266L6.77725 13.923C4.67715 12.4842 2.78085 10.7199 1.70925 9.31844C-0.804047 6.03434 1.34425 2.13704 4.09065 1.75074C5.90115 1.49434 7.15275 2.22684 8.00125 3.24114C8.85395 2.22704 10.1141 1.49444 11.9236 1.75084C14.4134 2.10294 16.4214 5.37554 14.8487 8.44024C14.8443 8.44074 14.84 8.44124 14.8356 8.44174H12.9463C12.9713 8.40984 12.9958 8.37804 13.0199 8.34644C14.6627 6.19994 13.4836 3.58734 11.6994 3.33504C10.1331 3.11304 9.22685 4.07884 8.70475 5.05014C8.56525 5.30954 8.29455 5.47134 8.00005 5.47134C7.70555 5.47134 7.43485 5.30954 7.29545 5.05014C6.77365 4.07954 5.87945 3.11324 4.31415 3.33504C2.51895 3.58734 1.33725 6.19964 2.98015 8.34634C3.97185 9.64354 5.73415 11.2684 7.67795 12.6005C7.87765 12.734 8.14115 12.7362 8.34065 12.6042C8.42335 12.5486 8.50565 12.4925 8.58735 12.436L8.60875 14.219Z" fill="black"/>
</svg>
