<svg width="16" height="16" viewBox="0 0 16 16" fill="none" xmlns="http://www.w3.org/2000/svg">
<g clip-path="url(#clip0_29461_190)">
<path d="M12.1971 13.8002H10.799C10.3575 13.8002 9.99899 13.4417 9.99899 13.0002C9.99899 12.5586 10.3575 12.2002 10.799 12.2002H12.1971V10.8041C12.1971 10.3625 12.5556 10.0041 12.9971 10.0041C13.4386 10.0041 13.7971 10.3625 13.7971 10.8041V12.2002H15.199C15.6405 12.2002 15.999 12.5586 15.999 13.0002C15.999 13.4417 15.6405 13.8002 15.199 13.8002H13.7971V15.2041C13.7971 15.6456 13.4386 16.0041 12.9971 16.0041C12.5556 16.0041 12.1971 15.6456 12.1971 15.2041V13.8002Z" fill="black"/>
<path d="M8.62449 14.2143C8.00939 14.3912 7.32979 14.2953 6.78209 13.9266L6.77669 13.9229C4.67659 12.4842 2.78029 10.7199 1.70879 9.31844C-0.804512 6.03424 1.34369 2.13704 4.09009 1.75074C5.90059 1.49434 7.15219 2.22684 8.00079 3.24114C8.85339 2.22704 10.1135 1.49434 11.9231 1.75074C14.5284 2.11924 16.6061 5.68564 14.6057 8.86524C14.1868 8.51454 13.6515 8.29834 13.0666 8.28354C14.639 6.14914 13.4656 3.58484 11.6988 3.33494C10.1326 3.11304 9.22629 4.07884 8.70419 5.05014C8.56469 5.30954 8.29399 5.47134 7.99949 5.47134C7.70499 5.47134 7.43429 5.30954 7.29489 5.05014C6.77309 4.07944 5.87889 3.11324 4.31359 3.33504C2.51839 3.58734 1.33669 6.19964 2.97959 8.34624C3.97129 9.64354 5.73359 11.2684 7.67739 12.6005C7.87669 12.7337 8.13949 12.7362 8.33889 12.605C8.31869 12.7327 8.30819 12.8637 8.30819 12.997C8.30819 13.4388 8.42309 13.854 8.62449 14.2143Z" fill="black"/>
</g>
<defs>
<clipPath id="clip0_29461_190">
<rect width="16" height="16" fill="white"/>
</clipPath>
</defs>
</svg>
