<svg width="16" height="16" viewBox="0 0 16 16" fill="none" xmlns="http://www.w3.org/2000/svg">
<path fill-rule="evenodd" clip-rule="evenodd" d="M4.6261 9.84056C3.1601 8.78056 1.9691 7.68056 1.2331 6.71056C-0.707898 4.17056 0.984102 1.17056 3.1041 0.870565C4.3991 0.680565 5.3281 1.15056 5.9811 1.84056C6.6341 1.15056 7.5621 0.680565 8.8571 0.870565C10.5671 1.11056 11.9991 3.11056 11.4671 5.21056C11.8801 5.09056 12.3481 5.06056 12.8781 5.13056C14.9981 5.43056 16.6911 8.44056 14.7491 10.9806C13.9561 12.0206 12.5931 13.3306 10.9991 14.4006C10.9971 14.4006 10.9961 14.4006 10.9941 14.4006C10.3911 14.8006 9.6101 14.7906 9.0101 14.3906C9.0101 14.3906 9.0071 14.3906 9.0051 14.3906C7.4441 13.3206 6.0461 12.0206 5.2551 10.9806C4.9701 10.6106 4.7631 10.2306 4.6261 9.84056ZM10.1141 13.0606C10.0511 13.1006 9.9691 13.1006 9.9051 13.0606C8.5001 12.1106 7.2371 10.9406 6.5261 10.0106C5.8591 9.14056 5.8901 8.16056 6.3031 7.48056C6.5471 7.08056 6.9191 6.78056 7.3501 6.72056C8.3751 6.57056 8.9561 7.22056 9.2971 7.85056C9.4371 8.11056 9.7081 8.27056 10.0021 8.27056C10.2961 8.27056 10.5671 8.11056 10.7061 7.85056C11.0481 7.22056 11.6291 6.57056 12.6541 6.72056C13.0851 6.78056 13.4571 7.08056 13.7011 7.48056C14.1141 8.16056 14.1451 9.14056 13.4781 10.0106C12.7671 10.9406 11.5421 12.1106 10.1141 13.0606ZM9.5071 5.67056C10.1221 4.82056 10.0811 3.88056 9.6801 3.21056C9.4361 2.81056 9.0631 2.51056 8.6331 2.45056C7.6071 2.31056 7.0261 2.95056 6.6861 3.59056C6.5471 3.85056 6.2761 4.01056 5.9811 4.01056C5.6851 4.01056 5.4141 3.85056 5.2751 3.59056C4.9351 2.95056 4.3541 2.31056 3.3281 2.45056C2.8981 2.51056 2.5251 2.81056 2.2811 3.21056C1.8691 3.89056 1.8381 4.87056 2.5051 5.74056C2.9801 6.37056 3.6671 7.04056 4.5051 7.73056C4.8321 6.37056 5.9081 5.30056 7.1261 5.13056C8.1231 4.99056 8.9041 5.24056 9.5071 5.67056Z" fill="black"/>
</svg>
