<svg width="24" height="24" viewBox="0 0 24 24" fill="none" xmlns="http://www.w3.org/2000/svg">
<path fill-rule="evenodd" clip-rule="evenodd" d="M13.3353 18.8007C12.6233 19.3339 11.8743 19.865 11.0943 20.3883C10.9493 20.4849 10.7273 20.5549 10.5413 20.5549C10.3563 20.5549 10.1243 20.4849 9.9803 20.3883C6.4543 18.0246 3.5683 15.5028 1.9123 13.3354C-1.4997 8.86707 1.4073 3.56117 5.1333 3.03467C7.6553 2.67827 9.3813 3.73157 10.5373 5.16207C11.6923 3.73157 13.4183 2.67827 15.9403 3.03467C18.9733 3.46327 21.4633 7.05857 20.4443 10.7919C22.8493 11.1416 24.7613 14.4851 22.5563 17.3153C21.5793 18.5687 19.8803 20.0311 17.8003 21.3979C17.6583 21.4917 17.4323 21.5595 17.2493 21.5595C17.0663 21.5595 16.8443 21.4917 16.7023 21.3979C15.4033 20.5447 14.2533 19.6543 13.3353 18.8007ZM17.2513 19.3564C15.6353 18.2447 14.3113 17.0968 13.5243 16.0862C12.4233 14.6734 13.1503 12.9366 14.3523 12.7701C15.4183 12.6225 16.0203 13.2805 16.3733 13.9279C16.5483 14.2491 16.8853 14.449 17.2513 14.449C17.6173 14.449 17.9543 14.2491 18.1293 13.9279C18.4823 13.2805 19.0853 12.6225 20.1503 12.7701C21.3523 12.9366 22.0793 14.6734 20.9783 16.0862C20.1913 17.0968 18.8673 18.2447 17.2513 19.3564ZM18.1923 11.1096C19.5193 8.30967 17.9253 5.33497 15.6603 5.01497C13.4343 4.70037 12.1563 6.06877 11.4183 7.44897C11.2443 7.77427 10.9053 7.97737 10.5373 7.97737C10.1683 7.97737 9.8293 7.77427 9.6553 7.44897C8.9173 6.06877 7.6393 4.70037 5.4133 5.01497C2.8723 5.37397 1.1753 9.07467 3.5023 12.1215C4.9683 14.0417 7.4773 16.2423 10.5373 18.3486C11.0263 18.0119 11.5013 17.6727 11.9603 17.3326L11.9463 17.3153C9.7353 14.4774 11.6633 11.1235 14.0783 10.789C15.4903 10.5934 16.5173 11.0668 17.2513 11.786C17.5233 11.5197 17.8353 11.287 18.1923 11.1096Z" fill="black"/>
</svg>
