<svg width="24" height="24" viewBox="0 0 24 24" fill="none" xmlns="http://www.w3.org/2000/svg">
<path d="M18.4268 19.9931H16.4351C15.8832 19.9931 15.4351 19.5451 15.4351 18.9931C15.4351 18.4412 15.8832 17.9931 16.4351 17.9931H18.4268V15.9735C18.4268 15.4216 18.8749 14.9735 19.4268 14.9735C19.9787 14.9735 20.4268 15.4216 20.4268 15.9735V17.9931H22.4351C22.987 17.9931 23.4351 18.4412 23.4351 18.9931C23.4351 19.5451 22.987 19.9931 22.4351 19.9931H20.4268V21.9735C20.4268 22.5254 19.9787 22.9735 19.4268 22.9735C18.8749 22.9735 18.4268 22.5254 18.4268 21.9735V19.9931Z" fill="black"/>
<path d="M13.4634 20.31C13.1659 20.518 12.8633 20.7252 12.556 20.9312C12.2191 21.1569 11.7792 21.1569 11.4423 20.9312C7.80927 18.4958 4.83537 15.8977 3.12987 13.6644C-0.372426 9.07845 2.60637 3.63155 6.43067 3.09115C9.03477 2.72315 10.8123 3.82045 11.9992 5.30185C13.186 3.82045 14.9636 2.72315 17.5676 3.09115C21.2731 3.61475 24.1848 8.74475 21.1762 13.2347C20.671 12.9112 20.0706 12.7235 19.4268 12.7235C19.2985 12.7235 19.1719 12.731 19.0475 12.7455C19.1272 12.6465 19.2044 12.5482 19.2789 12.4505C21.6955 9.28615 19.9266 5.44435 17.2877 5.07145C14.9771 4.74495 13.6496 6.16175 12.8798 7.59265C12.7054 7.91675 12.3672 8.11895 11.9992 8.11895C11.6311 8.11895 11.2929 7.91675 11.1185 7.59265C10.3487 6.16175 9.02117 4.74495 6.71057 5.07145C4.07167 5.44435 2.30277 9.28615 4.71937 12.4505C6.23607 14.4365 8.83257 16.7132 11.9993 18.8917C12.4684 18.569 12.9249 18.2441 13.3674 17.9183C13.2493 18.2548 13.1851 18.6165 13.1851 18.9931C13.1851 19.4618 13.2845 19.9074 13.4634 20.31Z" fill="black"/>
<path d="M16.07 15.7635C16.1109 15.7279 16.1516 15.6923 16.192 15.6568C16.189 15.6886 16.1863 15.7206 16.1842 15.7527C16.1459 15.7556 16.1078 15.7592 16.07 15.7635Z" fill="black"/>
</svg>
