<svg width="24" height="24" viewBox="0 0 24 24" fill="none" xmlns="http://www.w3.org/2000/svg">
<path d="M18.5618 19.9986L16.2691 17.7059C15.8788 17.3156 15.8788 16.6819 16.2691 16.2917C16.6593 15.9014 17.293 15.9014 17.6833 16.2917L19.976 18.5844L22.2687 16.2917C22.6589 15.9014 23.2926 15.9014 23.6829 16.2917C24.0731 16.6819 24.0731 17.3156 23.6829 17.7059L21.3902 19.9986L23.6829 22.2913C24.0731 22.6815 24.0731 23.3152 23.6829 23.7055C23.2926 24.0957 22.6589 24.0957 22.2687 23.7055L19.976 21.4128L17.6833 23.7055C17.293 24.0957 16.6593 24.0957 16.2691 23.7055C15.8788 23.3152 15.8788 22.6815 16.2691 22.2913L18.5618 19.9986Z" fill="black"/>
<path d="M14.9595 19.2248C14.1985 19.7978 13.3948 20.3689 12.556 20.9312C12.2191 21.1569 11.7792 21.1569 11.4423 20.9312C7.80927 18.4958 4.83537 15.8977 3.12987 13.6644C-0.372426 9.07845 2.60637 3.63155 6.43067 3.09115C9.03477 2.72315 10.8123 3.82045 11.9992 5.30185C13.186 3.82045 14.9636 2.72315 17.5676 3.09115C21.3919 3.63155 24.3707 9.07845 20.8684 13.6644C20.4736 14.1814 20.0108 14.718 19.4876 15.2675L19.0975 14.8774C18.7288 14.5088 18.2877 14.2562 17.8198 14.1197C18.3786 13.5471 18.8683 12.9882 19.2789 12.4505C21.6955 9.28615 19.9266 5.44435 17.2877 5.07145C14.9771 4.74495 13.6496 6.16175 12.8798 7.59265C12.7054 7.91675 12.3672 8.11895 11.9992 8.11895C11.6311 8.11895 11.2929 7.91675 11.1185 7.59265C10.3487 6.16175 9.02117 4.74495 6.71057 5.07145C4.07167 5.44435 2.30277 9.28615 4.71937 12.4505C6.23607 14.4365 8.83257 16.7132 11.9993 18.8917C12.6988 18.4105 13.3705 17.9244 14.0088 17.4378C14.0993 18.0536 14.3813 18.6466 14.8548 19.1201L14.9595 19.2248Z" fill="black"/>
</svg>
