<svg width="12" height="12" viewBox="0 0 12 12" fill="none" xmlns="http://www.w3.org/2000/svg">
<path fill-rule="evenodd" clip-rule="evenodd" d="M5.58754 9.00459C6.30134 9.00459 6.88094 9.58959 6.88094 10.3106C6.88094 11.0316 6.30134 11.6166 5.58754 11.6166C4.87364 11.6166 4.29404 11.0316 4.29404 10.3106C4.29404 9.58959 4.87364 9.00459 5.58754 9.00459ZM5.99714 0.683594C4.88014 0.683594 3.48884 1.28659 2.86634 1.96959C2.19104 2.70959 2.97714 4.23259 3.98914 3.47959C4.50224 3.09859 5.14794 2.67759 6.03464 2.67359C6.61674 2.67159 7.02244 3.16259 7.02244 3.63459C7.02244 4.13659 5.71264 5.42659 4.79714 6.30159C3.90534 7.15359 5.11384 8.58359 6.18334 7.63559C7.84294 6.16459 9.04094 4.75559 9.04094 3.42859C9.04094 1.89359 7.77234 0.683594 5.99714 0.683594Z" fill="black"/>
</svg>
