<svg width="24" height="24" viewBox="0 0 24 24" fill="none" xmlns="http://www.w3.org/2000/svg">
<path fill-rule="evenodd" clip-rule="evenodd" d="M12.0005 2C17.5192 2 22 6.48 22 12C22 17.519 17.5192 22 12.0005 22C6.48084 22 2 17.519 2 12C2 6.48 6.48084 2 12.0005 2ZM11.9714 14.523C12.7759 14.523 13.429 15.181 13.429 15.991C13.429 16.802 12.7759 17.46 11.9714 17.46C11.168 17.46 10.5149 16.802 10.5149 15.991C10.5149 15.181 11.168 14.523 11.9714 14.523ZM12.0947 6.49C10.8806 6.49 9.72553 7.05 9.06738 7.65C8.26298 8.38 9.00828 10.075 10.1673 9.345C10.6131 9.064 11.1721 8.657 12.1358 8.653C12.7679 8.65 13.2086 9.184 13.2086 9.696C13.2086 10.24 11.8803 11.13 11.161 11.805C10.1853 12.722 11.5087 14.285 12.6677 13.253C13.8678 12.184 15.4025 10.912 15.4025 9.472C15.4025 7.81 14.0241 6.49 12.0947 6.49Z" fill="black"/>
</svg>
