<svg width="12" height="12" viewBox="0 0 12 12" fill="none" xmlns="http://www.w3.org/2000/svg">
<path fill-rule="evenodd" clip-rule="evenodd" d="M6 1C3.24017 1 1 3.24064 1 6C1 8.75936 3.24017 11 6 11C8.75983 11 11 8.75936 11 6C11 3.24064 8.75983 1 6 1ZM5.99999 2.38098C7.99801 2.38098 9.62068 4.0019 9.62068 6C9.62068 7.99724 7.99801 9.61902 5.99999 9.61902C4.00198 9.61902 2.3793 7.99724 2.3793 6C2.3793 4.0019 4.00198 2.38098 5.99999 2.38098ZM5.93081 7.43234C6.3349 7.43234 6.66286 7.77024 6.66286 8.18648C6.66286 8.60271 6.3349 8.94061 5.93081 8.94061C5.52671 8.94061 5.19876 8.60271 5.19876 8.18648C5.19876 7.77024 5.52671 7.43234 5.93081 7.43234ZM6.04912 3.24407C5.44598 3.24407 4.87223 3.52542 4.54562 3.82926C4.33722 4.02341 4.31852 4.33951 4.42806 4.57113C4.50287 4.73122 4.63712 4.84976 4.80611 4.86815C4.9103 4.88041 5.02919 4.85452 5.1561 4.77277C5.36316 4.63925 5.62165 4.44442 6.06849 4.44237C6.33366 4.44169 6.51867 4.66855 6.51867 4.88722C6.51867 4.91992 6.50464 4.95535 6.4826 4.9935C6.44186 5.06503 6.37373 5.14269 6.29158 5.22376C6.0745 5.43971 5.76124 5.67678 5.55352 5.8757C5.18015 6.23403 5.4226 6.76881 5.81868 6.85941C5.98567 6.89824 6.18204 6.85941 6.36906 6.68842C6.71972 6.37028 7.12782 6.01399 7.399 5.62637C7.58669 5.35796 7.70892 5.07456 7.70892 4.77754C7.70892 3.92259 7.01895 3.24407 6.04912 3.24407Z" fill="black"/>
</svg>
