<svg width="16" height="16" viewBox="0 0 16 16" fill="none" xmlns="http://www.w3.org/2000/svg">
<path fill-rule="evenodd" clip-rule="evenodd" d="M7.99508 1.32812C4.31614 1.32812 1.33008 4.31418 1.33008 7.99312C1.33008 11.6721 4.31614 14.6581 7.99508 14.6581C11.674 14.6581 14.6601 11.6721 14.6601 7.99312C14.6601 4.31418 11.674 1.32812 7.99508 1.32812ZM7.99509 2.78875C10.8679 2.78875 13.1995 5.12026 13.1995 7.99312C13.1995 10.866 10.8679 13.1975 7.99509 13.1975C5.12223 13.1975 2.79071 10.866 2.79071 7.99312C2.79071 5.12026 5.12223 2.78875 7.99509 2.78875ZM7.99781 9.88372C8.55011 9.88372 8.99834 10.3365 8.99834 10.8943C8.99834 11.4521 8.55011 11.9049 7.99781 11.9049C7.44551 11.9049 6.99728 11.4521 6.99728 10.8943C6.99728 10.3365 7.44551 9.88372 7.99781 9.88372ZM8.07724 4.27128C7.2529 4.27128 6.46873 4.6483 6.02233 5.05545C5.73751 5.31562 5.71195 5.7392 5.86166 6.04958C5.9639 6.26411 6.14739 6.42296 6.37835 6.4476C6.52077 6.46404 6.68326 6.42935 6.85671 6.3198C7.1397 6.14087 7.49299 5.87979 8.10371 5.87705C8.46613 5.87614 8.719 6.18013 8.719 6.47316C8.719 6.51698 8.69983 6.56445 8.6697 6.61557C8.61402 6.71143 8.5209 6.8155 8.40862 6.92413C8.11193 7.21352 7.68378 7.5312 7.39988 7.79777C6.88957 8.27794 7.22095 8.99456 7.76229 9.11598C7.99052 9.16801 8.2589 9.11598 8.51451 8.88684C8.99378 8.46052 9.55155 7.98308 9.92219 7.46365C10.1787 7.10397 10.3458 6.72421 10.3458 6.32619C10.3458 5.18051 9.40275 4.27128 8.07724 4.27128Z" fill="black"/>
</svg>
