<svg width="16" height="16" viewBox="0 0 16 16" fill="none" xmlns="http://www.w3.org/2000/svg">
<path fill-rule="evenodd" clip-rule="evenodd" d="M7.99508 1.32812C11.6736 1.32812 14.6601 4.31465 14.6601 7.99312C14.6601 11.6716 11.6736 14.6581 7.99508 14.6581C4.31661 14.6581 1.33008 11.6716 1.33008 7.99312C1.33008 4.31465 4.31661 1.32812 7.99508 1.32812ZM7.99784 9.81359C8.52961 9.81359 8.96162 10.2493 8.96162 10.7865C8.96162 11.3229 8.52961 11.7585 7.99784 11.7585C7.46607 11.7585 7.03497 11.3229 7.03497 10.7865C7.03497 10.2493 7.46607 9.81359 7.99784 9.81359ZM8.0738 4.49862C7.30498 4.49862 6.57276 4.85008 6.1554 5.23084C5.64559 5.69579 6.11787 6.77124 6.85192 6.30811C7.13474 6.12963 7.48895 5.87152 8.09943 5.86878C8.50032 5.86695 8.77948 6.2056 8.77948 6.53052C8.77948 6.87558 7.93834 7.4403 7.48254 7.86956C6.86382 8.45167 7.7022 9.44291 8.43717 8.78849C9.19684 8.11028 10.1698 7.30209 10.1698 6.38774C10.1698 5.33152 9.29569 4.49862 8.0738 4.49862Z" fill="black"/>
</svg>
