<svg width="24" height="24" viewBox="0 0 24 24" fill="none" xmlns="http://www.w3.org/2000/svg">
<path fill-rule="evenodd" clip-rule="evenodd" d="M12.0005 2C6.48191 2 2 6.48 2 12C2 17.52 6.48191 22 12.0005 22C17.5181 22 22 17.52 22 12C22 6.48 17.5181 2 12.0005 2ZM12.0005 4C16.4132 4 19.9929 7.59 19.9929 12C19.9929 16.414 16.4132 20 12.0005 20C7.58784 20 4.00713 16.414 4.00713 12C4.00713 7.59 7.58784 4 12.0005 4ZM11.9895 14.523C12.7953 14.523 13.4496 15.181 13.4496 15.991C13.4496 16.802 12.7953 17.46 11.9895 17.46C11.1846 17.46 10.5303 16.802 10.5303 15.991C10.5303 15.181 11.1846 14.523 11.9895 14.523ZM12.1129 6.49C10.8966 6.49 9.73949 7.05 9.08015 7.65C8.27429 8.38 9.02094 10.075 10.1821 9.345C10.6286 9.064 11.1886 8.657 12.1541 8.653C12.7873 8.65 13.2289 9.184 13.2289 9.696C13.2289 10.24 11.8982 11.13 11.1776 11.805C10.2001 12.722 11.5258 14.285 12.687 13.253C13.8892 12.184 15.4267 10.912 15.4267 9.472C15.4267 7.81 14.0458 6.49 12.1129 6.49Z" fill="black"/>
</svg>
