<svg width="16" height="16" viewBox="0 0 16 16" fill="none" xmlns="http://www.w3.org/2000/svg">
<path fill-rule="evenodd" clip-rule="evenodd" d="M2.2365 7.64412L1.36254 6.76813C1.05102 6.45613 0.545144 6.45613 0.233633 6.76813C-0.0778777 7.08012 -0.0778777 7.58713 0.233633 7.89913L2.47936 10.1501C2.79107 10.4621 3.29656 10.4621 3.60827 10.1501L5.8545 7.89913C6.16581 7.58713 6.16581 7.08012 5.8545 6.76813C5.54219 6.45613 5.03631 6.45613 4.725 6.76813L3.83606 7.65912C4.01147 4.95012 6.25561 2.80313 8.99555 2.80313C11.8512 2.80313 14.1681 5.13413 14.1681 8.00413C14.1681 10.7931 11.9799 13.0731 9.23601 13.1991C8.79599 13.2191 8.45474 13.5941 8.4757 14.0351C8.49565 14.4761 8.86883 14.8181 9.30885 14.7971C12.8989 14.6321 15.7646 11.6521 15.7646 8.00413C15.7646 4.25013 12.7313 1.20312 8.99555 1.20312C5.38054 1.20312 2.42309 4.05713 2.2365 7.64412ZM8.21527 4.89612V7.97912C8.21527 8.19212 8.30009 8.39612 8.45075 8.54612L9.97239 10.0641C10.2847 10.3751 10.7906 10.3741 11.1019 10.0611C11.4122 9.74813 11.4112 9.24113 11.0989 8.93012L9.81174 7.64712V4.89612C9.81174 4.45412 9.45453 4.09612 9.01351 4.09612C8.57348 4.09612 8.21527 4.45412 8.21527 4.89612Z" fill="black"/>
</svg>
