<svg width="16" height="16" viewBox="0 0 16 16" fill="none" xmlns="http://www.w3.org/2000/svg">
<path fill-rule="evenodd" clip-rule="evenodd" d="M2.24175 7.63922L1.36575 6.76922C1.05375 6.45922 0.54675 6.45922 0.23475 6.76922C-0.07825 7.07922 -0.07825 7.58922 0.23475 7.89922L2.48475 10.1492C2.79775 10.4592 3.30375 10.4592 3.61675 10.1492L5.86775 7.89922C6.17975 7.58922 6.17975 7.07922 5.86775 6.76922C5.55475 6.45922 5.04775 6.45922 4.73575 6.76922L3.84475 7.65922C4.02075 4.94922 6.26975 2.79922 9.01575 2.79922C11.8778 2.79922 14.1997 5.13922 14.1997 7.99922C14.1997 10.7892 12.0068 13.0692 9.25675 13.1992C8.81575 13.2192 8.47375 13.5892 8.49475 14.0392C8.51475 14.4792 8.88875 14.8192 9.32975 14.7992C12.9277 14.6292 15.7998 11.6492 15.7998 7.99922C15.7998 4.24922 12.7598 1.19922 9.01575 1.19922C5.39275 1.19922 2.42875 4.05922 2.24175 7.63922ZM8.92811 5.25922C8.67611 5.06922 8.34011 5.03922 8.06011 5.18922C7.78011 5.32922 7.60411 5.60922 7.60511 5.92922C7.61011 7.19922 7.61711 8.94922 7.62211 10.2192C7.62311 10.5292 7.79911 10.8092 8.07711 10.9492C8.35511 11.0892 8.6881 11.0692 8.93911 10.8792C9.84711 10.2192 11.0321 9.34922 11.8351 8.75922C12.0471 8.59922 12.1731 8.35922 12.1741 8.08922C12.1751 7.82922 12.0511 7.57922 11.8401 7.42922C11.0351 6.82922 9.84311 5.93922 8.92811 5.25922Z" fill="black"/>
</svg>
