<svg width="24" height="24" viewBox="0 0 24 24" fill="none" xmlns="http://www.w3.org/2000/svg">
<path fill-rule="evenodd" clip-rule="evenodd" d="M3.03882 11.9898L1.75682 10.7098C1.36582 10.3198 0.732816 10.3198 0.341816 10.7098C-0.0481836 11.0998 -0.0481836 11.7298 0.341816 12.1198L3.30782 15.0898C3.69782 15.4798 4.33082 15.4798 4.72182 15.0898L7.68682 12.1198C8.07782 11.7298 8.07782 11.0998 7.68682 10.7098C7.29682 10.3198 6.66282 10.3198 6.27282 10.7098L5.03882 11.9398C5.07582 7.55977 8.64882 4.00977 13.0428 4.00977C17.4598 4.00977 21.0468 7.58977 21.0468 12.0098C21.0468 16.2998 17.6598 19.7998 13.4148 19.9898C12.8638 20.0198 12.4358 20.4898 12.4618 21.0398C12.4868 21.5898 12.9548 22.0198 13.5058 21.9898C18.8128 21.7498 23.0468 17.3698 23.0468 12.0098C23.0468 6.48977 18.5648 2.00977 13.0428 2.00977C7.52782 2.00977 3.04982 6.47976 3.03882 11.9898ZM12.5528 8.26977C12.2558 8.04977 11.8608 8.01977 11.5308 8.18977C11.2008 8.34977 10.9928 8.68977 10.9948 9.05977C11.0008 10.7798 11.0108 13.2698 11.0178 14.9698C11.0188 15.3398 11.2258 15.6698 11.5538 15.8398C11.8808 16.0098 12.2738 15.9698 12.5698 15.7598C13.7968 14.8598 15.4798 13.6198 16.5608 12.8298C16.8108 12.6498 16.9588 12.3598 16.9598 12.0498C16.9608 11.7398 16.8148 11.4398 16.5668 11.2598C15.4838 10.4498 13.7898 9.18977 12.5528 8.26977Z" fill="black"/>
</svg>
