<svg width="24" height="24" viewBox="0 0 24 24" fill="none" xmlns="http://www.w3.org/2000/svg">
<path fill-rule="evenodd" clip-rule="evenodd" d="M3.04724 11.9959L1.73824 10.6869C1.34824 10.2969 0.714238 10.2969 0.324238 10.6869C-0.0657617 11.0779 -0.0657617 11.7109 0.324238 12.1019L3.30824 15.0849C3.69824 15.4759 4.33124 15.4759 4.72224 15.0849L7.70624 12.1019C8.09624 11.7109 8.09624 11.0779 7.70624 10.6869C7.31524 10.2969 6.68224 10.2969 6.29124 10.6869L5.04824 11.9309C5.08924 7.54986 8.65724 4.00586 13.0472 4.00586C17.4622 4.00586 21.0472 7.59186 21.0472 12.0069C21.0472 16.2989 17.6622 19.8059 13.4192 19.9999C12.8672 20.0249 12.4402 20.4929 12.4652 21.0449C12.4902 21.5959 12.9592 22.0229 13.5102 21.9979C18.8142 21.7549 23.0472 17.3719 23.0472 12.0069C23.0472 6.48786 18.5662 2.00586 13.0472 2.00586C7.53224 2.00586 3.05324 6.48086 3.04724 11.9959ZM11.9782 7.34486V11.9699C11.9782 12.2489 12.0892 12.5169 12.2872 12.7139L14.5752 14.9909C14.9852 15.3999 15.6512 15.3979 16.0602 14.9879C16.4682 14.5769 16.4672 13.9119 16.0562 13.5029L14.0782 11.5339V7.34486C14.0782 6.76586 13.6072 6.29486 13.0282 6.29486C12.4482 6.29486 11.9782 6.76586 11.9782 7.34486Z" fill="black"/>
</svg>
