<svg width="24" height="24" viewBox="0 0 24 24" fill="none" xmlns="http://www.w3.org/2000/svg">
<g clip-path="url(#clip0_29579_353)">
<path d="M19.7638 4.21718C20.1438 4.60718 20.1438 5.23721 19.7638 5.62721C19.3738 6.01721 18.7339 6.01721 18.3439 5.62721C14.8339 2.11722 9.13371 2.11722 5.61372 5.62721C2.10374 9.1372 2.10374 14.8472 5.61372 18.3571C9.13371 21.8671 14.8339 21.8671 18.3439 18.3571C18.7339 17.9671 19.3738 17.9671 19.7638 18.3571C20.1438 18.7471 20.1438 19.3772 19.7638 19.7672C15.4638 24.0672 8.4938 24.0672 4.20381 19.7672C-0.0861673 15.4772 -0.0861673 8.50716 4.20381 4.21718C8.4938 -0.0828092 15.4638 -0.0828092 19.7638 4.21718Z" fill="black"/>
<path fill-rule="evenodd" clip-rule="evenodd" d="M13.0839 17.1872C12.4239 17.6272 11.5437 17.6172 10.8837 17.1772C10.8737 17.1772 10.8737 17.1672 10.8737 17.1672C9.29372 16.0872 7.87391 14.7571 7.06391 13.7071C5.01392 11.0271 6.8139 7.86725 9.05389 7.55726C10.3539 7.36726 11.3038 7.80718 11.9838 8.47717C12.6638 7.80718 13.6237 7.37726 14.9137 7.55726C17.1437 7.86725 18.9437 11.0271 16.8937 13.7071C16.0937 14.7571 14.7039 16.0972 13.0939 17.1772L13.0839 17.1872ZM12.0239 15.5871C13.4438 14.6371 14.6637 13.4772 15.3737 12.5472C16.0137 11.7172 15.9839 10.7972 15.6039 10.1472C15.3739 9.78721 15.0437 9.50714 14.6437 9.44714C13.6837 9.30714 13.1439 9.92721 12.8239 10.5172C12.6539 10.8272 12.3338 11.0172 11.9838 11.0172C11.6238 11.0172 11.3037 10.8272 11.1437 10.5172C10.8237 9.92721 10.2839 9.30714 9.32391 9.44714C8.92391 9.50714 8.58371 9.78722 8.36371 10.1572C7.97371 10.7972 7.95393 11.7172 8.58392 12.5472C9.29392 13.4772 10.5538 14.6372 11.9538 15.5971C11.9738 15.6071 12.0039 15.6071 12.0239 15.5871Z" fill="black"/>
</g>
<defs>
<clipPath id="clip0_29579_353">
<rect width="24" height="24" fill="white"/>
</clipPath>
</defs>
</svg>
