<svg width="16" height="16" viewBox="0 0 16 16" fill="none" xmlns="http://www.w3.org/2000/svg">
<path d="M13.4661 2.47922C13.7853 2.78922 13.7853 3.2991 13.4661 3.6091C13.1568 3.9191 12.6581 3.9191 12.3389 3.6091C9.93463 1.1891 6.02394 1.1891 3.6097 3.6091C1.19545 6.02909 1.19545 9.9491 3.6097 12.3691C6.02394 14.7891 9.93463 14.7891 12.3389 12.3691C12.6581 12.0591 13.1568 12.0591 13.4661 12.3691C13.7853 12.6791 13.7853 13.1892 13.4661 13.4992C10.4333 16.5392 5.51503 16.5392 2.48226 13.4992C-0.560492 10.4592 -0.560492 5.51921 2.48226 2.47922C5.51503 -0.56078 10.4333 -0.56078 13.4661 2.47922Z" fill="black"/>
<path fill-rule="evenodd" clip-rule="evenodd" d="M8.7873 11.7692C8.30844 12.0792 7.66988 12.0792 7.20099 11.7592H7.19101C6.09362 10.9992 5.09608 10.0691 4.52743 9.32906C3.08088 7.42906 4.36773 5.1892 5.94398 4.9692C6.85181 4.8392 7.51029 5.12908 7.98915 5.58908C8.46801 5.12908 9.13647 4.8392 10.0343 4.9692C11.6106 5.1892 12.8974 7.42906 11.4409 9.32906C10.8822 10.0691 9.91461 10.9992 8.7873 11.7592V11.7692ZM7.99914 10.5791C8.97681 9.91906 9.82487 9.1092 10.3237 8.4692C10.7427 7.9092 10.7326 7.27908 10.4732 6.84908C10.3236 6.59908 10.1042 6.40911 9.83485 6.37911C9.19637 6.27911 8.82727 6.69908 8.6078 7.09908C8.48808 7.32908 8.24854 7.47921 7.98915 7.47921C7.72977 7.47921 7.49046 7.32908 7.36077 7.09908C7.15127 6.69908 6.79191 6.27911 6.14345 6.37911C5.88407 6.40911 5.65473 6.59908 5.50508 6.84908C5.2457 7.27908 5.23563 7.9092 5.65463 8.4692C6.15344 9.1092 7.02147 9.91906 7.99914 10.5791Z" fill="black"/>
</svg>
