<svg width="24" height="24" viewBox="0 0 24 24" fill="none" xmlns="http://www.w3.org/2000/svg">
<path fill-rule="evenodd" clip-rule="evenodd" d="M2.12109 19.0021V11.4897C2.12109 10.0313 2.76229 8.64578 3.87649 7.69908C5.37849 6.42288 7.77269 4.38868 9.46139 2.95388C10.9651 1.67638 13.181 1.68568 14.6738 2.97588C16.3334 4.41038 18.6758 6.43498 20.1466 7.70618C21.2415 8.65268 21.87 10.0256 21.87 11.4692V19.0021C21.87 20.0595 21.4484 21.0738 20.6975 21.8215C19.9481 22.5677 18.9318 22.9873 17.8721 22.9873H6.11899C5.05909 22.9873 4.04289 22.5677 3.29349 21.8215C2.54259 21.0738 2.12109 20.0595 2.12109 19.0021ZM15.9988 20.9915H17.8721C18.4035 20.9915 18.9134 20.7815 19.2892 20.4073C19.6635 20.0346 19.8742 19.5292 19.8742 19.0021V11.4692C19.8742 10.6047 19.4972 9.78288 18.8415 9.21608C17.3707 7.94488 15.0283 5.92028 13.3687 4.48588C12.6198 3.83858 11.5081 3.83388 10.7537 4.47488C9.06499 5.90968 6.67079 7.94388 5.16879 9.21998C4.50159 9.78698 4.11689 10.6163 4.11689 11.4897V19.0021C4.11689 19.5292 4.32749 20.0346 4.70179 20.4073C5.07759 20.7815 5.58739 20.9915 6.11899 20.9915H7.98929V14.9853C7.98929 14.4549 8.20009 13.946 8.57509 13.571C8.95019 13.1961 9.45879 12.9853 9.98929 12.9853H13.9988C14.5291 12.9853 15.0377 13.196 15.4129 13.571C15.7879 13.946 15.9988 14.4549 15.9988 14.9853V20.9915ZM9.98929 20.9915H13.9988V14.9853H9.98929V20.9915Z" fill="black"/>
</svg>
