<svg width="16" height="16" viewBox="0 0 16 16" fill="none" xmlns="http://www.w3.org/2000/svg">
<path fill-rule="evenodd" clip-rule="evenodd" d="M1.2168 11.9443V7.27133C1.2168 6.30323 1.6419 5.38403 2.3794 4.75703L6.2329 1.48113C7.2854 0.586428 8.8332 0.592928 9.878 1.49663L13.6545 4.76233C14.3793 5.38923 14.7959 6.30023 14.7959 7.25853V11.9443C14.7959 12.8195 14.4482 13.6588 13.8293 14.2777C13.2104 14.8966 12.3711 15.2443 11.4959 15.2443H4.5168C3.6416 15.2443 2.8022 14.8966 2.1834 14.2777C1.5645 13.6588 1.2168 12.8195 1.2168 11.9443ZM10.8344 13.6443H11.4959C11.9467 13.6443 12.3791 13.4652 12.698 13.1463C13.0168 12.8275 13.1959 12.3951 13.1959 11.9443V7.25843C13.1959 6.76483 12.9813 6.29553 12.6079 5.97263L8.8314 2.70683C8.3836 2.31953 7.7203 2.31673 7.2693 2.70023L3.4157 5.97603C3.0358 6.29903 2.8168 6.77263 2.8168 7.27133V11.9443C2.8168 12.3951 2.9959 12.8275 3.3147 13.1463C3.6335 13.4652 4.0659 13.6443 4.5168 13.6443H5.1839V9.97083C5.1839 9.49343 5.3736 9.03563 5.7111 8.69803C6.0487 8.36043 6.5066 8.17083 6.9839 8.17083H9.0344C9.5118 8.17083 9.9696 8.36043 10.3072 8.69803C10.6448 9.03563 10.8344 9.49343 10.8344 9.97083V13.6443ZM6.7839 13.6443H9.2344V9.97083C9.2344 9.91783 9.2134 9.86693 9.1758 9.82943C9.1383 9.79193 9.0875 9.77083 9.0344 9.77083H6.9839C6.9309 9.77083 6.88 9.79193 6.8425 9.82943C6.805 9.86693 6.7839 9.91783 6.7839 9.97083V13.6443Z" fill="black"/>
</svg>
