<svg width="16" height="16" viewBox="0 0 16 16" fill="none" xmlns="http://www.w3.org/2000/svg">
<path fill-rule="evenodd" clip-rule="evenodd" d="M9.14361 0.931567L8.00011 2.05068L6.85662 0.931567C7.15761 0.624022 7.56979 0.450684 8.00011 0.450684C8.43043 0.450684 8.84262 0.624022 9.14361 0.931567ZM9.07964 3.23619C8.4595 2.52008 8.00011 2.05068 8.00011 2.05068C9.14361 0.931567 9.14342 0.931383 9.14361 0.931567L9.14915 0.937246L9.16092 0.949358L9.20238 0.992301C9.23771 1.02905 9.2881 1.08181 9.35142 1.14901C9.47797 1.28331 9.65663 1.47576 9.87011 1.71354C10.2955 2.18737 10.8667 2.84952 11.4417 3.5959C12.0122 4.33633 12.6122 5.19258 13.0766 6.05191C13.5157 6.86426 13.9485 7.88338 13.9485 8.89529C13.9485 12.1805 11.2853 14.8437 8.00011 14.8437C4.71492 14.8437 2.05176 12.1805 2.05176 8.89529C2.05176 7.88338 2.48456 6.86426 2.92362 6.05191C3.38807 5.19258 3.98801 4.33633 4.55849 3.5959C5.13355 2.84952 5.70471 2.18737 6.13011 1.71354C6.34359 1.47576 6.52225 1.28331 6.6488 1.14901C6.71212 1.08181 6.76252 1.02905 6.79784 0.992301L6.8393 0.949358L6.85107 0.937246L6.85662 0.931567C6.8568 0.931383 6.85662 0.931567 8.00011 2.05068C8.00011 2.05068 7.54073 2.52008 6.92059 3.23619C5.63279 4.72328 3.65176 7.27433 3.65176 8.89529C3.65176 11.2968 5.59858 13.2437 8.00011 13.2437C10.4016 13.2437 12.3485 11.2968 12.3485 8.89529C12.3485 7.27433 10.3674 4.72328 9.07964 3.23619Z" fill="black"/>
</svg>
