<svg width="24" height="24" viewBox="0 0 24 24" fill="none" xmlns="http://www.w3.org/2000/svg">
<path fill-rule="evenodd" clip-rule="evenodd" d="M12 2C6.48047 2 2 6.4812 2 12C2 17.5188 6.48047 22 12 22C17.5195 22 22 17.5188 22 12C22 6.4812 17.5195 2 12 2ZM10.9861 12V16H10.8654C10.68 16 10.5021 16.0738 10.371 16.205C10.24 16.3363 10.1663 16.5144 10.1663 16.7C10.1663 16.8944 10.1663 17.1056 10.1663 17.3C10.1663 17.4856 10.24 17.6637 10.371 17.795C10.5021 17.9262 10.68 18 10.8654 18C11.5139 18 12.474 18 13.1225 18C13.3079 18 13.4857 17.9262 13.6168 17.795C13.7479 17.6637 13.8216 17.4856 13.8216 17.3C13.8216 17.1056 13.8216 16.8944 13.8216 16.7C13.8216 16.5144 13.7479 16.3363 13.6168 16.205C13.4857 16.0738 13.3079 16 13.1225 16H12.9835V12H13.1225C13.3079 12 13.4857 11.9262 13.6168 11.795C13.7479 11.6637 13.8216 11.4856 13.8216 11.3C13.8216 11.1056 13.8216 10.8944 13.8216 10.7C13.8216 10.5144 13.7479 10.3363 13.6168 10.205C13.4857 10.0738 13.3079 10 13.1225 10C12.474 10 11.5139 10 10.8654 10C10.68 10 10.5021 10.0738 10.371 10.205C10.24 10.3363 10.1663 10.5144 10.1663 10.7C10.1663 10.8944 10.1663 11.1056 10.1663 11.3C10.1663 11.4856 10.24 11.6637 10.371 11.795C10.5021 11.9262 10.68 12 10.8654 12H10.9861ZM12.0073 6.0184C12.823 6.0184 13.4853 6.6815 13.4853 7.4983C13.4853 8.3151 12.823 8.9782 12.0073 8.9782C11.1916 8.9782 10.5293 8.3151 10.5293 7.4983C10.5293 6.6815 11.1916 6.0184 12.0073 6.0184Z" fill="black"/>
</svg>
