<svg width="24" height="24" viewBox="0 0 24 24" fill="none" xmlns="http://www.w3.org/2000/svg">
<path fill-rule="evenodd" clip-rule="evenodd" d="M12 2C6.48117 2 2 6.48 2 12C2 17.519 6.48117 22 12 22C17.5198 22 22 17.519 22 12C22 6.48 17.5198 2 12 2ZM12 4C16.4163 4 20.0026 7.58 20.0026 12C20.0026 16.416 16.4163 20 12 20C7.58374 20 3.9974 16.416 3.9974 12C3.9974 7.58 7.58374 4 12 4ZM10.9863 12V16H10.8655C10.6807 16 10.5029 16.074 10.3711 16.205C10.2403 16.336 10.1664 16.514 10.1664 16.7C10.1664 16.894 10.1664 17.106 10.1664 17.3C10.1664 17.486 10.2403 17.664 10.3711 17.795C10.5029 17.926 10.6807 18 10.8655 18C11.5146 18 12.4744 18 13.1225 18C13.3083 18 13.4861 17.926 13.6169 17.795C13.7487 17.664 13.8216 17.486 13.8216 17.3C13.8216 17.106 13.8216 16.894 13.8216 16.7C13.8216 16.514 13.7487 16.336 13.6169 16.205C13.4861 16.074 13.3083 16 13.1225 16H12.9837V12H13.1225C13.3083 12 13.4861 11.926 13.6169 11.795C13.7487 11.664 13.8216 11.486 13.8216 11.3C13.8216 11.106 13.8216 10.894 13.8216 10.7C13.8216 10.514 13.7487 10.336 13.6169 10.205C13.4861 10.074 13.3083 10 13.1225 10C12.4744 10 11.5146 10 10.8655 10C10.6807 10 10.5029 10.074 10.3711 10.205C10.2403 10.336 10.1664 10.514 10.1664 10.7C10.1664 10.894 10.1664 11.106 10.1664 11.3C10.1664 11.486 10.2403 11.664 10.3711 11.795C10.5029 11.926 10.6807 12 10.8655 12H10.9863ZM12.008 6.02C12.8229 6.02 13.4861 6.68 13.4861 7.5C13.4861 8.315 12.8229 8.978 12.008 8.978C11.1921 8.978 10.5299 8.315 10.5299 7.5C10.5299 6.68 11.1921 6.02 12.008 6.02Z" fill="black"/>
</svg>
