<svg width="16" height="16" viewBox="0 0 16 16" fill="none" xmlns="http://www.w3.org/2000/svg">
<path fill-rule="evenodd" clip-rule="evenodd" d="M7.99508 1.32812C4.31604 1.32812 1.33008 4.31453 1.33008 7.99312C1.33008 11.6717 4.31604 14.6581 7.99508 14.6581C11.6732 14.6581 14.6601 11.6717 14.6601 7.99312C14.6601 4.31453 11.6732 1.32812 7.99508 1.32812ZM7.99509 2.79115C10.8669 2.79115 13.1991 5.12193 13.1991 7.99312C13.1991 10.8643 10.8669 13.1951 7.99509 13.1951C5.12326 13.1951 2.79111 10.8643 2.79111 7.99312C2.79111 5.12193 5.12326 2.79115 7.99509 2.79115ZM7.17417 8.70909V10.2818H7.02259C6.75321 10.2818 6.53406 10.5004 6.53406 10.771C6.53406 10.9878 6.53406 11.2429 6.53406 11.4596C6.53406 11.7302 6.75321 11.9488 7.02259 11.9488C7.55769 11.9488 8.40964 11.9488 8.94474 11.9488C9.21503 11.9488 9.43327 11.7302 9.43327 11.4596C9.43327 11.2429 9.43327 10.9878 9.43327 10.771C9.43327 10.5004 9.21503 10.2818 8.94474 10.2818H8.78129V8.70909H8.94474C9.07441 8.70909 9.1986 8.65789 9.28991 8.56645C9.38214 8.4741 9.43327 8.34974 9.43327 8.21989C9.43327 7.99221 9.43327 7.72155 9.43327 7.49295C9.43327 7.36402 9.38214 7.23875 9.28991 7.14731C9.1986 7.05587 9.07441 7.00375 8.94474 7.00375C8.40964 7.00375 7.55769 7.00375 7.02259 7.00375C6.89292 7.00375 6.76873 7.05587 6.67742 7.14731C6.58519 7.23875 6.53406 7.36402 6.53406 7.49295C6.53406 7.72155 6.53406 7.99221 6.53406 8.21989C6.53406 8.34974 6.58519 8.4741 6.67742 8.56645C6.76873 8.65789 6.89292 8.70909 7.02259 8.70909H7.17417ZM7.99234 3.83722C8.64706 3.83722 9.1785 4.36939 9.1785 5.02501C9.1785 5.68063 8.64706 6.21281 7.99234 6.21281C7.33762 6.21281 6.80708 5.68063 6.80708 5.02501C6.80708 4.36939 7.33762 3.83722 7.99234 3.83722Z" fill="black"/>
</svg>
