<svg width="12" height="12" viewBox="0 0 12 12" fill="none" xmlns="http://www.w3.org/2000/svg">
<path fill-rule="evenodd" clip-rule="evenodd" d="M6 1C3.24017 1 1 3.24064 1 6C1 8.75936 3.24017 11 6 11C8.75983 11 11 8.75936 11 6C11 3.24064 8.75983 1 6 1ZM6 3.00788C6.50306 3.00788 6.91147 3.41659 6.91147 3.92092C6.91147 4.42431 6.50306 4.83302 6 4.83302C5.49694 4.83302 5.08853 4.42431 5.08853 3.92092C5.08853 3.41659 5.49694 3.00788 6 3.00788ZM5.66251 5.78648C5.38636 5.78648 5.16251 6.01033 5.16251 6.28648V8.49212C5.16251 8.76826 5.38636 8.99212 5.66251 8.99212H6.33749C6.61364 8.99212 6.83749 8.76826 6.83749 8.49212V6.28648C6.83749 6.01033 6.61364 5.78648 6.33749 5.78648H5.66251Z" fill="black"/>
<path fill-rule="evenodd" clip-rule="evenodd" d="M6 1C3.24017 1 1 3.24064 1 6C1 8.75936 3.24017 11 6 11C8.75983 11 11 8.75936 11 6C11 3.24064 8.75983 1 6 1ZM6 3.00788C6.50306 3.00788 6.91147 3.41659 6.91147 3.92092C6.91147 4.42431 6.50306 4.83302 6 4.83302C5.49694 4.83302 5.08853 4.42431 5.08853 3.92092C5.08853 3.41659 5.49694 3.00788 6 3.00788ZM5.66251 5.78648C5.38636 5.78648 5.16251 6.01033 5.16251 6.28648V8.49212C5.16251 8.76826 5.38636 8.99212 5.66251 8.99212H6.33749C6.61364 8.99212 6.83749 8.76826 6.83749 8.49212V6.28648C6.83749 6.01033 6.61364 5.78648 6.33749 5.78648H5.66251Z" fill="black"/>
</svg>
