<svg width="12" height="12" viewBox="0 0 12 12" fill="none" xmlns="http://www.w3.org/2000/svg">
<path fill-rule="evenodd" clip-rule="evenodd" d="M5.04092 5.76737V10.2424H4.86602C4.47942 10.2424 4.16602 10.5554 4.16602 10.9424C4.16602 11.0594 4.16602 11.1814 4.16602 11.2984C4.16602 11.6854 4.47942 11.9984 4.86602 11.9984C5.51542 11.9984 6.47672 11.9984 7.12612 11.9984C7.51272 11.9984 7.82612 11.6854 7.82612 11.2984C7.82612 11.1814 7.82612 11.0594 7.82612 10.9424C7.82612 10.5554 7.51272 10.2424 7.12612 10.2424H6.93302V5.76737H7.12612C7.51272 5.76737 7.82602 5.45438 7.82612 5.06738C7.82612 4.94638 7.82612 4.81937 7.82612 4.69837C7.82602 4.31137 7.51272 3.99837 7.12612 3.99837C6.47672 3.99837 5.51542 3.99837 4.86602 3.99837C4.47942 3.99837 4.16602 4.31137 4.16602 4.69837C4.16602 4.81937 4.16602 4.94638 4.16602 5.06738C4.16602 5.45438 4.47942 5.76737 4.86602 5.76737H5.04092ZM6.00942 0.109375C6.77542 0.109375 7.39722 0.730375 7.39722 1.49637C7.39722 2.26237 6.77542 2.88438 6.00942 2.88438C5.24352 2.88438 4.62162 2.26237 4.62162 1.49637C4.62162 0.730375 5.24352 0.109375 6.00942 0.109375Z" fill="black"/>
</svg>
