<svg width="16" height="16" viewBox="0 0 16 16" fill="none" xmlns="http://www.w3.org/2000/svg">
<path fill-rule="evenodd" clip-rule="evenodd" d="M7.99508 1.33008C4.31604 1.33008 1.33008 4.31648 1.33008 7.99508C1.33008 11.6737 4.31604 14.6601 7.99508 14.6601C11.6732 14.6601 14.6601 11.6737 14.6601 7.99508C14.6601 4.31648 11.6732 1.33008 7.99508 1.33008ZM7.17417 8.71105V10.2838H7.02259C6.75321 10.2838 6.53406 10.5023 6.53406 10.773C6.53406 10.9897 6.53406 11.2448 6.53406 11.4615C6.53406 11.7322 6.75321 11.9507 7.02259 11.9507C7.55769 11.9507 8.40964 11.9507 8.94474 11.9507C9.21503 11.9507 9.43327 11.7322 9.43327 11.4615C9.43327 11.2448 9.43327 10.9897 9.43327 10.773C9.43327 10.5023 9.21503 10.2838 8.94474 10.2838H8.78129V8.71105H8.94474C9.07441 8.71105 9.1986 8.65984 9.28991 8.5684C9.38214 8.47605 9.43327 8.35169 9.43327 8.22185C9.43327 7.99416 9.43327 7.72351 9.43327 7.49491C9.43327 7.36598 9.38214 7.24071 9.28991 7.14927C9.1986 7.05783 9.07441 7.00571 8.94474 7.00571C8.40964 7.00571 7.55769 7.00571 7.02259 7.00571C6.89292 7.00571 6.76873 7.05783 6.67742 7.14927C6.58519 7.24071 6.53406 7.36598 6.53406 7.49491C6.53406 7.72351 6.53406 7.99416 6.53406 8.22185C6.53406 8.35169 6.58519 8.47605 6.67742 8.5684C6.76873 8.65984 6.89292 8.71105 7.02259 8.71105H7.17417ZM7.99234 3.83917C8.64706 3.83917 9.1785 4.37135 9.1785 5.02697C9.1785 5.68258 8.64706 6.21476 7.99234 6.21476C7.33762 6.21476 6.80708 5.68258 6.80708 5.02697C6.80708 4.37135 7.33762 3.83917 7.99234 3.83917Z" fill="black"/>
</svg>
