<svg width="12" height="12" viewBox="0 0 12 12" fill="none" xmlns="http://www.w3.org/2000/svg">
<path fill-rule="evenodd" clip-rule="evenodd" d="M6 1C3.24017 1 1 3.24064 1 6C1 8.75936 3.24017 11 6 11C8.75983 11 11 8.75936 11 6C11 3.24064 8.75983 1 6 1ZM5.99999 2.38098C7.99801 2.38098 9.62068 4.0019 9.62068 6C9.62068 7.99724 7.99801 9.61902 5.99999 9.61902C4.00198 9.61902 2.3793 7.99724 2.3793 6C2.3793 4.0019 4.00198 2.38098 5.99999 2.38098ZM5.51447 6.30382V7.50181H5.22508C5.15645 7.50181 5.09068 7.52943 5.04214 7.57777C4.99361 7.6261 4.96637 7.69256 4.96637 7.76075C4.96637 7.93164 4.96637 8.15519 4.96637 8.32608C4.96637 8.39513 4.99361 8.46073 5.04214 8.50906C5.09068 8.5574 5.15645 8.58502 5.22508 8.58502C5.62456 8.58502 6.3874 8.58502 6.78697 8.58502C6.85551 8.58502 6.92128 8.5574 6.96982 8.50906C7.01835 8.46073 7.04559 8.39513 7.04559 8.32608C7.04559 8.15519 7.04559 7.93164 7.04559 7.76075C7.04559 7.69256 7.01835 7.6261 6.96982 7.57777C6.92128 7.52943 6.85551 7.50181 6.78697 7.50181H6.47094V6.30382H6.77801C6.84663 6.30382 6.9124 6.2762 6.96094 6.22786C7.00939 6.17953 7.03671 6.11307 7.03671 6.04488C7.03671 5.85241 7.03671 5.59089 7.03671 5.39841C7.03671 5.32936 7.00939 5.26377 6.96094 5.21543C6.9124 5.16624 6.84663 5.13948 6.77801 5.13948C6.37852 5.13948 5.61568 5.13948 5.21611 5.13948C5.14758 5.13948 5.0818 5.16624 5.03326 5.21543C4.98473 5.26377 4.95749 5.32936 4.95749 5.39841C4.95749 5.59089 4.95749 5.85241 4.95749 6.04488C4.95749 6.11307 4.98473 6.17953 5.03326 6.22786C5.0818 6.2762 5.14758 6.30382 5.21611 6.30382H5.51447ZM5.99828 3.01191C6.46147 3.01191 6.83751 3.38823 6.83751 3.85258C6.83751 4.31607 6.46147 4.69239 5.99828 4.69239C5.53509 4.69239 5.15906 4.31607 5.15906 3.85258C5.15906 3.38823 5.53509 3.01191 5.99828 3.01191Z" fill="black"/>
</svg>
