<svg width="16" height="16" viewBox="0 0 16 16" fill="none" xmlns="http://www.w3.org/2000/svg">
<path d="M4.87012 6.6377C4.03197 7.21793 3.48158 8.18488 3.48145 9.28125C3.48171 11.0564 4.92114 12.496 6.69629 12.4961C7.7795 12.4961 8.73589 11.9587 9.31836 11.1377H10.334L10.7471 11.8809C9.89066 13.2125 8.39726 14.0957 6.69629 14.0957C4.03748 14.0956 1.8821 11.94 1.88184 9.28125C1.882 7.26911 3.11724 5.54669 4.87012 4.82715V6.6377ZM7.71875 4.78809H11.1699V6.3877H7.71875V7.0752C7.71889 7.73061 8.24507 8.26526 8.90039 8.27539L11.5234 8.31445L11.625 8.32227C11.86 8.35603 12.0703 8.4933 12.1953 8.69922L14.3506 12.252L12.9834 13.082L11.0566 9.90723L8.87695 9.875C7.34731 9.85189 6.11928 8.60498 6.11914 7.0752V3.51367H7.71875V4.78809ZM7.55371 0.117188C8.35129 0.117283 8.99794 0.763947 8.99805 1.56152C8.99805 2.35919 8.35135 3.00576 7.55371 3.00586C6.75599 3.00586 6.10938 2.35925 6.10938 1.56152C6.10948 0.763889 6.75605 0.117188 7.55371 0.117188Z" fill="black"/>
<path d="M4.87012 6.6377C4.03197 7.21793 3.48158 8.18488 3.48145 9.28125C3.48171 11.0564 4.92114 12.496 6.69629 12.4961C7.7795 12.4961 8.73589 11.9587 9.31836 11.1377H10.334L10.7471 11.8809C9.89066 13.2125 8.39726 14.0957 6.69629 14.0957C4.03748 14.0956 1.8821 11.94 1.88184 9.28125C1.882 7.26911 3.11724 5.54669 4.87012 4.82715V6.6377ZM7.71875 4.78809H11.1699V6.3877H7.71875V7.0752C7.71889 7.73061 8.24507 8.26526 8.90039 8.27539L11.5234 8.31445L11.625 8.32227C11.86 8.35603 12.0703 8.4933 12.1953 8.69922L14.3506 12.252L12.9834 13.082L11.0566 9.90723L8.87695 9.875C7.34731 9.85189 6.11928 8.60498 6.11914 7.0752V3.51367H7.71875V4.78809ZM7.55371 0.117188C8.35129 0.117283 8.99794 0.763947 8.99805 1.56152C8.99805 2.35919 8.35135 3.00576 7.55371 3.00586C6.75599 3.00586 6.10938 2.35925 6.10938 1.56152C6.10948 0.763889 6.75605 0.117188 7.55371 0.117188Z" fill="black"/>
</svg>
