<svg width="24" height="24" viewBox="0 0 24 24" fill="none" xmlns="http://www.w3.org/2000/svg">
<path d="M7.30469 9.47656C5.81576 10.3964 4.82336 12.0432 4.82324 13.9219C4.82349 16.8056 7.16119 19.1443 10.0449 19.1445C11.905 19.1444 13.5378 18.1707 14.4629 16.7061H15.501L16.1221 17.8232C14.8373 19.8204 12.5959 21.1444 10.0449 21.1445L9.67383 21.1348C5.85798 20.9414 2.8225 17.7857 2.82227 13.9219C2.8224 10.9038 4.67559 8.31972 7.30469 7.24023V9.47656ZM11.3779 7.38184H16.7539V9.38184H11.3779V10.6123C11.3781 11.7049 12.2552 12.5956 13.3477 12.6123L17.2812 12.6719L17.4092 12.6816C17.7029 12.7239 17.9649 12.8959 18.1211 13.1533L21.3545 18.4814L19.6445 19.5186L16.6973 14.6631L13.3174 14.6123C11.1323 14.5791 9.37806 12.7976 9.37793 10.6123V5.27051H11.3779V7.38184ZM11.3301 0.175781C12.5267 0.175781 13.4971 1.14619 13.4971 2.34277C13.497 3.53929 12.5266 4.50879 11.3301 4.50879C10.1336 4.50873 9.16414 3.53926 9.16406 2.34277C9.16406 1.14622 10.1335 0.175836 11.3301 0.175781Z" fill="black"/>
<path d="M7.30469 9.47656C5.81576 10.3964 4.82336 12.0432 4.82324 13.9219C4.82349 16.8056 7.16119 19.1443 10.0449 19.1445C11.905 19.1444 13.5378 18.1707 14.4629 16.7061H15.501L16.1221 17.8232C14.8373 19.8204 12.5959 21.1444 10.0449 21.1445L9.67383 21.1348C5.85798 20.9414 2.8225 17.7857 2.82227 13.9219C2.8224 10.9038 4.67559 8.31972 7.30469 7.24023V9.47656ZM11.3779 7.38184H16.7539V9.38184H11.3779V10.6123C11.3781 11.7049 12.2552 12.5956 13.3477 12.6123L17.2812 12.6719L17.4092 12.6816C17.7029 12.7239 17.9649 12.8959 18.1211 13.1533L21.3545 18.4814L19.6445 19.5186L16.6973 14.6631L13.3174 14.6123C11.1323 14.5791 9.37806 12.7976 9.37793 10.6123V5.27051H11.3779V7.38184ZM11.3301 0.175781C12.5267 0.175781 13.4971 1.14619 13.4971 2.34277C13.497 3.53929 12.5266 4.50879 11.3301 4.50879C10.1336 4.50873 9.16414 3.53926 9.16406 2.34277C9.16406 1.14622 10.1335 0.175836 11.3301 0.175781Z" fill="black"/>
</svg>
