<svg width="24" height="24" viewBox="0 0 24 24" fill="none" xmlns="http://www.w3.org/2000/svg">
<path fill-rule="evenodd" clip-rule="evenodd" d="M19.6901 13.4478L19.6301 13.3958L19.6101 13.3838C19.3901 10.2248 18.9601 7.53578 18.1401 5.83278C17.3801 4.26078 16.2801 3.42578 14.8301 3.42578C14.0001 3.42578 13.4201 3.63978 12.8901 3.86478C12.6001 3.99178 12.3401 4.14578 12.0001 4.14578C11.6601 4.14578 11.3801 3.98978 11.0701 3.86078C10.5401 3.63778 9.95014 3.42578 9.14014 3.42578C7.69014 3.42578 6.60014 4.25478 5.85014 5.82678C5.03014 7.53078 4.62014 10.2348 4.38014 13.4478C3.58014 13.6328 2.87014 13.9098 2.32014 14.2738C1.41014 14.8788 0.890137 15.7148 0.890137 16.7658C0.890137 17.9128 1.65014 18.9168 3.28014 19.5698C5.07014 20.2918 8.10014 20.6498 12.0101 20.6498C15.9101 20.6538 18.9601 20.3598 20.7701 19.6548C22.4001 19.0178 23.1801 18.0148 23.1801 16.7828C23.1801 15.9388 22.8201 15.2228 22.1801 14.6478C21.5801 14.1188 20.7101 13.7118 19.6901 13.4478ZM19.0301 15.3008C18.3901 15.5318 17.5501 15.7108 16.5901 15.8308C13.9901 16.1518 10.4401 16.0868 7.90014 15.8418C6.64014 15.7208 5.61014 15.5228 4.98014 15.3218C4.37014 15.4458 3.82014 15.6318 3.41014 15.9068C3.08014 16.1218 2.85014 16.3908 2.85014 16.7658C2.85014 16.9678 2.97014 17.1268 3.15014 17.2768C3.37014 17.4578 3.66014 17.6118 4.01014 17.7518C5.65014 18.4128 8.43014 18.6898 12.0101 18.6898C15.6001 18.6938 18.3901 18.4758 20.0601 17.8288C20.7401 17.5628 21.2201 17.2968 21.2201 16.7828C21.2201 16.4138 20.9701 16.1498 20.6301 15.9268C20.2101 15.6458 19.6501 15.4428 19.0301 15.3008ZM17.6601 13.6278C17.4701 10.7248 17.1301 8.24578 16.3801 6.68578C16.0001 5.90978 15.5401 5.38478 14.8301 5.38478C14.2001 5.38478 13.8001 5.60978 13.4101 5.77478C12.9601 5.96378 12.5301 6.10478 12.0001 6.10478C11.4801 6.10478 11.0401 5.96478 10.5801 5.77778C10.1801 5.61278 9.76014 5.38478 9.14014 5.38478C8.43014 5.38478 7.98014 5.90278 7.62014 6.67278C6.87014 8.22478 6.54014 10.6938 6.33014 13.6198C6.81014 13.7078 7.41014 13.7858 8.09014 13.8508C10.1701 14.0508 12.9501 14.1268 15.2501 13.9528C16.1601 13.8838 17.0001 13.7828 17.6601 13.6278Z" fill="black"/>
</svg>
