<svg width="24" height="24" viewBox="0 0 24 24" fill="none" xmlns="http://www.w3.org/2000/svg">
<path fill-rule="evenodd" clip-rule="evenodd" d="M21.0701 19.5186C22.5001 18.8866 23.1801 17.9346 23.1801 16.7826C23.1801 15.9386 22.8201 15.2226 22.1801 14.6476C21.5801 14.1186 20.7101 13.7116 19.6901 13.4476L19.6101 13.3836C19.3901 10.2246 18.9601 7.53562 18.1401 5.83262C17.3801 4.26062 16.2801 3.42562 14.8301 3.42562C14.0001 3.42562 13.4201 3.63963 12.8901 3.86462C12.6001 3.99163 12.3401 4.14563 12.0001 4.14563C11.6601 4.14563 11.3801 3.98962 11.0701 3.86063C10.5401 3.63762 9.95014 3.42562 9.14014 3.42562C8.03014 3.42562 7.12014 3.91762 6.42014 4.86762L3.42014 1.86862C2.99014 1.43962 2.30014 1.43962 1.87014 1.86862C1.44014 2.29762 1.44014 2.99462 1.87014 3.42362L21.0601 22.6156C21.4901 23.0446 22.1901 23.0446 22.6101 22.6156C23.0401 22.1856 23.0401 21.4886 22.6101 21.0596L21.0701 19.5186ZM4.87014 9.24662C4.65014 10.4936 4.50014 11.9126 4.38014 13.4476C3.58014 13.6326 2.87014 13.9096 2.32014 14.2736C1.41014 14.8786 0.890137 15.7146 0.890137 16.7656C0.890137 17.9126 1.65014 18.9166 3.28014 19.5696C5.07014 20.2916 8.10014 20.6496 12.0101 20.6496C13.5201 20.6506 14.9001 20.6076 16.1401 20.5116L14.2801 18.6526L12.0101 18.6896C8.43014 18.6896 5.65014 18.4126 4.01014 17.7516C3.66014 17.6116 3.37014 17.4576 3.15014 17.2766C2.97014 17.1266 2.85014 16.9676 2.85014 16.7656C2.85014 16.3906 3.08014 16.1216 3.41014 15.9066C3.82014 15.6316 4.37014 15.4456 4.98014 15.3216C5.61014 15.5226 6.64014 15.7206 7.90014 15.8416C9.01014 15.9486 10.3201 16.0216 11.6601 16.0336L9.59014 13.9626L8.09014 13.8506C7.41014 13.7856 6.81014 13.7076 6.33014 13.6196C6.40014 12.6806 6.48014 11.7896 6.59014 10.9616L4.87014 9.24662ZM19.5501 17.9966L20.0601 17.8286C20.7401 17.5626 21.2201 17.2966 21.2201 16.7826C21.2201 16.4136 20.9701 16.1496 20.6301 15.9266C20.2101 15.6456 19.6501 15.4426 19.0301 15.3006C18.5501 15.4756 17.9501 15.6196 17.2701 15.7166L19.5501 17.9966ZM15.4801 13.9286C16.3001 13.8656 17.0501 13.7696 17.6601 13.6276C17.4701 10.7246 17.1301 8.24563 16.3801 6.68563C16.0001 5.90963 15.5401 5.38462 14.8301 5.38462C14.2001 5.38462 13.8001 5.60962 13.4101 5.77462C12.9601 5.96362 12.5301 6.10463 12.0001 6.10463C11.4801 6.10463 11.0401 5.96462 10.5801 5.77763C10.1801 5.61263 9.76014 5.38462 9.14014 5.38462C8.56014 5.38462 8.16014 5.72863 7.83014 6.27663L15.4801 13.9286Z" fill="black"/>
</svg>
