<svg width="16" height="16" viewBox="0 0 16 16" fill="none" xmlns="http://www.w3.org/2000/svg">
<path fill-rule="evenodd" clip-rule="evenodd" d="M2.51271 8.94872C1.96771 9.08172 1.48671 9.27572 1.11071 9.52572C0.436711 9.97272 0.0537109 10.5927 0.0537109 11.3687C0.0537109 12.2207 0.605711 12.9577 1.81671 13.4207C3.08771 13.9057 5.22671 14.1297 7.98671 14.1297C10.7447 14.1327 12.8867 13.9527 14.1617 13.4797C15.3727 13.0297 15.9357 12.2957 15.9357 11.3817C15.9357 10.7557 15.6707 10.2247 15.1927 9.79772C14.7697 9.42072 14.1477 9.12672 13.4217 8.93572C13.2627 6.72072 12.9607 4.83672 12.3827 3.64072C11.8267 2.49072 11.0157 1.88672 9.95771 1.88672C9.35771 1.88672 8.93371 2.04072 8.55271 2.20372C8.35871 2.28672 8.19171 2.39172 7.96971 2.39172C7.74371 2.39172 7.56571 2.28572 7.36171 2.20072C6.97371 2.03872 6.54471 1.88672 5.96271 1.88672C4.90171 1.88672 4.09771 2.48672 3.54771 3.63672C2.97771 4.82772 2.68271 6.71072 2.51271 8.94872ZM12.6267 10.3967C12.2247 10.5127 11.7417 10.6057 11.2037 10.6717C9.37571 10.8987 6.87171 10.8527 5.07871 10.6807C4.39971 10.6147 3.81271 10.5167 3.37271 10.4097C2.83071 10.4897 2.34371 10.6277 1.99571 10.8587C1.80071 10.9877 1.65371 11.1447 1.65371 11.3687C1.65371 11.4727 1.72471 11.5487 1.81671 11.6227C1.96171 11.7397 2.15471 11.8367 2.38671 11.9257C3.53971 12.3647 5.48371 12.5297 7.98771 12.5297C10.4937 12.5327 12.4457 12.4097 13.6047 11.9797C13.8337 11.8947 14.0237 11.8007 14.1657 11.6837C14.2677 11.5997 14.3357 11.5057 14.3357 11.3817C14.3357 11.1597 14.1747 11.0077 13.9717 10.8737C13.6257 10.6437 13.1517 10.4937 12.6267 10.3967ZM11.8197 8.95672C11.6827 7.02772 11.4487 5.38472 10.9417 4.33672C10.7007 3.83672 10.4177 3.48672 9.95771 3.48672C9.53371 3.48672 9.26471 3.64072 9.00371 3.75072C8.67671 3.88972 8.35571 3.99172 7.96971 3.99172C7.58971 3.99172 7.26271 3.89072 6.92971 3.75372C6.65871 3.64272 6.37971 3.48672 5.96271 3.48672C5.50571 3.48672 5.22771 3.83172 4.99071 4.32772C4.49371 5.36572 4.26471 6.99272 4.11771 8.92472C4.44271 8.98472 4.84771 9.05072 5.23271 9.08772C6.68471 9.22772 8.63271 9.28172 10.2477 9.15872C10.8357 9.11472 11.3757 9.05172 11.8197 8.95672Z" fill="black"/>
</svg>
