<svg width="24" height="24" viewBox="0 0 24 24" fill="none" xmlns="http://www.w3.org/2000/svg">
<path fill-rule="evenodd" clip-rule="evenodd" d="M23.0002 10C23.0002 8.41 22.3682 6.88 21.2432 5.76C20.1182 4.63 18.5922 4 17.0002 4C13.9432 4 10.0472 4 6.99023 4C5.39923 4 3.87323 4.63 2.74723 5.76C1.62223 6.88 0.990234 8.41 0.990234 10C0.990234 11.61 0.990234 13.39 0.990234 15C0.990234 16.59 1.62223 18.12 2.74723 19.24C3.87323 20.37 5.39923 21 6.99023 21C10.0472 21 13.9432 21 17.0002 21C18.5922 21 20.1182 20.37 21.2432 19.24C22.3682 18.12 23.0002 16.59 23.0002 15V10ZM21.0002 10V15C21.0002 16.06 20.5792 17.08 19.8292 17.83C19.0792 18.58 18.0612 19 17.0002 19C13.9432 19 10.0472 19 6.99023 19C5.92923 19 4.91223 18.58 4.16223 17.83C3.41223 17.08 2.99023 16.06 2.99023 15V10C2.99023 8.94 3.41223 7.92 4.16223 7.17C4.91223 6.42 5.92923 6 6.99023 6C10.0472 6 13.9432 6 17.0002 6C18.0612 6 19.0792 6.42 19.8292 7.17C20.5792 7.92 21.0002 8.94 21.0002 10ZM16.9542 15.93C16.9542 15.48 16.5872 15.11 16.1332 15.11C14.2702 15.11 9.73723 15.11 7.87323 15.11C7.42023 15.11 7.05223 15.48 7.05223 15.93C7.05223 15.98 7.05223 16.03 7.05223 16.07C7.05223 16.53 7.42023 16.89 7.87323 16.89C9.73723 16.89 14.2702 16.89 16.1332 16.89C16.5872 16.89 16.9542 16.53 16.9542 16.07C16.9542 16.03 16.9542 15.98 16.9542 15.93ZM9.12623 12.45C9.12623 12.15 9.00723 11.86 8.79523 11.65C8.58323 11.44 8.29623 11.32 7.99623 11.32H7.99423C7.69523 11.32 7.40723 11.44 7.19523 11.65C6.98423 11.86 6.86423 12.15 6.86423 12.45C6.86423 12.75 6.98423 13.04 7.19523 13.25C7.40723 13.46 7.69523 13.58 7.99423 13.58H7.99623C8.29623 13.58 8.58323 13.46 8.79523 13.25C9.00723 13.04 9.12623 12.75 9.12623 12.45ZM17.1262 12.45C17.1262 12.15 17.0072 11.86 16.7952 11.65C16.5832 11.44 16.2962 11.32 15.9962 11.32H15.9942C15.6952 11.32 15.4072 11.44 15.1952 11.65C14.9842 11.86 14.8642 12.15 14.8642 12.45C14.8642 12.75 14.9842 13.04 15.1952 13.25C15.4072 13.46 15.6952 13.58 15.9942 13.58H15.9962C16.2962 13.58 16.5832 13.46 16.7952 13.25C17.0072 13.04 17.1262 12.75 17.1262 12.45ZM13.1262 12.45C13.1262 12.15 13.0072 11.86 12.7952 11.65C12.5832 11.44 12.2962 11.32 11.9962 11.32H11.9942C11.6952 11.32 11.4072 11.44 11.1952 11.65C10.9842 11.86 10.8642 12.15 10.8642 12.45C10.8642 12.75 10.9842 13.04 11.1952 13.25C11.4072 13.46 11.6952 13.58 11.9942 13.58H11.9962C12.2962 13.58 12.5832 13.46 12.7952 13.25C13.0072 13.04 13.1262 12.75 13.1262 12.45ZM19.1172 9.45C19.1172 9.15 18.9972 8.87 18.7862 8.65C18.5742 8.44 18.2862 8.32 17.9872 8.32H17.9852C17.6852 8.32 17.3982 8.44 17.1862 8.65C16.9742 8.87 16.8552 9.15 16.8552 9.45C16.8552 9.75 16.9742 10.04 17.1862 10.25C17.3982 10.47 17.6852 10.58 17.9852 10.58H17.9872C18.2862 10.58 18.5742 10.47 18.7862 10.25C18.9972 10.04 19.1172 9.75 19.1172 9.45ZM15.1172 9.45C15.1172 9.15 14.9972 8.87 14.7862 8.65C14.5742 8.44 14.2862 8.32 13.9872 8.32H13.9852C13.6852 8.32 13.3982 8.44 13.1862 8.65C12.9742 8.87 12.8552 9.15 12.8552 9.45C12.8552 9.75 12.9742 10.04 13.1862 10.25C13.3982 10.47 13.6852 10.58 13.9852 10.58H13.9872C14.2862 10.58 14.5742 10.47 14.7862 10.25C14.9972 10.04 15.1172 9.75 15.1172 9.45ZM11.1172 9.45C11.1172 9.15 10.9972 8.87 10.7862 8.65C10.5742 8.44 10.2862 8.32 9.98723 8.32H9.98523C9.68523 8.32 9.39823 8.44 9.18623 8.65C8.97423 8.87 8.85523 9.15 8.85523 9.45C8.85523 9.75 8.97423 10.04 9.18623 10.25C9.39823 10.47 9.68523 10.58 9.98523 10.58H9.98723C10.2862 10.58 10.5742 10.47 10.7862 10.25C10.9972 10.04 11.1172 9.75 11.1172 9.45ZM7.11723 9.45C7.11723 9.15 6.99723 8.87 6.78623 8.65C6.57423 8.44 6.28623 8.32 5.98723 8.32H5.98523C5.68523 8.32 5.39823 8.44 5.18623 8.65C4.97423 8.87 4.85523 9.15 4.85523 9.45C4.85523 9.75 4.97423 10.04 5.18623 10.25C5.39823 10.47 5.68523 10.58 5.98523 10.58H5.98723C6.28623 10.58 6.57423 10.47 6.78623 10.25C6.99723 10.04 7.11723 9.75 7.11723 9.45Z" fill="black"/>
</svg>
