<svg width="24" height="24" viewBox="0 0 24 24" fill="none" xmlns="http://www.w3.org/2000/svg">
<path fill-rule="evenodd" clip-rule="evenodd" d="M7.89279 9.30506C7.61659 9.16356 7.30369 9.08376 6.97209 9.08376C6.66349 9.08376 6.30779 9.08376 5.93799 9.08376C4.87719 9.08376 3.85979 9.50516 3.10959 10.2553C2.35949 11.0055 1.93799 12.0229 1.93799 13.0838C1.93799 14.374 1.93799 15.8789 1.93799 17.1691C1.93799 18.2299 2.35949 19.2474 3.10959 19.9975C3.85979 20.7476 4.87719 21.1691 5.93799 21.1691C6.30779 21.1691 6.66349 21.1691 6.97209 21.1691C7.92399 21.1691 8.72219 20.5112 8.93679 19.6252C9.95069 20.5522 11.2869 21.1358 12.7635 21.1875C12.8496 21.1906 12.9364 21.1931 13.0239 21.195C15.5047 21.248 16.7753 20.9581 18.4511 20.5912C19.932 20.2671 21.0526 19.2321 21.8089 17.8073C22.8086 15.924 23.1595 13.3387 22.9879 11.204C22.8757 9.80726 21.7125 8.55986 20.3021 8.18956C19.1767 7.89406 18.1024 7.65746 16.539 7.48276C16.8038 6.18676 16.9656 5.09186 17.1143 3.89146C17.354 1.95796 15.9325 0.575758 14.3953 0.464658C13.3759 0.391058 12.2648 0.842858 11.556 2.13876C10.6023 3.88236 9.92469 5.16836 7.89279 9.30506ZM8.99359 15.3908C9.08689 17.4529 10.7506 19.1159 12.8338 19.1887L13.0666 19.1954C15.3328 19.2439 16.4927 18.9726 18.0235 18.6375C18.9345 18.438 19.577 17.7462 20.0424 16.8696C20.875 15.3009 21.1373 13.1423 20.9944 11.3643C20.9464 10.7672 20.3971 10.2823 19.7942 10.124C18.35 9.74476 16.9955 9.47286 14.4233 9.30726C13.8725 9.27186 13.4542 8.79586 13.4896 8.24516C13.5247 7.70086 13.9898 7.28596 14.5321 7.31066C14.814 5.96896 14.9785 4.86396 15.1295 3.64556C15.2104 2.99316 14.7698 2.49696 14.2511 2.45946C13.8995 2.43406 13.5552 2.65146 13.3107 3.09846C12.3579 4.84056 11.6841 6.12106 9.62699 10.3109L9.62579 10.3133C9.24989 11.074 9.03509 11.9029 8.99359 12.7481V15.3908ZM6.99359 12.702V11.1052C6.99359 11.0934 6.98399 11.0838 6.97209 11.0838H5.93799C5.40759 11.0838 4.89889 11.2945 4.52379 11.6696C4.14869 12.0446 3.93799 12.5533 3.93799 13.0838C3.93799 14.374 3.93799 15.8789 3.93799 17.1691C3.93799 17.6995 4.14869 18.2082 4.52379 18.5833C4.89889 18.9584 5.40759 19.1691 5.93799 19.1691H6.97209C6.98399 19.1691 6.99359 19.1595 6.99359 19.1476V15.4342C6.99089 15.3607 6.98949 15.2873 6.98939 15.2135L6.98609 13.0553C6.98609 12.9374 6.98859 12.8196 6.99359 12.702Z" fill="black"/>
</svg>
