<svg width="12" height="12" viewBox="0 0 12 12" fill="none" xmlns="http://www.w3.org/2000/svg">
<path fill-rule="evenodd" clip-rule="evenodd" d="M3.5728 4.93971C3.4568 4.90671 3.3348 4.88871 3.2078 4.88871C3.0058 4.88871 2.7648 4.88871 2.5168 4.88871C1.9068 4.88871 1.3218 5.13171 0.890797 5.56271C0.458797 5.99371 0.216797 6.57871 0.216797 7.18871C0.216797 7.91071 0.216797 8.77471 0.216797 9.49771C0.216797 10.1077 0.458797 10.6927 0.890797 11.1237C1.3218 11.5547 1.9068 11.7977 2.5168 11.7977H3.2078C3.7038 11.7977 4.1368 11.5267 4.3658 11.1237C4.9308 11.5417 5.6258 11.7947 6.3808 11.8107C7.7158 11.8397 8.3998 11.6847 9.3018 11.4867C10.1598 11.2987 10.8148 10.7077 11.2528 9.88271C11.8018 8.84771 11.9988 7.42871 11.9038 6.25671C11.8368 5.41171 11.1398 4.65071 10.2868 4.42671C9.7598 4.28871 9.2538 4.17471 8.5748 4.08471C8.7018 3.49771 8.8118 2.90571 8.8688 2.30371C8.9808 1.11571 8.1028 0.281711 7.1728 0.215711C6.5508 0.170711 5.8668 0.438711 5.4288 1.23871C4.9778 2.06271 4.6138 2.81371 3.7638 4.52371C3.6958 4.66071 3.6318 4.79971 3.5728 4.93971ZM4.5388 8.40071C4.5948 9.39471 5.4078 10.1897 6.4148 10.2117C7.5788 10.2357 8.1738 10.0957 8.9598 9.92371C9.3618 9.83571 9.6338 9.51871 9.8398 9.13271C10.2548 8.34971 10.3808 7.27171 10.3098 6.38471C10.2928 6.17971 10.0878 6.02871 9.8808 5.97471C9.1348 5.77871 8.4348 5.63871 7.1058 5.55371C6.6648 5.52471 6.3308 5.14371 6.3588 4.70371C6.3818 4.34871 6.6328 4.06271 6.9598 3.97971C7.0948 3.37871 7.2168 2.77171 7.2758 2.15271C7.2928 1.97471 7.1988 1.82171 7.0588 1.81071C6.9668 1.80471 6.8968 1.88871 6.8328 2.00671C6.3898 2.81671 6.0318 3.55371 5.1978 5.23471C4.7928 6.05271 4.5678 6.94871 4.5388 7.85971V8.40071ZM2.9388 7.83571V6.48871H2.5168C2.3308 6.48871 2.1528 6.56271 2.0218 6.69371C1.8908 6.82471 1.8168 7.00371 1.8168 7.18871V9.49771C1.8168 9.68271 1.8908 9.86071 2.0218 9.99271C2.1528 10.1237 2.3308 10.1977 2.5168 10.1977H2.9388V8.43971C2.9368 8.39171 2.9358 8.34271 2.9358 8.29371V8.06771C2.9358 7.99071 2.9368 7.91271 2.9388 7.83571Z" fill="black"/>
</svg>
