<svg width="24" height="24" viewBox="0 0 24 24" fill="none" xmlns="http://www.w3.org/2000/svg">
<path d="M14.4008 9.08769C15.8062 9.27159 18.005 9.57879 19.2622 9.88104C20.2447 10.1173 21.4561 11.006 21.4484 12.2474C21.434 14.5867 20.6993 17.2022 19.8695 18.4564C19.207 19.4578 18.0788 19.9925 17.0392 20.1257C15.8573 20.2771 15.0496 20.2979 13.3447 20.2615C12.9175 20.2523 12.4844 20.2268 12.0557 20.183C9.71046 19.9387 7.92846 17.9626 7.92711 15.6047C7.88256 15.0922 7.88211 14.5883 7.88166 14.1001C7.88031 12.4355 8.26491 10.7935 9.00516 9.30264C10.3975 6.51429 11.5988 4.57284 12.2321 3.45639C13.4209 1.36059 16.0318 2.73069 15.553 4.78344C15.2522 6.07329 14.8219 7.69839 14.4008 9.08769Z" fill="black"/>
<path d="M5.86304 12.1832C5.86304 11.3819 5.24264 10.7323 4.47719 10.7323H4.23374C2.85929 10.7323 1.82324 12.2602 1.82324 14.0123V17.272C1.82324 19.0241 2.88224 20.3914 4.23374 20.3914H4.47719C5.24264 20.3914 5.86304 19.7419 5.86304 18.9404V12.1832Z" fill="black"/>
</svg>
