<svg width="12" height="12" viewBox="0 0 12 12" fill="none" xmlns="http://www.w3.org/2000/svg">
<path fill-rule="evenodd" clip-rule="evenodd" d="M5.05619 6.00118C4.92869 5.96088 4.79459 5.93988 4.65839 5.93988C4.49239 5.93988 4.30319 5.93988 4.10949 5.93988C3.53929 5.93988 2.99239 6.16638 2.58919 6.56958C2.18599 6.97278 1.95949 7.51968 1.95949 8.08988C1.95949 8.51748 1.95949 8.98758 1.95949 9.41518C1.95949 9.98538 2.18599 10.5323 2.58919 10.9355C2.99239 11.3387 3.53929 11.5652 4.10949 11.5652C4.30319 11.5652 4.49239 11.5652 4.65839 11.5652C5.00849 11.5652 5.34419 11.4261 5.59179 11.1786C5.60749 11.1628 5.62279 11.1467 5.63769 11.1303C6.08969 11.4728 6.64749 11.6842 7.25539 11.7068C7.29699 11.7083 7.33899 11.7096 7.38129 11.7105C8.46849 11.7336 9.02539 11.608 9.75979 11.4478C10.4811 11.2905 11.0341 10.7971 11.4025 10.1055C11.8542 9.25748 12.0177 8.09428 11.9402 7.13308C11.882 6.41198 11.2888 5.75958 10.5581 5.56838C10.1592 5.46408 9.77509 5.37648 9.27859 5.30668C9.37189 4.86848 9.45059 4.42618 9.49309 3.97708C9.58989 2.95598 8.83169 2.23978 8.02919 2.18238C7.49279 2.14398 6.90149 2.37178 6.52409 3.05938C6.18069 3.68498 5.89909 4.25808 5.29229 5.47668C5.20689 5.64858 5.12799 5.82398 5.05619 6.00118ZM7.76089 5.22788C7.86389 4.76938 7.95519 4.30698 7.99979 3.83568C8.00749 3.75438 7.98719 3.66398 7.92299 3.67838C7.88449 3.68698 7.86599 3.73208 7.83899 3.78108C7.50329 4.39278 7.22849 4.95338 6.63539 6.14458C6.22619 6.96878 6.00959 7.87498 6.00129 8.78858C6.00329 8.80958 6.00419 8.83078 6.00419 8.85208C6.00459 9.58188 6.58199 10.1807 7.31129 10.2078L7.41319 10.2108C8.33989 10.2305 8.81419 10.1189 9.44019 9.98228C9.83429 9.89628 10.0541 9.52178 10.2117 9.10318C10.4273 8.53028 10.4923 7.83988 10.445 7.25368C10.4351 7.13108 10.3026 7.05208 10.1784 7.01958C9.58219 6.86358 9.02299 6.75228 7.96109 6.68418C7.54799 6.65768 7.23419 6.30078 7.26069 5.88768C7.28049 5.57838 7.48569 5.32468 7.76089 5.22788ZM4.47839 7.43988V10.0652H4.10949C3.93709 10.0652 3.77179 9.99668 3.64989 9.87478C3.52799 9.75288 3.45949 9.58758 3.45949 9.41518V8.08988C3.45949 7.91748 3.52799 7.75218 3.64989 7.63028C3.77179 7.50838 3.93709 7.43988 4.10949 7.43988H4.47839ZM0.70949 8.80268C0.27439 8.41718 0.0170898 7.85428 0.0170898 7.22728C0.0170898 6.77228 0.0170898 6.26488 0.0170898 5.80998C0.0170898 4.64798 0.94209 3.70598 2.10409 3.70598H2.87249L3.09629 3.22058C3.69449 2.04138 3.97319 1.48518 4.31269 0.878078C4.68789 0.207078 5.27349 -0.0179216 5.80689 0.0195784C6.38579 0.0602784 6.93749 0.439878 7.16449 1.02408C6.64479 1.16418 6.14069 1.46658 5.72979 1.99128C5.74639 1.87628 5.76059 1.76088 5.77179 1.64498C5.77829 1.57718 5.75519 1.50378 5.70069 1.51578C5.66479 1.52368 5.64699 1.56528 5.62189 1.61028C5.29019 2.20328 5.01859 2.74688 4.43439 3.89848C4.30479 4.15468 4.19459 4.41938 4.10429 4.68988C3.43199 4.69088 2.78029 4.89108 2.22839 5.25768V5.20598H2.10399C1.77049 5.20598 1.50009 5.47638 1.50009 5.80998V5.91018C0.99129 6.51928 0.70949 7.29008 0.70949 8.08988V8.80268Z" fill="black"/>
</svg>
