<svg width="16" height="16" viewBox="0 0 16 16" fill="none" xmlns="http://www.w3.org/2000/svg">
<path d="M9.60086 6.05716C10.5378 6.17976 12.0037 6.38456 12.8418 6.58606C13.4968 6.74356 14.3044 7.33606 14.2993 8.16366C14.2897 9.72316 13.7999 11.4669 13.2467 12.303C12.805 12.9706 12.0529 13.3271 11.3598 13.4159C10.5719 13.5168 10.0334 13.5307 8.89676 13.5064C8.61196 13.5003 8.32326 13.4833 8.03746 13.4541C6.47396 13.2912 5.28596 11.9738 5.28506 10.4019C5.25536 10.0602 5.25506 9.72426 5.25476 9.39876C5.25386 8.28906 5.51026 7.19436 6.00376 6.20046C6.93196 4.34156 7.73286 3.04726 8.15506 2.30296C8.94756 0.90576 10.6882 1.81916 10.369 3.18766C10.1685 4.04756 9.88156 5.13096 9.60086 6.05716Z" fill="black"/>
<path d="M3.90902 8.12085C3.90902 7.58665 3.49542 7.15355 2.98512 7.15355H2.82282C1.90652 7.15355 1.21582 8.17215 1.21582 9.34025V11.5133C1.21582 12.6814 1.92182 13.5929 2.82282 13.5929H2.98512C3.49542 13.5929 3.90902 13.1599 3.90902 12.6256V8.12085Z" fill="black"/>
</svg>
