<svg width="16" height="16" viewBox="0 0 16 16" fill="none" xmlns="http://www.w3.org/2000/svg">
<path fill-rule="evenodd" clip-rule="evenodd" d="M5.14187 6.82344C4.86087 6.67944 4.54287 6.59944 4.20587 6.59944H4.13887C3.35787 6.59944 2.60787 6.90944 2.05587 7.46244C1.50287 8.01444 1.19287 8.76443 1.19287 9.54543C1.19287 10.2844 1.19287 11.1124 1.19287 11.8524C1.19287 12.6334 1.50287 13.3824 2.05587 13.9354C2.60787 14.4874 3.35787 14.7984 4.13887 14.7984H4.20587C4.96287 14.7984 5.62487 14.3934 5.98687 13.7864C6.70287 14.4094 7.63187 14.7934 8.65287 14.8154H8.65487C10.3469 14.8514 11.3799 14.8014 12.4649 14.4294C13.7049 14.0034 14.5089 13.0524 14.9589 11.8164C15.3579 10.7204 15.4699 9.39044 15.3819 8.07344C15.3159 7.09044 14.4939 6.20744 13.5029 5.94744C12.8709 5.78144 12.0319 5.62744 11.1519 5.51544C11.3329 4.70844 11.4919 3.89444 11.5699 3.06444C11.6989 1.70244 10.6969 0.742435 9.62987 0.665435C8.91687 0.614435 8.13587 0.927435 7.63387 1.84544C7.03687 2.93644 6.56087 3.92544 5.35887 6.34344L5.35787 6.34444C5.27987 6.50144 5.20787 6.66144 5.14187 6.82344ZM6.28387 11.4784C6.63487 12.4744 7.57387 13.1914 8.68787 13.2154H8.68887C10.1339 13.2464 11.0189 13.2344 11.9459 12.9164C12.7119 12.6524 13.1769 12.0334 13.4559 11.2694C13.7849 10.3654 13.8579 9.26644 13.7849 8.18044C13.7629 7.84444 13.4359 7.58444 13.0959 7.49544C12.1489 7.24644 10.6949 7.03044 9.39587 6.95744C8.95487 6.93244 8.61687 6.55444 8.64187 6.11344C8.66687 5.67244 9.04487 5.33444 9.48587 5.35944L9.54687 5.36344C9.73087 4.55744 9.89887 3.74444 9.97687 2.91444C10.0099 2.56144 9.79187 2.28144 9.51587 2.26144C9.33287 2.24844 9.16587 2.37844 9.03787 2.61344C8.44787 3.69044 7.97887 4.66744 6.79187 7.05444C6.55887 7.52544 6.38487 8.02244 6.27587 8.53344L6.28387 8.67744V11.4784ZM4.68387 8.67743V12.7204C4.68387 12.9844 4.46987 13.1984 4.20587 13.1984H4.13887C3.78187 13.1984 3.43987 13.0564 3.18687 12.8044C2.93487 12.5514 2.79287 12.2094 2.79287 11.8524V9.54543C2.79287 9.18843 2.93487 8.84644 3.18687 8.59344C3.43987 8.34144 3.78187 8.19944 4.13887 8.19944H4.20587C4.46987 8.19944 4.68387 8.41343 4.68387 8.67743Z" fill="black"/>
</svg>
