<svg width="24" height="24" viewBox="0 0 24 24" fill="none" xmlns="http://www.w3.org/2000/svg">
<path fill-rule="evenodd" clip-rule="evenodd" d="M10.16 2.13437L9.22004 3.29938L7.77004 2.91037C7.07004 2.72038 6.31004 2.86037 5.72004 3.29037C5.13004 3.72038 4.76004 4.39538 4.72004 5.12637L4.65004 6.62138L3.25004 7.15737C2.57004 7.41838 2.04004 7.97537 1.81004 8.67137C1.58004 9.36737 1.69004 10.1284 2.08004 10.7424L2.90004 11.9974L2.08004 13.2524C1.69004 13.8664 1.58004 14.6274 1.81004 15.3234C2.04004 16.0194 2.57004 16.5764 3.25004 16.8374L4.65004 17.3734L4.72004 18.8684C4.76004 19.5994 5.13004 20.2744 5.72004 20.7044C6.31004 21.1344 7.07004 21.2744 7.77004 21.0844L9.22004 20.6954L10.16 21.8604C10.62 22.4294 11.31 22.7604 12.05 22.7604C12.78 22.7604 13.47 22.4294 13.93 21.8604L14.87 20.6954L16.32 21.0844C17.03 21.2744 17.78 21.1344 18.37 20.7044C18.97 20.2744 19.33 19.5994 19.37 18.8684L19.45 17.3734L20.84 16.8374C21.53 16.5764 22.06 16.0194 22.28 15.3234C22.51 14.6274 22.41 13.8664 22.01 13.2524L21.19 11.9974L22.01 10.7424C22.41 10.1284 22.51 9.36737 22.28 8.67137C22.06 7.97537 21.53 7.41838 20.84 7.15737L19.45 6.62138L19.37 5.12637C19.33 4.39538 18.97 3.72038 18.37 3.29037C17.78 2.86037 17.03 2.72038 16.32 2.91037L14.87 3.29938L13.93 2.13437C13.47 1.56537 12.78 1.23438 12.05 1.23438C11.31 1.23438 10.62 1.56537 10.16 2.13437ZM11.72 3.39237C11.8 3.29238 11.92 3.23438 12.05 3.23438C12.17 3.23438 12.3 3.29238 12.38 3.39237L13.73 5.06238C13.98 5.37038 14.38 5.50238 14.76 5.39937L16.84 4.84238C16.96 4.80838 17.09 4.83337 17.2 4.90838C17.3 4.98338 17.36 5.10137 17.37 5.22937L17.48 7.37437C17.5 7.76937 17.75 8.11538 18.12 8.25637L20.13 9.02437C20.25 9.07037 20.34 9.16838 20.38 9.28938C20.42 9.41138 20.4 9.54437 20.33 9.65137L19.16 11.4524C18.95 11.7834 18.95 12.2114 19.16 12.5424L20.33 14.3434C20.4 14.4504 20.42 14.5834 20.38 14.7054C20.34 14.8264 20.25 14.9244 20.13 14.9704L18.12 15.7384C17.75 15.8794 17.5 16.2254 17.48 16.6204L17.37 18.7654C17.36 18.8934 17.3 19.0114 17.2 19.0864C17.09 19.1614 16.96 19.1864 16.84 19.1534L14.76 18.5954C14.38 18.4924 13.98 18.6244 13.73 18.9324L12.38 20.6024C12.3 20.7024 12.17 20.7604 12.05 20.7604C11.92 20.7604 11.8 20.7024 11.72 20.6024L10.37 18.9324C10.12 18.6244 9.71004 18.4924 9.33004 18.5954L7.26004 19.1524C7.13004 19.1864 7.00004 19.1614 6.90004 19.0864C6.79004 19.0114 6.73004 18.8934 6.72004 18.7654L6.61004 16.6204C6.59004 16.2254 6.34004 15.8794 5.97004 15.7384L3.96004 14.9704C3.85004 14.9244 3.75004 14.8264 3.71004 14.7054C3.67004 14.5834 3.69004 14.4504 3.76004 14.3434L4.93004 12.5424C5.15004 12.2114 5.15004 11.7834 4.93004 11.4524L3.76004 9.65137C3.69004 9.54437 3.67004 9.41138 3.71004 9.28938C3.75004 9.16838 3.85004 9.07037 3.96004 9.02437L5.97004 8.25637C6.34004 8.11538 6.59004 7.76937 6.61004 7.37437L6.72004 5.22937C6.73004 5.10137 6.79004 4.98338 6.90004 4.90838C7.00004 4.83337 7.13004 4.80837 7.26004 4.84137L9.33004 5.39937C9.71004 5.50238 10.12 5.37038 10.37 5.06238L11.72 3.39237ZM13.42 10.2544C14.06 10.3284 14.84 10.4434 15.52 10.6214C15.97 10.7424 16.36 11.1364 16.4 11.5894C16.52 13.0724 16.05 15.0804 14.69 15.3784C13.97 15.5374 13.42 15.6654 12.34 15.6424C12.33 15.6424 12.33 15.6414 12.32 15.6414C11.06 15.6124 10.05 14.5784 10.05 13.3124V13.3104C10.05 12.2164 10.3 11.1364 10.78 10.1544C11.44 8.82137 11.74 8.20438 12.11 7.53038C12.65 6.53937 13.87 7.07037 13.78 8.05337C13.72 8.71937 13.57 9.60837 13.42 10.2544ZM9.05004 11.0394H8.06004C7.79004 11.0394 7.53004 11.1454 7.34004 11.3344C7.15004 11.5234 7.05004 11.7804 7.05004 12.0484C7.05004 12.8094 7.05004 13.8504 7.05004 14.6124C7.05004 14.8794 7.15004 15.1364 7.34004 15.3254C7.53004 15.5144 7.79004 15.6214 8.06004 15.6214C8.55004 15.6214 9.05004 15.6214 9.05004 15.6214V11.0394Z" fill="black"/>
</svg>
