<svg width="24" height="24" viewBox="0 0 24 24" fill="none" xmlns="http://www.w3.org/2000/svg">
<path d="M2.58207 18.2761C1.38977 17.7811 0.55127 16.6055 0.55127 15.2341V11.6252C0.55127 9.8069 2.02537 8.3328 3.84377 8.3327H4.96377C5.32197 8.3327 5.66977 8.4327 5.96997 8.6172C6.01277 8.5241 6.05737 8.4318 6.10377 8.3402C7.80707 4.994 8.44227 3.6963 9.24657 2.2583C9.86407 1.1543 10.8189 0.768899 11.6965 0.830499C12.7106 0.901699 13.6686 1.6101 13.9868 2.6817C13.3607 2.9305 12.7628 3.3447 12.2489 3.9657C12.265 3.8352 12.2795 3.7045 12.2921 3.5734C12.3424 3.0521 11.9878 2.6554 11.5704 2.6261C11.2888 2.6063 11.0157 2.7827 10.8176 3.137C10.0217 4.56 9.39417 5.8441 7.70887 9.155C7.56267 9.4433 7.43967 9.7417 7.34067 10.0473H6.99557C6.31127 10.0473 5.66327 10.203 5.08527 10.481V10.2542C5.08527 10.222 5.07247 10.1911 5.04967 10.1683C5.02687 10.1455 4.99597 10.1327 4.96377 10.1327H3.84377C3.01947 10.1328 2.35127 10.801 2.35127 11.6252V15.2341C2.35127 15.5274 2.43587 15.8009 2.58207 16.0316V18.2761Z" fill="black"/>
<path fill-rule="evenodd" clip-rule="evenodd" d="M10.8282 20.702C10.7571 21.0793 10.574 21.4296 10.2986 21.7049C9.93827 22.0652 9.44957 22.2677 8.93997 22.2677H7.72457C5.90617 22.2677 4.43207 20.7936 4.43207 18.9752V15.1898C4.43207 13.3714 5.90617 11.8973 7.72457 11.8973H8.93997C9.30217 11.8973 9.65377 11.9996 9.95627 12.1881C9.99697 12.1 10.0394 12.0126 10.0833 11.9259C11.8343 8.4864 12.4843 7.158 13.3078 5.6854C13.9339 4.566 14.9016 4.1747 15.7915 4.2372C17.1306 4.3313 18.3728 5.5214 18.2114 7.1936C18.1046 8.3001 17.8838 9.3854 17.6361 10.4609C18.9776 10.6102 19.9064 10.8106 20.8789 11.0604C22.1269 11.3809 23.15 12.4672 23.2494 13.6759C23.4002 15.5106 23.0912 17.7326 22.2126 19.3513C21.5475 20.5767 20.5638 21.4676 19.2615 21.7464L19.1784 21.7642C17.7544 22.0692 16.645 22.3068 14.5182 22.2624C13.0785 22.2322 11.7796 21.6418 10.8282 20.702ZM16.4198 7.0207C16.3121 8.1354 16.0774 9.2265 15.8236 10.3085C15.3409 10.2942 14.9297 10.666 14.8992 11.1516C14.868 11.6473 15.2451 12.0752 15.7408 12.1064C17.9872 12.2478 19.17 12.4799 20.4312 12.8038C20.9421 12.935 21.4148 13.3285 21.4554 13.8233C21.5794 15.3312 21.3527 17.1622 20.6306 18.4926C20.2285 19.2334 19.672 19.8177 18.8847 19.9863C17.548 20.2724 16.5347 20.5042 14.5559 20.4628C12.5918 20.4217 11.0204 18.8182 11.0192 16.8537L11.018 15.5477C11.0176 14.5723 11.2472 13.6107 11.6883 12.7408C13.4213 9.3365 14.0636 8.0217 14.8788 6.564C15.0855 6.1945 15.3716 6.0121 15.6653 6.0328C16.101 6.0634 16.4723 6.4766 16.4198 7.0207ZM9.02577 13.7329C9.04857 13.7556 9.06137 13.7865 9.06137 13.8187V20.3462C9.06137 20.3784 9.04857 20.4093 9.02577 20.4321C9.00307 20.4549 8.97217 20.4677 8.93997 20.4677H7.72457C6.90027 20.4677 6.23207 19.7995 6.23207 18.9752V15.1898C6.23207 14.3655 6.90027 13.6973 7.72447 13.6973H8.93987C8.97217 13.6973 9.00307 13.7101 9.02577 13.7329Z" fill="black"/>
</svg>
