<svg width="16" height="16" viewBox="0 0 16 16" fill="none" xmlns="http://www.w3.org/2000/svg">
<path fill-rule="evenodd" clip-rule="evenodd" d="M6.8434 7.94396C6.5798 7.79386 6.2748 7.70876 5.9499 7.70876H5.6638C5.0104 7.70876 4.3838 7.96826 3.9218 8.43036C3.4598 8.89236 3.2002 9.51896 3.2002 10.1724C3.2002 10.8607 3.2002 11.6573 3.2002 12.3457C3.2002 12.999 3.4598 13.6256 3.9218 14.0877C4.3838 14.5497 5.0104 14.8092 5.6638 14.8092H5.9499C6.6279 14.8092 7.2193 14.4387 7.5318 13.8883C8.1631 14.4439 8.98639 14.7868 9.8912 14.8058C11.306 14.8353 12.0309 14.6743 12.9866 14.4697C13.886 14.2772 14.57 13.6676 15.0294 12.8212C15.6127 11.7467 15.8211 10.2724 15.721 9.05436C15.65 8.19036 14.9254 7.40776 14.0333 7.17866C13.4615 7.03176 12.913 6.91096 12.1682 6.81776C12.3065 6.19716 12.4259 5.57086 12.4874 4.93376C12.6045 3.72106 11.6996 2.86136 10.7285 2.79316C10.0837 2.74786 9.3786 3.02466 8.9249 3.83586C8.4416 4.69996 8.0513 5.48646 7.1325 7.29526L7.1319 7.29646C7.02499 7.50776 6.9277 7.72336 6.8434 7.94396ZM6.1713 9.53016V12.9878C6.1712 13.1101 6.0721 13.2092 5.9499 13.2092H5.6638C5.4347 13.2092 5.2151 13.1182 5.0531 12.9563C4.8912 12.7943 4.8002 12.5747 4.8002 12.3456C4.8002 11.6573 4.8002 10.8607 4.8002 10.1724C4.8002 9.94326 4.8912 9.72366 5.0531 9.56166C5.2151 9.39976 5.4347 9.30876 5.6638 9.30876H5.9498C6.0721 9.30876 6.1712 9.40786 6.1713 9.53016ZM10.553 6.70586C10.6997 6.07176 10.8319 5.43236 10.8948 4.78006C10.9151 4.56996 10.7846 4.40096 10.6164 4.38916C10.5011 4.38106 10.4025 4.47176 10.3213 4.61686C9.8461 5.46656 9.4629 6.24046 8.55949 8.01896C8.10719 8.91296 7.8717 9.90086 7.87229 10.9029L7.8725 11.1119C7.8732 12.2519 8.78489 13.1823 9.9247 13.2061C11.1714 13.2322 11.8095 13.0855 12.6516 12.9052C13.0933 12.8106 13.3976 12.4736 13.6232 12.0579C14.0673 11.2397 14.2026 10.1129 14.1264 9.18546C14.1075 8.95576 13.8726 8.78926 13.6354 8.72836C12.8371 8.52336 12.0883 8.37676 10.6665 8.28726C10.2258 8.25956 9.89059 7.87926 9.91829 7.43856C9.94149 7.07146 10.2093 6.77746 10.553 6.70586ZM1.5002 11.9366C0.725395 11.5124 0.200195 10.6892 0.200195 9.74346V7.64296C0.200195 6.26226 1.3195 5.14306 2.7002 5.14296H2.9499C3.2748 5.14296 3.5798 5.22806 3.8434 5.37826C3.9277 5.15756 4.025 4.94206 4.1319 4.73066L4.1325 4.72956C5.0513 2.92076 5.4416 2.13416 5.9249 1.27016C6.3786 0.458962 7.08369 0.182062 7.7285 0.227362C8.3878 0.273662 9.0166 0.684862 9.3147 1.32416C8.7941 1.51706 8.2976 1.85326 7.8759 2.36996L7.8948 2.21426C7.9151 2.00426 7.7846 1.83526 7.6164 1.82346C7.5011 1.81536 7.4025 1.90596 7.3213 2.05106C6.8461 2.90086 6.4629 3.67476 5.5595 5.45316C5.4649 5.63996 5.3799 5.83096 5.3066 6.02646C4.5192 6.09236 3.7685 6.38246 3.144 6.86366C3.1092 6.79126 3.0352 6.74306 2.9498 6.74296H2.7001C2.2031 6.74306 1.8002 7.14596 1.8002 7.64296V8.62626C1.6032 9.11266 1.5002 9.63716 1.5002 10.1724V11.9366Z" fill="black"/>
</svg>
