<svg width="24" height="24" viewBox="0 0 24 24" fill="none" xmlns="http://www.w3.org/2000/svg">
<path fill-rule="evenodd" clip-rule="evenodd" d="M7.52994 17.2494L7.97994 19.5694C8.24994 20.9794 9.48994 21.9994 10.9199 21.9994C11.6499 21.9994 12.4999 21.9994 13.2299 21.9994C14.6799 21.9994 15.9199 20.9594 16.1799 19.5294L16.6099 17.1294C17.3599 16.0694 18.2399 15.0294 18.9499 13.9394C19.7999 12.6394 20.4099 11.2494 20.4099 9.71937C20.4099 5.09937 16.6599 1.35938 12.0499 1.35938C7.42994 1.35938 3.68994 5.09937 3.68994 9.71937C3.68994 11.2594 4.30994 12.6694 5.16994 14.0094C5.88994 15.1294 6.78994 16.1894 7.52994 17.2394V17.2494ZM9.44994 16.6594C9.42994 16.5194 9.36994 16.3994 9.29994 16.2794C9.29085 16.2663 9.28172 16.2533 9.27258 16.2402C8.51747 15.163 7.59097 14.0754 6.84994 12.9194C6.19994 11.9194 5.68994 10.8694 5.68994 9.71938C5.68994 6.20938 8.53994 3.35938 12.0499 3.35938C15.5599 3.35938 18.4099 6.20938 18.4099 9.71938C18.4099 10.8594 17.9099 11.8794 17.2699 12.8494C16.5299 13.9894 15.5999 15.0694 14.8399 16.1794C14.8256 16.199 14.8123 16.2193 14.7999 16.2402C14.7427 16.3362 14.7046 16.4444 14.6799 16.5594L14.3784 18.2402L14.2099 19.1794C14.1199 19.6494 13.7099 19.9994 13.2299 19.9994H10.9199C10.4399 19.9994 10.0299 19.6594 9.93994 19.1894L9.75612 18.2402L9.44994 16.6594Z" fill="black"/>
<path d="M11.3698 14.6505L11.1499 14.4306V16.2402H12.9499V14.3504L12.6498 14.6505C12.2898 15.0105 11.7198 15.0105 11.3698 14.6505Z" fill="black"/>
<path d="M12.9499 13.65C12.9499 13.15 12.5399 12.75 12.0499 12.75C11.5499 12.75 11.1499 13.15 11.1499 13.65V14.4306L11.3698 14.6505C11.7198 15.0105 12.2898 15.0105 12.6498 14.6505L12.9499 14.3504V13.65Z" fill="black"/>
<path d="M12.0499 12.75C12.5399 12.75 12.9499 13.15 12.9499 13.65V14.3504L14.7698 12.5305C15.1198 12.1805 15.1198 11.6105 14.7698 11.2605C14.4198 10.9105 13.8498 10.9105 13.4898 11.2605L12.0098 12.7505L10.5198 11.2605C10.1698 10.9105 9.5998 10.9105 9.2498 11.2605C8.8998 11.6105 8.8998 12.1805 9.2498 12.5305L11.1499 14.4306V13.65C11.1499 13.15 11.5499 12.75 12.0499 12.75Z" fill="black"/>
<path d="M11.1499 16.56C11.1499 17.06 11.5499 17.46 12.0499 17.46C12.5399 17.46 12.9499 17.06 12.9499 16.56V16.2402H11.1499V16.56Z" fill="black"/>
<path d="M9.29994 16.2794C9.36994 16.3994 9.42994 16.5194 9.44994 16.6594L9.75612 18.2402H14.3784L14.6799 16.5594C14.7046 16.4444 14.7427 16.3362 14.7999 16.2402H12.9499V16.56C12.9499 17.06 12.5399 17.46 12.0499 17.46C11.5499 17.46 11.1499 17.06 11.1499 16.56V16.2402H9.27258L9.29994 16.2794Z" fill="black"/>
</svg>
