<svg width="24" height="24" viewBox="0 0 24 24" fill="none" xmlns="http://www.w3.org/2000/svg">
<path fill-rule="evenodd" clip-rule="evenodd" d="M11.4501 20.9278H11.4401C7.81013 18.4978 4.84013 15.8978 3.13013 13.6578C-0.369873 9.07781 2.61013 3.62781 6.43013 3.08781C9.03013 2.71781 10.8101 3.81781 12.0001 5.29781C13.1901 3.81781 14.9601 2.71781 17.5701 3.08781C21.3901 3.62781 24.3701 9.07781 20.8701 13.6578C19.1601 15.8978 16.1901 18.4978 12.5601 20.9278C12.4001 21.0378 12.2001 21.0978 12.0001 21.0978C11.9801 21.0978 11.9501 21.0978 11.9301 21.0978H11.9201C11.9001 21.0978 11.8801 21.0878 11.8601 21.0878H11.8501C11.8301 21.0878 11.8001 21.0778 11.7801 21.0778C11.7501 21.0678 11.7301 21.0578 11.7101 21.0578C11.6801 21.0478 11.6601 21.0378 11.6401 21.0278C11.5901 21.0178 11.5501 20.9878 11.5101 20.9678H11.5001C11.4901 20.9578 11.4701 20.9478 11.4501 20.9278ZM12.0001 18.8878C8.83013 16.7078 6.24013 14.4378 4.72013 12.4478C2.30013 9.28781 4.07013 5.43781 6.71013 5.06781C9.02013 4.74781 10.3501 6.15781 11.1201 7.58781C11.2901 7.91781 11.6301 8.11781 12.0001 8.11781C12.3701 8.11781 12.7101 7.91781 12.8801 7.58781C13.6501 6.15781 14.9801 4.74781 17.2901 5.06781C19.9301 5.43781 21.7001 9.28781 19.2801 12.4478C17.7601 14.4378 15.1701 16.7078 12.0001 18.8878Z" fill="black"/>
</svg>
