<svg width="12" height="12" viewBox="0 0 12 12" fill="none" xmlns="http://www.w3.org/2000/svg">
<path fill-rule="evenodd" clip-rule="evenodd" d="M5.93714 11.1064H6.06314C6.20914 11.0954 6.35114 11.0464 6.47314 10.9644C8.41614 9.66237 10.0041 8.26937 10.9171 7.07537C12.9331 4.43437 11.1721 1.31337 8.97014 1.00237C7.63714 0.814368 6.67714 1.28737 6.00014 1.99237C5.32214 1.28737 4.36214 0.814368 3.02914 1.00237C0.828144 1.31337 -0.932856 4.43437 1.08314 7.07537C1.99514 8.26937 3.58314 9.66237 5.52614 10.9644C5.64914 11.0464 5.79014 11.0954 5.93714 11.1064ZM6.00014 9.22837C4.45314 8.14637 3.18514 7.02637 2.43414 6.04337C1.75314 5.15137 1.78414 4.15537 2.20514 3.46237C2.45214 3.05437 2.83014 2.74737 3.26714 2.68537C4.31314 2.53837 4.90414 3.19637 5.25014 3.84437C5.39814 4.12137 5.68614 4.29337 6.00014 4.29337C6.31314 4.29337 6.60114 4.12137 6.74914 3.84437C7.09614 3.19637 7.68714 2.53837 8.73214 2.68537C9.16914 2.74737 9.54714 3.05437 9.79515 3.46237C10.2151 4.15537 10.2461 5.15137 9.56514 6.04337C8.81414 7.02637 7.54614 8.14637 6.00014 9.22837Z" fill="black"/>
</svg>
