<svg width="16" height="16" viewBox="0 0 16 16" fill="none" xmlns="http://www.w3.org/2000/svg">
<path fill-rule="evenodd" clip-rule="evenodd" d="M7.93993 14.2013C7.93993 14.2013 7.97493 14.2013 7.99993 14.2013C8.02393 14.2013 8.05893 14.2013 8.05893 14.2013C8.19693 14.1913 8.32993 14.1413 8.44493 14.0613C10.8819 12.4313 12.8749 10.6913 14.0179 9.1913C16.4259 6.0413 14.3589 2.3013 11.7309 1.9313C10.0109 1.6913 8.81393 2.3713 7.99993 3.3313C7.18493 2.3713 5.98793 1.6913 4.26893 1.9313C1.63993 2.3013 -0.42707 6.0413 1.98093 9.1913C3.12493 10.6913 5.11793 12.4313 7.55393 14.0613C7.66893 14.1413 7.80193 14.1913 7.93993 14.2013ZM7.99993 12.4313C5.93593 11.0113 4.24493 9.5213 3.25193 8.2213C1.71293 6.2013 2.81193 3.7513 4.49293 3.5113C5.96493 3.3113 6.80593 4.2213 7.29393 5.1313C7.43293 5.3913 7.70393 5.5513 7.99993 5.5513C8.29493 5.5513 8.56593 5.3913 8.70493 5.1313C9.19293 4.2213 10.0339 3.3113 11.5069 3.5113C13.1869 3.7513 14.2859 6.2013 12.7469 8.2213C11.7539 9.5213 10.0629 11.0113 7.99993 12.4313Z" fill="black"/>
</svg>
