<svg width="12" height="12" viewBox="0 0 12 12" fill="none" xmlns="http://www.w3.org/2000/svg">
<path d="M4.47954 1C5.03183 1 5.47954 1.44772 5.47954 2C5.47954 2.51284 5.0935 2.93551 4.59616 2.99327L4.47954 3H3.99414C3.72892 3 3.47454 3.10536 3.28705 3.29291C3.13075 3.4492 3.03154 3.65188 3.00281 3.86856L2.99414 4V8C2.99414 8.51286 3.38015 8.93551 3.87751 8.99327L3.99414 9H7.99414C8.50695 9 8.92964 8.61395 8.98741 8.11662L8.99414 8V7.5007C8.99414 6.94842 9.44186 6.5007 9.99414 6.5007C10.507 6.5007 10.9296 6.88674 10.9874 7.38408L10.9941 7.5007V8C10.9941 9.59768 9.74518 10.9037 8.17041 10.9949L7.99414 11H3.99414C2.39643 11 1.09048 9.75111 0.999233 8.17628L0.994141 8V4C0.994141 3.20437 1.31021 2.44132 1.87274 1.87879C2.38839 1.363 3.07265 1.0544 3.79599 1.00655L3.99414 1H4.47954Z" fill="black"/>
<path d="M8.87682 1.70793C9.26734 1.31741 9.90051 1.31741 10.291 1.70793C10.6515 2.06842 10.6792 2.63565 10.3742 3.02794L10.291 3.12215L10.0001 3.41311L10 3.9444L10.0067 4.06102C10.0645 4.55836 10.4872 4.9444 11 4.9444C11.5523 4.9444 12 4.49669 12 3.9444V1L11.9933 0.883379C11.9355 0.38604 11.5129 0 11 0H8.07642L7.95979 0.00672773C7.46246 0.0644928 7.07642 0.487164 7.07642 1L7.08314 1.11662C7.14091 1.61396 7.56358 2 8.07642 2H8.58475L8.87682 1.70793Z" fill="black"/>
<path d="M5.42522 6.57375C5.81574 6.96427 6.44891 6.96427 6.83943 6.57375L10.0001 3.41311L10.0002 2H8.58475L5.42522 5.15953L5.34203 5.25374C5.037 5.64603 5.06473 6.21326 5.42522 6.57375Z" fill="black"/>
<path d="M10.291 1.70793C9.90051 1.31741 9.26734 1.31741 8.87682 1.70793L8.58475 2H10.0002L10.0001 3.41311L10.291 3.12215L10.3742 3.02794C10.6792 2.63565 10.6515 2.06842 10.291 1.70793Z" fill="black"/>
</svg>
