<svg width="24" height="24" viewBox="0 0 24 24" fill="none" xmlns="http://www.w3.org/2000/svg">
<path fill-rule="evenodd" clip-rule="evenodd" d="M9.04688 5H7.04688C5.72088 5 4.44887 5.53 3.51087 6.46C2.57388 7.4 2.04688 8.67 2.04688 10C2.04688 11.88 2.04688 14.12 2.04688 16C2.04688 18.76 4.28487 21 7.04688 21C8.92788 21 11.1659 21 13.0469 21C14.3729 21 15.6449 20.47 16.5819 19.54C17.5199 18.6 18.0469 17.33 18.0469 16C18.0469 14.9 18.0469 14 18.0469 14C18.0469 13.45 17.5989 13 17.0469 13C16.4949 13 16.0469 13.45 16.0469 14V16C16.0469 16.8 15.7309 17.56 15.1679 18.12C14.6059 18.68 13.8429 19 13.0469 19H7.04688C5.38987 19 4.04688 17.66 4.04688 16V10C4.04688 9.2 4.36287 8.44 4.92587 7.88C5.48787 7.32 6.25087 7 7.04688 7H9.04688C9.59888 7 10.0469 6.55 10.0469 6C10.0469 5.45 9.59888 5 9.04688 5ZM16.6419 5L9.97487 11.67C9.58388 12.06 9.58388 12.69 9.97487 13.08C10.3649 13.47 10.9989 13.47 11.3889 13.08L18.0589 6.41V9.63C18.0589 10.18 18.5069 10.63 19.0589 10.63C19.6109 10.63 20.0589 10.18 20.0589 9.63V4C20.0589 3.45 19.6109 3 19.0589 3H13.4809C12.9289 3 12.4809 3.45 12.4809 4C12.4809 4.55 12.9289 5 13.4809 5H16.6419Z" fill="black"/>
</svg>
