<svg width="16" height="16" viewBox="0 0 16 16" fill="none" xmlns="http://www.w3.org/2000/svg">
<path d="M1.18115 7.99999C1.18115 5.87 2.90526 4.14999 5.03115 4.14999H6.00015C6.46959 4.14999 6.85015 4.53055 6.85015 4.99999C6.85015 5.46944 6.46959 5.84999 6.00015 5.84999H5.03115C3.84304 5.84999 2.88115 6.80999 2.88115 7.99999V10.95C2.88115 11.5221 3.10591 12.0672 3.51223 12.48C3.91312 12.8773 4.45838 13.1 5.03115 13.1H8.01115C8.58494 13.1 9.13004 12.8773 9.5308 12.4803C9.93641 12.0674 10.1612 11.5221 10.1612 10.95V10.0009C10.1612 9.53144 10.5417 9.14999 11.0112 9.14999C11.4806 9.14999 11.8612 9.53055 11.8612 9.99999V10.95C11.8612 11.9766 11.455 12.95 10.7384 13.6768L10.7326 13.6827C10.0076 14.4038 9.02797 14.8 8.01115 14.8H5.03115C4.01518 14.8 3.03558 14.4036 2.31072 13.6826L2.30539 13.6773C1.58738 12.9504 1.18115 11.9766 1.18115 10.95V7.99999Z" fill="black"/>
<path d="M10.8721 3.83086L6.74012 7.97086C6.40812 8.30086 6.40812 8.84086 6.74012 9.17086C7.07212 9.50086 7.61012 9.50086 7.94212 9.17086L12.0761 5.03086V6.74086C12.0761 7.21086 12.4571 7.59086 12.9261 7.59086C13.3951 7.59086 13.7761 7.21086 13.7761 6.74086V2.98086C13.7761 2.51086 13.3951 2.13086 12.9261 2.13086H9.20712C8.73812 2.13086 8.35712 2.51086 8.35712 2.98086C8.35712 3.45086 8.73812 3.83086 9.20712 3.83086H10.8721Z" fill="black"/>
</svg>
