<svg width="24" height="24" viewBox="0 0 24 24" fill="none" xmlns="http://www.w3.org/2000/svg">
<path fill-rule="evenodd" clip-rule="evenodd" d="M11.9788 5.48345C12.0338 5.46155 12.1148 5.42825 12.1708 5.40065C12.3328 5.32035 12.5088 5.22475 12.7018 5.12915C13.3038 4.83015 14.0378 4.54395 14.9578 4.54395C16.3868 4.54395 17.3718 5.19985 18.3368 6.21565C19.4208 7.35665 20.4908 9.04325 22.7758 10.2421C23.2278 10.4794 23.4308 11.0176 23.2468 11.4942C21.7358 15.4271 18.9658 20.4112 12.1158 20.4112C5.25282 20.4112 2.31812 15.4366 0.721715 11.4947C0.530415 11.0224 0.722315 10.4816 1.16862 10.2356C3.42352 8.99265 4.48082 7.31515 5.55982 6.18725C6.51682 5.18625 7.49882 4.54395 8.92881 4.54395C10.0978 4.54395 10.8358 4.84805 11.3848 5.14675C11.5938 5.26055 11.8678 5.41895 11.9788 5.48345ZM21.0498 11.5693C19.3818 10.5194 18.3388 9.26375 17.4248 8.21135C16.6558 7.32555 16.0608 6.55665 14.9578 6.55665C14.1148 6.55665 13.5268 6.97575 13.0608 7.20585C12.6528 7.40705 12.2838 7.51705 11.9588 7.51705C11.5988 7.51705 11.2518 7.39665 10.8678 7.17455C10.4788 6.94975 9.97581 6.55665 8.92881 6.55665C7.82782 6.55665 7.23382 7.30345 6.47482 8.17715C5.57482 9.21345 4.55282 10.4595 2.92042 11.5289C4.32582 14.7148 6.76582 18.3985 12.1158 18.3985C17.4208 18.3985 19.7258 14.7319 21.0498 11.5693Z" fill="black"/>
<path d="M8.98482 13.0525C8.49882 12.8096 8.30082 12.2177 8.54382 11.7315C8.78682 11.2452 9.37882 11.0477 9.86482 11.2905C10.3358 11.5258 11.1948 11.6086 12.0328 11.607C12.8458 11.6055 13.6508 11.5354 14.0458 11.3131C14.5198 11.0468 15.1208 11.2152 15.3868 11.689C15.6538 12.1628 15.4848 12.7638 15.0108 13.0301C14.5278 13.3017 13.6588 13.5003 12.6918 13.557C11.3268 13.637 9.77382 13.4466 8.98482 13.0525Z" fill="black"/>
</svg>
