<svg width="16" height="16" viewBox="0 0 16 16" fill="none" xmlns="http://www.w3.org/2000/svg">
<path fill-rule="evenodd" clip-rule="evenodd" d="M2.9707 11.5105C3.7987 11.5105 4.4707 12.1825 4.4707 13.0105C4.4707 13.8385 3.7987 14.5105 2.9707 14.5105C2.1427 14.5105 1.4707 13.8385 1.4707 13.0105C1.4707 12.1825 2.1427 11.5105 2.9707 11.5105ZM6.6977 13.8005H13.3327C13.7747 13.8005 14.1327 13.4425 14.1327 13.0005C14.1327 12.5585 13.7747 12.2005 13.3327 12.2005H6.6977C6.2557 12.2005 5.8977 12.5585 5.8977 13.0005C5.8977 13.4425 6.2557 13.8005 6.6977 13.8005ZM2.9707 6.53153C3.7987 6.53153 4.4707 7.20353 4.4707 8.03153C4.4707 8.85953 3.7987 9.53153 2.9707 9.53153C2.1427 9.53153 1.4707 8.85953 1.4707 8.03153C1.4707 7.20353 2.1427 6.53153 2.9707 6.53153ZM6.6977 8.80053H13.3327C13.7747 8.80053 14.1327 8.44253 14.1327 8.00053C14.1327 7.55853 13.7747 7.20053 13.3327 7.20053H6.6977C6.2557 7.20053 5.8977 7.55853 5.8977 8.00053C5.8977 8.44253 6.2557 8.80053 6.6977 8.80053ZM2.9707 1.51953C3.7987 1.51953 4.4707 2.19153 4.4707 3.01953C4.4707 3.84753 3.7987 4.51953 2.9707 4.51953C2.1427 4.51953 1.4707 3.84753 1.4707 3.01953C1.4707 2.19153 2.1427 1.51953 2.9707 1.51953ZM6.6977 3.80053H13.3327C13.7747 3.80053 14.1327 3.44253 14.1327 3.00053C14.1327 2.55853 13.7747 2.20053 13.3327 2.20053H6.6977C6.2557 2.20053 5.8977 2.55853 5.8977 3.00053C5.8977 3.44253 6.2557 3.80053 6.6977 3.80053Z" fill="black"/>
</svg>
