<svg width="24" height="24" viewBox="0 0 24 24" fill="none" xmlns="http://www.w3.org/2000/svg">
<path fill-rule="evenodd" clip-rule="evenodd" d="M4.05 17.2051C5.04 17.2051 5.84 18.0091 5.84 19.0001C5.84 19.9911 5.04 20.7951 4.05 20.7951C3.06 20.7951 2.25 19.9911 2.25 19.0001C2.25 18.0091 3.06 17.2051 4.05 17.2051ZM10.05 20.0001H20C20.55 20.0001 21 19.5521 21 19.0001C21 18.4481 20.55 18.0001 20 18.0001H10.05C9.49 18.0001 9.05 18.4481 9.05 19.0001C9.05 19.5521 9.49 20.0001 10.05 20.0001ZM4.05 10.2051C5.04 10.2051 5.84 11.0091 5.84 12.0001C5.84 12.9911 5.04 13.7951 4.05 13.7951C3.06 13.7951 2.25 12.9911 2.25 12.0001C2.25 11.0091 3.06 10.2051 4.05 10.2051ZM10.05 13.0001H20C20.55 13.0001 21 12.5521 21 12.0001C21 11.4481 20.55 11.0001 20 11.0001H10.05C9.49 11.0001 9.05 11.4481 9.05 12.0001C9.05 12.5521 9.49 13.0001 10.05 13.0001ZM4.05 3.20508C5.04 3.20508 5.84 4.00908 5.84 5.00008C5.84 5.99108 5.04 6.79508 4.05 6.79508C3.06 6.79508 2.25 5.99108 2.25 5.00008C2.25 4.00908 3.06 3.20508 4.05 3.20508ZM10.05 6.00008H20C20.55 6.00008 21 5.55208 21 5.00008C21 4.44808 20.55 4.00008 20 4.00008H10.05C9.49 4.00008 9.05 4.44808 9.05 5.00008C9.05 5.55208 9.49 6.00008 10.05 6.00008Z" fill="black"/>
</svg>
