<svg width="24" height="24" viewBox="0 0 24 24" fill="none" xmlns="http://www.w3.org/2000/svg">
<path d="M20.0003 6.00049H10.0503C9.49029 6.00049 9.05029 5.55249 9.05029 5.00049C9.05029 4.44849 9.49029 4.00049 10.0503 4.00049H20.0003C20.5503 4.00049 21.0003 4.44849 21.0003 5.00049C21.0003 5.55249 20.5503 6.00049 20.0003 6.00049Z" fill="black"/>
<path d="M10.0503 13.0005H20.0003C20.5503 13.0005 21.0003 12.5525 21.0003 12.0005C21.0003 11.4485 20.5503 11.0005 20.0003 11.0005H10.0503C9.49029 11.0005 9.05029 11.4485 9.05029 12.0005C9.05029 12.5525 9.49029 13.0005 10.0503 13.0005Z" fill="black"/>
<path d="M10.0503 20.0005H20.0003C20.5503 20.0005 21.0003 19.5525 21.0003 19.0005C21.0003 18.4485 20.5503 18.0005 20.0003 18.0005H10.0503C9.49029 18.0005 9.05029 18.4485 9.05029 19.0005C9.05029 19.5525 9.49029 20.0005 10.0503 20.0005Z" fill="black"/>
<path d="M5.4285 18.4264C5.72856 18.1601 5.90996 17.7951 5.90996 17.3831C5.90996 16.4999 5.10939 15.9004 4.06108 15.9004C3.58596 15.9004 3.10811 16.0479 2.74708 16.2723C2.39158 16.4933 2.12252 16.8073 2.12252 17.1514C2.12252 17.4596 2.36801 17.7073 2.67095 17.7073C2.96399 17.7073 3.13386 17.5848 3.29206 17.4707L3.33697 17.4385C3.50346 17.3204 3.68899 17.2065 4.06108 17.2065C4.23487 17.2065 4.3618 17.245 4.44233 17.3021C4.51946 17.3568 4.55899 17.4314 4.55899 17.5251C4.55899 17.6254 4.51875 17.7045 4.4462 17.761C4.37125 17.8194 4.2548 17.8585 4.09845 17.8585H3.67992C3.32034 17.8585 3.02685 18.1035 3.02685 18.4668C3.02685 18.8282 3.31832 19.0825 3.67992 19.0825H4.12835C4.31868 19.0825 4.45406 19.1215 4.53914 19.1824C4.61962 19.24 4.66363 19.3228 4.66363 19.4384C4.66363 19.5428 4.61483 19.6271 4.52068 19.6894C4.42328 19.7538 4.27623 19.7943 4.09098 19.7943C3.72191 19.7943 3.51506 19.678 3.32919 19.5565C3.3108 19.5444 3.29238 19.5322 3.27385 19.5198C3.10396 19.4065 2.92329 19.286 2.64853 19.286C2.34559 19.286 2.1001 19.5337 2.1001 19.8419C2.1001 20.1988 2.3569 20.5151 2.71772 20.7362C3.08219 20.9596 3.57326 21.1004 4.09098 21.1004C5.18581 21.1004 6.00712 20.4697 6.00712 19.543C6.00712 19.0703 5.79507 18.6807 5.4285 18.4264Z" fill="black"/>
<path d="M4.05818 11.3724L2.38502 12.826C2.2082 12.9776 2.1001 13.1706 2.1001 13.4095C2.1001 13.8097 2.41422 14.1004 2.81373 14.1004H5.32131C5.68624 14.1004 5.97434 13.8217 5.97434 13.4474C5.97434 13.0824 5.69562 12.7943 5.32131 12.7943H4.4095L4.90023 12.388L4.90225 12.3863C5.56769 11.805 5.93646 11.2948 5.93646 10.6065C5.93646 9.61695 5.12352 8.90039 4.04101 8.90039C3.45721 8.90039 2.97835 9.07086 2.64313 9.30902C2.31224 9.5441 2.10767 9.85653 2.10767 10.1443C2.10767 10.4874 2.35699 10.7216 2.66979 10.7216C2.97308 10.7216 3.15869 10.5913 3.32788 10.4725L3.35489 10.4536C3.52849 10.3323 3.70079 10.2216 4.0107 10.2216C4.18354 10.2216 4.31151 10.2739 4.39511 10.3499C4.47832 10.4256 4.52434 10.5309 4.52434 10.6519C4.52434 10.7629 4.5007 10.8582 4.43417 10.9658C4.36534 11.0771 4.24899 11.204 4.05818 11.3724Z" fill="black"/>
<path d="M3.66307 2.17537C3.76864 2.12259 3.90697 2.08789 4.03087 2.08789C4.42622 2.08789 4.73087 2.39588 4.73087 2.80328V6.57251C4.73087 6.97138 4.42703 7.28789 4.03087 7.28789C3.63031 7.28789 3.31548 6.9824 3.31548 6.57251V3.94373L3.1651 4.02856C3.04299 4.09828 2.91044 4.13404 2.77702 4.13404C2.36805 4.13404 2.1001 3.79676 2.1001 3.44174C2.1001 3.17936 2.24558 2.93957 2.49794 2.80033L2.49898 2.79976L3.66307 2.17537Z" fill="black"/>
</svg>
