<svg width="12" height="12" viewBox="0 0 12 12" fill="none" xmlns="http://www.w3.org/2000/svg">
<path fill-rule="evenodd" clip-rule="evenodd" d="M1.972 9C2.509 9 2.945 9.436 2.945 9.972C2.945 10.509 2.509 10.945 1.972 10.945C1.436 10.945 1 10.509 1 9.972C1 9.436 1.436 9 1.972 9ZM5.235 10.791H10.627C11.068 10.791 11.427 10.433 11.427 9.991C11.427 9.55 11.068 9.191 10.627 9.191H5.235C4.794 9.191 4.435 9.55 4.435 9.991C4.435 10.433 4.794 10.791 5.235 10.791ZM1.972 5C2.509 5 2.945 5.436 2.945 5.972C2.945 6.509 2.509 6.945 1.972 6.945C1.436 6.945 1 6.509 1 5.972C1 5.436 1.436 5 1.972 5ZM5.235 6.791H10.627C11.068 6.791 11.427 6.433 11.427 5.991C11.427 5.55 11.068 5.191 10.627 5.191H5.235C4.794 5.191 4.435 5.55 4.435 5.991C4.435 6.433 4.794 6.791 5.235 6.791ZM1.972 1C2.509 1 2.945 1.436 2.945 1.972C2.945 2.509 2.509 2.945 1.972 2.945C1.436 2.945 1 2.509 1 1.972C1 1.436 1.436 1 1.972 1ZM5.235 2.791H10.627C11.068 2.791 11.427 2.433 11.427 1.991C11.427 1.55 11.068 1.191 10.627 1.191H5.235C4.794 1.191 4.435 1.55 4.435 1.991C4.435 2.433 4.794 2.791 5.235 2.791Z" fill="black"/>
</svg>
