<svg width="24" height="24" viewBox="0 0 24 24" fill="none" xmlns="http://www.w3.org/2000/svg">
<path fill-rule="evenodd" clip-rule="evenodd" d="M14.0181 21.9671L14.0211 21.9651C15.2871 20.8281 17.2041 19.0211 18.8301 17.1401C20.9261 14.7161 21.6231 12.4591 21.6231 10.6541C21.6231 5.34706 17.3231 1.03906 12.0281 1.03906C6.73213 1.03906 2.43213 5.34706 2.43213 10.6541C2.43213 12.4601 3.01613 14.7871 5.15613 17.1131C6.89213 19.0001 8.76613 20.7961 9.98913 21.9311L9.99113 21.9331C11.1251 22.9791 12.8671 22.9931 14.0181 21.9671ZM12.6861 20.4751C12.3041 20.8161 11.7251 20.8111 11.3471 20.4631C10.1531 19.3551 8.32313 17.6011 6.62813 15.7591C4.93113 13.9151 4.43213 12.0861 4.43213 10.6541C4.43213 6.45206 7.83513 3.03906 12.0281 3.03906C16.2211 3.03906 19.6231 6.45206 19.6231 10.6541C19.6231 12.1031 19.0001 13.8861 17.3171 15.8321C15.7531 17.6421 13.9061 19.3791 12.6871 20.4751H12.6861ZM12.0501 6.86006C9.93513 6.86006 8.21713 8.57806 8.21713 10.6931C8.21713 12.8091 9.93513 14.5271 12.0501 14.5271C14.1661 14.5271 15.8831 12.8091 15.8831 10.6931C15.8831 8.57806 14.1661 6.86006 12.0501 6.86006ZM12.0501 8.86006C13.0621 8.86006 13.8831 9.68106 13.8831 10.6931C13.8831 11.7051 13.0621 12.5271 12.0501 12.5271C11.0381 12.5271 10.2171 11.7051 10.2171 10.6931C10.2171 9.68106 11.0381 8.86006 12.0501 8.86006Z" fill="black"/>
</svg>
