<svg width="16" height="16" viewBox="0 0 16 16" fill="none" xmlns="http://www.w3.org/2000/svg">
<path fill-rule="evenodd" clip-rule="evenodd" d="M9.40828 14.9873L9.41028 14.9853C10.2573 14.2263 11.5553 13.0053 12.6553 11.7343C14.0793 10.0863 14.5493 8.5503 14.5493 7.3233C14.5493 3.7113 11.6223 0.779297 8.01828 0.779297C4.41528 0.779297 1.48828 3.7113 1.48828 7.3233C1.48828 8.5523 1.88328 10.1363 3.33928 11.7193C4.51128 12.9923 5.77728 14.2043 6.59328 14.9623L6.59528 14.9643C7.38728 15.6933 8.60428 15.7043 9.40828 14.9873ZM8.34428 13.7933C8.15428 13.9623 7.86728 13.9593 7.67928 13.7873C6.88628 13.0503 5.65528 11.8733 4.51728 10.6363C3.41528 9.4393 3.08828 8.2523 3.08828 7.3233C3.08828 4.5953 5.29728 2.3793 8.01828 2.3793C10.7403 2.3793 12.9493 4.5953 12.9493 7.3233C12.9493 8.2653 12.5383 9.4223 11.4443 10.6873C10.3943 11.9023 9.15428 13.0673 8.34428 13.7933ZM8.03328 4.6603C6.54928 4.6603 5.34528 5.8653 5.34528 7.3493C5.34528 8.8333 6.54928 10.0383 8.03328 10.0383C9.51728 10.0383 10.7223 8.8333 10.7223 7.3493C10.7223 5.8653 9.51728 4.6603 8.03328 4.6603ZM8.03328 6.2603C8.63428 6.2603 9.12228 6.7483 9.12228 7.3493C9.12228 7.9503 8.63428 8.4383 8.03328 8.4383C7.43228 8.4383 6.94528 7.9503 6.94528 7.3493C6.94528 6.7483 7.43228 6.2603 8.03328 6.2603Z" fill="black"/>
</svg>
