<svg width="12" height="12" viewBox="0 0 12 12" fill="none" xmlns="http://www.w3.org/2000/svg">
<path fill-rule="evenodd" clip-rule="evenodd" d="M7.06447 11.408L7.06587 11.4066C7.69117 10.802 8.73777 9.76032 9.61487 8.74572C10.7249 7.46182 11.0845 6.26252 11.0845 5.30672C11.0845 2.48732 8.79967 0.199219 5.98657 0.199219C3.17347 0.199219 0.888672 2.48732 0.888672 5.30672C0.888672 6.26562 1.19347 7.50402 2.32997 8.73922C3.26327 9.75342 4.27647 10.7842 4.87597 11.3858L4.87697 11.3869C5.47867 11.9885 6.45127 11.9979 7.06447 11.408ZM5.98127 10.2295C5.39287 9.63742 4.41187 8.63872 3.50747 7.65582C2.72577 6.80632 2.48867 5.96632 2.48867 5.30672C2.48867 3.37142 4.05547 1.79922 5.98657 1.79922C7.91757 1.79922 9.48447 3.37142 9.48447 5.30672C9.48447 5.97762 9.18357 6.79812 8.40447 7.69932C7.57417 8.65972 6.58527 9.64482 5.98127 10.2295ZM5.99117 3.25602C4.82297 3.25602 3.87447 4.20442 3.87447 5.37262C3.87447 6.54082 4.82297 7.48932 5.99117 7.48932C7.15937 7.48932 8.10777 6.54082 8.10777 5.37262C8.10777 4.20442 7.15937 3.25602 5.99117 3.25602ZM5.99117 4.65602C6.38667 4.65602 6.70777 4.97712 6.70777 5.37262C6.70777 5.76812 6.38667 6.08932 5.99117 6.08932C5.59557 6.08932 5.27447 5.76812 5.27447 5.37262C5.27447 4.97712 5.59557 4.65602 5.99117 4.65602Z" fill="black"/>
</svg>
