<svg width="24" height="24" viewBox="0 0 24 24" fill="none" xmlns="http://www.w3.org/2000/svg">
<path fill-rule="evenodd" clip-rule="evenodd" d="M3.03096 7.30806L4.63396 8.91206C4.50096 9.47006 4.43196 10.0541 4.43196 10.6541C4.43196 12.0861 4.93096 13.9151 6.62796 15.7591C8.32296 17.6011 10.153 19.3551 11.347 20.4631C11.725 20.8111 12.304 20.8161 12.686 20.4751H12.687C13.203 20.0111 13.831 19.4331 14.501 18.7781L15.915 20.1921C15.215 20.8771 14.559 21.4811 14.021 21.9651L14.018 21.9671C12.867 22.9931 11.125 22.9791 9.99096 21.9331L9.98896 21.9311C8.76596 20.7961 6.89196 19.0001 5.15596 17.1131C3.01596 14.7871 2.43196 12.4601 2.43196 10.6541C2.43196 9.47706 2.64296 8.34906 3.03096 7.30806ZM5.38196 3.72806C7.10496 2.06106 9.44796 1.03906 12.028 1.03906C17.323 1.03906 21.623 5.34706 21.623 10.6541C21.623 12.4591 20.926 14.7161 18.83 17.1401L18.813 17.1591L21.817 20.1631C22.246 20.5921 22.246 21.2891 21.817 21.7181C21.387 22.1481 20.69 22.1481 20.261 21.7181L1.71996 3.17706C1.28996 2.74806 1.28996 2.05106 1.71996 1.62106C2.14896 1.19206 2.84596 1.19206 3.27496 1.62106L5.38196 3.72806ZM17.393 15.7391C19.019 13.8321 19.623 12.0811 19.623 10.6541C19.623 6.45206 16.221 3.03906 12.028 3.03906C9.99996 3.03906 8.15696 3.83706 6.79696 5.14306L9.50196 7.84806C10.175 7.22906 11.07 6.86006 12.05 6.86006C14.166 6.86006 15.883 8.57806 15.883 10.6931C15.883 11.6761 15.513 12.5731 14.902 13.2491L17.393 15.7391ZM13.481 11.8271L10.917 9.26306C11.227 9.00706 11.621 8.86006 12.05 8.86006C13.062 8.86006 13.883 9.68106 13.883 10.6931C13.883 11.1251 13.734 11.5221 13.481 11.8271Z" fill="black"/>
</svg>
