<svg width="16" height="16" viewBox="0 0 16 16" fill="none" xmlns="http://www.w3.org/2000/svg">
<path fill-rule="evenodd" clip-rule="evenodd" d="M4.5332 5.65247C3.1822 6.06547 2.2002 7.32247 2.2002 8.80847C2.2002 9.64747 2.2002 10.5985 2.2002 11.4995C2.2002 13.8745 4.1252 15.7995 6.5002 15.7995H9.5002C11.8752 15.7995 13.8002 13.8745 13.8002 11.4995C13.8002 10.5985 13.8002 9.64747 13.8002 8.80847C13.8002 7.32247 12.8172 6.06547 11.4662 5.65247V4.74447C11.4662 3.81247 11.0962 2.91947 10.4372 2.26047C9.7782 1.60147 8.8842 1.23047 7.9522 1.23047C7.0462 1.23047 6.1752 1.59047 5.5342 2.23147C4.8932 2.87247 4.5332 3.74247 4.5332 4.64847V5.65247ZM10.5002 7.10847C11.4392 7.10847 12.2002 7.86947 12.2002 8.80847C12.2002 9.64747 12.2002 10.5985 12.2002 11.4995C12.2002 12.9905 10.9912 14.1995 9.5002 14.1995H6.5002C5.0092 14.1995 3.8002 12.9905 3.8002 11.4995C3.8002 10.5985 3.8002 9.64747 3.8002 8.80847C3.8002 7.86947 4.5612 7.10847 5.5002 7.10847H10.5002ZM7.3372 11.0865C6.9682 10.8635 6.7222 10.4585 6.7222 9.99547C6.7222 9.29147 7.2932 8.72047 7.9972 8.72047C8.7012 8.72047 9.27219 9.29147 9.27219 9.99547C9.27219 10.4535 9.0312 10.8545 8.6692 11.0795V12.3265C8.6692 12.6765 8.3852 12.9605 8.0352 12.9605C8.0142 12.9605 7.9922 12.9605 7.9702 12.9605C7.6202 12.9605 7.3372 12.6765 7.3372 12.3265V11.0865ZM9.8662 5.50847V4.74447C9.8662 4.23747 9.6652 3.75047 9.3062 3.39147C8.9472 3.03247 8.4602 2.83047 7.9522 2.83047C7.4702 2.83047 7.0072 3.02247 6.6662 3.36347C6.3252 3.70447 6.1332 4.16647 6.1332 4.64847V5.50847H9.8662Z" fill="black"/>
</svg>
