<svg width="12" height="12" viewBox="0 0 12 12" fill="none" xmlns="http://www.w3.org/2000/svg">
<path fill-rule="evenodd" clip-rule="evenodd" d="M3.28397 4.21843C2.30197 4.34573 1.54297 5.18513 1.54297 6.20163V8.66323C1.54297 10.3937 2.94597 11.7965 4.67697 11.7965H7.29697C9.02697 11.7965 10.43 10.3937 10.43 8.66323V6.20163C10.43 5.18343 9.66897 4.34303 8.68497 4.21773V3.31133C8.68497 2.59533 8.40097 1.90853 7.89397 1.40213C7.38797 0.895828 6.70097 0.611328 5.98497 0.611328C5.26897 0.611328 4.58097 0.895828 4.07397 1.40213C3.56797 1.90853 3.28397 2.59523 3.28397 3.31133V4.21843ZM8.42997 5.80163C8.65097 5.80163 8.82997 5.98073 8.82997 6.20163V8.66323C8.82997 9.51003 8.14297 10.1965 7.29697 10.1965H4.67697C3.82997 10.1965 3.14297 9.51003 3.14297 8.66323V6.20173C3.14297 5.98073 3.32197 5.80163 3.54297 5.80163H8.42997ZM5.18997 7.34103V8.34103C5.18997 8.78263 5.54797 9.14103 5.98997 9.14103C6.43097 9.14103 6.78997 8.78263 6.78997 8.34103V7.34103C6.78997 6.89953 6.43097 6.54103 5.98997 6.54103C5.54797 6.54103 5.18997 6.89953 5.18997 7.34103ZM7.08497 4.20163V3.31133C7.08497 3.01963 6.96897 2.73983 6.76297 2.53353C6.55697 2.32723 6.27697 2.21133 5.98497 2.21133C5.69297 2.21133 5.41197 2.32723 5.20597 2.53353C4.99897 2.73983 4.88397 3.01963 4.88397 3.31143V4.20163H7.08497Z" fill="black"/>
</svg>
