<svg width="24" height="24" viewBox="0 0 24 24" fill="none" xmlns="http://www.w3.org/2000/svg">
<path fill-rule="evenodd" clip-rule="evenodd" d="M12 1C18.07 1 23 5.929 23 12C23 18.071 18.07 23 12 23C5.93 23 1 18.071 1 12C1 5.929 5.93 1 12 1ZM8.2 9.016C7.64 9.079 7.12 9.327 6.72 9.725C6.26 10.189 6 10.818 6 11.474C6 12.588 6 14.156 6 15.531C6 16.593 6.42 17.611 7.17 18.362C7.92 19.113 8.94 19.535 10 19.535H14C15.06 19.535 16.08 19.113 16.83 18.362C17.58 17.611 18 16.593 18 15.531C18 14.156 18 12.588 18 11.474C18 10.818 17.74 10.189 17.28 9.725C16.87 9.324 16.35 9.075 15.79 9.015V7.818C15.79 5.718 14.09 4.016 11.99 4.016C9.89 4.016 8.19 5.715 8.19 7.81V9.009L8.2 9.016ZM8.47 11H15.53C15.65 11 15.77 11.05 15.86 11.139C15.95 11.228 16 11.348 16 11.474V15.531C16 16.062 15.79 16.572 15.41 16.948C15.04 17.324 14.53 17.535 14 17.535H10C9.47 17.535 8.96 17.324 8.59 16.948C8.21 16.572 8 16.062 8 15.531V11.474C8 11.348 8.05 11.228 8.14 11.139C8.23 11.05 8.35 11 8.47 11ZM12.99 12.948C12.99 12.73 12.9 12.52 12.75 12.366C12.59 12.211 12.38 12.124 12.17 12.124C12.05 12.124 11.93 12.124 11.82 12.124C11.6 12.124 11.39 12.211 11.23 12.366C11.08 12.52 10.99 12.73 10.99 12.948C10.99 13.567 10.99 14.411 10.99 15.029C10.99 15.248 11.08 15.457 11.23 15.612C11.39 15.766 11.6 15.853 11.82 15.853C11.93 15.853 12.05 15.853 12.17 15.853C12.38 15.853 12.59 15.766 12.75 15.612C12.9 15.457 12.99 15.248 12.99 15.029C12.99 14.411 12.99 13.567 12.99 12.948ZM13.79 9V7.818C13.79 6.823 12.99 6.016 11.99 6.016C11 6.016 10.19 6.819 10.19 7.81V9H13.79Z" fill="black"/>
</svg>
