<svg width="24" height="24" viewBox="0 0 24 24" fill="none" xmlns="http://www.w3.org/2000/svg">
<path fill-rule="evenodd" clip-rule="evenodd" d="M7 9.02978C5.3 9.27178 4 10.7308 4 12.4938V18.0008C4 20.7618 6.24 23.0008 9 23.0008C10.88 23.0008 13.12 23.0008 15 23.0008C17.76 23.0008 20 20.7618 20 18.0008V12.4938C20 10.7308 18.7 9.27178 17 9.02978V7.42378C17 4.66378 14.76 2.42678 12 2.42578C9.24 2.42678 7 4.66378 7 7.42378V9.02978ZM16.5 10.9938C17.33 10.9938 18 11.6658 18 12.4938V18.0008C18 19.6578 16.66 21.0008 15 21.0008H9C7.34 21.0008 6 19.6578 6 18.0008V12.4938C6 11.6658 6.67 10.9938 7.5 10.9938H16.5ZM11.01 16.4208C10.55 16.1078 10.26 15.5858 10.26 14.9948C10.26 14.0368 11.04 13.2578 12 13.2578C12.95 13.2578 13.73 14.0368 13.73 14.9948C13.73 15.5788 13.44 16.0948 13 16.4088V18.6178C13 18.8358 12.92 19.0458 12.76 19.2008C12.61 19.3548 12.4 19.4418 12.18 19.4418C12.06 19.4418 11.94 19.4418 11.83 19.4418C11.61 19.4418 11.4 19.3548 11.25 19.2008C11.09 19.0458 11.01 18.8358 11.01 18.6178V16.4208ZM15 8.99378V7.42378C15 5.76878 13.66 4.42678 12 4.42578C10.34 4.42678 9 5.76878 9 7.42478V8.99378H15Z" fill="black"/>
</svg>
