<svg width="16" height="16" viewBox="0 0 16 16" fill="none" xmlns="http://www.w3.org/2000/svg">
<path fill-rule="evenodd" clip-rule="evenodd" d="M7.96488 2.15039H5.00088C2.87488 2.15039 1.15088 3.88039 1.15088 6.00039C1.15088 7.27039 1.15088 8.73039 1.15088 10.0004C1.15088 11.0204 1.55688 12.0004 2.27888 12.7204C3.00088 13.4404 3.97988 13.8504 5.00088 13.8504C6.50088 13.8504 7.99988 13.8504 7.99988 13.8504C8.46888 13.8504 8.84988 13.4704 8.84988 13.0004C8.84988 12.5304 8.46888 12.1504 7.99988 12.1504C7.99988 12.1504 6.50088 12.1504 5.00088 12.1504C4.43088 12.1504 3.88388 11.9204 3.48088 11.5204C3.07788 11.1104 2.85088 10.5704 2.85088 10.0004V6.00039C2.85088 4.82039 3.81388 3.85039 5.00088 3.85039H7.96488C8.43388 3.85039 8.81488 3.47039 8.81488 3.00039C8.81488 2.53039 8.43388 2.15039 7.96488 2.15039ZM12.5459 7.15039H6.68488C6.21588 7.15039 5.83488 7.53039 5.83488 8.00039C5.83488 8.47039 6.21588 8.85039 6.68488 8.85039H12.5459L10.5419 10.8604C10.2099 11.1904 10.2099 11.7304 10.5419 12.0604C10.8739 12.3904 11.4119 12.3904 11.7439 12.0604L15.1989 8.60039C15.5309 8.27039 15.5309 7.73039 15.1989 7.40039L11.7439 3.95039C11.4119 3.62039 10.8739 3.62039 10.5419 3.95039C10.2099 4.28039 10.2099 4.82039 10.5419 5.15039L12.5459 7.15039Z" fill="black"/>
</svg>
