<svg width="16" height="16" viewBox="0 0 16 16" fill="none" xmlns="http://www.w3.org/2000/svg">
<path fill-rule="evenodd" clip-rule="evenodd" d="M7.98717 7.94095C8.96647 7.94095 9.85097 7.54075 10.4933 6.89845C11.1357 6.25615 11.5358 5.37165 11.5358 4.39235C11.5358 3.41305 11.1357 2.52855 10.4933 1.88625C9.85097 1.24385 8.96647 0.84375 7.98717 0.84375C7.00787 0.84375 6.12337 1.24385 5.48107 1.88625C4.83877 2.52855 4.43857 3.41305 4.43857 4.39235C4.43857 5.37165 4.83877 6.25615 5.48107 6.89845C6.12337 7.54075 7.00787 7.94095 7.98717 7.94095ZM6.84997 3.24455C7.14477 2.94975 7.54487 2.77075 7.98717 2.77075C8.42947 2.77075 8.82957 2.96025 9.12437 3.24455C9.41927 3.53945 9.59827 3.93955 9.59827 4.38185C9.59827 4.82405 9.41927 5.22425 9.12437 5.51905C8.82957 5.81385 8.42947 5.99285 7.98717 5.99285C7.54487 5.99285 7.14477 5.81385 6.84997 5.51905C6.55507 5.22425 6.37607 4.82405 6.37607 4.38185C6.37607 3.93955 6.55507 3.53945 6.84997 3.24455Z" fill="black"/>
<path d="M11.7148 7.95145L12.7573 9.37305C12.8099 9.44675 12.7994 9.54145 12.7257 9.59415C11.8517 10.3101 10.8303 10.784 9.76678 11.0367L11.778 14.9117C11.8306 15.0275 11.7569 15.1539 11.6306 15.1539H9.48248C9.41928 15.1539 9.35608 15.1118 9.32448 15.0486L7.98718 11.8475L6.63938 15.0381C6.61828 15.1012 6.55508 15.1434 6.48138 15.1434H4.33328C4.20698 15.1434 4.13318 15.0065 4.18588 14.9012L6.19708 11.0367C5.13358 10.784 4.12268 10.3101 3.23818 9.59415C3.17498 9.54145 3.15398 9.43615 3.20658 9.37305L4.24908 7.95145C4.31228 7.86725 4.41758 7.85665 4.49128 7.91985C5.47058 8.75175 6.68148 9.29925 7.97668 9.29925C9.27188 9.29925 10.4723 8.76225 11.4621 7.91985C11.5463 7.85665 11.6622 7.86725 11.7148 7.95145Z" fill="black"/>
</svg>
