<svg width="24" height="24" viewBox="0 0 24 24" fill="none" xmlns="http://www.w3.org/2000/svg">
<path fill-rule="evenodd" clip-rule="evenodd" d="M12.105 3C12.105 3 9.44595 3 7.00195 3C4.23995 3 2.00195 5.24 2.00195 8C2.00195 10.44 2.00195 13.56 2.00195 16C2.00195 18.76 4.23995 21 7.00195 21C9.46595 21 12.158 21 12.158 21C12.71 21 13.158 20.55 13.158 20C13.158 19.45 12.71 19 12.158 19H7.00195C5.34495 19 4.00195 17.66 4.00195 16V8C4.00195 6.34 5.34495 5 7.00195 5C9.44595 5 12.105 5 12.105 5C12.657 5 13.105 4.55 13.105 4C13.105 3.45 12.657 3 12.105 3ZM19.483 11.01H10.027C9.47495 11.01 9.02695 11.45 9.02695 12.01C9.02695 12.56 9.47495 13.01 10.027 13.01H19.483L16.007 16.48C15.617 16.87 15.617 17.51 16.007 17.9C16.398 18.29 17.031 18.29 17.422 17.9L22.604 12.71C22.995 12.32 22.995 11.69 22.604 11.3L17.422 6.12C17.031 5.73 16.398 5.73 16.007 6.12C15.617 6.51 15.617 7.14 16.007 7.53L19.483 11.01Z" fill="black"/>
</svg>
