<svg width="24" height="24" viewBox="0 0 24 24" fill="none" xmlns="http://www.w3.org/2000/svg">
<path fill-rule="evenodd" clip-rule="evenodd" d="M21.4766 4.37488C21.2706 3.60638 20.7678 2.95108 20.0788 2.55328C19.3897 2.15548 18.5709 2.04768 17.8023 2.25358C14.1009 3.24538 6.04904 5.40288 2.34754 6.39468C1.57904 6.60068 0.923735 7.10338 0.525935 7.79248C0.128135 8.48158 0.0203354 9.30038 0.226235 10.069L2.52324 18.6416C2.72924 19.4101 3.23204 20.0654 3.92104 20.4632C4.61014 20.861 5.42894 20.9688 6.19754 20.7629C9.89894 19.7711 17.9508 17.6136 21.6523 16.6218C22.4208 16.4159 23.0761 15.9131 23.4739 15.224C23.8717 14.535 23.9795 13.7161 23.7736 12.9476L21.4766 4.37488ZM19.5447 4.89248L21.8417 13.4652C21.9104 13.7214 21.8744 13.9944 21.7418 14.224C21.6092 14.4537 21.3908 14.6213 21.1346 14.69L5.67984 18.8311C5.42374 18.8997 5.15074 18.8638 4.92104 18.7312C4.69134 18.5986 4.52374 18.3802 4.45514 18.124L2.15814 9.55128C2.08944 9.29508 2.12544 9.02218 2.25804 8.79248C2.39064 8.56278 2.60904 8.39518 2.86524 8.32658L18.32 4.18548C18.5761 4.11678 18.8491 4.15278 19.0788 4.28538C19.3085 4.41798 19.4761 4.63638 19.5447 4.89248ZM7.59024 16.0525L6.38284 16.376L6.05934 15.1686C5.95214 14.7688 5.54053 14.5312 5.14074 14.6383C4.74094 14.7454 4.50324 15.157 4.61044 15.5569L5.12804 17.4887C5.23524 17.8888 5.64653 18.1262 6.04664 18.019L7.97844 17.5014C8.37833 17.3943 8.61593 16.9827 8.50883 16.5828C8.40164 16.183 7.99004 15.9454 7.59024 16.0525ZM9.88944 7.93118L9.61114 9.70618L7.93284 10.3474C7.48564 10.5182 7.18114 10.9366 7.15614 11.4147C7.13104 11.8928 7.39014 12.3407 7.81704 12.5574L9.41914 13.3705L9.51033 15.1648C9.53463 15.6429 9.83844 16.0618 10.2853 16.2333C10.7323 16.4049 11.2383 16.2969 11.5763 15.9579L12.8447 14.6855L14.5794 15.1532C15.0416 15.2778 15.5339 15.1183 15.8351 14.7463C16.1364 14.3742 16.1901 13.8596 15.9721 13.4334L15.1539 11.8339L16.1348 10.3286C16.3962 9.92748 16.3966 9.41008 16.1358 9.00858C15.8751 8.60708 15.4022 8.39698 14.9295 8.47258L13.1555 8.75648L12.027 7.35838C11.7263 6.98588 11.2343 6.82558 10.7719 6.94948C10.3095 7.07338 9.96354 7.45828 9.88944 7.93118ZM19.0993 11.6746L19.4228 12.882L18.2154 13.2055C17.8155 13.3126 17.5779 13.7242 17.685 14.1241C17.7922 14.5239 18.2038 14.7615 18.6036 14.6544L20.5355 14.1367C20.9356 14.0295 21.173 13.6183 21.0658 13.2182L20.5482 11.2863C20.441 10.8865 20.0294 10.6489 19.6296 10.756C19.2298 10.8631 18.9921 11.2747 19.0993 11.6746ZM11.2701 8.80888L12.2612 10.0368C12.43 10.246 12.6979 10.3488 12.9633 10.3063L14.5214 10.057L13.6599 11.379C13.5132 11.6042 13.4981 11.8907 13.6206 12.13L14.3392 13.5348L12.8156 13.124C12.5561 13.054 12.279 13.1283 12.0892 13.3187L10.9752 14.4362L10.8951 12.8603C10.8815 12.5919 10.7252 12.3512 10.4855 12.2296L9.07844 11.5154L10.5525 10.9523C10.8036 10.8564 10.9841 10.6334 11.0257 10.3678L11.2701 8.80888ZM5.01344 11.3593L4.68984 10.1519L5.89734 9.82828C6.29714 9.72118 6.53474 9.30958 6.42764 8.90978C6.32044 8.50988 5.90894 8.27228 5.50904 8.37938L3.57724 8.89708C3.17714 9.00428 2.93964 9.41548 3.04684 9.81558L3.56454 11.7475C3.67164 12.1473 4.08324 12.3849 4.48304 12.2778C4.88294 12.1707 5.12054 11.7591 5.01344 11.3593ZM16.5224 6.98128L17.7298 6.65778L18.0534 7.86518C18.1605 8.26498 18.5721 8.50268 18.9719 8.39548C19.3718 8.28838 19.6094 7.87678 19.5023 7.47698L18.9846 5.54508C18.8774 5.14498 18.4662 4.90758 18.0661 5.01478L16.1342 5.53238C15.7344 5.63958 15.4967 6.05108 15.6039 6.45098C15.711 6.85078 16.1226 7.08838 16.5224 6.98128Z" fill="black"/>
</svg>
