<svg width="16" height="16" viewBox="0 0 16 16" fill="none" xmlns="http://www.w3.org/2000/svg">
<path fill-rule="evenodd" clip-rule="evenodd" d="M11.2076 6.99731C12.3677 6.36731 13.6978 6.04731 15.0978 6.24731C15.4578 6.30731 15.7377 6.59728 15.7777 6.96728C15.9877 9.04728 15.1276 11.3271 13.6476 12.8071C12.1576 14.2971 10.1476 14.8372 8.94763 14.8972C8.54763 14.9172 8.23769 14.9272 8.00769 14.9272C7.75769 14.9272 7.45773 14.9172 7.04772 14.8972C5.84772 14.8372 3.84777 14.2971 2.35777 12.8071C0.877764 11.3271 0.0176352 9.04728 0.227636 6.96728C0.257636 6.59728 0.547568 6.30731 0.907569 6.24731C2.31757 6.04731 3.64773 6.37732 4.81774 7.00732C5.16774 5.68732 5.82762 4.25717 6.44762 3.34717C6.76763 2.87717 7.09778 2.53719 7.35778 2.36719C7.59778 2.21719 7.82771 2.15723 8.02771 2.15723C8.22771 2.15723 8.45763 2.21719 8.69763 2.36719C8.95763 2.53719 9.27779 2.87717 9.60779 3.34717C10.2178 4.25717 10.8676 5.68731 11.2076 6.99731ZM4.55773 8.71728C3.74772 8.16728 2.80771 7.80735 1.79771 7.78735C1.84771 9.21734 2.48765 10.6772 3.48765 11.6772C4.21766 12.4072 5.11759 12.8471 5.91759 13.0771C5.21759 11.9871 4.57773 10.4373 4.55773 8.71728ZM10.1178 13.0671C10.9078 12.8371 11.7877 12.3972 12.5177 11.6772C13.5077 10.6772 14.1577 9.21734 14.2077 7.78735C13.1977 7.80735 12.2576 8.16728 11.4476 8.71728C11.4276 10.4173 10.7978 11.9771 10.1178 13.0671ZM8.02771 13.1372C8.10771 13.0772 8.1977 12.9872 8.2677 12.9072C8.9777 12.0872 9.84778 10.4472 9.84778 8.61718C9.84778 7.32718 9.01771 5.33731 8.27771 4.24731C8.20771 4.13731 8.10771 4.02724 8.02771 3.92724C7.93771 4.02724 7.83769 4.14732 7.75769 4.25732C7.01768 5.34732 6.15758 7.35722 6.15758 8.65722C6.15758 10.4872 7.05771 12.1072 7.78772 12.9072C7.85772 12.9872 7.94771 13.0772 8.02771 13.1372Z" fill="black"/>
</svg>
