<svg width="24" height="24" viewBox="0 0 24 24" fill="none" xmlns="http://www.w3.org/2000/svg">
<path fill-rule="evenodd" clip-rule="evenodd" d="M14.841 4.00076L16.79 2.38076C17.555 1.74076 18.62 1.60076 19.521 2.02076C20.423 2.45076 20.998 3.35076 20.997 4.35076L20.988 14.6608C20.987 15.6608 20.41 16.5608 19.509 16.9808C18.607 17.4008 17.543 17.2608 16.779 16.6308L14.834 15.0008H11.29L11.971 19.4808C12.124 20.4908 11.493 21.4508 10.507 21.7108L9.523 21.9708C8.457 22.2608 7.364 21.6208 7.078 20.5608L5.315 13.9808C5.065 13.8108 4.829 13.6108 4.61 13.3908C3.578 12.3608 2.999 10.9608 3 9.50076C3.003 6.46076 5.465 4.00076 8.501 4.00076H14.841ZM7.64 14.9308C7.923 14.9808 8.21 15.0008 8.5 15.0008H9.267L9.994 19.7808L9.01 20.0408L7.64 14.9308ZM15.006 6.47076L18.071 3.91076C18.239 3.77076 18.474 3.74076 18.672 3.83076C18.871 3.93076 18.998 4.13076 18.997 4.35076L18.988 14.6608C18.988 14.8808 18.861 15.0808 18.662 15.1708C18.464 15.2608 18.229 15.2308 18.061 15.0908L15 12.5308L15.006 6.47076ZM13.006 6.00076L13 13.0008H8.5C7.572 13.0008 6.681 12.6308 6.024 11.9708C5.368 11.3208 5 10.4308 5 9.50076C5.002 7.57076 6.569 6.00076 8.501 6.00076H13.006Z" fill="black"/>
</svg>
