<svg width="16" height="16" viewBox="0 0 16 16" fill="none" xmlns="http://www.w3.org/2000/svg">
<path fill-rule="evenodd" clip-rule="evenodd" d="M9.4272 3.20896L11.2932 1.73896C11.8462 1.30896 12.5992 1.22896 13.2312 1.53896C13.8632 1.84896 14.2632 2.48896 14.2632 3.18896L14.2552 10.839C14.2542 11.569 13.8322 12.219 13.1742 12.519C12.5172 12.809 11.7472 12.699 11.2052 12.219L9.5712 10.789L9.3232 10.799H7.7932L8.1552 13.409C8.2792 14.309 7.7132 15.159 6.8342 15.399L6.4892 15.489C5.5302 15.739 4.5452 15.169 4.2882 14.219L3.2602 10.379C2.9132 10.199 2.5932 9.96896 2.3132 9.68896C1.5992 8.96896 1.1992 7.99896 1.2002 6.99896C1.2002 6.98896 1.2002 6.98896 1.2002 6.98896C1.2022 4.89896 2.9012 3.19896 4.9962 3.19896H9.3272L9.4272 3.20896ZM6.1772 10.799L6.5702 13.629C6.5842 13.729 6.5212 13.829 6.4232 13.849L6.0782 13.939C5.9722 13.969 5.8622 13.909 5.8342 13.799L5.0302 10.799H6.1772ZM9.8042 4.93896L12.2792 2.99896C12.3512 2.94896 12.4482 2.93896 12.5292 2.97896C12.6112 3.01896 12.6632 3.09896 12.6632 3.18896L12.6552 10.839C12.6552 10.939 12.6002 11.019 12.5162 11.059C12.4312 11.099 12.3312 11.079 12.2612 11.019L9.8002 8.85896L9.8042 4.93896ZM8.2042 4.79896L8.2002 9.19896H5.0022C4.4182 9.19896 3.8572 8.96896 3.4442 8.55896C3.0312 8.13896 2.8002 7.57896 2.8002 6.99896V6.98896C2.8012 5.77896 3.7842 4.79896 4.9962 4.79896H8.2042Z" fill="black"/>
</svg>
