<svg width="12" height="12" viewBox="0 0 12 12" fill="none" xmlns="http://www.w3.org/2000/svg">
<path d="M1.65805 6.66013C2.09785 7.09923 2.69395 7.34583 3.31545 7.34583H3.39155L3.60585 8.14582L4.16505 10.2333C4.17245 10.2608 4.20065 10.2771 4.22815 10.2698L4.47245 10.2049C4.49755 10.1982 4.51375 10.1738 4.51025 10.148L4.23388 8.14582L4.12345 7.34583H5.63765L5.74808 8.14582L5.99615 9.94293C6.10325 10.7191 5.61485 11.4534 4.85755 11.6546L4.61335 11.7195C3.78635 11.9393 2.93755 11.448 2.71615 10.6214L1.97238 7.84472L1.67235 6.72463C1.66655 6.70333 1.66185 6.68173 1.65805 6.66013Z" fill="black"/>
<path fill-rule="evenodd" clip-rule="evenodd" d="M6.82716 1.85291L6.95483 1.85292L6.95473 3.45292L5.87112 3.4528L5.86829 6.54582H6.95313V8.14582H6.73749L8.33743 9.46682C8.82443 9.86892 9.49973 9.95392 10.0711 9.68502C10.6426 9.41612 11.0075 8.84162 11.0082 8.21012L11.0143 1.89902C11.015 1.27142 10.6555 0.699021 10.0898 0.426921C9.52423 0.154821 8.85263 0.231321 8.36263 0.623621L6.82716 1.85291ZM9.36263 1.87262L7.47123 3.38682L7.46813 6.67422L9.35613 8.23312C9.36563 8.24092 9.37883 8.24252 9.38993 8.23732C9.40103 8.23202 9.40813 8.22092 9.40823 8.20852L9.41433 1.89752C9.41433 1.88522 9.40733 1.87412 9.39633 1.86882C9.38533 1.86342 9.37223 1.86492 9.36263 1.87262Z" fill="black"/>
<path d="M6.95313 8.14582V6.54582H5.86829L5.86783 7.05012C5.86763 7.28912 5.97423 7.51562 6.15843 7.66772L6.73749 8.14582H6.95313Z" fill="black"/>
<path d="M1.65805 6.66013C2.09785 7.09923 2.69395 7.34583 3.31545 7.34583H3.39155L3.60585 8.14582H4.23388L4.12345 7.34583H5.63765L5.74808 8.14582H6.73749L6.15843 7.66772C5.97423 7.51562 5.86763 7.28912 5.86783 7.05012L5.86829 6.54582H3.31553C2.90523 6.54582 2.51183 6.38282 2.22183 6.09262C1.93193 5.80242 1.76913 5.40892 1.76943 4.99872V4.99732C1.77013 4.14392 2.46223 3.45242 3.31563 3.45252L5.87112 3.4528L5.87153 3.00152C5.87183 2.75882 5.98213 2.52942 6.17163 2.37772L6.82716 1.85291L3.31583 1.85252C1.57913 1.85232 0.170834 3.25942 0.169434 4.99612V4.99742C0.168834 5.83222 0.499934 6.63302 1.09003 7.22352C1.34867 7.48234 1.64773 7.69145 1.97238 7.84472L1.67235 6.72463C1.66655 6.70333 1.66185 6.68173 1.65805 6.66013Z" fill="black"/>
<path d="M6.95473 3.45292L6.95483 1.85292L6.82716 1.85291L6.17163 2.37772C5.98213 2.52942 5.87183 2.75882 5.87153 3.00152L5.87112 3.4528L6.95473 3.45292Z" fill="black"/>
</svg>
