<svg width="24" height="24" viewBox="0 0 24 24" fill="none" xmlns="http://www.w3.org/2000/svg">
<path d="M5.03866 16.373C5.08866 16.1533 5.28486 15.9981 5.51016 15.9999C5.73546 16.0018 5.92906 16.1602 5.97556 16.3807C6.04816 16.7256 6.12066 17.0702 6.18566 17.3787C6.33066 18.0676 6.86606 18.6074 7.55366 18.7582C7.88296 18.8304 8.25396 18.9118 8.62346 18.9928C8.84316 19.041 8.99986 19.2355 9.00026 19.4605C9.00066 19.6855 8.84446 19.8805 8.62486 19.9293C8.25686 20.0113 7.88756 20.0934 7.56006 20.1663C6.87756 20.3183 6.34596 20.8537 6.19906 21.5374C6.12986 21.8595 6.05206 22.2216 5.97456 22.5824C5.92736 22.8019 5.73426 22.9593 5.50986 22.9612C5.28536 22.9631 5.08956 22.8091 5.03866 22.5904C4.95326 22.224 4.86776 21.8565 4.79216 21.532C4.63766 20.8686 4.12006 20.3505 3.45686 20.1953C3.12416 20.1174 2.74626 20.029 2.37056 19.941C2.15236 19.89 1.99856 19.6946 2.00026 19.4705C2.00196 19.2464 2.15866 19.0533 2.37756 19.0056C2.74296 18.9258 3.11026 18.8457 3.43606 18.7746C4.11416 18.6266 4.64546 18.1 4.79956 17.4233C4.87306 17.1005 4.95586 16.7365 5.03866 16.373Z" fill="black"/>
<path d="M19.6046 3.31969C19.6475 3.13139 19.8157 2.99829 20.0088 2.99989C20.2019 3.00149 20.3679 3.13729 20.4077 3.32629L20.5878 4.18179C20.7121 4.77219 21.171 5.23489 21.7603 5.36419L22.6773 5.56519C22.8657 5.60659 23 5.77329 23.0003 5.96609C23.0006 6.15899 22.8668 6.32609 22.6786 6.36799L21.7658 6.57109C21.1808 6.70129 20.7252 7.16029 20.5993 7.74629L20.4068 8.64199C20.3664 8.83019 20.2009 8.96509 20.0085 8.96669C19.8161 8.96839 19.6483 8.83629 19.6046 8.64889L19.3933 7.74169C19.2609 7.17309 18.8173 6.72899 18.2488 6.59589L17.3177 6.37799C17.1307 6.33429 16.9989 6.16679 17.0003 5.97469C17.0018 5.78259 17.136 5.61709 17.3237 5.57619L18.231 5.37819C18.8122 5.25139 19.2676 4.79999 19.3997 4.21989L19.6046 3.31969Z" fill="black"/>
<path d="M9.4665 10.7184L10.8807 12.1327L12.751 10.2624L11.3367 8.8482L9.4665 10.7184Z" fill="black"/>
<path fill-rule="evenodd" clip-rule="evenodd" d="M11.4042 6.08725L22.5088 17.1918C23.5632 18.2463 23.5632 19.9558 22.5088 21.0102L21.6285 21.8905C21.1222 22.3968 20.4354 22.6813 19.7193 22.6813C19.0033 22.6813 18.3165 22.3968 17.8102 21.8905L6.7056 10.7859C6.19919 10.2795 5.91479 9.59285 5.91479 8.87675C5.91479 8.16065 6.19919 7.47395 6.7056 6.96755L7.5859 6.08725C8.0922 5.58095 8.779 5.29645 9.4951 5.29645C10.2111 5.29645 10.8979 5.58095 11.4042 6.08725ZM9.49509 7.29645C9.68069 7.29645 9.8588 7.37025 9.99 7.50145L11.3367 8.8482L11.9935 8.19141C12.3837 7.80111 13.0174 7.80111 13.4077 8.19141C13.798 8.58171 13.798 9.21541 13.4077 9.60561L12.751 10.2624L21.0946 18.606C21.368 18.8794 21.368 19.3226 21.0946 19.596L20.2143 20.4762C20.083 20.6075 19.905 20.6813 19.7193 20.6813C19.5337 20.6813 19.3556 20.6075 19.2244 20.4762L10.8807 12.1327L10.339 12.6744C9.94873 13.0646 9.31503 13.0646 8.92473 12.6744C8.53453 12.2841 8.53453 11.6504 8.92473 11.2602L9.4665 10.7184L8.11979 9.37175C7.98849 9.24045 7.91479 9.06235 7.91479 8.87675C7.91479 8.69105 7.98849 8.51305 8.11979 8.38175L9.00009 7.50145C9.13139 7.37025 9.30939 7.29645 9.49509 7.29645Z" fill="black"/>
<path d="M13.4077 8.19141C13.0174 7.80111 12.3837 7.80111 11.9935 8.19141L11.3367 8.8482L12.751 10.2624L13.4077 9.60561C13.798 9.21541 13.798 8.58171 13.4077 8.19141Z" fill="black"/>
<path d="M8.92473 12.6744C9.31503 13.0646 9.94873 13.0646 10.339 12.6744L10.8807 12.1327L9.4665 10.7184L8.92473 11.2602C8.53453 11.6504 8.53453 12.2841 8.92473 12.6744Z" fill="black"/>
<path d="M3.59113 0.478992C3.63403 0.290692 3.80223 0.157692 3.99533 0.159192C4.18843 0.160792 4.35443 0.296592 4.39413 0.485592L4.57433 1.34109C4.69863 1.93149 5.15743 2.39429 5.74683 2.52349L6.66383 2.72459C6.85223 2.76589 6.98653 2.93259 6.98683 3.12549C6.98713 3.31829 6.85333 3.48539 6.66503 3.52729L5.75233 3.73049C5.16733 3.86069 4.71173 4.31969 4.58583 4.90569L4.39333 5.80139C4.35293 5.98949 4.18743 6.12439 3.99503 6.12609C3.80263 6.12769 3.63473 5.99569 3.59113 5.80819L3.37983 4.90099C3.24743 4.33239 2.80373 3.88829 2.23533 3.75529L1.30423 3.53739C1.11713 3.49359 0.985427 3.32609 0.986827 3.13399C0.988227 2.94189 1.12253 2.77649 1.31023 2.73549L2.21753 2.53749C2.79873 2.41069 3.25413 1.95929 3.38623 1.37929L3.59113 0.478992Z" fill="black"/>
</svg>
