<svg width="24" height="24" viewBox="0 0 24 24" fill="none" xmlns="http://www.w3.org/2000/svg">
<path fill-rule="evenodd" clip-rule="evenodd" d="M1.15039 12.0004C1.15039 6.01195 6.01195 1.15039 12.0004 1.15039C17.9888 1.15039 22.8504 6.01195 22.8504 12.0004C22.8504 17.9888 17.9888 22.8504 12.0004 22.8504C6.01195 22.8504 1.15039 17.9888 1.15039 12.0004ZM21.1504 12.0004C21.1504 11.5002 21.1102 11.0093 21.0327 10.5308C20.4527 6.9454 17.7858 4.05484 14.3204 3.14767C13.5876 2.95583 12.819 2.85269 12.027 2.85043C12.0181 2.8504 12.0093 2.85039 12.0004 2.85039C6.95083 2.85039 2.85039 6.95083 2.85039 12.0004C2.85039 17.0499 6.95083 21.1504 12.0004 21.1504C16.7141 21.1504 20.6008 17.5772 21.0969 12.9943C21.1323 12.6678 21.1504 12.3362 21.1504 12.0004Z" fill="black"/>
<path d="M14.7334 15.0868L9.58595 9.93929L6.73578 12.7895C6.45678 13.0685 6.30078 13.4475 6.30078 13.8415C6.30178 14.2365 6.45878 14.6155 6.73878 14.8935L9.79378 17.9315C10.3748 18.5085 11.3128 18.5075 11.8918 17.9285L14.7334 15.0868Z" fill="black"/>
<path d="M15.8578 13.9625L10.7108 8.81445L9.58595 9.93929L14.7334 15.0868L15.8578 13.9625Z" fill="black"/>
<path d="M21.1504 12.0004C21.1504 11.5002 21.1102 11.0093 21.0327 10.5308L16.4731 13.9972L10.5388 8.06372L14.2915 3.18712C14.3015 3.17414 14.3111 3.16098 14.3204 3.14767C13.5876 2.95583 12.819 2.85269 12.027 2.85043L8.95344 6.84449C8.34132 7.64064 8.41497 8.76632 9.12397 9.47731L9.58595 9.93929L10.7108 8.81445L15.8578 13.9625L14.7334 15.0868L15.059 15.4123C15.766 16.1193 16.8879 16.1948 17.6838 15.5889L21.0969 12.9943C21.1323 12.6678 21.1504 12.3362 21.1504 12.0004Z" fill="black"/>
</svg>
