<svg width="24" height="24" viewBox="0 0 24 24" fill="none" xmlns="http://www.w3.org/2000/svg">
<path fill-rule="evenodd" clip-rule="evenodd" d="M17.9999 11.0996C14.7434 11.0996 12.0995 13.7435 12.0995 17C12.0995 20.2565 14.7434 22.9004 17.9999 22.9004C21.2564 22.9004 23.9003 20.2565 23.9003 17C23.9003 13.7435 21.2564 11.0996 17.9999 11.0996ZM11.7565 22C11.2739 21.3984 10.8764 20.7256 10.5823 20H6.98448C5.40298 20 4.09308 18.7723 3.99068 17.1941L3.39858 8.0577C3.38068 7.7818 3.47778 7.5108 3.66688 7.3091C3.85588 7.1074 4.11998 6.993 4.39638 6.993H13.9727C14.0102 6.9978 14.0483 7 14.0869 7C14.1256 7 14.1637 6.9978 14.2011 6.993H17.6372C17.9136 6.993 18.1777 7.1074 18.3668 7.3091C18.5558 7.5108 18.6529 7.7818 18.635 8.0577L18.5727 9.0203C19.2596 9.0689 19.9228 9.2045 20.5512 9.4161L20.6309 8.187C20.6845 7.3594 20.3931 6.5465 19.826 5.9414C19.2588 5.3363 18.4665 4.993 17.6372 4.993H15.0869V4.038C15.0869 2.9671 14.6615 1.94 13.9042 1.1827C13.1469 0.4254 12.1199 0 11.0489 0H11.0456C9.97468 0 8.94758 0.4254 8.19028 1.1827C7.43308 1.94 7.00758 2.9671 7.00758 4.038V4.993H4.39648C3.56708 4.993 2.77478 5.3363 2.20758 5.9414C1.64048 6.5465 1.34908 7.3594 1.40278 8.187C1.55658 10.5598 1.80808 14.4412 1.99488 17.3234C2.16538 19.9538 4.34858 22 6.98448 22H11.7565ZM17.9999 13.0664C20.1709 13.0664 21.9335 14.829 21.9335 17C21.9335 19.171 20.1709 20.9336 17.9999 20.9336C15.8289 20.9336 14.0663 19.171 14.0663 17C14.0663 14.829 15.8289 13.0664 17.9999 13.0664ZM16.9999 14.7768V17C16.9999 17.2652 17.1053 17.5196 17.2928 17.7071L18.5332 18.9475C18.9235 19.3378 19.5572 19.3378 19.9474 18.9475C20.3377 18.5573 20.3377 17.9236 19.9474 17.5333L18.9999 16.5858V14.7768C18.9999 14.2249 18.5518 13.7768 17.9999 13.7768C17.448 13.7768 16.9999 14.2249 16.9999 14.7768ZM13.9945 7.6555C14.7412 7.6555 15.3473 8.2617 15.3473 9.0083C15.3473 9.755 14.7412 10.3611 13.9945 10.3611C13.2479 10.3611 12.6417 9.755 12.6417 9.0083C12.6417 8.2617 13.2479 7.6555 13.9945 7.6555ZM7.99448 7.6383C8.74378 7.6383 9.35208 8.2466 9.35208 8.9959C9.35208 9.7451 8.74378 10.3534 7.99448 10.3534C7.24528 10.3534 6.63698 9.7451 6.63698 8.9959C6.63698 8.2466 7.24528 7.6383 7.99448 7.6383ZM13.0869 4.993V4.038C13.0869 3.4975 12.8722 2.9791 12.49 2.5969C12.1078 2.2147 11.5894 2 11.0489 2H11.0456C10.5051 2 9.98678 2.2147 9.60458 2.5969C9.22238 2.9791 9.00758 3.4975 9.00758 4.038V4.993H13.0869Z" fill="black"/>
</svg>
