<svg width="24" height="24" viewBox="0 0 24 24" fill="none" xmlns="http://www.w3.org/2000/svg">
<path d="M14.9745 7.66016C15.7245 7.66016 16.3348 8.25988 16.3349 9.00977C16.3349 9.74976 15.7245 10.3603 14.9745 10.3604C14.2346 10.3602 13.6249 9.74968 13.6249 9.00977C13.6251 8.25996 14.2347 7.66029 14.9745 7.66016Z" fill="black"/>
<path fill-rule="evenodd" clip-rule="evenodd" d="M12.0341 0C13.104 0 14.1347 0.429813 14.8847 1.17969C15.6447 1.93969 16.0741 2.97004 16.0741 4.04004V4.99023H18.6249C19.4547 4.99035 20.2445 5.3406 20.8144 5.94043C21.3743 6.55041 21.6642 7.3605 21.6142 8.19043C21.4642 10.5605 21.2143 14.4405 21.0243 17.3203C20.9823 17.9694 20.8158 18.5818 20.5517 19.1377L23.207 21.793C23.5973 22.1835 23.5974 22.8166 23.207 23.207C22.8165 23.5975 22.1834 23.5973 21.7929 23.207L0.792893 2.20703C0.402369 1.81651 0.402369 1.18349 0.792893 0.792969C1.18342 0.402482 1.81644 0.402457 2.20696 0.792969L6.40422 4.99023H7.99407V4.04004C7.99407 2.9701 8.41481 1.93968 9.17473 1.17969C9.93454 0.430001 10.9545 0.000179855 12.0341 0ZM18.9745 17.5605C18.9975 17.4395 19.0163 17.3164 19.0243 17.1904L19.6249 8.05957C19.6348 7.77973 19.5443 7.50946 19.3544 7.30957C19.1645 7.10991 18.8946 6.99035 18.6249 6.99023H15.1845C15.1447 7.00015 15.114 7 15.0741 7C15.0345 7 14.9946 7.00006 14.955 6.99023H8.40422L18.9745 17.5605ZM12.0341 2C11.4945 2.00018 10.9747 2.21001 10.5849 2.59961C10.205 2.9796 9.99407 3.5001 9.99407 4.04004V4.99023H14.0741V4.04004C14.0741 3.50004 13.8545 2.97961 13.4745 2.59961C13.0946 2.20982 12.574 2 12.0341 2Z" fill="black"/>
<path d="M4.40715 8.41406L4.97453 17.1904C5.07474 18.7701 6.38503 19.9999 7.96477 20H15.9931L17.705 21.7119C17.1819 21.8974 16.6193 22 16.0341 22H7.96477C5.33498 21.9999 3.15444 19.9501 2.9843 17.3203C2.79431 14.4405 2.54469 10.5605 2.38469 8.19043C2.35314 7.66666 2.45643 7.1501 2.68059 6.6875L4.40715 8.41406Z" fill="black"/>
</svg>
