<svg width="24" height="24" viewBox="0 0 24 24" fill="none" xmlns="http://www.w3.org/2000/svg">
<path fill-rule="evenodd" clip-rule="evenodd" d="M2.98014 18.2066L2.25014 18.9366C1.99214 19.1946 1.99214 19.6116 2.25014 19.8696C2.49214 20.1116 2.78814 20.4076 3.03014 20.6496C3.28714 20.9066 3.70314 20.9076 3.96114 20.6506L4.67214 19.9446C4.91214 20.0476 5.13214 20.0946 5.29614 20.0866C7.17814 19.9976 10.1271 19.7746 10.1271 19.7746C10.3751 19.7556 10.6081 19.6446 10.7791 19.4636L19.7871 9.9206C21.0961 8.5346 21.0541 6.3556 19.6941 5.0206C19.1141 4.4506 18.4701 3.8186 17.8931 3.2526C16.5591 1.9426 14.4311 1.9126 13.0601 3.1846C9.88014 6.1366 3.47414 12.0826 3.47414 12.0826C3.29514 12.2486 3.18314 12.4746 3.15914 12.7166C3.15914 12.7166 2.89214 15.4176 2.86014 17.6196C2.85714 17.7816 2.89114 17.9856 2.98014 18.2066ZM5.00714 14.6126L8.40514 17.8916C7.49314 17.9566 6.34414 18.0316 5.40914 18.0786L4.86214 17.4876C4.88114 16.5166 4.94414 15.4626 5.00714 14.6126ZM10.3571 16.9966L5.82914 12.6256L14.4211 4.6506C15.0081 4.1056 15.9201 4.1186 16.4921 4.6796L18.2931 6.4476C18.8761 7.0196 18.8941 7.9536 18.3331 8.5476L10.3571 16.9966Z" fill="black"/>
</svg>
