<svg width="24" height="24" viewBox="0 0 24 24" fill="none" xmlns="http://www.w3.org/2000/svg">
<path fill-rule="evenodd" clip-rule="evenodd" d="M8.01007 4.99H5.40007C4.57007 4.99 3.77007 5.34 3.21007 5.94C2.64007 6.55 2.35007 7.36 2.40007 8.19C2.56007 10.56 2.81007 14.44 3.00007 17.32C3.17007 19.95 5.35007 22 7.98007 22C10.4301 22 13.6101 22 16.0501 22C18.6901 22 20.8701 19.95 21.0401 17.32C21.2301 14.44 21.4801 10.56 21.6301 8.19C21.6801 7.36 21.3901 6.55 20.8301 5.94C20.2601 5.34 19.4701 4.99 18.6401 4.99H16.0901V4.04C16.0901 2.97 15.6601 1.94 14.9001 1.18C14.1501 0.43 13.1201 0 12.0501 0C10.9701 0 9.95007 0.43 9.19007 1.18C8.43007 1.94 8.01007 2.97 8.01007 4.04V4.99ZM15.2001 6.99C15.1601 7 15.1301 7 15.0901 7C15.0501 7 15.0101 7 14.9701 6.99H5.40007C5.12007 6.99 4.86007 7.11 4.67007 7.31C4.48007 7.51 4.38007 7.78 4.40007 8.06L4.99007 17.19C5.09007 18.77 6.40007 20 7.98007 20C10.4301 20 13.6101 20 16.0501 20C17.6301 20 18.9401 18.77 19.0401 17.19L19.6401 8.06C19.6501 7.78 19.5601 7.51 19.3701 7.31C19.1801 7.11 18.9101 6.99 18.6401 6.99H15.2001ZM14.9901 7.66C15.7401 7.66 16.3501 8.26 16.3501 9.01C16.3501 9.75 15.7401 10.36 14.9901 10.36C14.2501 10.36 13.6401 9.75 13.6401 9.01C13.6401 8.26 14.2501 7.66 14.9901 7.66ZM8.99007 7.64C9.74007 7.64 10.3501 8.25 10.3501 9C10.3501 9.75 9.74007 10.35 8.99007 10.35C8.25007 10.35 7.64007 9.75 7.64007 9C7.64007 8.25 8.25007 7.64 8.99007 7.64ZM14.0901 4.99V4.04C14.0901 3.5 13.8701 2.98 13.4901 2.6C13.1101 2.21 12.5901 2 12.0501 2C11.5101 2 10.9901 2.21 10.6001 2.6C10.2201 2.98 10.0101 3.5 10.0101 4.04V4.99H14.0901Z" fill="black"/>
</svg>
