<svg width="16" height="16" viewBox="0 0 16 16" fill="none" xmlns="http://www.w3.org/2000/svg">
<path d="M9.99603 5.76953C10.4938 5.76972 10.8973 6.16919 10.8974 6.66895C10.8974 7.16883 10.4939 7.56915 9.99603 7.56934C9.49904 7.56933 9.09467 7.16894 9.09467 6.66895C9.09481 6.16908 9.49913 5.76954 9.99603 5.76953Z" fill="black"/>
<path fill-rule="evenodd" clip-rule="evenodd" d="M7.9433 0.199219C9.6293 0.199219 11.0052 1.52922 11.0742 3.19922H11.7958C12.4398 3.19926 13.055 3.46973 13.497 3.92969C13.9388 4.39964 14.1669 5.02988 14.1279 5.67969C14.0299 7.2897 13.8795 9.77955 13.7685 11.6094C13.7503 11.9093 13.6907 12.1968 13.5995 12.4688L15.5654 14.4346C15.8776 14.747 15.8777 15.2531 15.5654 15.5654C15.253 15.8778 14.7469 15.8777 14.4345 15.5654L0.43451 1.56543C0.12209 1.25301 0.12209 0.74699 0.43451 0.43457C0.746932 0.122186 1.25296 0.122162 1.56537 0.43457L4.33002 3.19922H4.87787C4.91087 1.53932 6.26953 0.19938 7.93939 0.199219H7.9433ZM12.1982 11.0674L12.5302 5.5791C12.5422 5.37921 12.4708 5.17925 12.332 5.0293C12.193 4.87934 11.9988 4.79887 11.7958 4.79883H5.92963L12.1982 11.0674ZM7.93939 1.79883C7.15253 1.79899 6.51047 2.41932 6.47748 3.19922H9.47064C9.40364 2.41922 8.7453 1.79883 7.9433 1.79883H7.93939Z" fill="black"/>
<path d="M3.57221 6.91113L3.84955 11.5088C3.90555 12.4388 4.66876 13.1494 5.59076 13.1494H9.81049L11.2958 14.6348C11.0197 14.7083 10.7302 14.749 10.4316 14.749H5.59076C3.82282 14.749 2.35995 13.3793 2.25287 11.6094C2.14188 9.77955 1.99147 7.2897 1.89447 5.67969C1.88577 5.53469 1.89281 5.39048 1.9101 5.24902L3.57221 6.91113Z" fill="black"/>
</svg>
