<svg width="16" height="16" viewBox="0 0 16 16" fill="none" xmlns="http://www.w3.org/2000/svg">
<path fill-rule="evenodd" clip-rule="evenodd" d="M4.87792 3.19922H4.22692C3.58292 3.19922 2.96692 3.46922 2.52592 3.92922C2.08392 4.39922 1.85592 5.02922 1.89492 5.67922C1.99192 7.28922 2.14192 9.77922 2.25292 11.6092C2.35992 13.3792 3.82292 14.7492 5.59092 14.7492C7.06792 14.7492 8.95492 14.7492 10.4319 14.7492C12.1999 14.7492 13.6619 13.3792 13.7689 11.6092C13.8799 9.77922 14.0299 7.28922 14.1279 5.67922C14.1669 5.02922 13.9389 4.39922 13.4969 3.92922C13.0549 3.46922 12.4399 3.19922 11.7959 3.19922H11.0739C11.0049 1.52922 9.62992 0.199219 7.94392 0.199219C7.94192 0.199219 7.93992 0.199219 7.93992 0.199219C6.26992 0.199219 4.91092 1.53922 4.87792 3.19922ZM11.7959 4.79922C11.9989 4.79922 12.1929 4.87922 12.3319 5.02922C12.4709 5.17922 12.5429 5.37922 12.5309 5.57922L12.1719 11.5092C12.1159 12.4392 11.3539 13.1492 10.4319 13.1492H5.59092C4.66892 13.1492 3.90592 12.4392 3.84992 11.5092L3.49192 5.57922C3.47892 5.37922 3.55092 5.17922 3.69092 5.02922C3.82992 4.87922 4.02392 4.79922 4.22692 4.79922H11.7959ZM9.99592 5.76922C10.4939 5.76922 10.8979 6.16922 10.8979 6.66922C10.8979 7.16922 10.4939 7.56922 9.99592 7.56922C9.49892 7.56922 9.09492 7.16922 9.09492 6.66922C9.09492 6.16922 9.49892 5.76922 9.99592 5.76922ZM5.99592 5.75922C6.49592 5.75922 6.90092 6.15922 6.90092 6.65922C6.90092 7.15922 6.49592 7.56922 5.99592 7.56922C5.49692 7.56922 5.09092 7.15922 5.09092 6.65922C5.09092 6.15922 5.49692 5.75922 5.99592 5.75922ZM9.47092 3.19922C9.40392 2.41922 8.74592 1.79922 7.94392 1.79922C7.94192 1.79922 7.93992 1.79922 7.93992 1.79922C7.15292 1.79922 6.51092 2.41922 6.47792 3.19922H9.47092Z" fill="black"/>
</svg>
