<svg width="24" height="24" viewBox="0 0 24 24" fill="none" xmlns="http://www.w3.org/2000/svg">
<path fill-rule="evenodd" clip-rule="evenodd" d="M11.5901 11.1692H11.5701C10.8801 11.3292 10.2301 11.0592 9.47007 10.8592C8.43007 10.5892 7.24007 10.3692 5.73007 10.7392C4.57007 11.0192 2.81007 11.4592 1.69007 11.8292C1.04007 12.0492 0.640074 12.3992 0.390074 12.8292C0.0500742 13.4092 0.0100742 14.1692 0.270074 15.0092C0.590074 16.0792 1.19007 17.5592 1.72007 18.6192C3.18007 21.5092 6.13007 22.4092 8.85007 21.7192C10.7001 21.2492 11.5401 20.3192 12.1801 19.4292C12.3801 19.1392 12.5601 18.8492 12.7601 18.5992C12.9401 18.3692 13.1301 18.1592 13.4401 18.0792C13.7601 17.9892 14.0401 18.0692 14.3201 18.1792C14.6201 18.2892 14.9201 18.4392 15.2501 18.5792C16.2501 19.0092 17.4401 19.3792 19.1901 18.9092C21.8801 18.1892 23.9101 16.0092 23.8401 12.6792C23.8301 11.6592 23.6201 10.0892 23.4501 9.03916C23.2301 7.74916 22.3001 6.51916 20.6301 6.75916C19.7201 6.88916 17.6101 7.47916 16.4601 7.82916C15.2101 8.20916 14.2801 8.98916 13.4501 9.76916C12.8201 10.3592 12.2801 10.9592 11.5901 11.1692ZM11.9801 12.9192L12.0701 12.8992H12.0601H12.0901C12.8701 12.6592 13.5501 12.1292 14.2401 11.4992C15.0101 10.7892 15.7901 9.90916 16.9801 9.54916C18.0601 9.22916 20.0401 8.66916 20.8801 8.53916C21.4001 8.46916 21.6101 8.93916 21.6701 9.33916C21.8401 10.3092 22.0301 11.7692 22.0401 12.7092C22.0901 15.0892 20.6401 16.6492 18.7201 17.1692C17.2101 17.5792 16.2901 17.0692 15.4801 16.7092C14.6401 16.3392 13.8701 16.0992 12.9601 16.3392C12.0501 16.5892 11.5301 17.1992 11.0101 17.9592C10.5101 18.6792 9.98007 19.5792 8.41007 19.9792C6.47007 20.4692 4.37007 19.8692 3.33007 17.8092C2.84007 16.8292 2.29007 15.4792 1.99007 14.4892C1.90007 14.1992 1.83007 13.9292 1.95007 13.7292C2.00007 13.6392 2.11007 13.5892 2.25007 13.5392C3.34007 13.1792 5.04007 12.7592 6.17007 12.4792C7.58007 12.1392 8.62007 12.4992 9.55007 12.7492C10.4101 12.9692 11.2001 13.1092 12.0101 12.9192H11.9801ZM10.8501 16.5292C11.0001 16.2392 10.9901 15.8792 10.8101 15.6092C10.8101 15.6092 10.3101 14.8292 9.47007 14.2492C8.85007 13.8192 8.07007 13.5092 7.17007 13.5792C6.28007 13.6392 5.23007 14.0992 4.16007 15.3892C3.96007 15.6292 3.89007 15.9492 4.00007 16.2492C4.60007 18.0392 6.29007 18.9992 7.95007 18.7292C9.02007 18.5592 10.1001 17.8892 10.8501 16.5292ZM8.94007 16.1592C8.57007 16.6192 8.13007 16.8792 7.67007 16.9592C6.99007 17.0592 6.31007 16.7392 5.92007 16.1292C6.42007 15.6392 6.88007 15.3992 7.31007 15.3692C7.75007 15.3392 8.14007 15.5192 8.44007 15.7292C8.64007 15.8692 8.81007 16.0192 8.94007 16.1592ZM14.4601 14.6092C14.4301 14.9492 14.6101 15.2792 14.9101 15.4492C16.2401 16.2192 17.5001 16.2292 18.4901 15.8292C20.0301 15.2092 20.9901 13.5492 20.6601 11.6892C20.6001 11.3592 20.3701 11.0892 20.0501 10.9892C18.5101 10.4892 17.4001 10.6592 16.5901 11.0692C14.6801 12.0392 14.4601 14.6092 14.4601 14.6092ZM16.3501 14.1492C16.4801 13.6592 16.7701 12.9992 17.4101 12.6692C17.7901 12.4792 18.2801 12.4192 18.9201 12.5492C18.8701 13.2792 18.4601 13.9092 17.8201 14.1592C17.4001 14.3292 16.9001 14.3392 16.3501 14.1492ZM4.51007 7.86916L1.88007 5.63916C1.46007 5.27916 0.830074 5.32916 0.470074 5.74916C0.120074 6.16916 0.170074 6.79916 0.590074 7.15916L3.21007 9.39916C3.63007 9.74916 4.26007 9.69916 4.62007 9.27916C4.98007 8.85916 4.93007 8.22916 4.51007 7.86916ZM8.73007 6.20916L5.89007 0.889161C5.63007 0.409161 5.02007 0.219161 4.53007 0.479161C4.05007 0.739161 3.86007 1.34916 4.12007 1.83916L6.97007 7.15916C7.23007 7.63916 7.84007 7.82916 8.32007 7.56916C8.81007 7.30916 8.99007 6.69916 8.73007 6.20916ZM12.9201 5.43916L12.3201 1.52916C12.2401 0.979161 11.7301 0.609161 11.1801 0.689161C10.6401 0.769161 10.2601 1.27916 10.3501 1.82916L10.9501 5.73916C11.0301 6.28916 11.5401 6.65916 12.0901 6.57916C12.6301 6.48916 13.0101 5.97916 12.9201 5.43916Z" fill="black"/>
</svg>
