<svg width="16" height="16" viewBox="0 0 16 16" fill="none" xmlns="http://www.w3.org/2000/svg">
<path d="M1.32102 7.72909C-0.0302178 8.09122 0.226203 9.11725 0.487255 9.71873C0.748306 10.3202 0.860543 10.6334 1.26372 11.5185C1.66703 12.4037 2.878 14.0497 5.32588 13.7331C7.77381 13.4163 7.93621 11.3939 8.95601 11.1205C9.97591 10.8472 11.1277 12.5175 13.4061 11.568C15.6844 10.6183 15.9101 8.58736 15.8167 7.61907C15.7234 6.65095 15.6639 6.32357 15.5893 5.67216C15.5146 5.02071 15.2238 4.00385 13.8724 4.36596C12.5214 4.72795 11.8927 4.89944 10.7848 5.1963C9.67679 5.49331 9.42206 7.05472 7.97078 7.44359C6.51952 7.83236 5.51822 6.60748 4.4101 6.9044C3.30227 7.20125 2.67204 7.36708 1.32102 7.72909ZM10.415 9.32123C10.4653 7.84259 11.5937 6.67008 13.6179 7.26094C13.7393 8.91074 12.524 10.358 10.415 9.32123ZM2.98893 10.109C4.44641 8.58542 6.01003 9.03642 6.79282 10.2918C5.48479 12.2445 3.70875 11.5985 2.98893 10.109Z" fill="black"/>
<path d="M0.923161 3.73747C1.11292 3.51233 1.44895 3.48313 1.67418 3.67272L3.34325 5.07969C3.56839 5.26953 3.59685 5.60577 3.40706 5.83097C3.21723 6.05618 2.881 6.08459 2.65578 5.89477L0.986966 4.48875C0.761739 4.29892 0.733337 3.9627 0.923161 3.73747ZM3.44252 0.405474C3.70141 0.265701 4.0242 0.361828 4.16437 0.620503L5.99092 3.99618C6.13095 4.25524 6.03424 4.57912 5.7752 4.71923C5.51612 4.85935 5.19228 4.76259 5.05216 4.50351L3.2268 1.12852C3.08667 0.869438 3.18344 0.545604 3.44252 0.405474ZM7.62154 0.554528C7.91228 0.508259 8.18581 0.705826 8.23232 0.996466L8.6265 3.47499C8.67279 3.76588 8.47451 4.03973 8.18362 4.08602C7.89282 4.1322 7.61985 3.93368 7.57353 3.64289L7.17841 1.16462C7.13215 0.873827 7.3308 0.600938 7.62154 0.554528Z" fill="black"/>
</svg>
