<svg width="16" height="16" viewBox="0 0 16 16" fill="none" xmlns="http://www.w3.org/2000/svg">
<path d="M0.0620117 8.90365C0.0766082 8.87097 0.0987819 8.73847 0.110095 8.69258C0.15505 8.51008 0.227345 8.35016 0.33408 8.19592C0.482581 7.98496 0.68146 7.81446 0.912634 7.69993C1.26451 7.52141 1.7451 7.42654 2.12399 7.30745C2.21573 7.27861 2.33897 7.26459 2.43804 7.23866C2.78305 7.14755 3.12882 7.05943 3.47534 6.97428C3.75788 6.9043 4.0319 6.83322 4.32057 6.79213C4.63825 6.74768 4.95982 6.73786 5.27963 6.76284C5.62947 6.78994 5.91608 6.85089 6.2541 6.92922C6.67438 7.02661 7.16611 7.24286 7.59643 7.17656C8.00879 7.11303 8.44263 6.65626 8.73259 6.37895C8.8875 6.22939 9.04628 6.08391 9.20875 5.94263C9.51037 5.68468 9.82184 5.4538 10.1721 5.26513C10.6634 5.00052 11.237 4.86569 11.7731 4.71224C12.339 4.54784 12.9091 4.41057 13.4836 4.2916C14.5241 4.0761 15.3341 4.67892 15.5829 5.67597C15.6452 5.92586 15.6753 6.18627 15.7122 6.4431C15.7773 6.89603 15.8315 7.35302 15.8639 7.80972C15.8904 8.19293 15.8922 8.56629 15.8524 8.94708C15.8366 9.10675 15.8107 9.2652 15.7745 9.42151C15.5527 10.4412 14.9372 11.3321 14.0619 11.9003C13.1727 12.4791 11.9959 12.787 10.9427 12.5588C10.5917 12.4828 10.3124 12.3676 9.98135 12.2307C9.66537 12.0999 9.14241 11.7719 8.81649 12.0102C8.55822 12.1991 8.37268 12.5626 8.18364 12.8188C7.51521 13.749 6.74598 14.1952 5.62547 14.4053C5.4885 14.4301 5.3505 14.4489 5.21188 14.4616C5.11923 14.4692 4.98017 14.4728 4.89412 14.4914H4.71826C4.63995 14.4721 4.53228 14.4739 4.44959 14.4677C4.37689 14.4623 4.31135 14.4546 4.23919 14.4451C3.76903 14.3867 3.31261 14.2469 2.89044 14.0319C2.21173 13.679 1.64909 13.1381 1.26986 12.4738C1.07997 12.1475 0.907413 11.764 0.758829 11.4085C0.501495 10.7928 0.230626 10.1376 0.0918298 9.483C0.0811649 9.43267 0.0791479 9.39138 0.0620117 9.34204V8.90365ZM3.04788 12.3817C3.64025 12.8796 4.29663 13.0782 5.07108 13.0146C5.76794 12.9575 6.42805 12.7003 6.87795 12.1466C7.05951 11.9407 7.19085 11.7025 7.34455 11.4784C7.72475 10.9249 8.24879 10.5255 8.93594 10.4769C9.55946 10.4329 10.133 10.6884 10.6896 10.9519C11.7554 11.4566 13.0719 11.0495 13.8147 10.1714C14.4524 9.41773 14.4732 8.56262 14.3898 7.61643C14.3539 7.24652 14.3078 6.87767 14.2517 6.51029C14.2231 6.32139 14.2017 6.11819 14.1408 5.93728C14.0864 5.77612 13.9953 5.69423 13.8192 5.70992C13.6433 5.7321 13.4109 5.78923 13.2358 5.83136C12.8988 5.91355 12.5633 6.00156 12.2293 6.09534C12.009 6.15659 11.7891 6.21895 11.5694 6.28242C11.2761 6.36727 11.0232 6.43847 10.7588 6.59786C10.2166 6.92466 9.78088 7.40024 9.3071 7.81446C9.17681 7.92902 9.02042 8.02148 8.88512 8.12693C8.53794 8.39752 8.22217 8.54677 7.78705 8.60047C6.89042 8.71105 6.10394 8.30041 5.2336 8.2002C4.6343 8.13117 4.10726 8.29671 3.53165 8.44219C3.1586 8.53536 2.78669 8.63306 2.41597 8.7351C2.27979 8.77303 1.57884 8.95364 1.52446 9.03771C1.47033 9.12145 1.53736 9.3179 1.56407 9.40706C1.72735 9.95185 1.94279 10.487 2.17247 11.0067C2.29883 11.2926 2.42702 11.5885 2.59771 11.8507C2.72742 12.05 2.87718 12.2171 3.04788 12.3817Z" fill="black"/>
<path d="M4.8434 8.72416C5.49851 8.69295 6.01996 8.88494 6.53969 9.29936C6.6829 9.4136 6.8725 9.5865 7.0309 9.77689C7.19269 9.97144 7.3074 10.1673 7.3268 10.3277C7.34267 10.4597 7.3025 10.6103 7.22622 10.7652C7.15072 10.9185 7.04569 11.0652 6.9479 11.1861C6.54612 11.6827 6.05441 12.0024 5.45278 12.1246L5.18813 12.1646C4.57578 12.2156 3.96837 12.021 3.49965 11.6236C3.19652 11.3665 2.95933 11.0404 2.80922 10.6724L2.7604 10.5415C2.71994 10.4199 2.70537 10.3223 2.71547 10.2329C2.72878 10.1161 2.78587 9.99561 2.91762 9.8433C3.43465 9.24574 4.0622 8.78638 4.84438 8.72514L4.8434 8.72416ZM4.89516 9.94486L4.88832 9.94584C4.57603 9.99081 4.34272 10.1654 4.13344 10.3453L4.04946 10.4165L4.11586 10.5035C4.2989 10.745 4.5713 10.9038 4.87172 10.9439C4.96088 10.955 5.05197 10.9557 5.14125 10.9458L5.15102 10.9449C5.31243 10.9131 5.44226 10.868 5.56215 10.7994C5.68111 10.7312 5.78541 10.642 5.89907 10.5298L5.98696 10.4439L5.89516 10.3609C5.68148 10.1663 5.42343 9.97599 5.10122 9.94389L4.95864 9.94096L4.89516 9.94486ZM12.0866 6.8433C12.2569 6.84186 12.5056 6.86533 12.7516 6.90873C13 6.95258 13.2331 7.01502 13.3756 7.08744C13.4395 7.12057 13.4978 7.16312 13.5485 7.21439C13.6297 7.29535 13.6779 7.4113 13.7047 7.54936C13.7316 7.68744 13.7354 7.83701 13.736 7.97807C13.7452 8.63106 13.493 9.2619 13.0358 9.72807C12.5799 10.1873 11.9925 10.408 11.3454 10.4097C10.8941 10.4049 10.4866 10.2931 10.0788 10.0884C9.96867 10.0332 9.85969 9.97624 9.78286 9.90775L9.78188 9.90678L9.70473 9.82377C9.63613 9.73371 9.59522 9.62412 9.5895 9.50932C9.58279 9.37723 9.61746 9.19524 9.65102 9.04643C9.7727 8.50704 10.0093 7.95871 10.3776 7.55619C10.7911 7.10433 11.3812 6.87695 11.9967 6.84623L12.0866 6.8433ZM12.0084 8.04936C11.7008 8.07844 11.4738 8.17761 11.2975 8.34525C11.1248 8.50949 11.0096 8.73131 10.9069 8.98588L10.8551 9.11479L10.9909 9.14408C11.1273 9.17299 11.2425 9.19475 11.3971 9.19096L11.401 9.18998C11.7094 9.17209 11.9517 9.07426 12.1344 8.89994C12.315 8.72755 12.4273 8.49057 12.4967 8.21244L12.528 8.08549L12.3991 8.06791C12.3223 8.05775 12.265 8.05229 12.2077 8.04936H12.0084Z" fill="black"/>
<path d="M7.48476 0.283669C7.77782 0.259512 8.07519 0.411794 8.22521 0.664494C8.28557 0.766108 8.3111 0.84986 8.33023 0.965714C8.36356 1.16714 8.39254 1.36908 8.42341 1.57089L8.6839 3.26581C8.69974 3.36879 8.73397 3.56914 8.73094 3.66945C8.72667 3.82082 8.67757 3.96752 8.58973 4.09089C8.45017 4.28914 8.26889 4.38428 8.03571 4.4264C7.80801 4.44389 7.62846 4.39571 7.44555 4.25593C7.19654 4.06564 7.17612 3.76854 7.13218 3.48083L7.03642 2.85331L6.86991 1.77375C6.8389 1.5733 6.80623 1.37353 6.77977 1.17243C6.721 0.725951 7.03823 0.32916 7.48476 0.283669Z" fill="black"/>
<path d="M0.877911 3.37805C1.27608 3.3491 1.49365 3.60083 1.77223 3.83769L2.95238 4.83773C3.04303 4.91457 3.19813 5.03822 3.27069 5.12363C3.36046 5.22963 3.42019 5.35774 3.44363 5.49466C3.47993 5.70052 3.43352 5.91239 3.3145 6.08423C3.17355 6.28507 2.9844 6.38034 2.74844 6.42086C2.30595 6.45727 2.09162 6.19314 1.78261 5.92837L1.0895 5.33491L0.642036 4.95292C0.543777 4.86904 0.399235 4.75353 0.320711 4.65615C0.229978 4.54285 0.173044 4.40626 0.156447 4.26206C0.131213 4.05087 0.190472 3.83829 0.321309 3.6706C0.462717 3.49044 0.655354 3.40513 0.877911 3.37805Z" fill="black"/>
<path d="M3.71213 0.135327C3.91924 0.218971 4.03512 0.342036 4.14032 0.53591L5.46105 3.01272L5.81488 3.67427C5.87942 3.79486 5.98959 3.98687 6.03029 4.10963C6.08125 4.2648 6.08341 4.43186 6.03649 4.58829C5.97696 4.78956 5.8388 4.95831 5.65325 5.0564C5.46508 5.15581 5.24487 5.17546 5.04207 5.11092C4.67343 4.99446 4.57178 4.71502 4.40507 4.40442L4.03146 3.70686C3.59477 2.89236 3.13653 2.06025 2.7118 1.24196C2.61026 1.04945 2.59205 0.823737 2.66142 0.61744C2.72619 0.419325 2.8662 0.248703 3.05469 0.156796C3.2644 0.0545407 3.49969 0.0495382 3.71213 0.135327Z" fill="black"/>
</svg>
