<svg width="24" height="24" viewBox="0 0 24 24" fill="none" xmlns="http://www.w3.org/2000/svg">
<path d="M1.90877 10.8911C1.37083 11.0352 0.967315 11.252 0.681301 11.5284C0.392955 11.8072 0.237338 12.1342 0.173145 12.4693C0.0483238 13.1223 0.273164 13.7981 0.472079 14.2565C0.854557 15.1378 1.0296 15.6221 1.62987 16.9399C2.25646 18.3155 4.15569 20.9029 7.98412 20.4077C9.90384 20.1593 10.938 19.233 11.6744 18.333C11.8556 18.1116 12.0193 17.8908 12.1708 17.6875C12.324 17.4817 12.4641 17.2948 12.6036 17.1297C12.8848 16.797 13.1357 16.5899 13.4259 16.512C13.7162 16.4342 14.0376 16.4879 14.4477 16.6355C14.6511 16.7088 14.8651 16.8009 15.1006 16.9024C15.3336 17.0029 15.5863 17.1118 15.8541 17.2131C16.9419 17.6243 18.3007 17.9093 20.0874 17.1646C23.65 15.6792 24.0016 12.4888 23.8564 10.9844C23.7174 9.54302 23.6268 9.03595 23.5174 8.08157C23.4604 7.58489 23.3164 6.88672 22.8815 6.3836C22.6583 6.12562 22.3604 5.92195 21.9714 5.8247C21.5856 5.72834 21.1283 5.74125 20.5905 5.88535C19.5849 6.15479 18.8477 6.3531 18.1564 6.53959C17.4651 6.72608 16.8183 6.90115 15.9942 7.12198C15.0559 7.37363 14.4854 8.16348 13.9379 8.84272C13.3692 9.54812 12.7856 10.2029 11.8057 10.4655C10.826 10.7279 9.99387 10.4525 9.14881 10.1259C8.33494 9.81145 7.44612 9.41268 6.5076 9.66391C5.6832 9.8848 5.03509 10.0567 4.34295 10.2409C3.65115 10.425 2.91404 10.6217 1.90877 10.8911ZM15.5207 13.5465C15.5956 11.3458 17.2755 9.60118 20.2881 10.4806C20.4689 12.9364 18.6601 15.0902 15.5207 13.5465ZM4.46734 14.7197C6.63659 12.4519 8.96372 13.1229 10.1289 14.9912C8.18198 17.8978 5.53862 16.9369 4.46734 14.7197Z" fill="black"/>
<path d="M1.38452 5.10573C1.66929 4.76808 2.17366 4.72534 2.51143 5.01002L5.01478 7.11953C5.35248 7.40429 5.39518 7.90865 5.11049 8.24644C4.82583 8.58415 4.32166 8.62753 3.98383 8.34309L1.48023 6.23264C1.14258 5.94787 1.09984 5.4435 1.38452 5.10573ZM5.16308 0.107857C5.55167 -0.102157 6.03738 0.0424158 6.24753 0.430965L8.98534 5.49451C9.19554 5.88314 9.05086 6.36876 8.66224 6.57896C8.27376 6.78877 7.78892 6.6439 7.57873 6.2556L4.83998 1.1923C4.62978 0.803677 4.77446 0.318052 5.16308 0.107857ZM11.4324 0.330714C11.8687 0.261286 12.279 0.558941 12.3485 0.995163L12.9403 4.71283C13.0096 5.14907 12.712 5.55938 12.2758 5.6289C11.8395 5.69833 11.4292 5.4007 11.3597 4.96445L10.768 1.24679C10.6986 0.810498 10.9961 0.40015 11.4324 0.330714Z" fill="black"/>
</svg>
