<svg width="24" height="24" viewBox="0 0 24 24" fill="none" xmlns="http://www.w3.org/2000/svg">
<path fill-rule="evenodd" clip-rule="evenodd" d="M17.5135 6.72L16.3659 4.02C16.1463 3.51 15.5575 3.28 15.0486 3.49C14.5496 3.71 14.3101 4.3 14.5297 4.8L16.4357 9.28L14.4299 14C12.5438 14.05 11.0269 15.6 11.0269 17.5C11.0269 19.43 12.5937 21 14.5197 21C15.7871 21 16.8948 20.32 17.5135 19.3C18.1222 20.32 19.2299 21 20.5073 21C22.4333 21 24 19.43 24 17.5C24 15.61 22.4931 14.06 20.617 14.01L18.6012 9.27L20.4973 4.8C20.7068 4.29 20.4773 3.71 19.9684 3.49C19.4594 3.27 18.8707 3.51 18.6611 4.02L17.5135 6.72ZM0.0898438 5.57V10C0.0898438 11.06 0.518952 12.08 1.2674 12.83C2.01584 13.58 3.02375 14 4.08155 14H5.02958C5.58842 14 6.02751 14.45 6.02751 15C6.02751 17.07 6.03749 20 6.03749 20C6.03749 20.55 6.47658 21 7.03542 21C7.58428 21 8.03335 20.55 8.03335 20C8.03335 20 8.02337 17.07 8.02337 15C8.02337 13.34 6.68614 12 5.02958 12H4.08155C3.55265 12 3.04371 11.79 2.67448 11.41C2.40504 11.14 2.21543 10.8 2.1356 10.43C2.30524 10.46 2.47489 10.48 2.65452 10.48C4.84996 10.48 8.82171 10.48 11.0271 10.48C12.4342 10.48 13.5918 9.33 13.5918 7.91V5.57C13.5918 4.15 12.4342 3 11.0271 3C8.82171 3 4.84996 3 2.65452 3C1.23746 3 0.0898438 4.15 0.0898438 5.57ZM14.5197 16C15.338 16 16.0166 16.67 16.0166 17.5C16.0166 18.33 15.338 19 14.5197 19C13.6914 19 13.0228 18.33 13.0228 17.5C13.0228 16.67 13.6914 16 14.5197 16ZM20.5073 16C21.3256 16 22.0041 16.67 22.0041 17.5C22.0041 18.33 21.3256 19 20.5073 19C19.679 19 19.0104 18.33 19.0104 17.5C19.0104 16.67 19.679 16 20.5073 16ZM18.6711 14.53L17.5234 11.83L16.3758 14.54C16.8349 14.83 17.2241 15.23 17.5135 15.7C17.7929 15.22 18.1921 14.82 18.6711 14.53ZM11.5958 5.57V7.91C11.5958 8.23 11.3363 8.48 11.0269 8.48H2.65433C2.34497 8.48 2.08551 8.23 2.08551 7.91V5.57C2.08551 5.26 2.34497 5 2.65433 5H11.0269C11.3363 5 11.5958 5.26 11.5958 5.57Z" fill="black"/>
</svg>
