<svg width="16" height="16" viewBox="0 0 16 16" fill="none" xmlns="http://www.w3.org/2000/svg">
<path fill-rule="evenodd" clip-rule="evenodd" d="M11.441 4.34519L10.594 2.59219C10.4017 2.19519 9.92442 2.02919 9.52883 2.22119C9.13224 2.41419 8.96683 2.89319 9.15915 3.29019L10.5572 6.18519L9.13523 9.14719C7.87971 9.28219 6.9012 10.3512 6.9012 11.6462C6.9012 13.0342 8.02419 14.1612 9.40726 14.1612C10.2463 14.1612 10.9896 13.7472 11.443 13.1092C11.8954 13.7582 12.6457 14.1822 13.4937 14.1822C14.8768 14.1822 15.9998 13.0552 15.9998 11.6672C15.9998 10.3732 15.0232 9.30619 13.7707 9.16819L12.3278 6.18219L13.7179 3.28819C13.9092 2.89019 13.7418 2.41119 13.3462 2.22019C12.9496 2.02819 12.4723 2.19519 12.282 2.59319L11.441 4.34519ZM0.17879 5.39719V7.48419C0.17879 8.09919 0.428899 8.68719 0.870325 9.11219C1.31275 9.53819 1.90862 9.76419 2.52044 9.73819L3.04158 9.71619C3.21995 9.70919 3.39333 9.77519 3.52187 9.89819C3.65041 10.0222 3.72216 10.1932 3.72216 10.3722L3.72315 13.1852C3.72315 13.6272 4.08088 13.9852 4.52031 13.9852C4.96074 13.9852 5.31747 13.6262 5.31747 13.1852C5.31747 13.1852 5.31747 11.6202 5.31647 10.3712C5.31647 9.75719 5.06736 9.16919 4.62494 8.74419C4.18252 8.31819 3.58764 8.09219 2.97582 8.11819L2.45368 8.14019C2.27631 8.14719 2.10293 8.08119 1.97439 7.95819C1.84585 7.83419 1.77311 7.66319 1.77311 7.48419V7.10919C1.83787 7.11719 1.90264 7.12019 1.96841 7.12019C3.29169 7.12019 5.61441 7.12019 6.93669 7.12019C7.413 7.12019 7.86937 6.93119 8.20517 6.59319C8.54197 6.25619 8.7303 5.79819 8.7303 5.32019V3.66719C8.7303 3.18919 8.54197 2.73119 8.20517 2.39419C7.86937 2.05619 7.413 1.86719 6.93669 1.86719C5.61441 1.86719 3.29169 1.86719 1.96841 1.86719C1.4931 1.86719 1.03673 2.05619 0.699932 2.39419C0.36413 2.73119 0.174805 3.18919 0.174805 3.66719C0.174805 4.18119 0.174805 4.80619 0.174805 5.32019L0.17879 5.39719ZM13.4937 10.7522C13.9969 10.7522 14.4054 11.1622 14.4054 11.6672C14.4054 12.1722 13.9969 12.5822 13.4937 12.5822C12.9905 12.5822 12.5819 12.1722 12.5819 11.6672C12.5819 11.1622 12.9905 10.7522 13.4937 10.7522ZM9.40726 10.7312C9.91047 10.7312 10.319 11.1412 10.319 11.6462C10.319 12.1512 9.91047 12.5612 9.40726 12.5612C8.90406 12.5612 8.49551 12.1512 8.49551 11.6462C8.49551 11.1412 8.90406 10.7312 9.40726 10.7312ZM12.1744 9.53219L11.445 8.02219L10.7295 9.51319C11.0165 9.69219 11.2646 9.92719 11.458 10.2052C11.6503 9.93519 11.8934 9.70519 12.1744 9.53219ZM7.13536 3.66719V5.32019C7.13536 5.37319 7.11444 5.42419 7.07757 5.46219C7.0397 5.49919 6.98888 5.52019 6.93607 5.52019H1.96779C1.91498 5.52019 1.86416 5.49919 1.82729 5.46219C1.78942 5.42419 1.7685 5.37319 1.7685 5.32019V3.66719C1.7685 3.61419 1.78942 3.56319 1.82729 3.52519C1.86416 3.48819 1.91498 3.46719 1.96779 3.46719H6.93607C6.98888 3.46719 7.0397 3.48819 7.07757 3.52519C7.11444 3.56319 7.13536 3.61419 7.13536 3.66719Z" fill="black"/>
</svg>
