<svg width="24" height="24" viewBox="0 0 24 24" fill="none" xmlns="http://www.w3.org/2000/svg">
<path fill-rule="evenodd" clip-rule="evenodd" d="M3.01711 15.99C3.01711 15.99 3.00811 16.99 3.00011 17.99C2.98611 19.65 4.31811 21 5.97511 21.02C6.97511 21.02 7.97511 21.03 7.97511 21.03C8.52711 21.04 8.97911 20.59 8.98311 20.04C8.98811 19.49 8.54411 19.04 7.99211 19.03C7.99211 19.03 6.99211 19.02 5.99211 19.02C5.43911 19.01 4.99511 18.56 5.00011 18.01C5.00811 17.01 5.01711 16.01 5.01711 16.01C5.02111 15.46 4.57711 15 4.02511 15C3.47311 15 3.02111 15.44 3.01711 15.99ZM15.9921 20.97C15.9921 20.97 16.9921 20.97 17.9921 20.98C19.6481 21 21.0031 19.67 21.0161 18.01C21.0251 17.01 21.0331 16.01 21.0331 16.01C21.0381 15.46 20.5931 15 20.0411 15C19.4891 15 19.0381 15.44 19.0331 15.99C19.0331 15.99 19.0251 16.99 19.0171 17.99C19.0121 18.54 18.5601 18.99 18.0081 18.98C17.0081 18.97 16.0081 18.97 16.0081 18.97C15.4561 18.96 15.0051 19.41 15.0001 19.96C14.9951 20.51 15.4401 20.96 15.9921 20.97ZM8.00011 3H6.00011C4.34311 3 3.00011 4.34 3.00011 6C3.00011 7 3.00011 8 3.00011 8C3.00011 8.55 3.44811 9 4.00011 9C4.55211 9 5.00011 8.55 5.00011 8C5.00011 8 5.00011 7 5.00011 6C5.00011 5.45 5.44811 5 6.00011 5H8.00011C8.55211 5 9.00011 4.55 9.00011 4C9.00011 3.45 8.55211 3 8.00011 3ZM21.0001 8V6C21.0001 4.34 19.6571 3 18.0001 3C17.0001 3 16.0001 3 16.0001 3C15.4481 3 15.0001 3.45 15.0001 4C15.0001 4.55 15.4481 5 16.0001 5C16.0001 5 17.0001 5 18.0001 5C18.5521 5 19.0001 5.45 19.0001 6V8C19.0001 8.55 19.4481 9 20.0001 9C20.5521 9 21.0001 8.55 21.0001 8Z" fill="black"/>
</svg>
