<svg width="12" height="12" viewBox="0 0 12 12" fill="none" xmlns="http://www.w3.org/2000/svg">
<path d="M9.00014 9.00009H5.51614C4.96414 9.00009 4.51614 9.44819 4.51614 10.0001C4.51614 10.552 4.96414 11.0001 5.51614 11.0001C5.51614 11.0001 7.67814 11.0001 9.00014 11.0001C9.53014 11.0001 10.0391 10.7894 10.4141 10.4143C10.7891 10.0392 11.0001 9.53049 11.0001 9.00009C11.0001 7.68479 11.0001 5.53839 11.0001 5.53839C11.0001 4.98649 10.5521 4.53839 10.0001 4.53839C9.44814 4.53839 9.00014 4.98649 9.00014 5.53839V9.00009Z" fill="black"/>
<path d="M2.99615 3.01917L6.48015 2.99017C7.03215 2.98567 7.47715 2.53387 7.47215 1.98197C7.46815 1.43007 7.01615 0.98567 6.46415 0.99027L2.98015 1.01917C2.44915 1.02357 1.94215 1.23857 1.57015 1.61667C1.19815 1.99487 0.992151 2.50537 0.996151 3.03577L1.02515 6.49727C1.03015 7.04917 1.48115 7.49357 2.03315 7.48897C2.58515 7.48437 3.02915 7.03257 3.02515 6.48067L2.99615 3.01917Z" fill="black"/>
</svg>
