<svg width="16" height="16" viewBox="0 0 16 16" fill="none" xmlns="http://www.w3.org/2000/svg">
<path d="M8.79395 3.48486C8.79395 3.26395 8.61447 3.08447 8.39355 3.08447H7.60645C7.38553 3.08447 7.20605 3.26395 7.20605 3.48486V5.30615C7.20605 6.35541 6.35587 7.20641 5.30664 7.20654H2.38574C2.16497 7.20654 1.98558 7.38524 1.98535 7.60596V8.39404C1.98544 8.61488 2.16488 8.79346 2.38574 8.79346H5.30664C6.35586 8.79359 7.20604 9.6446 7.20605 10.6938V12.5161C7.20628 12.7368 7.38567 12.9155 7.60645 12.9155H8.39355C8.61433 12.9155 8.79372 12.7368 8.79395 12.5161V10.6938C8.79396 9.64452 9.64501 8.79346 10.6943 8.79346H13.6152C13.8359 8.79325 14.0146 8.61475 14.0146 8.39404V7.60596C14.0144 7.38537 13.8358 7.20675 13.6152 7.20654H10.6943C9.645 7.20654 8.79395 6.35549 8.79395 5.30615V3.48486ZM10.3936 5.30615C10.3936 5.47184 10.5287 5.60596 10.6943 5.60596H13.6152C14.7195 5.60617 15.615 6.50171 15.6152 7.60596V8.39404C15.6151 9.49841 14.7196 10.3938 13.6152 10.394H10.6943C10.5287 10.394 10.3936 10.5282 10.3936 10.6938V12.5161C10.3933 13.6205 9.49798 14.5161 8.39355 14.5161H7.60645C6.50202 14.5161 5.60667 13.6205 5.60645 12.5161V10.6938C5.60643 10.5283 5.4722 10.3942 5.30664 10.394H2.38574C1.28123 10.394 0.385833 9.49854 0.385742 8.39404V7.60596C0.385969 6.50158 1.28131 5.60596 2.38574 5.60596H5.30664C5.47221 5.60582 5.60645 5.47175 5.60645 5.30615V3.48486C5.60645 2.38029 6.50188 1.48486 7.60645 1.48486H8.39355C9.49813 1.48486 10.3936 2.38029 10.3936 3.48486V5.30615Z" fill="black"/>
</svg>
