<svg width="16" height="16" viewBox="0 0 16 16" fill="none" xmlns="http://www.w3.org/2000/svg">
<path d="M10.3992 5.3005C10.3992 5.46619 10.5335 5.6005 10.6992 5.6005H13.4224C14.5269 5.6005 15.4224 6.49593 15.4224 7.6005V8.39894C15.4224 9.50351 14.5269 10.3989 13.4224 10.3989H10.6992C10.5335 10.3989 10.3992 10.5333 10.3992 10.6989V12.3617C10.3992 13.4663 9.50379 14.3617 8.39922 14.3617H7.60078C6.49621 14.3617 5.60078 13.4663 5.60078 12.3617V10.6989C5.60078 10.5333 5.46646 10.3989 5.30078 10.3989H2.57764C1.47307 10.3989 0.577637 9.50351 0.577637 8.39894V7.6005C0.577637 6.49593 1.47307 5.6005 2.57764 5.6005H5.30078C5.46646 5.6005 5.60078 5.46619 5.60078 5.3005V3.63769C5.60078 2.53312 6.49621 1.6377 7.60078 1.6377H8.39922C9.50379 1.6377 10.3992 2.53313 10.3992 3.63769V5.3005Z" fill="black"/>
</svg>
