<svg width="24" height="24" viewBox="0 0 24 24" fill="none" xmlns="http://www.w3.org/2000/svg">
<path d="M12.8262 2.59961C14.3836 2.59963 15.6465 3.86251 15.6465 5.41992V8.16602C15.6466 8.26969 15.7303 8.35343 15.834 8.35352H20.46C22.0174 8.35352 23.2803 9.61639 23.2803 11.1738V12.8262C23.2803 14.3836 22.0174 15.6465 20.46 15.6465H15.834C15.7303 15.6466 15.6466 15.7303 15.6465 15.834V18.5801C15.6464 20.1375 14.3836 21.4004 12.8262 21.4004H11.1738C9.61642 21.4004 8.35357 20.1375 8.35352 18.5801V15.834C8.35343 15.7303 8.26969 15.6466 8.16602 15.6465H3.54004C1.9826 15.6465 0.71974 14.3836 0.719727 12.8262V11.1738C0.719727 9.61639 1.9826 8.35352 3.54004 8.35352H8.16602C8.26967 8.3534 8.3534 8.26968 8.35352 8.16602V5.41992C8.35354 3.8625 9.6164 2.59961 11.1738 2.59961H12.8262Z" fill="black"/>
</svg>
