<svg width="24" height="24" viewBox="0 0 24 24" fill="none" xmlns="http://www.w3.org/2000/svg">
<path d="M12.8584 2.41797C14.4636 2.41823 15.7655 3.71995 15.7656 5.3252V8.08984C15.7656 8.1695 15.8305 8.23438 15.9102 8.23438H20.582C22.1872 8.23464 23.4891 9.53636 23.4893 11.1416V12.8574C23.4893 14.4628 22.1873 15.7644 20.582 15.7646H15.9102C15.8306 15.7646 15.7658 15.8296 15.7656 15.9092V18.6748C15.7654 20.28 14.4635 21.5808 12.8584 21.5811H11.1426C9.53721 21.5811 8.23559 20.2801 8.23535 18.6748V15.9092C8.23522 15.8298 8.17017 15.7649 8.09082 15.7646H3.41895C1.86372 15.7646 0.593665 14.5436 0.515625 13.0078L0.510742 12.8574V11.1416C0.510874 9.53619 1.81351 8.23438 3.41895 8.23438H8.09082C8.17025 8.23411 8.23535 8.16934 8.23535 8.08984V5.3252C8.23548 3.71979 9.53714 2.41797 11.1426 2.41797H12.8584ZM11.1426 4.41797C10.6417 4.41797 10.2355 4.82436 10.2354 5.3252V8.08984C10.2354 9.2739 9.27482 10.2341 8.09082 10.2344H3.41895C2.91808 10.2344 2.51185 10.6408 2.51172 11.1416V12.8574L2.5166 12.9502C2.56288 13.4078 2.94918 13.7646 3.41895 13.7646H8.09082C9.27474 13.7649 10.2352 14.7252 10.2354 15.9092V18.6748C10.2356 19.1756 10.6418 19.5811 11.1426 19.5811H12.8584C13.359 19.5808 13.7654 19.1754 13.7656 18.6748V15.9092C13.7658 14.7251 14.726 13.7646 15.9102 13.7646H20.582C21.0828 13.7644 21.4893 13.3582 21.4893 12.8574V11.1416C21.4891 10.6409 21.0827 10.2346 20.582 10.2344H15.9102C14.7259 10.2344 13.7656 9.27407 13.7656 8.08984V5.3252C13.7655 4.82452 13.359 4.41823 12.8584 4.41797H11.1426Z" fill="black"/>
</svg>
