<svg width="24" height="24" viewBox="0 0 24 24" fill="none" xmlns="http://www.w3.org/2000/svg">
<path fill-rule="evenodd" clip-rule="evenodd" d="M4.07373 14.7349C4.07373 10.925 6.76182 7.74286 10.3449 6.9817C10.8787 6.8683 11.4324 6.80864 12 6.80864C12.5676 6.80864 13.1212 6.86829 13.655 6.98168C17.2381 7.74281 19.9263 10.9249 19.9263 14.7349C19.9263 19.1125 16.3776 22.6612 12 22.6612C7.62244 22.6612 4.07373 19.1125 4.07373 14.7349ZM12 8.80864C8.72701 8.80864 6.07373 11.4619 6.07373 14.7349C6.07373 18.0079 8.72701 20.6612 12 20.6612C15.273 20.6612 17.9263 18.0079 17.9263 14.7349C17.9263 11.4619 15.273 8.80864 12 8.80864Z" fill="black"/>
<path d="M12.7487 11.4893C13.1223 11.644 13.366 12.0087 13.366 12.4131V18.0565H11.366V14.8126C10.9744 15.1048 10.4174 15.0731 10.0617 14.7174C9.67122 14.3268 9.67122 13.6937 10.0617 13.3032L11.6589 11.706C11.9449 11.42 12.375 11.3345 12.7487 11.4893Z" fill="black"/>
<path d="M10.3449 6.9817C10.8787 6.8683 11.4324 6.80864 12 6.80864C12.5676 6.80864 13.1212 6.86829 13.655 6.98168C13.6656 6.92108 13.671 6.85191 13.671 6.7731C13.671 5.85019 12.9229 5.10202 12 5.10202C11.077 5.10202 10.3289 5.85019 10.3289 6.7731C10.3289 6.85192 10.3343 6.92109 10.3449 6.9817Z" fill="black"/>
<path d="M6.59827 3.49722C5.33834 2.23729 6.23067 0.0830078 8.01248 0.0830078H15.9876C17.7694 0.0830078 18.6618 2.23729 17.4018 3.49722L15.6631 5.23595L14.2489 3.82173L15.9876 2.08301H8.01248L9.75121 3.82173L8.33699 5.23595L6.59827 3.49722Z" fill="black"/>
</svg>
