<svg width="16" height="16" viewBox="0 0 16 16" fill="none" xmlns="http://www.w3.org/2000/svg">
<path fill-rule="evenodd" clip-rule="evenodd" d="M2.97898 3.03008L1.52398 1.58008C1.19298 1.24008 0.65398 1.24008 0.32198 1.58008C-0.00901952 1.91008 -0.00901952 2.45008 0.32198 2.78008L1.93198 4.39008H1.92998L3.07598 5.54008L3.07798 5.53008L4.61398 7.07008H4.61198L6.06998 8.53008V8.52008L7.59598 10.0501H7.58998L8.90498 11.3701L8.90898 11.3601L12.992 15.4501C13.324 15.7801 13.863 15.7801 14.194 15.4501C14.526 15.1201 14.526 14.5801 14.194 14.2501L11.606 11.6601H11.629C13.672 11.6601 14.947 9.99008 14.947 7.32008C14.947 3.61008 12.178 1.08008 8.13398 1.08008C6.01998 1.08008 4.23398 1.79008 2.97898 3.03008ZM1.16198 6.45008C1.05498 6.97008 0.99998 7.51008 0.99998 8.08008C0.99998 12.3001 3.87898 15.0801 8.27698 15.0801C8.76598 15.0801 9.24798 15.0401 9.69198 14.9801L8.39298 13.6801C4.81098 13.6801 2.54498 11.5301 2.54498 8.12008L2.55698 7.85008L1.16198 6.45008ZM5.51298 5.56008C6.11998 4.96008 6.95498 4.60008 7.90898 4.60008C8.51298 4.60008 9.24898 4.87008 9.71198 5.27008C9.81498 5.03008 10.051 4.86008 10.328 4.86008C10.556 4.85008 10.775 4.94008 10.937 5.10008C11.099 5.26008 11.19 5.48008 11.19 5.71008V9.30008C11.19 9.89008 11.485 10.2401 12 10.2401C12.853 10.2401 13.402 9.16008 13.402 7.46008C13.402 4.42008 11.291 2.44008 8.08298 2.44008C6.41698 2.44008 5.01098 3.04008 4.03598 4.09008L5.51298 5.56008ZM9.25498 9.31008C9.44998 9.00008 9.55398 8.61008 9.55398 8.15008C9.55398 6.96008 8.86598 6.22008 7.77798 6.22008C7.28698 6.22008 6.88598 6.37008 6.59798 6.65008L9.25498 9.31008Z" fill="black"/>
</svg>
