<svg width="16" height="16" viewBox="0 0 16 16" fill="none" xmlns="http://www.w3.org/2000/svg">
<path fill-rule="evenodd" clip-rule="evenodd" d="M8.134 1.08008C3.913 1.08008 1 3.93008 1 8.08008C1 12.3001 3.879 15.0801 8.277 15.0801C8.978 15.0801 9.664 15.0101 10.245 14.8901C10.51 14.8301 10.699 14.5901 10.699 14.3201C10.699 14.1001 10.603 13.8901 10.436 13.7501C10.269 13.6101 10.049 13.5501 9.833 13.5901C9.404 13.6501 8.901 13.6801 8.404 13.6801C4.816 13.6801 2.545 11.5301 2.545 8.12008C2.545 4.77008 4.816 2.44008 8.083 2.44008C11.291 2.44008 13.402 4.42008 13.402 7.46008C13.402 9.16008 12.853 10.2401 12 10.2401C11.485 10.2401 11.19 9.89008 11.19 9.30008V5.71008C11.19 5.48008 11.099 5.26008 10.937 5.10008C10.775 4.94008 10.556 4.85008 10.328 4.86008C10.051 4.86008 9.815 5.03008 9.712 5.27008C9.249 4.87008 8.513 4.60008 7.909 4.60008C5.93 4.60008 4.462 6.16008 4.462 8.14008C4.462 10.2901 5.694 11.6801 7.563 11.6801C8.271 11.6801 9.17 11.3701 9.788 10.7801C10.109 11.3301 10.775 11.6601 11.629 11.6601C13.672 11.6601 14.947 9.99008 14.947 7.32008C14.947 3.61008 12.178 1.08008 8.134 1.08008ZM9.554 8.15008C9.554 6.96008 8.866 6.22008 7.778 6.22008C6.69 6.22008 6.043 6.94008 6.043 8.15008C6.043 9.34008 6.69 10.0701 7.768 10.0701C8.866 10.0701 9.554 9.33008 9.554 8.15008Z" fill="black"/>
</svg>
