<svg width="24" height="24" viewBox="0 0 24 24" fill="none" xmlns="http://www.w3.org/2000/svg">
<path fill-rule="evenodd" clip-rule="evenodd" d="M14.2251 8.42C13.6351 7.89 12.6691 7.53 11.8791 7.53C9.33409 7.53 7.44709 9.54 7.44709 12.08C7.44709 14.84 9.03109 16.63 11.4341 16.63C12.3471 16.63 13.5061 16.24 14.2991 15.46C14.7071 16.18 15.5641 16.61 16.6621 16.61C19.2881 16.61 20.9271 14.46 20.9271 11.02C20.9271 6.26 17.3671 3 12.1681 3C6.74109 3 2.99609 6.67 2.99609 12.01C2.99609 17.43 6.69709 21 12.3531 21C13.5021 21 14.6191 20.86 15.4661 20.61H15.4681C15.4681 20.58 15.4681 20.29 15.4681 19.95C15.4671 19.69 15.3501 19.44 15.1481 19.27C14.9451 19.1 14.6781 19.03 14.4191 19.08C13.8531 19.16 13.1801 19.21 12.5151 19.21C7.90209 19.21 4.98309 16.44 4.98309 12.06C4.98309 7.75 7.90209 4.75 12.1031 4.75C16.2281 4.75 18.9411 7.3 18.9411 11.21C18.9411 13.4 18.2361 14.78 17.1391 14.78C16.4771 14.78 16.0971 14.34 16.0971 13.57V8.84C16.0971 8.58 15.9921 8.33 15.8051 8.14C15.6181 7.96 15.3651 7.86 15.1021 7.86H15.1011C14.7151 7.86 14.3811 8.09 14.2251 8.42ZM11.7111 9.62C13.1101 9.62 13.9941 10.56 13.9941 12.09C13.9941 13.62 13.1101 14.56 11.6981 14.56C10.3121 14.56 9.48009 13.63 9.48009 12.09C9.48009 10.54 10.3121 9.62 11.7111 9.62Z" fill="black"/>
</svg>
