<svg width="16" height="16" viewBox="0 0 16 16" fill="none" xmlns="http://www.w3.org/2000/svg">
<path fill-rule="evenodd" clip-rule="evenodd" d="M2.6667 12.8002H13.3333C13.7749 12.8002 14.1333 12.4417 14.1333 12.0002C14.1333 11.5587 13.7749 11.2002 13.3333 11.2002H2.6667C2.2251 11.2002 1.8667 11.5587 1.8667 12.0002C1.8667 12.4417 2.2251 12.8002 2.6667 12.8002ZM2.6667 8.8002H13.3333C13.7749 8.8002 14.1333 8.4417 14.1333 8.0002C14.1333 7.5587 13.7749 7.2002 13.3333 7.2002H2.6667C2.2251 7.2002 1.8667 7.5587 1.8667 8.0002C1.8667 8.4417 2.2251 8.8002 2.6667 8.8002ZM2.6667 4.8002H13.3333C13.7749 4.8002 14.1333 4.4417 14.1333 4.0002C14.1333 3.5587 13.7749 3.2002 13.3333 3.2002H2.6667C2.2251 3.2002 1.8667 3.5587 1.8667 4.0002C1.8667 4.4417 2.2251 4.8002 2.6667 4.8002Z" fill="black"/>
</svg>
