<svg width="24" height="24" viewBox="0 0 24 24" fill="none" xmlns="http://www.w3.org/2000/svg">
<path fill-rule="evenodd" clip-rule="evenodd" d="M20.0131 19.4603C21.2331 18.3603 22.0001 16.7703 22.0001 15.0003C22.0001 12.7503 22.0001 10.1203 22.0001 8.00031C22.0001 5.24031 19.7611 3.00031 17.0001 3.00031C14.0231 3.00031 9.97711 3.00031 7.00011 3.00031C6.02011 3.00031 5.10511 3.28031 4.33611 3.78031L2.32111 1.76031C1.89111 1.34031 1.19411 1.34031 0.765109 1.76031C0.336109 2.19031 0.336109 2.89031 0.765109 3.32031L20.1871 22.7403C20.6161 23.1703 21.3131 23.1703 21.7431 22.7403C22.1721 22.3103 22.1721 21.6203 21.7431 21.1903L20.0131 19.4603ZM2.03711 7.41031C2.01211 7.60031 2.00011 7.80031 2.00011 8.00031V15.0003C2.00011 18.3103 4.68611 21.0003 8.00011 21.0003H15.6251L13.6251 19.0003H8.00011C5.79111 19.0003 4.00011 17.2103 4.00011 15.0003V9.38031L2.03711 7.41031ZM18.5951 18.0403C19.4551 17.3103 20.0001 16.2203 20.0001 15.0003V8.00031C20.0001 7.75031 19.9701 7.52031 19.9121 7.29031L14.4001 12.5603C14.1731 12.7803 13.9231 12.9603 13.6571 13.1003L18.5951 18.0403ZM12.0811 11.5303C12.4211 11.5103 12.7541 11.3703 13.0181 11.1203L18.7881 5.60031C18.2901 5.22031 17.6711 5.00031 17.0001 5.00031C14.0231 5.00031 9.97711 5.00031 7.00011 5.00031C6.57711 5.00031 6.17511 5.09031 5.81211 5.26031L12.0811 11.5303Z" fill="black"/>
</svg>
