<svg width="16" height="16" viewBox="0 0 16 16" fill="none" xmlns="http://www.w3.org/2000/svg">
<path fill-rule="evenodd" clip-rule="evenodd" d="M1.2002 9.50922C1.2002 10.7792 1.7062 11.9992 2.6062 12.8992C3.5062 13.7992 4.7272 14.3092 6.0002 14.3092C7.2872 14.3092 8.7132 14.3092 10.0002 14.3092C11.2732 14.3092 12.4942 13.7992 13.3942 12.8992C14.2942 11.9992 14.8002 10.7792 14.8002 9.50922V5.49922C14.8002 3.39922 13.0992 1.69922 11.0002 1.69922C9.1682 1.69922 6.8322 1.69922 5.0002 1.69922C2.9012 1.69922 1.2002 3.39922 1.2002 5.49922V9.50922ZM13.1472 5.01922L9.6852 8.33922C8.7412 9.23922 7.2542 9.24922 6.3022 8.34922L2.8402 5.08922C2.8132 5.21922 2.8002 5.35922 2.8002 5.49922V9.50922C2.8002 10.3592 3.1372 11.1692 3.7372 11.7692C4.3372 12.3692 5.1512 12.7092 6.0002 12.7092H10.0002C10.8492 12.7092 11.6632 12.3692 12.2632 11.7692C12.8632 11.1692 13.2002 10.3592 13.2002 9.50922V5.49922C13.2002 5.32922 13.1822 5.17922 13.1472 5.01922ZM12.2382 3.67922C11.8852 3.43922 11.4592 3.29922 11.0002 3.29922H5.0002C4.5212 3.29922 4.0772 3.44922 3.7172 3.70922L7.4002 7.18922C7.73119 7.49922 8.2502 7.49922 8.5792 7.17922L12.2382 3.67922Z" fill="black"/>
</svg>
