<svg width="16" height="16" viewBox="0 0 16 16" fill="none" xmlns="http://www.w3.org/2000/svg">
<path fill-rule="evenodd" clip-rule="evenodd" d="M8.7402 12.2792L10.8672 14.4392C11.0412 14.6092 11.2802 14.7092 11.5282 14.6992C11.7762 14.6992 12.0112 14.5892 12.1772 14.4092L15.7132 10.4692C16.0462 10.0992 16.0162 9.52922 15.6472 9.19922C15.2782 8.85922 14.7082 8.88922 14.3762 9.25922L11.4792 12.4892L10.0232 11.0092C9.6742 10.6592 9.1042 10.6492 8.7502 10.9992C8.3962 11.3492 8.3922 11.9192 8.7402 12.2792ZM8.4982 14.3092L7.6002 13.3992C7.3972 13.1892 7.2372 12.9592 7.1232 12.7092H5.0002C4.1512 12.7092 3.3372 12.3692 2.7372 11.7692C2.1372 11.1692 1.8002 10.3592 1.8002 9.50922V5.49922C1.8002 5.35922 1.8132 5.21922 1.8402 5.08922L5.3022 8.34922C6.2542 9.24922 7.74119 9.23922 8.68519 8.33922L12.1472 5.01922C12.1822 5.17922 12.2002 5.32922 12.2002 5.49922V9.29922L13.3052 8.06922C13.4542 7.90922 13.6212 7.76922 13.8002 7.64922V5.49922C13.8002 3.39922 12.0992 1.69922 10.0002 1.69922C8.1682 1.69922 5.8322 1.69922 4.0002 1.69922C1.9012 1.69922 0.200195 3.39922 0.200195 5.49922V9.50922C0.200195 10.7792 0.706195 11.9992 1.6062 12.8992C2.5062 13.7992 3.7272 14.3092 5.0002 14.3092H8.4982ZM11.2382 3.67922C10.8852 3.43922 10.4592 3.29922 10.0002 3.29922H4.0002C3.5212 3.29922 3.0772 3.44922 2.7172 3.70922L6.4002 7.18922C6.73119 7.49922 7.2502 7.49922 7.5792 7.17922L11.2382 3.67922Z" fill="black"/>
</svg>
