<svg width="16" height="16" viewBox="0 0 16 16" fill="none" xmlns="http://www.w3.org/2000/svg">
<path d="M9.7312 1.69922H5.0002C2.9012 1.69922 1.2002 3.39922 1.2002 5.49922V9.50922C1.2002 10.7792 1.7062 11.9992 2.6062 12.8992C3.5062 13.7992 4.7272 14.3092 6.0002 14.3092C7.2872 14.3092 8.7132 14.3092 10.0002 14.3092C11.2732 14.3092 12.4942 13.7992 13.3942 12.8992C14.2942 11.9992 14.8002 10.7792 14.8002 9.50922V6.10922C14.3912 6.25922 13.9472 6.33922 13.4852 6.33922L13.2002 6.32922V9.50922C13.2002 10.3592 12.8632 11.1692 12.2632 11.7692C11.6632 12.3692 10.8492 12.7092 10.0002 12.7092H6.0002C5.1512 12.7092 4.3372 12.3692 3.7372 11.7692C3.1372 11.1692 2.8002 10.3592 2.8002 9.50922V5.49922C2.8002 5.35922 2.8132 5.21922 2.8402 5.08922L6.3022 8.34922C7.2542 9.24922 8.74119 9.23922 9.68519 8.33922L12.0582 6.06922C11.5412 5.85922 11.0812 5.53922 10.7052 5.14922L8.5792 7.17922C8.2502 7.49922 7.73119 7.49922 7.4002 7.18922L3.7172 3.70922C4.0772 3.44922 4.5212 3.29922 5.0002 3.29922H9.7282C9.67319 3.03922 9.6452 2.77922 9.6452 2.49922C9.6452 2.22922 9.6742 1.95922 9.7312 1.69922Z" fill="black"/>
<path d="M13.4853 0.460938C14.6113 0.460938 15.5253 1.38094 15.5253 2.50094C15.5253 3.63094 14.6113 4.54094 13.4853 4.54094C12.3593 4.54094 11.4453 3.63094 11.4453 2.50094C11.4453 1.38094 12.3593 0.460938 13.4853 0.460938Z" fill="black"/>
</svg>
