<svg width="24" height="24" viewBox="0 0 24 24" fill="none" xmlns="http://www.w3.org/2000/svg">
<path fill-rule="evenodd" clip-rule="evenodd" d="M15.1 3C15.035 3.32 15 3.66 15 4C15 4.34 15.035 4.68 15.1 5H7C6.309 5 5.673 5.23 5.167 5.63L10.998 11.13C11.579 11.67 12.488 11.67 13.064 11.12L16.641 7.69C17.153 8.16 17.763 8.53 18.435 8.75L14.447 12.56C13.101 13.85 10.982 13.86 9.626 12.58L4.074 7.35C4.025 7.56 4 7.77 4 8V15C4 17.21 5.791 19 8 19C10.495 19 13.505 19 16 19C18.209 19 20 17.21 20 15V9C20.711 9 21.388 8.85 22 8.58V15C22 18.31 19.314 21 16 21C13.505 21 10.495 21 8 21C4.686 21 2 18.31 2 15V8C2 5.24 4.239 3 7 3H15.1ZM20 1C21.656 1 23 2.34 23 4C23 5.66 21.656 7 20 7C18.344 7 17 5.66 17 4C17 2.34 18.344 1 20 1Z" fill="black"/>
</svg>
