<svg width="24" height="24" viewBox="0 0 24 24" fill="none" xmlns="http://www.w3.org/2000/svg">
<path fill-rule="evenodd" clip-rule="evenodd" d="M2 15C2 18.31 4.686 21 8 21C10.495 21 13.505 21 16 21C19.314 21 22 18.31 22 15C22 12.75 22 10.12 22 8C22 5.24 19.761 3 17 3C14.023 3 9.977 3 7 3C4.239 3 2 5.24 2 8V15ZM19.912 7.29L14.4 12.56C13.054 13.85 10.935 13.86 9.58 12.58L4.064 7.38C4.022 7.58 4 7.79 4 8V15C4 17.21 5.791 19 8 19C10.495 19 13.505 19 16 19C18.209 19 20 17.21 20 15V8C20 7.75 19.97 7.52 19.912 7.29ZM18.788 5.6C18.29 5.22 17.671 5 17 5C14.023 5 9.977 5 7 5C6.298 5 5.652 5.24 5.141 5.65L10.952 11.13C11.532 11.67 12.441 11.67 13.018 11.12L18.788 5.6Z" fill="black"/>
</svg>
