<svg width="24" height="24" viewBox="0 0 24 24" fill="none" xmlns="http://www.w3.org/2000/svg">
<path fill-rule="evenodd" clip-rule="evenodd" d="M13.288 18.24L16.478 21.48C16.691 21.69 16.983 21.81 17.286 21.81C17.59 21.8 17.876 21.67 18.079 21.44L23.562 15.36C23.968 14.9 23.932 14.21 23.481 13.8C23.029 13.4 22.333 13.43 21.927 13.88L17.226 19.1L14.856 16.69C14.43 16.26 13.733 16.26 13.301 16.68C12.868 17.11 12.862 17.8 13.288 18.24ZM12.357 20L11.934 19.57C11.495 19.12 11.224 18.57 11.121 18H8C6.939 18 5.922 17.58 5.172 16.83C4.421 16.08 4 15.06 4 14V8C4 7.79 4.021 7.59 4.063 7.39L9.107 12.42C9.766 13.08 10.66 13.44 11.591 13.44C12.522 13.44 13.413 13.06 14.067 12.4L18.949 7.46C18.983 7.64 19 7.82 19 8C19 9.84 19 12.05 19 14L18.985 14.31L20.515 12.61C20.664 12.45 20.826 12.3 21 12.18V8C21 6.67 20.473 5.4 19.536 4.46C18.598 3.53 17.326 3 16 3C13.287 3 9.713 3 7 3C5.674 3 4.402 3.53 3.464 4.46C2.527 5.4 2 6.67 2 8V14C2 15.59 2.632 17.12 3.757 18.24C4.883 19.37 6.409 20 8 20H12.357ZM17.899 5.68C17.366 5.24 16.695 5 16 5C13.287 5 9.713 5 7 5C6.323 5 5.67 5.23 5.144 5.65L10.519 11C10.801 11.28 11.184 11.44 11.583 11.44C11.982 11.44 12.364 11.28 12.644 10.99L17.899 5.68Z" fill="black"/>
</svg>
