<svg width="12" height="12" viewBox="0 0 12 12" fill="none" xmlns="http://www.w3.org/2000/svg">
<path fill-rule="evenodd" clip-rule="evenodd" d="M0.619141 8.49928C0.619141 9.37428 0.967141 10.2143 1.58614 10.8323C2.20514 11.4513 3.04414 11.7993 3.91914 11.7993C5.21314 11.7993 6.78714 11.7993 8.08114 11.7993C8.95614 11.7993 9.79514 11.4513 10.4141 10.8323C11.0331 10.2143 11.3811 9.37428 11.3811 8.49928C11.3811 7.20628 11.3811 5.71528 11.3811 4.81528C11.3811 4.03628 10.9881 3.30928 10.3361 2.88228L6.98614 0.689281C6.38714 0.296281 5.61314 0.296281 5.01414 0.689281L1.66414 2.88228C1.01214 3.30928 0.619141 4.03628 0.619141 4.81528V8.49928ZM9.78114 5.62928L7.54114 7.45128C6.64114 8.18228 5.35214 8.18328 4.45114 7.45228L2.21914 5.64128V8.49928C2.21914 8.95028 2.39814 9.38228 2.71714 9.70128C3.03614 10.0203 3.46814 10.1993 3.91914 10.1993H8.08114C8.53214 10.1993 8.96414 10.0203 9.28314 9.70128C9.60214 9.38228 9.78114 8.95028 9.78114 8.49928V5.62928ZM9.28014 4.10328L6.11014 2.02728C6.04314 1.98328 5.95714 1.98328 5.89014 2.02728L2.71214 4.10928L5.39714 6.28828C5.74614 6.57128 6.24614 6.57128 6.59514 6.28728L9.28014 4.10328Z" fill="black"/>
</svg>
