<svg width="12" height="12" viewBox="0 0 12 12" fill="none" xmlns="http://www.w3.org/2000/svg">
<path fill-rule="evenodd" clip-rule="evenodd" d="M0.222168 3.99922V7.49922C0.222168 9.32222 1.70017 10.7992 3.52217 10.7992C5.03717 10.7992 6.96317 10.7992 8.47817 10.7992C10.3002 10.7992 11.7782 9.32222 11.7782 7.49922V3.99922C11.7782 2.45322 10.5242 1.19922 8.97817 1.19922C7.24617 1.19922 4.75417 1.19922 3.02217 1.19922C1.47617 1.19922 0.222168 2.45322 0.222168 3.99922ZM10.1602 3.79422L7.68217 6.16622C6.74017 7.06722 5.25617 7.07322 4.30717 6.17822L1.83217 3.84522C1.82617 3.89522 1.82217 3.94722 1.82217 3.99922V7.49922C1.82217 8.43822 2.58417 9.19922 3.52217 9.19922C5.03717 9.19922 6.96317 9.19922 8.47817 9.19922C9.41617 9.19922 10.1782 8.43822 10.1782 7.49922V3.99922C10.1782 3.92922 10.1722 3.86122 10.1602 3.79422ZM9.02917 2.80022C9.01217 2.79922 8.99517 2.79922 8.97817 2.79922C7.24617 2.79922 4.75417 2.79922 3.02217 2.79922C2.98617 2.79922 2.95017 2.80122 2.91517 2.80422L5.33617 5.08722C5.70417 5.43422 6.27917 5.43222 6.64517 5.08222L9.02917 2.80022Z" fill="black"/>
</svg>
