<svg width="16" height="16" viewBox="0 0 16 16" fill="none" xmlns="http://www.w3.org/2000/svg">
<path fill-rule="evenodd" clip-rule="evenodd" d="M1.81723 3.42969H1.81423L7.30723 8.91969H7.31423L10.9542 12.5597L10.9502 12.5697L12.1722 13.7897L12.1752 13.7797L13.5852 15.1897C13.9162 15.5297 14.4552 15.5297 14.7872 15.1897C15.1192 14.8597 15.1192 14.3197 14.7872 13.9897L13.5392 12.7397C14.3502 11.8697 14.8002 10.7097 14.8002 9.50969V5.49969C14.8002 3.39969 13.0992 1.69969 11.0002 1.69969C9.16823 1.69969 6.83223 1.69969 5.00023 1.69969C4.28323 1.69969 3.61223 1.89969 3.04223 2.24969L1.78423 0.989688C1.45323 0.659687 0.914234 0.659687 0.582234 0.989688C0.251234 1.31969 0.251234 1.85969 0.582234 2.18969L1.81723 3.42969ZM1.20023 5.63969V9.50969C1.20023 10.7797 1.70623 11.9997 2.60623 12.8997C3.50623 13.7997 4.72723 14.3097 6.00023 14.3097H9.86723L8.26723 12.7097H6.00023C5.15123 12.7097 4.33723 12.3697 3.73723 11.7697C3.13723 11.1697 2.80023 10.3597 2.80023 9.50969V7.23969L1.20023 5.63969ZM12.4082 11.6097C12.9182 11.0297 13.2002 10.2897 13.2002 9.50969V5.49969C13.2002 5.32969 13.1822 5.17969 13.1492 5.01969L9.68523 8.33969C9.58823 8.42969 9.48623 8.50969 9.37823 8.57969L12.4082 11.6097ZM8.18723 7.38969C8.33023 7.35969 8.46623 7.28969 8.57923 7.17969L12.2382 3.67969C11.8862 3.43969 11.4592 3.29969 11.0002 3.29969H5.00023C4.73023 3.29969 4.47223 3.34969 4.23423 3.43969L8.18723 7.38969Z" fill="black"/>
</svg>
