<svg width="24" height="24" viewBox="0 0 24 24" fill="none" xmlns="http://www.w3.org/2000/svg">
<path fill-rule="evenodd" clip-rule="evenodd" d="M10.9998 19.9722L11.0078 21.9522C11.0098 22.5122 11.4598 22.9522 12.0108 22.9522C12.5628 22.9522 13.0098 22.5022 13.0078 21.9522L12.9998 19.9822C17.1458 19.5222 20.4488 16.2522 20.9478 12.1222C21.0138 11.5722 20.6228 11.0722 20.0748 11.0122C19.5268 10.9422 19.0288 11.3322 18.9618 11.8822C18.5438 15.3422 15.5898 18.0322 12.0138 18.0322C8.4508 18.0322 5.5068 15.3622 5.0698 11.9222C4.9998 11.3722 4.4988 10.9822 3.9518 11.0522C3.4038 11.1222 3.0158 11.6222 3.0858 12.1722C3.6048 16.2722 6.8848 19.5122 10.9998 19.9722ZM16.9968 10.6522V6.32219C16.9968 3.35219 14.7338 0.992188 11.9968 0.992188C9.2608 0.992188 6.9968 3.35219 6.9968 6.32219V10.6522C6.9968 13.6222 9.2608 15.9922 11.9968 15.9922C14.7338 15.9922 16.9968 13.6222 16.9968 10.6522ZM8.9968 6.32219C8.9968 4.50219 10.3188 2.99219 11.9968 2.99219C13.6758 2.99219 14.9968 4.50219 14.9968 6.32219V10.6522C14.9968 12.4722 13.6758 13.9922 11.9968 13.9922C10.3188 13.9922 8.9968 12.4722 8.9968 10.6522V6.32219Z" fill="black"/>
</svg>
