<svg width="16" height="16" viewBox="0 0 16 16" fill="none" xmlns="http://www.w3.org/2000/svg">
<path d="M6.2929 8.75906C6.56593 8.48642 7.01025 8.48618 7.28313 8.75906C7.55601 9.03295 7.55578 9.47627 7.28313 9.7493L5.78997 11.2425C5.51697 11.5155 5.07273 11.5155 4.79973 11.2425C4.52673 10.9695 4.52673 10.5252 4.79973 10.2522L6.2929 8.75906Z" fill="black"/>
<path fill-rule="evenodd" clip-rule="evenodd" d="M7.47649 2.22293C9.19949 0.49893 11.9735 0.551985 13.7245 2.30398C15.4753 4.05492 15.5283 6.8281 13.8056 8.55106C13.0196 9.33706 11.9942 9.76919 10.9452 9.83719C10.9072 9.88919 10.8615 9.93684 10.8095 9.97684C10.771 10.0073 6.21355 13.6173 4.60637 14.8899C3.97548 15.3895 3.06995 15.3413 2.49504 14.7776L1.26165 13.5706C0.676672 12.9986 0.618952 12.0758 1.12688 11.4348C2.41688 9.80684 6.05071 5.21707 6.05071 5.21707C6.09163 5.16621 6.13753 5.12022 6.1884 5.08231C6.25744 4.0345 6.68972 3.00884 7.47649 2.22293ZM2.38079 12.428L3.61321 13.6341L9.11223 9.28055L6.74797 6.91531L2.38079 12.428ZM12.5937 3.43484C11.4757 2.31784 9.70635 2.25479 8.60735 3.35379C7.97655 3.98477 7.70096 4.85671 7.79094 5.69559L10.332 8.2366C11.1719 8.3265 12.0428 8.05112 12.6738 7.4202C13.7735 6.32024 13.7104 4.55178 12.5937 3.43484Z" fill="black"/>
</svg>
