<svg width="24" height="24" viewBox="0 0 24 24" fill="none" xmlns="http://www.w3.org/2000/svg">
<path fill-rule="evenodd" clip-rule="evenodd" d="M16.446 18.82L14.966 17.34C14.072 17.77 13.072 18.01 12.018 18.01C8.17799 18.01 5.06299 14.87 5.06299 11.01C5.06299 10.46 4.61499 10.01 4.06299 10.01C3.51099 10.01 3.06299 10.46 3.06299 11.01C3.06299 15.63 6.53299 19.44 10.992 19.95L11 22C11.002 22.56 11.452 23 12.003 23C12.555 23 13.002 22.55 13 22L12.992 19.96C14.238 19.82 15.408 19.43 16.446 18.82ZM7.52399 3.97C8.34199 2.2 10.051 1 12 1C14.737 1 17 3.37 17 6.33V10.67C17 11.49 16.826 12.27 16.515 12.96L18.046 14.49C18.636 13.47 18.972 12.28 18.972 11.01C18.972 10.46 19.42 10.01 19.972 10.01C20.524 10.01 20.972 10.46 20.972 11.01C20.972 12.83 20.432 14.53 19.502 15.95L22.973 19.42C23.402 19.85 23.402 20.54 22.973 20.97C22.543 21.4 21.846 21.4 21.417 20.97L3.40399 2.96C2.97499 2.53 2.97499 1.83 3.40399 1.4C3.83399 0.98 4.53099 0.98 4.95999 1.4L7.52399 3.97ZM6.99999 9.38L9.09099 11.47C9.37699 12.77 10.355 13.78 11.59 13.97L13.406 15.78C12.959 15.92 12.487 16 12 16C9.26299 16 6.99999 13.63 6.99999 10.67V9.38ZM14.929 11.37L9.09099 5.53C9.40199 4.12 10.533 3.04 11.922 3H12C13.679 3 15 4.51 15 6.33V10.67C15 10.91 14.977 11.15 14.929 11.37Z" fill="black"/>
</svg>
