<svg width="24" height="24" viewBox="0 0 24 24" fill="none" xmlns="http://www.w3.org/2000/svg">
<path d="M9.52228 13.1582C9.87323 12.8075 10.4438 12.8075 10.7947 13.1582C11.1457 13.5092 11.1457 14.0797 10.7947 14.4317L9.34259 15.8838C8.99066 16.2343 8.42101 16.2344 8.07013 15.8838C7.71913 15.5328 7.71913 14.9614 8.07013 14.6104L9.52228 13.1582Z" fill="black"/>
<path fill-rule="evenodd" clip-rule="evenodd" d="M10.9832 4.74907C13.2102 2.52235 16.7945 2.59063 19.0574 4.85454C21.3201 7.11755 21.3888 10.7019 19.1619 12.9288C18.1119 13.9786 16.7328 14.5397 15.3318 14.5997C15.299 14.6384 15.2632 14.6723 15.2244 14.7051L7.2381 21.3272C6.26522 22.1351 4.83622 22.0685 3.9422 21.1748L2.73712 19.9698C1.84212 19.0748 1.77582 17.6459 2.58282 16.6719L9.20587 8.68657C9.23787 8.64857 9.27334 8.61112 9.31134 8.58012C9.3724 7.17822 9.93328 5.799 10.9832 4.74907ZM4.12286 17.9493C3.97486 18.1283 3.98718 18.3907 4.15118 18.5557L5.35626 19.7608C5.52028 19.9245 5.78286 19.936 5.96173 19.7881L13.1033 13.8663L10.0447 10.8086L4.12286 17.9493ZM17.6434 6.2686C16.1725 4.79769 13.8443 4.71642 12.3973 6.16313C11.5633 6.99713 11.201 8.14983 11.324 9.25883L14.6522 12.587C15.762 12.7099 16.9139 12.3485 17.7479 11.5147C19.1948 10.0678 19.1131 7.73961 17.6434 6.2686Z" fill="black"/>
</svg>
