<svg width="12" height="12" viewBox="0 0 12 12" fill="none" xmlns="http://www.w3.org/2000/svg">
<path fill-rule="evenodd" clip-rule="evenodd" d="M5.20079 10.2483L5.20399 11.15C5.20549 11.5915 5.56519 11.9487 6.00679 11.9472C6.44829 11.9457 6.80549 11.5859 6.80399 11.1444L6.80079 10.2503C8.88509 9.90261 10.5163 8.20981 10.7718 6.09601C10.8248 5.65761 10.5119 5.25871 10.0736 5.20571C9.63519 5.15281 9.23629 5.46561 9.18339 5.90401C8.99199 7.48751 7.64149 8.71591 6.00679 8.71591C4.37849 8.71591 3.03219 7.49721 2.83249 5.92271C2.77689 5.48471 2.37619 5.17421 1.93819 5.22971C1.50019 5.28531 1.18969 5.68601 1.24519 6.12401C1.51119 8.22081 3.13159 9.89791 5.20079 10.2483ZM8.73559 5.26781V3.22531C8.73559 1.64511 7.49719 0.382812 5.99869 0.382812C4.50009 0.382812 3.26179 1.64511 3.26179 3.22531V5.26781C3.26179 6.84811 4.50009 8.11031 5.99869 8.11031C7.49719 8.11031 8.73559 6.84811 8.73559 5.26781ZM5.93909 1.98451L5.99869 1.98281C6.63829 1.98281 7.13559 2.55091 7.13559 3.22531V5.26781C7.13559 5.94231 6.63829 6.51031 5.99869 6.51031C5.35909 6.51031 4.86179 5.94231 4.86179 5.26781V3.22531C4.86179 2.57201 5.32849 2.01851 5.93909 1.98451Z" fill="black"/>
</svg>
