<svg width="24" height="24" viewBox="0 0 24 24" fill="none" xmlns="http://www.w3.org/2000/svg">
<path fill-rule="evenodd" clip-rule="evenodd" d="M14.6933 15.3449L14.6904 15.3478C14.3943 15.5823 14.0474 15.8562 13.667 16.1574C13.2175 16.5132 12.72 16.9073 12.2021 17.3175C11.3488 17.9934 10.438 18.7149 9.58981 19.3869C8.53625 20.2215 7.57835 20.9805 6.9443 21.4826C6.24647 22.0352 5.26308 22.0192 4.58395 21.4669L4.45211 21.3497L2.70309 19.6369C2.01309 18.9621 1.94375 17.8727 2.54293 17.1163C2.70074 16.9172 2.88406 16.6865 3.0859 16.4318C4.05438 15.2096 5.4671 13.4263 6.72262 11.841C7.14473 11.308 7.54939 10.7967 7.91305 10.337C8.16967 10.0127 8.40588 9.71347 8.61422 9.45033L14.6933 15.3449ZM10.1679 13.8507C9.86468 13.5479 9.37151 13.5478 9.06832 13.8507L7.61617 15.3029C7.31308 15.606 7.31329 16.0992 7.61617 16.4025C7.91935 16.7056 8.41139 16.7058 8.71578 16.4025L10.1679 14.9503C10.4711 14.6459 10.471 14.1538 10.1679 13.8507Z" fill="black"/>
<path d="M11.5224 4.08314C13.81 1.79448 17.5023 1.85387 19.8447 4.1974C22.187 6.53979 22.2474 10.234 19.9599 12.5216C18.9139 13.5674 17.5475 14.1427 16.1474 14.2335H16.1338L9.78414 8.0763L9.79391 8.07044L9.80563 7.89466C9.8978 6.49568 10.4754 5.12905 11.5224 4.08314Z" fill="black"/>
</svg>
