<svg width="16" height="16" viewBox="0 0 16 16" fill="none" xmlns="http://www.w3.org/2000/svg">
<path fill-rule="evenodd" clip-rule="evenodd" d="M9.94978 10.5128C9.7423 10.6771 9.50439 10.8668 9.2447 11.0723C8.91151 11.3361 8.54266 11.6276 8.15876 11.9317C7.52639 12.4326 6.85192 12.9678 6.22322 13.4659C5.44149 14.0852 4.7298 14.6481 4.25935 15.0206C3.74203 15.4302 3.01293 15.419 2.50935 15.0098L2.41169 14.9219L1.11482 13.6524C0.603061 13.152 0.552144 12.3442 0.996654 11.7833C1.11321 11.6362 1.24807 11.4654 1.39704 11.2774C2.11526 10.371 3.16364 9.04752 4.09529 7.87116C4.40832 7.47589 4.70842 7.09678 4.9781 6.75592C5.15074 6.53771 5.31104 6.33481 5.45466 6.15338L9.94978 10.5128ZM6.68806 9.31842C6.45716 9.08766 6.08113 9.08775 5.85017 9.31842L4.27986 10.8887C4.04906 11.1197 4.04905 11.4957 4.27986 11.7266C4.51081 11.9573 4.88685 11.9574 5.11775 11.7266L6.68806 10.1563C6.88978 9.95434 6.91579 9.64156 6.76423 9.41119L6.68806 9.31842Z" fill="black"/>
<path d="M7.65486 2.11823C9.3512 0.421379 12.0889 0.465535 13.8258 2.20319C15.5625 3.94019 15.6069 6.67971 13.9107 8.37604C13.1352 9.15124 12.1225 9.57814 11.0845 9.64557L10.9527 9.65436L10.9429 9.66608L6.27986 5.14362L6.37263 5.07526L6.38142 4.94537C6.44973 3.90786 6.87833 2.89388 7.65486 2.11823Z" fill="black"/>
</svg>
