<svg width="24" height="24" viewBox="0 0 24 24" fill="none" xmlns="http://www.w3.org/2000/svg">
<path fill-rule="evenodd" clip-rule="evenodd" d="M20 15C20 15 19 15 18 15C16.343 15 15 16.34 15 18V20C15 20.55 15.448 21 16 21C16.552 21 17 20.55 17 20V18C17 17.45 17.448 17 18 17C19 17 20 17 20 17C20.552 17 21 16.55 21 16C21 15.45 20.552 15 20 15ZM9 20C9 20 9 19 9 18C9 16.34 7.657 15 6 15H4C3.448 15 3 15.45 3 16C3 16.55 3.448 17 4 17H6C6.552 17 7 17.45 7 18C7 19 7 20 7 20C7 20.55 7.448 21 8 21C8.552 21 9 20.55 9 20ZM15 4V6C15 7.66 16.343 9 18 9C19 9 20 9 20 9C20.552 9 21 8.55 21 8C21 7.45 20.552 7 20 7C20 7 19 7 18 7C17.448 7 17 6.55 17 6V4C17 3.45 16.552 3 16 3C15.448 3 15 3.45 15 4ZM4 9H6C7.657 9 9 7.66 9 6V4C9 3.45 8.552 3 8 3C7.448 3 7 3.45 7 4V6C7 6.55 6.552 7 6 7H4C3.448 7 3 7.45 3 8C3 8.55 3.448 9 4 9Z" fill="black"/>
</svg>
