<svg width="16" height="16" viewBox="0 0 16 16" fill="none" xmlns="http://www.w3.org/2000/svg">
<path d="M10.2777 13.8672C10.4215 14.0791 10.3796 14.3624 10.1596 14.4932C9.73396 14.7456 8.96885 15.0966 8.00138 15.0967C7.03367 15.0967 6.26789 14.7456 5.8422 14.4932C5.62215 14.3624 5.58024 14.0791 5.72403 13.8672L6.59317 12.586C6.59317 12.586 7.19205 13.0137 8.00138 13.0137C8.81045 13.0135 9.4086 12.586 9.4086 12.586L10.2777 13.8672ZM14.5297 1.72661C14.787 1.13923 15.5449 1.27798 15.642 1.91216C15.7688 2.52731 15.8813 3.14705 15.9359 3.78618C16.1487 5.67347 15.9297 8.33023 14.0092 9.7227C13.393 10.2553 12.3674 10.61 11.4291 10.6397C11.6685 11.0338 11.7859 11.4858 11.8227 12.0098C11.9018 12.053 11.9832 12.088 12.0649 12.1172C12.1871 11.5564 12.6861 11.1368 13.2836 11.1368C13.9725 11.1369 14.5306 11.6949 14.5307 12.3838C14.5307 13.0339 14.0337 13.5667 13.3988 13.625C13.3992 13.627 13.4004 13.629 13.4008 13.6309C13.3752 13.6315 13.3492 13.6288 13.3236 13.629C13.3103 13.6294 13.297 13.6319 13.2836 13.6319C13.2584 13.6319 13.2333 13.6285 13.2084 13.627C13.1689 13.626 13.1295 13.6283 13.0902 13.626C12.2682 13.5822 11.565 13.2392 10.9994 12.8467C10.9754 12.8302 10.9503 12.8131 10.9262 12.7969C10.8027 12.7149 10.6938 12.4793 10.6879 12.3311C10.6651 12.057 10.2798 11.7324 10.0483 11.4434C10.0413 11.4346 10.0338 11.4258 10.0268 11.417L8.32364 12.2559C8.17754 12.3277 8.01696 12.3567 7.8588 12.3448C7.70071 12.3566 7.53996 12.3277 7.39395 12.2559L5.69083 11.418C5.68407 11.4264 5.67697 11.4349 5.67032 11.4434C5.43875 11.7324 5.0535 12.0569 5.03067 12.3311C5.02474 12.4793 4.91584 12.7149 4.79239 12.7969C4.7682 12.8131 4.74323 12.8301 4.71915 12.8467C4.1535 13.2392 3.45041 13.5822 2.62833 13.626C2.52568 13.632 2.42186 13.6335 2.31778 13.6309V13.629L2.30997 13.6329L0.690828 10.1143L1.53848 9.72466L2.61661 12.0674C2.61711 12.0648 2.61806 12.0622 2.61856 12.0596C2.66487 12.0858 2.71288 12.1084 2.76212 12.128C3.09704 12.2671 3.51772 12.2165 3.89591 12.0098C3.93324 11.4779 4.05242 11.0195 4.29923 10.6211C3.44044 10.5388 2.54936 10.204 1.99259 9.7227C0.0719777 8.33025 -0.14695 5.6735 0.0658282 3.78618C0.120451 3.14705 0.232977 2.52731 0.359774 1.91216C0.456867 1.27798 1.21479 1.13918 1.47208 1.72661C1.50238 1.80474 1.5333 1.88413 1.56388 1.96391C2.00379 3.11177 2.49265 4.38778 3.63809 4.55669C3.64726 4.558 3.65715 4.55943 3.66641 4.56059C3.86993 4.58755 3.97655 4.76319 3.90372 4.95512C3.73124 5.39354 3.70195 6.03491 3.91544 6.21977C3.96624 6.2727 4.02351 6.31105 4.08438 6.33696C4.11622 6.3514 4.18159 6.36061 4.25626 6.36821C4.26454 6.18471 4.32875 6.00617 4.44278 5.85844L4.9672 5.17973C5.13754 4.95941 5.40061 4.83025 5.67911 4.83012H6.59024C6.67766 4.43332 6.56419 4.15094 6.25138 3.99516C5.90388 3.82214 5.42151 3.74261 5.01993 3.74419C4.76522 3.74511 4.51109 3.61744 4.40958 3.38384C4.27405 3.07193 4.46062 2.70778 4.79825 2.66704C4.86828 2.65859 4.93453 2.6534 4.99942 2.64848C4.94804 2.62287 4.90403 2.58255 4.8793 2.52837L4.80411 2.36333C4.64756 2.01893 4.92252 1.63334 5.29923 1.66899C5.3741 1.67616 5.44488 1.70152 5.50723 1.7393C5.56974 1.70123 5.64107 1.67624 5.71622 1.66899C6.09321 1.63299 6.36812 2.01875 6.21134 2.36333L6.13614 2.52837C6.11592 2.57263 6.08342 2.608 6.04434 2.63384C6.04856 2.63384 6.05279 2.63481 6.05704 2.63481C7.1214 2.63476 8.00016 3.13518 8.0004 4.23833C8.00063 3.13518 8.88038 2.63476 9.94473 2.63481C9.94833 2.63481 9.95191 2.63384 9.95548 2.63384C9.91674 2.60802 9.88474 2.57235 9.86466 2.52837L9.78946 2.36333C9.63264 2.01874 9.90757 1.63299 10.2846 1.66899C10.3595 1.67621 10.4302 1.70145 10.4926 1.7393C10.5551 1.70124 10.6264 1.67618 10.7016 1.66899C11.0783 1.63323 11.3533 2.01888 11.1967 2.36333L11.1215 2.52837C11.0966 2.58287 11.0522 2.62292 11.0004 2.64848C11.0659 2.65341 11.1328 2.6585 11.2035 2.66704C11.5411 2.70778 11.7277 3.07194 11.5922 3.38384C11.4907 3.61741 11.2365 3.74507 10.9818 3.74419C10.5803 3.74261 10.0979 3.82217 9.7504 3.99516C9.43758 4.15094 9.3241 4.43331 9.41153 4.83012H10.0385C10.3171 4.83012 10.58 4.95942 10.7504 5.17973L11.2748 5.85844C11.3911 6.00907 11.4561 6.19164 11.4623 6.37895L11.4613 6.38091C11.6018 6.38362 11.8451 6.36976 11.9174 6.33696C11.9782 6.31105 12.0356 6.27267 12.0863 6.21977C12.2997 6.03483 12.2705 5.39348 12.0981 4.95512C12.0252 4.76319 12.1318 4.58755 12.3354 4.56059C12.3446 4.55944 12.3546 4.55799 12.3637 4.55669C13.509 4.3877 13.998 3.11174 14.4379 1.96391C14.4685 1.88413 14.4994 1.80474 14.5297 1.72661ZM5.26212 6.44536L5.892 10.3272L7.8588 11.3028L9.82559 10.3272L10.4545 6.44536L9.97891 5.83012H5.73868L5.26212 6.44536ZM8.64981 6.68169L8.87149 7.01469C8.68345 7.14008 8.52311 7.2387 8.35391 7.35552C8.23704 7.43622 8.14349 7.50809 8.07364 7.57134H9.48868C9.48868 7.93739 9.0901 8.24819 8.5297 8.37114C8.53226 8.40313 8.53411 8.43503 8.53263 8.46684C8.52524 8.6243 8.4676 8.76731 8.39591 8.89262V10.1299H7.60489V9.67094C7.46769 9.7634 7.33556 9.84351 7.22013 9.89946L7.04532 9.53911L6.87052 9.17973C7.09503 9.07097 7.41489 8.84883 7.60489 8.63091V8.39653C6.97539 8.29662 6.51309 7.9658 6.51309 7.57134H7.16641C7.19788 7.37995 7.30442 7.22369 7.39981 7.11528C7.53852 6.95769 7.72557 6.81697 7.89884 6.69731C8.06699 6.5812 8.27647 6.44915 8.42716 6.34868L8.64981 6.68169ZM8.35294 0.0996554C8.87216 0.0393475 9.27246 0.549046 9.09024 1.03911L8.85196 1.67876C8.80817 1.79579 8.69568 1.87388 8.57071 1.87407H8.49845C8.58495 1.87407 8.65559 1.94383 8.65567 2.03032C8.65567 2.23229 8.49143 2.39653 8.28946 2.39653H7.67227C7.47049 2.39632 7.30704 2.23216 7.30704 2.03032C7.30712 1.94397 7.37697 1.87429 7.46329 1.87407H7.37149C7.24641 1.87407 7.13413 1.79584 7.09024 1.67876L6.85196 1.03911C6.66958 0.54887 7.06979 0.0390008 7.58927 0.0996554L7.64005 0.105515C7.76189 0.119866 7.87543 0.166497 7.9711 0.236374C8.06683 0.166526 8.18026 0.119791 8.30216 0.105515L8.35294 0.0996554Z" fill="black"/>
</svg>
