<svg width="24" height="24" viewBox="0 0 24 24" fill="none" xmlns="http://www.w3.org/2000/svg">
<path d="M15.605 21.2239C15.8389 21.6293 15.759 22.1379 15.4233 22.4525L15.353 22.513H15.3521L15.3511 22.514L15.3481 22.5159C15.3465 22.5174 15.3446 22.5201 15.3423 22.5218C15.3374 22.5255 15.3308 22.5302 15.3237 22.5355C15.3091 22.5464 15.2888 22.5606 15.2651 22.5775C15.2172 22.6116 15.1506 22.6583 15.0679 22.7112C14.9024 22.8172 14.6669 22.9549 14.3765 23.0921C13.8021 23.3634 12.9673 23.6527 11.9995 23.6527C11.0317 23.6526 10.1969 23.3634 9.62256 23.0921C9.33201 22.9548 9.09659 22.8172 8.93115 22.7112C8.84822 22.6582 8.78185 22.6116 8.73389 22.5775C8.71007 22.5605 8.68996 22.5464 8.67529 22.5355C8.66809 22.5301 8.66165 22.5255 8.65674 22.5218C8.65435 22.5199 8.65272 22.5174 8.65088 22.5159C8.64996 22.5153 8.64871 22.5146 8.64795 22.514L8.64697 22.513H8.646L8.57568 22.4525C8.24024 22.138 8.16047 21.6292 8.39404 21.2239L9.65479 19.0394L11.3872 20.0394L10.6313 21.3489C11.0167 21.5132 11.4913 21.6526 11.9995 21.6527C12.5077 21.6527 12.9823 21.5131 13.3677 21.3489L12.6118 20.0394L14.3442 19.0394L15.605 21.2239ZM9.87354 20.9349V20.9339L9.87158 20.932L9.86963 20.931L9.87354 20.9349ZM14.1274 20.932L14.1255 20.9339V20.9349L14.1294 20.931L14.1274 20.932ZM21.8101 2.59797C22.2166 1.74639 23.3348 1.93266 23.4468 2.86945C23.488 3.21033 23.5268 3.54885 23.564 3.88996C23.9471 7.20768 24.1066 11.8573 20.6997 14.1868C19.3993 15.0125 18.1554 15.2153 16.8042 15.2884C16.7013 15.291 16.5981 15.2899 16.4946 15.2884L16.4731 15.4271C16.5883 15.5512 16.6981 15.6778 16.8013 15.8089C17.2813 16.4531 17.5277 17.2081 17.5923 18.0989C17.7472 18.1904 17.9082 18.2647 18.0708 18.3236C18.194 17.4093 18.9763 16.7044 19.9243 16.7044C20.9577 16.7046 21.7953 17.5421 21.7954 18.5755C21.7954 19.609 20.9577 20.4474 19.9243 20.4476C19.5756 20.4476 19.2497 20.35 18.9702 20.1839C18.0593 20.0264 17.2531 19.6202 16.5786 19.1517C16.5432 19.1273 16.5066 19.1034 16.4712 19.0794C16.3175 18.9761 16.1786 18.6817 16.1724 18.4964C16.1399 18.0256 15.5928 17.5036 15.2271 17.0423C15.2237 17.038 15.2197 17.0339 15.2163 17.0296L12.4897 18.3831C12.1132 18.5697 11.6705 18.5706 11.2935 18.3851L8.41065 16.9652C8.3896 16.9907 8.36761 17.0162 8.34717 17.0423C7.98142 17.5035 7.43434 18.0257 7.40186 18.4964C7.3956 18.6817 7.25677 18.9761 7.10303 19.0794C7.06772 19.1033 7.03085 19.1274 6.99561 19.1517C6.16562 19.7281 5.13617 20.2111 3.95752 20.2513C3.81045 20.2571 3.66185 20.2561 3.51318 20.2493C3.51346 20.2479 3.51291 20.2459 3.51318 20.2445L3.50732 20.2484L1.68506 16.2884C1.52357 15.9375 1.67704 15.5213 2.02783 15.3597C2.37882 15.1982 2.79502 15.3524 2.95654 15.7034L4.19775 18.4007C4.75314 18.5612 5.40562 18.4389 5.98193 18.0989C6.04651 17.2083 6.29309 16.453 6.77295 15.8089C6.91464 15.6288 7.0665 15.4547 7.23193 15.2884C7.21972 15.2881 7.20703 15.2887 7.19483 15.2884C5.8437 15.2153 4.59968 15.0127 3.29932 14.1868C-0.107274 11.8573 0.0519552 7.2076 0.435059 3.88996C0.472178 3.54889 0.510997 3.21029 0.552247 2.86945C0.664206 1.93267 1.78244 1.74643 2.18897 2.59797C3.04907 4.37435 3.9917 6.30437 5.53955 6.49836C6.08239 6.5804 6.37848 7.04439 6.17432 7.55402C5.97672 7.99202 6.08277 8.95397 6.33936 9.40265C6.41487 9.52649 6.49978 9.64239 6.59229 9.74933C6.5634 9.413 6.66061 9.07717 6.86768 8.8089L7.67041 7.76984C7.92604 7.43903 8.32068 7.24544 8.73877 7.24543H9.88428C10.0156 6.64995 9.84485 6.22623 9.37549 5.9925C8.85427 5.73307 8.13106 5.61415 7.52881 5.61652C7.14682 5.61793 6.76612 5.42577 6.61377 5.07551C6.4105 4.60771 6.68948 4.06153 7.1958 4.00031C7.29902 3.98786 7.39697 3.98029 7.49268 3.97297C7.4174 3.93435 7.35432 3.87217 7.31787 3.7923L7.20557 3.54523C6.9704 3.0285 7.38249 2.44962 7.94775 2.50324C8.06025 2.51402 8.16661 2.55188 8.26025 2.60871C8.35417 2.55152 8.4608 2.51403 8.57373 2.50324C9.13921 2.44926 9.5511 3.02837 9.31592 3.54523L9.20361 3.7923C9.17337 3.85858 9.12436 3.91174 9.06592 3.95051C9.07208 3.95051 9.07827 3.95148 9.08447 3.95148C10.6749 3.95141 11.9891 4.69672 11.9995 6.3382C12.0099 4.69672 13.3251 3.95141 14.9155 3.95148C14.9208 3.95148 14.926 3.95051 14.9312 3.95051C14.8733 3.9118 14.8254 3.85807 14.7954 3.7923L14.6821 3.54523C14.4469 3.02835 14.8598 2.44924 15.4253 2.50324C15.5376 2.514 15.6433 2.552 15.7368 2.60871C15.8306 2.55157 15.9375 2.5141 16.0503 2.50324C16.6158 2.44924 17.0286 3.02837 16.7935 3.54523L16.6802 3.7923C16.6436 3.87242 16.581 3.93439 16.5054 3.97297C16.6017 3.98031 16.7003 3.98777 16.8042 4.00031C17.3106 4.0615 17.5895 4.60769 17.3862 5.07551C17.2339 5.42578 16.8532 5.61795 16.4712 5.61652C15.8689 5.61415 15.1457 5.73305 14.6245 5.9925C14.1552 6.22622 13.9844 6.64996 14.1157 7.24543H15.2612C15.6793 7.24544 16.074 7.43906 16.3296 7.76984L17.1157 8.7884C17.332 9.06868 17.4277 9.42172 17.3862 9.77179C17.4867 9.6586 17.5787 9.53543 17.6597 9.40265C17.9163 8.95389 18.0225 7.9919 17.8247 7.55402C17.6206 7.04454 17.9169 6.5806 18.4595 6.49836C20.0075 6.30468 20.9499 4.37443 21.8101 2.59797ZM8.09229 9.67609L8.83643 15.5032L11.8901 17.0052L14.9419 15.4915L15.8882 9.65363L15.187 8.74543H8.81299L8.09229 9.67609ZM13.3052 10.5218C13.0232 10.7098 12.7816 10.8583 12.5278 11.0335C12.3527 11.1545 12.2124 11.2618 12.1079 11.3568H14.2319C14.2319 11.9058 13.6341 12.3725 12.7935 12.557C12.7973 12.6048 12.7986 12.6529 12.7964 12.7005C12.7852 12.938 12.7014 13.1553 12.5933 13.3441V15.1946H11.4067V14.512C11.2013 14.6502 11.0004 14.7663 10.8276 14.8499L10.3042 13.7698C10.6415 13.6064 11.1219 13.2711 11.4067 12.9437V12.595C10.4622 12.4453 9.76807 11.9486 9.76807 11.3568H10.7495C10.7968 11.07 10.9552 10.8357 11.0981 10.6732C11.3061 10.4369 11.5864 10.2256 11.8462 10.0462C12.0983 9.87212 12.4131 9.67444 12.6392 9.52375L13.3052 10.5218ZM22.0161 5.79035C21.4045 6.68953 20.6129 7.48876 19.4556 7.87043C19.521 8.69311 19.3079 9.40899 18.854 10.1966C18.6057 10.5518 18.2913 10.8772 17.9253 11.1312C17.661 11.3088 17.3956 11.4514 17.1001 11.554L16.6733 14.1898C16.7039 14.1888 16.7346 14.1902 16.7651 14.1888C17.8791 14.134 19.1636 13.7739 19.9282 13.2083C22.1638 11.4819 22.259 8.64497 22.0161 5.79035ZM1.98291 5.79035C1.74007 8.64486 1.83547 11.4819 4.0708 13.2083C4.81748 13.7608 6.06032 14.1145 7.15576 14.182L6.8169 11.5257C6.55397 11.4255 6.31335 11.2922 6.07373 11.1312C5.70767 10.8771 5.39333 10.5518 5.14502 10.1966C4.6912 9.40903 4.47801 8.69306 4.54346 7.87043C3.3862 7.48867 2.59447 6.68958 1.98291 5.79035ZM12.5278 0.148748C13.3067 0.058184 13.9065 0.822837 13.6333 1.55793L13.2759 2.51789C13.2101 2.6936 13.0417 2.81086 12.854 2.81086H12.7466C12.8763 2.81086 12.9818 2.91553 12.9819 3.04523C12.9819 3.34803 12.7368 3.59381 12.4341 3.59406H11.5073C11.2046 3.59383 10.9595 3.34805 10.9595 3.04523C10.9596 2.91568 11.0643 2.8111 11.1938 2.81086H11.0552C10.8675 2.81085 10.6991 2.6936 10.6333 2.51789L10.2759 1.55793C10.0026 0.822674 10.6032 0.0577798 11.3823 0.148748L11.4585 0.157537C11.6413 0.179021 11.8111 0.249042 11.9546 0.353826C12.0982 0.248957 12.2687 0.178963 12.4517 0.157537L12.5278 0.148748Z" fill="black"/>
</svg>
