<svg width="16" height="16" viewBox="0 0 16 16" fill="none" xmlns="http://www.w3.org/2000/svg">
<path d="M10.5193 13.7442C10.7188 14.09 10.6322 14.5312 10.3171 14.7764L10.3162 14.7774L10.3142 14.7784C10.3129 14.7794 10.3109 14.7811 10.3093 14.7823C10.3058 14.785 10.3006 14.7883 10.2956 14.792C10.2851 14.7999 10.2703 14.8104 10.2537 14.8223C10.22 14.8462 10.174 14.8786 10.1169 14.9151C10.0027 14.9882 9.84092 15.0835 9.64135 15.1778C9.24737 15.3639 8.67091 15.5635 7.99975 15.5635C7.32847 15.5635 6.75208 15.3639 6.35815 15.1778C6.15838 15.0834 5.99684 14.9882 5.88256 14.9151C5.82533 14.8784 5.77948 14.8463 5.74584 14.8223C5.72902 14.8103 5.71444 14.7999 5.70385 14.792C5.69874 14.7882 5.69378 14.785 5.69018 14.7823C5.68847 14.781 5.68665 14.7794 5.68529 14.7784L5.68334 14.7774L5.68236 14.7764C5.36736 14.5312 5.2809 14.09 5.48022 13.7442L6.32104 12.2881L7.70678 13.0889L7.28002 13.8291C7.49534 13.9067 7.74193 13.9639 7.99975 13.9639C8.25751 13.9639 8.50417 13.9067 8.71947 13.8291L8.29272 13.0889L9.67846 12.2881L10.5193 13.7442ZM14.4372 1.68266C14.7624 1.00164 15.6561 1.15013 15.7458 1.89946C15.7735 2.12699 15.8001 2.35313 15.8249 2.5811C16.0814 4.78837 16.1711 7.9523 13.8523 9.52251C12.9496 10.0906 12.1224 10.2157 11.2058 10.2657C11.1858 10.2662 11.1653 10.2654 11.1453 10.2657C11.2006 10.3284 11.2542 10.392 11.3054 10.4571C11.6288 10.8927 11.7784 11.403 11.821 12.0098C11.9004 12.0532 11.9823 12.0879 12.0642 12.1172C12.1864 11.5564 12.6855 11.1368 13.283 11.1368C13.9718 11.137 14.5299 11.695 14.53 12.3838C14.53 13.0342 14.0325 13.5671 13.3972 13.625C13.3976 13.627 13.3988 13.6289 13.3992 13.6309C13.3737 13.6315 13.3483 13.6288 13.323 13.629C13.3097 13.6294 13.2964 13.6319 13.283 13.6319C13.2578 13.6319 13.2326 13.6285 13.2078 13.627C13.168 13.626 13.1281 13.6283 13.0886 13.626C12.2665 13.5821 11.5634 13.2392 10.9978 12.8467C10.9737 12.8301 10.9488 12.8131 10.9246 12.7969C10.8011 12.7149 10.6922 12.4792 10.6863 12.3311C10.6634 12.0569 10.2782 11.7325 10.0466 11.4434C10.0386 11.4332 10.0304 11.4232 10.0222 11.4131L8.3269 12.2549C8.07597 12.3794 7.78137 12.3794 7.53002 12.2559L5.73022 11.3702C5.70984 11.3942 5.68919 11.4185 5.66967 11.4434C5.43811 11.7325 5.05285 12.0569 5.03002 12.3311C5.02409 12.4793 4.91519 12.7149 4.79174 12.7969C4.76751 12.8131 4.74262 12.8301 4.7185 12.8467C4.15283 13.2392 3.44981 13.5822 2.62768 13.626C2.52498 13.632 2.42126 13.6335 2.31713 13.6309V13.629L2.30932 13.6329L0.690177 10.1143L1.53686 9.72465L2.61596 12.0684C2.61652 12.0655 2.61735 12.0626 2.61791 12.0596C2.66422 12.0858 2.71222 12.1084 2.76147 12.128C3.09641 12.2671 3.51706 12.2166 3.89525 12.0098C3.93784 11.4031 4.08758 10.8926 4.41088 10.4571C4.46593 10.3871 4.52292 10.3182 4.58276 10.251C3.74911 10.1921 2.98095 10.0465 2.14818 9.52251C-0.170999 7.95237 -0.080892 4.78847 0.175528 2.5811C0.200336 2.35315 0.226952 2.12697 0.25463 1.89946C0.344396 1.15011 1.23814 1.00145 1.56322 1.68266C2.13267 2.86958 2.75827 4.11307 3.70678 4.22856C4.14068 4.29608 4.37952 4.66541 4.21459 5.07231C4.09222 5.31203 4.1584 5.95685 4.30639 6.21587C4.33348 6.26131 4.36272 6.30491 4.3933 6.34672C4.408 6.17574 4.47247 6.01098 4.57885 5.87309L5.11401 5.17973C5.28437 4.95943 5.54742 4.83023 5.82592 4.83012H6.58959C6.67699 4.43337 6.56347 4.15094 6.25072 3.99516C5.90322 3.82211 5.42088 3.74261 5.01928 3.74419C4.76454 3.74517 4.51048 3.61745 4.40893 3.38383C4.27339 3.07193 4.45997 2.70778 4.7976 2.66704C4.86763 2.65859 4.93387 2.65339 4.99877 2.64848C4.94733 2.62288 4.9034 2.5826 4.87865 2.52837L4.80346 2.36333C4.64683 2.01886 4.92177 1.63321 5.29858 1.66899C5.3735 1.67617 5.4442 1.70148 5.50658 1.7393C5.56913 1.7012 5.64036 1.67622 5.71557 1.66899C6.09256 1.63299 6.36747 2.01875 6.21068 2.36333L6.13549 2.52837C6.11529 2.57261 6.08273 2.60799 6.04369 2.63383C6.04791 2.63384 6.05214 2.63481 6.05639 2.63481C7.1198 2.63476 7.99796 3.13429 7.99975 4.2354C8.00154 3.13446 8.87991 2.63491 9.94311 2.63481C9.94687 2.63481 9.95109 2.63384 9.95483 2.63383C9.91605 2.60803 9.88411 2.57237 9.86401 2.52837L9.78881 2.36333C9.63198 2.01874 9.90692 1.63299 10.2839 1.66899C10.3588 1.67623 10.4296 1.70148 10.4919 1.7393C10.5545 1.70128 10.6258 1.67617 10.7009 1.66899C11.0776 1.63336 11.3525 2.01895 11.196 2.36333L11.1208 2.52837C11.096 2.58282 11.0515 2.62291 10.9997 2.64848C11.0652 2.65341 11.1322 2.65851 11.2029 2.66704C11.5404 2.70785 11.7261 3.07197 11.5906 3.38383C11.489 3.61735 11.2349 3.74519 10.9802 3.74419C10.5788 3.74267 10.0971 3.82228 9.74975 3.99516C9.43692 4.15094 9.32343 4.43329 9.41088 4.83012H10.1746C10.453 4.83027 10.7161 4.95943 10.8865 5.17973L11.4109 5.85844C11.523 6.00378 11.5866 6.179 11.5964 6.35942C11.6306 6.31365 11.6641 6.26609 11.6941 6.21587C11.842 5.95674 11.9082 5.31202 11.7859 5.07231C11.6208 4.66536 11.8597 4.29609 12.2937 4.22856C13.242 4.11273 13.8679 2.86939 14.4372 1.68266ZM5.39526 6.45122L5.89233 10.335L7.92651 11.337L9.96166 10.3272L10.5925 6.43462L10.1257 5.83012H5.87475L5.39526 6.45122ZM8.64916 6.68169L8.87084 7.01469C8.68284 7.14005 8.52241 7.23873 8.35326 7.35551C8.23644 7.43619 8.14283 7.50811 8.07299 7.57133H9.48803C9.48803 7.93735 9.08937 8.24817 8.52904 8.37114C8.53161 8.40312 8.53346 8.43503 8.53197 8.46684C8.52459 8.62427 8.46693 8.76733 8.39526 8.89262V10.1299H7.60424V9.67094C7.46706 9.7634 7.33491 9.8435 7.21947 9.89946L7.04467 9.53911L6.86986 9.17973C7.0944 9.07093 7.41428 8.84882 7.60424 8.6309V8.39653C6.97465 8.29665 6.51244 7.96583 6.51244 7.57133H7.16576C7.19723 7.37996 7.30377 7.22368 7.39916 7.11528C7.53787 6.95772 7.72494 6.81695 7.89818 6.69731C8.06632 6.58121 8.27585 6.44913 8.42651 6.34868L8.64916 6.68169ZM14.5886 4.1768C14.211 4.66537 13.7327 5.08875 13.0779 5.32133C13.1034 5.858 12.9548 6.32194 12.6501 6.85063C12.4779 7.09494 12.2589 7.31931 12.0046 7.49419C11.8056 7.62617 11.6087 7.73002 11.3835 7.80083L11.1267 9.38676C11.1428 9.38619 11.1594 9.38656 11.1755 9.38579C11.9024 9.3503 12.7613 9.09999 13.2351 8.74028C14.6063 7.66525 14.7206 5.95762 14.5886 4.1768ZM1.41186 4.1768C1.27982 5.95774 1.39392 7.66526 2.76537 8.74028C3.22551 9.08962 4.04863 9.33352 4.76147 9.37993L4.55639 7.7813C4.35601 7.71128 4.17694 7.61431 3.99584 7.49419C3.7414 7.31928 3.52261 7.09504 3.35033 6.85063C3.04557 6.32186 2.89705 5.85807 2.9226 5.32133C2.26755 5.08878 1.78953 4.66547 1.41186 4.1768ZM8.35131 0.0996545C8.87078 0.0390059 9.27099 0.548872 9.08861 1.03911L8.85033 1.67876C8.80645 1.79585 8.69418 1.87407 8.56908 1.87407H8.49779C8.5843 1.87407 8.65494 1.94383 8.65502 2.03032C8.65502 2.23229 8.49078 2.39653 8.28881 2.39653H7.67162C7.46976 2.3964 7.30639 2.23221 7.30639 2.03032C7.30647 1.94392 7.37625 1.8742 7.46264 1.87407H7.36986C7.24486 1.87392 7.13242 1.79582 7.08861 1.67876L6.85033 1.03911C6.66808 0.54901 7.06837 0.0392808 7.58764 0.0996545L7.63842 0.105514C7.76034 0.119793 7.87374 0.166503 7.96947 0.236373C8.06516 0.166484 8.17866 0.119854 8.30053 0.105514L8.35131 0.0996545Z" fill="black"/>
</svg>
