<svg width="24" height="24" viewBox="0 0 24 24" fill="none" xmlns="http://www.w3.org/2000/svg">
<path d="M15.4171 21.2818C15.6328 21.5996 15.5695 22.0251 15.2394 22.2213C14.6008 22.5998 13.4526 23.1256 12.0011 23.1256C10.5496 23.1255 9.40228 22.5998 8.76377 22.2213C8.43321 22.0252 8.37023 21.5998 8.58603 21.2818L9.88975 19.3599C9.88975 19.3599 10.7872 20.0015 12.0011 20.0015C13.2088 20.0015 14.1032 19.3665 14.1124 19.3599L15.4171 21.2818ZM21.794 2.5904C22.1799 1.70886 23.3164 1.91725 23.462 2.86872C23.6522 3.79137 23.8215 4.72066 23.9034 5.67926C24.2226 8.51036 23.894 12.4959 21.0128 14.5845C20.0882 15.3835 18.5503 15.9143 17.1427 15.9586C17.5021 16.5499 17.6783 17.2279 17.7335 18.0142C17.8521 18.0791 17.9743 18.1315 18.0968 18.1754C18.2802 17.3343 19.0289 16.7047 19.9249 16.7047C20.9584 16.7047 21.7969 17.5423 21.797 18.5757C21.797 19.5507 21.0509 20.3504 20.0987 20.4381C20.0992 20.4407 20.1002 20.4432 20.1007 20.4459C20.0506 20.4471 20.0002 20.4459 19.9503 20.4459C19.9419 20.446 19.9333 20.4478 19.9249 20.4478C19.9174 20.4478 19.9099 20.446 19.9024 20.4459C19.8129 20.4451 19.7236 20.4442 19.6349 20.439C18.4016 20.3732 17.3467 19.8589 16.4981 19.2701C16.462 19.2451 16.4251 19.2192 16.3888 19.1949C16.2036 19.0719 16.0403 18.7189 16.0313 18.4966C15.9971 18.0853 15.4187 17.5982 15.0714 17.1646C15.0611 17.1515 15.0496 17.1395 15.0392 17.1265L12.4854 18.3834C12.2662 18.4912 12.0255 18.5341 11.7882 18.5162C11.551 18.5339 11.31 18.4911 11.0909 18.3834L8.53721 17.1265C8.52692 17.1393 8.51608 17.1517 8.50596 17.1646C8.15863 17.5982 7.58025 18.0853 7.546 18.4966C7.53707 18.7189 7.37373 19.0719 7.18857 19.1949C7.15223 19.2192 7.11539 19.2451 7.0792 19.2701C6.23067 19.8589 5.17576 20.3732 3.94248 20.439C3.78845 20.448 3.63284 20.4497 3.47666 20.4459V20.4439L3.46494 20.4498L1.67685 16.565C1.51533 16.214 1.66962 15.7988 2.0206 15.6373C2.37155 15.4759 2.78684 15.6291 2.94834 15.98L3.9249 18.1021C3.92572 18.0979 3.92702 18.0937 3.92783 18.0894C3.9973 18.1287 4.06979 18.1626 4.14365 18.192C4.64605 18.4004 5.27666 18.3244 5.84385 18.0142C5.89984 17.2166 6.07837 16.5295 6.44834 15.9322C5.16038 15.8086 3.82449 15.3062 2.98935 14.5845C0.108111 12.4959 -0.22045 8.51036 0.0987297 5.67926C0.180661 4.72067 0.349962 3.79136 0.540136 2.86872C0.685721 1.91725 1.82228 1.70886 2.2081 2.5904C2.25354 2.70754 2.29898 2.82625 2.34482 2.94586C3.00475 4.66781 3.73868 6.58229 5.45713 6.83551C5.47102 6.83751 5.48607 6.83962 5.5001 6.84137C5.80517 6.88194 5.96479 7.14536 5.85557 7.43317C5.59692 8.09084 5.55285 9.0525 5.87314 9.32965C5.94946 9.40917 6.03559 9.46657 6.12705 9.50543C6.17482 9.52705 6.27212 9.54093 6.38389 9.55231C6.39633 9.27712 6.49316 9.00923 6.66416 8.78766L7.45127 7.76911C7.70683 7.43882 8.10101 7.24482 8.51865 7.24469H9.88486C10.0158 6.64971 9.84611 6.22637 9.37705 5.99274C8.8559 5.73322 8.1327 5.61444 7.53037 5.61676C7.14824 5.61827 6.7667 5.42618 6.61435 5.07575C6.41106 4.60789 6.69092 4.06166 7.19736 4.00055C7.30064 3.9881 7.39846 3.98053 7.49424 3.97321C7.41881 3.93461 7.35593 3.87253 7.31943 3.79254L7.20713 3.54547C6.9719 3.02862 7.38385 2.44955 7.94932 2.50348C8.06183 2.51426 8.16816 2.5521 8.26182 2.60895C8.35566 2.55186 8.46248 2.51426 8.57529 2.50348C9.14057 2.44981 9.5526 3.02874 9.31748 3.54547L9.20518 3.79254C9.17498 3.85871 9.12579 3.912 9.06748 3.95075C9.07352 3.95075 9.07995 3.95172 9.08603 3.95172C10.6826 3.95177 12.001 4.703 12.0011 6.35797C12.0011 4.70297 13.3195 3.95174 14.9161 3.95172C14.9216 3.95172 14.9273 3.95075 14.9327 3.95075C14.8748 3.91203 14.827 3.85841 14.797 3.79254L14.6837 3.54547C14.4485 3.02859 14.8613 2.44948 15.4269 2.50348C15.5392 2.51431 15.6449 2.55221 15.7384 2.60895C15.8323 2.55175 15.9389 2.51429 16.0519 2.50348C16.6173 2.44948 17.0302 3.02861 16.795 3.54547L16.6817 3.79254C16.6452 3.87257 16.5824 3.93461 16.5069 3.97321C16.603 3.98054 16.7012 3.98805 16.8048 4.00055C17.3112 4.06166 17.5911 4.60789 17.3878 5.07575C17.2355 5.4262 16.8539 5.61827 16.4718 5.61676C15.8694 5.61443 15.1463 5.73321 14.6251 5.99274C14.156 6.22636 13.9863 6.64967 14.1173 7.24469H15.0577C15.4756 7.24469 15.8704 7.43863 16.1261 7.76911L16.9122 8.78766C17.0866 9.0135 17.1841 9.2871 17.1935 9.56793L17.1925 9.57086C17.4031 9.5749 17.7664 9.55453 17.8751 9.50543C17.9666 9.46657 18.0527 9.40917 18.129 9.32965C18.4494 9.05257 18.4053 8.09089 18.1466 7.43317C18.0374 7.1454 18.1971 6.88199 18.5021 6.84137C18.5161 6.83962 18.5311 6.83751 18.545 6.83551C20.2635 6.58236 20.9974 4.66785 21.6573 2.94586C21.7032 2.82625 21.7486 2.70753 21.794 2.5904ZM7.89365 9.66852L8.83799 15.4908L11.7882 16.9537L14.7384 15.4908L15.6817 9.66852L14.9688 8.74469H8.6085L7.89365 9.66852ZM13.3067 10.522C13.0246 10.7101 12.7833 10.8584 12.5294 11.0338C12.3542 11.1547 12.2139 11.262 12.1095 11.357H14.2325C14.2325 11.9062 13.635 12.3729 12.794 12.5572C12.7979 12.605 12.8002 12.6532 12.7979 12.7007C12.7867 12.9382 12.7029 13.1555 12.5948 13.3443V15.1949H11.4083V14.5123C11.2028 14.6505 11.002 14.7665 10.8292 14.8502L10.3058 13.7701C10.6432 13.6067 11.1235 13.2714 11.4083 12.9439V12.5953C10.4635 12.4456 9.76963 11.9489 9.76963 11.357H10.7511C10.7983 11.0702 10.9567 10.8359 11.0997 10.6734C11.3077 10.4371 11.5879 10.2259 11.8478 10.0465C12.1 9.87229 12.4147 9.67471 12.6407 9.52399L13.3067 10.522ZM12.5284 0.148989C13.3075 0.0580356 13.908 0.822957 13.6349 1.55817L13.2774 2.51813C13.2117 2.69377 13.0431 2.81094 12.8556 2.8111H12.7481C12.8779 2.8111 12.9833 2.91577 12.9835 3.04547C12.9835 3.34843 12.7376 3.5943 12.4347 3.5943H11.5089C11.2059 3.59429 10.9601 3.34842 10.9601 3.04547C10.9602 2.91579 11.0657 2.81112 11.1954 2.8111H11.0567C10.8691 2.8111 10.7007 2.69377 10.6349 2.51813L10.2774 1.55817C10.0041 0.82292 10.6038 0.0581264 11.3829 0.148989L11.4591 0.157779C11.6421 0.179214 11.8125 0.249125 11.9562 0.354068C12.0997 0.249315 12.2694 0.1792 12.4522 0.157779L12.5284 0.148989Z" fill="black"/>
</svg>
