<svg width="12" height="12" viewBox="0 0 12 12" fill="none" xmlns="http://www.w3.org/2000/svg">
<path fill-rule="evenodd" clip-rule="evenodd" d="M1.521 3.00312V8.99512C1.521 10.5421 2.775 11.7951 4.321 11.7951C5.364 11.7951 6.636 11.7951 7.679 11.7951C9.225 11.7951 10.479 10.5421 10.479 8.99512V3.00312C10.479 1.45612 9.225 0.203125 7.679 0.203125C6.636 0.203125 5.364 0.203125 4.321 0.203125C2.775 0.203125 1.521 1.45612 1.521 3.00312ZM3.121 8.99512V3.00313C3.121 2.34013 3.658 1.80313 4.321 1.80313H7.679C8.342 1.80313 8.879 2.34013 8.879 3.00313V8.99512C8.879 9.65812 8.342 10.1951 7.679 10.1951H4.321C3.658 10.1951 3.121 9.65812 3.121 8.99512ZM5.854 9.47913H6.11C6.552 9.47913 6.91 9.12113 6.91 8.67912C6.91 8.23812 6.552 7.87913 6.11 7.87913H5.854C5.412 7.87913 5.054 8.23812 5.054 8.67912C5.054 9.12113 5.412 9.47913 5.854 9.47913ZM4.92 4.01912H7.077C7.519 4.01912 7.877 3.66112 7.877 3.21913C7.877 2.77813 7.519 2.41913 7.077 2.41913H4.92C4.478 2.41913 4.12 2.77813 4.12 3.21913C4.12 3.66112 4.478 4.01912 4.92 4.01912Z" fill="black"/>
</svg>
