<svg width="12" height="12" viewBox="0 0 12 12" fill="none" xmlns="http://www.w3.org/2000/svg">
<path fill-rule="evenodd" clip-rule="evenodd" d="M2.09912 3.69766C2.09912 2.2617 3.26316 1.09766 4.69912 1.09766H7.30532C8.74114 1.09766 9.90532 2.26167 9.90532 3.69766V8.30386C9.90532 9.73985 8.74114 10.9039 7.30532 10.9039H4.69912C3.26316 10.9039 2.09912 9.73981 2.09912 8.30386V3.69766ZM4.69912 2.89766C4.25728 2.89766 3.89912 3.25581 3.89912 3.69766V8.30386C3.89912 8.7457 4.25728 9.10386 4.69912 9.10386H7.30532C7.7471 9.10386 8.10532 8.74567 8.10532 8.30386V3.69766C8.10532 3.25585 7.7471 2.89766 7.30532 2.89766H4.69912Z" fill="black"/>
<path d="M5.71352 6.96745C5.27169 6.96745 4.91352 7.32563 4.91352 7.76745C4.91352 8.20928 5.27169 8.56745 5.71352 8.56745H6.27742C6.71925 8.56745 7.07742 8.20928 7.07742 7.76745C7.07742 7.32563 6.71925 6.96745 6.27742 6.96745H5.71352Z" fill="black"/>
</svg>
