<svg width="16" height="16" viewBox="0 0 16 16" fill="none" xmlns="http://www.w3.org/2000/svg">
<path fill-rule="evenodd" clip-rule="evenodd" d="M2.49707 11.1795C2.49707 12.1795 2.89807 13.1495 3.61007 13.8595C4.32307 14.5795 5.29007 14.9795 6.29707 14.9795C7.38607 14.9795 8.61407 14.9795 9.70307 14.9795C10.7101 14.9795 11.6771 14.5795 12.3901 13.8595C13.1021 13.1495 13.5031 12.1795 13.5031 11.1795C13.5031 9.24953 13.5031 6.74953 13.5031 4.81953C13.5031 3.81953 13.1021 2.84953 12.3901 2.13953C11.6771 1.41953 10.7101 1.01953 9.70307 1.01953C8.61407 1.01953 7.38607 1.01953 6.29707 1.01953C5.29007 1.01953 4.32307 1.41953 3.61007 2.13953C2.89807 2.84953 2.49707 3.81953 2.49707 4.81953V11.1795ZM4.09707 11.1795V4.81953C4.09707 4.23953 4.32907 3.67953 4.74207 3.26953C5.15407 2.84953 5.71407 2.61953 6.29707 2.61953H9.70307C10.2861 2.61953 10.8461 2.84953 11.2581 3.26953C11.6711 3.67953 11.9031 4.23953 11.9031 4.81953V11.1795C11.9031 11.7595 11.6711 12.3195 11.2581 12.7295C10.8461 13.1495 10.2861 13.3795 9.70307 13.3795H6.29707C5.71407 13.3795 5.15407 13.1495 4.74207 12.7295C4.32907 12.3195 4.09707 11.7595 4.09707 11.1795ZM7.38507 12.3595H8.71807C9.15907 12.3595 9.51807 11.9995 9.51807 11.5595C9.51807 11.1195 9.15907 10.7595 8.71807 10.7595H7.38507C6.94407 10.7595 6.58507 11.1195 6.58507 11.5595C6.58507 11.9995 6.94407 12.3595 7.38507 12.3595ZM6.64007 5.31953H9.46307C9.90407 5.31953 10.2631 4.95953 10.2631 4.51953C10.2631 4.07953 9.90407 3.71953 9.46307 3.71953H6.64007C6.19907 3.71953 5.84007 4.07953 5.84007 4.51953C5.84007 4.95953 6.19907 5.31953 6.64007 5.31953Z" fill="black"/>
</svg>
