<svg width="24" height="24" viewBox="0 0 24 24" fill="none" xmlns="http://www.w3.org/2000/svg">
<path fill-rule="evenodd" clip-rule="evenodd" d="M3.95312 17C3.95312 19.76 6.19213 22 8.95312 22C10.8341 22 13.0721 22 14.9531 22C17.7141 22 19.9531 19.76 19.9531 17C19.9531 14.02 19.9531 9.98 19.9531 7C19.9531 4.24 17.7141 2 14.9531 2H8.95312C6.19213 2 3.95312 4.24 3.95312 7V17ZM5.95312 17V7C5.95312 5.34 7.29612 4 8.95312 4H14.9531C16.6101 4 17.9531 5.34 17.9531 7C17.9531 9.98 17.9531 14.02 17.9531 17C17.9531 18.66 16.6101 20 14.9531 20H8.95312C7.29612 20 5.95312 18.66 5.95312 17ZM11.2861 18.94H12.7751C13.2721 18.94 13.6751 18.53 13.6751 18.04C13.6751 17.54 13.2721 17.14 12.7751 17.14H11.2861C10.7891 17.14 10.3861 17.54 10.3861 18.04C10.3861 18.53 10.7891 18.94 11.2861 18.94ZM9.87313 6.89H14.1881C14.6841 6.89 15.0881 6.48 15.0881 5.99C15.0881 5.49 14.6841 5.09 14.1881 5.09H9.87313C9.37612 5.09 8.97312 5.49 8.97312 5.99C8.97312 6.48 9.37612 6.89 9.87313 6.89Z" fill="black"/>
</svg>
