<svg width="24" height="24" viewBox="0 0 24 24" fill="none" xmlns="http://www.w3.org/2000/svg">
<path fill-rule="evenodd" clip-rule="evenodd" d="M3 16.5C3 17.9587 3.5795 19.3576 4.6109 20.3891C5.6424 21.4205 7.0413 22 8.5 22H14.5C15.9587 22 17.3576 21.4205 18.3891 20.3891C19.4205 19.3576 20 17.9587 20 16.5V6.5C20 5.0413 19.4205 3.6424 18.3891 2.6109C17.3576 1.5795 15.9587 1 14.5 1H8.5C7.0413 1 5.6424 1.5795 4.6109 2.6109C3.5795 3.6424 3 5.0413 3 6.5V16.5ZM18 16.1944L13.8391 11.3683C13.6491 11.148 13.3726 11.0213 13.0817 11.0213C12.7908 11.0213 12.5143 11.148 12.3243 11.3683L5.89 18.8312C5.9335 18.8806 5.9786 18.9283 6.0251 18.9749C6.6815 19.6313 7.5717 20 8.5 20H14.5C15.4283 20 16.3185 19.6313 16.9749 18.9749C17.6313 18.3185 18 17.4283 18 16.5V16.1944ZM18 13.1315V6.5C18 5.5717 17.6313 4.6815 16.9749 4.0251C16.3185 3.3687 15.4283 3 14.5 3H8.5C7.5717 3 6.6815 3.3687 6.0251 4.0251C5.3687 4.6815 5 5.5717 5 6.5V16.5C5 16.5959 5.0039 16.6914 5.0127 16.786L10.8096 10.0623C11.3795 9.4013 12.209 9.0213 13.0817 9.0213C13.9545 9.0213 14.784 9.4013 15.3539 10.0623L18 13.1315ZM8.5 4.778C9.4504 4.778 10.222 5.5496 10.222 6.5C10.222 7.4504 9.4504 8.222 8.5 8.222C7.5496 8.222 6.778 7.4504 6.778 6.5C6.778 5.5496 7.5496 4.778 8.5 4.778Z" fill="black"/>
</svg>
