<svg width="16" height="16" viewBox="0 0 16 16" fill="none" xmlns="http://www.w3.org/2000/svg">
<path fill-rule="evenodd" clip-rule="evenodd" d="M2.2002 10.9992C2.2002 13.0979 3.9015 14.7992 6.0002 14.7992C7.2654 14.7992 8.735 14.7992 10.0002 14.7992C12.0989 14.7992 13.8002 13.0979 13.8002 10.9992C13.8002 9.16682 13.8002 6.83162 13.8002 4.99922C13.8002 2.90052 12.0989 1.19922 10.0002 1.19922C8.735 1.19922 7.2654 1.19922 6.0002 1.19922C3.9015 1.19922 2.2002 2.90052 2.2002 4.99922V10.9992ZM12.1777 11.3117L9.5337 7.87852C9.4265 7.73922 9.2609 7.65732 9.0851 7.65652C8.9093 7.65572 8.743 7.73612 8.6345 7.87442L4.7577 12.8146C5.1111 13.0573 5.53909 13.1992 6.0002 13.1992C7.2654 13.1992 8.73499 13.1992 10.0002 13.1992C11.1091 13.1992 12.0264 12.3787 12.1777 11.3117ZM12.2002 8.71862V4.99922C12.2002 3.78412 11.2152 2.79922 10.0002 2.79922C8.73499 2.79922 7.2654 2.79922 6.0002 2.79922C4.7852 2.79922 3.8002 3.78412 3.8002 4.99922V10.9992C3.8002 11.135 3.8125 11.2678 3.8367 11.3965L7.3758 6.88672C7.7892 6.35982 8.4227 6.05342 9.0924 6.05652C9.7621 6.05952 10.3928 6.37172 10.8014 6.90222L12.2002 8.71862ZM6.0066 3.87572C6.6402 3.87572 7.1546 4.39102 7.1546 5.02572C7.1546 5.66042 6.6402 6.17572 6.0066 6.17572C5.373 6.17572 4.8586 5.66042 4.8586 5.02572C4.8586 4.39102 5.373 3.87572 6.0066 3.87572Z" fill="black"/>
</svg>
