<svg width="16" height="16" viewBox="0 0 16 16" fill="none" xmlns="http://www.w3.org/2000/svg">
<path fill-rule="evenodd" clip-rule="evenodd" d="M6.51995 1.41744L4.95795 4.26744L1.76395 4.87344C1.14595 4.99044 0.640955 5.43544 0.445955 6.03344C0.251955 6.63244 0.398955 7.28944 0.829955 7.74744L3.05795 10.1144L2.64695 13.3384C2.56695 13.9624 2.83395 14.5804 3.34395 14.9504C3.85295 15.3204 4.52295 15.3834 5.09195 15.1144L8.03095 13.7274L10.97 15.1144C11.54 15.3834 12.21 15.3204 12.719 14.9504C13.228 14.5804 13.495 13.9624 13.416 13.3384L13.005 10.1144L15.232 7.74744C15.663 7.28944 15.811 6.63244 15.616 6.03344C15.422 5.43544 14.916 4.99044 14.298 4.87344L11.105 4.26744L9.54295 1.41744C9.23995 0.866437 8.66095 0.523438 8.03095 0.523438C7.40195 0.523438 6.82295 0.866437 6.51995 1.41744ZM7.92295 2.18744C7.94495 2.14744 7.98595 2.12344 8.03095 2.12344C8.07595 2.12344 8.11795 2.14744 8.13995 2.18744L9.88295 5.36744C9.99795 5.57744 10.201 5.72444 10.436 5.76944L14 6.44544C14.044 6.45344 14.081 6.48544 14.094 6.52844C14.108 6.57144 14.098 6.61844 14.067 6.65044L11.581 9.29244C11.417 9.46644 11.339 9.70444 11.37 9.94144L11.828 13.5404C11.834 13.5854 11.815 13.6294 11.779 13.6554C11.742 13.6824 11.694 13.6864 11.653 13.6674L8.37295 12.1194C8.15695 12.0174 7.90595 12.0174 7.68995 12.1194L4.40895 13.6674C4.36795 13.6864 4.31995 13.6824 4.28395 13.6554C4.24795 13.6294 4.22795 13.5854 4.23395 13.5404L4.69295 9.94144C4.72295 9.70444 4.64595 9.46644 4.48195 9.29244L1.99595 6.65144C1.96495 6.61844 1.95395 6.57144 1.96795 6.52844C1.98195 6.48544 2.01795 6.45344 2.06195 6.44544L5.62695 5.76944C5.86095 5.72444 6.06395 5.57744 6.17895 5.36744L7.92295 2.18744ZM7.80795 5.97244C7.58495 5.81244 7.29195 5.79044 7.04795 5.91544C6.80395 6.04044 6.65095 6.29144 6.65095 6.56544C6.65095 7.66544 6.65095 9.18044 6.65095 10.2794C6.65095 10.5534 6.80395 10.8044 7.04795 10.9294C7.29195 11.0554 7.58495 11.0334 7.80795 10.8734C8.61395 10.2944 9.67095 9.53544 10.394 9.01644C10.585 8.87844 10.698 8.65844 10.698 8.42244C10.698 8.18744 10.585 7.96644 10.394 7.82944C9.67095 7.31044 8.61395 6.55144 7.80795 5.97244Z" fill="black"/>
</svg>
