<svg width="12" height="12" viewBox="0 0 12 12" fill="none" xmlns="http://www.w3.org/2000/svg">
<path fill-rule="evenodd" clip-rule="evenodd" d="M10.5113 7.33397C9.77527 7.33397 9.17727 6.73697 9.17727 6.00097C9.17727 5.26497 9.77527 4.66797 10.5113 4.66797C11.2463 4.66797 11.8443 5.26497 11.8443 6.00097C11.8443 6.73697 11.2463 7.33397 10.5113 7.33397ZM5.96827 7.33397C5.23227 7.33397 4.63427 6.73697 4.63427 6.00097C4.63427 5.26497 5.23227 4.66797 5.96827 4.66797C6.70427 4.66797 7.30127 5.26497 7.30127 6.00097C7.30127 6.73697 6.70427 7.33397 5.96827 7.33397ZM1.48827 7.33397C0.753273 7.33397 0.155273 6.73697 0.155273 6.00097C0.155273 5.26497 0.753273 4.66797 1.48827 4.66797C2.22427 4.66797 2.82227 5.26497 2.82227 6.00097C2.82227 6.73697 2.22427 7.33397 1.48827 7.33397Z" fill="black"/>
</svg>
