<svg width="24" height="24" viewBox="0 0 24 24" fill="none" xmlns="http://www.w3.org/2000/svg">
<path fill-rule="evenodd" clip-rule="evenodd" d="M11.9999 2C6.4807 2 2 6.481 2 12C2 17.519 6.4807 22 11.9999 22C17.519 22 22 17.519 22 12C22 6.481 17.519 2 11.9999 2ZM11.9998 4C16.4138 4 19.9978 7.585 19.9978 12C19.9978 16.415 16.4138 20 11.9998 20C7.58592 20 4.00193 16.415 4.00193 12C4.00193 7.585 7.58592 4 11.9998 4ZM7.99738 10.462C8.84532 10.462 9.53309 11.15 9.53309 11.997C9.53309 12.843 8.84532 13.531 7.99738 13.531C7.14943 13.531 6.46066 12.843 6.46066 11.997C6.46066 11.15 7.14943 10.462 7.99738 10.462ZM11.9968 10.462C12.8448 10.462 13.5325 11.15 13.5325 11.997C13.5325 12.843 12.8448 13.531 11.9968 13.531C11.1489 13.531 10.4601 12.843 10.4601 11.997C10.4601 11.15 11.1489 10.462 11.9968 10.462ZM15.9913 10.462C16.8393 10.462 17.528 11.15 17.528 11.997C17.528 12.843 16.8393 13.531 15.9913 13.531C15.1434 13.531 14.4556 12.843 14.4556 11.997C14.4556 11.15 15.1434 10.462 15.9913 10.462Z" fill="black"/>
</svg>
