<svg width="24" height="24" viewBox="0 0 24 24" fill="none" xmlns="http://www.w3.org/2000/svg">
<path fill-rule="evenodd" clip-rule="evenodd" d="M5.04688 10C6.15088 10 7.04688 10.896 7.04688 12C7.04688 13.104 6.15088 14 5.04688 14C3.94288 14 3.04688 13.104 3.04688 12C3.04688 10.896 3.94288 10 5.04688 10ZM12.0469 10C13.1509 10 14.0469 10.896 14.0469 12C14.0469 13.104 13.1509 14 12.0469 14C10.9429 14 10.0469 13.104 10.0469 12C10.0469 10.896 10.9429 10 12.0469 10ZM19.0469 10C20.1509 10 21.0469 10.896 21.0469 12C21.0469 13.104 20.1509 14 19.0469 14C17.9429 14 17.0469 13.104 17.0469 12C17.0469 10.896 17.9429 10 19.0469 10Z" fill="black"/>
</svg>
