<svg width="16" height="16" viewBox="0 0 16 16" fill="none" xmlns="http://www.w3.org/2000/svg">
<path fill-rule="evenodd" clip-rule="evenodd" d="M7.99508 1.32812C11.6739 1.32812 14.6601 4.31428 14.6601 7.99312C14.6601 11.672 11.6739 14.6581 7.99508 14.6581C4.31623 14.6581 1.33008 11.672 1.33008 7.99312C1.33008 4.31428 4.31623 1.32812 7.99508 1.32812ZM11.9003 6.82859C12.5464 6.82859 13.0712 7.35336 13.0712 7.99951C13.0712 8.64566 12.5464 9.17042 11.9003 9.17042C11.2541 9.17042 10.7293 8.64566 10.7293 7.99951C10.7293 7.35336 11.2541 6.82859 11.9003 6.82859ZM7.9887 6.81308C8.63484 6.81308 9.15961 7.33785 9.15961 7.98399C9.15961 8.63105 8.63484 9.15491 7.9887 9.15491C7.34255 9.15491 6.81778 8.63105 6.81778 7.98399C6.81778 7.33785 7.34255 6.81308 7.9887 6.81308ZM4.07988 6.80852C4.72603 6.80852 5.2508 7.33329 5.2508 7.97944C5.2508 8.62559 4.72603 9.15036 4.07988 9.15036C3.43373 9.15036 2.90897 8.62559 2.90897 7.97944C2.90897 7.33329 3.43373 6.80852 4.07988 6.80852Z" fill="black"/>
</svg>
