<svg width="16" height="16" viewBox="0 0 16 16" fill="none" xmlns="http://www.w3.org/2000/svg">
<path fill-rule="evenodd" clip-rule="evenodd" d="M6.55566 13.0098C6.55566 12.2088 7.20666 11.5578 8.00766 11.5578C8.80966 11.5578 9.45966 12.2088 9.45966 13.0098C9.45966 13.8108 8.80966 14.4618 8.00766 14.4618C7.20666 14.4618 6.55566 13.8108 6.55566 13.0098ZM6.55566 8.00378C6.55566 7.20178 7.20666 6.55178 8.00766 6.55178C8.80966 6.55178 9.45966 7.20178 9.45966 8.00378C9.45966 8.80478 8.80966 9.45578 8.00766 9.45578C7.20666 9.45578 6.55566 8.80478 6.55566 8.00378ZM6.55566 3.00278C6.55566 2.20178 7.20666 1.55078 8.00766 1.55078C8.80966 1.55078 9.45966 2.20178 9.45966 3.00278C9.45966 3.80478 8.80966 4.45478 8.00766 4.45478C7.20666 4.45478 6.55566 3.80478 6.55566 3.00278Z" fill="black"/>
</svg>
