<svg width="24" height="24" viewBox="0 0 24 24" fill="none" xmlns="http://www.w3.org/2000/svg">
<path fill-rule="evenodd" clip-rule="evenodd" d="M10 18.9531C10 17.8491 10.896 16.9531 12 16.9531C13.104 16.9531 14 17.8491 14 18.9531C14 20.0571 13.104 20.9531 12 20.9531C10.896 20.9531 10 20.0571 10 18.9531ZM10 11.9531C10 10.8491 10.896 9.95312 12 9.95312C13.104 9.95312 14 10.8491 14 11.9531C14 13.0571 13.104 13.9531 12 13.9531C10.896 13.9531 10 13.0571 10 11.9531ZM10 4.95312C10 3.84913 10.896 2.95312 12 2.95312C13.104 2.95313 14 3.84913 14 4.95312C14 6.05713 13.104 6.95312 12 6.95312C10.896 6.95312 10 6.05713 10 4.95312Z" fill="black"/>
</svg>
