<svg width="16" height="16" viewBox="0 0 16 16" fill="none" xmlns="http://www.w3.org/2000/svg">
<path fill-rule="evenodd" clip-rule="evenodd" d="M3.00483 6.55469C3.80613 6.55469 4.45673 7.20469 4.45673 8.00669C4.45673 8.80769 3.80613 9.45869 3.00483 9.45869C2.20343 9.45869 1.55273 8.80769 1.55273 8.00669C1.55273 7.20469 2.20343 6.55469 3.00483 6.55469ZM8.01073 6.55469C8.81273 6.55469 9.46273 7.20469 9.46273 8.00669C9.46273 8.80769 8.81273 9.45869 8.01073 9.45869C7.20973 9.45869 6.55873 8.80769 6.55873 8.00669C6.55873 7.20469 7.20973 6.55469 8.01073 6.55469ZM13.0117 6.55469C13.8127 6.55469 14.4637 7.20469 14.4637 8.00669C14.4637 8.80769 13.8127 9.45869 13.0117 9.45869C12.2097 9.45869 11.5597 8.80769 11.5597 8.00669C11.5597 7.20469 12.2097 6.55469 13.0117 6.55469Z" fill="black"/>
</svg>
