<svg width="12" height="12" viewBox="0 0 12 12" fill="none" xmlns="http://www.w3.org/2000/svg">
<path fill-rule="evenodd" clip-rule="evenodd" d="M4.66699 10.5122C4.66699 9.77625 5.26399 9.17825 5.99999 9.17825C6.73599 9.17825 7.33299 9.77625 7.33299 10.5122C7.33299 11.2472 6.73599 11.8453 5.99999 11.8453C5.26399 11.8453 4.66699 11.2472 4.66699 10.5122ZM4.66699 5.96925C4.66699 5.23325 5.26399 4.63525 5.99999 4.63525C6.73599 4.63525 7.33299 5.23325 7.33299 5.96925C7.33299 6.70525 6.73599 7.30225 5.99999 7.30225C5.26399 7.30225 4.66699 6.70525 4.66699 5.96925ZM4.66699 1.48925C4.66699 0.75425 5.26399 0.15625 5.99999 0.15625C6.73599 0.15625 7.33299 0.75425 7.33299 1.48925C7.33299 2.22525 6.73599 2.82325 5.99999 2.82325C5.26399 2.82325 4.66699 2.22525 4.66699 1.48925Z" fill="black"/>
</svg>
