<svg width="16" height="16" viewBox="0 0 16 16" fill="none" xmlns="http://www.w3.org/2000/svg">
<path fill-rule="evenodd" clip-rule="evenodd" d="M7.19478 13.0891L6.33178 12.2191C6.01978 11.9091 5.51278 11.9091 5.20078 12.2191C4.88778 12.5391 4.88778 13.0391 5.20078 13.3491L7.41478 15.5691C7.72678 15.8791 8.23378 15.8791 8.54578 15.5691L10.7888 13.3291C11.1008 13.0091 11.1008 12.5091 10.7888 12.1891C10.4768 11.8791 9.96978 11.8791 9.65678 12.1891L8.79478 13.0591V10.4791C8.79478 10.0391 8.43578 9.67906 7.99478 9.67906C7.55278 9.67906 7.19478 10.0391 7.19478 10.4791V13.0891ZM13.0148 7.18906H10.4938C10.0518 7.18906 9.69378 7.54906 9.69378 7.98906C9.69378 8.43906 10.0518 8.78906 10.4938 8.78906H13.0858L12.2018 9.67906C11.8898 9.98906 11.8898 10.4991 12.2018 10.8091C12.5138 11.1191 13.0208 11.1191 13.3338 10.8091L15.5478 8.59906C15.8598 8.27906 15.8598 7.77906 15.5478 7.45906L13.3048 5.21906C12.9918 4.90906 12.4858 4.90906 12.1728 5.21906C11.8608 5.52906 11.8608 6.03906 12.1728 6.34906L13.0148 7.18906ZM2.94078 8.79906H5.56778C6.00878 8.79906 6.36778 8.43906 6.36778 7.99906C6.36778 7.55906 6.00878 7.19906 5.56778 7.19906H2.93678L3.78678 6.34906C4.09878 6.03906 4.09878 5.52906 3.78678 5.21906C3.47478 4.90906 2.96778 4.90906 2.65578 5.21906L0.441781 7.43906C0.128781 7.74906 0.128781 8.24906 0.441781 8.56906L2.68478 10.8091C2.99678 11.1191 3.50378 11.1191 3.81578 10.8091C4.12778 10.4991 4.12778 9.98906 3.81578 9.67906L2.94078 8.79906ZM7.18578 2.97906V5.56906C7.18578 6.00906 7.54378 6.36906 7.98578 6.36906C8.42678 6.36906 8.78578 6.00906 8.78578 5.56906V2.93906L9.65678 3.80906C9.96978 4.11906 10.4768 4.11906 10.7888 3.80906C11.1008 3.49906 11.1008 2.98906 10.7888 2.67906L8.57478 0.459063C8.26178 0.149062 7.75578 0.149062 7.44378 0.459063L5.20078 2.70906C4.88778 3.01906 4.88778 3.51906 5.20078 3.83906C5.51278 4.14906 6.01978 4.14906 6.33178 3.83906L7.18578 2.97906Z" fill="black"/>
</svg>
