<svg width="16" height="16" viewBox="0 0 16 16" fill="none" xmlns="http://www.w3.org/2000/svg">
<path d="M13.4197 5.28149C13.8213 5.28149 14.1468 5.60724 14.147 6.00883V11.6498C14.147 13.2567 12.8445 14.5592 11.2376 14.5592H4.842C3.23517 14.5591 1.93261 13.2567 1.93261 11.6498V6.00883C1.93277 5.60726 2.25835 5.28152 2.65996 5.28149H13.4197ZM7.50086 7.48576C7.33293 7.36535 7.11136 7.34885 6.92706 7.44333C6.74261 7.53796 6.62719 7.72763 6.62703 7.93429V11.4458L6.63107 11.5225C6.65594 11.6985 6.76572 11.8539 6.92706 11.9367C7.11136 12.0311 7.33294 12.0147 7.50086 11.8943L9.94556 10.1396C10.0901 10.0357 10.1759 9.86672 10.1759 9.68901C10.1756 9.51233 10.0901 9.34545 9.94556 9.24149C9.25175 8.74321 8.27313 8.04038 7.50086 7.48576Z" fill="black"/>
<path d="M1.74434 4.94641C1.84832 5.33446 2.24718 5.56474 2.63523 5.46077L13.0284 2.67594C13.4164 2.57196 13.6467 2.1731 13.5427 1.78505L13.3844 1.19436C13.1765 0.41827 12.3787 -0.0422979 11.6027 0.165655L2.61477 2.57395C1.83868 2.78191 1.37811 3.57963 1.58607 4.35572L1.74434 4.94641Z" fill="black"/>
</svg>
