<svg width="16" height="17" viewBox="0 0 16 17" fill="none" xmlns="http://www.w3.org/2000/svg">
<path fill-rule="evenodd" clip-rule="evenodd" d="M12.2492 0.0445901C12.9426 -0.141102 13.6561 0.270096 13.8419 0.963535L14.3849 2.9899L12.839 3.40397L12.3732 1.66764L10.0138 2.29947L11.7365 3.6774L9.33804 4.31998L7.61538 2.94205L5.79702 3.42936L7.5187 4.80729L5.12124 5.44986L3.39858 4.07193L2.76479 4.24186L3.28823 6.194H14.1994C14.641 6.194 14.9999 6.55219 15.0001 6.99381V12.0456C15 13.3157 13.9695 14.3454 12.6994 14.3454H4.15249C2.8824 14.3453 1.85282 13.3156 1.85268 12.0456V7.01822L1.14272 4.36588C0.957061 3.67245 1.36824 2.95989 2.06167 2.77408L12.2492 0.0445901ZM3.45229 12.0456C3.45243 12.432 3.76606 12.7457 4.15249 12.7458H12.6994C13.0859 12.7458 13.3994 12.4321 13.3996 12.0456V7.79361H12.4777L11.5275 9.08561H9.04409L9.99429 7.79361H7.95522L7.00503 9.08561H4.52163L5.47183 7.79361H3.45229V12.0456Z" fill="black"/>
</svg>
