<svg width="12" height="12" viewBox="0 0 12 12" fill="none" xmlns="http://www.w3.org/2000/svg">
<path fill-rule="evenodd" clip-rule="evenodd" d="M1.2614 5.06875C1.21552 5.18345 1.19099 5.30923 1.19099 5.44054C1.19099 6.21657 1.19099 7.98538 1.19099 9.38951C1.19099 10.0817 1.46628 10.7462 1.95595 11.235C2.44482 11.7247 3.10931 12 3.80149 12H8.54784C9.24001 12 9.9045 11.7247 10.3934 11.235C10.883 10.7462 11.1583 10.0817 11.1583 9.38951C11.1583 7.98538 11.1583 6.21657 11.1583 5.44054C11.1583 4.87256 10.6979 4.41217 10.13 4.41217H4.43354L10.2692 2.71218C10.584 2.62042 10.7644 2.29134 10.6726 1.9765L10.4171 1.09922C10.1814 0.289963 9.33494 -0.174388 8.52648 0.0613471L1.84915 2.00656C1.04069 2.2415 0.575551 3.08873 0.811286 3.89719L1.0668 4.77526C1.1016 4.89471 1.17122 4.99518 1.2614 5.06875ZM9.89261 5.67766V9.3893C9.89261 9.74607 9.75101 10.0878 9.49867 10.3402C9.24632 10.5925 8.90458 10.7341 8.54781 10.7341H3.80146C3.4447 10.7341 3.10296 10.5925 2.85061 10.3402C2.59826 10.0878 2.45666 9.74607 2.45666 9.3893V5.67766H9.89261ZM5.77914 6.45175C5.62647 6.34179 5.42475 6.32676 5.25704 6.41299C5.08934 6.49922 4.98334 6.67167 4.98334 6.85994C4.98334 7.63913 4.98334 8.72288 4.98334 9.50207C4.98334 9.69034 5.08934 9.86359 5.25704 9.94902C5.42475 10.0352 5.62647 10.0202 5.77914 9.91026C6.35108 9.4997 7.10733 8.95624 7.61835 8.58919C7.75046 8.49506 7.82798 8.34317 7.82798 8.18101C7.82798 8.01963 7.75046 7.86696 7.61835 7.77282C7.10733 7.40577 6.35108 6.86231 5.77914 6.45175ZM9.27801 1.43048L9.36819 1.73899L2.04061 3.87326L1.95043 3.56554C1.89822 3.38597 2.00106 3.1977 2.18142 3.14549L8.85795 1.20028C9.03752 1.14807 9.2258 1.25091 9.27801 1.43048Z" fill="black"/>
</svg>
