<svg width="24" height="24" viewBox="0 0 24 24" fill="none" xmlns="http://www.w3.org/2000/svg">
<path fill-rule="evenodd" clip-rule="evenodd" d="M3.16807 9.00319C3.04907 9.24349 2.98217 9.51429 2.98217 9.80069V16.9656C2.98217 18.2917 3.50897 19.5634 4.44657 20.5011C5.38427 21.4388 6.65607 21.9656 7.98217 21.9656C10.4303 21.9656 13.5519 21.9656 16.0001 21.9656C17.3262 21.9656 18.598 21.4388 19.5356 20.5011C20.4733 19.5634 21.0001 18.2917 21.0001 16.9656V9.80069C21.0001 8.80659 20.1942 8.00069 19.2001 8.00069H8.34827L19.6604 4.98519C20.194 4.84289 20.5113 4.29499 20.369 3.76129C20.369 3.76129 20.1913 3.09439 19.9947 2.35689C19.5679 0.755986 17.9241 -0.195914 16.3231 0.230886L4.53707 3.37279C2.93607 3.79959 1.98427 5.44339 2.41107 7.04429C2.60767 7.78179 2.78537 8.44869 2.78537 8.44869C2.84747 8.68139 2.98657 8.87289 3.16807 9.00319ZM4.98217 10.0007H19.0001V16.9656C19.0001 17.7612 18.684 18.5243 18.1214 19.0869C17.5588 19.6495 16.7957 19.9656 16.0001 19.9656C13.5519 19.9656 10.4303 19.9656 7.98217 19.9656C7.18647 19.9656 6.42347 19.6495 5.86087 19.0869C5.29817 18.5243 4.98217 17.7612 4.98217 16.9656V10.0007ZM11.5659 11.7716C11.2613 11.5529 10.8598 11.5229 10.5262 11.6941C10.1925 11.8653 9.98257 12.2089 9.98257 12.5839V17.4102C9.98257 17.7852 10.1925 18.1287 10.5262 18.2999C10.8598 18.4711 11.2613 18.4412 11.5659 18.2225C12.6201 17.4654 13.9802 16.4886 14.9262 15.8093C15.1878 15.6214 15.3429 15.3191 15.3429 14.997C15.3429 14.675 15.1878 14.3726 14.9262 14.1848C13.9802 13.5054 12.6201 12.5287 11.5659 11.7716ZM18.0621 2.87209L18.1789 3.31019L4.46037 6.96729L4.34357 6.52919C4.20127 5.99549 4.51857 5.44759 5.05217 5.30529L16.8383 2.16339C17.372 2.02119 17.9199 2.33849 18.0621 2.87209Z" fill="black"/>
</svg>
