<svg width="24" height="24" viewBox="0 0 24 24" fill="none" xmlns="http://www.w3.org/2000/svg">
<rect width="24" height="24" fill="white"/>
<path fill-rule="evenodd" clip-rule="evenodd" d="M20.1416 7.94577C20.7447 7.94595 21.2339 8.43512 21.2341 9.03828V17.5113C21.2341 19.925 19.2767 21.8813 16.8631 21.8813H7.25706C4.84353 21.8811 2.88703 19.9249 2.88703 17.5113V9.03828C2.88721 8.43504 3.37626 7.94582 3.97953 7.94577H20.1416ZM11.2508 11.2567C10.9986 11.0758 10.6657 11.0511 10.3889 11.1929C10.1119 11.3351 9.93799 11.62 9.93776 11.9304V17.2048L9.94484 17.3191C9.98207 17.5835 10.1465 17.8168 10.3889 17.9412C10.6658 18.0832 10.9985 18.0595 11.2508 17.8785L14.9228 15.2423C15.1398 15.0863 15.2678 14.8334 15.2678 14.5666C15.2675 14.3012 15.1398 14.0512 14.9228 13.8949C13.8807 13.1464 12.4108 12.0898 11.2508 11.2567Z" fill="black"/>
<path d="M2.60424 7.44244C2.76042 8.0253 3.35953 8.37119 3.94239 8.21502L19.5533 4.03208C20.1362 3.8759 20.4821 3.27679 20.3259 2.69393L20.0882 1.80668C19.7758 0.64096 18.5776 -0.0508302 17.4119 0.261524L3.91166 3.87889C2.74594 4.19125 2.05415 5.38947 2.3665 6.55519L2.60424 7.44244Z" fill="black"/>
</svg>
