<svg width="24" height="24" viewBox="0 0 24 24" fill="none" xmlns="http://www.w3.org/2000/svg">
<path fill-rule="evenodd" clip-rule="evenodd" d="M17.9428 0.184247C18.8762 -0.0656836 19.8361 0.488286 20.0864 1.42155L20.9008 4.46159L18.9692 4.97917L18.2192 2.18132L15.1528 3.00163L17.5874 5.31608L15.3237 5.92253L12.8881 3.60905L10.6626 4.20475L13.0971 6.51921L10.8335 7.12565L8.39791 4.81218L6.17428 5.40788L8.60788 7.72233L6.3442 8.32878L3.90866 6.01432L3.42038 6.14616L4.29635 9.41667H20.8178C21.3698 9.41708 21.8178 9.86464 21.8178 10.4167V17.9938C21.8177 19.7883 20.3623 21.2434 18.5678 21.2438H5.74655C3.95173 21.2438 2.49672 19.7886 2.49655 17.9938V10.4255L1.42331 6.42253C1.17327 5.48907 1.72721 4.52919 2.66061 4.27897L17.9428 0.184247ZM4.49655 17.9938C4.49672 18.684 5.0563 19.2438 5.74655 19.2438H18.5678C19.2577 19.2434 19.8177 18.6838 19.8178 17.9938V11.4167H18.7173L17.4096 13.5534H15.0659L16.3725 11.4167H14.0698L12.7622 13.5534H10.4184L11.7251 11.4167H9.42135L8.11374 13.5534H5.76999L7.07663 11.4167H4.49655V17.9938Z" fill="black"/>
</svg>
