<svg width="16" height="16" viewBox="0 0 16 16" fill="none" xmlns="http://www.w3.org/2000/svg">
<path fill-rule="evenodd" clip-rule="evenodd" d="M1.28905 6.40755C1.23105 6.55255 1.20005 6.71155 1.20005 6.87755C1.20005 7.85855 1.20005 10.0946 1.20005 11.8696C1.20005 12.7446 1.54805 13.5846 2.16705 14.2026C2.78505 14.8216 3.62505 15.1696 4.50005 15.1696H10.5001C11.3751 15.1696 12.2151 14.8216 12.8331 14.2026C13.4521 13.5846 13.8001 12.7446 13.8001 11.8696C13.8001 10.0946 13.8001 7.85855 13.8001 6.87755C13.8001 6.15955 13.2181 5.57755 12.5001 5.57755H5.29905L12.6761 3.42855C13.0741 3.31255 13.3021 2.89655 13.1861 2.49855L12.8631 1.38955C12.5651 0.366551 11.4951 -0.220449 10.4731 0.0775507L2.03205 2.53655C1.01005 2.83355 0.422052 3.90455 0.720052 4.92655L1.04305 6.03655C1.08705 6.18755 1.17505 6.31455 1.28905 6.40755ZM12.2001 7.17755V11.8696C12.2001 12.3206 12.0211 12.7526 11.7021 13.0716C11.3831 13.3906 10.9511 13.5696 10.5001 13.5696H4.50005C4.04905 13.5696 3.61705 13.3906 3.29805 13.0716C2.97905 12.7526 2.80005 12.3206 2.80005 11.8696V7.17755H12.2001ZM7.00005 8.15655C6.80705 8.01755 6.55205 7.99855 6.34005 8.10755C6.12805 8.21655 5.99405 8.43455 5.99405 8.67255C5.99405 9.65755 5.99405 11.0276 5.99405 12.0126C5.99405 12.2506 6.12805 12.4696 6.34005 12.5776C6.55205 12.6866 6.80705 12.6676 7.00005 12.5286C7.72305 12.0096 8.67905 11.3225 9.32505 10.8586C9.49205 10.7395 9.59005 10.5476 9.59005 10.3426C9.59005 10.1385 9.49205 9.94555 9.32505 9.82655C8.67905 9.36255 7.72305 8.67555 7.00005 8.15655ZM11.4231 1.80855L11.5371 2.19855L2.27405 4.89655L2.16005 4.50755C2.09405 4.28055 2.22405 4.04255 2.45205 3.97655L10.8921 1.51755C11.1191 1.45155 11.3571 1.58155 11.4231 1.80855Z" fill="black"/>
</svg>
