<svg width="24" height="24" viewBox="0 0 24 24" fill="none" xmlns="http://www.w3.org/2000/svg">
<path fill-rule="evenodd" clip-rule="evenodd" d="M17.9428 0.184247C18.8762 -0.0656836 19.8361 0.488286 20.0864 1.42155L20.9008 4.46159L18.9692 4.97917L18.2192 2.18132L15.4477 2.9235L17.8823 5.23698L15.6176 5.8444L13.1821 3.52995L10.9585 4.12565L13.393 6.44011L11.1284 7.04655L8.69381 4.73307L6.4692 5.32878L8.90475 7.64323L6.63913 8.24968L4.20456 5.93522L3.42038 6.14616L4.29635 9.41667H20.8178C21.3698 9.41708 21.8178 9.86464 21.8178 10.4167V17.9938C21.8177 19.7883 20.3623 21.2434 18.5678 21.2438H5.74655C3.95174 21.2438 2.49673 19.7886 2.49655 17.9938V10.4255L1.42331 6.42253C1.17327 5.48907 1.72721 4.52919 2.66061 4.27897L17.9428 0.184247ZM4.46334 13.1159V13.5544H6.53952L8.13131 10.9528H5.78659L4.46334 13.1159ZM8.84323 13.5544H11.187L12.7788 10.9528H10.434L8.84323 13.5544ZM13.4917 13.5544H15.8354L17.4272 10.9528H15.0825L13.4917 13.5544ZM18.1391 13.5544H20.1421V10.9528H19.7299L18.1391 13.5544Z" fill="black"/>
</svg>
