<svg width="24" height="24" viewBox="0 0 24 24" fill="none" xmlns="http://www.w3.org/2000/svg">
<path fill-rule="evenodd" clip-rule="evenodd" d="M11.7254 13.367C11.0004 12.88 10.1284 12.595 9.18937 12.595C9.18038 12.595 9.17138 12.595 9.16138 12.595C6.64738 12.595 4.60938 14.633 4.60938 17.147C4.60938 19.661 6.64738 21.7 9.16138 21.7C9.17138 21.7 9.18038 21.7 9.18937 21.7C11.7034 21.7 13.7414 19.662 13.7414 17.148C13.7414 17.019 13.7364 16.891 13.7254 16.764V6C13.7254 5.45 14.1734 5 14.7254 5H18.3904C18.9424 5 19.3904 4.55 19.3904 4C19.3904 3.45 18.9424 3 18.3904 3H14.7254C13.0684 3 11.7254 4.34 11.7254 6V13.367ZM11.7254 16.863C11.5844 15.587 10.5024 14.595 9.18937 14.595C9.18038 14.595 9.17138 14.595 9.16138 14.595C7.75238 14.595 6.60938 15.738 6.60938 17.147C6.60938 18.556 7.75238 19.7 9.16138 19.7C9.17138 19.7 9.18038 19.7 9.18937 19.7C10.5904 19.7 11.7274 18.572 11.7414 17.174C11.7304 17.118 11.7254 17.06 11.7254 17V16.863Z" fill="black"/>
</svg>
