<svg width="16" height="16" viewBox="0 0 16 16" fill="none" xmlns="http://www.w3.org/2000/svg">
<path fill-rule="evenodd" clip-rule="evenodd" d="M5.20614 8.90429C4.75314 8.64629 4.22814 8.50029 3.66914 8.50029H3.65114C1.91914 8.50029 0.515137 9.90429 0.515137 11.6363C0.515137 13.3683 1.91914 14.7723 3.65114 14.7723H3.66914C5.40114 14.7723 6.80514 13.3683 6.80514 11.6363L6.80414 11.6033L6.80614 11.5633V4.73729C6.80614 3.90729 7.40614 3.19829 8.22514 3.06029L11.2191 2.55729C11.7121 2.47429 12.2171 2.61329 12.5991 2.93629C12.9811 3.25929 13.2011 3.73429 13.2011 4.23429V7.85729C12.7401 7.59129 12.2061 7.44129 11.6361 7.44129H11.6351C9.88714 7.44129 8.47014 8.85829 8.47014 10.6063V10.6233C8.47014 12.3723 9.88714 13.7893 11.6351 13.7893H11.6361C13.3601 13.7893 14.7621 12.4113 14.8001 10.6973L14.8011 10.6803V10.6593L14.8021 10.6233V10.6063L14.8011 10.5703V4.23429C14.8011 3.26329 14.3731 2.34129 13.6321 1.71429C12.8911 1.08729 11.9111 0.818289 10.9541 0.979289L7.95914 1.48329C6.37014 1.75029 5.20614 3.12529 5.20614 4.73729V8.90429ZM3.65114 10.1003H3.66914C4.51714 10.1003 5.20514 10.7883 5.20514 11.6363C5.20514 12.4843 4.51714 13.1723 3.66914 13.1723H3.65114C2.80314 13.1723 2.11514 12.4843 2.11514 11.6363C2.11514 10.7883 2.80314 10.1003 3.65114 10.1003ZM11.6351 9.04129C12.5001 9.04129 13.2021 9.74229 13.2021 10.6063V10.6233C13.2021 11.4883 12.5011 12.1893 11.6361 12.1893C10.7711 12.1893 10.0701 11.4883 10.0701 10.6233V10.6073C10.0701 9.74229 10.7711 9.04129 11.6351 9.04129Z" fill="black"/>
</svg>
