<svg width="24" height="24" viewBox="0 0 24 24" fill="none" xmlns="http://www.w3.org/2000/svg">
<path d="M11.9984 1.875C12.606 1.875 13.0984 2.36749 13.0984 2.975V20.9787C13.0984 21.5862 12.606 22.0787 11.9984 22.0787C11.3909 22.0787 10.8984 21.5862 10.8984 20.9787V2.975C10.8984 2.36749 11.3909 1.875 11.9984 1.875Z" fill="black"/>
<path d="M17.0004 5.20508C17.6079 5.20508 18.1004 5.69756 18.1004 6.30508V17.6562C18.1004 18.2637 17.6079 18.7562 17.0004 18.7562C16.3929 18.7562 15.9004 18.2637 15.9004 17.6562V6.30508C15.9004 5.69756 16.3929 5.20508 17.0004 5.20508Z" fill="black"/>
<path d="M22.0004 9.52832C22.6079 9.52832 23.1004 10.0208 23.1004 10.6283V13.3325C23.1004 13.94 22.6079 14.4325 22.0004 14.4325C21.3929 14.4325 20.9004 13.94 20.9004 13.3325V10.6283C20.9004 10.0208 21.3929 9.52832 22.0004 9.52832Z" fill="black"/>
<path d="M7.00039 7.23145C7.6079 7.23145 8.10039 7.72393 8.10039 8.33145V15.6291C8.10039 16.2367 7.6079 16.7291 7.00039 16.7291C6.39288 16.7291 5.90039 16.2367 5.90039 15.6291V8.33145C5.90039 7.72393 6.39288 7.23145 7.00039 7.23145Z" fill="black"/>
<path d="M2.00039 9.40479C2.6079 9.40479 3.10039 9.89727 3.10039 10.5048V13.4558C3.10039 14.0633 2.6079 14.5558 2.00039 14.5558C1.39288 14.5558 0.900391 14.0633 0.900391 13.4558V10.5048C0.900391 9.89727 1.39288 9.40479 2.00039 9.40479Z" fill="black"/>
</svg>
