<svg width="24" height="24" viewBox="0 0 24 24" fill="none" xmlns="http://www.w3.org/2000/svg">
<path fill-rule="evenodd" clip-rule="evenodd" d="M8.00977 13.2703C7.27977 12.7823 6.40977 12.5163 5.51977 12.5163H5.48977C4.29977 12.5163 3.15977 12.9883 2.31977 13.8293C1.47977 14.6693 1.00977 15.8093 1.00977 16.9983V17.0013C1.00977 18.1903 1.47977 19.3303 2.31977 20.1703C3.15977 21.0113 4.29977 21.4833 5.48977 21.4833C5.49977 21.4833 5.50977 21.4833 5.51977 21.4833C6.70977 21.4833 7.84977 21.0113 8.68977 20.1703C9.52977 19.3303 9.99977 18.1903 9.99977 17.0013V16.9893C10.0098 16.9533 10.0098 16.9173 10.0098 16.8813V6.47125C10.0098 5.49525 10.7198 4.66125 11.6798 4.49925L17.6698 3.49225C18.2498 3.39525 18.8398 3.55725 19.2898 3.93725C19.7398 4.31725 19.9998 4.87625 19.9998 5.46425V11.3763C19.2798 10.8943 18.4198 10.6133 17.4898 10.6133C14.9998 10.6133 12.9898 12.6293 12.9898 15.1173C12.9898 15.1263 12.9898 15.1353 12.9898 15.1443C12.9898 17.6313 14.9998 19.6483 17.4898 19.6483C19.9798 19.6483 21.9998 17.6313 21.9998 15.1443C21.9998 15.1353 21.9998 15.1263 21.9998 15.1173L21.9898 14.9473C21.9998 14.9073 21.9998 14.8653 21.9998 14.8223C21.9998 14.8223 21.9998 9.28425 21.9998 5.46425C21.9998 4.28825 21.4798 3.17125 20.5798 2.41125C19.6898 1.65025 18.4998 1.32525 17.3398 1.52025C15.4198 1.84225 13.0798 2.23525 11.3498 2.52725C9.41977 2.85125 8.00977 4.51825 8.00977 6.47125V13.2703ZM5.48977 14.5163H5.51977C6.17977 14.5163 6.80977 14.7773 7.27977 15.2433C7.73977 15.7083 7.99977 16.3403 7.99977 16.9983V17.0013C7.99977 17.6593 7.73977 18.2913 7.27977 18.7563C6.80977 19.2223 6.17977 19.4833 5.51977 19.4833H5.48977C4.82977 19.4833 4.19977 19.2223 3.73977 18.7563C3.26977 18.2913 3.00977 17.6593 3.00977 17.0013V16.9983C3.00977 16.3403 3.26977 15.7083 3.73977 15.2433C4.19977 14.7773 4.82977 14.5163 5.48977 14.5163ZM17.4898 12.6133C18.8798 12.6133 19.9998 13.7343 19.9998 15.1173C19.9998 15.1263 19.9998 15.1353 19.9998 15.1443C19.9998 16.5273 18.8798 17.6483 17.4898 17.6483C16.1098 17.6483 14.9898 16.5273 14.9898 15.1443C14.9898 15.1353 14.9898 15.1263 14.9898 15.1173C14.9898 13.7343 16.1098 12.6133 17.4898 12.6133Z" fill="black"/>
</svg>
