<svg width="12" height="12" viewBox="0 0 12 12" fill="none" xmlns="http://www.w3.org/2000/svg">
<path fill-rule="evenodd" clip-rule="evenodd" d="M7.83032 8.58262V2.12422C7.83032 2.01372 7.91992 1.92422 8.03032 1.92422H10.2789C10.7205 1.92422 11.0789 1.56572 11.0789 1.12422C11.0789 0.682619 10.7205 0.324219 10.2789 0.324219H8.03032C7.03622 0.324219 6.23032 1.13002 6.23032 2.12412V5.97542C5.82552 5.77042 5.37462 5.66082 4.91232 5.66082H4.89222C4.11832 5.66082 3.37612 5.96822 2.82882 6.51542C2.28162 7.06262 1.97422 7.80492 1.97412 8.57882V8.58262C1.97422 9.35652 2.28162 10.0987 2.82882 10.6459C3.37612 11.1931 4.11832 11.5006 4.89222 11.5005C4.89892 11.5005 4.90562 11.5005 4.91232 11.5005C5.68622 11.5006 6.42842 11.1931 6.97562 10.6459C7.52292 10.0987 7.83032 9.35652 7.83032 8.58262ZM4.89222 7.26082H4.91232C5.26192 7.26082 5.59712 7.39962 5.84432 7.64682C6.09142 7.89402 6.23032 8.22922 6.23032 8.57872V8.58252C6.23032 8.93212 6.09142 9.26742 5.84432 9.51452C5.59712 9.76172 5.26192 9.90062 4.91232 9.90052H4.89222C4.54262 9.90062 4.20742 9.76172 3.96022 9.51452C3.71302 9.26742 3.57422 8.93212 3.57412 8.58262V8.57882C3.57422 8.22922 3.71302 7.89402 3.96022 7.64682C4.20742 7.39962 4.54262 7.26082 4.89222 7.26082Z" fill="black"/>
</svg>
