<svg width="24" height="24" viewBox="0 0 24 24" fill="none" xmlns="http://www.w3.org/2000/svg">
<path d="M17.5148 8.60488C18.2767 8.60488 18.8953 9.22958 18.8953 9.99907C18.8953 10.7685 18.2767 11.3932 17.5148 11.3932C16.7529 11.3932 16.1344 10.7685 16.1344 9.99907C16.1344 9.22958 16.7529 8.60488 17.5148 8.60488Z" fill="black"/>
<path d="M17.6311 0.984375C16.4809 0.984375 15.3862 1.50998 14.7622 2.07928C14 2.77468 14.7067 4.38348 15.8046 3.69038C16.227 3.42368 16.7568 3.03728 17.6698 3.03338C18.2691 3.03087 18.6869 3.53708 18.6869 4.02308C18.6869 4.53947 17.4284 5.38408 16.7468 6.02528C15.8216 6.89568 17.0761 8.37897 18.1741 7.39937C19.3108 6.38527 20.7653 5.17737 20.7653 3.81037C20.7653 2.23077 19.459 0.984375 17.6311 0.984375Z" fill="black"/>
<path fill-rule="evenodd" clip-rule="evenodd" d="M13.382 5.61328L10.2406 6.14128C8.31427 6.46508 6.90357 8.13268 6.90357 10.0859V15.1262C6.31787 14.7947 5.65147 14.616 4.96667 14.616H4.94177C3.89887 14.616 2.89877 15.0303 2.16137 15.7677C1.42397 16.5051 1.00977 17.5052 1.00977 18.548V18.5503C1.00977 19.5931 1.42397 20.5932 2.16137 21.3306C2.89877 22.068 3.89887 22.4823 4.94177 22.4823H4.96667C6.00947 22.4823 7.00967 22.068 7.74707 21.3306C8.48437 20.5932 8.89867 19.5931 8.89867 18.5503L8.90357 18.4492V10.086C8.90357 9.10928 9.60896 8.27548 10.5721 8.11358L14.1025 7.52018C13.9736 7.03688 13.9542 6.52328 14.0699 6.01458C13.8235 5.91158 13.5923 5.77728 13.382 5.61328ZM4.96667 16.616H4.94177C4.42937 16.616 3.93797 16.8196 3.57557 17.1819C3.21327 17.5442 3.00977 18.0356 3.00977 18.548V18.5503C3.00977 19.0627 3.21327 19.5541 3.57557 19.9164C3.93797 20.2787 4.42937 20.4823 4.94177 20.4823H4.96667C5.47907 20.4823 5.97047 20.2787 6.33277 19.9164C6.69517 19.5541 6.89867 19.0627 6.89867 18.5503V18.548C6.89867 18.0356 6.69517 17.5442 6.33277 17.1819C5.97047 16.8196 5.47907 16.616 4.96667 16.616Z" fill="black"/>
<path fill-rule="evenodd" clip-rule="evenodd" d="M15.236 13.0198L15.0466 13.0136H15.0435C13.9959 13.0136 12.9912 13.4298 12.2504 14.1706C11.5097 14.9113 11.0935 15.916 11.0935 16.9636V16.9868C11.0935 18.0344 11.5097 19.0391 12.2504 19.7799C12.9912 20.5206 13.9959 20.9368 15.0435 20.9368H15.0466C16.0942 20.9368 17.0989 20.5206 17.8396 19.7799C18.5804 19.0391 18.9966 18.0344 18.9966 16.9868L19.0002 16.7161V13.4874C18.5441 13.6844 18.0418 13.793 17.5151 13.793C16.6599 13.793 15.8687 13.5066 15.236 13.0198ZM15.0465 15.0136H15.0435C14.5263 15.0136 14.0303 15.2191 13.6647 15.5848C13.299 15.9505 13.0935 16.4465 13.0935 16.9636V16.9868C13.0935 17.504 13.299 18 13.6647 18.3657C14.0303 18.7313 14.5263 18.9368 15.0435 18.9368H15.0466C15.5638 18.9368 16.0597 18.7313 16.4254 18.3657C16.7911 18 16.9966 17.504 16.9966 16.9868V16.9636C16.9966 16.4465 16.7911 15.9505 16.4254 15.5848C16.0597 15.2191 15.5638 15.0136 15.0465 15.0136Z" fill="black"/>
</svg>
