<svg width="16" height="16" viewBox="0 0 16 16" fill="none" xmlns="http://www.w3.org/2000/svg">
<path fill-rule="evenodd" clip-rule="evenodd" d="M8.16866 8.69891C7.66566 8.39491 7.08466 8.23191 6.48666 8.23191C6.47966 8.23191 6.47166 8.23191 6.46466 8.23191C5.59366 8.23191 4.75766 8.57791 4.14266 9.19391C3.52666 9.80891 3.18066 10.6449 3.18066 11.5159V11.5189C3.18066 12.3899 3.52666 13.2249 4.14266 13.8409C4.75766 14.4569 5.59366 14.8029 6.46466 14.8029C6.47166 14.8029 6.47966 14.8029 6.48666 14.8029C7.35766 14.8029 8.19266 14.4569 8.80866 13.8409C9.42466 13.2249 9.77066 12.3899 9.77066 11.5189V11.5159L9.76866 11.4659V4.77691C9.76866 4.27391 10.1747 3.86591 10.6777 3.86491L13.6827 3.85391C14.1237 3.85291 14.4817 3.49291 14.4797 3.05091C14.4787 2.60991 14.1187 2.25291 13.6767 2.25391C13.6767 2.25391 12.0207 2.25991 10.6717 2.26491C9.28766 2.26891 8.16866 3.39291 8.16866 4.77691V8.69891ZM6.46466 9.83191C6.47166 9.83191 6.47966 9.83191 6.48666 9.83191C6.93366 9.83191 7.36166 10.0089 7.67766 10.3249C7.99366 10.6409 8.17066 11.0689 8.17066 11.5159V11.5189C8.17066 11.9659 7.99366 12.3939 7.67766 12.7099C7.36166 13.0259 6.93366 13.2029 6.48666 13.2029C6.47966 13.2029 6.47166 13.2029 6.46466 13.2029C6.01766 13.2029 5.58966 13.0259 5.27366 12.7099C4.95766 12.3939 4.78066 11.9659 4.78066 11.5189V11.5159C4.78066 11.0689 4.95766 10.6409 5.27366 10.3249C5.58966 10.0089 6.01766 9.83191 6.46466 9.83191Z" fill="black"/>
</svg>
