<svg width="24" height="24" viewBox="0 0 24 24" fill="none" xmlns="http://www.w3.org/2000/svg">
<path fill-rule="evenodd" clip-rule="evenodd" d="M5.085 5.09C5.514 2.76 7.551 1 10 1C12.443 1 15.557 1 18 1C20.761 1 23 3.24 23 6C23 8.443 23 11.557 23 14C23 16.448 21.24 18.486 18.917 18.915C18.488 21.24 16.45 23 14.002 23C11.558 23 8.444 23 6 23C3.239 23 1 20.761 1 18V10C1 7.55 2.76 5.51 5.085 5.09ZM3 18V10C3 8.343 4.343 7 6 7C8.444 7 11.558 7 14.002 7C15.658 7 17.002 8.343 17.002 10V18C17.002 19.657 15.658 21 14.002 21C11.558 21 8.444 21 6 21C4.343 21 3 19.657 3 18ZM9.327 13.724C9.002 13.596 8.649 13.527 8.279 13.527H8.261C6.645 13.527 5.335 14.837 5.335 16.453V16.456C5.335 18.072 6.645 19.382 8.261 19.382C8.267 19.382 8.273 19.382 8.279 19.382C9.895 19.382 11.205 18.072 11.205 16.456V16.433C11.219 16.368 11.227 16.3 11.227 16.231V11.477C11.227 11.207 11.444 10.987 11.714 10.984L14.146 10.95C14.671 10.943 15.09 10.511 15.083 9.987C15.076 9.463 14.644 9.043 14.12 9.05C14.12 9.05 12.786 9.069 11.687 9.084C10.379 9.102 9.327 10.168 9.327 11.477V13.724ZM8.261 15.427H8.279C8.846 15.427 9.305 15.887 9.305 16.453V16.456C9.305 17.023 8.846 17.482 8.279 17.482H8.261C7.695 17.482 7.235 17.023 7.235 16.456V16.453C7.235 15.887 7.695 15.427 8.261 15.427ZM19.002 16.825C20.166 16.416 21 15.306 21 14V6C21 4.34 19.657 3 18 3H10C8.694 3 7.583 3.83 7.171 5H14.002C16.763 5 19.002 7.24 19.002 10V16.825Z" fill="black"/>
</svg>
