<svg width="16" height="16" viewBox="0 0 16 16" fill="none" xmlns="http://www.w3.org/2000/svg">
<path fill-rule="evenodd" clip-rule="evenodd" d="M1.2002 10.0021C1.2002 11.2751 1.7062 12.4961 2.6062 13.3961C3.5062 14.2961 4.7272 14.8021 6.0002 14.8021C7.2872 14.8021 8.7132 14.8021 10.0002 14.8021C11.2732 14.8021 12.4942 14.2961 13.3942 13.3961C14.2942 12.4961 14.8002 11.2751 14.8002 10.0021C14.8002 8.71513 14.8002 7.29012 14.8002 6.00313C14.8002 4.73013 14.2942 3.50912 13.3942 2.60913C12.4942 1.70913 11.2732 1.20312 10.0002 1.20312C8.7132 1.20312 7.2872 1.20312 6.0002 1.20312C4.7272 1.20312 3.5062 1.70913 2.6062 2.60913C1.7062 3.50912 1.2002 4.73013 1.2002 6.00313V10.0021ZM2.8002 10.0021V6.00313C2.8002 5.15413 3.1372 4.34113 3.7372 3.74012C4.3372 3.14012 5.1512 2.80313 6.0002 2.80313H10.0002C10.8492 2.80313 11.6632 3.14012 12.2632 3.74012C12.8632 4.34113 13.2002 5.15413 13.2002 6.00313C13.2002 7.29012 13.2002 8.71513 13.2002 10.0021C13.2002 10.8511 12.8632 11.6651 12.2632 12.2651C11.6632 12.8651 10.8492 13.2021 10.0002 13.2021H6.0002C5.1512 13.2021 4.3372 12.8651 3.7372 12.2651C3.1372 11.6651 2.8002 10.8511 2.8002 10.0021ZM7.3932 7.82812C7.2302 7.78512 7.0612 7.76412 6.8902 7.76412C6.8842 7.76412 6.8772 7.76412 6.8712 7.76412C6.3122 7.76412 5.7752 7.98612 5.3792 8.38212C4.9842 8.77812 4.7612 9.31512 4.7612 9.87412V9.87712C4.7612 10.4361 4.9842 10.9731 5.3792 11.3691C5.7752 11.7641 6.3122 11.9871 6.8712 11.9871C6.8772 11.9871 6.8842 11.9871 6.8902 11.9871C7.4502 11.9871 7.9862 11.7641 8.3822 11.3691C8.7782 10.9731 9.0002 10.4361 9.0002 9.87712V9.87412L8.9922 9.70712L8.9932 9.67513V5.97112C8.9932 5.89412 9.0552 5.83112 9.1322 5.83012L10.7722 5.80813C11.2142 5.80212 11.5672 5.43813 11.5612 4.99712C11.5552 4.55512 11.1922 4.20212 10.7512 4.20812C10.7512 4.20812 9.8462 4.22012 9.1112 4.23012C8.1582 4.24312 7.3932 5.01912 7.3932 5.97112V7.82812Z" fill="black"/>
</svg>
