<svg width="24" height="24" viewBox="0 0 24 24" fill="none" xmlns="http://www.w3.org/2000/svg">
<path fill-rule="evenodd" clip-rule="evenodd" d="M15 13.3665C14.275 12.8795 13.403 12.5953 12.464 12.5953C12.455 12.5953 12.445 12.5953 12.436 12.5953C9.92198 12.5953 7.88398 14.6333 7.88398 17.1473C7.88398 19.6613 9.92198 21.6997 12.436 21.6997C12.445 21.6997 12.455 21.6997 12.464 21.6997C14.978 21.6997 17.016 19.6617 17.016 17.1477C17.016 17.0175 17.01 16.8881 17 16.7609V6C17 5.4477 17.447 5 18 5H21.665C22.217 5 22.665 4.5519 22.665 4C22.665 3.4481 22.217 3 21.665 3H18C16.343 3 15 4.3431 15 6V13.3665ZM15 16.8584C14.856 15.585 13.776 14.5953 12.464 14.5953C12.455 14.5953 12.445 14.5953 12.436 14.5953C11.027 14.5953 9.88398 15.7379 9.88398 17.1473C9.88398 18.5568 11.027 19.6997 12.436 19.6997C12.445 19.6997 12.455 19.6997 12.464 19.6997C13.812 19.6997 14.917 18.6535 15.01 17.3283C15.003 17.2822 15 17.2351 15 17.1873V16.8584ZM11.66 9.5774C11.66 9.5774 10.3 8.3482 8.50798 8.3709C7.54598 8.383 6.83198 8.7808 6.17198 9.2953C5.59098 9.7475 5.10398 10.3855 4.19798 10.4064C2.97098 10.4347 2.38298 9.687 2.38298 9.687C2.06398 9.237 1.43898 9.1309 0.988979 9.4503C0.538979 9.7697 0.432978 10.3945 0.751978 10.8446C0.751978 10.8446 1.84098 12.4614 4.24398 12.4059C5.25598 12.3825 5.99498 11.9781 6.65698 11.4709C6.95398 11.2433 7.23298 10.994 7.52798 10.7764C7.81598 10.5642 8.11998 10.3759 8.53298 10.3707C9.54798 10.3579 10.317 11.0589 10.317 11.0589C10.725 11.4296 11.358 11.3988 11.729 10.9899C12.1 10.5811 12.069 9.9482 11.66 9.5774ZM11.66 4.3053C11.66 4.3053 10.3 3.0761 8.50798 3.0987C7.54598 3.1109 6.83198 3.5087 6.17198 4.0232C5.59098 4.4753 5.10398 5.1134 4.19798 5.1343C2.97098 5.1626 2.38298 4.4149 2.38298 4.4149C2.06398 3.9648 1.43898 3.8588 0.988979 4.1782C0.538979 4.4976 0.432978 5.1224 0.751978 5.5724C0.751978 5.5724 1.84098 7.1892 4.24398 7.1338C5.25598 7.1104 5.99498 6.706 6.65698 6.1987C6.95398 5.9711 7.23298 5.7218 7.52798 5.5042C7.81598 5.2921 8.11998 5.1038 8.53298 5.0986C9.54798 5.0858 10.317 5.7867 10.317 5.7867C10.725 6.1575 11.358 6.1266 11.729 5.7178C12.1 5.309 12.069 4.676 11.66 4.3053Z" fill="black"/>
</svg>
