<svg width="12" height="12" viewBox="0 0 12 12" fill="none" xmlns="http://www.w3.org/2000/svg">
<path fill-rule="evenodd" clip-rule="evenodd" d="M3.68757 6.62428C3.38847 6.50228 3.06137 6.43508 2.71857 6.43508H2.70467C1.28757 6.43508 0.138772 7.58388 0.138672 9.00108C0.138772 10.4182 1.28757 11.5673 2.70467 11.5673H2.71857C4.13277 11.5673 5.27977 10.4233 5.28457 9.01028C5.28647 8.98748 5.28757 8.96438 5.28757 8.94098V3.42308C5.28747 3.08118 5.53437 2.78938 5.87147 2.73268L8.95087 2.21518C9.15397 2.18098 9.36177 2.23808 9.51897 2.37108C9.67617 2.50408 9.76687 2.69948 9.76687 2.90538V5.66248C9.46537 5.53858 9.13497 5.47018 8.78877 5.47018H8.78637C7.36367 5.47018 6.21037 6.62358 6.21037 8.04628V8.06068C6.21037 9.48338 7.36367 10.6367 8.78637 10.6367H8.78877C10.2114 10.6367 11.3647 9.48338 11.3647 8.06068L11.3669 7.89738C11.3669 7.89738 11.3669 4.90988 11.3669 2.90548C11.3669 2.22878 11.069 1.58648 10.5524 1.14948C10.0358 0.712482 9.35297 0.525182 8.68567 0.637282C7.70147 0.802682 6.49547 1.00538 5.60627 1.15488C4.49867 1.34098 3.68747 2.29988 3.68757 3.42308V6.62428ZM2.70467 8.03508H2.71857C3.25207 8.03508 3.68457 8.46758 3.68457 9.00098C3.68457 9.53448 3.25207 9.96718 2.71857 9.96728H2.70477C2.17117 9.96718 1.73877 9.53478 1.73867 9.00128C1.73877 8.46778 2.17117 8.03508 2.70467 8.03508ZM8.78627 7.07018H8.78867C9.32777 7.07028 9.76467 7.50718 9.76467 8.04618V8.06068C9.76467 8.59968 9.32777 9.03668 8.78877 9.03668H8.78637C8.24727 9.03668 7.81037 8.59968 7.81037 8.06068V8.04618C7.81037 7.50718 8.24727 7.07028 8.78627 7.07018Z" fill="black"/>
</svg>
