<svg width="16" height="16" viewBox="0 0 16 16" fill="none" xmlns="http://www.w3.org/2000/svg">
<path fill-rule="evenodd" clip-rule="evenodd" d="M3.6302 12.3939C2.5002 11.2709 1.8002 9.71588 1.8002 7.99788C1.8002 6.27988 2.5002 4.72488 3.6302 3.60188C3.9432 3.28988 3.9452 2.78388 3.6332 2.46988C3.3222 2.15688 2.8152 2.15588 2.5022 2.46688C1.0802 3.87988 0.200195 5.83688 0.200195 7.99788C0.200195 10.1589 1.0802 12.1159 2.5022 13.5289C2.8152 13.8399 3.3222 13.8389 3.6332 13.5259C3.9452 13.2119 3.9432 12.7059 3.6302 12.3939ZM12.4062 3.63788C13.5152 4.75788 14.2002 6.29888 14.2002 7.99788C14.2002 9.69088 13.5202 11.2249 12.4192 12.3449C12.1102 12.6589 12.1142 13.1659 12.4282 13.4759C12.7432 13.7859 13.2502 13.7819 13.5602 13.4669C14.9452 12.0589 15.8002 10.1269 15.8002 7.99788C15.8002 5.85988 14.9382 3.92188 13.5432 2.51288C13.2332 2.19888 12.7262 2.19588 12.4122 2.50688C12.0982 2.81688 12.0952 3.32388 12.4062 3.63788ZM5.7392 10.3069C5.1392 9.71988 4.7672 8.90188 4.7672 7.99788C4.7672 7.09888 5.1352 6.28488 5.7282 5.69888C6.0422 5.38888 6.0452 4.88188 5.7352 4.56788C5.4252 4.25288 4.9182 4.24988 4.6042 4.56088C3.7172 5.43688 3.1672 6.65388 3.1672 7.99788C3.1672 9.34988 3.7232 10.5729 4.6192 11.4499C4.9352 11.7589 5.4422 11.7539 5.7512 11.4389C6.0592 11.1229 6.0542 10.6159 5.7392 10.3069ZM10.2992 5.72588C10.8762 6.30988 11.2332 7.11288 11.2332 7.99788C11.2332 8.87588 10.8822 9.67288 10.3132 10.2559C10.0042 10.5719 10.0102 11.0789 10.3262 11.3869C10.6422 11.6959 11.1492 11.6889 11.4582 11.3739C12.3082 10.5019 12.8332 9.31088 12.8332 7.99788C12.8332 6.67488 12.3002 5.47488 11.4372 4.60188C11.1272 4.28788 10.6202 4.28488 10.3062 4.59488C9.9922 4.90488 9.9892 5.41188 10.2992 5.72588ZM8.0002 6.25988C8.9592 6.25988 9.7382 7.03888 9.7382 7.99788C9.7382 8.95688 8.9592 9.73588 8.0002 9.73588C7.04119 9.73588 6.2622 8.95688 6.2622 7.99788C6.2622 7.03888 7.04119 6.25988 8.0002 6.25988Z" fill="black"/>
</svg>
