<svg width="24" height="24" viewBox="0 0 24 24" fill="none" xmlns="http://www.w3.org/2000/svg">
<path fill-rule="evenodd" clip-rule="evenodd" d="M10.7681 3.075C6.78 3.6164 3.6195 6.7789 3.0811 10.7681H2C1.4477 10.7681 1 11.2158 1 11.7681C1 11.921 1 12.079 1 12.2319C1 12.7842 1.4477 13.2319 2 13.2319H3.0868C3.6415 17.202 6.7937 20.3443 10.7681 20.8839V22C10.7681 22.5523 11.2158 23 11.7681 23C11.921 23 12.079 23 12.2319 23C12.7842 23 13.2319 22.5523 13.2319 22V20.8802C17.1938 20.3299 20.3329 17.1928 20.8863 13.2319H22C22.5523 13.2319 23 12.7842 23 12.2319C23 12.079 23 11.921 23 11.7681C23 11.2158 22.5523 10.7681 22 10.7681H20.8919C20.3549 6.7882 17.2076 3.631 13.2319 3.0788V2C13.2319 1.4477 12.7842 1 12.2319 1C12.079 1 11.921 1 11.7681 1C11.2158 1 10.7681 1.4477 10.7681 2V3.075ZM11.9865 4.993C15.8425 4.993 18.973 8.1235 18.973 11.9795C18.973 15.8355 15.8425 18.966 11.9865 18.966C8.1306 18.966 5 15.8355 5 11.9795C5 8.1235 8.1306 4.993 11.9865 4.993ZM12 9.8C13.2142 9.8 14.2 10.7858 14.2 12C14.2 13.2142 13.2142 14.2 12 14.2C10.7858 14.2 9.8 13.2142 9.8 12C9.8 10.7858 10.7858 9.8 12 9.8Z" fill="black"/>
</svg>
