<svg width="24" height="24" viewBox="0 0 24 24" fill="none" xmlns="http://www.w3.org/2000/svg">
<path fill-rule="evenodd" clip-rule="evenodd" d="M1.15039 12.0004C1.15039 6.01182 6.01188 1.15039 12.0004 1.15039C17.9889 1.15039 22.8504 6.01182 22.8504 12.0004C22.8504 17.989 17.9889 22.8504 12.0004 22.8504C6.01188 22.8504 1.15039 17.989 1.15039 12.0004ZM21.1504 12.0004C21.1504 10.9338 20.9675 9.90966 20.6313 8.95751C20.3941 8.28543 20.0805 7.64925 19.701 7.05939C18.9718 5.92604 17.9993 4.96374 16.8576 4.24655C16.2615 3.87209 15.6193 3.56446 14.9414 3.33418C14.0182 3.02053 13.029 2.85039 12.0004 2.85039C6.95076 2.85039 2.85039 6.9507 2.85039 12.0004C2.85039 17.0501 6.95076 21.1504 12.0004 21.1504C17.05 21.1504 21.1504 17.0501 21.1504 12.0004Z" fill="black"/>
<path d="M20.6313 8.95751C20.3941 8.28543 20.0805 7.64925 19.701 7.05939L16.6009 10.1598L18.015 11.5738C18.015 11.5738 17.7547 11.8338 17.3537 12.2347C17.3683 12.2207 17.3828 12.2065 17.3971 12.1921L20.6313 8.95751Z" fill="black"/>
<path d="M13.1541 7.94941L13.7723 7.33132L12.358 5.91699L11.7401 6.53506C11.1537 7.12114 10.8242 7.91655 10.8242 8.74593C10.8242 9.57529 11.1537 10.3706 11.7403 10.9569L12.9751 12.1919L13.126 12.3331C13.6946 12.8309 14.4262 13.1076 15.1862 13.1076C15.9951 13.1076 16.7717 12.7942 17.3537 12.2347L18.015 11.5738L16.6009 10.1598L15.9831 10.7778L15.8881 10.8625C15.6897 11.0204 15.4424 11.1076 15.1862 11.1076C14.8873 11.1076 14.6006 10.9889 14.3891 10.7775L13.1543 9.54252L13.0695 9.44753C12.9114 9.24909 12.8242 9.00205 12.8242 8.74593C12.8242 8.44707 12.9429 8.16055 13.1541 7.94941Z" fill="black"/>
<path d="M13.1541 7.94941C12.9429 8.16055 12.8242 8.44707 12.8242 8.74593C12.8242 9.00205 12.9114 9.24909 13.0695 9.44753L13.1543 9.54252L14.3891 10.7775C14.6006 10.9889 14.8873 11.1076 15.1862 11.1076C15.4424 11.1076 15.6897 11.0204 15.8881 10.8625L15.9831 10.7778L16.6009 10.1598L13.7723 7.33132L13.1541 7.94941Z" fill="black"/>
<path d="M14.9414 3.33418L12.358 5.91699L13.7723 7.33132L16.8576 4.24655C16.2615 3.87209 15.6193 3.56446 14.9414 3.33418Z" fill="black"/>
<path d="M15.1862 13.1076C14.4262 13.1076 13.6946 12.8309 13.126 12.3331L12.9751 12.1919L11.7403 10.9569C11.1537 10.3706 10.8242 9.57529 10.8242 8.74593C10.8242 7.91655 11.1537 7.12114 11.7401 6.53506L12.358 5.91699C12.358 5.91699 11.345 6.92929 10.236 8.03829C8.67395 9.60039 8.67395 12.133 10.236 13.6951L10.238 13.6966C11.799 15.2579 14.33 15.2579 15.892 13.6965C16.4391 13.1491 16.9632 12.6251 17.3537 12.2347C16.7717 12.7942 15.9951 13.1076 15.1862 13.1076Z" fill="black"/>
<path d="M6.59664 8.18403C6.12664 7.71413 6.12664 6.95123 6.59664 6.48133C7.06664 6.01143 7.82964 6.01143 8.29964 6.48133C8.76964 6.95123 8.76964 7.71413 8.29964 8.18403C7.82964 8.65393 7.06664 8.65393 6.59664 8.18403Z" fill="black"/>
<path d="M5.15133 12.4175C4.68133 11.9476 4.68133 11.1846 5.15133 10.7147C5.62133 10.2448 6.38433 10.2448 6.85433 10.7147C7.32333 11.1846 7.32333 11.9476 6.85433 12.4175C6.38433 12.8874 5.62133 12.8874 5.15133 12.4175Z" fill="black"/>
<path d="M6.76889 17.1221C6.23589 16.5894 6.23589 15.7243 6.76889 15.1915C7.30189 14.6588 8.16689 14.6588 8.69989 15.1915C9.23289 15.7243 9.23289 16.5894 8.69989 17.1221C8.16689 17.6549 7.30189 17.6549 6.76889 17.1221Z" fill="black"/>
<path d="M11.5439 18.8101C11.0739 18.3402 11.0739 17.5772 11.5439 17.1073C12.0139 16.6374 12.7769 16.6374 13.2459 17.1073C13.7159 17.5772 13.7159 18.3402 13.2459 18.8101C12.7769 19.28 12.0139 19.28 11.5439 18.8101Z" fill="black"/>
<path d="M15.8222 17.4086C15.3522 16.9387 15.3522 16.1757 15.8222 15.7059C16.2922 15.236 17.0552 15.236 17.5242 15.7059C17.9942 16.1757 17.9942 16.9387 17.5242 17.4086C17.0552 17.8785 16.2922 17.8785 15.8222 17.4086Z" fill="black"/>
</svg>
