<svg width="24" height="24" viewBox="0 0 24 24" fill="none" xmlns="http://www.w3.org/2000/svg">
<path fill-rule="evenodd" clip-rule="evenodd" d="M10.5401 1.81813L9.29005 3.36812L7.13005 2.78813C6.60005 2.63813 6.04005 2.74813 5.60005 3.06813C5.16005 3.38812 4.89005 3.88812 4.86005 4.42812L4.75005 6.65812L2.89005 7.36812C2.33005 7.58812 1.89005 8.04812 1.71005 8.61812C1.52005 9.19812 1.60005 9.82812 1.93005 10.3281L3.02005 11.9981L1.93005 13.6681C1.60005 14.1681 1.52005 14.7981 1.71005 15.3781C1.89005 15.9481 2.33005 16.4081 2.89005 16.6281L4.75005 17.3381L4.85005 19.3181C4.88005 19.9181 5.18005 20.4781 5.67005 20.8381C6.16005 21.1881 6.79005 21.3081 7.37005 21.1481L9.29005 20.6281L10.5401 22.1781C10.9201 22.6481 11.4901 22.9181 12.0901 22.9181C12.7001 22.9181 13.2701 22.6481 13.6501 22.1781L14.9001 20.6281L16.8201 21.1481C17.4001 21.3081 18.0301 21.1881 18.5101 20.8381C19.0001 20.4781 19.3001 19.9181 19.3401 19.3181L19.4401 17.3381L21.3001 16.6281C21.8601 16.4081 22.3001 15.9481 22.4801 15.3781C22.6701 14.7981 22.5901 14.1681 22.2601 13.6681L21.1701 11.9981L22.2601 10.3281C22.5901 9.82812 22.6701 9.19812 22.4801 8.61812C22.3001 8.04812 21.8601 7.58812 21.3001 7.36812L19.4401 6.65812L19.3401 4.67812C19.3001 4.07812 19.0001 3.51813 18.5101 3.15812C18.0301 2.80812 17.4001 2.68813 16.8201 2.84812L14.9001 3.36812L13.6501 1.81813C13.2701 1.34813 12.7001 1.07812 12.0901 1.07812C11.4901 1.07812 10.9201 1.34813 10.5401 1.81813ZM17.5101 14.3481C17.5801 14.5481 17.6501 14.7581 17.8401 14.8781C17.9601 14.9581 18.1201 15.0181 18.3001 15.0181C18.4801 15.0181 18.6501 14.9581 18.7701 14.8781C18.9501 14.7581 19.0401 14.5681 19.1001 14.3481L20.0701 10.8481C20.1501 10.5781 20.1701 10.4881 20.1401 10.3481C20.0801 10.1181 19.7901 9.92813 19.4701 9.92813C19.2901 9.92813 19.1301 9.99813 19.0301 10.0981C18.9201 10.2081 18.8901 10.2981 18.8201 10.5681L18.2501 12.6181L17.4901 10.4181C17.4301 10.2381 17.3701 10.1481 17.2801 10.0681C17.1701 9.96813 17.0301 9.92813 16.8401 9.92813C16.6401 9.92813 16.5001 9.96813 16.3901 10.0681C16.3001 10.1481 16.2401 10.2381 16.1801 10.4181L15.4201 12.6181L14.8501 10.5681C14.7801 10.2981 14.7501 10.2081 14.6401 10.0981C14.5401 9.99813 14.3801 9.92813 14.2001 9.92813C13.8801 9.92813 13.5901 10.1181 13.5301 10.3481C13.5001 10.4881 13.5201 10.5781 13.6001 10.8481L14.5801 14.3481C14.6401 14.5681 14.7201 14.7581 14.9001 14.8781C15.0301 14.9581 15.1901 15.0181 15.3701 15.0181C15.5601 15.0181 15.7101 14.9581 15.8301 14.8781C16.0201 14.7581 16.0901 14.5481 16.1601 14.3481L16.8401 12.3981L17.5101 14.3481ZM9.02005 14.2481V10.7681C9.02005 10.4781 9.02005 10.3781 8.94005 10.2381C8.84005 10.0581 8.61005 9.92813 8.34005 9.92813C8.06005 9.92813 7.83005 10.0581 7.74005 10.2381C7.66005 10.3781 7.65005 10.4781 7.65005 10.7681V12.4881L6.18005 10.5181C5.87005 10.1081 5.68005 9.92813 5.37005 9.92813C5.16005 9.92813 5.00005 9.99813 4.86005 10.1181C4.70005 10.2581 4.68005 10.4481 4.68005 10.6881V14.1781C4.68005 14.4681 4.68005 14.5581 4.76005 14.7081C4.86005 14.8881 5.09005 15.0181 5.36005 15.0181C5.64005 15.0181 5.87005 14.8881 5.96005 14.7081C6.04005 14.5581 6.05005 14.4681 6.05005 14.1781V12.4581L7.52005 14.4281C7.83005 14.8381 8.02005 15.0181 8.33005 15.0181C8.54005 15.0181 8.70005 14.9481 8.84005 14.8281C9.00005 14.6781 9.02005 14.4881 9.02005 14.2481ZM12.5201 14.9881C12.7901 14.9881 12.8901 14.9781 13.0301 14.9181C13.1901 14.8481 13.3101 14.6581 13.3101 14.4381C13.3101 14.2181 13.1901 14.0281 13.0301 13.9481C12.8901 13.8881 12.7901 13.8881 12.5201 13.8881H10.9501V12.9981H12.1801C12.4501 12.9981 12.5601 12.9981 12.6901 12.9381C12.8501 12.8581 12.9701 12.6681 12.9701 12.4481C12.9701 12.2381 12.8501 12.0381 12.6901 11.9681C12.5601 11.9081 12.4501 11.8981 12.1801 11.8981H10.9501V11.0581H12.5201C12.7901 11.0581 12.8901 11.0581 13.0301 10.9981C13.1901 10.9181 13.3101 10.7281 13.3101 10.5081C13.3101 10.2881 13.1901 10.0981 13.0301 10.0281C12.8901 9.96812 12.7901 9.95813 12.5201 9.95813H10.4301C10.2301 9.95813 9.99005 9.95813 9.81005 10.1381C9.62005 10.3081 9.62005 10.5381 9.62005 10.7181V14.2281C9.62005 14.4081 9.62005 14.6381 9.81005 14.8081C9.99005 14.9881 10.2301 14.9881 10.4301 14.9881H12.5201Z" fill="black"/>
</svg>
