<svg width="16" height="16" viewBox="0 0 16 16" fill="none" xmlns="http://www.w3.org/2000/svg">
<path fill-rule="evenodd" clip-rule="evenodd" d="M6.14712 13.1693L5.36112 12.4093C4.77712 11.8493 3.86412 11.8493 3.27212 12.3993L2.43712 13.1693L1.48312 12.2193C1.15212 11.8893 0.618116 11.8993 0.291116 12.2293C-0.0358842 12.5593 -0.0328842 13.0993 0.299116 13.4293C0.299116 13.4293 0.911116 14.0393 1.36012 14.4893C1.94012 15.0693 2.86912 15.0793 3.46912 14.5293L4.30612 13.7493L5.09412 14.4993C5.68612 15.0693 6.61612 15.0693 7.20512 14.4993L8.01112 13.7193L8.85012 14.4993C9.43012 15.0293 10.3191 15.0393 10.9051 14.5093L11.7451 13.7393L12.5681 14.5293C13.1661 15.1093 14.1081 15.0993 14.6961 14.5093L15.7181 13.4893C16.0491 13.1593 16.0521 12.6293 15.7241 12.2893C15.3971 11.9593 14.8631 11.9593 14.5321 12.2893L13.6191 13.1993L12.8021 12.4093C12.2241 11.8593 11.3201 11.8393 10.7271 12.3793L9.88412 13.1493L9.04212 12.3693C8.44812 11.8193 7.53312 11.8293 6.95112 12.3893L6.14712 13.1693ZM4.54612 10.0593V6.09929C4.54612 5.77929 4.54212 5.66929 4.46212 5.49929C4.36712 5.29929 4.14412 5.15929 3.87812 5.15929C3.61212 5.15929 3.38912 5.29929 3.29412 5.49929C3.21412 5.66929 3.21012 5.77929 3.21012 6.09929V8.05929L1.77212 5.81929C1.47712 5.35929 1.29112 5.15929 0.987116 5.15929C0.782116 5.15929 0.623116 5.22929 0.486116 5.36929C0.335116 5.52929 0.312116 5.74929 0.312116 6.01929V9.97929C0.312116 10.2993 0.316116 10.4093 0.395116 10.5793C0.490116 10.7793 0.714116 10.9293 0.980116 10.9293C1.24512 10.9293 1.46912 10.7793 1.56412 10.5793C1.64312 10.4093 1.64712 10.2993 1.64712 9.97929V8.02929L3.08512 10.2593C3.38112 10.7293 3.56712 10.9293 3.87012 10.9293C4.07512 10.9293 4.23512 10.8493 4.37112 10.7093C4.52312 10.5493 4.54612 10.3293 4.54612 10.0593ZM13.2371 10.1693C13.3031 10.3893 13.3731 10.6293 13.5551 10.7693C13.6751 10.8693 13.8261 10.9293 14.0091 10.9293C14.1831 10.9293 14.3421 10.8693 14.4621 10.7693C14.6411 10.6293 14.7221 10.4193 14.7801 10.1693L15.7341 6.19929C15.8081 5.88929 15.8281 5.78929 15.7971 5.62929C15.7421 5.35929 15.4591 5.15929 15.1491 5.15929C14.9701 5.15929 14.8151 5.22929 14.7141 5.34929C14.6141 5.46929 14.5831 5.57929 14.5091 5.87929L13.9541 8.19929L13.2171 5.70929C13.1551 5.49929 13.1011 5.40929 13.0081 5.30929C12.9031 5.19929 12.7681 5.15929 12.5781 5.15929C12.3871 5.15929 12.2521 5.19929 12.1471 5.30929C12.0541 5.40929 12.0001 5.49929 11.9381 5.70929L11.2011 8.19929L10.6461 5.87929C10.5721 5.57929 10.5411 5.46929 10.4411 5.34929C10.3401 5.22929 10.1851 5.15929 10.0061 5.15929C9.69612 5.15929 9.41312 5.35929 9.35912 5.62929C9.32812 5.78929 9.34712 5.88929 9.42112 6.19929L10.3751 10.1693C10.4331 10.4193 10.5141 10.6293 10.6931 10.7693C10.8131 10.8693 10.9721 10.9293 11.1461 10.9293C11.3291 10.9293 11.4801 10.8693 11.6001 10.7693C11.7821 10.6293 11.8521 10.3893 11.9181 10.1693L12.5781 7.95929L13.2371 10.1693ZM8.18112 10.8893C8.44512 10.8893 8.54412 10.8893 8.67312 10.8193C8.83512 10.7293 8.95212 10.5193 8.95212 10.2693C8.95212 10.0193 8.83512 9.79929 8.67312 9.71929C8.54412 9.64929 8.44512 9.63929 8.18112 9.63929H6.64612V8.63929H7.85012C8.11512 8.63929 8.21412 8.63929 8.34212 8.56929C8.50412 8.47929 8.62212 8.26929 8.62212 8.01929C8.62212 7.76929 8.50412 7.54929 8.34212 7.46929C8.21412 7.39929 8.11512 7.38929 7.85012 7.38929H6.64612V6.43929H8.18112C8.44512 6.43929 8.54412 6.42929 8.67312 6.35929C8.83512 6.27929 8.95212 6.05929 8.95212 5.81929C8.95212 5.56929 8.83512 5.34929 8.67312 5.26929C8.54412 5.19929 8.44512 5.18929 8.18112 5.18929H6.14312C5.95212 5.18929 5.71312 5.18929 5.53312 5.38929C5.35312 5.57929 5.35312 5.83929 5.35312 6.04929V10.0293C5.35312 10.2393 5.35312 10.4993 5.53312 10.6993C5.71312 10.8893 5.95212 10.8893 6.14312 10.8893H8.18112ZM2.39512 2.67929L3.21112 3.46929C3.78912 4.01929 4.69212 4.02929 5.28512 3.49929L6.12712 2.72929L6.96912 3.50929C7.56212 4.05929 8.47612 4.04929 9.05712 3.48929L9.86112 2.70929L10.6471 3.46929C11.2291 4.01929 12.1421 4.02929 12.7331 3.47929L13.5681 2.70929L14.5211 3.64929C14.8521 3.97929 15.3851 3.97929 15.7121 3.64929C16.0391 3.30929 16.0351 2.76929 15.7041 2.44929C15.7041 2.44929 15.0931 1.83929 14.6441 1.38929C14.0641 0.809292 13.1361 0.789292 12.5371 1.34929L11.7001 2.12929L10.9121 1.36929C10.3211 0.809292 9.39312 0.809292 8.80412 1.37929L7.99912 2.15929L7.16012 1.37929C6.58112 0.839292 5.69212 0.839292 5.10712 1.36929L4.26712 2.12929L3.44512 1.33929C2.84712 0.769292 1.90612 0.779292 1.31912 1.35929L0.298116 2.37929C-0.0328842 2.70929 -0.0358842 3.24929 0.291116 3.58929C0.618116 3.91929 1.15212 3.91929 1.48212 3.58929L2.39512 2.67929Z" fill="black"/>
</svg>
