<svg width="24" height="24" viewBox="0 0 24 24" fill="none" xmlns="http://www.w3.org/2000/svg">
<path fill-rule="evenodd" clip-rule="evenodd" d="M22.0101 18.9515L20.8701 20.1215C20.7101 20.2815 20.4901 20.3815 20.2601 20.3815C20.0301 20.3815 19.8001 20.2915 19.6401 20.1315C19.5201 20.0115 19.4001 19.8915 19.2801 19.7815C18.3001 18.8015 16.7301 18.7815 15.7201 19.7215L15.3301 20.0915C14.9901 20.4115 14.4601 20.4015 14.1301 20.0915C14.0001 19.9615 13.8701 19.8315 13.7401 19.7115C12.7301 18.7515 11.1401 18.7715 10.1501 19.7515L9.81008 20.0915C9.47008 20.4215 8.93008 20.4315 8.59008 20.0915L8.28008 19.7815C7.29008 18.8015 5.70008 18.7915 4.69008 19.7615L4.32008 20.1115C3.98008 20.4415 3.43008 20.4315 3.10008 20.0915C2.56008 19.5315 2.04008 19.0015 2.04008 19.0015C1.71008 18.6715 1.17008 18.6615 0.840076 18.9915C0.500076 19.3215 0.500076 19.8515 0.820076 20.1915C0.820076 20.1915 1.34008 20.7215 1.88008 21.2715C2.86008 22.2815 4.48008 22.3115 5.50008 21.3415L5.87008 20.9815C6.21008 20.6615 6.75008 20.6615 7.08008 20.9915L7.39008 21.3015C8.39008 22.2915 10.0101 22.2915 11.0101 21.2915L11.3501 20.9515C11.6801 20.6215 12.2201 20.6115 12.5601 20.9415C12.7001 21.0615 12.8301 21.1915 12.9601 21.3215C13.9401 22.2615 15.4901 22.2615 16.4901 21.3315L16.8801 20.9715C17.2201 20.6515 17.7501 20.6615 18.0801 20.9815C18.2001 21.1015 18.3201 21.2215 18.4401 21.3415C18.9301 21.8215 19.5901 22.0915 20.2701 22.0815C20.9601 22.0715 21.6101 21.7915 22.0901 21.3015L23.2201 20.1415C23.5501 19.8015 23.5401 19.2615 23.2101 18.9415C22.8701 18.6115 22.3301 18.6215 22.0101 18.9515ZM6.90008 14.9415V10.0915C6.90008 9.70152 6.90008 9.56152 6.79008 9.35152C6.66008 9.11152 6.37008 8.93152 6.01008 8.93152C5.66008 8.93152 5.36008 9.11152 5.24008 9.35152C5.13008 9.56152 5.13008 9.70152 5.13008 10.0915V12.4915L3.21008 9.75152C2.82008 9.18152 2.57008 8.93152 2.17008 8.93152C1.90008 8.93152 1.68008 9.02152 1.50008 9.20152C1.30008 9.39152 1.27008 9.66152 1.27008 9.99152V14.8415C1.27008 15.2315 1.28008 15.3715 1.38008 15.5815C1.51008 15.8215 1.81008 16.0015 2.16008 16.0015C2.51008 16.0015 2.81008 15.8215 2.94008 15.5815C3.04008 15.3715 3.05008 15.2315 3.05008 14.8415V12.4515L4.96008 15.1915C5.35008 15.7515 5.60008 16.0015 6.00008 16.0015C6.28008 16.0015 6.49008 15.9115 6.67008 15.7315C6.87008 15.5415 6.90008 15.2715 6.90008 14.9415ZM18.4601 15.0715C18.5501 15.3515 18.6401 15.6415 18.8801 15.8115C19.0401 15.9315 19.2401 16.0015 19.4801 16.0015C19.7201 16.0015 19.9301 15.9315 20.0901 15.8115C20.3201 15.6415 20.4301 15.3815 20.5101 15.0715L21.7801 10.2115C21.8801 9.84152 21.9001 9.70152 21.8601 9.51152C21.7901 9.19152 21.4101 8.93152 21.0001 8.93152C20.7601 8.93152 20.5601 9.02152 20.4201 9.17152C20.2901 9.32152 20.2501 9.45152 20.1501 9.82152L19.4101 12.6615L18.4301 9.61152C18.3501 9.36152 18.2801 9.24152 18.1501 9.12152C18.0101 8.99152 17.8301 8.93152 17.5801 8.93152C17.3301 8.93152 17.1501 8.99152 17.0101 9.12152C16.8801 9.24152 16.8101 9.36152 16.7301 9.61152L15.7501 12.6615L15.0101 9.82152C14.9101 9.45152 14.8701 9.32152 14.7401 9.17152C14.6101 9.02152 14.4001 8.93152 14.1601 8.93152C13.7501 8.93152 13.3701 9.19152 13.3001 9.51152C13.2601 9.70152 13.2801 9.84152 13.3801 10.2115L14.6501 15.0715C14.7301 15.3815 14.8401 15.6415 15.0701 15.8115C15.2301 15.9315 15.4501 16.0015 15.6801 16.0015C15.9201 16.0015 16.1201 15.9315 16.2801 15.8115C16.5201 15.6415 16.6201 15.3515 16.7001 15.0715L17.5801 12.3715L18.4601 15.0715ZM11.7301 15.9615C12.0901 15.9615 12.2201 15.9515 12.3901 15.8715C12.6001 15.7615 12.7601 15.5015 12.7601 15.2015C12.7601 14.8915 12.6001 14.6315 12.3901 14.5215C12.2201 14.4415 12.0901 14.4315 11.7301 14.4315H9.69008V13.2015H11.2901C11.6501 13.2015 11.7801 13.1915 11.9501 13.1115C12.1601 13.0115 12.3201 12.7415 12.3201 12.4415C12.3201 12.1315 12.1601 11.8715 11.9501 11.7715C11.7801 11.6815 11.6501 11.6715 11.2901 11.6715H9.69008V10.5115H11.7301C12.0901 10.5115 12.2201 10.5015 12.3901 10.4115C12.6001 10.3115 12.7601 10.0415 12.7601 9.74152C12.7601 9.44152 12.6001 9.17152 12.3901 9.07152C12.2201 8.99152 12.0901 8.98152 11.7301 8.98152H9.02008C8.77008 8.98152 8.45008 8.98152 8.21008 9.22152C7.97008 9.46152 7.97008 9.77152 7.97008 10.0315V14.9115C7.97008 15.1615 7.97008 15.4815 8.21008 15.7215C8.45008 15.9615 8.77008 15.9615 9.02008 15.9615H11.7301ZM2.14008 6.02152L3.14008 4.99152C3.30008 4.82152 3.52008 4.73152 3.75008 4.73152C3.99008 4.73152 4.21008 4.82152 4.37008 4.98152C4.49008 5.10152 4.61008 5.22152 4.73008 5.33152C5.71008 6.30152 7.28008 6.33152 8.29008 5.38152L8.68008 5.02152C9.02008 4.70152 9.55008 4.70152 9.88008 5.02152C10.0101 5.15152 10.1401 5.27152 10.2701 5.40152C11.2801 6.36152 12.8701 6.34152 13.8601 5.36152L14.2001 5.02152C14.5401 4.68152 15.0901 4.68152 15.4301 5.02152L15.7401 5.32152C16.7301 6.30152 18.3101 6.32152 19.3201 5.35152L19.6901 5.00152C20.0301 4.67152 20.5801 4.68152 20.9101 5.02152L21.9801 6.12152C22.3101 6.45152 22.8501 6.46152 23.1801 6.13152C23.5201 5.80152 23.5301 5.27152 23.2001 4.93152L22.1301 3.83152C21.1501 2.82152 19.5301 2.80152 18.5101 3.77152L18.1401 4.13152C17.8001 4.45152 17.2701 4.45152 16.9301 4.12152L16.6201 3.81152C15.6201 2.82152 14.0001 2.82152 13.0001 3.82152L12.6601 4.15152C12.3301 4.49152 11.7901 4.49152 11.4501 4.17152C11.3201 4.04152 11.1801 3.92152 11.0501 3.79152C10.0701 2.85152 8.52008 2.84152 7.52008 3.77152L7.13008 4.14152C6.79008 4.46152 6.26008 4.45152 5.93008 4.12152C5.81008 4.01152 5.69008 3.89152 5.57008 3.77152C5.08008 3.29152 4.42008 3.02152 3.74008 3.03152C3.05008 3.03152 2.40008 3.31152 1.92008 3.81152C1.40008 4.34152 0.920076 4.84152 0.920076 4.84152C0.590076 5.17152 0.600076 5.71152 0.930076 6.04152C1.27008 6.36152 1.81008 6.36152 2.14008 6.02152Z" fill="black"/>
</svg>
