<svg width="24" height="24" viewBox="0 0 24 24" fill="none" xmlns="http://www.w3.org/2000/svg">
<path d="M7.70801 18.5928C7.79238 18.8124 7.8809 19.0257 7.97363 19.2305C8.40179 20.1757 8.93744 21.0005 9.58203 21.6025C10.1176 22.1025 10.7715 22.484 11.5234 22.6016C8.71305 22.4781 6.18687 21.2693 4.35449 19.3848C5.26382 19.0582 6.40396 18.7837 7.70801 18.5928ZM16.3076 18.5928C17.6054 18.7827 18.7411 19.0555 19.6484 19.3799C17.8199 21.2624 15.3008 22.4734 12.4961 22.6016C13.2472 22.4835 13.9005 22.1021 14.4355 21.6025C15.0802 21.0004 15.6158 20.1757 16.0439 19.2305C16.1366 19.0259 16.2233 18.8122 16.3076 18.5928ZM12.0088 18.2949C12.7938 18.2949 13.5547 18.3239 14.2822 18.376C14.258 18.4323 14.2357 18.4892 14.2109 18.5439C13.8412 19.3603 13.426 19.9633 13.0156 20.3467C12.6085 20.7268 12.2679 20.8387 12.0088 20.8389C11.7496 20.8388 11.4092 20.7269 11.002 20.3467C10.5916 19.9634 10.1764 19.3604 9.80664 18.5439C9.78175 18.489 9.75769 18.4325 9.7334 18.376C10.4615 18.3238 11.2231 18.2949 12.0088 18.2949ZM6.62891 12.9902C6.68667 14.3018 6.85903 15.5499 7.12695 16.6846C5.54836 16.9344 4.15777 17.3058 3.06445 17.7705C2.15228 16.3698 1.5619 14.7422 1.39941 12.9902H6.62891ZM22.6016 12.9902C22.4393 14.7399 21.8495 16.3652 20.9395 17.7646C19.8481 17.3025 18.4621 16.9334 16.8896 16.6846C17.1576 15.5499 17.3299 14.3018 17.3877 12.9902H22.6016ZM15.4033 12.9902C15.344 14.2411 15.1734 15.4088 14.9189 16.4443C13.9857 16.3626 13.0095 16.3184 12.0088 16.3184C11.0078 16.3184 10.0311 16.3625 9.09766 16.4443C8.84322 15.4089 8.67361 14.2411 8.61426 12.9902H15.4033ZM3.1123 6.15723C4.20471 6.58678 5.59133 6.92974 7.16406 7.16016C6.87421 8.33687 6.68935 9.64063 6.62891 11.0137H1.39941C1.56459 9.23008 2.17211 7.57486 3.1123 6.15723ZM14.874 7.38379C15.153 8.46228 15.3406 9.69139 15.4033 11.0137H8.61426C8.67696 9.69143 8.86362 8.46226 9.14258 7.38379C10.0624 7.4578 11.0237 7.49805 12.0088 7.49805C12.9935 7.49803 13.9545 7.45775 14.874 7.38379ZM20.8916 6.16309C21.8296 7.57944 22.4366 9.23251 22.6016 11.0137H17.3877C17.3272 9.64062 17.1424 8.33688 16.8525 7.16016C18.4192 6.93069 19.8011 6.59025 20.8916 6.16309ZM12.0088 3.16602C12.268 3.16615 12.6084 3.27797 13.0156 3.6582C13.4241 4.03995 13.8376 4.6383 14.2061 5.44922C13.5016 5.49452 12.7665 5.52147 12.0088 5.52148C11.2508 5.52148 10.5154 5.49454 9.81055 5.44922C10.1791 4.63799 10.5933 4.03998 11.002 3.6582C11.4093 3.27789 11.7496 3.16604 12.0088 3.16602ZM11.5342 1.39941C10.7776 1.51497 10.1202 1.89891 9.58203 2.40137C8.93737 3.00339 8.40183 3.82819 7.97363 4.77344C7.90369 4.92788 7.83572 5.08701 7.77051 5.25C6.47977 5.07724 5.34602 4.83019 4.43359 4.53418C6.26152 2.6942 8.76042 1.5185 11.5342 1.39941ZM12.4854 1.40039C15.2528 1.52414 17.7444 2.70084 19.5684 4.53809C18.6581 4.83212 17.5294 5.07811 16.2451 5.25C16.18 5.08728 16.1138 4.92764 16.0439 4.77344C15.6158 3.82833 15.0801 3.00337 14.4355 2.40137C13.898 1.89944 13.2409 1.51645 12.4854 1.40039Z" fill="black"/>
</svg>
