<svg width="16" height="16" viewBox="0 0 16 16" fill="none" xmlns="http://www.w3.org/2000/svg">
<path d="M5.24902 12.9404C5.54146 13.5858 5.90747 14.1494 6.34766 14.5605C6.71621 14.9045 7.16801 15.1641 7.68652 15.2422C5.76204 15.1608 4.03168 14.3347 2.77734 13.0449C3.39855 12.8217 4.17753 12.6343 5.06836 12.5039C5.12598 12.6539 5.18568 12.8006 5.24902 12.9404ZM10.9424 12.5039C11.8288 12.6336 12.6048 12.8203 13.2246 13.042C11.9728 14.3305 10.2469 15.1576 8.32617 15.2422C8.84443 15.1639 9.29567 14.9044 9.66406 14.5605C10.1043 14.1494 10.4703 13.5859 10.7627 12.9404C10.826 12.8006 10.8848 12.6539 10.9424 12.5039ZM8.00586 12.3018C8.54187 12.3018 9.06184 12.3209 9.55859 12.3564C9.54212 12.3948 9.52666 12.4344 9.50977 12.4717C9.25721 13.029 8.97361 13.4414 8.69336 13.7031C8.41562 13.9622 8.18275 14.0389 8.00586 14.0391C7.829 14.039 7.59611 13.9622 7.31836 13.7031C7.03808 13.4414 6.75355 13.0291 6.50098 12.4717C6.48401 12.4342 6.46772 12.395 6.45117 12.3564C6.94846 12.3208 7.46921 12.3018 8.00586 12.3018ZM4.33105 8.67773C4.37055 9.57336 4.48791 10.4263 4.6709 11.2012C3.59283 11.3718 2.64229 11.6241 1.89551 11.9414C1.27286 10.9851 0.868914 9.87375 0.757812 8.67773H4.33105ZM15.2412 8.67773C15.1302 9.87279 14.7273 10.9827 14.1055 11.9385C13.3601 11.623 12.4134 11.3711 11.3398 11.2012C11.5229 10.4262 11.6412 9.57344 11.6807 8.67773H15.2412ZM10.3252 8.67773C10.2846 9.53204 10.167 10.3299 9.99316 11.0371C9.35602 10.9813 8.68909 10.9512 8.00586 10.9512C7.322 10.9512 6.65428 10.9812 6.0166 11.0371C5.84284 10.33 5.72711 9.53186 5.68652 8.67773H10.3252ZM1.92773 4.01074C2.67374 4.304 3.62148 4.53791 4.69531 4.69531C4.49746 5.49879 4.37234 6.38971 4.33105 7.32715H0.757812C0.870557 6.10926 1.28591 4.97888 1.92773 4.01074ZM9.96094 4.84766C10.1515 5.58434 10.2823 6.42393 10.3252 7.32715H5.68652C5.72936 6.42406 5.85829 5.58426 6.04883 4.84766C6.67672 4.89815 7.33343 4.92576 8.00586 4.92578C8.67746 4.92576 9.33377 4.89802 9.96094 4.84766ZM14.0742 4.01367C14.7148 4.9811 15.1286 6.1106 15.2412 7.32715H11.6807C11.6394 6.38967 11.5133 5.49881 11.3154 4.69531C12.3852 4.5386 13.3294 4.30528 14.0742 4.01367ZM8.00586 1.9668C8.18286 1.96696 8.41539 2.04323 8.69336 2.30273C8.97235 2.56351 9.25519 2.97262 9.50684 3.52637C9.02588 3.55728 8.52311 3.57518 8.00586 3.5752C7.48814 3.57518 6.98531 3.55733 6.50391 3.52637C6.75565 2.97233 7.03925 2.56355 7.31836 2.30273C7.59642 2.04318 7.82885 1.96689 8.00586 1.9668ZM7.69531 0.758789C7.17281 0.835257 6.7184 1.09817 6.34766 1.44434C5.90744 1.85555 5.54145 2.41895 5.24902 3.06445C5.2013 3.16984 5.15582 3.27942 5.11133 3.39062C4.22949 3.27261 3.45455 3.10261 2.83105 2.90039C4.08271 1.64064 5.79517 0.836904 7.69531 0.758789ZM8.31738 0.758789C10.2136 0.839985 11.9218 1.6451 13.1709 2.90332C12.5489 3.10429 11.7772 3.27318 10.8994 3.39062C10.855 3.27958 10.8103 3.1697 10.7627 3.06445C10.4703 2.41909 10.1041 1.85553 9.66406 1.44434C9.29353 1.09838 8.83952 0.835432 8.31738 0.758789Z" fill="black"/>
</svg>
