<svg width="16" height="16" viewBox="0 0 16 16" fill="none" xmlns="http://www.w3.org/2000/svg">
<path d="M8.03857 1.0249C8.14943 1.02493 8.25642 1.03954 8.36084 1.05908C12.0412 1.23642 14.9702 4.27623 14.9702 8.00049C14.97 11.7245 12.041 14.7636 8.36084 14.9409C8.25643 14.9605 8.14942 14.9741 8.03857 14.9741C7.92895 14.9741 7.82258 14.961 7.71924 14.9419C4.02103 14.784 1.07105 11.7375 1.0708 8.00049C1.0708 4.26326 4.02087 1.21602 7.71924 1.05811C7.82258 1.039 7.92894 1.0249 8.03857 1.0249ZM8.0376 11.1333C7.48968 11.1333 6.96257 11.158 6.46436 11.2007C6.56144 11.5754 6.67258 11.9196 6.79834 12.2251C7.01472 12.7507 7.25616 13.1335 7.49072 13.3745C7.64034 13.5282 7.77022 13.6084 7.87842 13.646C7.92575 13.6472 7.97339 13.6499 8.021 13.6499C8.08114 13.6499 8.141 13.6469 8.20068 13.645C8.3083 13.607 8.43717 13.5268 8.58545 13.3745C8.82001 13.1335 9.06146 12.7507 9.27783 12.2251C9.40356 11.9196 9.51377 11.5753 9.61084 11.2007C9.11269 11.158 8.58544 11.1333 8.0376 11.1333ZM5.1665 11.3647C4.63742 11.456 4.16182 11.5707 3.75439 11.7026C4.31502 12.3481 5.01923 12.8651 5.81787 13.2036C5.73937 13.0486 5.6651 12.8866 5.59619 12.7192C5.42816 12.311 5.28584 11.8556 5.1665 11.3647ZM10.9087 11.3657C10.7894 11.8561 10.6479 12.3113 10.48 12.7192C10.4141 12.8794 10.3427 13.0343 10.2681 13.1831C11.0516 12.8429 11.7422 12.3309 12.2935 11.6938C11.8922 11.5656 11.4259 11.455 10.9087 11.3657ZM2.40869 8.6499C2.48806 9.34282 2.69366 9.99687 3.00049 10.5903C3.54932 10.3836 4.20145 10.2134 4.92529 10.0874C4.86207 9.62607 4.81829 9.14495 4.79834 8.6499H2.40869ZM11.2778 8.6499C11.2579 9.145 11.2131 9.62603 11.1499 10.0874C11.8613 10.2112 12.5035 10.3777 13.0464 10.5796C13.3502 9.98897 13.5534 9.33865 13.6323 8.6499H11.2778ZM6.1001 8.6499C6.11943 9.0905 6.15892 9.51457 6.21436 9.91748C6.79761 9.86305 7.40955 9.8335 8.0376 9.8335C8.66557 9.8335 9.27765 9.86307 9.86084 9.91748C9.91629 9.51453 9.95673 9.09055 9.97607 8.6499H6.1001ZM12.9897 5.30908C12.4538 5.49138 11.823 5.64018 11.1265 5.75244C11.2024 6.26222 11.2556 6.79738 11.2778 7.3501H13.6323C13.5485 6.61814 13.326 5.9286 12.9897 5.30908ZM9.83545 5.90967C9.25995 5.95909 8.65655 5.98682 8.0376 5.98682C7.41857 5.98681 6.8153 5.95911 6.23975 5.90967C6.17085 6.36351 6.12222 6.84598 6.1001 7.3501H9.97607C9.95395 6.84592 9.90435 6.36355 9.83545 5.90967ZM3.05713 5.29932C2.71795 5.92137 2.49298 6.61427 2.40869 7.3501H4.79834C4.8206 6.79772 4.87386 6.26291 4.94971 5.75342C4.24042 5.63913 3.59941 5.48611 3.05713 5.29932ZM7.87842 2.35303C7.77015 2.39063 7.64048 2.47163 7.49072 2.62549C7.25614 2.86654 7.01473 3.24924 6.79834 3.7749C6.69186 4.0336 6.59361 4.31938 6.50732 4.62842C6.99293 4.66596 7.5055 4.68701 8.0376 4.68701C8.56961 4.68701 9.08233 4.66594 9.56787 4.62842C9.48161 4.31948 9.38428 4.03353 9.27783 3.7749C9.06145 3.24925 8.82003 2.86654 8.58545 2.62549C8.43702 2.473 8.30837 2.39202 8.20068 2.354C8.14101 2.35214 8.08113 2.3501 8.021 2.3501C7.97339 2.3501 7.92574 2.35186 7.87842 2.35303ZM5.81787 2.79541C5.06542 3.11429 4.3968 3.59215 3.85303 4.18604C4.24873 4.29939 4.70356 4.39796 5.20557 4.47705C5.31696 4.04644 5.44635 3.64486 5.59619 3.28076C5.6652 3.1131 5.73924 2.95065 5.81787 2.79541ZM10.2681 2.81592C10.3429 2.96498 10.414 3.12038 10.48 3.28076C10.6298 3.64479 10.7582 4.04653 10.8696 4.47705C11.3602 4.39977 11.8055 4.30298 12.1948 4.19287C11.6608 3.60766 11.0051 3.13587 10.2681 2.81592Z" fill="white"/>
<path d="M8.03857 1.0249C8.14943 1.02493 8.25642 1.03954 8.36084 1.05908C12.0412 1.23642 14.9702 4.27623 14.9702 8.00049C14.97 11.7245 12.041 14.7636 8.36084 14.9409C8.25643 14.9605 8.14942 14.9741 8.03857 14.9741C7.92895 14.9741 7.82258 14.961 7.71924 14.9419C4.02103 14.784 1.07105 11.7375 1.0708 8.00049C1.0708 4.26326 4.02087 1.21602 7.71924 1.05811C7.82258 1.039 7.92894 1.0249 8.03857 1.0249ZM8.0376 11.1333C7.48968 11.1333 6.96257 11.158 6.46436 11.2007C6.56144 11.5754 6.67258 11.9196 6.79834 12.2251C7.01472 12.7507 7.25616 13.1335 7.49072 13.3745C7.64034 13.5282 7.77022 13.6084 7.87842 13.646C7.92575 13.6472 7.97339 13.6499 8.021 13.6499C8.08114 13.6499 8.141 13.6469 8.20068 13.645C8.3083 13.607 8.43717 13.5268 8.58545 13.3745C8.82001 13.1335 9.06146 12.7507 9.27783 12.2251C9.40356 11.9196 9.51377 11.5753 9.61084 11.2007C9.11269 11.158 8.58544 11.1333 8.0376 11.1333ZM5.1665 11.3647C4.63742 11.456 4.16182 11.5707 3.75439 11.7026C4.31502 12.3481 5.01923 12.8651 5.81787 13.2036C5.73937 13.0486 5.6651 12.8866 5.59619 12.7192C5.42816 12.311 5.28584 11.8556 5.1665 11.3647ZM10.9087 11.3657C10.7894 11.8561 10.6479 12.3113 10.48 12.7192C10.4141 12.8794 10.3427 13.0343 10.2681 13.1831C11.0516 12.8429 11.7422 12.3309 12.2935 11.6938C11.8922 11.5656 11.4259 11.455 10.9087 11.3657ZM2.40869 8.6499C2.48806 9.34282 2.69366 9.99687 3.00049 10.5903C3.54932 10.3836 4.20145 10.2134 4.92529 10.0874C4.86207 9.62607 4.81829 9.14495 4.79834 8.6499H2.40869ZM11.2778 8.6499C11.2579 9.145 11.2131 9.62603 11.1499 10.0874C11.8613 10.2112 12.5035 10.3777 13.0464 10.5796C13.3502 9.98897 13.5534 9.33865 13.6323 8.6499H11.2778ZM6.1001 8.6499C6.11943 9.0905 6.15892 9.51457 6.21436 9.91748C6.79761 9.86305 7.40955 9.8335 8.0376 9.8335C8.66557 9.8335 9.27765 9.86307 9.86084 9.91748C9.91629 9.51453 9.95673 9.09055 9.97607 8.6499H6.1001ZM12.9897 5.30908C12.4538 5.49138 11.823 5.64018 11.1265 5.75244C11.2024 6.26222 11.2556 6.79738 11.2778 7.3501H13.6323C13.5485 6.61814 13.326 5.9286 12.9897 5.30908ZM9.83545 5.90967C9.25995 5.95909 8.65655 5.98682 8.0376 5.98682C7.41857 5.98681 6.8153 5.95911 6.23975 5.90967C6.17085 6.36351 6.12222 6.84598 6.1001 7.3501H9.97607C9.95395 6.84592 9.90435 6.36355 9.83545 5.90967ZM3.05713 5.29932C2.71795 5.92137 2.49298 6.61427 2.40869 7.3501H4.79834C4.8206 6.79772 4.87386 6.26291 4.94971 5.75342C4.24042 5.63913 3.59941 5.48611 3.05713 5.29932ZM7.87842 2.35303C7.77015 2.39063 7.64048 2.47163 7.49072 2.62549C7.25614 2.86654 7.01473 3.24924 6.79834 3.7749C6.69186 4.0336 6.59361 4.31938 6.50732 4.62842C6.99293 4.66596 7.5055 4.68701 8.0376 4.68701C8.56961 4.68701 9.08233 4.66594 9.56787 4.62842C9.48161 4.31948 9.38428 4.03353 9.27783 3.7749C9.06145 3.24925 8.82003 2.86654 8.58545 2.62549C8.43702 2.473 8.30837 2.39202 8.20068 2.354C8.14101 2.35214 8.08113 2.3501 8.021 2.3501C7.97339 2.3501 7.92574 2.35186 7.87842 2.35303ZM5.81787 2.79541C5.06542 3.11429 4.3968 3.59215 3.85303 4.18604C4.24873 4.29939 4.70356 4.39796 5.20557 4.47705C5.31696 4.04644 5.44635 3.64486 5.59619 3.28076C5.6652 3.1131 5.73924 2.95065 5.81787 2.79541ZM10.2681 2.81592C10.3429 2.96498 10.414 3.12038 10.48 3.28076C10.6298 3.64479 10.7582 4.04653 10.8696 4.47705C11.3602 4.39977 11.8055 4.30298 12.1948 4.19287C11.6608 3.60766 11.0051 3.13587 10.2681 2.81592Z" fill="black"/>
</svg>
