<svg width="24" height="24" viewBox="0 0 24 24" fill="none" xmlns="http://www.w3.org/2000/svg">
<path d="M11.998 2.01953C17.511 2.01968 21.9804 6.48898 21.9805 12.002C21.9805 17.515 17.511 21.9842 11.998 21.9844C6.48493 21.9844 2.01564 17.5151 2.01562 12.002C2.01569 6.48889 6.48496 2.01953 11.998 2.01953ZM12.0215 17.29C11.28 17.2901 10.5644 17.3189 9.88477 17.374C9.96602 17.6217 10.0513 17.8574 10.1426 18.0791C10.4541 18.8358 10.8049 19.3957 11.1533 19.7539C11.2315 19.8343 11.3082 19.9011 11.3809 19.958C11.5845 19.9736 11.7904 19.9844 11.998 19.9844C12.2237 19.9844 12.447 19.9725 12.668 19.9541C12.7392 19.898 12.8141 19.8325 12.8906 19.7539C13.2391 19.3957 13.5898 18.8359 13.9014 18.0791C13.9926 17.8574 14.0779 17.6218 14.1592 17.374C13.4794 17.3189 12.7632 17.29 12.0215 17.29ZM8.2666 17.5635C7.67106 17.6552 7.11738 17.7666 6.61523 17.8955C7.30608 18.5268 8.10857 19.0368 8.98926 19.3955C8.87403 19.17 8.76419 18.9341 8.66309 18.6885C8.5185 18.3372 8.38644 17.9609 8.2666 17.5635ZM15.7773 17.5635C15.6575 17.9609 15.5255 18.3372 15.3809 18.6885C15.2834 18.9252 15.178 19.1529 15.0674 19.3711C15.9286 19.0119 16.7133 18.5069 17.3906 17.8857C16.8986 17.7608 16.3579 17.6529 15.7773 17.5635ZM4.05664 12.8193C4.19742 14.2037 4.69378 15.4821 5.4502 16.5654C6.16971 16.3362 6.99094 16.1475 7.88477 16.0039C7.69308 15.0158 7.57151 13.9423 7.53223 12.8193H4.05664ZM16.5117 12.8193C16.4724 13.9423 16.3509 15.0158 16.1592 16.0039C17.0365 16.1448 17.8438 16.3292 18.5537 16.5527C19.3052 15.4721 19.7992 14.1984 19.9395 12.8193H16.5117ZM9.13281 12.8193C9.17314 13.8901 9.29307 14.8968 9.47559 15.8047C10.2899 15.7299 11.1442 15.6904 12.0215 15.6904C12.899 15.6904 13.7538 15.7299 14.5684 15.8047C14.7509 14.8968 14.8708 13.8901 14.9111 12.8193H9.13281ZM5.30566 7.65137C4.62436 8.69718 4.18094 9.91191 4.05371 11.2197H7.53223C7.56871 10.1773 7.67618 9.17751 7.84473 8.24902C6.89908 8.09698 6.04123 7.89394 5.30566 7.65137ZM9.43457 8.44922C9.27538 9.30015 9.17 10.2327 9.13281 11.2197H14.9111C14.8744 10.2451 14.7711 9.3237 14.6152 8.48145C13.8438 8.5437 13.0375 8.57715 12.2109 8.57715C11.2504 8.57713 10.3175 8.5326 9.43457 8.44922ZM18.7598 7.7627C18.009 7.98531 17.1481 8.16848 16.209 8.30371C16.3719 9.21675 16.476 10.1977 16.5117 11.2197H19.9424C19.8196 9.95778 19.4009 8.78321 18.7598 7.7627ZM11.998 4.01953C11.808 4.01953 11.6194 4.02795 11.4326 4.04102C11.344 4.10517 11.2505 4.18527 11.1533 4.28516C10.8048 4.64337 10.4541 5.20316 10.1426 5.95996C10.0258 6.24379 9.9166 6.54997 9.81641 6.87598C10.5722 6.94049 11.3751 6.97654 12.2109 6.97656C12.9119 6.97656 13.59 6.95031 14.2363 6.9043C14.1338 6.56773 14.0216 6.25197 13.9014 5.95996C13.5899 5.20324 13.2391 4.64335 12.8906 4.28516C12.7956 4.18757 12.704 4.1093 12.6172 4.0459C12.4128 4.03021 12.2065 4.01954 11.998 4.01953ZM15.0449 4.62305C15.1641 4.85466 15.2767 5.09757 15.3809 5.35059C15.5569 5.77832 15.7145 6.24318 15.8535 6.73828C16.517 6.64672 17.1302 6.53132 17.6807 6.39746C16.9355 5.64201 16.0411 5.03485 15.0449 4.62305ZM9.01172 4.59766C8.02974 4.99405 7.14513 5.58022 6.40234 6.31055C6.93902 6.45565 7.54441 6.58186 8.20508 6.68457C8.34043 6.20947 8.49337 5.7629 8.66309 5.35059C8.77103 5.08839 8.88768 4.83679 9.01172 4.59766Z" fill="black"/>
</svg>
