<svg width="24" height="24" viewBox="0 0 24 24" fill="none" xmlns="http://www.w3.org/2000/svg">
<path fill-rule="evenodd" clip-rule="evenodd" d="M7.14618 4.70031C6.53418 4.28031 5.73918 4.23031 5.08218 4.58031C4.42518 4.92031 4.01318 5.60031 4.01318 6.35031C4.01318 9.25031 4.01318 14.7403 4.01318 17.6403C4.01318 18.3903 4.42518 19.0703 5.08218 19.4203C5.73918 19.7603 6.53418 19.7103 7.14618 19.2903C9.36318 17.7703 13.3682 15.0203 15.3642 13.6403C15.9072 13.2703 16.2312 12.6503 16.2312 12.0003C16.2312 11.3403 15.9072 10.7203 15.3642 10.3503C13.3682 8.97031 9.36318 6.22031 7.14618 4.70031ZM17.9982 5.32031V18.6003C17.9982 19.1603 18.4462 19.6003 18.9982 19.6003C19.5502 19.6003 19.9982 19.1603 19.9982 18.6003V5.32031C19.9982 4.77031 19.5502 4.32031 18.9982 4.32031C18.4462 4.32031 17.9982 4.77031 17.9982 5.32031ZM6.01318 6.35031L14.2312 12.0003L6.01318 17.6403V6.35031Z" fill="black"/>
</svg>
