<svg width="24" height="24" viewBox="0 0 24 24" fill="none" xmlns="http://www.w3.org/2000/svg">
<path fill-rule="evenodd" clip-rule="evenodd" d="M11.988 4.01651H11.9727C7.02722 4.01651 3.01172 8.03481 3.01172 12.9848C3.01172 17.9348 7.02722 21.9531 11.9727 21.9531C16.7792 21.9531 20.707 18.1574 20.9243 13.3999C20.9495 12.8486 20.5223 12.3805 19.971 12.3553C19.4197 12.3301 18.9516 12.7573 18.9264 13.3086C18.7575 17.0043 15.7065 19.9531 11.9727 19.9531C8.13062 19.9531 5.01172 16.8305 5.01172 12.9848C5.01172 9.15031 8.11252 6.03471 11.9394 6.01671L10.6798 7.27631C10.2895 7.66661 10.2895 8.30031 10.6798 8.69051C11.07 9.08081 11.7037 9.08081 12.094 8.69051L15.0851 5.69941C15.4756 5.30891 15.4756 4.67571 15.0851 4.28521L12.0848 1.28491C11.6945 0.894612 11.0609 0.894612 10.6706 1.28491C10.2803 1.67521 10.2803 2.30891 10.6706 2.69911L11.988 4.01651ZM15.6706 2.69911L17.9638 4.99231L15.6798 7.27631C15.2895 7.66661 15.2895 8.30031 15.6798 8.69051C16.07 9.08081 16.7037 9.08081 17.094 8.69051L20.0851 5.69941C20.4756 5.30891 20.4756 4.67571 20.0851 4.28521L17.0848 1.28491C16.6945 0.894612 16.0609 0.894612 15.6706 1.28491C15.2803 1.67521 15.2803 2.30891 15.6706 2.69911Z" fill="black"/>
</svg>
