<svg width="16" height="16" viewBox="0 0 16 16" fill="none" xmlns="http://www.w3.org/2000/svg">
<path fill-rule="evenodd" clip-rule="evenodd" d="M11.0141 4.28906V11.6291C11.0141 12.1801 11.4621 12.6291 12.0141 12.6291C12.5661 12.6291 13.0141 12.1801 13.0141 11.6291V4.28906C13.0141 3.73706 12.5661 3.28906 12.0141 3.28906C11.4621 3.28906 11.0141 3.73706 11.0141 4.28906ZM4.58705 3.60206C4.28205 3.38006 3.88005 3.34806 3.54405 3.51906C3.20905 3.68906 2.99805 4.03406 2.99805 4.41006C2.99805 6.42506 2.99805 9.53906 2.99805 11.5531C2.99805 11.9291 3.20905 12.2741 3.54405 12.4441C3.88005 12.6151 4.28205 12.5831 4.58705 12.3611C6.05405 11.2921 8.19705 9.73106 9.48805 8.79006C9.74605 8.60206 9.89905 8.30106 9.89905 7.98206C9.89905 7.66206 9.74605 7.36206 9.48805 7.17306C8.19705 6.23306 6.05405 4.67106 4.58705 3.60206Z" fill="black"/>
</svg>
