<svg width="24" height="24" viewBox="0 0 24 24" fill="none" xmlns="http://www.w3.org/2000/svg">
<path fill-rule="evenodd" clip-rule="evenodd" d="M17.8141 5.77813V18.2681C17.8141 18.9281 18.3521 19.4681 19.0141 19.4681C19.6771 19.4681 20.2141 18.9281 20.2141 18.2681V5.77813C20.2141 5.11813 19.6771 4.57812 19.0141 4.57812C18.3521 4.57812 17.8141 5.11813 17.8141 5.77813ZM6.81512 4.93812C6.26412 4.56812 5.54912 4.51812 4.95712 4.82812C4.36612 5.14812 3.99512 5.75812 3.99512 6.42812C3.99512 9.62812 3.99512 14.3881 3.99512 17.5881C3.99512 18.2581 4.36612 18.8681 4.95712 19.1881C5.54912 19.4981 6.26412 19.4481 6.81512 19.0781C9.25012 17.3981 12.7161 15.0181 14.9351 13.4881C15.4231 13.1581 15.7151 12.5981 15.7151 12.0081C15.7151 11.4181 15.4231 10.8581 14.9351 10.5281C12.7161 8.99813 9.25012 6.61812 6.81512 4.93812Z" fill="black"/>
</svg>
