<svg width="16" height="16" viewBox="0 0 16 16" fill="none" xmlns="http://www.w3.org/2000/svg">
<path fill-rule="evenodd" clip-rule="evenodd" d="M9.4356 2.68955C9.7188 2.49775 9.8488 2.14725 9.7591 1.81725C9.6694 1.48725 9.3798 1.25075 9.0385 1.22875C5.8876 1.02565 2.9234 3.06395 2.0751 6.22975C1.1086 9.83675 3.2524 13.5499 6.8594 14.5164C9.3864 15.1935 11.9656 14.3443 13.6124 12.531C13.8427 12.2774 13.886 11.9053 13.72 11.6055C13.554 11.3058 13.2156 11.1451 12.8784 11.2058C12.2304 11.3225 11.5485 11.2983 10.8719 11.117C8.3626 10.4446 6.8712 7.86145 7.5435 5.35205C7.8464 4.22175 8.537 3.29785 9.4356 2.68955ZM6.792 3.14685C6.4439 3.68495 6.1728 4.28575 5.9981 4.93795C5.0971 8.30025 7.0955 11.7616 10.4578 12.6625C10.5287 12.6815 10.5996 12.6992 10.6705 12.7156C9.6377 13.1682 8.4482 13.2857 7.2735 12.9709C4.5195 12.2329 2.8827 9.39785 3.6206 6.64385C4.0683 4.97305 5.2878 3.71325 6.7927 3.14605L6.792 3.14685Z" fill="black"/>
</svg>
