<svg width="24" height="24" viewBox="0 0 24 24" fill="none" xmlns="http://www.w3.org/2000/svg">
<path fill-rule="evenodd" clip-rule="evenodd" d="M20.2681 18.6746C17.8415 21.3305 14.0528 22.5757 10.3407 21.5811C5.03686 20.1599 1.88456 14.7 3.30576 9.39613C4.54656 4.76543 8.86607 1.77533 13.4724 2.03633C13.9027 2.06073 14.2689 2.35803 14.3813 2.77413C14.4936 3.19023 14.3267 3.63143 13.9671 3.86903C11.3735 5.58273 10.0134 8.73973 10.8363 11.811C11.8191 15.4786 15.5548 17.6943 19.354 17.0157C19.7759 16.9403 20.1988 17.1422 20.4057 17.5175C20.6125 17.8929 20.5571 18.3583 20.2681 18.6746ZM16.5606 19.033C12.9615 18.4986 9.87786 15.9616 8.90446 12.3286C8.14596 9.49803 8.82846 6.60443 10.5165 4.39293C8.01936 5.18683 5.96546 7.19723 5.23756 9.91383C4.10206 14.1514 6.62067 18.5137 10.8584 19.6492C12.8472 20.1821 14.8633 19.9098 16.5606 19.033Z" fill="black"/>
</svg>
