<svg width="24" height="24" viewBox="0 0 24 24" fill="none" xmlns="http://www.w3.org/2000/svg">
<path fill-rule="evenodd" clip-rule="evenodd" d="M6.99463 2C5.66853 2 4.39673 2.5268 3.45903 3.4645C2.52143 4.4021 1.99463 5.6739 1.99463 7C1.99463 9.977 1.99463 14.023 1.99463 17C1.99463 18.3261 2.52143 19.5979 3.45903 20.5355C4.39673 21.4732 5.66853 22 6.99463 22C9.97313 22 14.0221 22 17.0006 22C18.3267 22 19.5985 21.4732 20.5362 20.5355C21.4738 19.5979 22.0006 18.3261 22.0006 17C22.0006 14.023 22.0006 9.977 22.0006 7C22.0006 5.6739 21.4738 4.4021 20.5362 3.4645C19.5985 2.5268 18.3267 2 17.0006 2H6.99463ZM6.99463 4H17.0006C17.7963 4 18.5593 4.3161 19.1219 4.8787C19.6845 5.4413 20.0006 6.2044 20.0006 7C20.0006 9.977 20.0006 14.023 20.0006 17C20.0006 17.7956 19.6845 18.5587 19.1219 19.1213C18.5593 19.6839 17.7963 20 17.0006 20H6.99463C6.19893 20 5.43593 19.6839 4.87333 19.1213C4.31063 18.5587 3.99463 17.7956 3.99463 17C3.99463 14.023 3.99463 9.977 3.99463 7C3.99463 6.2044 4.31063 5.4413 4.87333 4.8787C5.43593 4.3161 6.19893 4 6.99463 4ZM8.00023 17.0038H16.0002C17.1048 17.0038 18.0002 16.1083 18.0002 15.0038C18.0002 14.1324 18.0002 12.8752 18.0002 12.0038C18.0002 10.8992 17.1048 10.0038 16.0002 10.0038H8.00023C6.89563 10.0038 6.00023 10.8992 6.00023 12.0038C6.00023 12.8752 6.00023 14.1324 6.00023 15.0038C6.00023 16.1083 6.89563 17.0038 8.00023 17.0038ZM16.0002 15.0038H8.00023V12.0038H16.0002V15.0038ZM12.9834 6H7.53243C6.98053 6 6.53243 6.4481 6.53243 7C6.53243 7.5519 6.98053 8 7.53243 8H12.9834C13.5353 8 13.9834 7.5519 13.9834 7C13.9834 6.4481 13.5353 6 12.9834 6Z" fill="black"/>
</svg>
