<svg width="16" height="16" viewBox="0 0 16 16" fill="none" xmlns="http://www.w3.org/2000/svg">
<path fill-rule="evenodd" clip-rule="evenodd" d="M4.99629 1.2002C2.89759 1.2002 1.19629 2.9015 1.19629 5.0002C1.19629 6.8326 1.19629 9.1678 1.19629 11.0002C1.19629 13.0989 2.89759 14.8002 4.99629 14.8002C6.82979 14.8002 9.16669 14.8002 11.0003 14.8002C13.099 14.8002 14.8003 13.0989 14.8003 11.0002C14.8003 9.1678 14.8003 6.8326 14.8003 5.0002C14.8003 2.9015 13.099 1.2002 11.0003 1.2002C9.16669 1.2002 6.82979 1.2002 4.99629 1.2002ZM4.99629 2.8002C6.82979 2.8002 9.16669 2.8002 11.0003 2.8002C12.2153 2.8002 13.2003 3.7851 13.2003 5.0002V11.0002C13.2003 12.2153 12.2153 13.2002 11.0003 13.2002C9.16669 13.2002 6.82979 13.2002 4.99629 13.2002C3.78119 13.2002 2.79629 12.2153 2.79629 11.0002V5.0002C2.79629 3.7851 3.78119 2.8002 4.99629 2.8002Z" fill="black"/>
<path fill-rule="evenodd" clip-rule="evenodd" d="M5.5 11.7502H10.5C10.8315 11.7502 11.1495 11.6185 11.3839 11.3841C11.6183 11.1497 11.75 10.8317 11.75 10.5002V8.50018C11.75 8.16868 11.6183 7.85068 11.3839 7.61628C11.1495 7.38188 10.8315 7.25018 10.5 7.25018H5.5C5.1685 7.25018 4.8505 7.38188 4.6161 7.61628C4.3817 7.85068 4.25 8.16868 4.25 8.50018V10.5002C4.25 10.8317 4.3817 11.1497 4.6161 11.3841C4.8505 11.6185 5.1685 11.7502 5.5 11.7502ZM10.25 10.2502H5.75V8.75018H10.25V10.2502Z" fill="black"/>
<path d="M8.634 4.25018H5C4.5861 4.25018 4.25 4.58628 4.25 5.00018C4.25 5.41408 4.5861 5.75018 5 5.75018H8.634C9.0479 5.75018 9.384 5.41408 9.384 5.00018C9.384 4.58628 9.0479 4.25018 8.634 4.25018Z" fill="black"/>
</svg>
