<svg width="16" height="16" viewBox="0 0 16 16" fill="none" xmlns="http://www.w3.org/2000/svg">
<path fill-rule="evenodd" clip-rule="evenodd" d="M3.69029 5.27865C3.90609 2.81265 6.10819 1.00745 8.50589 1.18935C10.9635 1.37585 12.8045 3.57235 12.574 6.03555C12.5285 6.52135 12.4271 7.69605 12.3769 8.28075C12.702 8.64535 13.3258 9.34475 13.6893 9.75235L13.6908 9.75415C14.0187 10.1241 14.18 10.6126 14.1368 11.1051C14.1253 11.2368 14.1121 11.3875 14.0986 11.5406C14.0118 12.5308 13.1388 13.2631 12.1486 13.1765L2.90969 12.3678C1.91939 12.2811 1.18689 11.4081 1.27349 10.4178L1.31169 9.98075C1.35459 9.49045 1.59629 9.03905 1.98069 8.73175L1.98279 8.73005C2.40249 8.39675 3.11789 7.82885 3.49319 7.53085L3.69029 5.27865ZM5.28419 5.41815L5.05719 8.01225C5.03889 8.22065 4.93979 8.41365 4.78089 8.54985C4.77579 8.55425 3.58289 9.50245 2.97979 9.98145C2.93719 10.0155 2.91039 10.0657 2.90559 10.1201L2.86739 10.5573C2.85779 10.6673 2.93919 10.7642 3.04919 10.7739L12.2881 11.5826C12.3981 11.5922 12.4951 11.5108 12.5048 11.4008C12.5182 11.2478 12.5314 11.0971 12.5429 10.9655C12.5477 10.9108 12.5298 10.8564 12.4934 10.8153C11.974 10.2327 10.9399 9.07205 10.9351 9.06625C10.8007 8.90445 10.7354 8.69635 10.7533 8.48695C10.7533 8.48695 10.9189 6.54915 10.9809 5.88645C11.1283 4.31185 9.95589 2.90395 8.38479 2.78475C6.84099 2.66765 5.42319 3.83035 5.28419 5.41815Z" fill="black"/>
<path d="M6.64863 15.4611C6.20713 15.4611 5.84863 15.1026 5.84863 14.6611C5.84863 14.2196 6.20713 13.8611 6.64863 13.8611H9.31533C9.75683 13.8611 10.1153 14.2196 10.1153 14.6611C10.1153 15.1026 9.75683 15.4611 9.31533 15.4611H6.64863Z" fill="black"/>
<path d="M2.24891 4.93417C2.25911 5.37567 1.90901 5.74227 1.46761 5.75247C1.02621 5.76267 0.659509 5.41267 0.649309 4.97117C0.601109 2.88537 1.84081 1.02857 3.29591 0.45027C3.70621 0.28717 4.17171 0.48787 4.33481 0.89817C4.49791 1.30847 4.29721 1.77407 3.88691 1.93707C2.93821 2.31417 2.21741 3.57427 2.24891 4.93417Z" fill="black"/>
<path d="M13.7064 4.36707C13.4344 4.01927 13.4959 3.51607 13.8437 3.24407C14.1915 2.97207 14.6947 3.03357 14.9667 3.38137C15.7974 4.44347 15.9357 6.22777 15.5714 7.47327C15.4475 7.89697 15.0028 8.14047 14.579 8.01647C14.1552 7.89247 13.9118 7.44787 14.0358 7.02407C14.2716 6.21787 14.244 5.05457 13.7064 4.36707Z" fill="black"/>
</svg>
