<svg width="24" height="24" viewBox="0 0 24 24" fill="none" xmlns="http://www.w3.org/2000/svg">
<path fill-rule="evenodd" clip-rule="evenodd" d="M10.4901 22.9991C12.2101 22.9991 13.5401 22.9991 14.4901 22.9991C15.0401 22.9991 15.4901 22.5511 15.4901 21.9991C15.4901 21.4471 15.0401 20.9991 14.4901 20.9991C13.5401 20.9991 12.2101 20.9991 10.4901 20.9991C9.94007 20.9991 9.49007 21.4471 9.49007 21.9991C9.49007 22.5511 9.94007 22.9991 10.4901 22.9991ZM6.25007 7.94305L5.95007 11.4071L3.45007 13.3931C3.02007 13.7341 2.75007 14.2361 2.70007 14.7821L2.58007 16.1501C2.49007 17.2501 3.30007 18.2201 4.40007 18.3161C7.39007 18.5781 16.2701 19.3551 19.2601 19.6171C20.3601 19.7131 21.3301 18.8991 21.4201 17.7991L21.5401 16.4331C21.5901 15.8851 21.4101 15.3411 21.0501 14.9301L18.8801 12.4971C18.9501 11.6541 19.1101 9.79605 19.1801 9.04205C19.5101 5.45805 16.8401 2.26205 13.2601 1.99105C9.77007 1.72605 6.57007 4.35405 6.25007 7.94305ZM19.4301 17.6241L4.58007 16.3241L4.69007 14.9561C5.52007 14.3041 7.55007 12.6871 7.56007 12.6801C7.76007 12.5101 7.88007 12.2691 7.90007 12.0081C7.90007 12.0081 8.15007 9.19505 8.24007 8.11705C8.46007 5.62605 10.6901 3.80105 13.1101 3.98505C15.5801 4.17205 17.4201 6.38305 17.1901 8.85605C17.0901 9.84905 16.8501 12.7551 16.8501 12.7551C16.8201 13.0171 16.9101 13.2771 17.0701 13.4791C17.0801 13.4881 18.8401 15.4661 19.5501 16.2591L19.4301 17.6241Z" fill="black"/>
</svg>
