<svg width="24" height="24" viewBox="0 0 24 24" fill="none" xmlns="http://www.w3.org/2000/svg">
<path fill-rule="evenodd" clip-rule="evenodd" d="M9.2699 22.9993C10.9999 22.9993 12.3199 22.9993 13.2699 22.9993C13.8199 22.9993 14.2699 22.5513 14.2699 21.9993C14.2699 21.4473 13.8199 20.9993 13.2699 20.9993H9.2699C8.7199 20.9993 8.2699 21.4473 8.2699 21.9993C8.2699 22.5513 8.7199 22.9993 9.2699 22.9993ZM20.8099 15.9243V16.9993C20.8099 18.1043 19.9099 18.9993 18.8099 18.9993C15.8099 18.9993 6.8999 18.9993 3.8999 18.9993C2.7899 18.9993 1.8999 18.1033 1.8999 16.9993V15.6263C1.8999 15.0783 2.1199 14.5543 2.5199 14.1773L4.8399 11.9803V8.50331C4.8399 4.90031 7.7999 2.00431 11.2999 1.96331C14.8799 1.92231 17.8299 4.87231 17.8099 8.47131V8.55531C17.2299 7.97331 16.4899 7.63931 15.7199 7.55831C15.3099 5.50031 13.4899 3.93831 11.3199 3.96331C8.8899 3.99131 6.8399 6.00231 6.8399 8.50331V12.4093C6.8399 12.6713 6.7299 12.9223 6.5499 13.1093C6.5399 13.1173 4.6599 14.9053 3.8999 15.6263V16.9993H18.8099V16.8383L18.8299 16.8363C19.5699 16.7513 20.2599 16.4303 20.8099 15.9243ZM14.5999 11.6183L17.3299 14.3533C17.5399 14.5593 17.8199 14.6713 18.1099 14.6603C18.3999 14.6503 18.6799 14.5193 18.8699 14.2993L23.6499 8.79231C24.0299 8.35531 23.9799 7.69131 23.5399 7.31131C23.0999 6.93131 22.4399 6.97831 22.0599 7.41631L18.0199 12.0723L16.0799 10.1333C15.6699 9.72431 15.0099 9.72431 14.5999 10.1333C14.1899 10.5433 14.1899 11.2093 14.5999 11.6183Z" fill="black"/>
</svg>
