<svg width="16" height="16" viewBox="0 0 16 16" fill="none" xmlns="http://www.w3.org/2000/svg">
<path fill-rule="evenodd" clip-rule="evenodd" d="M3.47707 5.24597L0.600074 2.36897C0.268074 2.03697 0.268074 1.49797 0.600074 1.16697C0.931074 0.834969 1.47007 0.834969 1.80207 1.16697L4.06107 3.42597C4.83807 2.08897 6.28407 1.18897 7.89507 1.16997C10.3601 1.14197 12.3851 3.16997 12.3701 5.64297C12.3681 6.13097 12.3691 7.30997 12.3701 7.89697L13.8071 9.25097C14.1661 9.59097 14.3691 10.063 14.3691 10.558C14.3691 10.69 14.3691 10.841 14.3691 10.995C14.3691 11.735 13.9221 12.371 13.2821 12.647L14.8041 14.169C15.1361 14.501 15.1361 15.039 14.8041 15.371C14.4721 15.703 13.9341 15.703 13.6021 15.371L11.0251 12.794H10.9971L9.39707 11.194H9.42507L5.05507 6.82397V6.85197L3.47507 5.27197L3.47707 5.24597ZM6.54507 15.461C7.69407 15.461 8.57907 15.461 9.21207 15.461C9.65307 15.461 10.0121 15.103 10.0121 14.661C10.0121 14.219 9.65307 13.861 9.21207 13.861H6.54507C6.10307 13.861 5.74507 14.219 5.74507 14.661C5.74507 15.103 6.10307 15.461 6.54507 15.461ZM3.37507 7.99997L4.50607 9.13197L3.15707 10.411C3.11707 10.449 3.09507 10.501 3.09507 10.555V10.994C3.09507 11.105 3.18507 11.194 3.29507 11.194H6.56807L8.16807 12.794H3.29507C2.30107 12.794 1.49507 11.988 1.49507 10.994V10.555C1.49507 10.063 1.69607 9.59297 2.05307 9.25297L3.37507 7.99997ZM11.8291 11.194L5.25307 4.61797C5.67507 3.54397 6.72507 2.78397 7.91407 2.76997C9.48907 2.75197 10.7801 4.05197 10.7701 5.63397C10.7661 6.29897 10.7701 8.24397 10.7701 8.24397C10.7711 8.45397 10.8541 8.65597 11.0021 8.80497C11.0071 8.81097 12.1391 9.87697 12.7071 10.412C12.7471 10.45 12.7691 10.502 12.7691 10.557V10.994C12.7691 11.105 12.6801 11.194 12.5691 11.194H11.8291Z" fill="black"/>
</svg>
