<svg width="24" height="24" viewBox="0 0 24 24" fill="none" xmlns="http://www.w3.org/2000/svg">
<path fill-rule="evenodd" clip-rule="evenodd" d="M9.48979 22.9993C11.2098 22.9993 12.5398 22.9993 13.4898 22.9993C14.0398 22.9993 14.4898 22.5513 14.4898 21.9993C14.4898 21.4473 14.0398 20.9993 13.4898 20.9993H9.48979C8.93979 20.9993 8.48979 21.4473 8.48979 21.9993C8.48979 22.5513 8.93979 22.9993 9.48979 22.9993ZM5.85979 5.38231C6.96979 3.36031 9.11978 1.99131 11.5198 1.96331C15.0998 1.92231 18.0498 4.87231 18.0298 8.47131C18.0198 9.22831 18.0298 11.0943 18.0298 11.9403L20.3998 14.1743C20.7998 14.5523 21.0298 15.0783 21.0298 15.6283V16.9993C21.0298 17.9633 20.3398 18.7673 19.4398 18.9563L21.1298 20.6503C21.5598 21.0793 21.5598 21.7763 21.1298 22.2053C20.6998 22.6353 20.0098 22.6353 19.5798 22.2053L1.78979 4.42031C1.35979 3.99031 1.35979 3.29331 1.78979 2.86431C2.21979 2.43531 2.91979 2.43531 3.34979 2.86431L5.85979 5.38231ZM5.04979 10.5033L7.04979 12.4953C7.02979 12.7263 6.92979 12.9433 6.76979 13.1093C6.75979 13.1173 4.87979 14.9053 4.11979 15.6263V16.9993H11.5498L13.5498 18.9993H4.11979C3.00979 18.9993 2.11979 18.1033 2.11979 16.9993V15.6263C2.11979 15.0783 2.33979 14.5543 2.73979 14.1773L5.04979 11.9803V10.5033ZM17.4798 16.9993L7.35979 6.88131C8.01978 5.18431 9.66979 3.98531 11.5398 3.96331C14.0198 3.93431 16.0398 5.97631 16.0298 8.45931C16.0198 9.45731 16.0298 12.3733 16.0298 12.3733C16.0298 12.6363 16.1298 12.8883 16.3198 13.0753C16.3298 13.0843 18.2498 14.9003 19.0298 15.6293V15.6283V16.9993H17.4798Z" fill="black"/>
</svg>
