<svg width="12" height="12" viewBox="0 0 12 12" fill="none" xmlns="http://www.w3.org/2000/svg">
<path fill-rule="evenodd" clip-rule="evenodd" d="M2.89085 2.06245C3.50785 0.983454 4.66685 0.256453 5.96085 0.241453C7.92485 0.218453 9.53985 1.83445 9.52785 3.80645C9.52585 4.15045 9.52685 4.95345 9.52785 5.41545L10.6329 6.45545C10.8879 6.69645 11.0319 7.03245 11.0319 7.38345C11.0319 7.57345 11.0319 7.86045 11.0319 8.10645C11.0319 8.67445 10.6619 9.15545 10.1499 9.32145L11.1169 10.2875C11.4479 10.6195 11.4479 11.1585 11.1169 11.4895C10.7849 11.8215 10.2459 11.8215 9.91485 11.4895L7.80885 9.38345H7.80585L6.20585 7.78345H6.20885L4.02285 5.59845V5.60145L2.42285 4.00145V3.99845L0.546852 2.12245C0.214852 1.79045 0.214852 1.25145 0.546852 0.920453C0.878852 0.588453 1.41685 0.588453 1.74885 0.920453L2.89085 2.06245ZM5.80985 9.79245H4.76385C4.32185 9.79245 3.96385 10.1505 3.96385 10.5925C3.96385 11.0335 4.32185 11.3925 4.76385 11.3925H6.76385C6.94485 11.3925 7.11285 11.3315 7.24685 11.2295L5.80985 9.79245ZM1.92585 5.90745L3.05685 7.03945L2.54885 7.52145V7.78345H3.80185L5.40185 9.38345H2.22585C1.52085 9.38345 0.948852 8.81245 0.948852 8.10645V7.38245C0.948852 7.03345 1.09185 6.69845 1.34485 6.45745L1.92585 5.90745ZM8.61285 7.78345L4.10085 3.27245C4.34085 2.45045 5.10485 1.85145 5.97885 1.84145C7.05485 1.82845 7.93485 2.71645 7.92785 3.79645C7.92485 4.29745 7.92785 5.76245 7.92785 5.76245C7.92885 5.97245 8.01185 6.17445 8.15985 6.32345L9.43185 7.52345V7.78345H8.61285Z" fill="black"/>
</svg>
