<svg width="12" height="12" viewBox="0 0 12 12" fill="none" xmlns="http://www.w3.org/2000/svg">
<path fill-rule="evenodd" clip-rule="evenodd" d="M5.24485 11.3915H7.24485C7.68685 11.3915 8.04485 11.0325 8.04485 10.5915C8.04485 10.1495 7.68685 9.79154 7.24485 9.79154H5.24485C4.80285 9.79154 4.44485 10.1495 4.44485 10.5915C4.44485 11.0325 4.80285 11.3915 5.24485 11.3915ZM2.86885 3.65154L2.72885 5.25554L1.57085 6.17454C1.29785 6.39254 1.12585 6.71254 1.09585 7.06154L1.03285 7.77754C0.970848 8.48054 1.49085 9.09954 2.19385 9.16154L9.66585 9.81554C10.3688 9.87754 10.9888 9.35754 11.0498 8.65454L11.1128 7.93954C11.1438 7.58954 11.0288 7.24154 10.7958 6.97954L9.78985 5.85254C9.82985 5.39354 9.89785 4.59754 9.92985 4.25554C10.1138 2.29654 8.64885 0.550536 6.69485 0.402536C4.78985 0.258536 3.04085 1.69254 2.86885 3.65154ZM9.50685 7.93854L9.48385 8.19354L2.65485 7.59554L2.67685 7.33954L4.01685 6.27454C4.17485 6.13854 4.27485 5.94554 4.29285 5.73654L4.46285 3.79154C4.55785 2.70954 5.52285 1.91854 6.57385 1.99854C7.64185 2.07954 8.43685 3.03654 8.33685 4.10654C8.29085 4.60354 8.16685 6.05854 8.16685 6.05854C8.14885 6.26754 8.21385 6.47554 8.34785 6.63754L9.50685 7.93854Z" fill="black"/>
</svg>
