<svg width="16" height="16" viewBox="0 0 16 16" fill="none" xmlns="http://www.w3.org/2000/svg">
<path fill-rule="evenodd" clip-rule="evenodd" d="M9.3552 1.2C9.1032 1.684 8.9492 2.226 8.9162 2.8H6.0002C5.1512 2.8 4.3372 3.137 3.7372 3.737C3.1372 4.337 2.8002 5.151 2.8002 6V10C2.8002 10.849 3.1372 11.663 3.7372 12.263C4.3372 12.863 5.1512 13.2 6.0002 13.2H10.0002C10.8492 13.2 11.6632 12.863 12.2632 12.263C12.8632 11.663 13.2002 10.849 13.2002 10V7.067C13.7742 7.033 14.3162 6.879 14.8002 6.627V10C14.8002 11.273 14.2942 12.494 13.3942 13.394C12.4942 14.294 11.2732 14.8 10.0002 14.8C8.7132 14.8 7.2872 14.8 6.0002 14.8C4.7272 14.8 3.5062 14.294 2.6062 13.394C1.7062 12.494 1.2002 11.273 1.2002 10C1.2002 8.713 1.2002 7.287 1.2002 6C1.2002 4.727 1.7062 3.506 2.6062 2.606C3.5062 1.706 4.7272 1.2 6.0002 1.2H9.3552ZM12.9482 1C14.0742 1 14.9882 1.914 14.9882 3.04C14.9882 4.166 14.0742 5.08 12.9482 5.08C11.8222 5.08 10.9082 4.166 10.9082 3.04C10.9082 1.914 11.8222 1 12.9482 1Z" fill="black"/>
</svg>
