<svg width="16" height="16" viewBox="0 0 16 16" fill="none" xmlns="http://www.w3.org/2000/svg">
<path fill-rule="evenodd" clip-rule="evenodd" d="M6.96013 15.4604H9.62613C10.0681 15.4604 10.4261 15.1024 10.4261 14.6604C10.4261 14.2184 10.0681 13.8604 9.62613 13.8604H6.96013C6.51813 13.8604 6.16013 14.2184 6.16013 14.6604C6.16013 15.1024 6.51813 15.4604 6.96013 15.4604ZM4.00113 5.27841L3.80413 7.53041L2.29213 8.73141C1.90713 9.03841 1.66613 9.48941 1.62313 9.98041L1.58513 10.4174C1.49813 11.4074 2.23113 12.2804 3.22113 12.3674L12.4601 13.1754C13.4501 13.2624 14.3231 12.5304 14.4101 11.5404C14.4231 11.3864 14.4361 11.2364 14.4481 11.1044C14.4911 10.6124 14.3301 10.1234 14.0021 9.75341L12.6881 8.28041C12.7381 7.69541 12.8401 6.52041 12.8851 6.03441C13.1161 3.57141 11.2751 1.37541 8.81713 1.18841C6.41913 1.00641 4.21713 2.81241 4.00113 5.27841ZM5.59513 5.41741C5.73413 3.82941 7.15213 2.66741 8.69613 2.78441C10.2671 2.90341 11.4391 4.31141 11.2921 5.88541C11.2301 6.54841 11.0641 8.48641 11.0641 8.48641C11.0471 8.69541 11.1121 8.90341 11.2461 9.06541C11.2511 9.07141 12.2851 10.2324 12.8051 10.8144C12.8411 10.8554 12.8591 10.9104 12.8541 10.9644L12.8161 11.4004C12.8061 11.5104 12.7091 11.5914 12.5991 11.5824L3.36013 10.7734C3.25013 10.7634 3.16913 10.6664 3.17813 10.5564L3.21713 10.1194C3.22113 10.0654 3.24813 10.0154 3.29113 9.98041C3.89413 9.50141 5.08713 8.55341 5.09213 8.54941C5.25113 8.41341 5.35013 8.22041 5.36813 8.01141C5.36813 8.01141 5.53213 6.13641 5.59513 5.41741Z" fill="black"/>
</svg>
