<svg width="24" height="24" viewBox="0 0 24 24" fill="none" xmlns="http://www.w3.org/2000/svg">
<path fill-rule="evenodd" clip-rule="evenodd" d="M11.9806 11.9129C13.4492 11.9129 14.7757 11.3129 15.739 10.3496C16.7022 9.38633 17.3023 8.05983 17.3023 6.59123C17.3023 5.12263 16.7022 3.79623 15.739 2.83293C14.7757 1.86963 13.4492 1.26953 11.9806 1.26953C10.512 1.26953 9.18554 1.86963 8.22234 2.83293C7.25904 3.79623 6.65894 5.12263 6.65894 6.59123C6.65894 8.05983 7.25904 9.38633 8.22234 10.3496C9.18554 11.3129 10.512 11.9129 11.9806 11.9129ZM10.2751 4.87002C10.7173 4.42782 11.3174 4.15942 11.9806 4.15942C12.6438 4.15942 13.2439 4.44362 13.6861 4.87002C14.1282 5.31212 14.3967 5.91222 14.3967 6.57552C14.3967 7.23872 14.1282 7.83882 13.6861 8.28092C13.2439 8.72312 12.6438 8.99152 11.9806 8.99152C11.3174 8.99152 10.7173 8.72312 10.2751 8.28092C9.83305 7.83882 9.56454 7.23872 9.56454 6.57552C9.56454 5.91222 9.83305 5.31212 10.2751 4.87002Z" fill="black"/>
<path d="M17.5708 11.9287L19.1341 14.0606C19.2131 14.1711 19.1973 14.3132 19.0867 14.3922C17.776 15.466 16.2443 16.1766 14.6494 16.5556L17.6655 22.3669C17.7445 22.5406 17.6339 22.7301 17.4444 22.7301H14.223C14.1282 22.7301 14.0335 22.6669 13.9861 22.5721L11.9806 17.7716L9.95933 22.5564C9.92773 22.6511 9.83303 22.7143 9.72243 22.7143H6.50103C6.31153 22.7143 6.20103 22.509 6.27993 22.3511L9.29613 16.5556C7.70113 16.1766 6.18523 15.466 4.85873 14.3922C4.76393 14.3132 4.73243 14.1553 4.81133 14.0606L6.37473 11.9287C6.46943 11.8024 6.62733 11.7866 6.73793 11.8814C8.20653 13.1289 10.0225 13.95 11.9648 13.95C13.9072 13.95 15.7074 13.1447 17.1918 11.8814C17.3181 11.7866 17.4918 11.8024 17.5708 11.9287Z" fill="black"/>
</svg>
