<svg width="24" height="24" viewBox="0 0 24 24" fill="none" xmlns="http://www.w3.org/2000/svg">
<path fill-rule="evenodd" clip-rule="evenodd" d="M22 8C22 6.41 21.37 4.88 20.24 3.76C19.12 2.63 17.59 2 16 2H8C6.41 2 4.88 2.63 3.76 3.76C2.63 4.88 2 6.41 2 8V16C2 17.59 2.63 19.12 3.76 20.24C4.88 21.37 6.41 22 8 22H16C17.59 22 19.12 21.37 20.24 20.24C21.37 19.12 22 17.59 22 16V8ZM20 8V16C20 17.06 19.58 18.08 18.83 18.83C18.08 19.58 17.06 20 16 20H8C6.94 20 5.92 19.58 5.17 18.83C4.42 18.08 4 17.06 4 16V8C4 6.94 4.42 5.92 5.17 5.17C5.92 4.42 6.94 4 8 4H16C17.06 4 18.08 4.42 18.83 5.17C19.58 5.92 20 6.94 20 8Z" fill="black"/>
<path d="M17.0502 16.9992V6.99922C17.0502 6.41922 16.5802 5.94922 16.0002 5.94922C15.4202 5.94922 14.9502 6.41922 14.9502 6.99922V16.9992C14.9502 17.5792 15.4202 18.0492 16.0002 18.0492C16.5802 18.0492 17.0502 17.5792 17.0502 16.9992Z" fill="black"/>
<path d="M13.0502 16.9992V11.9992C13.0502 11.4192 12.5802 10.9492 12.0002 10.9492C11.4202 10.9492 10.9502 11.4192 10.9502 11.9992V16.9992C10.9502 17.5792 11.4202 18.0492 12.0002 18.0492C12.5802 18.0492 13.0502 17.5792 13.0502 16.9992Z" fill="black"/>
<path d="M9.0502 16.9992V14.9992C9.0502 14.4192 8.5802 13.9492 8.0002 13.9492C7.4202 13.9492 6.9502 14.4192 6.9502 14.9992V16.9992C6.9502 17.5792 7.4202 18.0492 8.0002 18.0492C8.5802 18.0492 9.0502 17.5792 9.0502 16.9992Z" fill="black"/>
</svg>
