<svg width="24" height="24" viewBox="0 0 24 24" fill="none" xmlns="http://www.w3.org/2000/svg">
<path fill-rule="evenodd" clip-rule="evenodd" d="M22 12C22 6.4797 17.518 2 11.9999 2C6.482 2 2 6.4797 2 12C2 17.5203 6.482 22 11.9999 22C17.518 22 22 17.5203 22 12ZM4.00748 12C4.00748 7.5858 7.58761 4 11.9999 4C16.4123 4 19.9925 7.5858 19.9925 12C19.9925 16.4142 16.4123 20 11.9999 20C7.58761 20 4.00748 16.4142 4.00748 12Z" fill="black"/>
<path fill-rule="evenodd" clip-rule="evenodd" d="M13.484 10.1453C13.2859 10.8819 12.8089 11.5442 12.0943 11.9552C11.3796 12.3663 10.5655 12.4467 9.82604 12.2493C9.08658 12.0519 8.42191 11.5768 8.00927 10.8648C7.59663 10.1527 7.51593 9.34159 7.71407 8.60499C7.91221 7.86829 8.38919 7.20609 9.10385 6.79499C9.81851 6.38389 10.6326 6.30349 11.3721 6.50089C12.1115 6.69829 12.7762 7.17339 13.1889 7.88549C13.6015 8.59749 13.6821 9.40859 13.484 10.1453ZM11.6511 8.76999C11.8188 9.05919 11.8515 9.38869 11.7711 9.68799C11.6906 9.9872 11.4968 10.2563 11.2065 10.4233C10.9161 10.5903 10.5854 10.6229 10.285 10.5427C9.98463 10.4625 9.71462 10.2695 9.547 9.98029C9.37937 9.69099 9.34655 9.3615 9.42705 9.06229C9.50755 8.76299 9.70127 8.49399 9.99165 8.32699C10.2819 8.16 10.6127 8.12729 10.9131 8.20749C11.2135 8.28769 11.4835 8.48069 11.6511 8.76999Z" fill="black"/>
<path d="M14.5774 10.4442L15.8366 10.996C15.901 11.0252 15.9309 11.0931 15.9016 11.1572C15.5903 11.9791 15.0849 12.6952 14.4647 13.2788L17.336 15.106C17.4168 15.1636 17.4162 15.2773 17.3309 15.3264L15.8791 16.1615C15.8364 16.186 15.7773 16.1822 15.7312 16.152L13.5784 14.5165L13.9125 17.1887C13.9229 17.2394 13.8966 17.2923 13.8468 17.321L12.395 18.156C12.3097 18.2052 12.2064 18.1416 12.2009 18.0503L12.0522 14.6664C11.2349 14.9097 10.3669 14.9836 9.48969 14.8453C9.42646 14.8345 9.37115 14.7717 9.38209 14.7087L9.53195 13.3464C9.54169 13.2651 9.60884 13.2171 9.68322 13.2309C10.6697 13.4104 11.7017 13.3083 12.577 12.8048C13.4524 12.3013 14.0541 11.4731 14.3944 10.5211C14.4266 10.4458 14.509 10.4079 14.5774 10.4442Z" fill="black"/>
</svg>
