<svg width="16" height="16" viewBox="0 0 16 16" fill="none" xmlns="http://www.w3.org/2000/svg">
<path fill-rule="evenodd" clip-rule="evenodd" d="M14.6601 7.99312C14.6601 4.31379 11.673 1.32812 7.99489 1.32812C4.31747 1.32812 1.33008 4.31379 1.33008 7.99312C1.33008 11.6725 4.31747 14.6581 7.99489 14.6581C11.673 14.6581 14.6601 11.6725 14.6601 7.99312ZM2.79431 7.99313C2.79431 5.12062 5.12397 2.78695 7.99486 2.78695C10.8667 2.78695 13.1958 5.12062 13.1958 7.99313C13.1958 10.8656 10.8667 13.1993 7.99486 13.1993C5.12397 13.1993 2.79431 10.8656 2.79431 7.99313Z" fill="black"/>
<path d="M9.83898 6.88841L10.7358 7.28157C10.7816 7.30236 10.8026 7.35077 10.7825 7.39645C10.5601 7.98199 10.2005 8.49212 9.75844 8.90788L11.8038 10.2097C11.8615 10.2506 11.8615 10.3317 11.8002 10.3667L10.766 10.9616C10.7358 10.979 10.6937 10.9764 10.6608 10.9548L9.12697 9.78965L9.36492 11.6934C9.37224 11.7295 9.35394 11.7673 9.31824 11.7877L8.2841 12.3826C8.22278 12.4175 8.14957 12.3723 8.14591 12.3072L8.03975 9.89651C7.4577 10.0698 6.83905 10.1224 6.21399 10.024C6.16914 10.0162 6.12979 9.97155 6.13711 9.9266L6.24419 8.95602C6.25151 8.89813 6.2991 8.86393 6.35218 8.87378C7.05503 9.00161 7.78991 8.92894 8.41314 8.57026C9.03729 8.21157 9.46559 7.62147 9.70811 6.9433C9.73099 6.8896 9.78956 6.86261 9.83898 6.88841Z" fill="black"/>
<path fill-rule="evenodd" clip-rule="evenodd" d="M8.06991 7.96496C8.57874 7.6721 8.91827 7.20036 9.06012 6.67555C9.20106 6.15064 9.1434 5.57286 8.84963 5.06555C8.55586 4.55834 8.08181 4.2198 7.55467 4.0792C7.02845 3.93852 6.44823 3.99578 5.93939 4.28864C5.42964 4.58159 5.09012 5.05333 4.94918 5.57815C4.80824 6.10296 4.86498 6.68083 5.15967 7.18814C5.45344 7.69535 5.92658 8.03389 6.45372 8.17449C6.98086 8.31508 7.56016 8.25782 8.06991 7.96496ZM7.83929 6.34975C7.89695 6.13649 7.87316 5.9018 7.75418 5.69565C7.6343 5.48959 7.44211 5.35209 7.22796 5.29493C7.01381 5.23785 6.77861 5.2611 6.57178 5.38008C6.36496 5.49907 6.22677 5.69072 6.16911 5.90389C6.11237 6.11716 6.13525 6.35184 6.25514 6.5579C6.37411 6.76405 6.56629 6.90155 6.78044 6.95862C6.99459 7.01579 7.23071 6.99254 7.43753 6.87356C7.64436 6.75457 7.78164 6.56292 7.83929 6.34975Z" fill="black"/>
</svg>
