<svg width="12" height="12" viewBox="0 0 12 12" fill="none" xmlns="http://www.w3.org/2000/svg">
<path fill-rule="evenodd" clip-rule="evenodd" d="M11 6.00004C11 3.24065 8.75983 1 6 1C3.24017 1 1 3.24065 1 6.00004C1 8.75935 3.24017 11 6 11C8.75983 11 11 8.75935 11 6.00004ZM2.30435 6.00005C2.30435 3.96096 3.96061 2.306 6 2.306C8.0394 2.306 9.69566 3.96096 9.69566 6.00005C9.69566 8.03905 8.0394 9.69401 6 9.69401C3.96061 9.69401 2.30435 8.03905 2.30435 6.00005Z" fill="black"/>
<path fill-rule="evenodd" clip-rule="evenodd" d="M6.05287 6.00466C6.42566 5.78909 6.67444 5.44195 6.77783 5.05573C6.88122 4.6695 6.83913 4.24427 6.62383 3.87093C6.40861 3.49768 6.06183 3.24858 5.67609 3.14506C5.29035 3.04154 4.86566 3.08368 4.49287 3.29925C4.12 3.51474 3.87122 3.86196 3.76792 4.24819C3.66453 4.63441 3.70661 5.05964 3.92183 5.4329C4.13713 5.80624 4.48392 6.05534 4.86957 6.15877C5.25531 6.26229 5.68 6.22015 6.05287 6.00466ZM5.88427 4.81596C5.92627 4.65907 5.90914 4.48633 5.82166 4.33466C5.73427 4.18308 5.5934 4.08182 5.4367 4.03977C5.28001 3.9978 5.10749 4.01487 4.95601 4.10246C4.80453 4.18996 4.70349 4.331 4.66149 4.4879C4.61949 4.64479 4.63662 4.81753 4.72401 4.9692C4.81149 5.12087 4.95236 5.22204 5.10905 5.26409C5.26575 5.30615 5.43827 5.28899 5.58975 5.20149C5.74123 5.1139 5.84227 4.97286 5.88427 4.81596Z" fill="black"/>
<path d="M7.34828 5.21247L8.00515 5.5018C8.03871 5.51703 8.05428 5.55264 8.03897 5.58625C7.87662 6.01714 7.61297 6.39257 7.28949 6.69852L8.78732 7.65651C8.82941 7.68672 8.82915 7.74637 8.78462 7.77205L8.02732 8.20991C8.00497 8.22279 7.97419 8.22079 7.95019 8.20486L6.82715 7.34743L7.00132 8.74841C7.0068 8.77505 6.99306 8.80274 6.96715 8.8178L6.20975 9.25557C6.16523 9.28134 6.11141 9.248 6.10854 9.20011L6.03097 7.42605C5.60454 7.5536 5.15175 7.59235 4.69419 7.51991C4.66115 7.51416 4.63228 7.48125 4.63802 7.44825L4.71619 6.73396C4.72132 6.69138 4.75628 6.66622 4.79515 6.67345C5.30967 6.76757 5.8481 6.71402 6.30471 6.45004C6.76132 6.18614 7.07523 5.75185 7.25271 5.25279C7.26958 5.21335 7.31254 5.19341 7.34828 5.21247Z" fill="black"/>
</svg>
