<svg width="12" height="12" viewBox="0 0 12 12" fill="none" xmlns="http://www.w3.org/2000/svg">
<path d="M5.525 5.08962C5.70069 4.98803 5.81784 4.82446 5.86655 4.64251C5.91526 4.46056 5.89543 4.26022 5.79405 4.0844C5.69258 3.90849 5.52922 3.79119 5.3475 3.74242C5.16577 3.69365 4.96569 3.7135 4.79008 3.81501C4.61439 3.9166 4.49724 4.08017 4.44853 4.26212C4.39982 4.44407 4.41965 4.64441 4.52103 4.82023C4.6225 4.99614 4.78586 5.11344 4.96758 5.16221C5.14931 5.21098 5.34939 5.19112 5.525 5.08962Z" fill="black"/>
<path fill-rule="evenodd" clip-rule="evenodd" d="M6 1C8.75983 1 11 3.24073 11 6.00004C11 8.75935 8.75983 11 6 11C3.24017 11 1 8.75935 1 6.00004C1 3.24073 3.24017 1 6 1ZM6.72432 3.54652C6.97397 3.97948 7.02277 4.47259 6.90285 4.92048C6.78303 5.36837 6.49449 5.77103 6.06216 6.02099C5.62975 6.27087 5.13725 6.31982 4.68992 6.19975C4.2426 6.07977 3.84044 5.79088 3.59079 5.35792C3.34113 4.92505 3.29234 4.43194 3.41225 3.98405C3.53208 3.53616 3.82061 3.1335 4.25303 2.88354C4.68535 2.63357 5.17785 2.58472 5.62518 2.70478C6.07251 2.82476 6.47466 3.11365 6.72432 3.54652ZM7.56439 5.10224C7.52292 5.08014 7.4731 5.10328 7.45361 5.14902C7.24775 5.72776 6.8837 6.23141 6.35413 6.53748C5.82465 6.84364 5.20025 6.90562 4.60353 6.7966C4.55844 6.78814 4.51784 6.81732 4.51189 6.86677L4.42129 7.69505C4.41465 7.73337 4.4481 7.77153 4.48637 7.77809C5.01706 7.86216 5.54223 7.81727 6.03672 7.66933L6.12663 9.72673C6.12999 9.78223 6.19241 9.8209 6.24404 9.79103L7.12232 9.28333C7.15249 9.26589 7.16835 9.2337 7.16206 9.20288L6.95999 7.57818L8.26241 8.57253C8.29025 8.59091 8.32603 8.59324 8.3518 8.57831L9.23008 8.07061C9.2818 8.04074 9.28206 7.9716 9.23318 7.93665L7.4962 6.82569C7.87137 6.47085 8.17715 6.03548 8.36542 5.53571C8.38318 5.49679 8.36508 5.45553 8.32611 5.43775L7.56439 5.10224Z" fill="black"/>
</svg>
