<svg width="12" height="12" viewBox="0 0 12 12" fill="none" xmlns="http://www.w3.org/2000/svg">
<path fill-rule="evenodd" clip-rule="evenodd" d="M9.17845 4.26466C9.46035 4.78017 9.62069 5.37155 9.62069 6C9.62069 7.99828 7.99828 9.62069 6 9.62069C4.00172 9.62069 2.37931 7.99828 2.37931 6C2.37931 4.00172 4.00172 2.37931 6 2.37931C6.09741 2.37931 6.1931 2.38276 6.28879 2.39052C6.33879 2.39483 6.38879 2.4 6.43879 2.40603C6.81724 2.45172 7.16121 2.1819 7.2069 1.80345C7.25259 1.42586 6.98276 1.0819 6.60431 1.03621C6.53621 1.02759 6.46638 1.02069 6.39655 1.01552C6.26638 1.00517 6.13362 1 6 1C3.24052 1 1 3.24052 1 6C1 8.75948 3.24052 11 6 11C8.75948 11 11 8.75948 11 6C11 5.13103 10.7776 4.31466 10.3879 3.60259C10.2052 3.2681 9.78535 3.14569 9.45172 3.32845C9.1181 3.51121 8.99483 3.93103 9.17845 4.26466ZM5.45691 6.94044C5.44311 6.93182 5.43018 6.92406 5.41639 6.91458C5.12242 6.72062 4.92673 6.387 4.92673 6.00769C4.92673 5.40855 5.41294 4.92234 6.01208 4.92234C6.61122 4.92234 7.09742 5.40855 7.09742 6.00769C7.09742 6.38441 6.90518 6.71544 6.61467 6.91027C6.60346 6.91803 6.59225 6.92493 6.58105 6.93182C6.25777 7.13182 6.15777 7.55768 6.35777 7.88096C6.55863 8.2051 6.98363 8.3051 7.30777 8.10424C7.33277 8.08872 7.35777 8.0732 7.38191 8.05682C8.04225 7.61458 8.47673 6.86113 8.47673 6.00769C8.47673 4.64734 7.37242 3.54303 6.01208 3.54303C4.65173 3.54303 3.54742 4.64734 3.54742 6.00769C3.54742 6.86803 3.9888 7.62579 4.65777 8.06631C4.68708 8.08613 4.71725 8.1051 4.74829 8.1232C5.07501 8.31889 5.49915 8.21286 5.69398 7.88613C5.88967 7.55941 5.78363 7.13527 5.45691 6.94044ZM8.32673 1.66299C8.80173 1.66299 9.18794 2.0492 9.18794 2.52506C9.18794 3.00006 8.80173 3.38627 8.32673 3.38627C7.85087 3.38627 7.46466 3.00006 7.46466 2.52506C7.46466 2.0492 7.85087 1.66299 8.32673 1.66299Z" fill="black"/>
</svg>
