<svg width="24" height="24" viewBox="0 0 24 24" fill="none" xmlns="http://www.w3.org/2000/svg">
<path fill-rule="evenodd" clip-rule="evenodd" d="M18.8614 8.25148C19.4752 9.36436 19.8218 10.6416 19.8218 12C19.8218 16.3168 16.3168 19.8218 12 19.8218C7.68317 19.8218 4.17822 16.3168 4.17822 12C4.17822 7.68317 7.68317 4.17822 12 4.17822C12.2079 4.17822 12.4158 4.18614 12.6238 4.20297C12.7327 4.21089 12.8416 4.22178 12.9406 4.23465C13.5446 4.30693 14.0891 3.88119 14.1584 3.28416C14.2277 2.68812 13.802 2.14455 13.2079 2.07228C13.0693 2.05545 12.9307 2.04158 12.7921 2.03069C12.5248 2.0099 12.2673 2 12 2C6.47525 2 2 6.4802 2 12C2 17.5188 6.47525 22 12 22C17.5149 22 22 17.5188 22 12C22 10.2624 21.5545 8.62871 20.7723 7.20495C20.4851 6.67723 19.8218 6.48416 19.297 6.77228C18.7624 7.06139 18.5743 7.72376 18.8614 8.25148ZM10.703 14.2327C10.6733 14.2129 10.6337 14.1931 10.604 14.1723C9.901 13.7109 9.44555 12.9168 9.44555 12.0158C9.44555 10.5921 10.5941 9.43664 12.0198 9.43664C13.4456 9.43664 14.604 10.5921 14.604 12.0158C14.604 12.9109 14.1485 13.699 13.4555 14.1624C13.4257 14.1792 13.4059 14.196 13.3762 14.2129C12.8614 14.5287 12.703 15.201 13.0198 15.7119C13.3366 16.2228 14.0099 16.3812 14.5248 16.0644C14.5743 16.0347 14.6238 16.004 14.6634 15.9713C15.9406 15.1178 16.7822 13.6644 16.7822 12.0158C16.7822 9.3901 14.6535 7.25842 12.0198 7.25842C9.39605 7.25842 7.26733 9.3901 7.26733 12.0158C7.26733 13.6772 8.11882 15.1406 9.40595 15.9911C9.46535 16.0287 9.52476 16.0663 9.58417 16.101C10.099 16.4099 10.7723 16.2416 11.0792 15.7257C11.3861 15.2109 11.2178 14.5406 10.703 14.2327ZM16.8018 3.50494C17.5345 3.50494 18.1186 4.09207 18.1186 4.81484C18.1186 5.5386 17.5345 6.12573 16.8018 6.12573C16.079 6.12573 15.4949 5.5386 15.4949 4.81484C15.4949 4.09207 16.079 3.50494 16.8018 3.50494Z" fill="black"/>
</svg>
