<svg width="16" height="16" viewBox="0 0 16 16" fill="none" xmlns="http://www.w3.org/2000/svg">
<path fill-rule="evenodd" clip-rule="evenodd" d="M12.5538 5.50421C12.9583 6.24344 13.1891 7.09116 13.1891 7.99312C13.1891 10.8599 10.8612 13.187 7.99462 13.187C5.12893 13.187 2.80108 10.8599 2.80108 7.99312C2.80108 5.12632 5.12893 2.79922 7.99462 2.79922C8.13436 2.79922 8.27227 2.80474 8.40834 2.81577C8.48097 2.82129 8.55268 2.82865 8.62439 2.83692C9.02799 2.88565 9.39391 2.59787 9.44263 2.19515C9.49136 1.79244 9.20451 1.42559 8.80091 1.37686C8.70989 1.36582 8.61703 1.35663 8.52418 1.34927C8.3495 1.33548 8.17298 1.32812 7.99462 1.32812C4.31712 1.32812 1.33008 4.31446 1.33008 7.99312C1.33008 11.6718 4.31712 14.6581 7.99462 14.6581C11.673 14.6581 14.6601 11.6718 14.6601 7.99312C14.6601 6.83555 14.364 5.74602 13.8437 4.79716C13.6488 4.44134 13.201 4.31078 12.8452 4.5057C12.4894 4.70062 12.3589 5.14747 12.5538 5.50421ZM7.13867 9.46974C7.1166 9.45687 7.09638 9.444 7.07523 9.43021C6.61187 9.12495 6.30571 8.59995 6.30571 8.00416C6.30571 7.06265 7.07063 6.2986 8.01207 6.2986C8.95351 6.2986 9.71751 7.06265 9.71751 8.00416C9.71751 8.59536 9.41596 9.11668 8.95903 9.42285C8.94156 9.4348 8.92409 9.44584 8.90662 9.45687C8.56186 9.67018 8.45521 10.1235 8.66851 10.4692C8.88272 10.814 9.33597 10.9206 9.68074 10.7073C9.71383 10.6871 9.74601 10.6668 9.77727 10.6457C10.6286 10.0757 11.1885 9.10472 11.1885 8.00416C11.1885 6.25079 9.76532 4.8275 8.01207 4.8275C6.25883 4.8275 4.83472 6.25079 4.83472 8.00416C4.83472 9.113 5.40381 10.0904 6.26618 10.6586C6.30388 10.6834 6.34341 10.7082 6.38294 10.7321C6.73138 10.9399 7.1828 10.8268 7.3915 10.4784C7.60019 10.1299 7.48619 9.67845 7.13867 9.46974ZM11.1949 2.08207C11.8192 2.08207 12.3257 2.58868 12.3257 3.21206C12.3257 3.83636 11.8192 4.34297 11.1949 4.34297C10.5716 4.34297 10.065 3.83636 10.065 3.21206C10.065 2.58868 10.5716 2.08207 11.1949 2.08207Z" fill="black"/>
</svg>
