<svg width="16" height="16" viewBox="0 0 16 16" fill="none" xmlns="http://www.w3.org/2000/svg">
<path fill-rule="evenodd" clip-rule="evenodd" d="M8.03137 0.0742188C7.54827 0.0742188 7.09107 0.292519 6.78737 0.668219L5.97567 1.67242L4.72877 1.33712C4.26226 1.21172 3.76407 1.30382 3.37317 1.58772C2.98237 1.87172 2.74087 2.31702 2.71597 2.79952L2.64947 4.08902L1.44367 4.55062C0.992465 4.72342 0.643565 5.09072 0.494265 5.55022C0.345065 6.00962 0.411365 6.51192 0.674865 6.91682L1.37897 7.99912L0.674865 9.08142C0.411365 9.48632 0.345065 9.98862 0.494265 10.448C0.643565 10.9075 0.992465 11.2748 1.44367 11.4476L2.64947 11.9093L2.71597 13.1987C2.74087 13.6812 2.98237 14.1265 3.37317 14.4105C3.76407 14.6944 4.26226 14.7865 4.72877 14.6611L5.97567 14.3258L6.78737 15.33C7.09107 15.7057 7.54827 15.924 8.03137 15.924C8.51437 15.924 8.97157 15.7057 9.27527 15.33L10.0871 14.3258L11.334 14.6611C11.8005 14.7865 12.2987 14.6944 12.6895 14.4105C13.0803 14.1265 13.3219 13.6812 13.3468 13.1987L13.4132 11.9092L14.6191 11.4476C15.0702 11.2748 15.4191 10.9075 15.5684 10.448C15.7177 9.98862 15.6513 9.48632 15.3879 9.08142L14.6837 7.99912L15.3879 6.91682C15.6513 6.51192 15.7177 6.00962 15.5684 5.55022C15.4191 5.09072 15.0702 4.72342 14.6191 4.55062L13.4132 4.08892L13.3468 2.79952C13.3219 2.31702 13.0803 1.87172 12.6895 1.58772C12.2987 1.30382 11.8005 1.21172 11.334 1.33712L10.087 1.67242L9.27527 0.668219C8.97157 0.292519 8.51437 0.0742188 8.03137 0.0742188ZM6.89277 3.08301C6.89277 3.08301 7.52457 2.30091 8.03137 1.67401L9.16997 3.08301C9.36887 3.32911 9.69417 3.43481 9.99977 3.35261L11.7491 2.88201L11.8421 4.69111C11.8584 5.00721 12.0595 5.28391 12.355 5.39711L14.0469 6.04461L13.0587 7.56281C12.8861 7.82811 12.8861 8.17011 13.0587 8.43541L14.0469 9.95371L12.355 10.6011C12.0595 10.7143 11.8584 10.991 11.8421 11.3071L11.7491 13.1162L9.99977 12.6456C9.69417 12.5634 9.36887 12.6691 9.16997 12.9152L8.03137 14.3242L6.89277 12.9152C6.69377 12.6691 6.36847 12.5634 6.06287 12.6456L4.31357 13.1162L4.22057 11.3071C4.20427 10.991 4.00327 10.7143 3.70767 10.6011L2.01587 9.95361L3.00397 8.43541C3.17657 8.17011 3.17657 7.82811 3.00397 7.56281L2.01587 6.04451L3.70767 5.39711C4.00327 5.28391 4.20427 5.00721 4.22057 4.69111L4.31357 2.88201L6.06287 3.35261C6.36847 3.43481 6.69377 3.32911 6.89277 3.08301Z" fill="black"/>
<path d="M10.1986 7.88091L10.8107 8.71561C10.8416 8.75881 10.8354 8.81451 10.7921 8.84541C10.279 9.26581 9.67925 9.54401 9.05475 9.69241L10.2357 11.9676C10.2666 12.0356 10.2233 12.1098 10.1491 12.1098H8.88785C8.85075 12.1098 8.81365 12.085 8.79515 12.048L8.00995 10.1685L7.21855 12.0418C7.20615 12.0789 7.16905 12.1036 7.12585 12.1036H5.86455C5.79035 12.1036 5.74715 12.0232 5.77805 11.9614L6.95885 9.69241C6.33445 9.54401 5.74095 9.26581 5.22155 8.84541C5.18455 8.81451 5.17215 8.75271 5.20305 8.71561L5.81515 7.88091C5.85225 7.83151 5.91405 7.82531 5.95735 7.86241C6.53225 8.35081 7.24325 8.67231 8.00375 8.67231C8.76415 8.67231 9.46905 8.35701 10.0502 7.86241C10.0997 7.82531 10.1677 7.83151 10.1986 7.88091Z" fill="black"/>
<path fill-rule="evenodd" clip-rule="evenodd" d="M9.60868 7.32163C9.20148 7.72883 8.64068 7.98253 8.01978 7.98253C7.39888 7.98253 6.83808 7.72883 6.43078 7.32163C6.02348 6.91433 5.76978 6.35353 5.76978 5.73263C5.76978 5.11173 6.02348 4.55093 6.43078 4.14373C6.83808 3.73643 7.39888 3.48273 8.01978 3.48273C8.64068 3.48273 9.20148 3.73643 9.60868 4.14373C10.016 4.55093 10.2697 5.11173 10.2697 5.73263C10.2697 6.35353 10.016 6.91433 9.60868 7.32163ZM8.93377 5.73263C8.93377 5.98493 8.83067 6.21273 8.66527 6.37813C8.49977 6.54363 8.27197 6.64663 8.01977 6.64663C7.76747 6.64663 7.53967 6.54363 7.37427 6.37813C7.20877 6.21273 7.10577 5.98493 7.10577 5.73263C7.10577 5.48043 7.20877 5.25263 7.37427 5.08713C7.53967 4.92173 7.76747 4.81863 8.01977 4.81863C8.27197 4.81863 8.49977 4.92173 8.66527 5.08713C8.83067 5.25263 8.93377 5.48043 8.93377 5.73263Z" fill="black"/>
</svg>
