<svg width="24" height="24" viewBox="0 0 24 24" fill="none" xmlns="http://www.w3.org/2000/svg">
<path fill-rule="evenodd" clip-rule="evenodd" d="M12.047 1.23828C11.315 1.23828 10.622 1.56928 10.162 2.13828L9.22099 3.30328L7.77499 2.91428C7.068 2.72428 6.31299 2.86428 5.72099 3.29428C5.12899 3.72428 4.763 4.39928 4.72499 5.13028L4.64799 6.62528L3.24899 7.16128C2.56599 7.42228 2.03699 7.97928 1.81099 8.67528C1.58499 9.37128 1.68499 10.1323 2.08499 10.7463L2.90099 12.0013L2.08499 13.2563C1.68499 13.8703 1.58499 14.6313 1.81099 15.3273C2.03699 16.0233 2.56599 16.5803 3.24899 16.8413L4.64799 17.3773L4.72499 18.8723C4.763 19.6033 5.12899 20.2783 5.72099 20.7083C6.31299 21.1383 7.068 21.2783 7.77499 21.0883L9.22099 20.6993L10.162 21.8643C10.622 22.4333 11.315 22.7643 12.047 22.7643C12.779 22.7643 13.472 22.4333 13.932 21.8643L14.873 20.6993L16.319 21.0883C17.026 21.2783 17.781 21.1383 18.373 20.7083C18.965 20.2783 19.331 19.6033 19.369 18.8723L19.446 17.3773L20.844 16.8413C21.528 16.5803 22.057 16.0233 22.283 15.3273C22.509 14.6313 22.408 13.8703 22.009 13.2563L21.193 12.0013L22.009 10.7463C22.408 10.1323 22.509 9.37128 22.283 8.67528C22.057 7.97928 21.528 7.42228 20.844 7.16128L19.446 6.62528L19.369 5.13028C19.331 4.39928 18.965 3.72428 18.373 3.29428C17.781 2.86428 17.026 2.72428 16.319 2.91428L14.873 3.30328L13.932 2.13828C13.472 1.56928 12.779 1.23828 12.047 1.23828ZM10.367 5.06628L11.717 3.39628C11.798 3.29628 11.919 3.23828 12.047 3.23828C12.175 3.23828 12.296 3.29628 12.376 3.39628L13.727 5.06628C13.975 5.37428 14.382 5.50628 14.764 5.40328L16.838 4.84628C16.962 4.81228 17.094 4.83728 17.197 4.91228C17.301 4.98728 17.365 5.10528 17.372 5.23328L17.482 7.37828C17.502 7.77328 17.754 8.11928 18.123 8.26028L20.129 9.02828C20.249 9.07428 20.341 9.17228 20.381 9.29328C20.42 9.41528 20.403 9.54828 20.333 9.65528L19.161 11.4563C18.946 11.7873 18.946 12.2153 19.161 12.5463L20.333 14.3473C20.403 14.4543 20.42 14.5873 20.381 14.7093C20.341 14.8303 20.249 14.9283 20.129 14.9743L18.123 15.7423C17.754 15.8833 17.502 16.2293 17.482 16.6243L17.372 18.7693C17.365 18.8973 17.301 19.0153 17.197 19.0903C17.094 19.1653 16.962 19.1903 16.839 19.1573L14.764 18.5993C14.382 18.4963 13.975 18.6283 13.727 18.9363L12.376 20.6063C12.296 20.7063 12.175 20.7643 12.047 20.7643C11.919 20.7643 11.798 20.7063 11.717 20.6063L10.367 18.9363C10.118 18.6283 9.712 18.4963 9.33 18.5993L7.255 19.1563C7.132 19.1903 7 19.1653 6.896 19.0903C6.793 19.0153 6.729 18.8973 6.722 18.7693L6.612 16.6243C6.591 16.2293 6.34 15.8833 5.971 15.7423L3.965 14.9743C3.845 14.9283 3.753 14.8303 3.713 14.7093C3.674 14.5873 3.691 14.4543 3.761 14.3473L4.932 12.5463C5.148 12.2153 5.148 11.7873 4.932 11.4563L3.761 9.65528C3.691 9.54828 3.674 9.41528 3.713 9.29328C3.753 9.17228 3.845 9.07428 3.965 9.02828L5.971 8.26028C6.34 8.11928 6.591 7.77328 6.612 7.37828L6.722 5.23328C6.729 5.10528 6.793 4.98728 6.896 4.91228C7 4.83728 7.132 4.81228 7.255 4.84528L9.33 5.40328C9.712 5.50628 10.118 5.37428 10.367 5.06628Z" fill="black"/>
<path fill-rule="evenodd" clip-rule="evenodd" d="M12.059 12.0373C12.884 12.0373 13.629 11.7003 14.171 11.1593C14.712 10.6183 15.049 9.87228 15.049 9.04728C15.049 8.22228 14.712 7.47728 14.171 6.93628C13.629 6.39428 12.884 6.05728 12.059 6.05728C11.234 6.05728 10.489 6.39428 9.947 6.93628C9.406 7.47728 9.069 8.22228 9.069 9.04728C9.069 9.87228 9.406 10.6183 9.947 11.1593C10.489 11.7003 11.234 12.0373 12.059 12.0373ZM12.917 9.90528C13.137 9.68528 13.274 9.38228 13.274 9.04728C13.274 8.71228 13.137 8.40928 12.917 8.18928C12.697 7.96928 12.394 7.83328 12.059 7.83328C11.724 7.83328 11.421 7.96928 11.201 8.18928C10.981 8.40928 10.844 8.71228 10.844 9.04728C10.844 9.38228 10.981 9.68528 11.201 9.90528C11.421 10.1253 11.724 10.2623 12.059 10.2623C12.394 10.2623 12.697 10.1253 12.917 9.90528Z" fill="black"/>
<path d="M14.972 11.8193L15.784 12.9273C15.825 12.9843 15.817 13.0583 15.759 13.0993C15.078 13.6573 14.283 14.0263 13.454 14.2233L15.021 17.2423C15.062 17.3323 15.005 17.4303 14.906 17.4303H13.233C13.184 17.4303 13.134 17.3973 13.11 17.3483L12.068 14.8553L11.018 17.3403C11.002 17.3893 10.952 17.4223 10.895 17.4223H9.221C9.123 17.4223 9.066 17.3153 9.107 17.2333L10.673 14.2233C9.845 14.0263 9.057 13.6573 8.368 13.0993C8.319 13.0583 8.303 12.9763 8.344 12.9273L9.156 11.8193C9.205 11.7543 9.287 11.7463 9.345 11.7953C10.107 12.4433 11.051 12.8693 12.06 12.8693C13.069 12.8693 14.004 12.4513 14.775 11.7953C14.841 11.7463 14.931 11.7543 14.972 11.8193Z" fill="black"/>
</svg>
