<svg width="24" height="24" viewBox="0 0 24 24" fill="none" xmlns="http://www.w3.org/2000/svg">
<path fill-rule="evenodd" clip-rule="evenodd" d="M12 2C6.481 2 2 6.48 2 12C2 17.519 6.481 22 12 22C17.519 22 22 17.519 22 12C22 6.48 17.519 2 12 2ZM12 4C16.415 4 20 7.58 20 12C20 16.415 16.415 20 12 20C7.585 20 4 16.415 4 12C4 7.58 7.585 4 12 4ZM13.126 8.306V15.694C13.126 16.301 13.619 16.794 14.226 16.794C14.833 16.794 15.326 16.301 15.326 15.694V8.306C15.326 7.7 14.833 7.21 14.226 7.21C13.619 7.21 13.126 7.7 13.126 8.306ZM8.768 8.306V15.694C8.768 16.301 9.261 16.794 9.868 16.794C10.475 16.794 10.968 16.301 10.968 15.694V8.306C10.968 7.7 10.475 7.21 9.868 7.21C9.261 7.21 8.768 7.7 8.768 8.306Z" fill="black"/>
</svg>
