<svg width="16" height="16" viewBox="0 0 16 16" fill="none" xmlns="http://www.w3.org/2000/svg">
<path fill-rule="evenodd" clip-rule="evenodd" d="M7.99994 0.710938C3.97694 0.710938 0.710938 3.97694 0.710938 7.99994C0.710938 12.0229 3.97694 15.2889 7.99994 15.2889C12.0229 15.2889 15.2889 12.0229 15.2889 7.99994C15.2889 3.97694 12.0229 0.710938 7.99994 0.710938ZM7.99994 2.31094C11.1399 2.31094 13.6889 4.85994 13.6889 7.99994C13.6889 11.1399 11.1399 13.6889 7.99994 13.6889C4.85994 13.6889 2.31094 11.1399 2.31094 7.99994C2.31094 4.85994 4.85994 2.31094 7.99994 2.31094ZM8.87094 5.51194V10.4949C8.87094 11.0469 9.31894 11.4949 9.87094 11.4949C10.4229 11.4949 10.8709 11.0469 10.8709 10.4949V5.51194C10.8709 4.95994 10.4229 4.51194 9.87094 4.51194C9.31894 4.51194 8.87094 4.95994 8.87094 5.51194ZM5.12894 5.50494V10.4879C5.12894 11.0399 5.57694 11.4879 6.12894 11.4879C6.68094 11.4879 7.12894 11.0399 7.12894 10.4879V5.50494C7.12894 4.95294 6.68094 4.50494 6.12894 4.50494C5.57694 4.50494 5.12894 4.95294 5.12894 5.50494Z" fill="black"/>
</svg>
