<svg width="24" height="24" viewBox="0 0 24 24" fill="none" xmlns="http://www.w3.org/2000/svg">
<path fill-rule="evenodd" clip-rule="evenodd" d="M3.1891 18.5211L2.4551 19.2542C2.0651 19.6441 2.0651 20.2782 2.4551 20.6681C2.8461 21.0592 3.4791 21.0592 3.8701 20.6681L4.5941 19.9442C5.5111 20.3942 6.6181 20.3632 7.5261 19.8052C7.5991 19.7602 7.6491 19.7292 7.6491 19.7292L7.6481 19.7302C7.7141 19.6901 7.7751 19.6422 7.8301 19.5872L19.3891 8.13715C19.4781 8.04915 19.5611 7.95515 19.6371 7.85715L20.2701 8.49015C20.5611 8.78115 20.5631 9.25415 20.2721 9.54815L16.3691 13.4902C16.0391 13.8232 16.0421 14.3622 16.3751 14.6922C16.7081 15.0222 17.2471 15.0191 17.5771 14.6861C17.5771 14.6861 20.0001 12.2392 21.4801 10.7442C22.4291 9.78615 22.4251 8.24115 21.4721 7.28815L20.2761 6.09215L20.2781 6.01215C20.2801 5.21415 19.9641 4.44815 19.3991 3.88415C19.3541 3.83815 19.3081 3.79315 19.2631 3.74715C18.6981 3.18315 17.9321 2.86715 17.1341 2.86915C16.3361 2.87115 15.5721 3.19015 15.0101 3.75715L3.5731 15.3021L3.4321 15.4811L3.3481 15.6172C2.7941 16.5142 2.7551 17.6091 3.1891 18.5211ZM7.4741 14.2062L8.9411 15.6721L6.5051 18.0851L6.4791 18.1012C6.0681 18.3532 5.5381 18.2912 5.1981 17.9502C4.8581 17.6082 4.7961 17.0781 5.0501 16.6681L5.0741 16.6281L7.4741 14.2062ZM10.3611 14.2652L8.8821 12.7852L16.4311 5.16515C16.6181 4.97615 16.8731 4.86915 17.1391 4.86915C17.4051 4.86815 17.6601 4.97415 17.8481 5.16215L17.9851 5.29815C18.1731 5.48615 18.2791 5.74215 18.2781 6.00815C18.2771 6.27415 18.1711 6.52915 17.9821 6.71615L10.3611 14.2652Z" fill="black"/>
</svg>
