<svg width="24" height="24" viewBox="0 0 24 24" fill="none" xmlns="http://www.w3.org/2000/svg">
<path fill-rule="evenodd" clip-rule="evenodd" d="M15.6222 4.28434C15.4352 4.23234 15.2412 4.20534 15.0442 4.20634C14.4712 4.20734 13.9242 4.43734 13.5212 4.84434C11.4352 6.95634 5.91019 12.5483 3.84419 14.6393C3.18819 15.3033 2.74119 16.1433 2.55819 17.0583L2.29719 18.3613C2.22919 18.7003 2.24719 19.0453 2.34119 19.3673L1.57619 20.1323C1.18619 20.5233 1.18619 21.1563 1.57619 21.5473C1.96619 21.9373 2.60019 21.9373 2.99019 21.5473L3.74619 20.7913C4.07119 20.8913 4.42119 20.9123 4.76619 20.8453L6.05419 20.5963C6.98019 20.4173 7.83219 19.9673 8.50319 19.3043L18.2592 9.66734L18.5512 9.95934C18.8432 10.2513 18.8442 10.7243 18.5542 11.0173L15.3022 14.3023C14.9722 14.6353 14.9752 15.1743 15.3082 15.5043C15.6412 15.8343 16.1802 15.8323 16.5102 15.4983L19.7622 12.2143C20.7112 11.2553 20.7072 9.71134 19.7532 8.75734L18.9342 7.93734C18.9262 7.82134 18.9072 7.70534 18.8802 7.59334L19.7782 6.70734C20.1612 6.32934 20.3772 5.81434 20.3792 5.27634C20.3802 4.73834 20.1672 4.22234 19.7872 3.84134L19.3262 3.38034C18.9392 2.99434 18.4122 2.78034 17.8662 2.78934C17.3192 2.79834 16.7992 3.02834 16.4252 3.42734L15.6222 4.28434ZM7.51519 13.7693L9.37619 15.6303L7.09719 17.8823C6.70719 18.2673 6.21219 18.5283 5.67419 18.6323L4.38619 18.8823C4.35019 18.8893 4.31319 18.8773 4.28819 18.8523C4.26219 18.8263 4.25119 18.7893 4.25819 18.7543L4.51919 17.4513C4.62619 16.9193 4.88519 16.4313 5.26619 16.0453L7.51519 13.7693ZM10.7992 14.2253L8.92119 12.3463L14.9442 6.25034C14.9722 6.22234 15.0102 6.20634 15.0502 6.20634C15.0892 6.20634 15.1282 6.22134 15.1562 6.24934L16.8962 7.99034C16.9242 8.01834 16.9402 8.05634 16.9402 8.09634C16.9402 8.13634 16.9242 8.17434 16.8962 8.20234L10.7992 14.2253ZM17.9032 6.16834L18.5842 5.49734C18.6442 5.43734 18.6782 5.35534 18.6792 5.27034C18.6792 5.18534 18.6452 5.10434 18.5852 5.04334L18.1242 4.58234C18.0632 4.52134 17.9792 4.48734 17.8932 4.48934C17.8062 4.49034 17.7242 4.52734 17.6652 4.59034L17.0162 5.28234L17.9032 6.16834Z" fill="black"/>
</svg>
