<svg width="24" height="24" viewBox="0 0 24 24" fill="none" xmlns="http://www.w3.org/2000/svg">
<path fill-rule="evenodd" clip-rule="evenodd" d="M1.15039 12.0004C1.15039 6.01195 6.01195 1.15039 12.0004 1.15039C17.9888 1.15039 22.8504 6.01195 22.8504 12.0004C22.8504 17.9888 17.9888 22.8504 12.0004 22.8504C6.01195 22.8504 1.15039 17.9888 1.15039 12.0004ZM21.1504 12.0004C21.1504 11.5872 21.1229 11.1803 21.0697 10.7815C20.9736 10.061 20.7935 9.36688 20.5396 8.70933C19.6248 6.34039 17.7519 4.44612 15.3973 3.50281C14.7438 3.241 14.0532 3.05245 13.3356 2.94732C12.8997 2.88346 12.4539 2.85039 12.0004 2.85039C6.95083 2.85039 2.85039 6.95083 2.85039 12.0004C2.85039 17.0499 6.95083 21.1504 12.0004 21.1504C17.0499 21.1504 21.1504 17.0499 21.1504 12.0004Z" fill="black"/>
<path d="M21.0697 10.7815C20.9736 10.061 20.7935 9.36688 20.5396 8.70933L14.1502 13.2019L10.8316 9.88525L15.3973 3.50281C14.7438 3.241 14.0532 3.05245 13.3356 2.94732L9.20589 8.72029C8.63613 9.51395 8.726 10.6061 9.41812 11.2982L9.45582 11.3359L9.92413 10.4922L13.5351 14.1042C13.5351 14.1042 13.2109 14.2842 12.6921 14.5722L12.7361 14.6162C13.4247 15.3028 14.5059 15.3965 15.3002 14.8382L21.0697 10.7815Z" fill="black"/>
<path d="M13.5351 14.1042L9.92413 10.4922L9.45582 11.3359L12.6921 14.5722L13.5351 14.1042Z" fill="black"/>
<path d="M7.12713 15.5312C6.90813 15.9242 6.97713 16.4142 7.29513 16.7322C7.61313 17.0502 8.10313 17.1192 8.49713 16.9012C10.0036 16.0646 11.7021 15.1217 12.6921 14.5722L9.45582 11.3359L7.12713 15.5312Z" fill="black"/>
</svg>
