<svg width="24" height="24" viewBox="0 0 24 24" fill="none" xmlns="http://www.w3.org/2000/svg">
<path fill-rule="evenodd" clip-rule="evenodd" d="M17.0499 12.8381C14.7499 12.8381 12.8899 14.6981 12.8899 16.9981C12.8899 19.2981 14.7499 21.1581 17.0499 21.1581C19.3399 21.1581 21.2099 19.2981 21.2099 16.9981C21.2099 14.6981 19.3399 12.8381 17.0499 12.8381ZM6.05988 20.7081L19.7199 4.70812C20.1099 4.24812 20.0599 3.55813 19.5899 3.15813C19.1299 2.76813 18.4399 2.81813 18.0399 3.28813L4.37988 19.2781C3.98988 19.7381 4.03988 20.4381 4.50988 20.8281C4.96988 21.2281 5.65988 21.1681 6.05988 20.7081ZM17.0499 14.9381C18.1799 14.9381 19.1099 15.8581 19.1099 16.9981C19.1099 18.1381 18.1799 19.0581 17.0499 19.0581C15.9099 19.0581 14.9899 18.1381 14.9899 16.9981C14.9899 15.8581 15.9099 14.9381 17.0499 14.9381ZM7.04988 2.82812C4.74988 2.82812 2.87988 4.69813 2.87988 6.99813C2.87988 9.29813 4.74988 11.1681 7.04988 11.1681C9.34988 11.1681 11.2199 9.29813 11.2199 6.99813C11.2199 4.69813 9.34988 2.82812 7.04988 2.82812ZM7.04988 4.92812C8.18988 4.92812 9.11988 5.85813 9.11988 6.99813C9.11988 8.13812 8.18988 9.06812 7.04988 9.06812C5.89988 9.06812 4.97988 8.13812 4.97988 6.99813C4.97988 5.85813 5.89988 4.92812 7.04988 4.92812Z" fill="black"/>
</svg>
