<svg width="16" height="16" viewBox="0 0 16 16" fill="none" xmlns="http://www.w3.org/2000/svg">
<path fill-rule="evenodd" clip-rule="evenodd" d="M11.6998 8.22248C9.99959 8.22248 8.61929 9.60278 8.61929 11.303C8.61929 13.0032 9.99959 14.3836 11.6998 14.3836C13.4 14.3836 14.7803 13.0032 14.7803 11.303C14.7803 9.60278 13.4 8.22248 11.6998 8.22248ZM4.34739 13.7014L13.0892 3.46468C13.4118 3.08698 13.367 2.51838 12.9893 2.19578C12.6116 1.87328 12.043 1.91808 11.7204 2.29578L2.97859 12.5325C2.65609 12.9102 2.70079 13.4788 3.07859 13.8014C3.45629 14.1239 4.02489 14.0792 4.34739 13.7014ZM11.6998 9.82248C12.5169 9.82248 13.1803 10.4859 13.1803 11.303C13.1803 12.1202 12.5169 12.7836 11.6998 12.7836C10.8827 12.7836 10.2193 12.1202 10.2193 11.303C10.2193 10.4859 10.8827 9.82248 11.6998 9.82248ZM4.36389 1.61328C2.65929 1.61328 1.27539 2.99718 1.27539 4.70178C1.27539 6.40628 2.65929 7.79018 4.36389 7.79018C6.06839 7.79018 7.45239 6.40628 7.45239 4.70178C7.45239 2.99718 6.06839 1.61328 4.36389 1.61328ZM4.36389 3.21328C5.18539 3.21328 5.85239 3.88028 5.85239 4.70178C5.85239 5.52328 5.18539 6.19018 4.36389 6.19018C3.54239 6.19018 2.87539 5.52328 2.87539 4.70178C2.87539 3.88028 3.54239 3.21328 4.36389 3.21328Z" fill="black"/>
</svg>
