<svg width="16" height="16" viewBox="0 0 16 16" fill="none" xmlns="http://www.w3.org/2000/svg">
<path fill-rule="evenodd" clip-rule="evenodd" d="M8.36919 14.7706C8.25019 14.7906 8.1282 14.8006 8.0042 14.8006H2.9962C1.4522 14.8006 0.200195 13.5506 0.200195 12.0006C0.200195 10.8606 0.653195 9.77063 1.4582 8.97062C2.2642 8.16062 3.3572 7.71063 4.4962 7.71063C5.1552 7.71063 5.8452 7.71063 6.5042 7.71063C7.5282 7.71063 8.5142 8.07063 9.2872 8.73063C9.4312 8.71063 9.5762 8.70063 9.7222 8.70063H12.2502C13.1922 8.70063 14.0942 9.08063 14.7602 9.74063C15.4262 10.4106 15.8002 11.3106 15.8002 12.2506V12.2606C15.8002 13.6606 14.6612 14.8006 13.2562 14.8006H8.7162C8.5982 14.8006 8.48219 14.7906 8.36919 14.7706ZM4.4962 9.31063H6.5042C7.2192 9.31063 7.9052 9.59062 8.4102 10.1006C8.91619 10.6006 9.2002 11.2906 9.2002 12.0006C9.2002 12.6606 8.6652 13.2006 8.0042 13.2006H2.9962C2.3352 13.2006 1.8002 12.6606 1.8002 12.0006C1.8002 11.2906 2.0842 10.6006 2.5902 10.1006C3.0952 9.59062 3.7812 9.31063 4.4962 9.31063ZM10.4482 10.3006C10.6782 10.8306 10.8002 11.4106 10.8002 12.0006C10.8002 12.4306 10.7042 12.8406 10.5282 13.2006H13.2562C13.7772 13.2006 14.2002 12.7806 14.2002 12.2606V12.2506C14.2002 11.7406 13.9952 11.2406 13.6292 10.8706C13.2632 10.5106 12.7672 10.3006 12.2502 10.3006H10.4482ZM11.0252 3.18062C9.76719 3.18062 8.7452 4.20062 8.7452 5.46062C8.7452 6.73063 9.76719 7.75063 11.0252 7.75063C12.2832 7.75063 13.3052 6.73063 13.3052 5.46062C13.3052 4.20062 12.2832 3.18062 11.0252 3.18062ZM5.5112 1.64062C4.1342 1.64062 3.0152 2.76063 3.0152 4.14062C3.0152 5.52063 4.1342 6.64062 5.5112 6.64062C6.8872 6.64062 8.0062 5.52063 8.0062 4.14062C8.0062 2.76063 6.8872 1.64062 5.5112 1.64062ZM11.0252 4.78063C11.4012 4.78063 11.7052 5.09063 11.7052 5.46063C11.7052 5.84063 11.4012 6.15063 11.0252 6.15063C10.6492 6.15063 10.3452 5.84063 10.3452 5.46063C10.3452 5.09063 10.6492 4.78063 11.0252 4.78063ZM5.5112 3.24063C6.0052 3.24063 6.4062 3.65062 6.4062 4.14062C6.4062 4.64062 6.0052 5.04063 5.5112 5.04063C5.0162 5.04063 4.6152 4.64062 4.6152 4.14062C4.6152 3.65062 5.0162 3.24063 5.5112 3.24063Z" fill="black"/>
</svg>
