<svg width="24" height="24" viewBox="0 0 24 24" fill="none" xmlns="http://www.w3.org/2000/svg">
<g clip-path="url(#clip0_32159_363)">
<path d="M15.112 6.45474C15.112 7.13498 14.5606 7.68643 13.8804 7.68643C13.2001 7.68643 12.6487 7.13498 12.6487 6.45474C12.6487 5.77449 13.2001 5.22305 13.8804 5.22305C14.5606 5.22305 15.112 5.77449 15.112 6.45474Z" fill="black"/>
<path fill-rule="evenodd" clip-rule="evenodd" d="M8.79984 5.95609C10.232 6.63466 11.9641 7.78029 13.6797 9.22128C15.3952 10.6623 16.8226 12.1706 17.7382 13.4642C18.1916 14.1047 18.5538 14.7402 18.7449 15.3213C18.9159 15.8416 19.0547 16.6533 18.5179 17.2924C18.2929 17.5603 18.0174 17.7165 17.7334 17.8018L6.281 22.0916C4.0937 22.9109 1.85044 21.0266 2.27981 18.7307L4.52862 6.70583C4.56403 6.41263 4.67039 6.11576 4.89449 5.84897C5.43129 5.2099 6.25475 5.20649 6.79679 5.28518C7.40219 5.37307 8.09068 5.62009 8.79984 5.95609ZM4.24572 19.0983L5.93983 10.0396C6.85501 11.2478 8.17516 12.6117 9.73277 13.9201C11.2903 15.2284 12.8615 16.2932 14.2095 16.986L5.57945 20.2186C4.85035 20.4917 4.1026 19.8636 4.24572 19.0983ZM16.1058 14.6197C16.4713 15.136 16.7004 15.5558 16.8154 15.8623C16.4937 15.8019 16.0406 15.6487 15.4689 15.3779C14.2314 14.7916 12.6428 13.7524 11.0191 12.3886C9.39552 11.0248 8.09776 9.6394 7.30662 8.5217C6.94111 8.00533 6.71204 7.58551 6.59703 7.27907C6.91872 7.33945 7.37178 7.49261 7.9435 7.76349C9.18099 8.3498 10.7697 9.38891 12.3933 10.7527C14.0169 12.1165 15.3147 13.502 16.1058 14.6197Z" fill="black"/>
<path d="M6.94001 0.496075C7.55537 0.371418 8.19365 0.409968 8.78916 0.608336C9.3848 0.806744 9.91787 1.15851 10.3313 1.62981C10.745 2.10128 11.0234 2.67487 11.1351 3.2915C11.2468 3.90821 11.187 4.54271 10.963 5.12821L9.09507 4.41342C9.18895 4.16811 9.2135 3.90402 9.16712 3.64789C9.12072 3.39168 9.0045 3.15006 8.82793 2.9488C8.6512 2.74735 8.42009 2.59344 8.1571 2.50583C7.89399 2.41819 7.61058 2.40086 7.33709 2.45626L6.94001 0.496075Z" fill="black"/>
<path d="M16.3606 2.70641C16.0972 3.43734 15.7324 3.99654 15.4187 4.47105L13.7503 3.3681C14.061 2.89812 14.3043 2.51327 14.479 2.0285C14.65 1.55375 14.7701 0.936575 14.7449 0.0281105L16.7441 -0.0273438C16.7752 1.09529 16.6275 1.96546 16.3606 2.70641Z" fill="black"/>
<path d="M21.5456 3.36855C21.5456 4.0488 20.9942 4.60024 20.3139 4.60024C19.6337 4.60024 19.0823 4.0488 19.0823 3.36855C19.0823 2.68831 19.6337 2.13687 20.3139 2.13687C20.9942 2.13687 21.5456 2.68831 21.5456 3.36855Z" fill="black"/>
<path d="M22.359 8.38035C19.4018 7.75054 17.7482 9.27082 17.3437 9.9208L15.6456 8.86403C16.444 7.58122 18.9035 5.59954 22.7756 6.42422L22.359 8.38035Z" fill="black"/>
<path d="M18.9504 11.2371C19.842 10.9941 20.7903 11.07 21.632 11.4514C22.4736 11.8329 23.1558 12.4961 23.5608 13.3267L21.7631 14.2032C21.5622 13.7912 21.2238 13.4623 20.8063 13.273C20.3889 13.0838 19.9184 13.0462 19.4762 13.1667L18.9504 11.2371Z" fill="black"/>
</g>
<defs>
<clipPath id="clip0_32159_363">
<rect width="24" height="24" fill="white"/>
</clipPath>
</defs>
</svg>
