<svg width="24" height="24" viewBox="0 0 24 24" fill="none" xmlns="http://www.w3.org/2000/svg">
<path fill-rule="evenodd" clip-rule="evenodd" d="M11.9995 2C17.5195 2 22 6.48 22 12C22 17.52 17.5195 22 11.9995 22C6.48053 22 2 17.52 2 12C2 6.48 6.48053 2 11.9995 2ZM15.0978 17.63C14.4162 17.96 11.8662 18.01 9.30416 13.58C6.74214 9.15 8.00811 6.97 8.6807 6.5C8.8531 6.38 9.30617 6.08 9.70109 5.83C9.8755 5.71 10.09 5.67 10.2935 5.72C10.497 5.77 10.6724 5.9 10.7776 6.08C11.1154 6.66 11.5905 7.48 11.8952 8.01C12.0687 8.31 12.0165 8.69 11.7669 8.93C11.4562 9.23 11.0493 9.63 10.8127 9.85C10.6924 9.97 10.6303 10.14 10.6443 10.3C10.7095 10.66 10.8889 11.35 11.4292 12.29C11.9674 13.22 12.4906 13.76 12.7763 14.02C12.9177 14.13 13.1031 14.16 13.2755 14.11C13.5983 14.02 14.1375 13.87 14.5505 13.75C14.8853 13.65 15.2441 13.79 15.4185 14.1C15.7212 14.62 16.1913 15.43 16.5251 16.01C16.6284 16.19 16.6544 16.4 16.5963 16.6C16.5372 16.8 16.3998 16.97 16.2154 17.06C15.8275 17.26 15.3704 17.5 15.0978 17.63Z" fill="black"/>
</svg>
