<svg width="16" height="16" viewBox="0 0 16 16" fill="none" xmlns="http://www.w3.org/2000/svg">
<path fill-rule="evenodd" clip-rule="evenodd" d="M0.314837 8.52094C0.293837 8.83094 0.263837 9.38094 0.238837 9.88094C0.212837 10.3709 0.389837 10.8509 0.728837 11.2109C1.06884 11.5709 1.54084 11.7809 2.03484 11.7809C2.63684 11.7809 3.38784 11.7809 3.97284 11.7809C4.93584 11.7809 5.72884 11.0209 5.77284 10.0609L5.80184 9.48094C5.80584 9.39094 5.87584 9.31094 5.96884 9.30094C6.50184 9.22094 7.24584 9.14094 8.00884 9.14094C8.76584 9.14094 9.49784 9.23094 10.0208 9.30094C10.1118 9.32094 10.1808 9.40094 10.1848 9.49094L10.2108 10.0609C10.2558 11.0209 11.0478 11.7809 12.0108 11.7809H13.9638C14.4598 11.7809 14.9328 11.5709 15.2728 11.2109C15.6128 10.8509 15.7888 10.3609 15.7588 9.87094C15.7318 9.33094 15.6988 8.75094 15.6808 8.53094C15.5958 7.52094 14.3268 4.72094 7.97384 4.71094C4.35884 4.71094 2.42284 5.65094 1.42684 6.55094C0.599836 7.29094 0.344837 8.07094 0.314837 8.52094ZM1.91084 8.63094C1.92584 8.42094 2.10784 8.09094 2.49884 7.73094C3.32684 6.99094 4.96584 6.31094 7.97284 6.31094C10.5448 6.32094 12.1248 6.79094 13.0628 7.39094C13.7748 7.85094 14.0598 8.35094 14.0858 8.66094C14.1038 8.87094 14.1348 9.44094 14.1618 9.96094C14.1648 10.0209 14.1458 10.0709 14.1078 10.1109C14.0698 10.1509 14.0178 10.1809 13.9628 10.1809H12.0098C11.9028 10.1809 11.8148 10.0909 11.8098 9.99094L11.7828 9.42094C11.7438 8.57094 11.1168 7.86094 10.2778 7.73094C10.2738 7.72094 10.2698 7.72094 10.2658 7.72094C9.68184 7.64094 8.85984 7.54094 8.00884 7.54094C7.15984 7.54094 6.33184 7.63094 5.74084 7.71094C5.73884 7.71094 5.73784 7.71094 5.73584 7.71094C4.88784 7.84094 4.24684 8.54094 4.20384 9.40094C4.19284 9.59094 4.18284 9.79094 4.17484 9.99094C4.16984 10.0909 4.08184 10.1809 3.97484 10.1809H2.03584C1.98184 10.1809 1.92884 10.1509 1.89084 10.1109C1.85384 10.0709 1.83384 10.0209 1.83684 9.96094C1.86184 9.47094 1.88984 8.93094 1.91084 8.63094Z" fill="black"/>
</svg>
