<svg width="12" height="12" viewBox="0 0 12 12" fill="none" xmlns="http://www.w3.org/2000/svg">
<path fill-rule="evenodd" clip-rule="evenodd" d="M0.25762 6.47432C0.366205 4.7831 2.44303 3.26758 5.98798 3.26758C9.54545 3.26758 11.614 4.75682 11.7527 6.47999C11.7542 6.4996 11.7557 6.52249 11.7573 6.54845L11.7971 7.46809C11.8171 7.90417 11.6582 8.32932 11.3563 8.64731C11.0543 8.96329 10.6364 9.14258 10.1994 9.14258L8.89798 9.14358C8.13083 9.14358 7.47242 8.6009 7.3269 7.84939L7.22198 7.31158L7.07871 7.27279C6.8412 7.21493 6.576 7.17591 6.27427 7.16262L6.04098 7.15758C5.46284 7.15758 4.97175 7.25305 4.62939 7.37763L4.75898 7.33458L4.64477 7.8736C4.48869 8.61397 3.83492 9.14358 3.07756 9.14358L1.79898 9.14258C1.3605 9.14258 0.940837 8.96143 0.637164 8.64166C0.335758 8.32229 0.178163 7.89302 0.202082 7.45653L0.25762 6.47432ZM3.07798 7.54358L3.23039 6.84457C3.31946 6.42469 3.60736 6.07381 4.04029 5.89058C4.5896 5.68893 5.26527 5.55758 6.04098 5.55758C6.79423 5.55758 7.41436 5.67544 8.01662 5.89193C8.40399 6.07032 8.68235 6.42605 8.76023 6.84066L8.89739 7.5435L10.198 7.54158L10.1576 6.60475C10.0937 5.81157 8.78251 4.86758 5.98798 4.86758C3.21455 4.86758 1.90261 5.82494 1.8544 6.5757L1.79978 7.54235L3.07798 7.54358Z" fill="black"/>
</svg>
