<svg width="24" height="24" viewBox="0 0 24 24" fill="none" xmlns="http://www.w3.org/2000/svg">
<path fill-rule="evenodd" clip-rule="evenodd" d="M14.4599 14.6107C14.0339 14.2107 13.3339 13.4407 12.6129 12.1907C11.9089 10.9707 11.6279 10.0407 11.5119 9.49072L12.7359 8.30072C13.6029 7.46072 13.7849 6.14072 13.1799 5.09072C12.7769 4.39072 12.2509 3.48072 11.8099 2.72072C11.4449 2.09072 10.8329 1.64072 10.1219 1.47072C9.40995 1.31072 8.66195 1.44072 8.05495 1.85072C7.54495 2.18072 7.03795 2.52072 6.81695 2.67072C6.39395 2.97072 5.83495 3.57072 5.43795 4.55072C4.67695 6.41072 4.41995 9.89071 7.51195 15.2407C10.6049 20.6007 13.7649 22.0807 15.7399 22.3407C16.7819 22.4807 17.5689 22.2907 18.0029 22.0807C18.3459 21.9107 18.8689 21.6407 19.3799 21.3807C20.0209 21.0507 20.5029 20.4707 20.7089 19.7807C20.9139 19.0907 20.8259 18.3407 20.4639 17.7107C20.0299 16.9607 19.5109 16.0607 19.1109 15.3607C18.5029 14.3107 17.2549 13.8107 16.0859 14.1407C15.5269 14.3107 14.8959 14.4907 14.4689 14.6107H14.4599ZM17.1249 20.2807C16.8169 20.4307 16.1719 20.4707 15.3229 20.2107C13.6769 19.7107 11.4879 18.1307 9.24395 14.2407C6.99695 10.3507 6.69495 7.66072 7.08095 5.97072C7.28295 5.09071 7.65195 4.53072 7.95995 4.32072C8.17395 4.17072 8.66195 3.84072 9.16095 3.52072C9.16395 3.51072 9.16595 3.51072 9.16795 3.51072C9.31495 3.41072 9.49695 3.38072 9.66895 3.42072C9.84195 3.46072 9.98995 3.57071 10.0789 3.72072L11.4489 6.09071C11.5959 6.34071 11.5509 6.67072 11.3409 6.87072L10.1119 8.07071C9.67895 8.49072 9.45995 9.08072 9.51495 9.68072C9.51795 9.72072 9.52295 9.75072 9.52995 9.78071C9.65495 10.4207 9.97095 11.6107 10.8809 13.1907C11.7779 14.7507 12.6579 15.6707 13.1599 16.1307C13.1769 16.1507 13.1939 16.1607 13.2109 16.1807C13.7139 16.5807 14.3779 16.7107 14.9959 16.5407C15.4319 16.4207 16.0749 16.2307 16.6439 16.0707C16.9279 15.9807 17.2309 16.1007 17.3779 16.3607L18.7319 18.7107C18.8199 18.8607 18.8409 19.0407 18.7909 19.2107C18.7409 19.3807 18.6239 19.5207 18.4679 19.6007C18.4659 19.6007 18.4639 19.6007 18.4639 19.6007C17.9669 19.8607 17.4579 20.1207 17.1249 20.2807Z" fill="black"/>
</svg>
