<svg width="16" height="16" viewBox="0 0 16 16" fill="none" xmlns="http://www.w3.org/2000/svg">
<path fill-rule="evenodd" clip-rule="evenodd" d="M11.9182 14.9903C12.1982 14.8603 12.6902 14.6103 13.1342 14.3803C13.5732 14.1603 13.9022 13.7603 14.0432 13.2903C14.1842 12.8103 14.1242 12.3003 13.8772 11.8803C13.5762 11.3503 13.2022 10.7003 12.9092 10.2003C12.4292 9.36033 11.3772 9.05033 10.5222 9.50033L10.0072 9.76033C9.92419 9.80033 9.82119 9.78033 9.76219 9.71033C9.43119 9.29033 8.98919 8.68033 8.60819 8.02033C8.22919 7.36033 7.93819 6.69033 7.74519 6.20033C7.71319 6.11033 7.74619 6.01033 7.82519 5.96033L8.30419 5.65033C9.11419 5.13033 9.37319 4.07033 8.89119 3.24033L7.91319 1.55033C7.66519 1.12033 7.25119 0.810331 6.76819 0.690331C6.28619 0.580331 5.77819 0.670331 5.36419 0.940331C4.91419 1.24033 4.42119 1.56033 4.24019 1.68033C3.40819 2.26033 1.62019 4.76033 4.79319 10.2603C6.59819 13.3903 8.37719 14.6003 9.65219 15.0203C10.7112 15.3603 11.5152 15.1903 11.9182 14.9903ZM11.2142 13.5603C11.0232 13.6503 10.6462 13.6603 10.1462 13.4903C9.08419 13.1503 7.68119 12.0703 6.17919 9.46033C4.89419 7.24033 4.51319 5.63033 4.56919 4.52033C4.61119 3.67033 4.89719 3.17033 5.15319 3.00033C5.32719 2.88033 5.80119 2.57033 6.23919 2.28033C6.24119 2.28033 6.24319 2.28033 6.24519 2.28033C6.29119 2.25033 6.34719 2.24033 6.40119 2.25033C6.45419 2.26033 6.50019 2.30033 6.52819 2.35033L7.50619 4.04033C7.55919 4.13033 7.53119 4.25033 7.44119 4.31033L6.96219 4.61033C6.24619 5.07033 5.94919 5.97033 6.24819 6.76033C6.25019 6.77033 6.25119 6.77033 6.25319 6.77033C6.46919 7.32033 6.79619 8.08033 7.22219 8.82033C7.64619 9.56033 8.13719 10.2303 8.50519 10.7003H8.50819C9.04119 11.3703 9.97319 11.5803 10.7362 11.1903C10.9052 11.1003 11.0852 11.0103 11.2582 10.9203C11.3532 10.8703 11.4702 10.9003 11.5232 11.0003L12.4912 12.6703C12.5192 12.7203 12.5252 12.7803 12.5102 12.8303C12.4942 12.8803 12.4572 12.9303 12.4082 12.9503C11.9722 13.1803 11.4882 13.4203 11.2142 13.5603Z" fill="black"/>
</svg>
