<svg width="24" height="24" viewBox="0 0 24 24" fill="none" xmlns="http://www.w3.org/2000/svg">
<path fill-rule="evenodd" clip-rule="evenodd" d="M13.6628 14.0106L20.6638 7.01062C21.5138 8.47062 21.9998 10.1806 21.9998 12.0006C21.9998 17.5206 17.5298 22.0006 12.0228 22.0006C10.2028 22.0006 8.49479 21.5106 7.02579 20.6406L11.3868 16.2806C13.1388 17.9606 14.6198 17.8706 15.1138 17.6306C15.3858 17.5006 15.8418 17.2606 16.2288 17.0606C16.4128 16.9706 16.5498 16.8006 16.6088 16.6006C16.6668 16.4006 16.6408 16.1906 16.5378 16.0106C16.2048 15.4306 15.7358 14.6206 15.4338 14.1006C15.2598 13.7906 14.9018 13.6506 14.5678 13.7506L13.6628 14.0106ZM17.8448 3.89062L19.8438 1.90062C20.2728 1.47062 20.9698 1.47062 21.3988 1.90062C21.8288 2.32062 21.8288 3.02062 21.3988 3.45062L3.29279 21.5606C2.86279 21.9906 2.16579 21.9906 1.73679 21.5606C1.30779 21.1306 1.30779 20.4306 1.73679 20.0006L3.91979 17.8206C2.73979 16.1906 2.04679 14.1706 2.04679 12.0006C2.04679 6.48062 6.51679 2.00063 12.0228 2.00063C14.1968 2.00063 16.2088 2.70062 17.8448 3.89062ZM10.8318 10.9106L8.92079 12.8206C6.92479 8.90063 8.08079 6.94063 8.71179 6.50063C8.88379 6.38063 9.33579 6.08063 9.72979 5.83063C9.90379 5.71063 10.1178 5.67062 10.3208 5.72062C10.5238 5.77063 10.6988 5.90063 10.8038 6.08063C11.1408 6.66062 11.6148 7.48063 11.9188 8.01062C12.0918 8.31063 12.0398 8.69063 11.7908 8.93062C11.4808 9.23063 11.0748 9.63062 10.8388 9.85063C10.7188 9.97062 10.6568 10.1406 10.6708 10.3006C10.6978 10.4506 10.7438 10.6506 10.8318 10.9106Z" fill="black"/>
</svg>
