<svg width="24" height="24" viewBox="0 0 24 24" fill="none" xmlns="http://www.w3.org/2000/svg">
<path fill-rule="evenodd" clip-rule="evenodd" d="M11.4599 14.6093C11.0339 14.2098 10.3339 13.4403 9.61295 12.1916C8.90895 10.9726 8.62795 10.0354 8.51195 9.4945L9.73595 8.3032C10.6029 7.4598 10.7849 6.1356 10.1799 5.0889C9.77695 4.3917 9.25095 3.4825 8.80995 2.7208C8.44495 2.0885 7.83295 1.636 7.12195 1.4708C6.40995 1.3056 5.66195 1.4424 5.05495 1.8488C4.54495 2.1847 4.03795 2.5204 3.81695 2.6746C3.39395 2.9693 2.83495 3.5713 2.43795 4.5452C1.67695 6.4128 1.41995 9.8899 4.51195 15.2439C7.60495 20.6016 10.7649 22.082 12.7399 22.3439C13.7819 22.4822 14.5689 22.2905 15.0029 22.0782C15.3459 21.9107 15.8689 21.6432 16.3799 21.3804C17.0209 21.0536 17.5029 20.4743 17.7089 19.78C17.9139 19.0856 17.8259 18.3373 17.4639 17.71C17.0299 16.9566 16.5109 16.0558 16.1109 15.3618C15.5029 14.308 14.2549 13.8054 13.0859 14.1447C12.5269 14.3071 11.8959 14.4904 11.4689 14.6068L11.4599 14.6093ZM14.1249 20.2815C13.8169 20.4321 13.1719 20.4688 12.3229 20.212C10.6769 19.7142 8.48795 18.1317 6.24395 14.2439C3.99695 10.3527 3.69495 7.6627 4.08095 5.9713C4.28295 5.0869 4.65195 4.5304 4.95995 4.3157C5.17395 4.167 5.66195 3.8436 6.16095 3.5152C6.16395 3.5137 6.16595 3.5122 6.16795 3.5106C6.31495 3.4121 6.49695 3.3789 6.66895 3.419C6.84195 3.459 6.98995 3.5688 7.07895 3.7221L8.44895 6.0903C8.59595 6.3442 8.55095 6.6654 8.34095 6.87L7.11195 8.0661C6.67895 8.4869 6.45995 9.0813 6.51495 9.6829C6.51795 9.717 6.52295 9.7508 6.52995 9.7843C6.65495 10.4198 6.97095 11.6149 7.88095 13.1916C8.77795 14.7456 9.65795 15.6713 10.1599 16.1315C10.1769 16.1467 10.1939 16.1613 10.2109 16.1753C10.7139 16.5765 11.3779 16.7106 11.9959 16.5361C12.4319 16.4173 13.0749 16.2308 13.6439 16.0653C13.9279 15.983 14.2309 16.1049 14.3779 16.3606L15.7319 18.7095C15.8199 18.8617 15.8409 19.0432 15.7909 19.2116C15.7409 19.3801 15.6239 19.5206 15.4679 19.6003C15.4659 19.601 15.4639 19.6024 15.4639 19.6024C14.9669 19.8581 14.4579 20.1185 14.1249 20.2815ZM16.2579 7.3375L16.2549 5.0076C16.2549 4.4557 15.8059 4.008 15.2549 4.0085C14.7029 4.009 14.2549 4.4575 14.2549 5.0094L14.2599 9.7358C14.2599 10.2862 14.7049 10.7328 15.2559 10.7349L19.9959 10.7531C20.5479 10.7552 20.9979 10.3088 20.9999 9.7569C21.0019 9.205 20.5559 8.7552 20.0039 8.7531L17.6789 8.7442L21.7289 4.6946C22.1189 4.3043 22.1189 3.6706 21.7289 3.2803C21.3389 2.8901 20.7049 2.8901 20.3149 3.2803L16.2579 7.3375Z" fill="black"/>
</svg>
