<svg width="24" height="24" viewBox="0 0 24 24" fill="none" xmlns="http://www.w3.org/2000/svg">
<path fill-rule="evenodd" clip-rule="evenodd" d="M12 2C6.48217 2 2 6.48 2 12C2 17.52 6.48217 22 12 22C17.5178 22 22 17.52 22 12C22 6.48 17.5178 2 12 2ZM12 4C16.4119 4 19.991 7.59 19.991 12C19.991 16.41 16.4119 20 12 20C7.58815 20 4.00904 16.41 4.00904 12C4.00904 7.59 7.58815 4 12 4ZM15.1261 17.63C14.443 17.96 11.8875 18.01 9.31993 13.58C6.75238 9.15 8.02109 6.97 8.69512 6.5C8.8679 6.38 9.32194 6.08 9.71772 5.83C9.89251 5.71 10.1075 5.67 10.3114 5.72C10.5153 5.77 10.6911 5.9 10.7966 6.08C11.1351 6.66 11.6112 7.48 11.9166 8.01C12.0904 8.31 12.0382 8.69 11.788 8.93C11.4766 9.23 11.0688 9.63 10.8317 9.85C10.7112 9.97 10.6489 10.14 10.663 10.3C10.7283 10.66 10.9081 11.35 11.4495 12.29C11.9889 13.22 12.5133 13.76 12.7996 14.02C12.9412 14.13 13.1271 14.16 13.2998 14.11C13.6233 14.02 14.1637 13.87 14.5776 13.75C14.9131 13.65 15.2727 13.79 15.4475 14.1C15.7509 14.62 16.222 15.43 16.5565 16.01C16.66 16.19 16.6861 16.4 16.6278 16.6C16.5686 16.8 16.4309 16.97 16.2461 17.06C15.8574 17.26 15.3993 17.5 15.1261 17.63Z" fill="black"/>
</svg>
