<svg width="12" height="12" viewBox="0 0 12 12" fill="none" xmlns="http://www.w3.org/2000/svg">
<path fill-rule="evenodd" clip-rule="evenodd" d="M7.44117 6.92693C7.21217 6.71393 6.89417 6.36193 6.59817 5.85093C6.32217 5.37193 6.18517 4.96593 6.11617 4.68393L6.57717 4.28293C7.15617 3.78093 7.29617 2.93793 6.91317 2.27393L6.20817 1.05693C5.98917 0.678934 5.62517 0.406934 5.20117 0.302934C4.77617 0.199934 4.32817 0.274934 3.96017 0.510934C3.60317 0.734934 3.21017 0.982934 3.06717 1.08193C2.38617 1.54993 0.764169 3.69893 3.18217 7.88593C5.60417 12.0819 8.30917 11.6999 8.99717 11.3599C9.21217 11.2539 9.59017 11.0619 9.93517 10.8869C10.3272 10.6889 10.6202 10.3379 10.7462 9.91593C10.8712 9.49493 10.8182 9.04093 10.5982 8.65993C10.3782 8.27793 10.1122 7.81693 9.90817 7.46193C9.53017 6.80593 8.74417 6.50493 8.02417 6.73993L7.44117 6.92693ZM8.52117 8.26093L9.21217 9.45993L8.28717 9.92593C8.15217 9.99293 7.87217 9.99993 7.50817 9.90293C6.69117 9.68593 5.63417 8.93493 4.56717 7.08593C3.49917 5.23493 3.36417 3.94193 3.58117 3.11793C3.68017 2.74193 3.83717 2.49393 3.97417 2.39893C4.10817 2.30693 4.47517 2.07593 4.81617 1.86293L4.82317 1.85793C5.04717 2.24393 5.29617 2.68793 5.52817 3.07593L4.94117 3.58593C4.62117 3.86193 4.45317 4.27693 4.48917 4.69893C4.49217 4.72393 4.49517 4.74793 4.49917 4.77193C4.56617 5.14093 4.73117 5.81693 5.21317 6.65093C5.70217 7.49893 6.24517 8.01993 6.55117 8.27593C6.56317 8.28493 6.57417 8.29393 6.58617 8.30293C6.92717 8.55593 7.36717 8.62993 7.77117 8.50193L8.52117 8.26093Z" fill="black"/>
</svg>
