<svg width="16" height="16" viewBox="0 0 16 16" fill="none" xmlns="http://www.w3.org/2000/svg">
<path fill-rule="evenodd" clip-rule="evenodd" d="M7.99707 1.00977C11.8601 1.00977 14.9971 4.14977 14.9971 8.00977C14.9971 11.8698 11.8601 15.0098 7.99707 15.0098C4.13307 15.0098 0.99707 11.8698 0.99707 8.00977C0.99707 4.14977 4.13307 1.00977 7.99707 1.00977ZM10.4521 12.7798C9.92807 13.0398 8.07507 12.9898 6.00307 9.39977C3.90407 5.75976 4.77307 4.16977 5.28907 3.80977C5.41107 3.72977 5.74007 3.50977 6.05007 3.30977C6.21607 3.19977 6.42107 3.15977 6.61607 3.19977C6.81107 3.24977 6.97807 3.36977 7.07807 3.54977C7.31307 3.94977 7.61207 4.46977 7.84007 4.86977C8.03407 5.19977 7.93107 5.62977 7.60607 5.83977C7.56707 5.85977 7.52807 5.88977 7.48907 5.90977C7.08207 6.16977 6.92107 6.68977 7.10607 7.13977C7.26007 7.49977 7.46607 7.93977 7.71707 8.37977C7.96907 8.80977 8.25207 9.21977 8.48907 9.53977C8.78107 9.92977 9.31207 10.0498 9.74507 9.82977C9.78807 9.80976 9.83107 9.78977 9.87307 9.76977C10.2171 9.58977 10.6391 9.70977 10.8321 10.0498C11.0581 10.4398 11.3541 10.9498 11.5871 11.3598C11.6871 11.5298 11.7111 11.7398 11.6541 11.9298C11.5961 12.1198 11.4631 12.2798 11.2851 12.3698C10.9791 12.5198 10.6441 12.6898 10.4521 12.7798Z" fill="black"/>
</svg>
