<svg width="16" height="16" viewBox="0 0 16 16" fill="none" xmlns="http://www.w3.org/2000/svg">
<path fill-rule="evenodd" clip-rule="evenodd" d="M9.17173 14.9903C9.45173 14.8603 9.94273 14.6103 10.3877 14.3803C10.8267 14.1603 11.1557 13.7603 11.2967 13.2903C11.4377 12.8103 11.3777 12.3003 11.1307 11.8803C10.8297 11.3503 10.4557 10.7003 10.1627 10.2003C9.68173 9.36033 8.62973 9.05033 7.77473 9.50033L7.26073 9.76033C7.17673 9.80033 7.07473 9.78033 7.01573 9.71033C6.68473 9.29033 6.24273 8.68033 5.86173 8.02033C5.48273 7.36033 5.19173 6.69033 4.99873 6.20033C4.96673 6.11033 4.99973 6.01033 5.07873 5.96033L5.55773 5.65033C6.36773 5.13033 6.62573 4.07033 6.14473 3.24033L5.16673 1.55033C4.91773 1.12033 4.50373 0.810331 4.02173 0.690331C3.53873 0.580331 3.03073 0.670331 2.61773 0.940331C2.16673 1.24033 1.67473 1.56033 1.49373 1.68033C0.661726 2.26033 -1.12727 4.76033 2.04573 10.2603C3.85173 13.3903 5.62973 14.6003 6.90573 15.0203C7.96473 15.3603 8.76873 15.1903 9.17173 14.9903ZM8.46773 13.5603C8.27673 13.6503 7.89973 13.6603 7.39973 13.4903C6.33773 13.1503 4.93473 12.0703 3.43273 9.46033C2.14773 7.24033 1.76673 5.63033 1.82273 4.52033C1.86473 3.67033 2.15073 3.17033 2.40673 3.00033C2.58073 2.88033 3.05473 2.57033 3.49273 2.28033C3.49473 2.28033 3.49773 2.28033 3.49773 2.28033C3.54373 2.25033 3.60073 2.24033 3.65373 2.25033C3.70773 2.26033 3.75373 2.30033 3.78173 2.35033L4.75973 4.04033C4.81273 4.13033 4.78373 4.25033 4.69373 4.31033L4.21573 4.61033C3.49973 5.07033 3.20173 5.97033 3.50173 6.76033C3.50373 6.77033 3.50573 6.77033 3.50573 6.77033C3.72273 7.32033 4.04973 8.08033 4.47573 8.82033C4.89973 9.56033 5.39073 10.2303 5.75773 10.7003C5.75973 10.7003 5.76173 10.7003 5.76173 10.7003C6.29373 11.3703 7.22673 11.5803 7.98873 11.1903C8.15773 11.1003 8.33873 11.0103 8.51173 10.9203C8.60673 10.8703 8.72273 10.9003 8.77673 11.0003L9.74473 12.6703C9.77173 12.7203 9.77873 12.7803 9.76273 12.8303C9.74773 12.8803 9.71072 12.9303 9.66173 12.9503H9.65973C9.22472 13.1803 8.74173 13.4203 8.46773 13.5603ZM11.1307 4.13033H9.50373C9.03473 4.13033 8.65373 4.51033 8.65373 4.98033C8.65373 5.45033 9.03473 5.83033 9.50373 5.83033H11.1307V7.46033C11.1307 7.93033 11.5117 8.31033 11.9807 8.31033C12.4497 8.31033 12.8307 7.93033 12.8307 7.46033V5.83033H14.4577C14.9267 5.83033 15.3077 5.45033 15.3077 4.98033C15.3077 4.51033 14.9267 4.13033 14.4577 4.13033H12.8307V2.50033C12.8307 2.04033 12.4497 1.65033 11.9807 1.65033C11.5117 1.65033 11.1307 2.04033 11.1307 2.50033V4.13033Z" fill="black"/>
</svg>
