<svg width="24" height="24" viewBox="0 0 24 24" fill="none" xmlns="http://www.w3.org/2000/svg">
<path fill-rule="evenodd" clip-rule="evenodd" d="M4.35076 18.39C2.91176 16.66 2.04676 14.43 2.04676 12C2.04676 6.48 6.50876 2 12.0018 2C14.4358 2 16.6678 2.88 18.3968 4.34L20.1888 2.55C20.6178 2.12 21.3148 2.12 21.7438 2.55C22.1738 2.98 22.1738 3.68 21.7438 4.11L3.83576 22.01C3.40576 22.44 2.70876 22.44 2.27976 22.01C1.85076 21.59 1.85076 20.89 2.27976 20.46L4.35076 18.39ZM20.9838 7.69C21.6078 8.99 21.9568 10.46 21.9568 12C21.9568 17.52 17.4948 22 12.0018 22C10.4508 22 8.98276 21.64 7.67576 20.99L9.19376 19.48C10.0658 19.82 11.0128 20 12.0018 20C16.3938 20 19.9568 16.41 19.9568 12C19.9568 11.02 19.7808 10.08 19.4588 9.21L20.9838 7.69ZM14.9278 13.74C15.1358 13.77 15.3228 13.9 15.4338 14.1C15.7358 14.62 16.2048 15.43 16.5378 16.01C16.6408 16.19 16.6668 16.4 16.6088 16.6C16.5498 16.8 16.4128 16.97 16.2288 17.06C15.8418 17.26 15.3858 17.5 15.1138 17.63C14.6708 17.85 13.4348 17.94 11.9218 16.75L14.9278 13.74ZM16.9748 5.76L11.1108 11.63C10.8318 11.02 10.7198 10.57 10.6708 10.3C10.6568 10.14 10.7188 9.97 10.8388 9.85C11.0748 9.63 11.4808 9.23 11.7908 8.93C12.0398 8.69 12.0918 8.31 11.9188 8.01C11.6148 7.48 11.1408 6.66 10.8038 6.08C10.6988 5.9 10.5238 5.77 10.3208 5.72C10.1178 5.67 9.90376 5.71 9.72976 5.83C9.33576 6.08 8.88376 6.38 8.71176 6.5C8.04676 6.97 6.79876 9.12 9.27276 13.47L5.77276 16.97C4.69176 15.61 4.04676 13.88 4.04676 12C4.04676 7.59 7.60976 4 12.0018 4C13.8838 4 15.6138 4.66 16.9748 5.76Z" fill="black"/>
</svg>
