<svg width="12" height="12" viewBox="0 0 12 12" fill="none" xmlns="http://www.w3.org/2000/svg">
<path fill-rule="evenodd" clip-rule="evenodd" d="M6 1C3.24156 1 1 3.23966 1 6C1 8.76034 3.24156 11 6 11C8.75844 11 11 8.76034 11 6C11 3.23966 8.75844 1 6 1ZM6 2.37939C7.99567 2.37939 9.61472 4.00267 9.61472 6.00008C9.61472 7.9975 7.99567 9.62077 6 9.62077C4.00433 9.62077 2.38528 7.9975 2.38528 6.00008C2.38528 4.00267 4.00433 2.37939 6 2.37939ZM7.45108 8.6223C7.10823 8.79127 5.84676 8.8542 4.65195 6.79385C3.45714 4.73351 4.11948 3.67661 4.45888 3.44385C4.55152 3.38092 4.80173 3.21799 5.00866 3.08437C5.08831 3.03265 5.18528 3.01541 5.27792 3.03782C5.37056 3.05937 5.45022 3.11799 5.49784 3.19989C5.65628 3.47144 5.88052 3.85851 6.02424 4.10506C6.10476 4.24385 6.07792 4.42058 5.96018 4.53006C5.74805 4.72661 5.44502 5.00851 5.44502 5.00851C5.44502 5.00851 5.4355 5.41972 5.80779 6.06282C6.01299 6.41627 6.21818 6.6473 6.36104 6.78351C6.47792 6.88092 6.63463 6.91627 6.78269 6.8792C6.9316 6.84816 7.12295 6.80075 7.27533 6.76282C7.42511 6.72575 7.58182 6.79213 7.65888 6.92575C7.80087 7.17058 8.02857 7.56368 8.18701 7.83782C8.23463 7.91972 8.24675 8.01627 8.21991 8.10678C8.19394 8.1973 8.13074 8.27316 8.04762 8.31627C7.84502 8.42144 7.59567 8.55075 7.45108 8.6223Z" fill="black"/>
</svg>
