<svg width="24" height="24" viewBox="0 0 24 24" fill="none" xmlns="http://www.w3.org/2000/svg">
<path fill-rule="evenodd" clip-rule="evenodd" d="M9.02715 13.3302C9.58716 13.1602 10.6032 12.9302 12.0452 12.9302C13.4522 12.9302 14.4042 13.1602 14.9312 13.3302L15.3512 14.9902C15.6482 16.1602 16.7032 16.9802 17.9122 16.9802C18.7182 16.9802 19.7682 16.9802 20.6482 16.9702C21.3792 16.9702 22.0762 16.6702 22.5752 16.1402C23.0742 15.6002 23.3292 14.8902 23.2812 14.1602C23.2452 13.5502 23.2082 12.9402 23.1852 12.6702C23.1412 12.1602 22.8992 11.3702 22.2542 10.5402C21.0172 8.95023 18.1342 6.99023 11.9522 6.99023C5.76616 6.99023 2.90316 8.99023 1.68916 10.5702C1.04916 11.4002 0.821155 12.1802 0.788155 12.6602C0.761155 13.0402 0.731155 13.6302 0.704155 14.2002C0.667155 14.9202 0.927155 15.6302 1.42516 16.1502C1.92415 16.6802 2.61616 16.9702 3.34016 16.9702C4.21016 16.9802 5.24916 16.9802 6.05016 16.9802C7.26716 16.9802 8.32616 16.1502 8.61716 14.9702C8.75616 14.4002 8.91216 13.7602 9.02516 13.3302H9.02715ZM2.78316 12.8002C2.80616 12.4502 3.09716 11.8802 3.74416 11.2702C4.99816 10.0902 7.46316 8.99023 11.9522 8.99023C16.4452 8.99023 18.9262 10.0702 20.1982 11.2502C20.8632 11.8702 21.1602 12.4702 21.1922 12.8402C21.2142 13.1002 21.2502 13.6902 21.2852 14.2802C21.2852 14.2902 21.2852 14.2902 21.2852 14.2902C21.2972 14.4702 21.2352 14.6402 21.1142 14.7702C20.9932 14.9002 20.8242 14.9702 20.6472 14.9702L17.9112 14.9802C17.6172 14.9802 17.3612 14.7802 17.2892 14.4902L16.8682 12.8302C16.7202 12.2502 16.3152 11.7602 15.7662 11.5102C15.7352 11.4902 15.7032 11.4802 15.6712 11.4702C15.0582 11.2602 13.8652 10.9302 12.0452 10.9302C10.2502 10.9302 9.00916 11.2302 8.35916 11.4402C8.33816 11.4502 8.31716 11.4502 8.29616 11.4602C7.69716 11.7002 7.24916 12.2002 7.09116 12.8302C6.97616 13.2602 6.81616 13.9102 6.67416 14.4902C6.60416 14.7802 6.34716 14.9802 6.05216 14.9802L3.34116 14.9702C3.16516 14.9702 2.99715 14.9002 2.87716 14.7702C2.75616 14.6502 2.69216 14.4802 2.70216 14.3002C2.72816 13.7402 2.75716 13.1702 2.78316 12.8002Z" fill="black"/>
</svg>
