<svg width="12" height="12" viewBox="0 0 12 12" fill="none" xmlns="http://www.w3.org/2000/svg">
<path fill-rule="evenodd" clip-rule="evenodd" d="M6 1C8.75977 1 11 3.24083 11 6C11 8.75917 8.75977 11 6 11C3.24023 11 1 8.75917 1 6C1 3.24083 3.24023 1 6 1ZM7.55196 8.81346C7.20615 8.98262 5.91731 9.01346 4.63682 6.79929C3.3555 4.58596 4.00201 3.48679 4.34364 3.25012C4.43803 3.18429 4.69696 3.01429 4.90662 2.87762C4.98346 2.82679 5.07785 2.81012 5.16723 2.83096C5.25744 2.85262 5.33428 2.90929 5.38022 2.98846C5.55647 3.29262 5.82209 3.75096 5.97996 4.02346C6.0568 4.15596 6.03341 4.32429 5.92316 4.43012C5.80121 4.54762 5.64334 4.69929 5.5264 4.81262C5.41948 4.91512 5.3677 5.06262 5.38691 5.20929C5.43786 5.40262 5.53642 5.71012 5.76111 6.09846C5.98831 6.49096 6.21133 6.74512 6.36168 6.89096C6.47695 6.98846 6.63231 7.02346 6.77849 6.98596C6.94304 6.94762 7.16272 6.89012 7.32977 6.84679C7.47511 6.80846 7.6288 6.87262 7.70398 7.00262C7.86018 7.27346 8.12663 7.73429 8.30204 8.03762C8.34715 8.11596 8.35884 8.21012 8.33295 8.29762C8.30789 8.38512 8.24691 8.45846 8.16589 8.50012C7.96041 8.60679 7.70147 8.74012 7.55196 8.81346Z" fill="black"/>
</svg>
