<svg width="24" height="24" viewBox="0 0 24 24" fill="none" xmlns="http://www.w3.org/2000/svg">
<path d="M5.0127 20H14.7936L15.2031 19.2133C14.8211 18.9934 14.4528 18.7417 14.1016 18.4574L14.0796 18.4394C13.9283 18.3133 13.7993 18.1644 13.6934 18H5.0127C4.9524 18 4.89229 17.9982 4.8324 17.9946L12.472 10.1653C12.6602 9.9725 12.9183 9.8637 13.1878 9.8637C13.4572 9.8637 13.7153 9.9725 13.9034 10.1653L14.6156 10.8951C14.8085 10.2023 15.143 9.5683 15.5855 9.0253L15.3349 8.7686C14.7703 8.19 13.9961 7.8637 13.1878 7.8637C12.3794 7.8637 11.6052 8.19 11.0406 8.7686L2.8911 17.121C2.3285 16.5584 2.0127 15.7957 2.0127 15.0001V7C2.0127 6.2043 2.3288 5.4413 2.8914 4.8787C3.454 4.3161 4.2171 4 5.0127 4H14.9824C15.7781 4 16.5412 4.3161 17.1038 4.8787C17.6664 5.4413 17.9824 6.2043 17.9825 6.9999V7.3736C18.4866 7.2081 19.0251 7.1186 19.5847 7.1186C19.7185 7.1186 19.8512 7.1237 19.9825 7.1337V7C19.9825 5.6739 19.4557 4.4021 18.518 3.4645C17.5803 2.5268 16.3085 2 14.9824 2H5.0127C3.6867 2 2.4149 2.5268 1.4772 3.4645C0.539495 4.4021 0.0126953 5.6739 0.0126953 7V15C0.0126953 16.3261 0.539495 17.5979 1.4772 18.5355C2.4149 19.4732 3.6867 20 5.0127 20Z" fill="black"/>
<path d="M22.9008 15.4416L23.8281 16.7062C23.875 16.7718 23.8656 16.8561 23.8 16.9029C23.0225 17.5399 22.1139 17.9614 21.1678 18.1863L22.957 21.6335C23.0038 21.7365 22.9382 21.8489 22.8258 21.8489H20.9149C20.8586 21.8489 20.8024 21.8115 20.7743 21.7553L19.5847 18.9076L18.3856 21.7459C18.3669 21.8021 18.3107 21.8396 18.2451 21.8396H16.3342C16.2218 21.8396 16.1562 21.7178 16.203 21.6241L17.9922 18.1863C17.0461 17.9614 16.1468 17.5399 15.3599 16.9029C15.3037 16.8561 15.285 16.7624 15.3318 16.7062L16.2592 15.4416C16.3154 15.3667 16.4091 15.3573 16.4747 15.4135C17.3458 16.1535 18.4231 16.6406 19.5753 16.6406C20.7275 16.6406 21.7954 16.1629 22.6759 15.4135C22.7509 15.3573 22.8539 15.3667 22.9008 15.4416Z" fill="black"/>
<path fill-rule="evenodd" clip-rule="evenodd" d="M19.5847 15.4322C20.4558 15.4322 21.2427 15.0763 21.8141 14.5048C22.3855 13.9334 22.7415 13.1466 22.7415 12.2754C22.7415 11.4042 22.3855 10.6174 21.8141 10.0459C21.2427 9.47449 20.4558 9.11859 19.5847 9.11859C18.7135 9.11859 17.9266 9.47449 17.3552 10.0459C16.7838 10.6174 16.4278 11.4042 16.4278 12.2754C16.4278 13.1466 16.7838 13.9334 17.3552 14.5048C17.9266 15.0763 18.7135 15.4322 19.5847 15.4322ZM19.5847 10.8328C19.1912 10.8328 18.8353 10.992 18.573 11.2543C18.3107 11.5166 18.1514 11.8726 18.1514 12.266C18.1514 12.6595 18.3107 13.0154 18.573 13.2777C18.8353 13.54 19.1912 13.6992 19.5847 13.6992C19.9781 13.6992 20.3341 13.54 20.5964 13.2777C20.8586 13.0154 21.0179 12.6595 21.0179 12.266C21.0179 11.8726 20.8586 11.5166 20.5964 11.2543C20.3341 11.0014 19.9781 10.8328 19.5847 10.8328Z" fill="black"/>
<path d="M5.50519 5.77802C6.45399 5.77802 7.22429 6.54961 7.22429 7.50002C7.22429 8.45042 6.45399 9.22202 5.50519 9.22202C4.55639 9.22202 3.78609 8.45042 3.78609 7.50002C3.78609 6.54961 4.55639 5.77802 5.50519 5.77802Z" fill="black"/>
</svg>
