<svg width="24" height="24" viewBox="0 0 24 24" fill="none" xmlns="http://www.w3.org/2000/svg">
<path fill-rule="evenodd" clip-rule="evenodd" d="M10.8798 2.99983H6.02881C3.26681 2.99983 1.02881 5.23883 1.02881 7.99983V15.9998C1.02881 18.7608 3.26681 20.9998 6.02881 20.9998C8.99781 20.9998 13.0298 20.9998 15.9998 20.9998C18.7608 20.9998 20.9998 18.7608 20.9998 15.9998V10.8448C20.5908 11.7148 19.8728 12.3928 18.9998 12.7588V15.9998C18.9998 16.1858 18.9828 16.3688 18.9498 16.5448L14.5168 12.0018C13.9518 11.4238 13.1778 11.0968 12.3698 11.0968C11.5608 11.0968 10.7868 11.4238 10.2228 12.0018L4.08881 18.2878C3.43981 17.7378 3.02881 16.9168 3.02881 15.9998V7.99983C3.02881 6.34283 4.37181 4.99983 6.02881 4.99983H9.97181C10.0738 4.24483 10.3968 3.55283 10.8798 2.99983ZM17.8938 18.3258L13.0848 13.3988C12.8968 13.2058 12.6388 13.0968 12.3698 13.0968C12.0998 13.0968 11.8418 13.2058 11.6538 13.3988L6.18781 18.9998H15.9998C16.7178 18.9998 17.3778 18.7478 17.8938 18.3258ZM15.7538 1.52283L15.4878 2.69083C15.3918 3.11183 15.0608 3.44083 14.6378 3.53283L13.4348 3.79583C12.6198 3.97283 12.0378 4.69183 12.0308 5.52483C12.0248 6.35883 12.5968 7.08583 13.4088 7.27583L14.6458 7.56483C15.0588 7.66183 15.3818 7.98483 15.4788 8.39883L15.7548 9.58683C15.9448 10.3998 16.6728 10.9738 17.5078 10.9658C18.3428 10.9588 19.0618 10.3738 19.2368 9.55683L19.4898 8.37783C19.5818 7.95183 19.9128 7.61783 20.3388 7.52283L21.5378 7.25583C22.3548 7.07383 22.9358 6.34883 22.9338 5.51183C22.9328 4.67483 22.3498 3.95183 21.5328 3.77183L20.3228 3.50683C19.8938 3.41283 19.5608 3.07683 19.4698 2.64683L19.2388 1.55083C19.0668 0.730829 18.3458 0.141829 17.5078 0.134829C16.6698 0.127829 15.9398 0.704829 15.7538 1.52283ZM6.52081 6.77783C7.46981 6.77783 8.24081 7.54983 8.24081 8.49983C8.24081 9.44983 7.46981 10.2218 6.52081 10.2218C5.57281 10.2218 4.80181 9.44983 4.80181 8.49983C4.80181 7.54983 5.57281 6.77783 6.52081 6.77783ZM17.4928 1.99283L17.7088 3.01783C17.9448 4.13983 18.8168 5.01983 19.9378 5.26483L21.0758 5.51483L19.9478 5.76583C18.8358 6.01383 17.9698 6.88583 17.7298 7.99983L17.4918 9.10883L17.2318 7.98983C16.9798 6.90983 16.1368 6.06483 15.0558 5.81283L13.8878 5.53883L15.0218 5.29183C16.1268 5.05083 16.9928 4.19283 17.2438 3.08983L17.4928 1.99283Z" fill="black"/>
</svg>
