<svg width="12" height="12" viewBox="0 0 12 12" fill="none" xmlns="http://www.w3.org/2000/svg">
<path fill-rule="evenodd" clip-rule="evenodd" d="M0.200195 3.49922V8.50182C0.200195 10.0482 1.4542 11.3018 3.0002 11.3018C4.7432 11.3018 7.2572 11.3018 9.0002 11.3018C10.5462 11.3018 11.8002 10.0482 11.8002 8.50182V3.49922C11.8002 1.95282 10.5462 0.699219 9.0002 0.699219C7.2572 0.699219 4.7432 0.699219 3.0002 0.699219C1.4542 0.699219 0.200195 1.95282 0.200195 3.49922ZM10.2002 7.71992L8.1212 5.59312C8.0842 5.55462 8.0322 5.53292 7.9782 5.53292C7.9242 5.53292 7.8732 5.55462 7.8352 5.59312L3.8192 9.70182H9.0002C9.6632 9.70182 10.2002 9.16452 10.2002 8.50182V7.71992ZM10.2002 5.43092V3.49912C10.2002 2.83642 9.6632 2.29922 9.0002 2.29922H3.0002C2.3372 2.29922 1.8002 2.83642 1.8002 3.49922V8.50182C1.8002 8.77482 1.8912 9.02662 2.0452 9.22822L6.6912 4.47472C7.0302 4.12822 7.49419 3.93292 7.9782 3.93292C8.46319 3.93292 8.9272 4.12822 9.2652 4.47472L10.2002 5.43092ZM4.0032 3.04252C4.5312 3.04252 4.9592 3.47122 4.9592 3.99922C4.9592 4.52722 4.5312 4.95592 4.0032 4.95592C3.4752 4.95592 3.0462 4.52722 3.0462 3.99922C3.0462 3.47122 3.4752 3.04252 4.0032 3.04252Z" fill="black"/>
</svg>
