<svg width="24" height="24" viewBox="0 0 24 24" fill="none" xmlns="http://www.w3.org/2000/svg">
<path fill-rule="evenodd" clip-rule="evenodd" d="M18.934 18.938H17.051C16.482 18.938 16.02 19.41 16.02 19.992C16.02 20.573 16.482 21.046 17.051 21.046H18.934V22.935C18.934 23.504 19.409 23.965 19.994 23.965C20.579 23.965 21.054 23.504 21.054 22.935V21.046H22.937C23.506 21.046 23.967 20.573 23.967 19.992C23.967 19.41 23.506 18.938 22.937 18.938H21.054V17.048C21.054 16.48 20.579 16.018 19.994 16.018C19.409 16.018 18.934 16.48 18.934 17.048V18.938ZM14.175 21C14.061 20.689 14 20.352 14 20C14 19.648 14.061 19.311 14.175 19H6C5.645 19 5.305 18.938 4.989 18.825L12.479 11.162C12.667 10.97 12.925 10.861 13.194 10.861C13.463 10.861 13.721 10.97 13.909 11.162L17.717 15.058C18.266 14.41 19.086 14 20 14C20.351 14 20.687 14.06 21 14.175V8C21 5.239 18.761 3 16 3C13.023 3 8.977 3 6 3C3.239 3 1 5.239 1 8V16C1 18.761 3.239 21 6 21H14.175ZM19 13.509V8C19 6.343 17.657 5 16 5C13.023 5 8.977 5 6 5C4.343 5 3 6.343 3 8V16C3 16.569 3.159 17.102 3.434 17.555L11.049 9.764C11.613 9.187 12.386 8.861 13.194 8.861C14.001 8.861 14.775 9.187 15.339 9.764L19 13.509ZM6.5 6.778C7.45 6.778 8.222 7.55 8.222 8.5C8.222 9.45 7.45 10.222 6.5 10.222C5.55 10.222 4.778 9.45 4.778 8.5C4.778 7.55 5.55 6.778 6.5 6.778Z" fill="black"/>
</svg>
