<svg width="16" height="16" viewBox="0 0 16 16" fill="none" xmlns="http://www.w3.org/2000/svg">
<path fill-rule="evenodd" clip-rule="evenodd" d="M3.2912 11.7312C2.5472 11.5912 1.8562 11.2292 1.3132 10.6862C0.600195 9.97322 0.200195 9.00722 0.200195 7.99922V3.99922C0.200195 2.99122 0.600195 2.02522 1.3132 1.31222C2.0262 0.599219 2.9922 0.199219 4.0002 0.199219C5.5542 0.199219 7.4462 0.199219 9.0002 0.199219C10.0082 0.199219 10.9742 0.599219 11.6872 1.31222C12.2252 1.85022 12.5852 2.53422 12.7292 3.27022C13.4652 3.41322 14.1492 3.77422 14.6872 4.31222C15.4002 5.02522 15.8002 5.99122 15.8002 6.99922C15.8002 8.26422 15.8002 9.73422 15.8002 10.9992C15.8002 12.0072 15.4002 12.9732 14.6872 13.6862C13.9742 14.3992 13.0082 14.7992 12.0002 14.7992C10.4512 14.7992 8.5682 14.7992 7.0192 14.7992C6.0112 14.7992 5.0452 14.3992 4.3322 13.6862C3.7942 13.1482 3.4342 12.4662 3.2912 11.7312ZM14.1862 11.2412L12.3412 9.35422C12.1152 9.12422 11.8062 8.99322 11.4832 8.99322C11.1602 8.99322 10.8512 9.12422 10.6252 9.35422L6.8742 13.1922L7.0192 13.1992C8.5682 13.1992 10.4512 13.1992 12.0002 13.1992C12.5832 13.1992 13.1432 12.9672 13.5562 12.5552C13.9112 12.2002 14.1322 11.7362 14.1862 11.2412ZM14.2002 8.96722V6.99922C14.2002 6.41622 13.9682 5.85622 13.5562 5.44322C13.1432 5.03122 12.5832 4.79922 12.0002 4.79922C10.4512 4.79922 8.5682 4.79922 7.0192 4.79922C6.4362 4.79922 5.8762 5.03122 5.4632 5.44322C5.0512 5.85622 4.8192 6.41622 4.8192 6.99922C4.8192 8.26422 4.8192 9.73422 4.8192 10.9992C4.8192 11.5342 5.0142 12.0482 5.3652 12.4462L9.4812 8.23622C10.0082 7.69722 10.7302 7.39322 11.4832 7.39322C12.2372 7.39322 12.9592 7.69722 13.4852 8.23622L14.2002 8.96722ZM11.0482 3.19922C10.9402 2.91822 10.7732 2.66022 10.5562 2.44322C10.1432 2.03122 9.5832 1.79922 9.0002 1.79922C7.4462 1.79922 5.5542 1.79922 4.0002 1.79922C3.4172 1.79922 2.8572 2.03122 2.4442 2.44322C2.0322 2.85622 1.8002 3.41622 1.8002 3.99922C1.8002 5.26422 1.8002 6.73422 1.8002 7.99922C1.8002 8.58222 2.0322 9.14222 2.4442 9.55522C2.6662 9.77722 2.9312 9.94622 3.2192 10.0532V6.99922C3.2192 5.99122 3.6192 5.02522 4.3322 4.31222C5.0452 3.59922 6.0112 3.19922 7.0192 3.19922H11.0482ZM6.9952 5.82722C7.6292 5.82722 8.1432 6.34122 8.1432 6.97522C8.1432 7.60822 7.6292 8.12322 6.9952 8.12322C6.3612 8.12322 5.8472 7.60822 5.8472 6.97522C5.8472 6.34122 6.3612 5.82722 6.9952 5.82722Z" fill="black"/>
</svg>
