<svg width="24" height="24" viewBox="0 0 24 24" fill="none" xmlns="http://www.w3.org/2000/svg">
<path fill-rule="evenodd" clip-rule="evenodd" d="M5.087 17.914C4.099 17.736 3.181 17.257 2.461 16.536C1.526 15.598 1 14.326 1 13C1 10.834 1 8.166 1 6C1 4.674 1.526 3.402 2.461 2.464C3.397 1.527 4.666 1 5.989 1C8.438 1 11.562 1 14.011 1C15.334 1 16.603 1.527 17.539 2.464C18.256 3.184 18.733 4.099 18.913 5.087C19.901 5.267 20.817 5.745 21.537 6.464C22.475 7.402 23.002 8.674 23.002 10C23.002 12.166 23.002 14.834 23.002 17C23.002 18.326 22.475 19.598 21.537 20.536C20.599 21.473 19.328 22 18.002 22C15.558 22 12.444 22 10 22C8.674 22 7.402 21.473 6.464 20.536C5.746 19.817 5.268 18.901 5.087 17.914ZM21.002 16.294L17.94 13.162C17.752 12.969 17.494 12.861 17.225 12.861C16.956 12.861 16.698 12.969 16.51 13.162L9.833 19.992L10 20C12.444 20 15.558 20 18.002 20C18.797 20 19.56 19.684 20.123 19.121C20.686 18.559 21.002 17.796 21.002 17V16.294ZM21.002 13.433V10C21.002 9.204 20.686 8.441 20.123 7.879C19.56 7.316 18.797 7 18.002 7C15.558 7 12.444 7 10 7C9.204 7 8.441 7.316 7.879 7.879C7.316 8.441 7 9.204 7 10C7 12.166 7 14.834 7 17C7 17.796 7.316 18.559 7.879 19.121L7.883 19.125L15.079 11.764C15.644 11.186 16.417 10.861 17.225 10.861C18.032 10.861 18.805 11.186 19.37 11.764L21.002 13.433ZM16.83 5C16.685 4.58 16.446 4.197 16.128 3.879C15.566 3.316 14.805 3 14.011 3H5.989C5.195 3 4.434 3.316 3.872 3.879C3.311 4.441 2.996 5.204 2.996 6C2.996 8.166 2.996 10.834 2.996 13C2.996 13.796 3.311 14.559 3.872 15.121C4.193 15.443 4.579 15.684 5 15.828V10C5 8.674 5.527 7.402 6.464 6.464C7.402 5.527 8.674 5 10 5H16.83ZM10.529 8.778C11.48 8.778 12.252 9.55 12.252 10.5C12.252 11.45 11.48 12.222 10.529 12.222C9.579 12.222 8.807 11.45 8.807 10.5C8.807 9.55 9.579 8.778 10.529 8.778Z" fill="black"/>
</svg>
