<svg width="24" height="24" viewBox="0 0 24 24" fill="none" xmlns="http://www.w3.org/2000/svg">
<path fill-rule="evenodd" clip-rule="evenodd" d="M10.0998 18.1665C10.0998 19.3335 10.5634 20.4527 11.3885 21.2778C12.2137 22.1029 13.3328 22.5665 14.4998 22.5665H19.4998C21.9299 22.5665 23.8998 20.5965 23.8998 18.1665V14.4998C23.8998 12.0698 21.9299 10.0998 19.4998 10.0998C17.9263 10.0998 16.0733 10.0998 14.4998 10.0998C13.3328 10.0998 12.2137 10.5634 11.3885 11.3886C10.5634 12.2137 10.0998 13.3329 10.0998 14.4998V18.1665ZM22.0209 18.8034L19.827 16.5588C19.62 16.347 19.3365 16.2277 19.0404 16.2277C18.7443 16.2277 18.4607 16.347 18.2537 16.5588L14.1631 20.7439C14.2741 20.7591 14.3866 20.7666 14.4998 20.7666H19.4999C20.7159 20.7666 21.737 19.9317 22.0209 18.8034ZM22.0998 16.309V14.4998C22.0998 13.0639 20.9358 11.8998 19.4998 11.8998H14.4998C13.8102 11.8998 13.1489 12.1739 12.6613 12.6614C12.1737 13.149 11.8998 13.8103 11.8998 14.4998V18.1665C11.8998 18.7859 12.1208 19.3825 12.5196 19.8503L16.9665 15.3006C17.5121 14.7424 18.2598 14.4277 19.0404 14.4277C19.821 14.4277 20.5686 14.7424 21.1143 15.3006L22.0998 16.309ZM8.19744 19.7563C8.06714 19.2407 7.99984 18.7072 7.99984 18.1665V16.8569C7.58414 15.9539 7.26354 15.0268 7.03404 14.0896H8.01434C8.04524 13.577 8.13814 13.0737 8.28794 12.5896H6.74484C6.54744 11.1966 6.54634 9.79505 6.73374 8.42295H12.2126C12.9365 8.14335 13.7107 7.99985 14.4998 7.99985H18.497C17.4024 4.05435 13.782 1.15625 9.49014 1.15625C4.32974 1.15625 0.140137 5.34585 0.140137 10.5063C0.140137 15.2281 3.64784 19.137 8.19744 19.7563ZM5.49214 14.0896H2.73134C3.58504 15.6958 4.99454 16.9621 6.70294 17.6316C6.16124 16.4769 5.75894 15.2894 5.49214 14.0896ZM13.9998 13.1698C14.6334 13.1698 15.1478 13.6841 15.1478 14.3177C15.1478 14.9514 14.6334 15.4657 13.9998 15.4657C13.3662 15.4657 12.8518 14.9514 12.8518 14.3177C12.8518 13.6841 13.3662 13.1698 13.9998 13.1698ZM5.21984 8.42295H2.12784C1.94044 9.08555 1.84014 9.78425 1.84014 10.5063C1.84014 11.2283 1.94044 11.927 2.12784 12.5896H5.22924C5.05004 11.1965 5.04874 9.79735 5.21984 8.42295ZM6.67734 3.39085C4.98064 4.06295 3.58074 5.32455 2.73134 6.92295H5.47584C5.74114 5.70895 6.14314 4.52425 6.67734 3.39085ZM10.3874 2.90905C10.0932 2.87395 9.79374 2.85625 9.49014 2.85625C9.19714 2.85625 8.90794 2.87275 8.62344 2.90555C7.89214 4.17065 7.35344 5.52395 7.01614 6.92295H11.993C11.6557 5.52455 11.1179 4.17265 10.3874 2.90905ZM12.3382 3.40525C12.8691 4.53425 13.269 5.71435 13.533 6.92295H16.2489C15.4054 5.33585 14.0192 4.08055 12.3382 3.40525Z" fill="black"/>
</svg>
