<svg width="24" height="24" viewBox="0 0 24 24" fill="none" xmlns="http://www.w3.org/2000/svg">
<path fill-rule="evenodd" clip-rule="evenodd" d="M12.0002 20.95C12.5872 20.95 13.0642 21.427 13.0642 22.014C13.0642 22.601 12.5872 23.078 12.0002 23.078C11.4132 23.078 10.9362 22.601 10.9362 22.014C10.9362 21.427 11.4132 20.95 12.0002 20.95ZM16.4722 19.752C16.9802 19.459 17.6312 19.633 17.9252 20.142C18.2182 20.65 18.0442 21.301 17.5352 21.594C17.0272 21.888 16.3762 21.714 16.0822 21.205C15.7892 20.697 15.9632 20.046 16.4722 19.752ZM6.4652 21.594C5.9562 21.301 5.7822 20.65 6.0752 20.142C6.3692 19.633 7.0202 19.459 7.5282 19.752C8.0372 20.046 8.2112 20.697 7.9182 21.205C7.6242 21.714 6.9732 21.888 6.4652 21.594ZM18.9972 14.441L23.1292 18.573C23.5592 19.002 23.5592 19.699 23.1292 20.128C22.7002 20.557 22.0032 20.557 21.5742 20.128L4.0612 2.61603C3.6322 2.18703 3.6322 1.48903 4.0612 1.06003C4.4912 0.631031 5.1882 0.631031 5.6172 1.06003L9.5592 5.00203C10.3232 4.73203 11.1452 4.58603 12.0002 4.58603C16.0912 4.58603 19.4132 7.90803 19.4132 11.999C19.4132 12.855 19.2672 13.678 18.9972 14.441ZM6.1232 7.49703L7.4072 8.78103C6.7642 9.68903 6.3872 10.8 6.3872 11.999C6.3872 15.097 8.9022 17.612 12.0002 17.612C13.1972 17.612 14.3072 17.236 15.2182 16.592L16.5022 17.876C15.2562 18.842 13.6942 19.412 12.0002 19.412C7.9092 19.412 4.5872 16.09 4.5872 11.999C4.5872 10.302 5.1592 8.73803 6.1232 7.49703ZM2.4122 17.542C2.1192 17.034 2.2932 16.383 2.8022 16.089C3.3102 15.796 3.9612 15.97 4.2552 16.479C4.5482 16.987 4.3742 17.638 3.8652 17.932C3.3572 18.225 2.7062 18.051 2.4122 17.542ZM8.6452 10.019L9.9962 11.37C9.9342 11.569 9.9002 11.78 9.9002 11.999C9.9002 13.158 10.8412 14.099 12.0002 14.099C12.2162 14.099 12.4252 14.066 12.6212 13.995L13.9802 15.354C13.4002 15.702 12.7232 15.899 12.0002 15.899C9.8482 15.899 8.1002 14.151 8.1002 11.999C8.1002 11.275 8.2982 10.596 8.6452 10.019ZM20.9442 12.007C20.9442 11.42 21.4202 10.943 22.0072 10.943C22.5942 10.943 23.0712 11.42 23.0712 12.007C23.0712 12.594 22.5942 13.07 22.0072 13.07C21.4202 13.07 20.9442 12.594 20.9442 12.007ZM0.929199 12.007C0.929199 11.42 1.4062 10.943 1.9932 10.943C2.5802 10.943 3.0562 11.42 3.0562 12.007C3.0562 12.594 2.5802 13.07 1.9932 13.07C1.4062 13.07 0.929199 12.594 0.929199 12.007ZM17.5262 12.969L15.8302 11.273C15.5362 9.70203 14.2962 8.46303 12.7262 8.16903L11.0302 6.47303C11.3452 6.41503 11.6692 6.38603 12.0002 6.38603C15.0982 6.38603 17.6132 8.90103 17.6132 11.999C17.6132 12.33 17.5842 12.655 17.5262 12.969ZM19.7452 7.53503C19.4522 7.02703 19.6262 6.37603 20.1352 6.08203C20.6432 5.78903 21.2942 5.96303 21.5882 6.47103C21.8812 6.98003 21.7072 7.63103 21.1982 7.92403C20.6902 8.21803 20.0392 8.04303 19.7452 7.53503ZM2.4122 6.47103C2.7062 5.96303 3.3572 5.78903 3.8652 6.08203C4.3742 6.37603 4.5482 7.02703 4.2552 7.53503C3.9612 8.04303 3.3102 8.21803 2.8022 7.92403C2.2932 7.63103 2.1192 6.98003 2.4122 6.47103ZM16.4722 4.26103C15.9632 3.96803 15.7892 3.31703 16.0822 2.80903C16.3762 2.30003 17.0272 2.12603 17.5352 2.41903C18.0442 2.71303 18.2182 3.36403 17.9252 3.87203C17.6312 4.38103 16.9802 4.55503 16.4722 4.26103ZM12.0002 0.936031C12.5872 0.936031 13.0642 1.41303 13.0642 2.00003C13.0642 2.58703 12.5872 3.06303 12.0002 3.06303C11.4132 3.06303 10.9362 2.58703 10.9362 2.00003C10.9362 1.41303 11.4132 0.936031 12.0002 0.936031Z" fill="black"/>
</svg>
