<svg width="16" height="16" viewBox="0 0 16 16" fill="none" xmlns="http://www.w3.org/2000/svg">
<path fill-rule="evenodd" clip-rule="evenodd" d="M6.3 13.2C6.3 13.863 6.5634 14.4989 7.0322 14.9678C7.5011 15.4366 8.137 15.7 8.8 15.7C10.1135 15.7 11.8865 15.7 13.2 15.7C13.863 15.7 14.4989 15.4366 14.9678 14.9678C15.4366 14.4989 15.7 13.863 15.7 13.2C15.7 12.1556 15.7 10.8444 15.7 9.8C15.7 9.137 15.4366 8.5011 14.9678 8.0322C14.4989 7.5634 13.863 7.3 13.2 7.3C11.8865 7.3 10.1135 7.3 8.8 7.3C8.137 7.3 7.5011 7.5634 7.0322 8.0322C6.5634 8.5011 6.3 9.137 6.3 9.8C6.3 10.8444 6.3 12.1556 6.3 13.2ZM14.3 12.7792L13.6195 12.0829C13.3702 11.8278 13.0286 11.6841 12.6719 11.6841C12.3153 11.6841 11.9737 11.8278 11.7244 12.0829L9.5573 14.3H13.2C13.4917 14.3 13.7715 14.1841 13.9778 13.9778C14.1841 13.7715 14.3 13.4917 14.3 13.2V12.7792ZM14.3 10.8866V9.8C14.3 9.5083 14.1841 9.2285 13.9778 9.0222C13.7715 8.8159 13.4917 8.7 13.2 8.7H8.8C8.5083 8.7 8.2285 8.8159 8.0222 9.0222C7.8159 9.2285 7.7 9.5083 7.7 9.8C7.7 10.8444 7.7 12.1556 7.7 13.2C7.7 13.4827 7.8088 13.7542 8.0033 13.9585L10.7589 11.1393C11.2622 10.6243 11.9519 10.3341 12.6719 10.3341C13.2641 10.3341 13.8357 10.5304 14.3 10.8866ZM4.3802 13.2219V11.5496C3.5763 11.0854 2.9066 10.4142 2.4441 9.6091H4.3419C4.3542 9.6675 4.367 9.7259 4.3802 9.7843V9.1821C4.3802 8.2035 4.7561 7.3126 5.3715 6.6459C5.3806 6.329 5.4029 6.0132 5.4382 5.6996H6.7539C7.1773 5.5334 7.638 5.4422 8.1201 5.4422H13.569C12.865 2.4667 10.1893 0.25 7 0.25C3.2746 0.25 0.25 3.2746 0.25 7C0.25 9.7967 1.9545 12.1984 4.3802 13.2219ZM9.3175 9.4294C9.8107 9.4294 10.2111 9.8298 10.2111 10.323C10.2111 10.8161 9.8107 11.2165 9.3175 11.2165C8.8244 11.2165 8.424 10.8161 8.424 10.323C8.424 9.8298 8.8244 9.4294 9.3175 9.4294ZM4.1319 5.6996H1.9126C1.8064 6.1154 1.75 6.5512 1.75 7C1.75 7.452 1.8072 7.8908 1.9148 8.3091H4.1375C4.046 7.4365 4.0451 6.5615 4.1319 5.6996ZM5.0331 2.1315C3.9353 2.5759 3.0215 3.3811 2.4391 4.3996H4.3316C4.4929 3.6215 4.7275 2.8614 5.0331 2.1315ZM7.3589 1.7621C7.2401 1.7541 7.1205 1.75 7 1.75C6.8803 1.75 6.7616 1.754 6.6436 1.7619C6.2044 2.5933 5.8756 3.4809 5.6616 4.3996H8.3408C8.127 3.4814 7.7982 2.5936 7.3589 1.7621ZM8.9699 2.1327C9.2751 2.8622 9.5095 3.6218 9.6709 4.3996H11.5609C10.979 3.3819 10.0663 2.5772 8.9699 2.1327Z" fill="black"/>
</svg>
