<svg width="24" height="24" viewBox="0 0 24 24" fill="none" xmlns="http://www.w3.org/2000/svg">
<path fill-rule="evenodd" clip-rule="evenodd" d="M18 12C14.6885 12 12 14.6885 12 18C12 21.3115 14.6885 24 18 24C21.3115 24 24 21.3115 24 18C24 14.6885 21.3115 12 18 12ZM18 14C20.2077 14 22 15.7923 22 18C22 20.2077 20.2077 22 18 22C15.7923 22 14 20.2077 14 18C14 15.7923 15.7923 14 18 14ZM10.5846 21C10.3287 20.3693 10.1515 19.6986 10.0646 19H6.5C5.5717 19 4.6815 18.6313 4.0251 17.9749C3.9786 17.9283 3.9335 17.8806 3.89 17.8312L10.3243 10.3683C10.5143 10.148 10.7908 10.0213 11.0817 10.0213C11.3726 10.0213 11.6491 10.148 11.8391 10.3683L13.0249 11.7437L13.5284 11.3671C13.7483 11.2334 13.9682 11.0998 14.188 10.9662L14.7583 10.6913L13.3539 9.0623C12.784 8.4013 11.9545 8.0213 11.0817 8.0213C10.209 8.0213 9.3795 8.4013 8.8096 9.0623L3.0127 15.786C3.0039 15.6914 3 15.5959 3 15.5V5.5C3 4.5717 3.3687 3.6815 4.0251 3.0251C4.6815 2.3687 5.5717 2 6.5 2H12.5C13.4283 2 14.3185 2.3687 14.9749 3.0251C15.6313 3.6815 16 4.5717 16 5.5V10.2627L16.3886 10.1627C16.6532 10.1222 16.9179 10.0818 17.1825 10.0413L18 10V5.5C18 4.0413 17.4205 2.6424 16.3891 1.6109C15.3576 0.5795 13.9587 0 12.5 0H6.5C5.0413 0 3.6424 0.5795 2.6109 1.6109C1.5795 2.6424 1 4.0413 1 5.5V15.5C1 16.9587 1.5795 18.3576 2.6109 19.3891C3.6424 20.4205 5.0413 21 6.5 21H10.5846ZM17 15.7768V18C17 18.2652 17.1054 18.5196 17.2929 18.7071L18.5333 19.9475C18.9236 20.3378 19.5573 20.3378 19.9475 19.9475C20.3378 19.5573 20.3378 18.9236 19.9475 18.5333L19 17.5858V15.7768C19 15.2249 18.5519 14.7768 18 14.7768C17.4481 14.7768 17 15.2249 17 15.7768ZM6.5 3.778C7.4504 3.778 8.222 4.5496 8.222 5.5C8.222 6.4504 7.4504 7.222 6.5 7.222C5.5496 7.222 4.778 6.4504 4.778 5.5C4.778 4.5496 5.5496 3.778 6.5 3.778Z" fill="black"/>
</svg>
