<svg width="16" height="16" viewBox="0 0 16 16" fill="none" xmlns="http://www.w3.org/2000/svg">
<path fill-rule="evenodd" clip-rule="evenodd" d="M12.1433 12.1492H10.8414C10.3922 12.1492 10.0275 12.5301 10.0275 12.9992C10.0275 13.4683 10.3922 13.8492 10.8414 13.8492H12.1433V15.151C12.1433 15.6002 12.5241 15.9649 12.9933 15.9649C13.4624 15.9649 13.8433 15.6002 13.8433 15.151V13.8492H15.1451C15.5943 13.8492 15.959 13.4683 15.959 12.9992C15.959 12.5301 15.5943 12.1492 15.1451 12.1492H13.8433V10.8474C13.8433 10.3982 13.4624 10.0335 12.9933 10.0335C12.5241 10.0335 12.1433 10.3982 12.1433 10.8474V12.1492ZM9.0642 14.7992C8.654 14.3859 8.3836 13.8273 8.3366 13.1992H6.0002C5.5391 13.1992 5.1111 13.0573 4.7577 12.8146L8.6345 7.87442C8.743 7.73612 8.9093 7.65572 9.0851 7.65652C9.2609 7.65732 9.4265 7.73922 9.5337 7.87852L10.8165 9.54422C11.0982 9.08342 11.5274 8.71842 12.0433 8.51492L10.8014 6.90222C10.3928 6.37172 9.7621 6.05952 9.0924 6.05652C8.4227 6.05342 7.7892 6.35982 7.3758 6.88672L3.8367 11.3965C3.8125 11.2678 3.8002 11.135 3.8002 10.9992V4.99922C3.8002 3.78412 4.7852 2.79922 6.0002 2.79922C7.2654 2.79922 8.735 2.79922 10.0002 2.79922C11.2152 2.79922 12.2002 3.78412 12.2002 4.99922V8.45972C12.4487 8.37702 12.7152 8.33352 12.9933 8.33352C13.2765 8.33352 13.5478 8.37862 13.8002 8.46432V4.99922C13.8002 2.90052 12.0989 1.19922 10.0002 1.19922C8.735 1.19922 7.2654 1.19922 6.0002 1.19922C3.9015 1.19922 2.2002 2.90052 2.2002 4.99922V10.9992C2.2002 13.0979 3.9015 14.7992 6.0002 14.7992H9.0642ZM6.0066 3.87572C6.6402 3.87572 7.1546 4.39102 7.1546 5.02572C7.1546 5.66042 6.6402 6.17572 6.0066 6.17572C5.373 6.17572 4.8586 5.66042 4.8586 5.02572C4.8586 4.39102 5.373 3.87572 6.0066 3.87572Z" fill="black"/>
</svg>
