<svg width="24" height="24" viewBox="0 0 24 24" fill="none" xmlns="http://www.w3.org/2000/svg">
<path fill-rule="evenodd" clip-rule="evenodd" d="M11 10V18C11 20.209 12.791 22 15 22C16.265 22 17.735 22 19 22C21.209 22 23 20.209 23 18V10C23 7.791 21.209 6 19 6C17.735 6 16.265 6 15 6C12.791 6 11 7.791 11 10ZM13 18V10C13 8.895 13.895 8 15 8C16.265 8 17.735 8 19 8C20.105 8 21 8.895 21 10V18C21 19.105 20.105 20 19 20C17.735 20 16.265 20 15 20C13.895 20 13 19.105 13 18ZM9.09 19C9.029 18.677 9 18.342 9 18V17H6L5.875 16.994L9 14.151V11.718L4.019 16.249L3.879 16.121C3.316 15.559 3 14.796 3 14C3 11.834 3 9.166 3 7C3 6.204 3.316 5.441 3.879 4.879C4.441 4.316 5.204 4 6 4H18.993C18.855 3.808 18.702 3.631 18.536 3.464C17.598 2.527 16.326 2 15 2C12.287 2 8.713 2 6 2C4.674 2 3.402 2.527 2.464 3.464C1.527 4.402 1 5.674 1 7C1 9.166 1 11.834 1 14C1 15.326 1.527 16.598 2.464 17.536C3.402 18.473 4.674 19 6 19H9.09ZM16.524 18.937H17.537C18.033 18.937 18.437 18.534 18.437 18.037C18.437 17.54 18.033 17.137 17.537 17.137H16.524C16.028 17.137 15.624 17.54 15.624 18.037C15.624 18.534 16.028 18.937 16.524 18.937ZM15.851 10.886H18.21C18.707 10.886 19.11 10.483 19.11 9.986C19.11 9.489 18.707 9.086 18.21 9.086H15.851C15.354 9.086 14.951 9.489 14.951 9.986C14.951 10.483 15.354 10.886 15.851 10.886ZM6.5 5.778C7.451 5.778 8.223 6.55 8.223 7.5C8.223 8.45 7.451 9.222 6.5 9.222C5.55 9.222 4.778 8.45 4.778 7.5C4.778 6.55 5.55 5.778 6.5 5.778Z" fill="black"/>
</svg>
