<svg width="16" height="16" viewBox="0 0 16 16" fill="none" xmlns="http://www.w3.org/2000/svg">
<path fill-rule="evenodd" clip-rule="evenodd" d="M12.1432 11.1502H10.8892C10.4202 11.1502 10.0392 11.5312 10.0392 12.0002C10.0392 12.4692 10.4202 12.8502 10.8892 12.8502H12.1432V14.1042C12.1432 14.5732 12.5242 14.9542 12.9932 14.9542C13.4622 14.9542 13.8432 14.5732 13.8432 14.1042V12.8502H15.0972C15.5662 12.8502 15.9472 12.4692 15.9472 12.0002C15.9472 11.5312 15.5662 11.1502 15.0972 11.1502H13.8432V9.89619C13.8432 9.42719 13.4622 9.04619 12.9932 9.04619C12.5242 9.04619 12.1432 9.42719 12.1432 9.89619V11.1502ZM8.5472 13.1332C8.3732 12.7932 8.2752 12.4082 8.2752 12.0002C8.2752 11.8412 8.2902 11.6852 8.3192 11.5332H4.5002C4.3172 11.5332 4.1352 11.5152 3.9582 11.4782L8.1822 7.15619C8.4082 6.92519 8.71819 6.79519 9.04119 6.79519C9.36419 6.79519 9.6732 6.92519 9.8992 7.15619L10.9852 8.26719C11.4392 7.65019 12.1712 7.25119 12.9952 7.25119C13.2772 7.25119 13.5482 7.29719 13.8002 7.38619V5.16719C13.8002 4.02619 13.3472 2.93319 12.5412 2.12619C11.7342 1.32019 10.6402 0.867188 9.5002 0.867188H4.5002C3.3602 0.867188 2.2662 1.32019 1.4592 2.12619C0.653195 2.93319 0.200195 4.02619 0.200195 5.16719V8.83319C0.200195 9.97419 0.653195 11.0672 1.4592 11.8742C2.2662 12.6802 3.3602 13.1332 4.5002 13.1332H8.5472ZM12.2002 7.22119V5.16719C12.2002 4.45119 11.9162 3.76419 11.4092 3.25719C10.9032 2.75119 10.2162 2.46719 9.5002 2.46719H4.5002C3.7842 2.46719 3.0972 2.75119 2.5912 3.25719C2.0842 3.76419 1.8002 4.45119 1.8002 5.16719V8.83319C1.8002 9.51319 2.0572 10.1672 2.5182 10.6622L7.0382 6.03719C7.5652 5.49819 8.2872 5.19519 9.0412 5.19519C9.7942 5.19519 10.5162 5.49819 11.0432 6.03719L12.2002 7.22119ZM4.0002 3.83719C4.6342 3.83719 5.1482 4.35119 5.1482 4.98519C5.1482 5.61819 4.6342 6.13319 4.0002 6.13319C3.3662 6.13319 2.8522 5.61819 2.8522 4.98519C2.8522 4.35119 3.3662 3.83719 4.0002 3.83719Z" fill="black"/>
</svg>
