<svg width="24" height="24" viewBox="0 0 24 24" fill="none" xmlns="http://www.w3.org/2000/svg">
<path fill-rule="evenodd" clip-rule="evenodd" d="M12.0002 20.9515C12.5872 20.9515 13.0642 21.4285 13.0642 22.0155C13.0642 22.6025 12.5872 23.0795 12.0002 23.0795C11.4132 23.0795 10.9362 22.6025 10.9362 22.0155C10.9362 21.4285 11.4132 20.9515 12.0002 20.9515ZM16.4722 19.7535C16.9802 19.4605 17.6312 19.6345 17.9252 20.1435C18.2182 20.6515 18.0442 21.3025 17.5352 21.5955C17.0272 21.8895 16.3762 21.7155 16.0822 21.2065C15.7892 20.6985 15.9632 20.0475 16.4722 19.7535ZM6.4652 21.5955C5.9562 21.3025 5.7822 20.6515 6.0752 20.1435C6.3692 19.6345 7.0202 19.4605 7.5282 19.7535C8.0372 20.0475 8.2112 20.6985 7.9182 21.2065C7.6242 21.7155 6.9732 21.8895 6.4652 21.5955ZM12.0002 4.5875C7.9092 4.5875 4.5872 7.9095 4.5872 12.0005C4.5872 16.0915 7.9092 19.4135 12.0002 19.4135C16.0912 19.4135 19.4132 16.0915 19.4132 12.0005C19.4132 7.9095 16.0912 4.5875 12.0002 4.5875ZM19.7452 16.4805C20.0392 15.9715 20.6902 15.7975 21.1982 16.0905C21.7072 16.3845 21.8812 17.0355 21.5882 17.5435C21.2942 18.0525 20.6432 18.2265 20.1352 17.9335C19.6262 17.6395 19.4522 16.9885 19.7452 16.4805ZM2.4122 17.5435C2.1192 17.0355 2.2932 16.3845 2.8022 16.0905C3.3102 15.7975 3.9612 15.9715 4.2552 16.4805C4.5482 16.9885 4.3742 17.6395 3.8652 17.9335C3.3572 18.2265 2.7062 18.0525 2.4122 17.5435ZM12.0002 6.3875C15.0982 6.3875 17.6132 8.9025 17.6132 12.0005C17.6132 15.0985 15.0982 17.6135 12.0002 17.6135C8.9022 17.6135 6.3872 15.0985 6.3872 12.0005C6.3872 8.9025 8.9022 6.3875 12.0002 6.3875ZM12.0002 8.1005C9.8482 8.1005 8.1002 9.8485 8.1002 12.0005C8.1002 14.1525 9.8482 15.9005 12.0002 15.9005C14.1522 15.9005 15.9002 14.1525 15.9002 12.0005C15.9002 9.8485 14.1522 8.1005 12.0002 8.1005ZM12.0002 9.9005C13.1592 9.9005 14.1002 10.8415 14.1002 12.0005C14.1002 13.1595 13.1592 14.1005 12.0002 14.1005C10.8412 14.1005 9.9002 13.1595 9.9002 12.0005C9.9002 10.8415 10.8412 9.9005 12.0002 9.9005ZM20.9442 12.0085C20.9442 11.4215 21.4202 10.9445 22.0072 10.9445C22.5942 10.9445 23.0712 11.4215 23.0712 12.0085C23.0712 12.5955 22.5942 13.0715 22.0072 13.0715C21.4202 13.0715 20.9442 12.5955 20.9442 12.0085ZM0.929199 12.0085C0.929199 11.4215 1.4062 10.9445 1.9932 10.9445C2.5802 10.9445 3.0562 11.4215 3.0562 12.0085C3.0562 12.5955 2.5802 13.0715 1.9932 13.0715C1.4062 13.0715 0.929199 12.5955 0.929199 12.0085ZM19.7452 7.5365C19.4522 7.0285 19.6262 6.3775 20.1352 6.0835C20.6432 5.7905 21.2942 5.9645 21.5882 6.4725C21.8812 6.9815 21.7072 7.6325 21.1982 7.9255C20.6902 8.2195 20.0392 8.0445 19.7452 7.5365ZM2.4122 6.4725C2.7062 5.9645 3.3572 5.7905 3.8652 6.0835C4.3742 6.3775 4.5482 7.0285 4.2552 7.5365C3.9612 8.0445 3.3102 8.2195 2.8022 7.9255C2.2932 7.6325 2.1192 6.9815 2.4122 6.4725ZM16.4722 4.2625C15.9632 3.9695 15.7892 3.3185 16.0822 2.8105C16.3762 2.3015 17.0272 2.1275 17.5352 2.4205C18.0442 2.7145 18.2182 3.3655 17.9252 3.8735C17.6312 4.3825 16.9802 4.5565 16.4722 4.2625ZM6.4652 2.4205C6.9732 2.1275 7.6242 2.3015 7.9182 2.8105C8.2112 3.3185 8.0372 3.9695 7.5282 4.2625C7.0202 4.5565 6.3692 4.3825 6.0752 3.8735C5.7822 3.3655 5.9562 2.7145 6.4652 2.4205ZM12.0002 0.9375C12.5872 0.9375 13.0642 1.4145 13.0642 2.0015C13.0642 2.5885 12.5872 3.0645 12.0002 3.0645C11.4132 3.0645 10.9362 2.5885 10.9362 2.0015C10.9362 1.4145 11.4132 0.9375 12.0002 0.9375Z" fill="black"/>
</svg>
