<svg width="24" height="24" viewBox="0 0 24 24" fill="none" xmlns="http://www.w3.org/2000/svg">
<path fill-rule="evenodd" clip-rule="evenodd" d="M18 12C14.689 12 12 14.689 12 18C12 21.311 14.689 24 18 24C21.311 24 24 21.311 24 18C24 14.689 21.311 12 18 12ZM18 14C20.208 14 22 15.792 22 18C22 20.208 20.208 22 18 22C15.792 22 14 20.208 14 18C14 15.792 15.792 14 18 14ZM17 15.777V18C17 18.265 17.105 18.52 17.293 18.707L18.533 19.948C18.924 20.338 19.557 20.338 19.948 19.948C20.338 19.557 20.338 18.924 19.948 18.533L19 17.586V15.777C19 15.225 18.552 14.777 18 14.777C17.448 14.777 17 15.225 17 15.777ZM10.253 20C10.088 19.361 10 18.691 10 18H6C5.645 18 5.305 17.938 4.989 17.825L12.479 10.162C12.667 9.97 12.925 9.861 13.194 9.861C13.463 9.861 13.721 9.97 13.909 10.162L14.533 10.8C15.197 10.475 15.913 10.245 16.665 10.12L15.339 8.764C14.775 8.187 14.001 7.861 13.194 7.861C12.386 7.861 11.613 8.187 11.049 8.764L3.434 16.555C3.159 16.102 3 15.569 3 15V7C3 5.343 4.343 4 6 4C8.977 4 13.023 4 16 4C17.657 4 19 5.343 19 7V10.069L19.611 10.163C19.867 10.228 20.122 10.294 20.378 10.36L21 10.588V7C21 4.239 18.761 2 16 2C13.023 2 8.977 2 6 2C3.239 2 1 4.239 1 7V15C1 17.761 3.239 20 6 20H10.253ZM6.5 5.778C7.45 5.778 8.222 6.55 8.222 7.5C8.222 8.45 7.45 9.222 6.5 9.222C5.55 9.222 4.778 8.45 4.778 7.5C4.778 6.55 5.55 5.778 6.5 5.778Z" fill="black"/>
</svg>
