<svg width="16" height="16" viewBox="0 0 16 16" fill="none" xmlns="http://www.w3.org/2000/svg">
<path fill-rule="evenodd" clip-rule="evenodd" d="M11.5002 7.31622C9.1915 7.31622 7.3172 9.19052 7.3172 11.4992C7.3172 13.8079 9.1915 15.6822 11.5002 15.6822C13.8089 15.6822 15.6832 13.8079 15.6832 11.4992C15.6832 9.19052 13.8089 7.31622 11.5002 7.31622ZM11.5002 8.91622C12.9258 8.91622 14.0832 10.0736 14.0832 11.4992C14.0832 12.9248 12.9258 14.0822 11.5002 14.0822C10.0746 14.0822 8.9172 12.9248 8.9172 11.4992C8.9172 10.0736 10.0746 8.91622 11.5002 8.91622ZM6.3518 13.7992C6.125 13.3012 5.9721 12.763 5.9025 12.1992H4.0002C3.5391 12.1992 3.1111 12.0573 2.7577 11.8146L6.6345 6.87442C6.743 6.73612 6.9093 6.65572 7.0851 6.65652C7.2609 6.65732 7.4265 6.73922 7.5337 6.87852L7.8106 7.23802C8.2138 6.88602 8.6685 6.59332 9.16129 6.36962L8.8014 5.90222C8.3928 5.37172 7.7621 5.05952 7.0924 5.05652C6.4227 5.05342 5.7892 5.35982 5.3758 5.88672L1.8367 10.3965C1.8125 10.2678 1.8002 10.135 1.8002 9.99922V3.99922C1.8002 2.78412 2.7852 1.79922 4.0002 1.79922C5.2654 1.79922 6.735 1.79922 8.0002 1.79922C9.2152 1.79922 10.2002 2.78412 10.2002 3.99922V6.01352C10.6167 5.90902 11.0524 5.85672 11.5002 5.85672L11.8002 5.87192V3.99922C11.8002 1.90052 10.0989 0.199219 8.0002 0.199219C6.735 0.199219 5.2654 0.199219 4.0002 0.199219C1.9015 0.199219 0.200195 1.90052 0.200195 3.99922V9.99922C0.200195 12.0979 1.9015 13.7992 4.0002 13.7992H6.3518ZM10.7002 9.99502V11.4992C10.7002 11.7114 10.7845 11.9149 10.9345 12.0649L11.7738 12.9042C12.086 13.2164 12.5929 13.2164 12.9052 12.9042C13.2174 12.5919 13.2174 12.085 12.9052 11.7728L12.3002 11.1678V9.99502C12.3002 9.55352 11.9417 9.19502 11.5002 9.19502C11.0587 9.19502 10.7002 9.55352 10.7002 9.99502ZM4.0066 2.87572C4.6402 2.87572 5.1546 3.39102 5.1546 4.02572C5.1546 4.66042 4.6402 5.17572 4.0066 5.17572C3.373 5.17572 2.8586 4.66042 2.8586 4.02572C2.8586 3.39102 3.373 2.87572 4.0066 2.87572Z" fill="black"/>
</svg>
