<svg width="24" height="24" viewBox="0 0 24 24" fill="none" xmlns="http://www.w3.org/2000/svg">
<path fill-rule="evenodd" clip-rule="evenodd" d="M4 18H2C1.448 18 1 18.448 1 19C1 19.552 1.448 20 2 20H4V22C4 22.552 4.448 23 5 23C5.552 23 6 22.552 6 22V20H17C17.796 20 18.559 19.684 19.121 19.121C19.684 18.559 20 17.796 20 17V6H22.047C22.599 6 23.047 5.552 23.047 5C23.047 4.448 22.599 4 22.047 4H20V2C20 1.448 19.552 1 19 1C18.448 1 18 1.448 18 2V4H7C6.204 4 5.441 4.316 4.879 4.879C4.316 5.441 4 6.204 4 7V18ZM18 13.794L15.764 11.502C15.576 11.309 15.317 11.2 15.048 11.2C14.779 11.2 14.521 11.309 14.332 11.502L7.991 18H17C17.265 18 17.52 17.895 17.707 17.707C17.895 17.52 18 17.265 18 17V13.794ZM18 6H7C6.735 6 6.48 6.105 6.293 6.293C6.105 6.48 6 6.735 6 7V17.177L12.901 10.105C13.466 9.527 14.24 9.2 15.048 9.2C15.856 9.2 16.631 9.527 17.195 10.105L18 10.93V6ZM8.608 7C9.435 7 10.106 7.672 10.106 8.5C10.106 9.328 9.435 10 8.608 10C7.782 10 7.111 9.328 7.111 8.5C7.111 7.672 7.782 7 8.608 7Z" fill="black"/>
</svg>
