<svg width="12" height="12" viewBox="0 0 12 12" fill="none" xmlns="http://www.w3.org/2000/svg">
<path d="M4.50689 2.4436C5.09819 2.4436 5.57829 2.9299 5.57829 3.5289C5.57829 4.1279 5.09819 4.6142 4.50689 4.6142C3.91549 4.6142 3.43549 4.1279 3.43549 3.5289C3.43549 2.9299 3.91549 2.4436 4.50689 2.4436Z" fill="black"/>
<path d="M3.60586 10.1866L6.81879 6.4554C6.86629 6.4002 6.93549 6.3685 7.00819 6.3685C7.08099 6.3685 7.15019 6.4002 7.19769 6.4554L9.2002 8.78091V6.48217L8.33429 5.4766C8.00189 5.0906 7.51769 4.8685 7.00819 4.8685C6.49879 4.8685 6.01459 5.0906 5.68209 5.4766L2.80043 8.82315C2.81033 9.40691 3.132 9.91465 3.60586 10.1866Z" fill="black"/>
<path fill-rule="evenodd" clip-rule="evenodd" d="M1.2002 8.7954C1.2002 10.5652 2.6329 12.0001 4.4002 12H7.6002C9.3675 12.0001 10.8002 10.5652 10.8002 8.7954V3.2046C10.8002 1.4348 9.3675 0 7.6002 0H4.4002C2.6329 0 1.2002 1.4348 1.2002 3.2046V8.7954ZM3.13999 10.7276C3.06029 10.8201 1.31469 10.5486 2.03109 9.7166L2.80043 8.82315L2.8002 8.7954V3.2046C2.8002 2.3197 3.5166 1.6023 4.4002 1.6023H7.6002C8.4838 1.6023 9.2002 2.3197 9.2002 3.2046V6.48217L9.93199 7.332C10.8777 8.4456 10.0134 9.6309 9.71099 9.3741L9.2002 8.78091V8.7954C9.2002 9.6803 8.4838 10.3977 7.6002 10.3977H4.4002C4.11111 10.3977 3.83992 10.3209 3.60586 10.1866L3.13999 10.7276Z" fill="black"/>
<path d="M2.03109 9.7166C1.31469 10.5486 3.06029 10.8201 3.13999 10.7276L3.60586 10.1866C3.132 9.91465 2.81033 9.40691 2.80043 8.82315L2.03109 9.7166Z" fill="black"/>
<path d="M9.71099 9.3741C10.0134 9.6309 10.8777 8.4456 9.93199 7.332L9.2002 6.48217V8.78091L9.71099 9.3741Z" fill="black"/>
</svg>
