<svg width="16" height="16" viewBox="0 0 16 16" fill="none" xmlns="http://www.w3.org/2000/svg">
<path fill-rule="evenodd" clip-rule="evenodd" d="M1.2002 6.16719V9.83319C1.2002 12.2082 3.1252 14.1332 5.5002 14.1332C7.0742 14.1332 8.9262 14.1332 10.5002 14.1332C12.8752 14.1332 14.8002 12.2082 14.8002 9.83319V6.16719C14.8002 3.79219 12.8752 1.86719 10.5002 1.86719C8.9262 1.86719 7.0742 1.86719 5.5002 1.86719C3.1252 1.86719 1.2002 3.79219 1.2002 6.16719ZM13.1302 10.4382L10.8992 8.15619C10.6732 7.92519 10.3642 7.79519 10.0412 7.79519C9.71819 7.79519 9.4082 7.92519 9.1822 8.15619L4.9572 12.4792C5.1322 12.5152 5.3142 12.5332 5.5002 12.5332H10.5002C11.7832 12.5332 12.8572 11.6382 13.1302 10.4382ZM13.2002 8.22119V6.16719C13.2002 4.67519 11.9912 3.46719 10.5002 3.46719H5.5002C4.0092 3.46719 2.8002 4.67519 2.8002 6.16719V9.83319C2.8002 10.5402 3.0712 11.1832 3.5182 11.6622L8.0382 7.03719C8.5652 6.49819 9.2872 6.19519 10.0412 6.19519C10.7942 6.19519 11.5162 6.49819 12.0432 7.03719L13.2002 8.22119ZM5.0002 4.83719C5.6342 4.83719 6.1482 5.35119 6.1482 5.98519C6.1482 6.61819 5.6342 7.13319 5.0002 7.13319C4.3662 7.13319 3.8522 6.61819 3.8522 5.98519C3.8522 5.35119 4.3662 4.83719 5.0002 4.83719Z" fill="black"/>
</svg>
