<svg width="24" height="24" viewBox="0 0 24 24" fill="none" xmlns="http://www.w3.org/2000/svg">
<path fill-rule="evenodd" clip-rule="evenodd" d="M18 12C14.689 12 12 14.6885 12 18C12 21.3115 14.689 24 18 24C21.311 24 24 21.3115 24 18C24 14.6885 21.311 12 18 12ZM18 14C20.208 14 22 15.7923 22 18C22 20.2077 20.208 22 18 22C15.792 22 14 20.2077 14 18C14 15.7923 15.792 14 18 14ZM17 16.9815H15.795C15.243 16.9815 14.795 17.4296 14.795 17.9815C14.795 18.5334 15.243 18.9815 15.795 18.9815H17V20.1862C17 20.7382 17.448 21.1862 18 21.1862C18.552 21.1862 19 20.7382 19 20.1862V18.9815H20.205C20.757 18.9815 21.205 18.5334 21.205 17.9815C21.205 17.4296 20.757 16.9815 20.205 16.9815H19V15.7768C19 15.2249 18.552 14.7768 18 14.7768C17.448 14.7768 17 15.2249 17 15.7768V16.9815ZM10.585 21C10.329 20.3693 10.152 19.6986 10.065 19H6.5C5.572 19 4.682 18.6313 4.025 17.9749C3.9786 17.9283 3.9335 17.8806 3.89 17.8312L10.324 10.3683C10.514 10.148 10.791 10.0213 11.082 10.0213C11.373 10.0213 11.649 10.148 11.839 10.3683L13.025 11.7437L13.528 11.3671C13.748 11.2334 13.968 11.0998 14.188 10.9662L14.758 10.6913L13.354 9.0623C12.784 8.4013 11.954 8.0213 11.082 8.0213C10.209 8.0213 9.379 8.4013 8.81 9.0623L3.0127 15.786C3.0039 15.6914 3 15.5959 3 15.5V5.5C3 4.5717 3.3687 3.6815 4.025 3.0251C4.682 2.3687 5.572 2 6.5 2H12.5C13.428 2 14.318 2.3687 14.975 3.0251C15.631 3.6815 16 4.5717 16 5.5V10.2627L16.389 10.1627C16.653 10.1222 16.918 10.0818 17.183 10.0413L18 10V5.5C18 4.0413 17.421 2.6424 16.389 1.6109C15.358 0.5795 13.959 0 12.5 0H6.5C5.041 0 3.6424 0.5795 2.6109 1.6109C1.5795 2.6424 1 4.0413 1 5.5V15.5C1 16.9587 1.5795 18.3576 2.6109 19.3891C3.6424 20.4205 5.041 21 6.5 21H10.585ZM6.5 3.778C7.45 3.778 8.222 4.5496 8.222 5.5C8.222 6.4504 7.45 7.222 6.5 7.222C5.55 7.222 4.778 6.4504 4.778 5.5C4.778 4.5496 5.55 3.778 6.5 3.778Z" fill="black"/>
</svg>
