<svg width="16" height="16" viewBox="0 0 16 16" fill="none" xmlns="http://www.w3.org/2000/svg">
<path fill-rule="evenodd" clip-rule="evenodd" d="M2.02823 3.63723L0.582234 2.19123C0.251234 1.85923 0.251234 1.32123 0.582234 0.989234C0.914234 0.657234 1.45323 0.657234 1.78423 0.989234L3.28523 2.48923C3.92923 2.09123 4.68823 1.86623 5.50023 1.86623C7.07423 1.86623 8.92623 1.86623 10.5002 1.86623C12.8752 1.86623 14.8002 3.79123 14.8002 6.16623V9.83223C14.8002 10.9872 14.3452 12.0362 13.6022 12.8062L14.8512 14.0562C15.1832 14.3872 15.1832 14.9262 14.8512 15.2582C14.5202 15.5902 13.9812 15.5902 13.6492 15.2582L12.1822 13.7912L12.1782 13.7922L10.8882 12.5022L10.8932 12.5012L7.87923 9.48823L7.87723 9.49123L6.74523 8.35923L6.74823 8.35623L5.43523 7.04423L5.43223 7.04623L3.93823 5.55223L3.93923 5.54823L3.18123 4.78923L3.17823 4.79223L2.02523 3.64023L2.02823 3.63723ZM1.23023 5.67323C1.20923 5.83423 1.20023 5.99923 1.20023 6.16623V9.83223C1.20023 12.2072 3.12523 14.1322 5.50023 14.1322H9.69023L8.09023 12.5322H5.50023C5.31423 12.5322 5.13223 12.5142 4.95723 12.4782L6.47823 10.9212L5.34723 9.79023L3.51823 11.6612C3.07123 11.1822 2.80023 10.5392 2.80023 9.83223V7.24323L1.23023 5.67323ZM12.4662 11.6712C12.7912 11.3352 13.0222 10.9102 13.1302 10.4372L10.8992 8.15523C10.6732 7.92423 10.3642 7.79423 10.0412 7.79423C9.71823 7.79423 9.40823 7.92423 9.18223 8.15523L9.06823 8.27223L12.4662 11.6712ZM7.93623 7.14123L8.03823 7.03623C8.56524 6.49723 9.28724 6.19423 10.0412 6.19423C10.7942 6.19423 11.5162 6.49723 12.0432 7.03623L13.2002 8.22023V6.16623C13.2002 4.67423 11.9912 3.46623 10.5002 3.46623H5.50023C5.13423 3.46623 4.78523 3.53923 4.46723 3.67123L7.93623 7.14123Z" fill="black"/>
</svg>
