<svg width="24" height="24" viewBox="0 0 24 24" fill="none" xmlns="http://www.w3.org/2000/svg">
<path fill-rule="evenodd" clip-rule="evenodd" d="M2 16C2 18.761 4.239 21 7 21C9.977 21 14.023 21 17 21C19.761 21 22 18.761 22 16C22 13.557 22 10.443 22 8C22 5.239 19.761 3 17 3C14.023 3 9.977 3 7 3C4.239 3 2 5.239 2 8V16ZM20 15.346L15.911 11.162C15.722 10.97 15.465 10.861 15.196 10.861C14.926 10.861 14.669 10.97 14.48 11.162L6.828 18.991L7 19C9.977 19 14.023 19 17 19C18.657 19 20 17.657 20 16V15.346ZM20 12.485V8C20 6.343 18.657 5 17 5C14.023 5 9.977 5 7 5C5.343 5 4 6.343 4 8V16C4 16.829 4.336 17.58 4.88 18.123L13.05 9.764C13.615 9.187 14.388 8.861 15.196 8.861C16.003 8.861 16.776 9.187 17.341 9.764L20 12.485ZM7.5 6.778C8.45 6.778 9.222 7.55 9.222 8.5C9.222 9.45 8.45 10.222 7.5 10.222C6.55 10.222 5.778 9.45 5.778 8.5C5.778 7.55 6.55 6.778 7.5 6.778Z" fill="black"/>
</svg>
