<svg width="16" height="16" viewBox="0 0 16 16" fill="none" xmlns="http://www.w3.org/2000/svg">
<path fill-rule="evenodd" clip-rule="evenodd" d="M8.2252 1.86631H5.5002C3.1252 1.86631 1.2002 3.79131 1.2002 6.16631V9.83231C1.2002 12.2073 3.1252 14.1323 5.5002 14.1323C7.0742 14.1323 8.9262 14.1323 10.5002 14.1323C12.8752 14.1323 14.8002 12.2073 14.8002 9.83231V7.19031C14.3792 7.61131 13.8172 7.88431 13.2002 7.94031V8.22031L12.9352 7.94931C11.8442 7.93931 10.8862 7.24831 10.5222 6.23831C10.3642 6.20831 10.2032 6.19431 10.0412 6.19431C9.2872 6.19431 8.5652 6.49731 8.0382 7.03631L3.5182 11.6613C3.0712 11.1823 2.8002 10.5393 2.8002 9.83231V6.16631C2.8002 4.67431 4.0092 3.46631 5.5002 3.46631H8.0192C7.9872 3.30331 7.9712 3.13431 7.9722 2.96231C7.97519 2.57231 8.0652 2.20031 8.2252 1.86631ZM13.1302 10.4373L10.8992 8.15531C10.6732 7.92431 10.3642 7.79431 10.0412 7.79431C9.71819 7.79431 9.4082 7.92431 9.1822 8.15531L4.9572 12.4783C5.1322 12.5143 5.3142 12.5323 5.5002 12.5323H10.5002C11.7832 12.5323 12.8572 11.6373 13.1302 10.4373ZM5.0002 4.83631C5.6342 4.83631 6.1482 5.35031 6.1482 5.98431C6.1482 6.61731 5.6342 7.13231 5.0002 7.13231C4.3662 7.13231 3.8522 6.61731 3.8522 5.98431C3.8522 5.35031 4.3662 4.83631 5.0002 4.83631ZM11.7292 2.04631C11.9482 1.90731 12.1082 1.68431 12.1682 1.42231C12.2282 1.16131 12.3012 0.839312 12.3792 0.496312C12.4422 0.221312 12.6872 0.0273122 12.9702 0.0293122C13.2522 0.0313122 13.4952 0.230312 13.5532 0.506312C13.6212 0.831312 13.6862 1.13731 13.7392 1.38731C13.8212 1.77831 14.1242 2.08331 14.5132 2.16931C14.7832 2.22831 15.1162 2.30131 15.4702 2.37931C15.7462 2.43931 15.9422 2.68331 15.9432 2.96531C15.9432 3.24731 15.7472 3.49131 15.4722 3.55231C15.1212 3.63031 14.7912 3.70431 14.5242 3.76331C14.4272 3.78531 14.3362 3.82031 14.2522 3.86631L14.1642 3.92431L14.1022 3.97131L14.0582 4.00931L14.0202 4.04431L14.0092 4.05631L13.9442 4.13231L13.9202 4.16431L13.8592 4.25931L13.8532 4.26931L13.8012 4.38531L13.7892 4.41431L13.7532 4.54031C13.6962 4.80431 13.6262 5.13031 13.5522 5.47631L13.5312 5.54931L13.5242 5.56531L13.5212 5.57531L13.5142 5.58931L13.5022 5.61831L13.4832 5.65131L13.4752 5.66631L13.4712 5.67231C13.4552 5.69731 13.4382 5.72131 13.4182 5.74331L13.4162 5.74631L13.4032 5.75831L13.3712 5.79231L13.3562 5.80431L13.3442 5.81631L13.3292 5.82631L13.3152 5.83731L13.2862 5.85531L13.2622 5.87231L13.1872 5.90731C13.1192 5.93531 13.0462 5.95031 12.9692 5.95131C12.6882 5.95331 12.4432 5.76031 12.3792 5.48631C12.2982 5.13931 12.2222 4.81331 12.1612 4.55131C12.0742 4.17531 11.7802 3.88131 11.4052 3.79431C11.1342 3.73031 10.7962 3.65131 10.4362 3.56731C10.3192 3.54031 10.2172 3.47931 10.1402 3.39531L10.1162 3.37131L10.1122 3.36531L10.1012 3.35331L10.0882 3.33431L10.0742 3.31531L10.0572 3.28731L10.0462 3.27031L10.0422 3.26231C10.0292 3.23731 10.0172 3.21131 10.0082 3.18431L10.0052 3.17931L10.0022 3.16531L9.9892 3.12231L9.9842 3.09431L9.9802 3.08131V3.06931C9.9742 3.03931 9.9722 3.00931 9.9722 2.97731C9.9742 2.69631 10.1712 2.45431 10.4452 2.39531C10.7972 2.31831 11.1282 2.24531 11.3962 2.18731L11.5582 2.13631L11.6502 2.09431C11.6772 2.07931 11.7032 2.06331 11.7292 2.04631Z" fill="black"/>
</svg>
