<svg width="24" height="24" viewBox="0 0 24 24" fill="none" xmlns="http://www.w3.org/2000/svg">
<path fill-rule="evenodd" clip-rule="evenodd" d="M10.175 20C10.32 20.42 10.56 20.8 10.879 21.12C11.441 21.68 12.204 22 13 22C15.102 22 17.898 22 20 22C20.796 22 21.559 21.68 22.121 21.12C22.684 20.56 23 19.8 23 19C23 17.45 23 15.55 23 14C23 13.2 22.684 12.44 22.121 11.88C21.559 11.32 20.797 11 20.002 11V8C20.002 6.67 19.475 5.4 18.537 4.46C17.599 3.53 16.328 3 15.002 3H6C4.674 3 3.402 3.53 2.464 4.46C1.527 5.4 1 6.67 1 8C1 10.17 1 12.83 1 15C1 16.33 1.527 17.6 2.464 18.54C3.402 19.47 4.674 20 6 20H10.175ZM18.002 11V8C18.002 7.2 17.686 6.44 17.123 5.88C16.56 5.32 15.797 5 15.002 5H6C5.204 5 4.441 5.32 3.879 5.88C3.316 6.44 3 7.2 3 8V15C3 15.8 3.316 16.56 3.879 17.12C4.441 17.68 5.204 18 6 18H10V14C10 13.2 10.316 12.44 10.879 11.88C11.441 11.32 12.204 11 13 11H18.002Z" fill="black"/>
</svg>
