<svg width="12" height="12" viewBox="0 0 12 12" fill="none" xmlns="http://www.w3.org/2000/svg">
<path fill-rule="evenodd" clip-rule="evenodd" d="M4.71979 3.0117C3.73379 2.9193 2.80179 3.062 2.13479 3.2154C2.12679 3.2172 2.11979 3.219 2.11179 3.221C1.64279 3.3435 1.27579 3.7079 1.14879 4.1759C1.02279 4.6439 1.15579 5.1438 1.49979 5.486C1.98179 5.9685 2.68879 6.675 3.44179 7.4265L0.617789 10.2498C0.305789 10.562 0.305789 11.069 0.617789 11.3812C0.930789 11.6934 1.43779 11.6934 1.74979 11.3812L4.57379 8.5568C5.32979 9.3107 6.04279 10.0204 6.53279 10.5052C6.87279 10.8451 7.37279 10.9764 7.83979 10.8462C8.30679 10.7159 8.66779 10.3442 8.78279 9.8735C8.78379 9.8708 8.78479 9.8681 8.78479 9.8654C8.94279 9.1968 9.08079 8.2699 8.99179 7.3114L10.8008 5.503C11.7768 4.5271 11.7778 2.9446 10.8018 1.968C10.5558 1.7218 10.2968 1.4627 10.0518 1.2165C9.58279 0.747198 8.94579 0.483398 8.28279 0.483398C7.61979 0.483298 6.98279 0.746998 6.51379 1.2163L4.71979 3.0117ZM4.68279 4.6164C4.05879 4.542 3.45579 4.5954 2.95779 4.681L5.13879 6.8604L7.32179 9.0349C7.41179 8.5172 7.46379 7.8923 7.37579 7.2621L4.68279 4.6164ZM8.20579 5.8346L9.66979 4.3714C10.0208 4.02 10.0208 3.4503 9.66979 3.0988L8.91979 2.3473C8.75079 2.1784 8.52179 2.0834 8.28279 2.0834C8.04379 2.0834 7.81479 2.1783 7.64579 2.3472L6.16479 3.8295L8.20579 5.8346Z" fill="black"/>
</svg>
