<svg width="16" height="16" viewBox="0 0 16 16" fill="none" xmlns="http://www.w3.org/2000/svg">
<path fill-rule="evenodd" clip-rule="evenodd" d="M2.65906 5.09856C2.51106 5.27556 2.39606 5.48356 2.32606 5.71256C2.13306 6.34356 2.30406 7.02956 2.77106 7.49456L5.07006 9.79056L1.29406 13.5666C0.982059 13.8786 0.982059 14.3856 1.29406 14.6986C1.60606 15.0106 2.11306 15.0106 2.42506 14.6986L6.20406 10.9196L8.52406 13.2196C8.98306 13.6786 9.66706 13.8466 10.2931 13.6496C10.5141 13.5806 10.7151 13.4696 10.8861 13.3246L8.92706 11.3666C7.36306 9.82356 5.21306 7.67356 3.90206 6.36256L3.87206 6.31156L2.65906 5.09856ZM4.78906 4.35856H4.78406L6.40106 5.97556L6.40806 5.97656L10.0151 9.58456L10.0161 9.59056L11.6341 11.2086V11.2026L14.2611 13.8296C14.5931 14.1616 15.1311 14.1616 15.4631 13.8296C15.7951 13.4976 15.7951 12.9596 15.4631 12.6276L11.8781 9.04256L14.2001 6.72156C15.1891 5.73256 15.1901 4.12956 14.2011 3.14056C13.7771 2.71556 13.3021 2.23956 12.8771 1.81456C12.4021 1.33856 11.7581 1.07156 11.0861 1.07156C10.4131 1.07156 9.76906 1.33856 9.29406 1.81356L6.97206 4.13756L3.52906 0.693563C3.19806 0.362563 2.65906 0.362563 2.32706 0.693563C1.99506 1.02556 1.99506 1.56456 2.32706 1.89556L4.78906 4.35856ZM10.7471 7.91156L13.0691 5.58956C13.4331 5.22556 13.4331 4.63556 13.0691 4.27056L11.7451 2.94556C11.5701 2.77056 11.3331 2.67156 11.0851 2.67156C10.8381 2.67156 10.6011 2.76956 10.4261 2.94556L8.10406 5.26856L10.7471 7.91156Z" fill="black"/>
</svg>
