<svg width="24" height="24" viewBox="0 0 24 24" fill="none" xmlns="http://www.w3.org/2000/svg">
<path fill-rule="evenodd" clip-rule="evenodd" d="M2.65057 3.19448L19.9599 20.5088C19.965 20.5139 19.97 20.5191 19.975 20.5243C20.4076 20.8676 21.0406 20.8394 21.4402 20.4397C21.8702 20.0107 21.8702 19.3137 21.4402 18.8847L16.3902 13.8297L19.8702 10.3507C21.2302 8.98472 21.2302 6.76972 19.8702 5.40172L17.6302 3.16672C16.9802 2.50972 16.0902 2.14072 15.1602 2.14072C14.2302 2.14072 13.3402 2.50972 12.6802 3.16672L9.20023 6.64772L4.30023 1.73972C3.87023 1.31072 3.17023 1.31072 2.74023 1.73972C2.34255 2.13648 2.31266 2.76247 2.65057 3.19448ZM18.4502 8.93672L14.9702 12.4157L10.6202 8.06172L14.1002 4.57972C14.3802 4.29872 14.7602 4.14072 15.1602 4.14072C15.5602 4.14072 15.9402 4.29872 16.2202 4.57972L18.4502 6.81572C19.0402 7.40172 19.0402 8.35072 18.4502 8.93672Z" fill="black"/>
<path d="M4.00357 7.3816L3.96023 7.39172C3.96023 7.39172 3.95023 7.39672 3.94023 7.39872C3.25023 7.58072 2.72023 8.11472 2.53023 8.79872C2.35023 9.48372 2.54023 10.2137 3.05023 10.7147L6.96023 14.6257L1.47023 20.1157C1.08023 20.5057 1.08023 21.1397 1.47023 21.5297C1.86023 21.9197 2.49023 21.9197 2.88023 21.5297L8.38023 16.0377L12.3202 19.9617C12.8102 20.4587 13.5502 20.6517 14.2302 20.4627C14.9102 20.2737 15.4402 19.7317 15.6102 19.0447V19.0347L15.62 18.9947L13.9151 17.2903C13.8502 17.7319 13.767 18.1401 13.6802 18.4997C11.4502 16.2867 6.68023 11.5217 4.48023 9.32372C4.84576 9.23997 5.26166 9.15697 5.71408 9.09163L4.00357 7.3816Z" fill="black"/>
</svg>
