<svg width="16" height="16" viewBox="0 0 16 16" fill="none" xmlns="http://www.w3.org/2000/svg">
<path fill-rule="evenodd" clip-rule="evenodd" d="M6.70706 4.40327C5.61806 4.24927 4.56206 4.34427 3.71506 4.48327C3.70806 4.48427 3.70106 4.48527 3.69406 4.48627C3.04606 4.61027 2.52006 5.08227 2.32606 5.71327C2.13306 6.34427 2.30406 7.03027 2.77106 7.49527L5.07006 9.79127L1.29406 13.5673C0.982059 13.8793 0.982059 14.3863 1.29406 14.6993C1.60606 15.0113 2.11306 15.0113 2.42506 14.6993L6.20406 10.9203L8.52406 13.2203C8.98306 13.6793 9.66706 13.8473 10.2931 13.6503C10.9191 13.4533 11.3841 12.9253 11.4991 12.2793C11.6531 11.4333 11.7451 10.3843 11.5941 9.32627L14.2001 6.72227C15.1891 5.73327 15.1901 4.13027 14.2011 3.14127C13.7771 2.71627 13.3021 2.24027 12.8771 1.81527C12.4021 1.33927 11.7581 1.07227 11.0861 1.07227C10.4131 1.07227 9.76906 1.33927 9.29406 1.81427L6.70706 4.40327ZM6.44706 5.98227C5.55306 5.86127 4.68606 5.94527 3.97906 6.06127C3.92006 6.07827 3.87406 6.12327 3.85606 6.18227C3.83606 6.24627 3.85406 6.31627 3.90106 6.36327C5.42906 7.89127 8.09706 10.5573 9.64506 12.0793C9.64706 12.0813 9.64906 12.0823 9.65006 12.0843C9.69306 12.1263 9.75606 12.1423 9.81306 12.1243C9.87106 12.1063 9.91306 12.0573 9.92406 11.9983L9.92506 11.9953C10.0561 11.2723 10.1401 10.3743 10.0001 9.47227L6.44706 5.98227ZM10.7211 7.93727L13.0691 5.59027C13.4331 5.22627 13.4331 4.63627 13.0691 4.27127L11.7451 2.94627C11.5701 2.77127 11.3331 2.67227 11.0851 2.67227C10.8381 2.67227 10.6011 2.77027 10.4261 2.94627L8.05506 5.31827L10.7211 7.93727Z" fill="black"/>
</svg>
