<svg width="24" height="24" viewBox="0 0 24 24" fill="none" xmlns="http://www.w3.org/2000/svg">
<path fill-rule="evenodd" clip-rule="evenodd" d="M9.81023 7.03762C7.96023 6.82562 6.20023 7.10162 4.96023 7.39162C4.96023 7.39362 4.95023 7.39663 4.94023 7.39862C4.25023 7.58063 3.72023 8.11462 3.53023 8.79862C3.35023 9.48362 3.54023 10.2136 4.05023 10.7146L7.96023 14.6256L2.47023 20.1156C2.08023 20.5056 2.08023 21.1396 2.47023 21.5296C2.86023 21.9196 3.49023 21.9196 3.88023 21.5296L9.38023 16.0376L13.3202 19.9616C13.8102 20.4586 14.5502 20.6516 15.2302 20.4626C15.9102 20.2736 16.4402 19.7316 16.6102 19.0446C16.6102 19.0416 16.6102 19.0376 16.6102 19.0346C16.9102 17.7976 17.1702 16.0426 16.9702 14.2446L20.8702 10.3506C22.2302 8.98462 22.2302 6.76962 20.8702 5.40162L18.6302 3.16663C17.9802 2.50963 17.0902 2.14062 16.1602 2.14062C15.2302 2.14062 14.3402 2.50963 13.6802 3.16663L9.81023 7.03762ZM9.79023 9.04963C8.15023 8.82363 6.58023 9.06962 5.48023 9.32363C7.68023 11.5216 12.4502 16.2866 14.6802 18.4996C14.9502 17.3616 15.1902 15.7336 14.9302 14.1026L9.79023 9.04963ZM16.0202 12.3666L19.4502 8.93663C20.0402 8.35063 20.0402 7.40163 19.4502 6.81563L17.2202 4.57963C16.9402 4.29863 16.5602 4.14062 16.1602 4.14062C15.7602 4.14062 15.3802 4.29863 15.1002 4.57963L11.6302 8.05163L16.0202 12.3666Z" fill="black"/>
</svg>
