<svg width="16" height="16" viewBox="0 0 16 16" fill="none" xmlns="http://www.w3.org/2000/svg">
<path fill-rule="evenodd" clip-rule="evenodd" d="M1 10.35C1 10.2119 1.11193 10.1 1.25 10.1H2.35C2.48807 10.1 2.6 10.2119 2.6 10.35V12.2C2.6 12.8627 3.13726 13.4 3.8 13.4H5.65C5.78807 13.4 5.9 13.5119 5.9 13.65V14.75C5.9 14.8881 5.78807 15 5.65 15H3.8C2.2536 15 1 13.7464 1 12.2V10.35ZM1.25 5.9C1.11193 5.9 1 5.78807 1 5.65V3.8C1 2.2536 2.2536 1 3.8 1H5.65C5.78807 1 5.9 1.11193 5.9 1.25V2.35C5.9 2.48807 5.78807 2.6 5.65 2.6H3.8C3.13726 2.6 2.6 3.13726 2.6 3.8V5.65C2.6 5.78807 2.48807 5.9 2.35 5.9H1.25ZM10.1 1.25C10.1 1.11193 10.2119 1 10.35 1H12.2C13.7464 1 15 2.2536 15 3.8V5.65C15 5.78807 14.8881 5.9 14.75 5.9H13.65C13.5119 5.9 13.4 5.78807 13.4 5.65V3.8C13.4 3.13726 12.8627 2.6 12.2 2.6H10.35C10.2119 2.6 10.1 2.48807 10.1 2.35V1.25ZM14.75 10.1C14.8881 10.1 15 10.2119 15 10.35V12.2C15 13.7464 13.7464 15 12.2 15H10.35C10.2119 15 10.1 14.8881 10.1 14.75V13.65C10.1 13.5119 10.2119 13.4 10.35 13.4H12.2C12.8627 13.4 13.4 12.8627 13.4 12.2V10.35C13.4 10.2119 13.5119 10.1 13.65 10.1H14.75ZM11.2345 6.66004C11.4896 6.55447 11.6136 6.25999 11.4768 6.02011C11.3036 5.71647 11.0875 5.43067 10.8284 5.17157C10.5693 4.91248 10.2835 4.69635 9.97988 4.52321C9.74 4.38642 9.44553 4.51036 9.33996 4.76552L8.95764 5.68956C8.85207 5.94472 8.97887 6.23284 9.19945 6.39896C9.27388 6.45501 9.34565 6.51723 9.41421 6.58579C9.48276 6.65434 9.54498 6.72612 9.60103 6.80054C9.76716 7.02113 10.0553 7.14792 10.3104 7.04235L11.2345 6.66004ZM6.66003 4.76552C6.55446 4.51036 6.25999 4.38642 6.0201 4.52321C5.71646 4.69635 5.43066 4.91248 5.17157 5.17157C4.91247 5.43067 4.69635 5.71647 4.5232 6.02011C4.38641 6.25999 4.51035 6.55447 4.76552 6.66004L5.68955 7.04235C5.94472 7.14793 6.23283 7.02113 6.39896 6.80054C6.45501 6.72612 6.51722 6.65434 6.58578 6.58579C6.65434 6.51723 6.72611 6.45501 6.80054 6.39896C7.02112 6.23284 7.14792 5.94472 7.04235 5.68956L6.66003 4.76552ZM4.5232 9.97989C4.38641 9.74001 4.51035 9.44553 4.76552 9.33996L5.68955 8.95765C5.94472 8.85208 6.23283 8.97887 6.39896 9.19946C6.45501 9.27388 6.51722 9.34566 6.58578 9.41421C6.65434 9.48277 6.72611 9.54499 6.80054 9.60104C7.02112 9.76716 7.14792 10.0553 7.04235 10.3104L6.66003 11.2345C6.55446 11.4896 6.25999 11.6136 6.0201 11.4768C5.71646 11.3036 5.43066 11.0875 5.17157 10.8284C4.91247 10.5693 4.69635 10.2835 4.5232 9.97989ZM9.33996 11.2345C9.44553 11.4896 9.74 11.6136 9.97988 11.4768C10.2835 11.3036 10.5693 11.0875 10.8284 10.8284C11.0875 10.5693 11.3036 10.2835 11.4768 9.97989C11.6136 9.74001 11.4896 9.44553 11.2345 9.33996L10.3104 8.95765C10.0553 8.85207 9.76716 8.97887 9.60103 9.19946C9.54498 9.27388 9.48276 9.34566 9.41421 9.41421C9.34565 9.48277 9.27388 9.54499 9.19945 9.60104C8.97887 9.76716 8.85207 10.0553 8.95764 10.3104L9.33996 11.2345Z" fill="black"/>
</svg>
