<svg width="12" height="12" viewBox="0 0 12 12" fill="none" xmlns="http://www.w3.org/2000/svg">
<g clip-path="url(#clip0_32141_4659)">
<path fill-rule="evenodd" clip-rule="evenodd" d="M0.75 7.825C0.75 7.68693 0.861929 7.575 1 7.575H1.7C1.83807 7.575 1.95 7.68693 1.95 7.825V9.15C1.95 9.64706 2.35294 10.05 2.85 10.05H4.175C4.31307 10.05 4.425 10.1619 4.425 10.3V11C4.425 11.1381 4.31307 11.25 4.175 11.25H2.85C1.6902 11.25 0.75 10.3098 0.75 9.15V7.825ZM1 4.425C0.861929 4.425 0.75 4.31307 0.75 4.175V2.85C0.75 1.6902 1.6902 0.75 2.85 0.75H4.175C4.31307 0.75 4.425 0.861928 4.425 1V1.7C4.425 1.83807 4.31307 1.95 4.175 1.95H2.85C2.35294 1.95 1.95 2.35294 1.95 2.85V4.175C1.95 4.31307 1.83807 4.425 1.7 4.425H1ZM7.575 1C7.575 0.861929 7.68693 0.75 7.825 0.75H9.15C10.3098 0.75 11.25 1.6902 11.25 2.85V4.175C11.25 4.31307 11.1381 4.425 11 4.425H10.3C10.1619 4.425 10.05 4.31307 10.05 4.175V2.85C10.05 2.35294 9.64706 1.95 9.15 1.95H7.825C7.68693 1.95 7.575 1.83807 7.575 1.7V1ZM11 7.575C11.1381 7.575 11.25 7.68693 11.25 7.825V9.15C11.25 10.3098 10.3098 11.25 9.15 11.25H7.825C7.68693 11.25 7.575 11.1381 7.575 11V10.3C7.575 10.1619 7.68693 10.05 7.825 10.05H9.15C9.64706 10.05 10.05 9.64706 10.05 9.15V7.825C10.05 7.68693 10.1619 7.575 10.3 7.575H11ZM8.31035 5.04282C8.56551 4.93724 8.69014 4.64176 8.54341 4.40783C8.42554 4.2199 8.28484 4.0422 8.12132 3.87868C7.9578 3.71516 7.78009 3.57446 7.59217 3.45659C7.35824 3.30985 7.06275 3.43448 6.95718 3.68965L6.76602 4.15166C6.66045 4.40683 6.79008 4.69471 6.99621 4.87847C7.01808 4.89797 7.03957 4.91825 7.06066 4.93934C7.08174 4.96043 7.10203 4.98192 7.12152 5.00379C7.30528 5.20991 7.59317 5.33955 7.84833 5.23397L8.31035 5.04282ZM5.04281 3.68965C4.93724 3.43448 4.64175 3.30985 4.40782 3.45659C4.2199 3.57446 4.0422 3.71516 3.87868 3.87868C3.71515 4.0422 3.57446 4.2199 3.45658 4.40782C3.30985 4.64176 3.43448 4.93724 3.68964 5.04282L4.15166 5.23397C4.40682 5.33955 4.69471 5.20991 4.87847 5.00379C4.89796 4.98192 4.91825 4.96043 4.93934 4.93934C4.96042 4.91825 4.98191 4.89797 5.00378 4.87847C5.20991 4.69471 5.33954 4.40683 5.23397 4.15166L5.04281 3.68965ZM3.45658 7.59217C3.30985 7.35824 3.43448 7.06275 3.68964 6.95718L4.15166 6.76602C4.40682 6.66045 4.69471 6.79008 4.87847 6.99621C4.89796 7.01808 4.91825 7.03957 4.93934 7.06066C4.96042 7.08175 4.98191 7.10203 5.00378 7.12153C5.20991 7.30529 5.33954 7.59317 5.23397 7.84833L5.04281 8.31035C4.93724 8.56552 4.64175 8.69015 4.40782 8.54341C4.2199 8.42554 4.0422 8.28484 3.87868 8.12132C3.71515 7.9578 3.57446 7.7801 3.45658 7.59217ZM6.95718 8.31035C7.06275 8.56552 7.35824 8.69015 7.59217 8.54341C7.78009 8.42554 7.9578 8.28484 8.12132 8.12132C8.28484 7.9578 8.42554 7.7801 8.54341 7.59217C8.69014 7.35824 8.56551 7.06275 8.31035 6.95718L7.84833 6.76602C7.59317 6.66045 7.30528 6.79008 7.12153 6.99621C7.10203 7.01808 7.08174 7.03957 7.06066 7.06066C7.03957 7.08175 7.01808 7.10203 6.99621 7.12153C6.79008 7.30529 6.66045 7.59317 6.76602 7.84834L6.95718 8.31035Z" fill="black"/>
</g>
<defs>
<clipPath id="clip0_32141_4659">
<rect width="12" height="12" rx="4" fill="white"/>
</clipPath>
</defs>
</svg>
