<svg width="24" height="24" viewBox="0 0 24 24" fill="none" xmlns="http://www.w3.org/2000/svg">
<path fill-rule="evenodd" clip-rule="evenodd" d="M1.5 15.4C1.5 15.2619 1.61193 15.15 1.75 15.15H3.65C3.78807 15.15 3.9 15.2619 3.9 15.4V18.3C3.9 19.2941 4.70589 20.1 5.7 20.1H8.6C8.73807 20.1 8.85 20.2119 8.85 20.35V22.25C8.85 22.3881 8.73807 22.5 8.6 22.5H5.7C3.3804 22.5 1.5 20.6196 1.5 18.3V15.4ZM1.75 8.85C1.61193 8.85 1.5 8.73807 1.5 8.6V5.7C1.5 3.3804 3.3804 1.5 5.7 1.5H8.6C8.73807 1.5 8.85 1.61193 8.85 1.75V3.65C8.85 3.78807 8.73807 3.9 8.6 3.9H5.7C4.70589 3.9 3.9 4.70589 3.9 5.7V8.6C3.9 8.73807 3.78807 8.85 3.65 8.85H1.75ZM15.15 1.75C15.15 1.61193 15.2619 1.5 15.4 1.5H18.3C20.6196 1.5 22.5 3.3804 22.5 5.7V8.6C22.5 8.73807 22.3881 8.85 22.25 8.85H20.35C20.2119 8.85 20.1 8.73807 20.1 8.6V5.7C20.1 4.70589 19.2941 3.9 18.3 3.9H15.4C15.2619 3.9 15.15 3.78807 15.15 3.65V1.75ZM22.25 15.15C22.3881 15.15 22.5 15.2619 22.5 15.4V18.3C22.5 20.6196 20.6196 22.5 18.3 22.5H15.4C15.2619 22.5 15.15 22.3881 15.15 22.25V20.35C15.15 20.2119 15.2619 20.1 15.4 20.1H18.3C19.2941 20.1 20.1 19.2941 20.1 18.3V15.4C20.1 15.2619 20.2119 15.15 20.35 15.15H22.25ZM17.0827 9.89448C17.3379 9.78891 17.461 9.49528 17.3344 9.24987C17.0571 8.71233 16.6932 8.20793 16.2426 7.75736C15.7921 7.30679 15.2877 6.94286 14.7501 6.66557C14.5047 6.53897 14.2111 6.66211 14.1055 6.91728L13.3409 8.76534C13.2353 9.02051 13.3597 9.30956 13.5934 9.45659C13.7794 9.5736 13.9566 9.71394 14.1213 9.87868C14.2861 10.0434 14.4264 10.2206 14.5434 10.4066C14.6904 10.6403 14.9795 10.7647 15.2346 10.6591L17.0827 9.89448ZM9.89447 6.91728C9.7889 6.66211 9.49527 6.53897 9.24986 6.66557C8.71233 6.94286 8.20792 7.30679 7.75735 7.75736C7.30678 8.20793 6.94285 8.71233 6.66556 9.24987C6.53896 9.49528 6.6621 9.78891 6.91727 9.89448L8.76534 10.6591C9.0205 10.7647 9.30955 10.6403 9.45658 10.4066C9.57359 10.2206 9.71393 10.0434 9.87867 9.87868C10.0434 9.71394 10.2206 9.5736 10.4066 9.45659C10.6403 9.30956 10.7647 9.02051 10.6591 8.76534L9.89447 6.91728ZM6.66556 14.7501C6.53897 14.5047 6.66211 14.2111 6.91727 14.1055L8.76534 13.3409C9.0205 13.2353 9.30955 13.3597 9.45658 13.5934C9.57359 13.7794 9.71393 13.9566 9.87867 14.1213C10.0434 14.2861 10.2206 14.4264 10.4066 14.5434C10.6403 14.6904 10.7647 14.9795 10.6591 15.2347L9.89447 17.0827C9.7889 17.3379 9.49527 17.461 9.24986 17.3344C8.71233 17.0571 8.20792 16.6932 7.75735 16.2426C7.30678 15.7921 6.94285 15.2877 6.66556 14.7501ZM14.1055 17.0827C14.2111 17.3379 14.5047 17.461 14.7501 17.3344C15.2877 17.0571 15.7921 16.6932 16.2426 16.2426C16.6932 15.7921 17.0571 15.2877 17.3344 14.7501C17.461 14.5047 17.3379 14.2111 17.0827 14.1055L15.2346 13.3409C14.9795 13.2353 14.6904 13.3597 14.5434 13.5934C14.4264 13.7794 14.2861 13.9566 14.1213 14.1213C13.9566 14.2861 13.7794 14.4264 13.5934 14.5434C13.3597 14.6904 13.2353 14.9795 13.3409 15.2347L14.1055 17.0827Z" fill="black"/>
</svg>
