<svg width="16" height="16" viewBox="0 0 16 16" fill="none" xmlns="http://www.w3.org/2000/svg">
<path fill-rule="evenodd" clip-rule="evenodd" d="M7.25687 9.70142C6.04687 9.64142 3.69677 9.34128 2.16677 7.81128C0.0367608 5.68129 0.286879 1.93141 0.286879 1.93141C0.316879 1.56141 0.606821 1.27147 0.976822 1.24147C0.976822 1.24147 4.72696 0.991352 6.85697 3.12135C7.36697 3.63135 7.73688 4.23133 8.01688 4.85133C8.28688 4.24133 8.65678 3.65137 9.15678 3.14137C11.2968 1.01137 15.0469 1.26149 15.0469 1.26149C15.4169 1.29149 15.7069 1.58143 15.7369 1.95143C15.7369 1.95143 15.987 5.70132 13.857 7.84131C12.327 9.36131 9.97688 9.67144 8.75687 9.72144C8.76687 12.3314 8.76688 15.0215 8.76688 15.0215C8.75688 15.4315 8.42687 15.7615 8.00687 15.7615C7.59687 15.7615 7.25688 15.4315 7.26688 15.0115C7.26688 15.0115 7.26687 12.3114 7.25687 9.70142ZM7.24686 8.0315C7.19686 7.0115 6.92691 5.31141 5.7969 4.18141C4.6069 2.99141 2.76688 2.76146 1.77687 2.73146C1.80687 3.71146 2.03683 5.55147 3.22683 6.75147C4.42683 7.95147 6.26686 8.18143 7.24686 8.21143C7.24686 8.15143 7.24686 8.0915 7.24686 8.0315ZM12.7869 6.7815C13.9969 5.5815 14.2169 3.73148 14.2469 2.75148C13.2669 2.78148 11.4168 3.00143 10.2168 4.20143C9.01684 5.40142 8.78687 7.25146 8.75687 8.24146C9.74688 8.20146 11.5969 7.9815 12.7869 6.7815Z" fill="black"/>
</svg>
