<svg width="24" height="24" viewBox="0 0 24 24" fill="none" xmlns="http://www.w3.org/2000/svg">
<path fill-rule="evenodd" clip-rule="evenodd" d="M16.991 17H14.159C13.607 17 13.159 17.45 13.159 18C13.159 18.55 13.607 19 14.159 19H16.991V21.82C16.991 22.37 17.439 22.82 17.991 22.82C18.543 22.82 18.991 22.37 18.991 21.82V19H21.829C22.381 19 22.829 18.55 22.829 18C22.829 17.45 22.381 17 21.829 17H18.991V14.15C18.991 13.6 18.543 13.15 17.991 13.15C17.439 13.15 16.991 13.6 16.991 14.15V17ZM5.63198 3.20999C4.91298 2.73999 3.99198 2.68999 3.23298 3.09999C2.47398 3.50999 2.00098 4.29999 2.00098 5.15999V16.79C2.00098 17.65 2.47398 18.44 3.23298 18.85C3.99198 19.26 4.91298 19.22 5.63198 18.74L14.443 12.93C15.1 12.5 15.495 11.76 15.495 10.98C15.495 10.19 15.1 9.45999 14.443 9.01999L5.63198 3.20999ZM4.53098 4.87999L13.341 10.69C13.437 10.75 13.495 10.86 13.495 10.98C13.495 11.09 13.437 11.2 13.342 11.26L4.53098 17.07C4.42598 17.14 4.29198 17.15 4.18098 17.09C4.06998 17.03 4.00098 16.91 4.00098 16.79V5.15999C4.00098 5.03999 4.06998 4.91999 4.18098 4.85999C4.29198 4.79999 4.42598 4.80999 4.53098 4.87999Z" fill="black"/>
</svg>
