<svg width="24" height="24" viewBox="0 0 24 24" fill="none" xmlns="http://www.w3.org/2000/svg">
<path fill-rule="evenodd" clip-rule="evenodd" d="M11.9995 2C17.5195 2 22 6.48 22 12C22 17.519 17.5195 22 11.9995 22C6.48053 22 2 17.519 2 12C2 6.48 6.48053 2 11.9995 2ZM11.2758 7.64C10.9781 7.42 10.5822 7.39 10.2514 7.55C9.92061 7.72 9.71212 8.058 9.71413 8.428C9.72215 10.44 9.73417 13.559 9.74119 15.558C9.7432 15.925 9.95068 16.26 10.2795 16.425C10.6072 16.591 11.0012 16.558 11.2978 16.341C12.7412 15.285 14.8572 13.737 16.1212 12.812C16.3718 12.629 16.5201 12.339 16.5211 12.029C16.5221 11.719 16.3758 11.428 16.1272 11.243C14.8602 10.303 12.7322 8.722 11.2758 7.64Z" fill="black"/>
</svg>
