<svg width="16" height="16" viewBox="0 0 16 16" fill="none" xmlns="http://www.w3.org/2000/svg">
<path fill-rule="evenodd" clip-rule="evenodd" d="M7.99994 0.689453C3.96594 0.689453 0.689941 3.96545 0.689941 7.99945C0.689941 12.0335 3.96594 15.3095 7.99994 15.3095C12.0339 15.3095 15.3099 12.0335 15.3099 7.99945C15.3099 3.96545 12.0339 0.689453 7.99994 0.689453ZM7.99994 2.28945C11.1509 2.28945 13.7099 4.84845 13.7099 7.99945C13.7099 11.1505 11.1509 13.7095 7.99994 13.7095C4.84894 13.7095 2.28994 11.1505 2.28994 7.99945C2.28994 4.84845 4.84894 2.28945 7.99994 2.28945ZM7.17594 4.77545C6.95794 4.61945 6.67094 4.59745 6.43194 4.72045C6.19394 4.84245 6.04294 5.08845 6.04294 5.35645C6.04294 6.83345 6.04294 9.15045 6.04294 10.6275C6.04294 10.8955 6.19394 11.1415 6.43194 11.2635C6.67094 11.3855 6.95794 11.3645 7.17594 11.2085C8.26394 10.4265 9.88094 9.26545 10.8449 8.57245C11.0319 8.43845 11.1429 8.22245 11.1429 7.99145C11.1429 7.76145 11.0319 7.54545 10.8449 7.41145C9.88094 6.71845 8.26394 5.55745 7.17594 4.77545Z" fill="black"/>
</svg>
