<svg width="24" height="24" viewBox="0 0 24 24" fill="none" xmlns="http://www.w3.org/2000/svg">
<path fill-rule="evenodd" clip-rule="evenodd" d="M16 13.367C15.275 12.88 14.403 12.595 13.464 12.595C13.455 12.595 13.446 12.595 13.436 12.595C10.922 12.595 8.884 14.633 8.884 17.147C8.884 19.661 10.922 21.7 13.436 21.7C13.446 21.7 13.455 21.7 13.464 21.7C15.978 21.7 18.016 19.662 18.016 17.148C18.016 17.019 18.011 16.891 18 16.764V6C18 5.45 18.448 5 19 5H22.665C23.217 5 23.665 4.55 23.665 4C23.665 3.45 23.217 3 22.665 3H19C17.343 3 16 4.34 16 6V13.367ZM16 16.863C15.859 15.587 14.777 14.595 13.464 14.595C13.455 14.595 13.446 14.595 13.436 14.595C12.027 14.595 10.884 15.738 10.884 17.147C10.884 18.556 12.027 19.7 13.436 19.7C13.446 19.7 13.455 19.7 13.464 19.7C14.865 19.7 16.002 18.572 16.016 17.174C16.005 17.118 16 17.06 16 17V16.863ZM6 13H1C0.448 13 0 13.448 0 14C0 14.552 0.448 15 1 15H6C6.552 15 7 14.552 7 14C7 13.448 6.552 13 6 13ZM12 8H1C0.448 8 0 8.448 0 9C0 9.552 0.448 10 1 10H12C12.552 10 13 9.552 13 9C13 8.448 12.552 8 12 8ZM12 3H1C0.448 3 0 3.45 0 4C0 4.55 0.448 5 1 5H12C12.552 5 13 4.55 13 4C13 3.45 12.552 3 12 3Z" fill="black"/>
</svg>
