<svg width="16" height="16" viewBox="0 0 16 16" fill="none" xmlns="http://www.w3.org/2000/svg">
<path fill-rule="evenodd" clip-rule="evenodd" d="M10.994 10.9982H9.43938C8.88748 10.9982 8.43938 11.4463 8.43938 11.9982C8.43938 12.5501 8.88748 12.9982 9.43938 12.9982H10.994V14.5476C10.994 15.0995 11.4421 15.5476 11.994 15.5476C12.5459 15.5476 12.994 15.0995 12.994 14.5476V12.9982H14.5526C15.1045 12.9982 15.5526 12.5501 15.5526 11.9982C15.5526 11.4463 15.1045 10.9982 14.5526 10.9982H12.994V9.43436C12.994 8.88246 12.5459 8.43436 11.994 8.43436C11.4421 8.43436 10.994 8.88246 10.994 9.43436V10.9982ZM9.94218 4.29206L4.39748 0.549962C3.76908 0.125862 2.95788 0.0832616 2.28848 0.439062C1.61908 0.794862 1.20068 1.49106 1.20068 2.24916V9.73336C1.20068 10.4915 1.61908 11.1877 2.28848 11.5435C2.95788 11.8993 3.76908 11.8567 4.39748 11.4326L9.94218 7.69046C10.507 7.30936 10.8455 6.67256 10.8455 5.99126C10.8455 5.30996 10.507 4.67316 9.94218 4.29206ZM3.50238 1.87616L9.04718 5.61826C9.17118 5.70196 9.24548 5.84176 9.24548 5.99126C9.24548 6.14076 9.17118 6.28056 9.04718 6.36426L3.50238 10.1063C3.36448 10.1994 3.18638 10.2088 3.03948 10.1307C2.89258 10.0526 2.80068 9.89976 2.80068 9.73336V2.24916C2.80068 2.08276 2.89258 1.92996 3.03948 1.85186C3.18638 1.77376 3.36448 1.78316 3.50238 1.87616Z" fill="black"/>
</svg>
