<svg width="16" height="16" viewBox="0 0 16 16" fill="none" xmlns="http://www.w3.org/2000/svg">
<path fill-rule="evenodd" clip-rule="evenodd" d="M12.1232 11.1975H10.6299C10.1907 11.1975 9.83504 11.5555 9.83504 11.9975C9.83504 12.4385 10.1907 12.7975 10.6299 12.7975H12.1232V14.2995C12.1232 14.7415 12.4789 15.0995 12.918 15.0995C13.3562 15.0995 13.7128 14.7415 13.7128 14.2995V12.7975H15.2051C15.6443 12.7975 16 12.4385 16 11.9975C16 11.5555 15.6443 11.1975 15.2051 11.1975H13.7128V9.6945C13.7128 9.2535 13.3562 8.8945 12.918 8.8945C12.4789 8.8945 12.1232 9.2535 12.1232 9.6945V11.1975ZM1.65323 12.8045H7.72178C8.16093 12.8045 8.51661 12.4465 8.51661 12.0045C8.51661 11.5635 8.16093 11.2045 7.72178 11.2045H1.65323C1.21409 11.2045 0.858398 11.5635 0.858398 12.0045C0.858398 12.4465 1.21409 12.8045 1.65323 12.8045ZM1.65323 8.7995H9.54096C9.9801 8.7995 10.3358 8.4415 10.3358 7.9995C10.3358 7.5575 9.9801 7.1995 9.54096 7.1995H1.65323C1.21409 7.1995 0.858398 7.5575 0.858398 7.9995C0.858398 8.4415 1.21409 8.7995 1.65323 8.7995ZM1.65323 4.7875H12.297C12.7362 4.7875 13.0919 4.4285 13.0919 3.9875C13.0919 3.5455 12.7362 3.1875 12.297 3.1875H1.65323C1.21409 3.1875 0.858398 3.5455 0.858398 3.9875C0.858398 4.4285 1.21409 4.7875 1.65323 4.7875Z" fill="black"/>
</svg>
