<svg width="24" height="24" viewBox="0 0 24 24" fill="none" xmlns="http://www.w3.org/2000/svg">
<path fill-rule="evenodd" clip-rule="evenodd" d="M17.9521 15.957H16.0021C15.4231 15.957 14.9521 16.428 14.9521 17.007C14.9521 17.587 15.4231 18.057 16.0021 18.057H17.9521V20.005C17.9521 20.584 18.4231 21.055 19.0021 21.055C19.5821 21.055 20.0521 20.584 20.0521 20.005V18.057H22.0021C22.5821 18.057 23.0521 17.587 23.0521 17.007C23.0521 16.428 22.5821 15.957 22.0021 15.957H20.0521V14.005C20.0521 13.425 19.5821 12.955 19.0021 12.955C18.4231 12.955 17.9521 13.425 17.9521 14.005V15.957ZM2.99609 18H12.0001C12.5521 18 13.0001 17.552 13.0001 17C13.0001 16.448 12.5521 16 12.0001 16H2.99609C2.44409 16 1.99609 16.448 1.99609 17C1.99609 17.552 2.44409 18 2.99609 18ZM2.99609 12H15.0001C15.5521 12 16.0001 11.552 16.0001 11C16.0001 10.448 15.5521 10 15.0001 10H2.99609C2.44409 10 1.99609 10.448 1.99609 11C1.99609 11.552 2.44409 12 2.99609 12ZM2.99609 6H18.9961C19.5481 6 19.9961 5.55 19.9961 5C19.9961 4.45 19.5481 4 18.9961 4H2.99609C2.44409 4 1.99609 4.45 1.99609 5C1.99609 5.55 2.44409 6 2.99609 6Z" fill="black"/>
</svg>
