<svg width="24" height="24" viewBox="0 0 24 24" fill="none" xmlns="http://www.w3.org/2000/svg">
<path fill-rule="evenodd" clip-rule="evenodd" d="M11.9995 2C6.48153 2 2 6.48 2 12C2 17.52 6.48153 22 11.9995 22C17.5185 22 22 17.52 22 12C22 6.48 17.5185 2 11.9995 2ZM11.9995 4C16.4129 4 19.9953 7.59 19.9953 12C19.9953 16.415 16.4129 20 11.9995 20C7.58613 20 4.00471 16.415 4.00471 12C4.00471 7.59 7.58613 4 11.9995 4ZM11.0533 7.71C10.7556 7.49 10.3596 7.46 10.0289 7.63C9.69809 7.79 9.4896 8.13 9.4916 8.5C9.49862 10.482 9.51065 13.531 9.51867 15.5C9.51967 15.867 9.72716 16.202 10.0559 16.367C10.3837 16.532 10.7776 16.5 11.0743 16.283C12.4957 15.243 14.5645 13.73 15.8095 12.819C16.06 12.636 16.2084 12.345 16.2094 12.035C16.2104 11.726 16.064 11.434 15.8155 11.249C14.5675 10.323 12.4866 8.778 11.0533 7.71Z" fill="black"/>
</svg>
