<svg width="24" height="24" viewBox="0 0 24 24" fill="none" xmlns="http://www.w3.org/2000/svg">
<path fill-rule="evenodd" clip-rule="evenodd" d="M8.62221 2.21961C7.90321 1.74961 6.98121 1.70961 6.22221 2.10961C5.46421 2.51961 4.99121 3.30961 4.99121 4.17961C4.99121 8.14961 4.99121 15.8596 4.99121 19.8296C4.99121 20.6996 5.46421 21.4896 6.22221 21.8996C6.98121 22.3096 7.90321 22.2596 8.62221 21.7896L20.4902 13.9596C21.1472 13.5296 21.5422 12.7896 21.5422 12.0096C21.5422 11.2196 21.1472 10.4796 20.4902 10.0496L8.62221 2.21961ZM7.52021 3.88961L19.3892 11.7196C19.4852 11.7796 19.5422 11.8896 19.5422 12.0096C19.5422 12.1196 19.4852 12.2296 19.3892 12.2896L7.52121 20.1196C7.41621 20.1896 7.28121 20.1996 7.17021 20.1396C7.06021 20.0796 6.99121 19.9596 6.99121 19.8296V4.17961C6.99121 4.04961 7.06021 3.92961 7.17021 3.87961C7.28121 3.81961 7.41621 3.81961 7.52021 3.88961Z" fill="black"/>
</svg>
