<svg width="16" height="16" viewBox="0 0 16 16" fill="none" xmlns="http://www.w3.org/2000/svg">
<path fill-rule="evenodd" clip-rule="evenodd" d="M1.55098 12.786H14.377C14.819 12.786 15.177 12.427 15.177 11.986C15.177 11.544 14.819 11.186 14.377 11.186H1.55098C1.10998 11.186 0.750977 11.544 0.750977 11.986C0.750977 12.427 1.10998 12.786 1.55098 12.786ZM6.21998 8.78597H14.377C14.819 8.78597 15.177 8.42697 15.177 7.98597C15.177 7.54397 14.819 7.18597 14.377 7.18597H6.21998C5.77798 7.18597 5.41998 7.54397 5.41998 7.98597C5.41998 8.42697 5.77798 8.78597 6.21998 8.78597ZM2.34898 0.846968C2.08998 0.660968 1.74898 0.635968 1.46598 0.780968C1.18198 0.926968 1.00398 1.21797 1.00398 1.53697C1.00398 2.96297 1.00398 5.01097 1.00398 6.43697C1.00398 6.75597 1.18198 7.04697 1.46598 7.19297C1.74898 7.33797 2.08998 7.31297 2.34898 7.12697C3.39598 6.37497 4.82598 5.34797 5.75998 4.67697C5.98298 4.51697 6.11398 4.26097 6.11398 3.98697C6.11398 3.71397 5.98298 3.45697 5.75998 3.29697C4.82598 2.62597 3.39598 1.59997 2.34898 0.846968ZM8.65498 4.78597H14.377C14.819 4.78597 15.177 4.42697 15.177 3.98597C15.177 3.54397 14.819 3.18597 14.377 3.18597H8.65498C8.21398 3.18597 7.85498 3.54397 7.85498 3.98597C7.85498 4.42697 8.21398 4.78597 8.65498 4.78597Z" fill="black"/>
</svg>
