<svg width="16" height="16" viewBox="0 0 16 16" fill="none" xmlns="http://www.w3.org/2000/svg">
<path fill-rule="evenodd" clip-rule="evenodd" d="M6.49772 1.22925C5.83872 0.784454 4.98802 0.739654 4.28592 1.11285C3.58382 1.48605 3.14502 2.21625 3.14502 3.01135V12.9716C3.14502 13.7667 3.58382 14.4969 4.28592 14.8701C4.98802 15.2433 5.83872 15.1985 6.49772 14.7537L13.877 9.77355C14.4693 9.37385 14.8243 8.70595 14.8243 7.99145C14.8243 7.27695 14.4693 6.60905 13.877 6.20935L6.49772 1.22925ZM5.60272 2.55545L12.9819 7.53555C13.1335 7.63785 13.2243 7.80865 13.2243 7.99145C13.2243 8.17425 13.1335 8.34505 12.982 8.44735L5.60272 13.4275C5.43412 13.5413 5.21652 13.5527 5.03692 13.4573C4.85732 13.3618 4.74502 13.175 4.74502 12.9717V3.01135C4.74502 2.80795 4.85732 2.62115 5.03692 2.52565C5.21652 2.43025 5.43412 2.44165 5.60272 2.55545Z" fill="black"/>
</svg>
