<svg width="24" height="24" viewBox="0 0 24 24" fill="none" xmlns="http://www.w3.org/2000/svg">
<path fill-rule="evenodd" clip-rule="evenodd" d="M4.99987 13.2356C2.92237 13.2356 1.23567 14.9223 1.23567 16.9998C1.23567 19.0773 2.92237 20.764 4.99987 20.764C7.07737 20.764 8.76407 19.0773 8.76407 16.9998C8.76407 14.9223 7.07737 13.2356 4.99987 13.2356ZM4.99987 15.2356C5.97357 15.2356 6.76407 16.0261 6.76407 16.9998C6.76407 17.9735 5.97357 18.764 4.99987 18.764C4.02617 18.764 3.23567 17.9735 3.23567 16.9998C3.23567 16.0261 4.02617 15.2356 4.99987 15.2356ZM21.9542 15.8998H13.9999C13.3928 15.8998 12.8999 16.3927 12.8999 16.9998C12.8999 17.6069 13.3928 18.0998 13.9999 18.0998H21.9542C22.5613 18.0998 23.0542 17.6069 23.0542 16.9998C23.0542 16.3927 22.5613 15.8998 21.9542 15.8998ZM1.44117 6.33325L4.13997 9.08945C4.33967 9.29345 4.61507 9.40555 4.90057 9.39905C5.18597 9.39245 5.45597 9.26785 5.64617 9.05495L10.2328 3.91935C10.612 3.49485 10.5751 2.84225 10.1506 2.46315C9.72597 2.08395 9.07347 2.12075 8.69427 2.54535L4.84227 6.85835L2.91507 4.89015C2.51677 4.48335 1.86327 4.47655 1.45657 4.87475C1.04987 5.27305 1.04297 5.92655 1.44117 6.33325ZM21.9542 4.89984H13.9999C13.3928 4.89984 12.8999 5.39274 12.8999 5.99984C12.8999 6.60694 13.3928 7.09984 13.9999 7.09984H21.9542C22.5613 7.09984 23.0542 6.60694 23.0542 5.99984C23.0542 5.39274 22.5613 4.89984 21.9542 4.89984Z" fill="black"/>
</svg>
