<svg width="24" height="24" viewBox="0 0 24 24" fill="none" xmlns="http://www.w3.org/2000/svg">
<path fill-rule="evenodd" clip-rule="evenodd" d="M10.45 3.18734C10.2499 2.25357 10.9617 1.37305 11.9167 1.37305H15.1441C18.4578 1.37305 21.1441 4.05934 21.1441 7.37305V9.65794C21.1441 13.084 18.3667 15.8614 14.9406 15.8614H8.69646C5.27036 15.8614 2.49296 13.084 2.49296 9.65794C2.49296 8.6695 2.33958 8.17588 2.17552 7.94196C2.07107 7.79304 1.88916 7.63861 1.32471 7.63861C0.772422 7.63861 0.324707 7.19089 0.324707 6.63861C0.324707 6.08632 0.772422 5.63861 1.32471 5.63861C2.3213 5.63861 3.22352 5.95314 3.81294 6.79354C4.17658 7.31202 4.3614 7.95329 4.44156 8.65794H11.6222L10.45 3.18734ZM13.6677 8.65794H19.1441V7.37305C19.1441 5.16391 17.3532 3.37305 15.1441 3.37305H12.5352L13.6677 8.65794ZM19.0244 10.6579H4.61264C5.06134 12.4967 6.71952 13.8614 8.69646 13.8614H14.9406C16.9176 13.8614 18.5757 12.4967 19.0244 10.6579Z" fill="black"/>
<path fill-rule="evenodd" clip-rule="evenodd" d="M5.09497 19.5446C5.09497 17.8428 6.47456 16.4632 8.17637 16.4632C9.87818 16.4632 11.2578 17.8428 11.2578 19.5446C11.2578 21.2464 9.87818 22.626 8.17637 22.626C6.47456 22.626 5.09497 21.2464 5.09497 19.5446ZM8.17637 18.4632C7.57913 18.4632 7.09497 18.9474 7.09497 19.5446C7.09497 20.1418 7.57913 20.626 8.17637 20.626C8.77361 20.626 9.25777 20.1418 9.25777 19.5446C9.25777 18.9474 8.77361 18.4632 8.17637 18.4632Z" fill="black"/>
<path fill-rule="evenodd" clip-rule="evenodd" d="M12.3796 19.5446C12.3796 17.8428 13.7592 16.4632 15.461 16.4632C17.1628 16.4632 18.5424 17.8428 18.5424 19.5446C18.5424 21.2464 17.1628 22.626 15.461 22.626C13.7592 22.626 12.3796 21.2464 12.3796 19.5446ZM15.461 18.4632C14.8638 18.4632 14.3796 18.9474 14.3796 19.5446C14.3796 20.1418 14.8638 20.626 15.461 20.626C16.0582 20.626 16.5424 20.1418 16.5424 19.5446C16.5424 18.9474 16.0582 18.4632 15.461 18.4632Z" fill="black"/>
</svg>
