<svg width="16" height="16" viewBox="0 0 16 16" fill="none" xmlns="http://www.w3.org/2000/svg">
<path d="M9.09977 8.06464C8.50004 8.66438 7.52767 8.66438 6.92794 8.06464C6.3282 7.46491 6.3282 6.49254 6.92794 5.8928C7.32039 5.50035 7.8724 5.36471 8.37514 5.48588L9.81538 4.04564C10.1278 3.73322 10.6343 3.73322 10.9468 4.04564C11.2592 4.35806 11.2592 4.86459 10.9468 5.17701L9.50663 6.61714C9.62792 7.11996 9.4923 7.67211 9.09977 8.06464Z" fill="black"/>
<path fill-rule="evenodd" clip-rule="evenodd" d="M8.00024 0.431152C4.3094 0.431152 1.31738 3.42317 1.31738 7.11401C1.31738 9.28661 2.35412 11.2171 3.95987 12.4376V13.7689C3.95987 14.3212 4.40758 14.7689 4.95987 14.7689H11.0409C11.5932 14.7689 12.0409 14.3212 12.0409 13.7689V12.4374C13.6465 11.2168 14.6831 9.28646 14.6831 7.11401C14.6831 3.42317 11.6911 0.431152 8.00024 0.431152ZM2.91738 7.11401C2.91738 4.30683 5.19306 2.03115 8.00024 2.03115C10.8074 2.03115 13.0831 4.30683 13.0831 7.11401C13.0831 9.9212 10.8074 12.1969 8.00024 12.1969C5.19306 12.1969 2.91738 9.9212 2.91738 7.11401Z" fill="black"/>
</svg>
