<svg width="24" height="24" viewBox="0 0 24 24" fill="none" xmlns="http://www.w3.org/2000/svg">
<path d="M17.169 4.92032C17.72 4.54032 18.435 4.50032 19.027 4.81032C19.618 5.12032 19.989 5.73032 19.989 6.40032C19.989 9.60032 19.989 14.3603 19.989 17.5703C19.989 18.2303 19.618 18.8503 19.027 19.1603C18.435 19.4703 17.72 19.4303 17.169 19.0503C14.734 17.3803 11.268 14.9903 9.04904 13.4703C8.56104 13.1303 8.26904 12.5803 8.26904 11.9803C8.26904 11.3903 8.56104 10.8403 9.04904 10.5003C11.268 8.97032 14.734 6.59032 17.169 4.92032Z" fill="black"/>
<path d="M3.83398 5.77031V18.2603C3.83398 18.9203 4.37198 19.4603 5.03398 19.4603C5.69698 19.4603 6.23398 18.9203 6.23398 18.2603V5.77031C6.23398 5.11031 5.69698 4.57031 5.03398 4.57031C4.37198 4.57031 3.83398 5.11031 3.83398 5.77031Z" fill="black"/>
</svg>
