<svg width="16" height="16" viewBox="0 0 16 16" fill="none" xmlns="http://www.w3.org/2000/svg">
<path fill-rule="evenodd" clip-rule="evenodd" d="M2.99609 4.28906V11.6291C2.99609 12.1801 3.44409 12.6291 3.99609 12.6291C4.54809 12.6291 4.99609 12.1801 4.99609 11.6291V4.28906C4.99609 3.73706 4.54809 3.28906 3.99609 3.28906C3.44409 3.28906 2.99609 3.73706 2.99609 4.28906ZM11.4241 3.60206C11.7281 3.38006 12.1311 3.34806 12.4661 3.51906C12.8011 3.68906 13.0131 4.03406 13.0131 4.41006C13.0131 6.42506 13.0131 9.53906 13.0131 11.5531C13.0131 11.9291 12.8011 12.2741 12.4661 12.4441C12.1311 12.6151 11.7281 12.5831 11.4241 12.3611C9.95609 11.2921 7.81309 9.73106 6.52209 8.79006C6.26409 8.60206 6.11109 8.30106 6.11109 7.98206C6.11109 7.66206 6.26409 7.36206 6.52209 7.17306C7.81309 6.23306 9.95609 4.67106 11.4241 3.60206Z" fill="black"/>
</svg>
