<svg width="24" height="24" viewBox="0 0 24 24" fill="none" xmlns="http://www.w3.org/2000/svg">
<path fill-rule="evenodd" clip-rule="evenodd" d="M16.8552 4.72984C14.6382 6.24984 10.6342 8.99984 8.63723 10.3798C8.09523 10.7498 7.77023 11.3698 7.77023 12.0198C7.77023 12.6798 8.09523 13.2998 8.63723 13.6698C10.6342 15.0398 14.6382 17.7998 16.8552 19.3198C17.4672 19.7398 18.2622 19.7898 18.9192 19.4398C19.5772 19.0998 19.9882 18.4198 19.9882 17.6698C19.9882 14.7698 19.9882 9.27984 19.9882 6.36984C19.9882 5.62984 19.5772 4.94984 18.9192 4.59984C18.2622 4.25984 17.4672 4.30984 16.8552 4.72984ZM4.01123 5.33984V18.6198C4.01123 19.1698 4.45923 19.6198 5.01123 19.6198C5.56223 19.6198 6.01123 19.1698 6.01123 18.6198V5.33984C6.01123 4.77984 5.56223 4.33984 5.01123 4.33984C4.45923 4.33984 4.01123 4.77984 4.01123 5.33984ZM9.77023 12.0198L17.9882 6.36984V17.6698L9.77023 12.0198Z" fill="black"/>
</svg>
