<svg width="24" height="24" viewBox="0 0 24 24" fill="none" xmlns="http://www.w3.org/2000/svg">
<path fill-rule="evenodd" clip-rule="evenodd" d="M12.0121 4.01651H12.0274C16.9729 4.01651 20.9884 8.03481 20.9884 12.9848C20.9884 17.9348 16.9729 21.9531 12.0274 21.9531C7.22087 21.9531 3.29307 18.1574 3.07577 13.3999C3.05057 12.8486 3.47777 12.3805 4.02907 12.3553C4.58037 12.3301 5.04847 12.7573 5.07367 13.3086C5.24257 17.0043 8.29357 19.9531 12.0274 19.9531C15.8695 19.9531 18.9884 16.8305 18.9884 12.9848C18.9884 9.15031 15.8876 6.03471 12.0607 6.01671L13.3203 7.27631C13.7106 7.66661 13.7106 8.30031 13.3203 8.69051C12.9301 9.08081 12.2964 9.08081 11.9061 8.69051L8.91497 5.69941C8.52447 5.30891 8.52447 4.67571 8.91497 4.28521L11.9153 1.28491C12.3056 0.894612 12.9392 0.894612 13.3295 1.28491C13.7198 1.67521 13.7198 2.30891 13.3295 2.69911L12.0121 4.01651ZM8.32947 2.69911L6.03627 4.99231L8.32027 7.27631C8.71057 7.66661 8.71057 8.30031 8.32027 8.69051C7.93007 9.08081 7.29637 9.08081 6.90607 8.69051L3.91497 5.69941C3.52447 5.30891 3.52447 4.67571 3.91497 4.28521L6.91527 1.28491C7.30557 0.894612 7.93917 0.894612 8.32947 1.28491C8.71977 1.67521 8.71977 2.30891 8.32947 2.69911Z" fill="black"/>
</svg>
