<svg width="16" height="16" viewBox="0 0 16 16" fill="none" xmlns="http://www.w3.org/2000/svg">
<path fill-rule="evenodd" clip-rule="evenodd" d="M3.65873 3.30047V2.53047C3.65873 1.54047 4.46473 0.730469 5.45873 0.730469H10.4937C11.4877 0.730469 12.2937 1.54047 12.2937 2.53047V3.29047C14.0267 3.64047 15.3307 5.17047 15.3307 7.01047V10.0105C15.3307 11.5605 14.0777 12.8105 12.5307 12.8105H12.2937V13.0005C12.2937 13.9905 11.4877 14.8005 10.4937 14.8005H5.45873C4.46473 14.8005 3.65873 13.9905 3.65873 13.0005V12.8105H3.47773C1.93173 12.8105 0.677734 11.5605 0.677734 10.0105C0.677734 9.10047 0.677734 8.01047 0.677734 7.01047C0.677734 5.19047 1.95373 3.67047 3.65873 3.30047ZM10.6937 9.83047V13.0005C10.6937 13.1105 10.6037 13.2005 10.4937 13.2005H5.45873C5.34873 13.2005 5.25873 13.1105 5.25873 13.0005V9.83047H10.6937ZM12.2937 4.95047C12.2937 5.39047 11.9357 5.75047 11.4937 5.75047H4.45873C4.02373 5.75047 3.66973 5.40047 3.65973 4.97047C2.84973 5.29047 2.27773 6.08047 2.27773 7.01047V10.0105C2.27773 10.6705 2.81573 11.2105 3.47773 11.2105H3.65873V9.03047C3.65873 8.59047 4.01773 8.23047 4.45873 8.23047H11.4937C11.9357 8.23047 12.2937 8.59047 12.2937 9.03047V11.2105H12.5307C13.1937 11.2105 13.7307 10.6705 13.7307 10.0105V7.01047C13.7307 6.06047 13.1327 5.25047 12.2937 4.95047ZM10.6937 2.53047V4.15047H5.25873V2.53047C5.25873 2.42047 5.34873 2.33047 5.45873 2.33047H10.4937C10.6037 2.33047 10.6937 2.42047 10.6937 2.53047Z" fill="black"/>
</svg>
