<svg width="16" height="16" viewBox="0 0 16 16" fill="none" xmlns="http://www.w3.org/2000/svg">
<path fill-rule="evenodd" clip-rule="evenodd" d="M8.2557 6.09056C8.3737 5.26056 8.8717 4.50056 9.6567 4.08056C9.6677 4.08056 9.6787 4.07056 9.6907 4.07056C10.6747 3.60056 11.7387 3.31056 12.8377 3.26056C12.8437 3.26056 12.8487 3.26056 12.8547 3.26056C13.2747 3.24056 13.6757 3.33056 14.0347 3.50056L14.8227 3.29056C15.2077 3.18056 15.6027 3.41056 15.7067 3.80056C15.7207 3.85056 15.7347 3.90056 15.7487 3.95056C15.8437 4.31056 15.6567 4.67056 15.3247 4.81056C15.4237 5.03056 15.4927 5.27056 15.5267 5.52056C15.6507 6.29056 15.6657 7.01056 15.6487 7.59056C15.6487 7.60056 15.6487 7.60056 15.6477 7.61056C15.5937 8.75056 14.8107 9.73056 13.7087 10.0306C13.2487 10.1706 12.7247 10.3206 12.2607 10.4406C11.1527 10.7406 9.9777 10.3106 9.3167 9.37056C9.2947 9.34056 9.2747 9.31056 9.2577 9.28056C9.0397 8.85056 8.7707 8.33056 8.5087 7.68056L8.4417 7.70056C8.5367 8.39056 8.5647 8.98056 8.5897 9.45056C8.5917 9.49056 8.5917 9.53056 8.5877 9.57056C8.4847 10.7106 7.6797 11.6706 6.5717 11.9606C6.1037 12.0906 5.5757 12.2306 5.1227 12.3306C4.0147 12.6206 2.8447 12.1706 2.2257 11.2006C2.2237 11.2006 2.2207 11.1906 2.2187 11.1906C1.9117 10.6906 1.5677 10.0706 1.2887 9.33056C1.1937 9.10056 1.1337 8.86056 1.1087 8.62056C0.740699 8.69056 0.375699 8.47056 0.276699 8.10056C0.262699 8.05056 0.248699 7.99056 0.234699 7.94056C0.131699 7.56056 0.359699 7.16056 0.744699 7.06056L1.5697 6.84056C1.7977 6.51056 2.1017 6.24056 2.4717 6.04056C2.4767 6.04056 2.4817 6.03056 2.4867 6.03056C3.4647 5.53056 4.5257 5.25056 5.6097 5.16056C5.6227 5.16056 5.6347 5.16056 5.6477 5.16056C6.5387 5.13056 7.3487 5.54056 7.8637 6.19056L8.2557 6.09056ZM6.8317 7.74056C6.8327 7.75056 6.8337 7.75056 6.8357 7.76056C6.9357 8.43056 6.9647 9.01056 6.9887 9.47056C6.9267 9.93056 6.6007 10.3006 6.1577 10.4206C5.7117 10.5406 5.2067 10.6706 4.7567 10.7706C4.7457 10.7806 4.7337 10.7806 4.7227 10.7806C4.2867 10.9006 3.8257 10.7206 3.5787 10.3506C3.3137 9.92056 3.0177 9.38056 2.7807 8.76056C2.7777 8.75056 2.7747 8.74056 2.7717 8.73056C2.5727 8.25056 2.7657 7.70056 3.2177 7.45056C3.9997 7.06056 4.8417 6.83056 5.7017 6.76056C6.2837 6.75056 6.7667 7.17056 6.8317 7.74056ZM9.9317 6.93056C9.9277 6.93056 9.9247 6.92056 9.9207 6.91056C9.6957 6.39056 9.8977 5.79056 10.3867 5.51056C11.1827 5.13056 12.0297 4.90056 12.9047 4.86056C13.4287 4.84056 13.8747 5.22056 13.9427 5.74056C13.9437 5.75056 13.9457 5.76056 13.9457 5.76056C14.0517 6.42056 14.0637 7.03056 14.0497 7.53056C14.0257 7.99056 13.7137 8.37056 13.2767 8.49056C13.2657 8.49056 13.2537 8.50056 13.2427 8.50056C12.8007 8.64056 12.2937 8.77056 11.8457 8.89056C11.4037 9.01056 10.9357 8.85056 10.6567 8.50056C10.4417 8.08056 10.1797 7.57056 9.9317 6.93056Z" fill="black"/>
</svg>
