<svg width="16" height="16" viewBox="0 0 16 16" fill="none" xmlns="http://www.w3.org/2000/svg">
<path fill-rule="evenodd" clip-rule="evenodd" d="M8.00688 5.93944L7.62788 6.61944L7.10788 6.32944C6.55788 6.00944 5.90388 5.93944 5.29888 6.12944C4.69388 6.30944 4.19188 6.73944 3.91088 7.29944L1.64488 11.8694C1.18388 12.7994 1.51888 13.9294 2.41288 14.4594H2.41388C3.31488 14.9894 4.47188 14.7594 5.10088 13.9194L7.07188 11.2994L7.86688 11.7594C8.39688 12.0594 9.02588 12.1394 9.61388 11.9794C10.2029 11.8094 10.7029 11.4294 11.0049 10.8994L12.3849 8.46944L12.8669 8.74944C13.4269 9.06944 14.1229 9.03944 14.6559 8.67944C15.1899 8.30944 15.4669 7.67944 15.3679 7.03944C15.1369 5.53944 14.8159 3.45944 14.6239 2.21944C14.5469 1.71944 14.2489 1.27944 13.8129 1.02944C13.3769 0.769436 12.8489 0.729436 12.3749 0.899436C11.1879 1.34944 9.20088 2.08944 7.76288 2.62944C7.15388 2.84944 6.73088 3.40944 6.67688 4.05944C6.62288 4.70944 6.94788 5.32944 7.51188 5.65944L8.00688 5.93944ZM9.78888 6.02944C10.0029 5.64944 9.86988 5.16944 9.49088 4.94944L8.31088 4.26944C8.28488 4.24944 8.26888 4.22944 8.27188 4.18944C8.27388 4.15944 8.29388 4.13944 8.32388 4.12944L12.9349 2.39944C12.9579 2.38944 12.9829 2.39944 13.0039 2.40944C13.0249 2.41944 13.0389 2.43944 13.0429 2.46944L13.7869 7.27944C13.7909 7.30944 13.7779 7.33944 13.7529 7.35944C13.7269 7.37944 13.6939 7.37944 13.6669 7.35944L12.4879 6.67944C12.3039 6.57944 12.0839 6.54944 11.8789 6.59944C11.6729 6.65944 11.4979 6.78944 11.3929 6.97944L9.61388 10.0994C9.52188 10.2694 9.36988 10.3794 9.19088 10.4294C9.01188 10.4794 8.82088 10.4594 8.65888 10.3694C7.96488 9.96944 7.25288 9.55944 7.25288 9.55944C6.90288 9.36944 6.45988 9.45944 6.21688 9.77944L3.82188 12.9594C3.68288 13.1494 3.42588 13.1994 3.22688 13.0794H3.22488C3.05388 12.9794 2.98988 12.7594 3.07788 12.5794L5.34488 8.00944C5.42988 7.83944 5.58288 7.70944 5.76688 7.65944C5.95088 7.59944 6.14988 7.61944 6.31788 7.71944C6.93988 8.06944 7.53788 8.40944 7.53788 8.40944C7.72288 8.50944 7.94188 8.53944 8.14788 8.47944C8.35288 8.42944 8.52688 8.28944 8.63088 8.09944L9.78888 6.02944Z" fill="black"/>
</svg>
