<svg width="24" height="24" viewBox="0 0 24 24" fill="none" xmlns="http://www.w3.org/2000/svg">
<path fill-rule="evenodd" clip-rule="evenodd" d="M11.4201 9.66916L10.6901 10.9792L9.33012 10.2092C8.73012 9.86916 8.02012 9.78917 7.36012 9.98916C6.71012 10.1892 6.16012 10.6592 5.86012 11.2692C4.93012 13.1392 3.33012 16.3792 2.41012 18.2192C1.80012 19.4692 2.25012 20.9792 3.44012 21.6792L3.45012 21.6892C4.64012 22.3892 6.18012 22.0792 7.01012 20.9692L9.84012 17.1792L11.5401 18.1492C12.7301 18.8292 14.2601 18.4092 14.9401 17.2092L17.3101 13.0692L18.4701 13.7392C19.1401 14.1292 19.9701 14.0892 20.6001 13.6592C21.2401 13.2192 21.5701 12.4592 21.4501 11.6992C21.1201 9.53916 20.6001 6.21916 20.3301 4.44916C20.2401 3.84916 19.8801 3.32916 19.3601 3.02916C18.8401 2.71916 18.2201 2.66916 17.6501 2.87916L10.7101 5.47916C9.98012 5.74916 9.48012 6.40916 9.41012 7.17916C9.35012 7.95916 9.74012 8.69916 10.4101 9.07916L11.4201 9.66916ZM11.4101 7.34916L18.3501 4.74916L19.4701 12.0092L17.4401 10.8292C17.2101 10.6992 16.9301 10.6692 16.6801 10.7292C16.4201 10.7992 16.2001 10.9692 16.0701 11.1992L13.2101 16.2192C13.0701 16.4592 12.7701 16.5492 12.5301 16.4092C11.4401 15.7892 10.0701 15.0092 10.0701 15.0092C9.63012 14.7592 9.07012 14.8692 8.77012 15.2792C8.77012 15.2792 6.67012 18.0892 5.41012 19.7692C5.19012 20.0692 4.78012 20.1492 4.46012 19.9592C4.17012 19.7892 4.06012 19.4192 4.21012 19.1092L7.65012 12.1592C7.71012 12.0392 7.82012 11.9492 7.95012 11.8992C8.08012 11.8592 8.22012 11.8792 8.34012 11.9492L10.5701 13.2092C10.8001 13.3392 11.0801 13.3792 11.3301 13.3092C11.5901 13.2392 11.8101 13.0692 11.9401 12.8292L13.6501 9.78916C13.9201 9.30916 13.7501 8.69916 13.2801 8.42916L11.4101 7.34916Z" fill="black"/>
</svg>
