<svg width="24" height="24" viewBox="0 0 24 24" fill="none" xmlns="http://www.w3.org/2000/svg">
<path fill-rule="evenodd" clip-rule="evenodd" d="M2 8V16C2 18.7614 4.2386 21 7 21C9.977 21 14.023 21 17 21C19.7614 21 22 18.7614 22 16V8C22 5.2386 19.7614 3 17 3C14.023 3 9.977 3 7 3C4.2386 3 2 5.2386 2 8ZM19.8293 17C19.4175 18.1652 18.3062 19 17 19C14.023 19 9.977 19 7 19C5.6938 19 4.5825 18.1652 4.1707 17H19.8293ZM4 15H20V9H4V15ZM19.8293 7H4.1707C4.5825 5.8348 5.6938 5 7 5C9.977 5 14.023 5 17 5C18.3062 5 19.4175 5.8348 19.8293 7Z" fill="black"/>
</svg>
