<svg width="24" height="24" viewBox="0 0 24 24" fill="none" xmlns="http://www.w3.org/2000/svg">
<path d="M16.1497 18.8496H18.8181V16.1812H16.1497V18.8496Z" fill="black"/>
<path fill-rule="evenodd" clip-rule="evenodd" d="M13 5C13 3.34312 14.3431 2 16 2H19C20.6569 2 22 3.34312 22 5V8C22 9.65688 20.6569 11 19 11H16C14.3431 11 13 9.65688 13 8V5ZM15 5C15 4.44768 15.4477 4 16 4H19C19.5523 4 20 4.44768 20 5V8C20 8.55232 19.5523 9 19 9H16C15.4477 9 15 8.55232 15 8V5Z" fill="black"/>
<path d="M16.3294 7.67063H18.6705V5.32953H16.3294V7.67063Z" fill="black"/>
<path d="M5.32941 18.6706H7.67051V16.3295H5.32941V18.6706Z" fill="black"/>
<path fill-rule="evenodd" clip-rule="evenodd" d="M2 16C2 14.3431 3.34312 13 5 13H8C9.65688 13 11 14.3431 11 16V19C11 20.6569 9.65688 22 8 22H5C3.34312 22 2 20.6569 2 19V16ZM4 16C4 15.4477 4.44768 15 5 15H8C8.55232 15 9 15.4477 9 16V19C9 19.5523 8.55232 20 8 20H5C4.44768 20 4 19.5523 4 19V16Z" fill="black"/>
<path d="M8.14941 10.8288H10.8178V8.1604H8.14941V10.8288Z" fill="black"/>
<path d="M5.15259 7.81391H7.82099V5.14551H5.15259V7.81391Z" fill="black"/>
<path d="M2.15561 10.8288H4.82401V8.1604H2.15561V10.8288Z" fill="black"/>
<path d="M2.15561 4.81531H4.82401V2.14691H2.15561V4.81531Z" fill="black"/>
<path d="M8.14941 4.81531H10.8178V2.14691H8.14941V4.81531Z" fill="black"/>
<path d="M13.1528 15.8509H15.8212V13.1825H13.1528V15.8509Z" fill="black"/>
<path d="M13.1528 21.8645H15.8212V19.1961H13.1528V21.8645Z" fill="black"/>
<path d="M19.1466 21.8645H21.815V19.1961H19.1466V21.8645Z" fill="black"/>
<path d="M19.1466 15.8509H21.815V13.1825H19.1466V15.8509Z" fill="black"/>
</svg>
