<svg width="24" height="24" viewBox="0 0 24 24" fill="none" xmlns="http://www.w3.org/2000/svg">
<path fill-rule="evenodd" clip-rule="evenodd" d="M10.5401 1.82112L9.29005 3.36713L7.13005 2.78712C6.60005 2.64513 6.04005 2.74913 5.60005 3.06913C5.16005 3.38812 4.89005 3.88913 4.86005 4.43213L4.75005 6.66512L2.89005 7.37612C2.33005 7.59212 1.89005 8.05113 1.71005 8.62612C1.52005 9.20012 1.60005 9.82812 1.93005 10.3341L3.02005 12.0011L1.93005 13.6681C1.60005 14.1741 1.52005 14.8021 1.71005 15.3761C1.89005 15.9511 2.33005 16.4101 2.89005 16.6261L4.75005 17.3371L4.85005 19.3231C4.88005 19.9261 5.18005 20.4831 5.67005 20.8381C6.16005 21.1931 6.79005 21.3081 7.37005 21.1511L9.29005 20.6351L10.5401 22.1811C10.9201 22.6511 11.4901 22.9241 12.0901 22.9241C12.7001 22.9241 13.2701 22.6511 13.6501 22.1811L14.9001 20.6351L16.8201 21.1511C17.4001 21.3081 18.0301 21.1931 18.5101 20.8381C19.0001 20.4831 19.3001 19.9261 19.3401 19.3231L19.4401 17.3371L21.3001 16.6261C21.8601 16.4101 22.3001 15.9511 22.4801 15.3761C22.6701 14.8021 22.5901 14.1741 22.2601 13.6681L21.1701 12.0011L22.2601 10.3341C22.5901 9.82812 22.6701 9.20012 22.4801 8.62612C22.3001 8.05113 21.8601 7.59212 21.3001 7.37612L19.4401 6.66512L19.3401 4.67913C19.3001 4.07613 19.0001 3.51912 18.5101 3.16412C18.0301 2.80912 17.4001 2.69412 16.8201 2.85113L14.9001 3.36713L13.6501 1.82112C13.2701 1.35112 12.7001 1.07812 12.0901 1.07812C11.4901 1.07812 10.9201 1.35112 10.5401 1.82112ZM12.0501 14.5241C12.8501 14.5241 13.5001 15.1821 13.5001 15.9921C13.5001 16.8031 12.8501 17.4611 12.0501 17.4611C11.2501 17.4611 10.5901 16.8031 10.5901 15.9921C10.5901 15.1821 11.2501 14.5241 12.0501 14.5241ZM12.1701 6.49512C10.9601 6.49512 9.81005 7.04913 9.15005 7.64913C8.35005 8.38112 9.09005 10.0761 10.2501 9.34612C10.6901 9.06512 11.2501 8.65812 12.2101 8.65412C12.8401 8.65112 13.2801 9.18512 13.2801 9.69712C13.2801 10.2411 11.9601 11.1311 11.2401 11.8061C10.2601 12.7231 11.5901 14.2861 12.7401 13.2541C13.9401 12.1851 15.4701 10.9131 15.4701 9.47312C15.4701 7.80812 14.1001 6.49512 12.1701 6.49512Z" fill="black"/>
</svg>
