<svg width="24" height="24" viewBox="0 0 24 24" fill="none" xmlns="http://www.w3.org/2000/svg">
<path d="M18.9904 20.9211H17.0248C16.4798 20.9211 16.0373 20.473 16.0373 19.9211C16.0373 19.3692 16.4798 18.9211 17.0248 18.9211H18.9904V16.9886C18.9904 16.4436 19.4385 16.0011 19.9904 16.0011C20.5423 16.0011 20.9904 16.4436 20.9904 16.9886V18.9211H22.9498C23.4948 18.9211 23.9373 19.3692 23.9373 19.9211C23.9373 20.473 23.4948 20.9211 22.9498 20.9211H20.9904V22.9136C20.9904 23.4587 20.5423 23.9011 19.9904 23.9011C19.4385 23.9011 18.9904 23.4587 18.9904 22.9136V20.9211Z" fill="black"/>
<path d="M10.4161 9.15639C9.99187 9.50949 9.36087 9.45179 9.00777 9.02759C8.65457 8.60349 8.71227 7.97239 9.13647 7.61929C9.13647 7.61929 9.92057 6.96359 10.9562 6.62199C12.1489 6.22869 13.6211 6.22769 14.7746 7.66549C15.7858 8.92589 15.5477 10.1923 14.8409 11.2588C14.0097 12.5132 12.4423 13.4216 12.4423 13.4216C11.9633 13.6957 11.3519 13.5294 11.0777 13.0504C10.8036 12.5714 10.9699 11.9599 11.4489 11.6858C11.4489 11.6858 12.2478 11.2285 12.8657 10.5457C13.2747 10.0936 13.6941 9.51469 13.2146 8.91699C12.7253 8.30709 12.0886 8.35449 11.5826 8.52139C10.9198 8.73999 10.4161 9.15639 10.4161 9.15639Z" fill="black"/>
<path d="M14.7014 21.9823H9.03017C7.17587 21.9823 5.39757 21.2457 4.08637 19.9345C2.77517 18.6234 2.03857 16.845 2.03857 14.9908V8.98769C2.03857 7.13339 2.77517 5.35509 4.08637 4.04389C5.39757 2.73269 7.17587 1.99609 9.03017 1.99609H15.0216C16.8759 1.99609 18.6542 2.73269 19.9654 4.04389C21.2766 5.35509 22.0132 7.13339 22.0132 8.98769V14.8176C21.4856 14.3323 20.784 14.0335 20.0132 14.026V8.98769C20.0132 7.66379 19.4873 6.39419 18.5512 5.45809C17.6151 4.52199 16.3455 3.99609 15.0216 3.99609H9.03017C7.70627 3.99609 6.43667 4.52199 5.50057 5.45809C4.56447 6.39419 4.03857 7.66379 4.03857 8.98769V14.9908C4.03857 16.3146 4.56447 17.5842 5.50057 18.5203C6.43667 19.4564 7.70627 19.9823 9.03017 19.9823H13.9924C13.9919 20.0033 13.9917 20.0243 13.9917 20.0454C13.9917 20.7834 14.2587 21.4595 14.7014 21.9823Z" fill="black"/>
<path d="M12.1064 14.8871C12.9425 14.8871 13.6213 15.5659 13.6213 16.402C13.6213 17.238 12.9425 17.9168 12.1064 17.9168C11.2703 17.9168 10.5915 17.238 10.5915 16.402C10.5915 15.5659 11.2703 14.8871 12.1064 14.8871Z" fill="black"/>
</svg>
