<svg width="16" height="16" viewBox="0 0 16 16" fill="none" xmlns="http://www.w3.org/2000/svg">
<path fill-rule="evenodd" clip-rule="evenodd" d="M3.2172 12.1727V14.2227C3.2172 14.8027 3.5602 15.3227 4.0892 15.5427C4.6182 15.7727 5.2312 15.6627 5.6472 15.2627L7.4212 13.5727H9.0002C12.2032 13.5727 14.8002 10.9727 14.8002 7.77266C14.8002 7.44266 14.8002 7.10266 14.8002 6.77266C14.8002 3.57266 12.2032 0.972656 9.0002 0.972656H7.0002C3.7972 0.972656 1.2002 3.57266 1.2002 6.77266C1.2002 7.10266 1.2002 7.44266 1.2002 7.77266C1.2002 9.53266 1.9812 11.1027 3.2172 12.1727ZM4.8172 13.8427V11.7827C4.8172 11.5327 4.6982 11.2927 4.4952 11.1427C3.4662 10.3827 2.8002 9.15266 2.8002 7.77266C2.8002 7.44266 2.8002 7.10266 2.8002 6.77266C2.8002 4.45266 4.6802 2.57266 7.0002 2.57266H9.0002C11.3202 2.57266 13.2002 4.45266 13.2002 6.77266C13.2002 7.10266 13.2002 7.44266 13.2002 7.77266C13.2002 10.0927 11.3202 11.9727 9.0002 11.9727H7.1002C6.8952 11.9727 6.6972 12.0527 6.5482 12.1927L4.8172 13.8427Z" fill="black"/>
<path d="M7.09505 5.78201C6.77407 6.04914 6.29661 6.00553 6.02948 5.68455C5.76226 5.36365 5.80597 4.88619 6.12686 4.61906C6.12686 4.61906 6.61501 4.2104 7.25999 3.99766C8.02381 3.74575 8.96557 3.74896 9.70429 4.66971C10.3585 5.48516 10.2096 6.30434 9.75245 6.99437C9.23982 7.76798 8.27412 8.3293 8.27412 8.3293C7.91166 8.5367 7.44897 8.41083 7.24157 8.04837C7.03417 7.686 7.16003 7.22331 7.52249 7.01591C7.52249 7.01591 7.97406 6.75751 8.32325 6.37155C8.51508 6.15952 8.74891 5.89693 8.52398 5.61663C8.28774 5.32217 7.97824 5.35422 7.73399 5.43478C7.37099 5.55441 7.09505 5.78201 7.09505 5.78201Z" fill="black"/>
<path d="M7.99364 9.05734C8.4898 9.05734 8.89258 9.46012 8.89258 9.95628C8.89258 10.4524 8.4898 10.8552 7.99364 10.8552C7.49748 10.8552 7.0947 10.4524 7.0947 9.95628C7.0947 9.46012 7.49748 9.05734 7.99364 9.05734Z" fill="black"/>
</svg>
