<svg width="16" height="16" viewBox="0 0 16 16" fill="none" xmlns="http://www.w3.org/2000/svg">
<path d="M12.1933 13.7919H10.7995C10.3579 13.7919 9.99951 13.4335 9.99951 12.9919C9.99951 12.5504 10.3579 12.1919 10.7995 12.1919H12.1933V10.7775C12.1933 10.336 12.5518 9.97749 12.9933 9.97749C13.4349 9.97749 13.7933 10.336 13.7933 10.7775V12.1919H15.1995C15.641 12.1919 15.9995 12.5504 15.9995 12.9919C15.9995 13.4335 15.641 13.7919 15.1995 13.7919H13.7933V15.1775C13.7933 15.6191 13.4349 15.9775 12.9933 15.9775C12.5518 15.9775 12.1933 15.6191 12.1933 15.1775V13.7919Z" fill="black"/>
<path d="M7.06141 6.24619C6.70081 6.54629 6.16441 6.49729 5.86431 6.13669C5.56411 5.77619 5.61321 5.23979 5.97371 4.93969C5.97371 4.93969 6.52211 4.48059 7.24671 4.24159C8.10481 3.95859 9.16281 3.96219 9.99271 4.99659C10.7277 5.91269 10.5604 6.83299 10.0468 7.60819C9.47091 8.47729 8.38601 9.10789 8.38601 9.10789C7.97881 9.34089 7.45901 9.19949 7.22601 8.79229C6.99301 8.38519 7.13441 7.86539 7.54161 7.63239C7.54161 7.63239 8.04891 7.34209 8.44121 6.90849C8.65671 6.67029 8.91941 6.37529 8.66671 6.06039C8.40131 5.72959 8.05361 5.76559 7.77921 5.85609C7.37141 5.99049 7.06141 6.24619 7.06141 6.24619Z" fill="black"/>
<path d="M9.06461 14.7913H5.99141C4.71841 14.7913 3.49751 14.2856 2.59731 13.3854C1.69711 12.4852 1.19141 11.2643 1.19141 9.99129V5.98359C1.19141 4.71049 1.69711 3.48959 2.59731 2.58939C3.49751 1.68929 4.71841 1.18359 5.99141 1.18359H9.99141C11.2644 1.18359 12.4853 1.68929 13.3855 2.58939C14.2857 3.48959 14.7914 4.71049 14.7914 5.98359V9.04129C14.3796 8.61499 13.8178 8.33449 13.1914 8.28529V5.98359C13.1914 5.13489 12.8543 4.32089 12.2541 3.72079C11.654 3.12069 10.8401 2.78359 9.99141 2.78359H5.99141C5.14271 2.78359 4.32881 3.12069 3.72871 3.72079C3.12851 4.32089 2.79141 5.13489 2.79141 5.98359V9.99129C2.79141 10.84 3.12851 11.6539 3.72871 12.254C4.32881 12.8542 5.14271 13.1913 5.99141 13.1913H8.30731C8.35681 13.8178 8.63781 14.3797 9.06461 14.7913Z" fill="black"/>
<path d="M8.07091 9.92579C8.62831 9.92579 9.08081 10.3783 9.08081 10.9357C9.08081 11.4931 8.62831 11.9456 8.07091 11.9456C7.51351 11.9456 7.06101 11.4931 7.06101 10.9357C7.06101 10.3783 7.51351 9.92579 8.07091 9.92579Z" fill="black"/>
</svg>
