<svg width="24" height="24" viewBox="0 0 24 24" fill="none" xmlns="http://www.w3.org/2000/svg">
<path d="M17.5917 19.9922L15.2991 17.6996C14.9088 17.3093 14.9088 16.6756 15.2991 16.2853C15.6893 15.8951 16.323 15.8951 16.7133 16.2853L19.006 18.578L21.2987 16.2853C21.6889 15.8951 22.3226 15.8951 22.7129 16.2853C23.1031 16.6756 23.1031 17.3093 22.7129 17.6996L20.4202 19.9922L22.7129 22.2849C23.1031 22.6752 23.1031 23.3089 22.7129 23.6992C22.3226 24.0894 21.6889 24.0894 21.2987 23.6992L19.006 21.4065L16.7133 23.6992C16.323 24.0894 15.6893 24.0894 15.2991 23.6992C14.9088 23.3089 14.9088 22.6752 15.2991 22.2849L17.5917 19.9922Z" fill="black"/>
<path d="M13.1809 21.9823H9.03017C7.17587 21.9823 5.39757 21.2457 4.08637 19.9345C2.77517 18.6234 2.03857 16.845 2.03857 14.9908V8.98769C2.03857 7.13339 2.77517 5.35509 4.08637 4.04389C5.39757 2.73269 7.17587 1.99609 9.03017 1.99609H15.0216C16.8759 1.99609 18.6542 2.73269 19.9654 4.04389C21.2766 5.35509 22.0132 7.13339 22.0132 8.98769V13.993C21.2978 13.9913 20.582 14.2435 20.0132 14.7497V8.98769C20.0132 7.66379 19.4873 6.39419 18.5512 5.45809C17.6151 4.52199 16.3455 3.99609 15.0216 3.99609H9.03017C7.70627 3.99609 6.43667 4.52199 5.50057 5.45809C4.56447 6.39419 4.03857 7.66379 4.03857 8.98769V14.9908C4.03857 16.3146 4.56447 17.5842 5.50057 18.5203C6.43667 19.4564 7.70627 19.9823 9.03017 19.9823H14.7534L14.7633 19.9922L13.8848 20.8707C13.5601 21.1955 13.3255 21.5764 13.1809 21.9823Z" fill="black"/>
<path d="M10.4161 9.15639C9.99187 9.50949 9.36087 9.45179 9.00777 9.02759C8.65457 8.60349 8.71227 7.97239 9.13647 7.61929C9.13647 7.61929 9.92057 6.96359 10.9562 6.62199C12.1489 6.22869 13.6211 6.22769 14.7746 7.66549C15.7858 8.92589 15.5477 10.1923 14.8409 11.2588C14.0097 12.5132 12.4423 13.4216 12.4423 13.4216C11.9633 13.6957 11.3519 13.5294 11.0777 13.0504C10.8036 12.5714 10.9699 11.9599 11.4489 11.6858C11.4489 11.6858 12.2478 11.2285 12.8657 10.5457C13.2747 10.0936 13.6941 9.51469 13.2146 8.91699C12.7253 8.30709 12.0886 8.35449 11.5826 8.52139C10.9198 8.73999 10.4161 9.15639 10.4161 9.15639Z" fill="black"/>
<path d="M12.1064 14.8871C12.9425 14.8871 13.6213 15.5659 13.6213 16.402C13.6213 17.238 12.9425 17.9168 12.1064 17.9168C11.2703 17.9168 10.5915 17.238 10.5915 16.402C10.5915 15.5659 11.2703 14.8871 12.1064 14.8871Z" fill="black"/>
</svg>
