<svg width="24" height="24" viewBox="0 0 24 24" fill="none" xmlns="http://www.w3.org/2000/svg">
<path fill-rule="evenodd" clip-rule="evenodd" d="M4.0469 18.2826V20.7349C4.0469 21.5039 4.4878 22.2048 5.181 22.5378C5.8742 22.8707 6.6969 22.7767 7.2971 22.296L10.164 20H15C19.4183 20 23 16.4183 23 12V10C23 5.5817 19.4183 2 15 2C13.0556 2 10.9444 2 9 2C4.5817 2 1 5.5817 1 10V12C1 14.5481 2.1912 16.818 4.0469 18.2826ZM6.0469 20.7349V17.7777C6.0469 17.4479 5.8843 17.1394 5.6123 16.9529C4.0351 15.8718 3 14.0568 3 12.0001V10C3 6.6863 5.6863 4 9 4C10.9444 4 13.0556 4 15 4C18.3137 4 21 6.6863 21 9.9999V12C21 15.3137 18.3137 18 15 18H9.813C9.5857 18 9.3652 18.0774 9.1879 18.2195L6.0469 20.7349Z" fill="black"/>
<path d="M12.0992 5.77087C10.9439 5.77087 9.8443 6.29877 9.2176 6.87067C8.452 7.56917 9.1618 9.18507 10.2646 8.48897C10.6889 8.22107 11.221 7.83297 12.1381 7.82907C12.74 7.82647 13.1597 8.33497 13.1597 8.82317C13.1597 9.34187 11.8956 10.1902 11.211 10.8343C10.2817 11.7085 11.5417 13.1984 12.6446 12.2145C13.7864 11.1958 15.2474 9.98247 15.2474 8.60947C15.2474 7.02287 13.9352 5.77087 12.0992 5.77087Z" fill="black"/>
<path d="M11.9824 13.5858C12.7477 13.5858 13.369 14.2133 13.369 14.9861C13.369 15.759 12.7477 16.3864 11.9824 16.3864C11.2172 16.3864 10.5958 15.759 10.5958 14.9861C10.5958 14.2133 11.2172 13.5858 11.9824 13.5858Z" fill="black"/>
</svg>
