<svg width="24" height="24" viewBox="0 0 24 24" fill="none" xmlns="http://www.w3.org/2000/svg">
<path d="M12.0498 14.5215C12.8498 14.5215 13.4998 15.1795 13.4998 15.9895C13.4998 16.8005 12.8498 17.4585 12.0498 17.4585C11.2498 17.4585 10.5898 16.8005 10.5898 15.9895C10.5898 15.1795 11.2498 14.5215 12.0498 14.5215Z" fill="black"/>
<path d="M12.1702 6.49219C10.9602 6.49219 9.8102 7.04619 9.1502 7.64619C8.3502 8.37819 9.0902 10.0732 10.2502 9.34319C10.6902 9.06219 11.2502 8.65519 12.2102 8.65119C12.8402 8.64819 13.2802 9.18219 13.2802 9.69419C13.2802 10.2382 11.9602 11.1282 11.2402 11.8032C10.2602 12.7202 11.5902 14.2832 12.7402 13.2512C13.9402 12.1822 15.4702 10.9102 15.4702 9.47019C15.4702 7.80519 14.1002 6.49219 12.1702 6.49219Z" fill="black"/>
<path fill-rule="evenodd" clip-rule="evenodd" d="M10.2098 2.13437L9.26981 3.29938L7.81981 2.91037C7.10981 2.72038 6.35981 2.86037 5.76981 3.29037C5.17981 3.72038 4.80981 4.39538 4.76981 5.12637L4.68981 6.62138L3.29981 7.15737C2.60981 7.41838 2.07981 7.97537 1.85981 8.67137C1.62981 9.36737 1.72981 10.1284 2.12981 10.7424L2.94981 11.9974L2.12981 13.2524C1.72981 13.8664 1.62981 14.6274 1.85981 15.3234C2.07981 16.0194 2.60981 16.5764 3.29981 16.8374L4.68981 17.3734L4.76981 18.8684C4.80981 19.5994 5.17981 20.2744 5.76981 20.7044C6.35981 21.1344 7.10981 21.2744 7.81981 21.0844L9.26981 20.6954L10.2098 21.8604C10.6698 22.4294 11.3598 22.7604 12.0898 22.7604C12.8298 22.7604 13.5198 22.4294 13.9798 21.8604L14.9198 20.6954L16.3698 21.0844C17.0698 21.2744 17.8298 21.1344 18.4198 20.7044C19.0098 20.2744 19.3798 19.5994 19.4198 18.8684L19.4898 17.3734L20.8898 16.8374C21.5698 16.5764 22.0998 16.0194 22.3298 15.3234C22.5598 14.6274 22.4598 13.8664 22.0598 13.2524L21.2398 11.9974L22.0598 10.7424C22.4598 10.1284 22.5598 9.36737 22.3298 8.67137C22.0998 7.97537 21.5698 7.41838 20.8898 7.15737L19.4898 6.62138L19.4198 5.12637C19.3798 4.39538 19.0098 3.72038 18.4198 3.29037C17.8298 2.86037 17.0698 2.72038 16.3698 2.91037L14.9198 3.29938L13.9798 2.13437C13.5198 1.56537 12.8298 1.23438 12.0898 1.23438C11.3598 1.23438 10.6698 1.56537 10.2098 2.13437ZM12.0898 3.23438C11.9698 3.23438 11.8398 3.29238 11.7598 3.39237L10.4098 5.06238C10.1698 5.37038 9.75981 5.50238 9.37981 5.39937L7.29981 4.84137C7.17981 4.80837 7.04981 4.83337 6.93981 4.90838C6.83981 4.98338 6.77981 5.10138 6.76981 5.22937L6.65981 7.37437C6.63981 7.76937 6.38981 8.11538 6.01981 8.25637L4.00981 9.02437C3.88981 9.07037 3.79981 9.16838 3.75981 9.28938C3.71981 9.41138 3.73981 9.54437 3.80981 9.65137L4.97981 11.4524C5.19981 11.7834 5.19981 12.2114 4.97981 12.5424L3.80981 14.3434C3.73981 14.4504 3.71981 14.5834 3.75981 14.7054C3.79981 14.8264 3.88981 14.9244 4.00981 14.9704L6.01981 15.7384C6.38981 15.8794 6.63981 16.2254 6.65981 16.6204L6.76981 18.7654C6.77981 18.8934 6.83981 19.0114 6.93981 19.0864C7.04981 19.1614 7.17981 19.1864 7.29981 19.1524L9.37981 18.5954C9.75981 18.4924 10.1698 18.6244 10.4098 18.9324L11.7598 20.6024C11.8398 20.7024 11.9698 20.7604 12.0898 20.7604C12.2198 20.7604 12.3398 20.7024 12.4198 20.6024L13.7698 18.9324C14.0198 18.6244 14.4298 18.4924 14.8098 18.5954L16.8898 19.1534C17.0098 19.1864 17.1398 19.1614 17.2398 19.0864C17.3498 19.0114 17.4098 18.8934 17.4198 18.7654L17.5298 16.6204C17.5498 16.2254 17.7998 15.8794 18.1698 15.7384L20.1798 14.9704C20.2998 14.9244 20.3898 14.8264 20.4298 14.7054C20.4698 14.5834 20.4498 14.4504 20.3798 14.3434L19.2098 12.5424C18.9898 12.2114 18.9898 11.7834 19.2098 11.4524L20.3798 9.65137C20.4498 9.54437 20.4698 9.41138 20.4298 9.28938C20.3898 9.16838 20.2998 9.07037 20.1798 9.02437L18.1698 8.25637C17.7998 8.11538 17.5498 7.76937 17.5298 7.37437L17.4198 5.22937C17.4098 5.10138 17.3498 4.98338 17.2398 4.90838C17.1398 4.83337 17.0098 4.80838 16.8898 4.84238L14.8098 5.39937C14.4298 5.50238 14.0198 5.37038 13.7698 5.06238L12.4198 3.39237C12.3398 3.29238 12.2198 3.23438 12.0898 3.23438Z" fill="black"/>
</svg>
