<svg width="16" height="16" viewBox="0 0 16 16" fill="none" xmlns="http://www.w3.org/2000/svg">
<path fill-rule="evenodd" clip-rule="evenodd" d="M5.41301 3.08666C6.18601 2.67866 7.06601 2.44766 7.99901 2.44766C11.064 2.44766 13.552 4.93566 13.552 8.00066C13.552 11.0657 11.064 13.5537 7.99901 13.5537C7.03101 13.5537 6.12101 13.3057 5.32801 12.8687C4.94101 12.6557 4.45401 12.7967 4.24101 13.1837C4.02801 13.5707 4.16901 14.0577 4.55601 14.2707C5.57801 14.8337 6.75101 15.1537 7.99901 15.1537C11.947 15.1537 15.152 11.9487 15.152 8.00066C15.152 4.05266 11.947 0.847656 7.99901 0.847656C6.79601 0.847656 5.66101 1.14566 4.66601 1.67166C4.27501 1.87766 4.12601 2.36266 4.33201 2.75266C4.53801 3.14266 5.02301 3.29266 5.41301 3.08666ZM0.823488 11.8007H3.54978C3.98749 11.8007 4.34201 11.4427 4.34201 11.0007C4.34201 10.5587 3.98749 10.2007 3.54978 10.2007H0.823488C0.385776 10.2007 0.03125 10.5587 0.03125 11.0007C0.03125 11.4427 0.385776 11.8007 0.823488 11.8007ZM7.21501 4.56566V7.99866C7.21501 8.21066 7.30001 8.41466 7.45001 8.56466L9.29501 10.4097C9.60701 10.7217 10.114 10.7217 10.426 10.4097C10.738 10.0967 10.738 9.58966 10.426 9.27766L8.81501 7.66766V4.56566C8.81501 4.12366 8.45701 3.76566 8.01501 3.76566C7.57401 3.76566 7.21501 4.12366 7.21501 4.56566ZM1.78801 8.80066H5.06301C5.50501 8.80066 5.86301 8.44266 5.86301 8.00066C5.86301 7.55866 5.50501 7.20066 5.06301 7.20066H1.78801C1.34601 7.20066 0.988014 7.55866 0.988014 8.00066C0.988014 8.44266 1.34601 8.80066 1.78801 8.80066ZM0.823488 5.80065H3.54978C3.98749 5.80065 4.34201 5.44265 4.34201 5.00065C4.34201 4.55865 3.98749 4.20065 3.54978 4.20065H0.823488C0.385776 4.20065 0.03125 4.55865 0.03125 5.00065C0.03125 5.44265 0.385776 5.80065 0.823488 5.80065Z" fill="black"/>
</svg>
