<svg width="16" height="16" viewBox="0 0 16 16" fill="none" xmlns="http://www.w3.org/2000/svg">
<path fill-rule="evenodd" clip-rule="evenodd" d="M4.48209 8.94109C4.17709 9.68809 3.68509 10.4621 2.90109 11.1821C2.49009 11.5591 2.46309 12.1991 2.84109 12.6091C3.21809 13.0201 3.85709 13.0471 4.26809 12.6701C6.87509 10.2741 7.02409 7.60609 7.00109 6.01209C7.00109 5.96809 6.99709 5.92509 6.99009 5.88309C6.96309 5.13109 6.65209 4.41609 6.11809 3.88209C5.55809 3.32209 4.79809 3.00709 4.00509 3.00709C3.21309 3.00709 2.45309 3.32209 1.89209 3.88209C1.33209 4.44309 1.01709 5.20309 1.01709 5.99509C1.01709 6.78809 1.33209 7.54809 1.89209 8.10809C2.45309 8.66809 3.21309 8.98309 4.00509 8.98309C4.16609 8.98309 4.32609 8.97009 4.48209 8.94109ZM11.4761 8.95809C11.1691 9.69509 10.6761 10.4561 9.89709 11.1661C9.48509 11.5411 9.45509 12.1811 9.83009 12.5931C10.2061 13.0051 10.8451 13.0351 11.2571 12.6601C13.8851 10.2661 14.0351 7.60009 14.0031 5.99509L13.9981 5.93509C13.9671 4.30609 12.6361 2.99609 11.0001 2.99609H10.9971C9.34009 2.99609 7.99709 4.33909 7.99709 5.99609V5.99909C7.99709 7.65609 9.34009 8.99909 10.9971 8.99909H11.0001C11.1621 8.99909 11.3211 8.98609 11.4761 8.95809Z" fill="black"/>
</svg>
