<svg width="24" height="24" viewBox="0 0 24 24" fill="none" xmlns="http://www.w3.org/2000/svg">
<path fill-rule="evenodd" clip-rule="evenodd" d="M17.653 13.9361C17.147 14.9021 16.363 15.8001 15.171 16.3731C14.562 16.6651 14.306 17.3971 14.598 18.0061C14.891 18.6161 15.623 18.8721 16.232 18.5801C20.16 16.6921 20.98 12.2941 20.993 10.2381C20.999 10.1581 21.001 10.0761 21.001 9.99414C21.001 7.78514 19.21 5.99414 17.001 5.99414C14.792 5.99414 13.001 7.78514 13.001 9.99414C13.001 12.2031 14.792 13.9941 17.001 13.9941C17.223 13.9941 17.441 13.9761 17.653 13.9361ZM7.65298 13.9361C7.14698 14.9021 6.36298 15.8001 5.17098 16.3731C4.56198 16.6651 4.30598 17.3971 4.59798 18.0061C4.89098 18.6161 5.62298 18.8721 6.23198 18.5801C10.16 16.6921 10.98 12.2941 10.993 10.2381C10.999 10.1581 11.001 10.0761 11.001 9.99414C11.001 7.78514 9.20998 5.99414 7.00098 5.99414C4.79198 5.99414 3.00098 7.78514 3.00098 9.99414C3.00098 12.2031 4.79198 13.9941 7.00098 13.9941C7.22298 13.9941 7.44098 13.9761 7.65298 13.9361Z" fill="black"/>
</svg>
