<svg width="24" height="24" viewBox="0 0 24 24" fill="none" xmlns="http://www.w3.org/2000/svg">
<path fill-rule="evenodd" clip-rule="evenodd" d="M7.96677 5.00045L17.5938 0.108452C18.0858 -0.141548 18.6878 0.0554521 18.9378 0.547452C19.1878 1.03945 18.9918 1.64145 18.4998 1.89245L12.3818 5.00045H17.9778C19.3038 5.00045 20.5758 5.52745 21.5138 6.46445C22.4508 7.40245 22.9778 8.67445 22.9778 10.0005C22.9778 11.8815 22.9778 14.1195 22.9778 16.0005C22.9778 17.3265 22.4508 18.5985 21.5138 19.5365C20.8098 20.2395 19.9178 20.7125 18.9548 20.9045C18.7808 21.5365 18.2078 22.0005 17.5288 22.0005C16.8838 22.0005 16.3348 21.5825 16.1318 21.0005H7.93377C7.72777 21.5825 7.17077 22.0005 6.51777 22.0005C5.83177 22.0005 5.25277 21.5405 5.07377 20.9115C4.09577 20.7255 3.18877 20.2505 2.47377 19.5365C1.53677 18.5985 1.00977 17.3265 1.00977 16.0005C1.00977 14.1195 1.00977 11.8815 1.00977 10.0005C1.00977 8.67445 1.53677 7.40245 2.47377 6.46445C3.41177 5.52745 4.68377 5.00045 6.00977 5.00045H7.96677ZM6.00977 7.00045H17.9778C18.7738 7.00045 19.5368 7.31645 20.0988 7.87945C20.6618 8.44145 20.9778 9.20445 20.9778 10.0005V16.0005C20.9778 16.7965 20.6618 17.5595 20.0988 18.1215C19.5368 18.6845 18.7738 19.0005 17.9778 19.0005H6.00977C5.21377 19.0005 4.45077 18.6845 3.88877 18.1215C3.32577 17.5595 3.00977 16.7965 3.00977 16.0005V10.0005C3.00977 9.20445 3.32577 8.44145 3.88877 7.87945C4.45077 7.31645 5.21377 7.00045 6.00977 7.00045ZM7.99577 9.00345C5.78777 9.00345 3.99577 10.7955 3.99577 13.0035C3.99577 15.2105 5.78777 17.0035 7.99577 17.0035C10.2028 17.0035 11.9958 15.2105 11.9958 13.0035C11.9958 10.7955 10.2028 9.00345 7.99577 9.00345ZM18.4038 14.0005H14.5958C14.0448 14.0005 13.5958 14.4485 13.5958 15.0005C13.5958 15.5525 14.0448 16.0005 14.5958 16.0005H18.4038C18.9548 16.0005 19.4038 15.5525 19.4038 15.0005C19.4038 14.4485 18.9548 14.0005 18.4038 14.0005ZM7.99577 11.0035C9.09977 11.0035 9.99577 11.8995 9.99577 13.0035C9.99577 14.1075 9.09977 15.0035 7.99577 15.0035C6.89177 15.0035 5.99577 14.1075 5.99577 13.0035C5.99577 11.8995 6.89177 11.0035 7.99577 11.0035ZM18.4038 10.0005H14.5958C14.0448 10.0005 13.5958 10.4485 13.5958 11.0005C13.5958 11.5525 14.0448 12.0005 14.5958 12.0005H18.4038C18.9548 12.0005 19.4038 11.5525 19.4038 11.0005C19.4038 10.4485 18.9548 10.0005 18.4038 10.0005Z" fill="black"/>
</svg>
