<svg width="16" height="16" viewBox="0 0 16 16" fill="none" xmlns="http://www.w3.org/2000/svg">
<path fill-rule="evenodd" clip-rule="evenodd" d="M4.87356 0.872833C5.30487 0.441517 5.88995 0.199219 6.50194 0.199219C7.77107 0.199219 8.79994 1.22809 8.79994 2.49722V5.30768V13.9954C8.79994 14.4372 8.44177 14.7954 7.99994 14.7954H5.07672H4.99994C4.55811 14.7954 4.19994 14.4372 4.19994 13.9954V3.30832V2.49922C4.19994 1.88923 4.44224 1.30415 4.87356 0.872833ZM6.59665 1.80559L6.50194 1.79922C6.31426 1.79922 6.13616 1.87298 6.00493 2.0042C5.8737 2.13543 5.79994 2.31353 5.79994 2.49922V13.1952H7.19994V2.49722C7.19994 2.14387 6.93733 1.85181 6.59665 1.80559Z" fill="black"/>
<path d="M8.79994 5.30768V7.49922C8.79994 7.11265 9.11337 6.79922 9.49994 6.79922L9.59492 6.80561C9.93657 6.85196 10.1999 7.14486 10.1999 7.49922L10.1999 11.2466C10.1999 10.6366 10.4422 10.0517 10.8736 9.62033C11.1353 9.35857 11.4537 9.16639 11.7999 9.05575V7.49922C11.7999 6.22899 10.7702 5.19922 9.49994 5.19922C9.25586 5.19922 9.02066 5.23724 8.79994 5.30768Z" fill="black"/>
<path d="M10.9999 14.7954C11.4418 14.7954 11.7999 14.4372 11.7999 13.9954L11.7999 13.1952V11.2466L11.7999 9.05575C11.4537 9.16639 11.1353 9.35857 10.8736 9.62033C10.4422 10.0517 10.1999 10.6366 10.1999 11.2466L10.1999 13.1952L10.1999 13.9954C10.1999 14.4372 10.5581 14.7954 10.9999 14.7954Z" fill="black"/>
<path d="M11.7999 13.9954C11.7999 14.4372 11.4418 14.7954 10.9999 14.7954L13.9999 14.7954C14.4418 14.7954 14.7999 14.4372 14.7999 13.9954V11.2466C14.7999 10.6366 14.5577 10.0517 14.1263 9.62033C13.695 9.189 13.1099 8.94662 12.4999 8.94662C12.2602 8.94662 12.0242 8.98408 11.7999 9.05575L11.7999 11.2466C11.7999 11.061 11.8737 10.883 12.0049 10.7517C12.1362 10.6204 12.3143 10.5466 12.4999 10.5466C12.6855 10.5466 12.8637 10.6204 12.995 10.7517L13.0667 10.8358C13.1528 10.9545 13.1999 11.0981 13.1999 11.2466V13.1952H11.7999L11.7999 13.9954Z" fill="black"/>
<path d="M8.79994 13.9954C8.79994 14.4372 8.44177 14.7954 7.99994 14.7954H10.9999C10.5581 14.7954 10.1999 14.4372 10.1999 13.9954L10.1999 13.1952H8.79994V13.9954Z" fill="black"/>
<path fill-rule="evenodd" clip-rule="evenodd" d="M5.07672 14.7954H4.99994C4.55811 14.7954 4.19994 14.4372 4.19994 13.9954V3.30832C3.9758 3.23667 3.73995 3.19922 3.50024 3.19922C2.88669 3.19922 2.30207 3.44136 1.87116 3.87243C1.44032 4.30327 1.19824 4.88775 1.19824 5.49722V13.9992C1.19824 14.441 1.55641 14.7992 1.99824 14.7992H4.99824C5.02472 14.7992 5.0509 14.7979 5.07672 14.7954ZM3.99366 5.0036C3.86283 4.87273 3.68537 4.79922 3.50024 4.79922C3.31108 4.79922 3.13353 4.87276 3.00263 5.0037C2.87176 5.13457 2.79824 5.31208 2.79824 5.49722L2.79794 13.1992H4.19794L4.19824 5.49722C4.19824 5.34918 4.15117 5.20595 4.06525 5.08749L3.99366 5.0036Z" fill="black"/>
</svg>
