<svg width="12" height="12" viewBox="0 0 12 12" fill="none" xmlns="http://www.w3.org/2000/svg">
<path fill-rule="evenodd" clip-rule="evenodd" d="M3.7082 2.31122C3.4812 2.23722 3.2422 2.19922 3.0002 2.19922H2.9982C1.7292 2.19922 0.700195 3.22822 0.700195 4.49722V10.9992C0.700195 11.4412 1.0582 11.7992 1.5002 11.7992H10.5002C10.9422 11.7992 11.3002 11.4412 11.3002 10.9992V7.49922C11.3002 6.88922 11.0582 6.30422 10.6262 5.87322C10.1952 5.44122 9.6102 5.19922 9.0002 5.19922C8.6992 5.19922 8.5242 5.23622 8.3002 5.30822V2.49722C8.3002 1.88822 8.0582 1.30322 7.6272 0.872219C7.1962 0.441219 6.6112 0.199219 6.0022 0.199219H5.9982C5.38919 0.199219 4.8042 0.441219 4.3732 0.872219C3.9862 1.25922 3.7522 1.76922 3.7082 2.31122ZM8.3002 10.1992V7.49922C8.3002 7.31322 8.3742 7.13522 8.5052 7.00422C8.6362 6.87322 8.8142 6.79922 9.0002 6.79922C9.1862 6.79922 9.3642 6.87322 9.4952 7.00422C9.62619 7.13522 9.7002 7.31322 9.7002 7.49922V10.1992H8.3002ZM3.7002 4.49922V10.1992H2.3002V4.49722C2.3002 4.11122 2.6132 3.79922 2.9982 3.79922H3.0002C3.1862 3.79922 3.3642 3.87322 3.4952 4.00422C3.6262 4.13522 3.7002 4.31322 3.7002 4.49922ZM6.7002 2.49722V10.1992H5.3002V2.49722C5.3002 2.31222 5.3742 2.13422 5.5042 2.00322C5.6352 1.87322 5.8132 1.79922 5.9982 1.79922H6.0022C6.1872 1.79922 6.3652 1.87322 6.4962 2.00322C6.6262 2.13422 6.7002 2.31222 6.7002 2.49722Z" fill="black"/>
</svg>
