<svg width="24" height="24" viewBox="0 0 24 24" fill="none" xmlns="http://www.w3.org/2000/svg">
<path fill-rule="evenodd" clip-rule="evenodd" d="M7 6.16C6.69 6.06 6.37 6.01 6.04 6.01H5.95C5.17 6.01 4.42 6.32 3.86 6.87C3.31 7.43 3 8.18 3 8.96C3 12.81 3 21.01 3 21.01C3 21.56 3.45 22.01 4 22.01H8C8.03 22.01 8.07 22 8.1 22H20C20.55 22 21 21.55 21 21V16.96C21 15.32 19.68 14 18.04 14H17.96C17.62 14 17.3 14.06 17 14.16V11.96C17 10.32 15.68 9 14.04 9H13.96C13.62 9 13.3 9.06 13 9.16V4.96C13 3.32 11.68 2 10.04 2H9.96C8.32 2 7 3.32 7 4.96V6.16ZM7 8.96V20.01H5V8.96C5 8.71 5.1 8.46 5.28 8.29C5.46 8.11 5.7 8.01 5.95 8.01H6.04C6.3 8.01 6.54 8.11 6.72 8.29C6.9 8.46 7 8.71 7 8.96ZM13 20V11.96C13 11.43 13.43 11 13.96 11H14.04C14.57 11 15 11.43 15 11.96V20H13ZM11 4.96V20H9V4.96C9 4.43 9.43 4 9.96 4H10.04C10.57 4 11 4.43 11 4.96ZM17 20V16.96C17 16.43 17.43 16 17.96 16H18.04C18.57 16 19 16.43 19 16.96V20H17Z" fill="black"/>
</svg>
