<svg width="16" height="16" viewBox="0 0 16 16" fill="none" xmlns="http://www.w3.org/2000/svg">
<path fill-rule="evenodd" clip-rule="evenodd" d="M7.83513 5.75042V4.80042C7.83513 4.10042 7.42798 3.46042 6.79442 3.17042C6.15986 2.87042 5.41408 2.98042 4.8838 3.43042L0.623635 7.11042C0.228404 7.45042 3.23882e-06 7.95042 3.23882e-06 8.48042C-0.000989806 9.00042 0.226417 9.50042 0.620656 9.84042L4.88082 13.5404C5.41011 13.9904 6.15688 14.1004 6.79243 13.8104C7.42798 13.5104 7.83513 12.8804 7.83513 12.1704V11.5604C9.22837 11.7504 10.1698 12.1404 10.9304 12.6804C11.5799 13.1804 12.4687 13.1804 13.1102 12.6904C13.7576 12.1904 13.988 11.3104 13.6703 10.5604L13.6673 10.5504C12.7974 8.54042 11.0794 6.44042 7.83513 5.75042ZM6.24626 6.43042C6.24626 6.83042 6.53821 7.16042 6.93046 7.22042C9.91456 7.64042 11.4558 9.45042 12.2085 11.1804C12.2423 11.2704 12.2164 11.3604 12.1459 11.4204C12.0744 11.4704 11.9751 11.4704 11.9046 11.4204C11.8937 11.4104 11.8838 11.4004 11.8738 11.3904C10.7775 10.6104 9.38229 10.0404 7.09928 9.87042C6.87883 9.86042 6.66135 9.93042 6.49948 10.0804C6.33762 10.2404 6.24626 10.4504 6.24626 10.6704V12.1704C6.24626 12.2504 6.20058 12.3204 6.13007 12.3504C6.05956 12.3904 5.97615 12.3704 5.91756 12.3204L1.6574 8.63042C1.6137 8.59042 1.58888 8.54042 1.58888 8.48042C1.58888 8.42042 1.6137 8.36042 1.65839 8.33042L5.91756 4.65042C5.97714 4.60042 6.05956 4.59042 6.13007 4.62042C6.20058 4.65042 6.24626 4.72042 6.24626 4.80042V6.43042ZM9.22539 3.64042L11.4081 5.55042C11.5938 5.71042 11.8381 5.79042 12.0824 5.77042C12.3267 5.74042 12.5511 5.62042 12.701 5.42042L15.4726 1.82042C15.7745 1.42042 15.703 0.860424 15.3128 0.550424C14.9235 0.250424 14.3614 0.320424 14.0595 0.720424L11.8669 3.57042L10.3982 2.28042C10.0258 1.95042 9.46074 1.99042 9.13701 2.37042C8.81328 2.74042 8.853 3.31042 9.22539 3.64042Z" fill="black"/>
</svg>
