<svg width="24" height="24" viewBox="0 0 24 24" fill="none" xmlns="http://www.w3.org/2000/svg">
<path fill-rule="evenodd" clip-rule="evenodd" d="M12.0392 7.54359V5.15639C12.0392 4.37299 11.5822 3.66169 10.8692 3.33669C10.1562 3.01159 9.31917 3.13269 8.72717 3.64639L1.41117 10.0006C0.973168 10.3809 0.722168 10.9326 0.722168 11.5127C0.723168 12.0927 0.975168 12.6439 1.41417 13.0233C3.05517 14.4421 6.62217 17.5279 8.73117 19.3514C9.32217 19.8634 10.1592 19.9831 10.8712 19.6576C11.5822 19.3322 12.0392 18.6214 12.0392 17.8387V15.856C15.0962 16.242 16.7772 17.2205 18.2412 18.5228C18.8952 19.1218 19.8682 19.2168 20.6262 18.7544C21.3892 18.2894 21.7492 17.3738 21.5082 16.5137V16.5125C20.5392 13.0724 17.9942 8.73359 12.0392 7.54359ZM2.72217 11.5106L10.0392 5.15639V8.38759C10.0392 8.88589 10.4062 9.30819 10.8992 9.37779C16.4172 10.1563 18.7192 14.0071 19.5772 17.034L19.5762 17.0331C17.6802 15.3451 15.4902 14.0798 11.1132 13.7549C10.8362 13.7343 10.5622 13.8301 10.3582 14.0193C10.1552 14.2085 10.0392 14.4741 10.0392 14.7521V17.8388L2.72217 11.5106ZM15.0292 4.34409L17.7642 7.07919C17.9712 7.28599 18.2552 7.39719 18.5472 7.38589C18.8392 7.37459 19.1142 7.24189 19.3042 7.01979L23.6512 1.94579C24.0282 1.50569 23.9762 0.842291 23.5362 0.465291C23.0962 0.0882907 22.4332 0.139491 22.0562 0.579591L18.4472 4.79219L16.5142 2.85919C16.1042 2.44939 15.4392 2.44939 15.0292 2.85919C14.6192 3.26899 14.6192 3.93429 15.0292 4.34409Z" fill="black"/>
</svg>
