<svg width="16" height="16" viewBox="0 0 16 16" fill="none" xmlns="http://www.w3.org/2000/svg">
<path fill-rule="evenodd" clip-rule="evenodd" d="M8 2.2168C4.8082 2.2168 2.2168 4.8082 2.2168 8C2.2168 11.1918 4.8082 13.7832 8 13.7832C11.1918 13.7832 13.7832 11.1918 13.7832 8C13.7832 4.8082 11.1918 2.2168 8 2.2168ZM8 3.8168C10.3088 3.8168 12.1832 5.6912 12.1832 8C12.1832 10.3088 10.3088 12.1832 8 12.1832C5.6912 12.1832 3.8168 10.3088 3.8168 8C3.8168 5.6912 5.6912 3.8168 8 3.8168ZM8 5.1945C9.5484 5.1945 10.8055 6.4516 10.8055 8C10.8055 9.5484 9.5484 10.8055 8 10.8055C6.4516 10.8055 5.1945 9.5484 5.1945 8C5.1945 6.4516 6.4516 5.1945 8 5.1945Z" fill="black"/>
</svg>
