<svg width="16" height="16" viewBox="0 0 16 16" fill="none" xmlns="http://www.w3.org/2000/svg">
<path d="M11.5111 8.65914L10.1951 7.34914C9.88311 7.02914 9.37611 7.02914 9.06411 7.34914C8.7521 7.65914 8.7521 8.15914 9.06411 8.47914L11.7621 11.1691C11.9121 11.3191 12.1151 11.4091 12.3271 11.4091C12.5401 11.4091 12.7431 11.3191 12.8931 11.1691L15.5911 8.47914C15.9031 8.15914 15.9031 7.65914 15.5911 7.34914C15.2791 7.02914 14.7721 7.02914 14.4591 7.34914L13.1111 8.68914V7.94914C13.1111 4.45914 10.2701 1.61914 6.77211 1.61914C3.27311 1.61914 0.433105 4.45914 0.433105 7.94914C0.433105 11.3491 3.11611 14.1291 6.47811 14.2791C6.91911 14.2991 7.29411 13.9591 7.31411 13.5191C7.33411 13.0791 6.99211 12.6991 6.55111 12.6791C4.03811 12.5691 2.03311 10.4891 2.03311 7.94914C2.03311 5.33914 4.15611 3.21914 6.77211 3.21914C9.38711 3.21914 11.5111 5.33914 11.5111 7.94914V8.65914Z" fill="black"/>
</svg>
