<svg width="24" height="24" viewBox="0 0 24 24" fill="none" xmlns="http://www.w3.org/2000/svg">
<path d="M17.9829 12.9398L16.2469 11.1998C15.8569 10.8098 15.2229 10.8098 14.8329 11.1998C14.4419 11.5898 14.4419 12.2298 14.8329 12.6198L18.3009 16.0898C18.6909 16.4798 19.3239 16.4798 19.7149 16.0898L23.1829 12.6198C23.5729 12.2298 23.5729 11.5898 23.1829 11.1998C22.7919 10.8098 22.1589 10.8098 21.7679 11.1998L19.9829 12.9898V11.9698C19.9829 7.02977 15.9649 3.00977 11.0149 3.00977C6.06488 3.00977 2.04688 7.02977 2.04688 11.9698C2.04688 16.7798 5.84288 20.7098 10.5999 20.9198C11.1509 20.9498 11.6189 20.5198 11.6449 19.9698C11.6699 19.4198 11.2429 18.9498 10.6909 18.9298C6.99588 18.7598 4.04688 15.7098 4.04688 11.9698C4.04688 8.12977 7.16988 5.00977 11.0149 5.00977C14.8609 5.00977 17.9829 8.12977 17.9829 11.9698V12.9398Z" fill="black"/>
</svg>
