<svg width="16" height="16" viewBox="0 0 16 16" fill="none" xmlns="http://www.w3.org/2000/svg">
<path fill-rule="evenodd" clip-rule="evenodd" d="M4.75344 0.679146C5.12476 0.233293 5.83282 -0.218033 6.58644 0.11567C7.32602 0.443573 7.52689 1.27841 7.50051 2.05122C7.50041 2.99481 7.30277 3.83065 7.12453 4.47797C7.02925 4.82396 6.95528 5.06286 6.89406 5.30219C6.89222 5.30939 6.89092 5.31672 6.88918 5.32368C7.55212 5.8776 7.78975 6.72822 7.78957 7.50825L7.77883 7.82661C7.73057 8.57027 7.53017 9.30586 7.42238 9.84516C7.28549 10.5301 7.26337 10.9989 7.43605 11.3998C7.54055 11.6422 7.51928 11.9208 7.37844 12.144C6.92783 12.8578 6.58792 13.3596 6.31105 13.7641C6.03159 14.1724 5.83154 14.4598 5.63918 14.7709C5.41173 15.1388 4.93262 15.2597 4.55812 15.0434L0.863788 12.9077C0.485194 12.6885 0.352036 12.2053 0.565937 11.8237C0.813867 11.3816 1.13594 10.9526 1.42726 10.5756C1.6397 10.3007 1.83113 10.0576 1.9966 9.83247C1.95573 9.67057 1.90677 9.46284 1.85891 9.21821C1.73977 8.60915 1.61965 7.75864 1.61965 6.79438C1.61972 5.66348 2.06878 4.75756 2.63918 3.86665C2.92036 3.4275 3.25572 2.95525 3.59426 2.46333C3.939 1.96239 4.30607 1.41508 4.68019 0.783638L4.75344 0.679146ZM2.69289 11.5541C2.58945 11.688 2.49204 11.8196 2.39894 11.9467L4.70363 13.2788C4.79463 13.1451 4.89003 13.007 4.99074 12.8598C5.10111 12.6985 5.21998 12.5219 5.35207 12.3227L3.04934 11.0932C2.92805 11.2507 2.80692 11.4066 2.69289 11.5541ZM5.90187 1.85102C5.55483 2.42086 5.22107 2.92235 4.91262 3.37055C4.55318 3.89284 4.24892 4.32058 3.98684 4.72993C3.47068 5.53612 3.2203 6.12448 3.22023 6.79438C3.22023 7.63067 3.3244 8.37577 3.42922 8.91157C3.4814 9.17824 3.53281 9.39125 3.57082 9.53461C3.58969 9.60578 3.60547 9.65996 3.61574 9.69477C3.6208 9.7119 3.62514 9.72536 3.62746 9.73286C3.62842 9.73594 3.62941 9.73969 3.62941 9.73969L3.65187 9.82661C3.66001 9.86693 3.66365 9.90796 3.66555 9.94868L5.72707 11.0493C5.68149 10.5073 5.7621 9.9868 5.85305 9.53168C5.99219 8.83546 6.14519 8.29648 6.18117 7.74555L6.18898 7.50825C6.18912 6.99946 6.04295 6.69776 5.83351 6.53462C5.75253 6.54746 5.66079 6.56885 5.5718 6.60297C5.32429 6.69805 5.22146 6.82217 5.1968 6.91743C5.10757 7.26265 5.1922 7.60674 5.32375 8.2934L4.73391 8.40668L4.14504 8.51899C4.04038 7.97281 3.8613 7.29073 4.03566 6.61665C4.20067 5.97952 4.73033 5.64095 5.14211 5.48286C5.17439 5.47048 5.20736 5.45958 5.23976 5.44868C5.26154 5.25715 5.30249 5.06902 5.34426 4.90571C5.40784 4.65715 5.50554 4.33277 5.58254 4.05317C5.74902 3.44854 5.90081 2.77776 5.9009 2.05122C5.90091 2.03994 5.90139 2.02831 5.90187 2.01704C5.9045 1.95565 5.90332 1.90021 5.90187 1.85102Z" fill="black"/>
<path fill-rule="evenodd" clip-rule="evenodd" d="M9.41359 0.11567C10.1672 -0.218332 10.8751 0.233318 11.2466 0.679146L11.3198 0.783638C11.6939 1.41493 12.0611 1.96249 12.4058 2.46333C12.7442 2.95513 13.0797 3.42759 13.3609 3.86665C13.9313 4.75757 14.3803 5.66346 14.3804 6.79438C14.3804 7.75872 14.2603 8.60914 14.1411 9.21821C14.0932 9.46294 14.0443 9.67054 14.0034 9.83247C14.1688 10.0575 14.3604 10.3008 14.5728 10.5756C14.864 10.9526 15.1862 11.3817 15.4341 11.8237C15.6481 12.2055 15.5152 12.6886 15.1362 12.9077L11.4419 15.0434C11.0674 15.2596 10.5883 15.1388 10.3609 14.7709C10.1686 14.4599 9.96835 14.1723 9.68898 13.7641C9.41216 13.3596 9.07208 12.8576 8.6216 12.144C8.48096 11.9209 8.45955 11.642 8.56398 11.3998C8.73682 10.9988 8.71458 10.5303 8.57766 9.84516C8.46986 9.30587 8.26946 8.5702 8.22121 7.82661L8.21047 7.50825C8.21029 6.72827 8.44802 5.87761 9.11086 5.32368C9.10914 5.31678 9.1078 5.30931 9.10598 5.30219C9.04476 5.06293 8.97076 4.82386 8.87551 4.47797C8.69728 3.83068 8.49963 2.9947 8.49953 2.05122C8.47316 1.27851 8.67425 0.443652 9.41359 0.11567ZM10.648 12.3227C10.7801 12.5219 10.8989 12.6985 11.0093 12.8598C11.1099 13.0068 11.2055 13.1452 11.2964 13.2788L13.6011 11.9467C13.5081 11.8197 13.4105 11.6879 13.3071 11.5541C13.1931 11.4066 13.072 11.2507 12.9507 11.0932L10.648 12.3227ZM10.0982 2.01704C10.0986 2.02831 10.0991 2.03994 10.0991 2.05122C10.0992 2.77767 10.251 3.4486 10.4175 4.05317C10.4945 4.33269 10.5922 4.65717 10.6558 4.90571C10.6975 5.06899 10.7385 5.25719 10.7603 5.44868C10.7929 5.45965 10.8264 5.47038 10.8589 5.48286C11.2707 5.64096 11.8004 5.97957 11.9654 6.61665C12.1397 7.29072 11.9606 7.97281 11.856 8.51899L11.2671 8.40668L10.6773 8.2934C10.8088 7.60676 10.8934 7.26264 10.8042 6.91743C10.7796 6.82218 10.6767 6.69804 10.4292 6.60297C10.3399 6.56873 10.2477 6.54744 10.1665 6.53462C9.95738 6.69787 9.81091 6.9999 9.81105 7.50825L9.81887 7.74555C9.85484 8.29644 10.0079 8.83554 10.147 9.53168C10.2379 9.98682 10.3186 10.5072 10.273 11.0493L12.3335 9.94965C12.3354 9.90858 12.34 9.86728 12.3482 9.82661L12.3706 9.73969C12.3706 9.73969 12.3716 9.73616 12.3726 9.73286C12.3749 9.7254 12.3792 9.71209 12.3843 9.69477C12.3946 9.65997 12.4103 9.60594 12.4292 9.53461C12.4672 9.39124 12.5186 9.17838 12.5708 8.91157C12.6757 8.37576 12.7798 7.63075 12.7798 6.79438C12.7797 6.12447 12.5294 5.53614 12.0132 4.72993C11.7512 4.32068 11.4468 3.8927 11.0874 3.37055C10.779 2.92244 10.4451 2.42072 10.0982 1.85102C10.0967 1.9002 10.0955 1.95567 10.0982 2.01704Z" fill="black"/>
</svg>
