<svg width="24" height="24" viewBox="0 0 24 24" fill="none" xmlns="http://www.w3.org/2000/svg">
<path d="M3.5283 15.6256C3.71994 15.6185 3.97411 15.64 4.28318 15.6969C4.90052 15.8105 5.65789 16.0509 6.43064 16.3775C7.20109 16.7033 7.96172 17.1048 8.58885 17.5279C9.19418 17.9364 9.61586 18.3267 9.83103 18.6441C9.37361 19.2511 9.04867 19.6739 8.7783 20.0211C8.41838 20.4833 8.16783 20.8023 7.83885 21.2535C7.59887 21.5821 7.15741 21.6912 6.79197 21.5123L1.73533 19.0328C1.51912 18.9266 1.35814 18.7321 1.2949 18.4996C1.23188 18.2672 1.27163 18.018 1.40428 17.817C1.80128 17.2167 2.31963 16.63 2.79978 16.1031C2.9178 15.9736 3.03199 15.8472 3.14353 15.7252C3.18362 15.7092 3.22366 15.6909 3.2617 15.6676C3.26218 15.6677 3.33222 15.6329 3.5283 15.6256ZM20.4717 15.6256C20.6643 15.6327 20.7353 15.6665 20.7383 15.6676C20.7758 15.6907 20.8149 15.7093 20.8545 15.7252C20.9662 15.8474 21.081 15.9734 21.1992 16.1031C21.6793 16.6299 22.1977 17.2168 22.5947 17.817C22.7275 18.0181 22.7672 18.267 22.7041 18.4996C22.6407 18.7323 22.4802 18.9266 22.2637 19.0328L17.207 21.5123C16.8416 21.691 16.4 21.5821 16.1601 21.2535C15.8312 20.8024 15.5806 20.4833 15.2207 20.0211C14.9505 19.6741 14.6259 19.2514 14.1689 18.6451C14.384 18.3276 14.8055 17.9366 15.4111 17.5279C16.0382 17.1048 16.7989 16.7033 17.5693 16.3775C18.342 16.0509 19.0995 15.8105 19.7168 15.6969C20.0258 15.64 20.28 15.6186 20.4717 15.6256ZM13.7617 1.45273C14.2577 1.32508 14.6889 1.55985 14.9131 1.70566C15.1768 1.87732 15.4384 2.1163 15.6777 2.35995C15.7102 2.39303 15.74 2.42939 15.7666 2.46738C16.3947 3.36629 16.9656 4.1127 17.4746 4.77304C17.9781 5.42627 18.4382 6.0168 18.8164 6.57285C19.5949 7.71739 20.0839 8.79988 20.084 10.2857V14.1129C19.875 14.1285 19.6586 14.1567 19.4404 14.1969C18.6848 14.336 17.8188 14.6158 16.9756 14.9723C16.1301 15.3297 15.2796 15.7761 14.5576 16.2633C14.068 16.5937 13.6052 16.9667 13.2431 17.3658C12.7961 16.4582 13.0252 15.514 13.1416 14.815C13.2963 13.8857 13.4124 12.8937 12.7344 11.5543C12.608 11.3044 12.6145 11.0073 12.7519 10.7633C12.7546 10.7573 12.766 10.7312 12.7871 10.6734C12.8064 10.6206 12.8259 10.559 12.8506 10.485L12.8594 10.4889C13.0761 9.9189 13.3175 9.65944 13.4834 9.55234C13.6267 9.45988 13.758 9.44993 13.9023 9.49765C14.2558 9.61498 14.7415 10.1342 14.875 10.9644C15.0134 11.8271 15.0146 12.8344 15.0146 13.2447C15.0148 13.6657 15.3564 14.0071 15.7773 14.0074C16.1985 14.0074 16.5399 13.6659 16.54 13.2447C16.54 12.8449 16.5411 11.7223 16.3808 10.7232C16.1875 9.51896 15.4361 8.39903 14.3828 8.04941C14.111 7.95932 13.8257 7.92531 13.541 7.95468C13.415 7.68071 13.3055 7.39131 13.2168 7.09531C12.9351 6.1546 12.7791 5.01165 12.7754 3.79257C12.749 3.27192 12.7667 2.81544 12.8613 2.45175C12.9515 2.10572 13.1844 1.60158 13.7617 1.45273ZM9.08592 1.70566C9.30989 1.55994 9.74126 1.32541 10.2373 1.45273C10.8148 1.60139 11.0475 2.10564 11.1377 2.45175C11.2323 2.81546 11.25 3.27187 11.2236 3.79257C11.2199 5.01173 11.0639 6.15456 10.7822 7.09531C10.6936 7.39119 10.5848 7.68078 10.459 7.95468C10.1741 7.92531 9.88814 7.95918 9.61619 8.04941C8.56311 8.39924 7.8114 9.51905 7.61814 10.7232C7.45785 11.7224 7.45902 12.8449 7.45896 13.2447C7.45899 13.6657 7.80075 14.007 8.22166 14.0074C8.64288 14.0074 8.98429 13.666 8.98435 13.2447C8.98442 12.8344 8.9856 11.8272 9.124 10.9644C9.25734 10.1345 9.74319 9.61531 10.0967 9.49765C10.241 9.44976 10.3723 9.46013 10.5156 9.55234C10.6815 9.65932 10.9228 9.9188 11.1396 10.4889L11.1445 10.4869C11.1886 10.6103 11.2303 10.7205 11.2773 10.8219C11.3855 11.0549 11.3807 11.325 11.2646 11.5543C10.5867 12.8935 10.7027 13.8858 10.8574 14.815C10.9738 15.5137 11.2032 16.4575 10.7568 17.3648C10.3947 16.9659 9.9318 16.5936 9.44236 16.2633C8.72033 15.7761 7.86989 15.3297 7.02439 14.9723C6.18112 14.6158 5.31517 14.336 4.55955 14.1969C4.34112 14.1567 4.1242 14.1275 3.91502 14.1119V10.2857C3.91509 8.79999 4.40422 7.7173 5.1826 6.57285C5.56083 6.01676 6.02087 5.42632 6.52439 4.77304C7.03339 4.11266 7.60417 3.36637 8.2324 2.46738C8.25898 2.42936 8.28878 2.39307 8.32127 2.35995C8.56055 2.11631 8.82216 1.87738 9.08592 1.70566Z" fill="black"/>
</svg>
