<svg width="16" height="16" viewBox="0 0 16 16" fill="none" xmlns="http://www.w3.org/2000/svg">
<path d="M1.84989 10.5496C1.99468 10.5444 2.18417 10.5606 2.41142 10.6024C2.86588 10.686 3.42154 10.8615 3.98663 11.1004C4.55037 11.3388 5.10766 11.6327 5.5677 11.9432C5.96981 12.2146 6.26522 12.4781 6.43782 12.7039C6.08103 13.1787 5.8319 13.5033 5.62629 13.7674C5.36455 14.1035 5.18077 14.3367 4.94074 14.6658C4.78339 14.8812 4.49374 14.9531 4.25421 14.8358L0.573514 13.0311C0.431752 12.9616 0.327035 12.8337 0.285426 12.6815C0.244108 12.529 0.269639 12.365 0.356716 12.2332C0.642754 11.8008 1.01712 11.3773 1.36649 10.994C1.50543 10.8415 1.63929 10.6952 1.76591 10.5555C1.78997 10.5528 1.81823 10.5508 1.84989 10.5496ZM14.2719 10.5555C14.3985 10.6952 14.5323 10.8415 14.6713 10.994C15.0207 11.3773 15.395 11.8008 15.6811 12.2332C15.7681 12.365 15.7937 12.529 15.7524 12.6815C15.7107 12.8337 15.606 12.9616 15.4643 13.0311L11.7836 14.8358C11.544 14.9532 11.2544 14.8812 11.097 14.6658C10.857 14.3366 10.6733 14.1036 10.4115 13.7674C10.2059 13.5033 9.95678 13.1787 9.59996 12.7039C9.77257 12.4781 10.068 12.2145 10.4701 11.9432C10.9301 11.6327 11.4874 11.3388 12.0512 11.1004C12.6163 10.8615 13.1719 10.686 13.6264 10.6024C13.8537 10.5605 14.0431 10.5444 14.1879 10.5496C14.2196 10.5508 14.2478 10.5528 14.2719 10.5555ZM5.93098 0.523275C6.0915 0.418875 6.3862 0.260336 6.72103 0.346517C7.109 0.446489 7.26869 0.785973 7.33236 1.03011C7.39722 1.27947 7.41093 1.59478 7.39388 1.9598C7.39375 2.854 7.27995 3.69172 7.07455 4.37776C7.00218 4.61929 6.91152 4.85373 6.80599 5.07112C6.63506 5.06441 6.46451 5.08822 6.3011 5.14241C5.55997 5.38861 5.02274 6.18188 4.8841 7.04475C4.76827 7.76697 4.7689 8.58037 4.76886 8.8719C4.76911 9.14776 4.99295 9.3718 5.26887 9.3719C5.5447 9.37173 5.76862 9.14773 5.76887 8.8719C5.76892 8.57355 5.76993 7.83578 5.87141 7.20295C5.97077 6.5853 6.33392 6.18556 6.61653 6.09163C6.73657 6.05193 6.84991 6.06067 6.96908 6.13753C7.10249 6.22373 7.28385 6.42249 7.44369 6.84065C7.47368 7.01244 7.48864 7.18846 7.48861 7.36506C7.48854 7.45104 7.46877 7.53734 7.43002 7.61409C6.92794 8.60606 7.01482 9.34395 7.12826 10.0252C7.21542 10.5485 7.3782 11.2273 7.0433 11.8748C6.78846 11.6019 6.46749 11.3453 6.1263 11.1151C5.60421 10.7628 4.98899 10.4386 4.37628 10.1795C3.76503 9.92108 3.13812 9.71936 2.59306 9.61897C2.45812 9.59414 2.32425 9.57428 2.19462 9.56233V6.7176C2.19472 5.65241 2.54425 4.87568 3.10674 4.04866C3.38073 3.64589 3.71448 3.21801 4.08136 2.74202C4.45193 2.26124 4.86842 1.71684 5.32648 1.06136L5.38508 0.991048C5.55812 0.814887 5.74467 0.644587 5.93098 0.523275ZM9.31675 0.346517C9.65165 0.260319 9.94631 0.418876 10.1068 0.523275C10.2931 0.644602 10.4796 0.814863 10.6527 0.991048L10.7113 1.06136C11.1694 1.71686 11.5858 2.26122 11.9564 2.74202C12.3233 3.21803 12.657 3.64588 12.931 4.04866C13.4935 4.87568 13.8431 5.65241 13.8432 6.7176V9.56233C13.7135 9.57428 13.5797 9.59413 13.4447 9.61897C12.8996 9.71935 12.2728 9.92106 11.6615 10.1795C11.0488 10.4386 10.4336 10.7628 9.91148 11.1151C9.57031 11.3453 9.24931 11.6019 8.99448 11.8748C8.65954 11.2273 8.82235 10.5485 8.90952 10.0252C9.02296 9.34396 9.10984 8.60605 8.60776 7.61409C8.56899 7.53733 8.54924 7.45106 8.54917 7.36506C8.54914 7.18846 8.5641 7.01244 8.59409 6.84065C8.75394 6.4225 8.93529 6.22372 9.0687 6.13753C9.18788 6.06069 9.30119 6.05189 9.42125 6.09163C9.70386 6.18556 10.067 6.58529 10.1664 7.20295C10.2679 7.83578 10.2689 8.57355 10.2689 8.8719C10.2692 9.14777 10.493 9.3718 10.7689 9.3719C11.0448 9.3718 11.2687 9.14776 11.2689 8.8719C11.2689 8.58037 11.2695 7.76697 11.1537 7.04475C11.015 6.18187 10.4778 5.38861 9.73668 5.14241C9.57324 5.0882 9.40276 5.0644 9.23179 5.07112C9.12625 4.85371 9.03561 4.61931 8.96323 4.37776C8.75782 3.69171 8.64403 2.85401 8.6439 1.9598C8.62685 1.59477 8.64056 1.27948 8.70542 1.03011C8.7691 0.785949 8.92871 0.446444 9.31675 0.346517Z" fill="black"/>
</svg>
