<svg width="24" height="24" viewBox="0 0 24 24" fill="none" xmlns="http://www.w3.org/2000/svg">
<path d="M7.05492 3.17276C7.53864 2.59185 8.44859 2.0181 9.4104 2.44424C10.368 2.86897 10.6284 3.96381 10.5842 4.9921C10.5781 6.21368 10.3225 7.29654 10.0901 8.14055C9.96485 8.59535 9.8664 8.91381 9.78541 9.23039C9.77956 9.25334 9.77499 9.27655 9.76978 9.29778C10.649 10.0153 10.9664 11.13 10.9661 12.1611C10.9661 13.2742 10.6467 14.4174 10.4827 15.2382C10.3015 16.145 10.2684 16.7799 10.5042 17.3271C10.6347 17.63 10.608 17.9789 10.4319 18.2578C9.83707 19.2 9.38831 19.8623 9.02271 20.3964C8.65365 20.9357 8.38826 21.3176 8.13305 21.7304C7.84857 22.19 7.24949 22.3408 6.78148 22.0703L1.8996 19.248C1.42614 18.9742 1.2603 18.3697 1.52753 17.8925C1.85284 17.3125 2.2755 16.748 2.66035 16.2499C2.94696 15.879 3.20666 15.55 3.42989 15.2451C3.37473 15.0284 3.30707 14.7465 3.24141 14.4111C3.08442 13.6088 2.92699 12.4878 2.92695 11.2177C2.92696 9.73961 3.51303 8.55417 4.26486 7.3798C4.63578 6.80045 5.07837 6.17756 5.52658 5.52628C5.98242 4.86392 6.46781 4.13857 6.96312 3.30264L7.05492 3.17276ZM14.5892 2.44424C15.551 2.01792 16.4609 2.5918 16.9446 3.17276L17.0364 3.30264C17.5318 4.13872 18.0171 4.86382 18.473 5.52628C18.9213 6.1777 19.3637 6.80034 19.7347 7.3798C20.4866 8.5543 21.0726 9.73945 21.0726 11.2177C21.0726 12.4878 20.9151 13.6088 20.7582 14.4111C20.6925 14.7465 20.6248 15.0285 20.5697 15.2451C20.793 15.5501 21.0525 15.8789 21.3392 16.2499C21.7241 16.7481 22.1466 17.3123 22.472 17.8925C22.7396 18.3698 22.5736 18.9742 22.1 19.248L17.2181 22.0703C16.75 22.3405 16.1508 22.1902 15.8665 21.7304C15.6112 21.3175 15.346 20.9359 14.9769 20.3964C14.6112 19.8622 14.1626 19.2002 13.5677 18.2578C13.3917 17.9789 13.365 17.6299 13.4954 17.3271C13.7312 16.7799 13.6981 16.1451 13.5169 15.2382C13.3528 14.4174 13.0335 13.2742 13.0335 12.1611C13.0332 11.1302 13.3509 10.0154 14.2298 9.29778C14.2245 9.27649 14.22 9.2534 14.2142 9.23039C14.1331 8.91376 14.0347 8.59547 13.9095 8.14055C13.6771 7.29653 13.4214 6.21368 13.4153 4.9921C13.3711 3.96399 13.632 2.86913 14.5892 2.44424ZM4.24337 17.4736C4.09246 17.6689 3.94822 17.8596 3.81368 18.0449L6.96312 19.8652C7.09229 19.675 7.22788 19.4776 7.3723 19.2666C7.53773 19.0249 7.71807 18.7567 7.92211 18.4492L4.78439 16.7734C4.60219 17.0121 4.41649 17.2495 4.24337 17.4736ZM16.0765 18.4492C16.2807 18.757 16.4617 19.0246 16.6273 19.2666C16.7718 19.4777 16.9072 19.6749 17.0364 19.8652L20.1859 18.0449C20.0512 17.8594 19.9072 17.669 19.7562 17.4736C19.583 17.2494 19.3975 17.0123 19.2152 16.7734L16.0765 18.4492ZM15.4251 4.50089C15.4133 4.60522 15.4062 4.73909 15.4134 4.90616C15.414 4.92023 15.4144 4.93506 15.4144 4.94913C15.4146 5.91694 15.6178 6.80881 15.8382 7.60929C15.9406 7.98129 16.0677 8.40704 16.1517 8.73527C16.191 8.88914 16.2301 9.05801 16.2601 9.23235C16.356 9.25979 16.4531 9.29124 16.5491 9.32805C17.1218 9.54771 17.8966 10.0327 18.139 10.9687C18.3842 11.9165 18.1301 12.8764 17.9964 13.5742L17.014 13.3867L16.0325 13.1982C16.211 12.2664 16.3056 11.8701 16.2024 11.4706C16.194 11.4382 16.1321 11.311 15.8333 11.1962C15.7014 11.1456 15.565 11.1163 15.4573 11.1054C15.4047 11.1001 15.3695 11.1006 15.3538 11.1015C15.3296 11.1029 15.3664 11.1043 15.4378 11.079L15.3919 10.9501C15.1724 11.1959 15.0333 11.5859 15.0335 12.1611L15.0442 12.4775C15.0922 13.2125 15.2951 13.9321 15.4778 14.8466C15.6064 15.4902 15.7187 16.2263 15.6292 16.9882L18.4818 15.4648C18.4795 15.3889 18.4852 15.3126 18.5003 15.2372L18.5286 15.1269C18.5292 15.1252 18.5304 15.122 18.5316 15.1181C18.5347 15.1081 18.5404 15.0903 18.5472 15.0673C18.5609 15.0209 18.5816 14.9482 18.6068 14.8535C18.6573 14.6629 18.726 14.3801 18.7952 14.0263C18.9343 13.3156 19.0726 12.3275 19.0726 11.2177C19.0726 10.3157 18.7343 9.52658 18.0501 8.45793C17.7031 7.9159 17.2998 7.3492 16.8255 6.66007C16.3905 6.02794 15.916 5.31712 15.4251 4.50089ZM8.57446 4.50089C8.08363 5.31697 7.60902 6.02804 7.17406 6.66007C6.69992 7.34902 6.29641 7.916 5.94944 8.45793C5.26542 9.52638 4.92697 10.3158 4.92697 11.2177C4.927 12.3275 5.06528 13.3156 5.20432 14.0263C5.27356 14.3801 5.34227 14.6629 5.39279 14.8535C5.41794 14.9483 5.43866 15.0209 5.45236 15.0673C5.45919 15.0904 5.46489 15.1081 5.46799 15.1181C5.46924 15.1221 5.47038 15.1252 5.47092 15.1269L5.49924 15.2372C5.51437 15.3126 5.5201 15.3889 5.5178 15.4648L8.37036 16.9882C8.28086 16.2264 8.39313 15.4902 8.52173 14.8466C8.70449 13.9321 8.90731 13.2125 8.95532 12.4775L8.96606 12.1611C8.96627 11.5856 8.82741 11.1958 8.60766 10.9501L8.56274 11.079C8.63412 11.1043 8.67091 11.1029 8.64673 11.1015C8.63105 11.1006 8.59596 11.1001 8.54321 11.1054C8.43552 11.1162 8.29916 11.1456 8.16723 11.1962C7.8683 11.311 7.80649 11.4382 7.79809 11.4706C7.69488 11.8701 7.7895 12.2664 7.96801 13.1982L6.98656 13.3867L6.00413 13.5742C5.87044 12.8764 5.61628 11.9165 5.86155 10.9687C6.10397 10.0326 6.87877 9.54769 7.4514 9.32805C7.54713 9.29134 7.64379 9.25974 7.73949 9.23235C7.76944 9.05804 7.80855 8.88912 7.84789 8.73527C7.93183 8.4071 8.05894 7.98124 8.16137 7.60929C8.38179 6.80881 8.58499 5.91694 8.5852 4.94913C8.5852 4.93507 8.58558 4.92022 8.58618 4.90616C8.59336 4.73904 8.58629 4.60523 8.57446 4.50089Z" fill="black"/>
</svg>
