<svg width="12" height="12" viewBox="0 0 12 12" fill="none" xmlns="http://www.w3.org/2000/svg">
<path fill-rule="evenodd" clip-rule="evenodd" d="M1.4843 6.06526C1.51888 8.53974 3.5384 10.538 6.02098 10.538C6.5747 10.538 7.10533 10.4384 7.59605 10.2566C7.90663 10.1414 8.06525 9.79591 7.9502 9.48541C7.83508 9.17491 7.48955 9.01621 7.17905 9.13134C6.8183 9.26506 6.42808 9.33796 6.02098 9.33796C4.21895 9.33796 2.74858 7.90651 2.68595 6.11956L3.03515 6.46876C3.26938 6.70291 3.64955 6.70291 3.8837 6.46876C4.11785 6.23461 4.11785 5.85444 3.8837 5.62029L2.48225 4.21876C2.24795 3.98446 1.868 3.98446 1.6337 4.21876L0.232253 5.62029C-0.00189687 5.85444 -0.00189687 6.23461 0.232253 6.46876C0.466403 6.70291 0.846653 6.70291 1.0808 6.46876L1.4843 6.06526ZM9.35233 5.92786L8.96923 5.54476C8.73508 5.31061 8.3549 5.31061 8.12075 5.54476C7.8866 5.77891 7.8866 6.15909 8.12075 6.39331L9.5222 7.79476C9.7565 8.02906 10.1364 8.02906 10.3708 7.79476L11.7722 6.39331C12.0064 6.15909 12.0064 5.77891 11.7722 5.54476C11.5381 5.31061 11.1578 5.31061 10.9237 5.54476L10.5523 5.91609C10.5087 3.44986 8.49275 1.46094 6.01595 1.46094C5.2055 1.46094 4.4444 1.67401 3.7856 2.04684C3.49738 2.20996 3.39575 2.57634 3.55888 2.86456C3.722 3.15271 4.08838 3.25434 4.3766 3.09121C4.8608 2.81716 5.4203 2.66094 6.01595 2.66094C7.83433 2.66094 9.31505 4.11849 9.35233 5.92786Z" fill="black"/>
</svg>
