<svg width="24" height="24" viewBox="0 0 24 24" fill="none" xmlns="http://www.w3.org/2000/svg">
<path fill-rule="evenodd" clip-rule="evenodd" d="M3.04408 11.83C3.04308 11.89 3.04308 11.94 3.04308 12C3.04308 16.97 7.07608 21 12.0431 21C13.1411 21 14.1941 20.8 15.1671 20.44C15.6851 20.25 15.9491 19.68 15.7571 19.16C15.5651 18.64 14.9901 18.38 14.4721 18.57C13.7151 18.85 12.8971 19 12.0431 19C8.17908 19 5.04308 15.87 5.04308 12C5.04308 11.98 5.04308 11.96 5.04308 11.94L6.13108 13.02C6.52108 13.42 7.15508 13.42 7.54508 13.02C7.93508 12.63 7.93508 12 7.54508 11.61L4.69708 8.76C4.30708 8.37 3.67408 8.37 3.28308 8.76L0.435078 11.61C0.0450781 12 0.0450781 12.63 0.435078 13.02C0.826078 13.42 1.45908 13.42 1.85008 13.02L3.04408 11.83ZM19.0311 12.12L17.8781 10.96C17.4881 10.57 16.8551 10.57 16.4641 10.96C16.0741 11.35 16.0741 11.99 16.4641 12.38L19.3121 15.22C19.7021 15.62 20.3361 15.62 20.7261 15.22L23.5741 12.38C23.9641 11.99 23.9641 11.35 23.5741 10.96C23.1841 10.57 22.5501 10.57 22.1601 10.96L21.0321 12.09C21.0321 12.06 21.0321 12.03 21.0321 12C21.0321 7.03 17.0001 3 12.0321 3C10.4251 3 8.91508 3.42 7.60908 4.16C7.12808 4.43 6.95908 5.04 7.23108 5.52C7.50308 6 8.11308 6.17 8.59408 5.9C9.60908 5.32 10.7831 5 12.0321 5C15.8961 5 19.0321 8.13 19.0321 12C19.0321 12.04 19.0321 12.08 19.0311 12.12Z" fill="black"/>
</svg>
