<svg width="16" height="16" viewBox="0 0 16 16" fill="none" xmlns="http://www.w3.org/2000/svg">
<path fill-rule="evenodd" clip-rule="evenodd" d="M1.97923 8.08637C2.02533 11.3857 4.71803 14.05 8.02813 14.05C8.76643 14.05 9.47393 13.9173 10.1282 13.6748C10.5423 13.5213 10.7538 13.0606 10.6004 12.6466C10.4469 12.2326 9.98623 12.021 9.57223 12.1745C9.09123 12.3528 8.57093 12.45 8.02813 12.45C5.62543 12.45 3.66493 10.5414 3.58143 8.15877L4.04703 8.62437C4.35933 8.93657 4.86623 8.93657 5.17843 8.62437C5.49063 8.31217 5.49063 7.80527 5.17843 7.49307L3.30983 5.62437C2.99743 5.31197 2.49083 5.31197 2.17843 5.62437L0.309834 7.49307C-0.00236641 7.80527 -0.00236641 8.31217 0.309834 8.62437C0.622034 8.93657 1.12903 8.93657 1.44123 8.62437L1.97923 8.08637ZM12.4699 7.90317L11.9591 7.39237C11.6469 7.08017 11.14 7.08017 10.8278 7.39237C10.5156 7.70457 10.5156 8.21147 10.8278 8.52377L12.6964 10.3924C13.0088 10.7048 13.5153 10.7048 13.8278 10.3924L15.6964 8.52377C16.0086 8.21147 16.0086 7.70457 15.6964 7.39237C15.3842 7.08017 14.8772 7.08017 14.565 7.39237L14.0699 7.88747C14.0117 4.59917 11.3238 1.94727 8.02143 1.94727C6.94083 1.94727 5.92603 2.23137 5.04763 2.72847C4.66333 2.94597 4.52783 3.43447 4.74533 3.81877C4.96283 4.20297 5.45133 4.33847 5.83563 4.12097C6.48123 3.75557 7.22723 3.54727 8.02143 3.54727C10.4459 3.54727 12.4202 5.49067 12.4699 7.90317Z" fill="black"/>
</svg>
