<svg width="24" height="24" viewBox="0 0 24 24" fill="none" xmlns="http://www.w3.org/2000/svg">
<path fill-rule="evenodd" clip-rule="evenodd" d="M13.0392 7.54029V5.16029C13.0392 4.37029 12.5822 3.66029 11.8692 3.34029C11.1562 3.01029 10.3192 3.13029 9.72717 3.65029L2.41117 10.0003C1.97317 10.3803 1.72217 10.9303 1.72217 11.5103C1.72317 12.0903 1.97517 12.6403 2.41417 13.0203C4.05517 14.4403 7.62217 17.5303 9.73117 19.3503C10.3222 19.8603 11.1592 19.9803 11.8712 19.6603C12.5822 19.3303 13.0392 18.6203 13.0392 17.8403V15.8603C16.0962 16.2403 17.7772 17.2203 19.2412 18.5203C19.8952 19.1203 20.8682 19.2203 21.6262 18.7503C22.3892 18.2903 22.7492 17.3703 22.5082 16.5103C21.5392 13.0703 18.9942 8.73029 13.0392 7.54029ZM3.72217 11.5103L11.0392 5.16029V8.39029C11.0392 8.89029 11.4062 9.31029 11.8992 9.38029C17.4172 10.1603 19.7192 14.0103 20.5772 17.0303C18.6812 15.3503 16.4902 14.0803 12.1132 13.7603C11.8362 13.7303 11.5622 13.8303 11.3582 14.0203C11.1552 14.2103 11.0392 14.4703 11.0392 14.7503V17.8403L3.72217 11.5103Z" fill="black"/>
</svg>
