<svg width="16" height="16" viewBox="0 0 16 16" fill="none" xmlns="http://www.w3.org/2000/svg">
<path fill-rule="evenodd" clip-rule="evenodd" d="M8.83525 4.65638C12.5295 5.38788 14.4068 7.80098 15.3099 10.0403L15.3106 10.0422C15.6158 10.8042 15.3666 11.6762 14.7049 12.162C14.0465 12.6453 13.1458 12.6245 12.5106 12.1127C11.6329 11.458 10.5374 10.9827 8.83525 10.7663L8.83535 11.6697C8.83535 12.3734 8.42535 13.0125 7.78575 13.3059C7.14615 13.5992 6.39425 13.4929 5.86095 13.0338L1.08605 8.92308C0.68835 8.58068 0.45995 8.08188 0.46045 7.55708C0.46095 7.03238 0.69045 6.53398 1.08885 6.19248L5.86375 2.09858C6.39745 1.64098 7.14875 1.53598 7.78745 1.82968C8.42605 2.12338 8.83535 2.76208 8.83535 3.46508L8.83525 4.65638ZM7.93015 6.12808C7.53245 6.07528 7.23535 5.73618 7.23535 5.33498V3.46508C7.23535 3.38698 7.18985 3.31598 7.11895 3.28338C7.04795 3.25078 6.96455 3.26238 6.90525 3.31318L2.13025 7.40718C2.08605 7.44508 2.06055 7.50048 2.06045 7.55878C2.06035 7.61708 2.08575 7.67248 2.12995 7.71048L6.90485 11.8213C6.96415 11.8723 7.04765 11.8841 7.11875 11.8515C7.18975 11.8189 7.23535 11.7479 7.23535 11.6698V9.88518C7.23535 9.66338 7.32745 9.45158 7.48965 9.30018C7.65185 9.14888 7.86965 9.07178 8.09095 9.08718C10.7229 9.27048 12.2661 9.93058 13.4868 10.8451C13.4958 10.8519 13.5045 10.8588 13.5133 10.8659C13.5838 10.9236 13.6845 10.9262 13.758 10.8722C13.8314 10.8184 13.8591 10.7217 13.8254 10.6372C13.038 8.68578 11.3448 6.58118 7.93015 6.12808Z" fill="black"/>
</svg>
