<svg width="12" height="12" viewBox="0 0 12 12" fill="none" xmlns="http://www.w3.org/2000/svg">
<path fill-rule="evenodd" clip-rule="evenodd" d="M6.82354 3.77987V2.92837C6.82354 2.38157 6.50524 1.88487 6.00854 1.65637C5.51174 1.42797 4.92744 1.50957 4.51234 1.86547L0.928642 4.93807C0.618842 5.20367 0.440342 5.59127 0.439942 5.99947C0.439542 6.40757 0.617242 6.79557 0.926542 7.06187C1.77144 7.78917 3.43864 9.22457 4.51014 10.147C4.92494 10.5041 5.50974 10.5867 6.00724 10.3586C6.50464 10.1304 6.82354 9.63327 6.82354 9.08597V8.51847C7.92784 8.69647 8.63384 9.04697 9.23644 9.50367C9.70044 9.89027 10.346 9.93997 10.853 9.63187C11.3691 9.31837 11.6225 8.70667 11.4793 8.12007C11.4739 8.09797 11.4676 8.07617 11.4603 8.05467C10.8926 6.36757 9.58884 4.40967 6.82354 3.77987ZM5.22354 3.36327V4.44767C5.22354 4.84797 5.51944 5.18667 5.91614 5.24047C7.94804 5.51577 9.06014 6.67217 9.64464 7.84417C8.80134 7.32287 7.74294 6.94327 6.07994 6.82577C5.85854 6.81017 5.64064 6.88717 5.47824 7.03847C5.31584 7.18987 5.22354 7.40187 5.22354 7.62377V8.64987L2.14684 6.00117L5.22354 3.36327Z" fill="black"/>
</svg>
