<svg width="16" height="16" viewBox="0 0 16 16" fill="none" xmlns="http://www.w3.org/2000/svg">
<path d="M7.8631 4.25C7.75841 4.25 7.69184 4.25 7.63343 4.25143C5.10144 4.31359 3.06359 6.35144 3.00143 8.88343C3 8.94172 3 9.00812 3 9.11243V9.1369C3 9.24121 3 9.30828 3.00143 9.36657C3.06359 11.8986 5.10144 13.9364 7.63343 13.9986C7.6918 14 7.75832 14 7.86289 14H11.25C11.6642 14 12 13.6642 12 13.25C12 12.8358 11.6642 12.5 11.25 12.5H7.875C7.75449 12.5 7.7078 12.4999 7.67024 12.499C5.93783 12.4565 4.54351 11.0622 4.50098 9.32976C4.50006 9.2922 4.5 9.24551 4.5 9.125C4.5 9.00449 4.50006 8.9578 4.50098 8.92024C4.54351 7.18783 5.93783 5.79351 7.67024 5.75098C7.7078 5.75006 7.75449 5.75 7.875 5.75H10.0055H11V4.25H10.1204H7.8631Z" fill="black"/>
<path d="M11 5.75H10.0055L9.234 6.5225C8.922 6.8325 8.922 7.3425 9.234 7.6525C9.546 7.9625 10.053 7.9625 10.366 7.6525L12.509 5.5125C12.821 5.2025 12.821 4.6925 12.509 4.3825L10.366 2.2325C10.053 1.9225 9.546 1.9225 9.234 2.2325C8.922 2.5525 8.922 3.0525 9.234 3.3625L10.1204 4.25H11V5.75Z" fill="black"/>
</svg>
