<svg width="24" height="24" viewBox="0 0 24 24" fill="none" xmlns="http://www.w3.org/2000/svg">
<path fill-rule="evenodd" clip-rule="evenodd" d="M11.0574 7.3338C4.82348 8.568 2.20348 13.1436 1.23128 16.7154L1.23018 16.7193C0.999784 17.5794 1.36758 18.488 2.13138 18.9456C2.89428 19.4028 3.86768 19.2994 4.51748 18.6923C6.05298 17.3117 7.80868 16.2653 11.0575 15.8616L11.0574 18.0242C11.0574 18.8069 11.5139 19.5176 12.2257 19.8431C12.9376 20.1685 13.7738 20.0489 14.3658 19.5368C16.5505 17.6472 20.3189 14.3878 22.0157 12.9202C22.4544 12.5408 22.7067 11.9896 22.7073 11.4096C22.7079 10.8296 22.4567 10.2778 22.0188 9.8975C20.3231 8.4249 16.5544 5.1518 14.3688 3.2537C13.7774 2.74 12.9404 2.6189 12.2276 2.944C11.5148 3.269 11.0574 3.9803 11.0574 4.7637V7.3338ZM13.0574 4.7637L20.7073 11.4075L13.1772 17.9206C13.1609 17.9004 13.1411 17.8854 13.1223 17.8822C13.1077 17.8701 13.0833 17.8651 13.0574 17.8658V14.7588C13.0574 14.4807 12.9416 14.2152 12.7378 14.026C12.534 13.8368 12.2607 13.741 11.9834 13.7615C7.40268 14.1016 5.14378 15.4383 3.16688 17.2173C4.03208 14.063 6.40818 9.9856 12.1971 9.1688C12.6905 9.0992 13.0574 8.6769 13.0574 8.1786V4.7637Z" fill="black"/>
</svg>
