<svg width="24" height="24" viewBox="0 0 24 24" fill="none" xmlns="http://www.w3.org/2000/svg">
<path fill-rule="evenodd" clip-rule="evenodd" d="M12.0549 7.54359C6.09983 8.73359 3.55433 13.0724 2.58603 16.5125L2.58563 16.5137C2.34473 17.3738 2.70513 18.2894 3.46783 18.7544C4.22863 19.2184 5.20473 19.1211 5.85903 18.5168C7.31673 17.2203 8.99743 16.242 12.0548 15.8559L12.0547 17.8388C12.0547 18.6214 12.5113 19.3322 13.2231 19.6576C13.9349 19.9831 14.7711 19.8634 15.3631 19.3514L22.6795 13.0233C23.1182 12.6439 23.3706 12.0927 23.3712 11.5127C23.3718 10.9326 23.1205 10.3809 22.6826 10.0006L15.3662 3.64639C14.7747 3.13269 13.9377 3.01159 13.2249 3.33669C12.5121 3.66169 12.0547 4.37299 12.0547 5.15639L12.0549 7.54359ZM14.0547 5.15639L21.3712 11.5106L14.0547 17.8388V14.7521C14.0547 14.4741 13.9389 14.2085 13.7352 14.0193C13.5314 13.8301 13.258 13.7343 12.9807 13.7549C8.60383 14.0798 6.41393 15.3451 4.51803 17.0331L4.51593 17.035C5.37343 14.0086 7.67563 10.1565 13.1945 9.37779C13.6879 9.30819 14.0547 8.88589 14.0547 8.38759V5.15639ZM1.02903 4.34409L3.76403 7.07919C3.97093 7.28599 4.25473 7.39719 4.54703 7.38589C4.83933 7.37459 5.11363 7.24189 5.30393 7.01979L9.65043 1.94579C10.0274 1.50569 9.97613 0.842291 9.53603 0.465291C9.09593 0.0882907 8.43253 0.139491 8.05553 0.579591L4.44703 4.79219L2.51393 2.85919C2.10423 2.44939 1.43883 2.44939 1.02903 2.85919C0.61923 3.26899 0.61923 3.93429 1.02903 4.34409Z" fill="black"/>
</svg>
