<svg width="16" height="16" viewBox="0 0 16 16" fill="none" xmlns="http://www.w3.org/2000/svg">
<path fill-rule="evenodd" clip-rule="evenodd" d="M7.1645 4.65638C3.4702 5.38788 1.593 7.80098 0.689897 10.0403L0.689197 10.0422C0.383997 10.8042 0.633197 11.6762 1.2949 12.162C1.9533 12.6453 2.854 12.6245 3.4892 12.1127C4.3669 11.458 5.4623 10.9827 7.1645 10.7663L7.1644 11.6697C7.1644 12.3734 7.5744 13.0125 8.214 13.3059C8.8536 13.5992 9.6055 13.4929 10.1388 13.0338L14.9137 8.92308C15.3114 8.58068 15.5398 8.08188 15.5393 7.55708C15.5388 7.03238 15.3093 6.53398 14.9109 6.19248L10.136 2.09858C9.6023 1.64098 8.851 1.53598 8.2123 1.82968C7.5737 2.12338 7.1644 2.76208 7.1644 3.46508L7.1645 4.65638ZM8.0696 6.12808C8.4673 6.07528 8.7644 5.73618 8.7644 5.33498V3.46508C8.7644 3.38698 8.8099 3.31598 8.8808 3.28338C8.9518 3.25078 9.0352 3.26238 9.0945 3.31318L13.8695 7.40718C13.9137 7.44508 13.9392 7.50048 13.9393 7.55878C13.9394 7.61708 13.914 7.67248 13.8698 7.71048L9.0949 11.8213C9.0356 11.8723 8.9521 11.8841 8.881 11.8515C8.81 11.8189 8.7644 11.7479 8.7644 11.6698V9.88518C8.7644 9.66338 8.6723 9.45158 8.5101 9.30018C8.3479 9.14888 8.1301 9.07178 7.9088 9.08718C5.2768 9.27048 3.7337 9.93058 2.513 10.8451C2.504 10.8519 2.4952 10.8588 2.4865 10.8659C2.4159 10.9236 2.3153 10.9262 2.2418 10.8722C2.1684 10.8184 2.1407 10.7217 2.1744 10.6372C2.9618 8.68578 4.655 6.58118 8.0696 6.12808Z" fill="black"/>
</svg>
