<svg width="12" height="12" viewBox="0 0 12 12" fill="none" xmlns="http://www.w3.org/2000/svg">
<path fill-rule="evenodd" clip-rule="evenodd" d="M5.17646 3.77977C2.41106 4.40967 1.10726 6.36757 0.539562 8.05467C0.532262 8.07617 0.525962 8.09797 0.520562 8.12007C0.377362 8.70667 0.630762 9.31837 1.14686 9.63187C1.65316 9.93957 2.29786 9.89037 2.75136 9.51297C3.35656 9.05177 4.06456 8.69767 5.17636 8.51847V9.08597C5.17636 9.63327 5.49526 10.1304 5.99266 10.3586C6.49016 10.5867 7.07496 10.5041 7.48976 10.147C8.56126 9.22457 10.2285 7.78917 11.0734 7.06187C11.3827 6.79557 11.5604 6.40757 11.56 5.99947C11.5596 5.59127 11.3811 5.20367 11.0713 4.93807L7.48756 1.86547C7.07246 1.50957 6.48816 1.42797 5.99136 1.65637C5.49466 1.88487 5.17636 2.38157 5.17636 2.92837L5.17646 3.77977ZM6.77636 3.36327L9.85306 6.00117L6.77636 8.64987V7.62377C6.77636 7.40187 6.68406 7.18987 6.52166 7.03847C6.35926 6.88717 6.14136 6.81017 5.91996 6.82577C4.25696 6.94327 3.19856 7.32287 2.35526 7.84417C2.93976 6.67217 4.05186 5.51577 6.08376 5.24047C6.48046 5.18667 6.77636 4.84797 6.77636 4.44767V3.36327Z" fill="black"/>
</svg>
