<svg width="24" height="24" viewBox="0 0 24 24" fill="none" xmlns="http://www.w3.org/2000/svg">
<path d="M11.0089 7.16171C10.6363 6.9787 10.2456 6.82798 9.84078 6.71261C8.05381 6.20336 6.13772 6.42483 4.51404 7.32832C2.89036 8.2318 1.69209 9.74328 1.18283 11.5303C0.673573 13.3172 0.895048 15.2333 1.79853 16.857C2.70202 18.4807 4.2135 19.679 6.00048 20.1882C7.78745 20.6975 9.70354 20.476 11.3272 19.5725C12.9509 18.669 14.1492 17.1575 14.6584 15.3706C15.1677 13.5836 14.9462 11.6675 14.0427 10.0438C14.0273 10.0161 14.0117 9.98845 13.9959 9.96095C13.8273 10.056 13.6653 10.1635 13.5113 10.2827C13.4399 10.3379 13.3705 10.3955 13.3032 10.4553C12.9862 10.7369 12.7159 11.0671 12.5024 11.4334C12.9706 12.4969 13.0561 13.6956 12.735 14.8224C12.3711 16.0993 11.5149 17.1793 10.3548 17.8249C9.19458 18.4704 7.82547 18.6287 6.54862 18.2648C5.27176 17.9009 4.19176 17.0447 3.54619 15.8845C2.90062 14.7244 2.74237 13.3553 3.10625 12.0784C3.47013 10.8015 4.32633 9.72154 5.48651 9.07597C6.64668 8.4304 8.01579 8.27215 9.29264 8.63603C9.3676 8.65739 9.44188 8.68045 9.51543 8.70517C9.94047 8.12759 10.4424 7.60806 11.0089 7.16171Z" fill="black"/>
<path d="M15.9636 8.44433C18.7284 8.44433 20.9697 10.6856 20.9697 13.4504C20.9697 16.2152 18.7284 18.4565 15.9636 18.4565C15.4057 18.4565 14.8691 18.3652 14.368 18.1968C13.9411 18.7767 13.4384 19.2957 12.874 19.7402C13.806 20.1988 14.8547 20.4565 15.9636 20.4565C19.8329 20.4565 22.9697 17.3197 22.9697 13.4504C22.9697 11.4132 22.1002 9.57912 20.7121 8.29895L19.6251 8.53928C18.7117 8.74122 17.7804 8.28311 17.3829 7.43635L16.9495 6.51316C16.6274 6.46779 16.2982 6.44433 15.9636 6.44433C12.0942 6.44433 8.95752 9.58106 8.95752 13.4504C8.95752 14.7212 9.29584 15.9129 9.88733 16.9405C9.91355 16.9257 9.93963 16.9106 9.96555 16.8952C10.497 16.5797 10.9482 16.1456 11.284 15.6267C11.3176 15.5747 11.35 15.5221 11.3811 15.4688C11.1087 14.8514 10.9575 14.1685 10.9575 13.4504C10.9575 10.6856 13.1988 8.44433 15.9636 8.44433Z" fill="black"/>
<path d="M17.3829 7.43635C17.7804 8.28311 18.7117 8.74122 19.6251 8.53928L20.7121 8.29895C19.6917 7.3579 18.391 6.71618 16.9495 6.51316L17.3829 7.43635Z" fill="black"/>
<path fill-rule="evenodd" clip-rule="evenodd" d="M19.3864 2.53644C18.6903 2.19401 17.8589 2.28506 17.2534 2.77005L16.9851 2.98491C16.2638 3.56263 16.0322 4.5593 16.425 5.39584L16.9495 6.51316C18.391 6.71618 19.6917 7.3579 20.7121 8.29895L21.8261 8.05265C22.7284 7.85314 23.3766 7.06139 23.394 6.13742L23.4004 5.79378C23.415 5.01811 22.9797 4.30397 22.2836 3.96154L19.3864 2.53644ZM18.5037 4.33107L21.4008 5.75617L21.3943 6.09981L19.1933 6.58645L18.2354 4.54593L18.5037 4.33107Z" fill="black"/>
</svg>
