<svg width="24" height="24" viewBox="0 0 24 24" fill="none" xmlns="http://www.w3.org/2000/svg">
<path fill-rule="evenodd" clip-rule="evenodd" d="M7.19393 3.76409C6.91423 3.06219 7.20053 2.26989 8.38103 1.83529C9.17603 1.54269 10.5575 1.36329 11.9467 1.34349C13.62 1.31959 15.2934 1.54969 16.026 1.94649C16.4596 2.18139 16.7014 2.49609 16.8088 2.79879C16.9166 3.10259 16.921 3.43019 16.769 3.78019C16.7203 3.89229 16.676 4.00239 16.6359 4.11059C17.4482 3.77399 18.2249 3.53409 18.844 3.43399C20.0644 3.23659 20.9101 3.69089 21.3209 4.24359C21.8371 4.93819 21.8666 5.91479 21.0391 6.73919C20.8063 6.97099 20.5197 7.21369 20.2612 7.50229C20.0021 7.79159 19.7627 8.13929 19.7617 8.63579C19.7584 9.99619 19.9343 11.1449 19.9675 12.1623C20.0084 13.4133 19.8445 14.4958 19.1456 15.5247C18.6528 16.2501 17.974 16.8412 17.1943 17.2905C17.826 17.6994 18.3909 18.2569 18.7818 19.0074C19.0529 19.5235 19.0554 20.1394 18.7886 20.6578C18.5217 21.1765 18.0186 21.5324 17.4407 21.6116C17.4374 21.612 17.4342 21.6124 17.4309 21.6128C15.94 21.8004 14.3485 21.6321 12.9968 20.8395V22.9583C12.9968 23.5102 12.5487 23.9583 11.9968 23.9583C11.4449 23.9583 10.9968 23.5102 10.9968 22.9583V21.0397C9.71173 21.7439 8.14053 21.9064 6.51663 21.6933C5.92993 21.6168 5.41903 21.2553 5.15163 20.7276C4.88433 20.1999 4.89513 19.5742 5.18033 19.056C5.62383 18.2482 6.26623 17.6604 6.97673 17.2391C6.48983 16.9005 6.05303 16.4932 5.67803 16.025C4.49633 14.55 3.91303 12.4508 4.38703 9.94129C4.49293 9.38079 4.28763 8.84779 4.00593 8.36439C3.64683 7.74809 3.14493 7.20819 2.72833 6.78379C1.94253 5.98309 1.95203 5.13969 2.32163 4.47169C2.75133 3.69519 3.92543 3.07079 5.27953 3.31609C6.01633 3.44969 6.63963 3.59839 7.19393 3.76409ZM9.29053 18.2377C9.10223 18.2842 8.90873 18.3406 8.71473 18.4091C7.97323 18.671 7.20883 19.1109 6.76503 19.9103C8.56053 20.1434 10.3096 19.8606 11.3103 18.3764C11.1561 18.3871 10.998 18.3931 10.8358 18.3943C10.3024 18.3982 9.78523 18.3446 9.29053 18.2377ZM14.7062 18.1938C14.0767 18.3108 13.4379 18.3544 12.8196 18.3221C12.826 18.3313 12.8323 18.3406 12.8383 18.3499C13.9522 19.7564 15.6506 20.0174 17.181 19.8308C16.7802 19.0676 16.0743 18.6463 15.3874 18.3947C15.1568 18.3103 14.9268 18.2447 14.7062 18.1938ZM4.15703 5.38419C4.19333 5.36119 4.23533 5.33759 4.27103 5.32459C4.45703 5.25689 4.68423 5.24079 4.92283 5.28409C7.09523 5.67779 8.15413 6.22859 9.54933 6.97459C10.6875 7.58309 12.0299 9.00559 13.0397 10.671C14.0397 12.3196 14.2834 14.0846 13.4935 15.2457C13.0008 15.97 12.0994 16.385 10.8211 16.3943C9.36673 16.405 8.07613 15.8197 7.23883 14.7746C6.37453 13.6956 6.00553 12.1482 6.35223 10.3125C6.51293 9.46219 6.35143 8.63379 6.00003 7.86809C5.55313 6.89419 4.78773 6.02679 4.15703 5.38419ZM15.3909 15.9648C16.2424 15.6459 16.9994 15.1249 17.4912 14.4009C17.9405 13.7395 17.9948 13.0317 17.9686 12.2275C17.9347 11.19 17.7583 10.0189 17.7617 8.63159C17.7649 7.06869 18.7763 6.15879 19.5339 5.41419C19.4241 5.39879 19.285 5.38869 19.1633 5.40829C17.9402 5.60619 15.9927 6.47669 14.6389 7.50439C14.3603 7.71599 14.0703 7.95509 13.7771 8.21539C14.1212 8.66199 14.449 9.13779 14.7499 9.63389C16.1057 11.8692 16.2851 14.2681 15.3909 15.9648ZM14.3212 5.29899C14.3664 4.77059 14.4798 4.22069 14.6827 3.63099C14.0756 3.52099 12.8805 3.33029 11.9752 3.34329C11.0999 3.35579 9.96953 3.56129 9.35623 3.68739C9.49253 4.04629 9.58613 4.40469 9.64413 4.76549C9.92093 4.90629 10.2001 5.05469 10.4924 5.21089C11.1101 5.54109 11.7862 6.06169 12.4538 6.71709C12.7857 6.42199 13.114 6.15109 13.4294 5.91159C13.708 5.70009 14.008 5.49489 14.3212 5.29899Z" fill="black"/>
</svg>
