<svg width="16" height="16" viewBox="0 0 16 16" fill="none" xmlns="http://www.w3.org/2000/svg">
<path fill-rule="evenodd" clip-rule="evenodd" d="M5.98034 7.23661H3.49434C2.75234 7.23661 2.03934 7.53161 1.51434 8.05661C0.989336 8.58161 0.694336 9.29461 0.694336 10.0366C0.694336 10.8266 0.694336 11.7326 0.694336 12.5226C0.694336 13.2656 0.989336 13.9776 1.51434 14.5026C2.03934 15.0276 2.75234 15.3226 3.49434 15.3226C4.28434 15.3226 5.19034 15.3226 5.98034 15.3226C6.72334 15.3226 7.43534 15.0276 7.96034 14.5026C8.48534 13.9776 8.78034 13.2656 8.78034 12.5226C8.78034 11.7326 8.78034 10.8266 8.78034 10.0366C8.78034 9.29461 8.48534 8.58161 7.96034 8.05661C7.43534 7.53161 6.72334 7.23661 5.98034 7.23661ZM3.49434 8.83661H5.98034C6.29834 8.83661 6.60334 8.96361 6.82834 9.18861C7.05334 9.41361 7.18034 9.71861 7.18034 10.0366V12.5226C7.18034 12.8406 7.05334 13.1456 6.82834 13.3716C6.60334 13.5966 6.29834 13.7226 5.98034 13.7226H3.49434C3.17634 13.7226 2.87134 13.5966 2.64634 13.3716C2.42134 13.1456 2.29434 12.8406 2.29434 12.5226V10.0366C2.29434 9.71861 2.42134 9.41361 2.64634 9.18861C2.87134 8.96361 3.17634 8.83661 3.49434 8.83661ZM11.7213 8.70761L10.5163 7.50261C10.2043 7.18961 9.69734 7.18961 9.38534 7.50261C9.07334 7.81461 9.07334 8.32161 9.38534 8.63361L11.9253 11.1736C12.2383 11.4866 12.7443 11.4866 13.0573 11.1736L15.5973 8.63361C15.9093 8.32161 15.9093 7.81461 15.5973 7.50261C15.2853 7.18961 14.7783 7.18961 14.4663 7.50261L13.3213 8.64661L13.3203 7.93761C13.2373 4.28761 10.2483 1.34961 6.57834 1.34961C6.13634 1.34961 5.77834 1.70861 5.77834 2.14961C5.77834 2.59161 6.13634 2.94961 6.57834 2.94961C9.37734 2.94961 11.6573 5.18961 11.7213 7.97361V8.70761Z" fill="black"/>
</svg>
