<svg width="24" height="24" viewBox="0 0 24 24" fill="none" xmlns="http://www.w3.org/2000/svg">
<path fill-rule="evenodd" clip-rule="evenodd" d="M15 13.4995C15 11.5665 13.433 9.9995 11.5 9.9995C9.973 9.9995 8.027 9.9995 6.5 9.9995C4.567 9.9995 3 11.5665 3 13.4995C3 15.0265 3 16.9725 3 18.4995C3 20.4325 4.567 21.9995 6.5 21.9995C8.027 21.9995 9.973 21.9995 11.5 21.9995C13.433 21.9995 15 20.4325 15 18.4995V13.4995ZM13 13.4995V18.4995C13 19.3275 12.328 19.9995 11.5 19.9995H6.5C5.672 19.9995 5 19.3275 5 18.4995V13.4995C5 12.6715 5.672 11.9995 6.5 11.9995H11.5C12.328 11.9995 13 12.6715 13 13.4995ZM10.901 4.9755H11.798C15.721 5.0655 18.879 8.2795 18.879 12.2245C18.879 12.7755 19.327 13.2245 19.879 13.2245C20.431 13.2245 20.879 12.7755 20.879 12.2245C20.879 7.1905 16.85 3.0915 11.844 2.9765L10.985 2.9755L12.254 1.7065C12.644 1.3165 12.644 0.6825 12.254 0.2925C11.864 -0.0975 11.23 -0.0975 10.84 0.2925L7.822 3.3105C7.432 3.7005 7.432 4.3335 7.822 4.7245L10.84 7.7425C11.23 8.1325 11.864 8.1325 12.254 7.7425C12.644 7.3515 12.644 6.7185 12.254 6.3275L10.901 4.9755Z" fill="black"/>
</svg>
