<svg width="16" height="16" viewBox="0 0 16 16" fill="none" xmlns="http://www.w3.org/2000/svg">
<path fill-rule="evenodd" clip-rule="evenodd" d="M9.8672 10.9335C9.8672 10.1915 9.5722 9.47855 9.0472 8.95355C8.5222 8.42855 7.8092 8.13355 7.0672 8.13355C6.4032 8.13355 5.6642 8.13355 5.0002 8.13355C4.2572 8.13355 3.5452 8.42855 3.0202 8.95355C2.4952 9.47855 2.2002 10.1915 2.2002 10.9335C2.2002 11.5975 2.2002 12.3365 2.2002 13.0005C2.2002 13.7435 2.4952 14.4555 3.0202 14.9805C3.5452 15.5055 4.2572 15.8005 5.0002 15.8005C5.6642 15.8005 6.4032 15.8005 7.0672 15.8005C7.8092 15.8005 8.5222 15.5055 9.0472 14.9805C9.5722 14.4555 9.8672 13.7435 9.8672 13.0005V10.9335ZM8.2672 10.9335V13.0005C8.2672 13.3185 8.14019 13.6235 7.91519 13.8495C7.6902 14.0745 7.3852 14.2005 7.0672 14.2005H5.0002C4.6822 14.2005 4.3772 14.0745 4.1512 13.8495C3.9262 13.6235 3.8002 13.3185 3.8002 13.0005V10.9335C3.8002 10.6155 3.9262 10.3105 4.1512 10.0855C4.3772 9.86055 4.6822 9.73355 5.0002 9.73355H7.0672C7.3852 9.73355 7.6902 9.86055 7.91519 10.0855C8.14019 10.3105 8.2672 10.6155 8.2672 10.9335ZM7.7122 4.80655L8.6002 4.80755C11.1442 4.86555 13.1912 6.94855 13.1912 9.50555C13.1912 9.94755 13.5492 10.3055 13.9912 10.3055C14.4322 10.3055 14.7912 9.94755 14.7912 9.50555C14.7912 6.07755 12.0472 3.28555 8.6372 3.20755L7.7692 3.20655L8.9242 2.05155C9.2362 1.73855 9.2362 1.23155 8.9242 0.919547C8.6122 0.607547 8.1052 0.607547 7.7932 0.919547L5.2442 3.46855C4.9312 3.78155 4.9312 4.28755 5.2442 4.60055L7.7932 7.14955C8.1052 7.46155 8.6122 7.46155 8.9242 7.14955C9.2362 6.83755 9.2362 6.33055 8.9242 6.01855L7.7122 4.80655Z" fill="black"/>
</svg>
