<svg width="24" height="24" viewBox="0 0 24 24" fill="none" xmlns="http://www.w3.org/2000/svg">
<path d="M3.23023 7.19984L4.73023 8.69984C4.26023 9.69984 4.01023 10.8198 4.01023 11.9998C4.01023 16.4198 7.59023 19.9998 12.0102 19.9998C13.1802 19.9998 14.3002 19.7398 15.3102 19.2798L16.8002 20.7698C15.3802 21.5598 13.7402 21.9998 12.0102 21.9998C6.49023 21.9998 2.01023 17.5198 2.01023 11.9998C2.01023 10.2598 2.45023 8.62984 3.23023 7.19984Z" fill="black"/>
<path fill-rule="evenodd" clip-rule="evenodd" d="M19.9802 18.0198L21.7502 19.7798C22.1702 20.2098 22.1702 20.9098 21.7502 21.3398C21.3202 21.7698 20.6202 21.7698 20.1902 21.3398L2.25023 3.39984C1.82023 2.96984 1.82023 2.27984 2.25023 1.84984C2.68023 1.41984 3.38023 1.41984 3.81023 1.84984L5.98023 4.01984C7.66023 2.74984 9.74023 1.99984 12.0102 1.99984C17.5202 1.99984 22.0002 6.47984 22.0002 11.9998C22.0002 14.2598 21.2502 16.3498 19.9802 18.0198ZM18.5502 16.5898C19.4702 15.2898 20.0002 13.7098 20.0002 11.9998C20.0002 7.57984 16.4202 3.99984 12.0102 3.99984C10.3002 3.99984 8.72023 4.53984 7.42023 5.45984L9.62023 7.65984V7.60984C9.62023 7.36984 9.71023 7.13984 9.88023 6.96984C10.0502 6.79984 10.2802 6.70984 10.5202 6.70984C10.5202 6.70984 12.0902 6.70984 12.9602 6.70984C14.6202 6.70984 16.6602 7.57984 16.6602 9.81984C16.6602 11.3698 15.7402 12.2498 14.6002 12.6298L18.5502 16.5898ZM11.4202 9.45984L13.0702 11.0998C13.8902 11.0898 14.8602 10.8498 14.8602 9.81984C14.8602 8.74984 13.7502 8.50984 12.9602 8.50984C12.5302 8.50984 11.9202 8.50984 11.4202 8.50984V9.45984Z" fill="black"/>
<path d="M9.62023 13.5898V13.8798H8.75023C8.25023 13.8798 7.85023 14.2798 7.85023 14.7798C7.85023 15.2798 8.25023 15.6798 8.75023 15.6798H9.62023V17.2498C9.62023 17.7498 10.0202 18.1498 10.5202 18.1498C11.0102 18.1498 11.4202 17.7498 11.4202 17.2498V15.6798H11.7102L9.62023 13.5898Z" fill="black"/>
</svg>
