<svg width="16" height="16" viewBox="0 0 16 16" fill="none" xmlns="http://www.w3.org/2000/svg">
<path fill-rule="evenodd" clip-rule="evenodd" d="M5.08495 10.0916H4.06695C3.56995 10.0916 3.16695 10.5016 3.16595 10.9916C3.16595 11.4916 3.56895 11.8916 4.06595 11.8916H5.08495V13.6916C5.08495 14.1816 5.48795 14.5916 5.98495 14.5916C6.48195 14.5916 6.88495 14.1816 6.88495 13.6916V11.8916H9.09995C9.59595 11.8916 9.99995 11.4916 9.99995 10.9916C9.99995 10.5016 9.59595 10.0916 9.09995 10.0916H6.88495V8.90156H8.69595C10.5969 8.90156 12.6949 7.87156 12.6949 5.45156C12.6949 3.03156 10.4849 2.10156 8.69595 2.10156C7.72795 2.10156 5.98495 2.10156 5.98495 2.10156C5.74695 2.10156 5.51795 2.20156 5.34895 2.37156C5.17995 2.53156 5.08495 2.76156 5.08495 3.00156V7.10156H4.04895C3.55195 7.10156 3.14895 7.50156 3.14795 8.00156C3.14795 8.50156 3.55095 8.90156 4.04795 8.90156H5.08495V10.0916ZM6.88495 7.10156H8.69595C9.68495 7.10156 10.8949 6.71156 10.8949 5.45156C10.8949 4.20156 9.61895 3.90156 8.69595 3.90156C8.18495 3.90156 7.45795 3.90156 6.88495 3.90156V7.10156Z" fill="black"/>
</svg>
