<svg width="16" height="16" viewBox="0 0 16 16" fill="none" xmlns="http://www.w3.org/2000/svg">
<path fill-rule="evenodd" clip-rule="evenodd" d="M7.99462 1.32812C4.31685 1.32812 1.33008 4.31368 1.33008 7.99312C1.33008 11.6726 4.31685 14.6581 7.99462 14.6581C11.6733 14.6581 14.6601 11.6726 14.6601 7.99312C14.6601 4.31368 11.6733 1.32812 7.99462 1.32812ZM7.99461 2.78895C10.8673 2.78895 13.1995 5.11713 13.1995 7.99312C13.1995 10.8691 10.8673 13.1973 7.99461 13.1973C5.12286 13.1973 2.79059 10.8691 2.79059 7.99312C2.79059 5.11713 5.12286 2.78895 7.99461 2.78895ZM6.22921 9.51786H5.51812C5.14021 9.51786 4.8335 9.82828 4.8335 10.2026C4.83259 10.5861 5.13929 10.8874 5.5172 10.8874H6.22921V11.8917C6.22921 12.266 6.53592 12.5765 6.91383 12.5765C7.29174 12.5765 7.59845 12.266 7.59845 11.8917V10.8874L8.90288 10.8965C9.28079 10.8965 9.5875 10.5861 9.5875 10.2117C9.5875 9.82828 9.28079 9.52699 8.90288 9.52699L7.59845 9.51786V8.65962H8.66828C9.95628 8.65962 11.3584 8.0479 11.3584 6.40448C11.3584 4.77019 9.87504 4.13108 8.66828 4.13108C8.04117 4.13108 6.91383 4.13108 6.91383 4.13108C6.73218 4.13108 6.55783 4.20412 6.43003 4.33194C6.30132 4.45976 6.22921 4.63323 6.22921 4.81584V7.2901H5.53272C5.15481 7.2901 4.8481 7.5914 4.8481 7.97486C4.84719 8.3492 5.1539 8.65962 5.53181 8.65962H6.22921V9.51786ZM7.59845 7.2901H8.66828C9.25158 7.2901 9.98914 7.14402 9.98914 6.40448C9.98914 5.66494 9.21598 5.5006 8.66828 5.5006C8.36705 5.5006 7.94989 5.5006 7.59845 5.5006V7.2901Z" fill="black"/>
</svg>
