<svg width="24" height="24" viewBox="0 0 24 24" fill="none" xmlns="http://www.w3.org/2000/svg">
<path fill-rule="evenodd" clip-rule="evenodd" d="M12.005 2C6.48224 2 2 6.48 2 12C2 17.52 6.48224 22 12.005 22C17.5178 22 22 17.52 22 12C22 6.48 17.5178 2 12.005 2ZM12.005 4C16.4172 4 19.999 7.58 19.999 12C19.999 16.42 16.4172 20 12.005 20C7.58279 20 4.001 16.42 4.001 12C4.001 7.58 7.58279 4 12.005 4ZM9.6138 13.88H8.74337C8.24312 13.88 7.84292 14.28 7.84292 14.78C7.84292 15.28 8.24312 15.68 8.74337 15.68H9.6138V17.25C9.6138 17.75 10.014 18.15 10.5143 18.15C11.0045 18.15 11.4147 17.75 11.4147 17.25V15.68H13.2856C13.7859 15.68 14.1861 15.28 14.1861 14.78C14.1861 14.29 13.7859 13.88 13.2856 13.88H11.4147V12.91H12.9555C14.7264 12.91 16.6573 12.07 16.6573 9.81999C16.6573 7.57999 14.6163 6.70999 12.9555 6.70999C12.085 6.70999 10.5143 6.70999 10.5143 6.70999C10.2741 6.70999 10.044 6.79999 9.87393 6.96999C9.70385 7.13999 9.6138 7.36999 9.6138 7.60999V11.11H8.76338C8.26313 11.11 7.86293 11.51 7.86293 12.01C7.86293 12.5 8.26313 12.91 8.76338 12.91H9.6138V13.88ZM11.4147 11.11H12.9555C13.7959 11.11 14.8564 10.89 14.8564 9.82001C14.8564 8.75001 13.7459 8.51001 12.9555 8.51001C12.5253 8.51001 11.915 8.51001 11.4147 8.51001V11.11Z" fill="black"/>
</svg>
