<svg width="24" height="24" viewBox="0 0 24 24" fill="none" xmlns="http://www.w3.org/2000/svg">
<path fill-rule="evenodd" clip-rule="evenodd" d="M2 15V17C2 18.3261 2.5268 19.5978 3.4645 20.5355C4.4021 21.4732 5.6739 22 7 22C8.079 22 8.9539 22 8.9539 22C9.5058 22 9.9539 21.5519 9.9539 21C9.9539 20.4481 9.5058 20 8.9539 20C8.9539 20 8.079 20 7 20C6.2043 20 5.4413 19.6839 4.8787 19.1213C4.3161 18.5587 4 17.7956 4 17V15C4 14.4481 3.5519 14 3 14C2.4481 14 2 14.4481 2 15ZM14.9539 22H17C19.7614 22 22 19.7614 22 17C22 15.8856 22 14.9736 22 14.9736C22 14.4217 21.5519 13.9736 21 13.9736C20.4481 13.9736 20 14.4217 20 14.9736V17C20 18.6569 18.6568 20 17 20C15.876 20 14.9539 20 14.9539 20C14.4019 20 13.9539 20.4481 13.9539 21C13.9539 21.5519 14.4019 22 14.9539 22ZM8 13H16C16.5519 13 17 12.5519 17 12C17 11.4481 16.5519 11 16 11H8C7.4481 11 7 11.4481 7 12C7 12.5519 7.4481 13 8 13ZM9.0264 2H7C5.6739 2 4.4021 2.5268 3.4645 3.4645C2.5268 4.4022 2 5.6739 2 7C2 8.1016 2 9 2 9C2 9.5519 2.4481 10 3 10C3.5519 10 4 9.5519 4 9V7C4 6.2044 4.3161 5.4413 4.8787 4.8787C5.4413 4.3161 6.2043 4 6.9999 4H9.0264C9.5783 4 10.0264 3.5519 10.0264 3C10.0264 2.4481 9.5783 2 9.0264 2ZM22 8.9736V7C22 4.2386 19.7614 2 17 2C15.9113 2 15.0264 2 15.0264 2C14.4745 2 14.0264 2.4481 14.0264 3C14.0264 3.5519 14.4745 4 15.0264 4H17C18.6569 4 20 5.3431 20 7V8.9736C20 9.5255 20.4481 9.9736 21 9.9736C21.5519 9.9736 22 9.5255 22 8.9736Z" fill="black"/>
</svg>
