<svg width="16" height="16" viewBox="0 0 16 16" fill="none" xmlns="http://www.w3.org/2000/svg">
<path fill-rule="evenodd" clip-rule="evenodd" d="M5.6992 2.20055C5.3282 2.55055 5.00719 2.92055 4.7282 3.29055C4.7242 3.30055 4.7202 3.30055 4.7172 3.31055C4.6032 3.47055 4.5042 3.63055 4.4212 3.80055H3.5002C3.0492 3.80055 2.6172 3.98055 2.2982 4.30055C1.9792 4.62055 1.8002 5.05055 1.8002 5.50055V8.50055C1.8002 8.95055 1.9792 9.38055 2.2982 9.70055C2.6172 10.0205 3.0492 10.2005 3.5002 10.2005H10.5002C10.9202 10.2005 11.3232 10.0405 11.6332 9.76055C12.2282 9.70055 12.8042 9.46055 13.2882 9.07055L13.7922 8.66055C13.7562 9.48055 13.4142 10.2505 12.8332 10.8305C12.2152 11.4505 11.3752 11.8005 10.5002 11.8005H7.8002V13.2005H9.65919C10.1002 13.2005 10.4592 13.5605 10.4592 14.0005C10.4592 14.4405 10.1002 14.8005 9.65919 14.8005H4.3252C3.8842 14.8005 3.5252 14.4405 3.5252 14.0005C3.5252 13.5605 3.8842 13.2005 4.3252 13.2005H6.2002V11.8005H3.5002C2.6252 11.8005 1.7852 11.4505 1.1672 10.8305C0.548195 10.2105 0.200195 9.38055 0.200195 8.50055V5.50055C0.200195 4.62055 0.548195 3.79055 1.1672 3.17055C1.7852 2.55055 2.6252 2.20055 3.5002 2.20055H5.6992ZM9.7392 2.08336C8.0022 2.48336 6.8512 3.41336 6.0972 4.43336L6.0942 4.44336C5.6052 5.11336 5.6492 6.03336 6.1982 6.66336C6.7452 7.28336 7.6492 7.45336 8.3792 7.06336C8.7712 6.85336 9.2202 6.68336 9.7392 6.56336V6.69336C9.7392 7.28336 10.0762 7.82336 10.6052 8.07336C11.1352 8.32336 11.7632 8.25336 12.2192 7.88336L15.3862 5.31336C15.7432 5.03336 15.9502 4.59336 15.9512 4.13336C15.9512 3.67336 15.7452 3.24336 15.3892 2.95336L12.2212 0.38336C11.7652 0.0133604 11.1372 -0.0666396 10.6072 0.18336C10.0772 0.44336 9.7392 0.97336 9.7392 1.56336V2.08336ZM11.3392 1.72336L14.3052 4.13336L11.3392 6.53336V5.61336C11.3392 5.38336 11.2422 5.16336 11.0722 5.01336C10.9022 4.86336 10.6752 4.79336 10.4492 4.81336C9.30519 4.94336 8.39019 5.25336 7.63919 5.64336C7.63519 5.64336 7.6312 5.64336 7.6272 5.65336C7.5512 5.69336 7.4572 5.67336 7.4002 5.60336C7.3452 5.54336 7.3392 5.45336 7.3872 5.38336C8.02719 4.51336 9.05419 3.76336 10.6492 3.53336C11.0452 3.48336 11.3392 3.14336 11.3392 2.74336V1.72336Z" fill="black"/>
</svg>
