<svg width="24" height="24" viewBox="0 0 24 24" fill="none" xmlns="http://www.w3.org/2000/svg">
<path fill-rule="evenodd" clip-rule="evenodd" d="M10.1807 3.00065C9.3331 3.59295 8.6273 4.27495 8.0424 5.00065H4.9999C3.8954 5.00065 3 5.89615 3 7.00065V14.0006C3 15.1051 3.8954 16.0006 5 16.0006H17.0001C18.1046 16.0006 19 15.1051 19 14.0006V13.434L19.3244 13.2078L21 11.8518V14.0006C21 16.2097 19.2092 18.0006 17 18.0006H12V20.0006H15C15.5519 20.0006 16 20.4487 16 21.0006C16 21.5525 15.5519 22.0006 15 22.0006H7C6.4481 22.0006 6 21.5525 6 21.0006C6 20.4487 6.4481 20.0006 7 20.0006H10V18.0006H5C2.7908 18.0006 1 16.2097 1 14.0006V7.00065C1 4.79155 2.7908 3.00065 5 3.00065H10.1807ZM14.8084 3.15805C11.0525 3.97165 9.1176 6.42025 8.1803 8.64135L8.1798 8.64245C7.8318 9.46985 8.0777 10.4276 8.7811 10.9851C9.4845 11.5426 10.4732 11.5631 11.1991 11.0354C12.1102 10.3848 13.2667 9.79185 14.8083 9.46565L14.8082 10.0983C14.8082 10.8691 15.2512 11.5713 15.9468 11.9033C16.6425 12.2353 17.4671 12.1379 18.0663 11.653C19.5802 10.4279 21.784 8.64475 23.0334 7.63365C23.5021 7.25445 23.7747 6.68385 23.7754 6.08095C23.776 5.47795 23.5045 4.90695 23.0366 4.52675C21.7878 3.51205 19.584 1.72135 18.0694 0.490749C17.4706 0.00424901 16.6453 -0.094451 15.9487 0.237049C15.252 0.568649 14.8082 1.27145 14.8082 2.04295L14.8084 3.15805ZM16.8082 2.04295L21.7754 6.07895L16.8082 10.0983V8.29335C16.8082 8.00865 16.6868 7.73745 16.4745 7.54775C16.2622 7.35795 15.9791 7.26775 15.6961 7.29965C13.1586 7.58575 11.3808 8.44805 10.03 9.41275L10.0234 9.41785C10.8174 7.53645 12.5315 5.46265 15.9464 4.98625C16.4405 4.91725 16.8082 4.49465 16.8082 3.99585V2.04295Z" fill="black"/>
</svg>
