<svg width="16" height="16" viewBox="0 0 16 16" fill="none" xmlns="http://www.w3.org/2000/svg">
<path fill-rule="evenodd" clip-rule="evenodd" d="M7.2912 2.19813C7.4162 2.61812 7.6472 3.01813 7.9812 3.35812L8.1132 3.48813L7.9812 3.61812L7.8202 3.79813H3.5002C3.0492 3.79813 2.6172 3.97813 2.2982 4.29813C1.9792 4.61812 1.8002 5.04813 1.8002 5.49813V8.49813C1.8002 8.94812 1.9792 9.37813 2.2982 9.69812C2.6172 10.0181 3.0492 10.1981 3.5002 10.1981H10.5002C10.9512 10.1981 11.3832 10.0181 11.7022 9.69812C12.0212 9.37813 12.2002 8.94812 12.2002 8.49813V7.56812C12.6542 7.99812 13.2192 8.23812 13.8002 8.29812V8.49813C13.8002 9.37813 13.4522 10.2081 12.8332 10.8281C12.2152 11.4481 11.3752 11.7981 10.5002 11.7981H7.8002V13.1981H9.65919C10.1002 13.1981 10.4592 13.5581 10.4592 13.9981C10.4592 14.4381 10.1002 14.7981 9.65919 14.7981H4.3252C3.8842 14.7981 3.5252 14.4381 3.5252 13.9981C3.5252 13.5581 3.8842 13.1981 4.3252 13.1981H6.2002V11.7981H3.5002C2.6252 11.7981 1.7852 11.4481 1.1672 10.8281C0.548195 10.2081 0.200195 9.37813 0.200195 8.49813V5.49813C0.200195 4.61812 0.548195 3.78813 1.1672 3.16813C1.7852 2.54813 2.6252 2.19813 3.5002 2.19813H7.2912ZM12.0022 2.21812L10.5622 0.778125C10.2112 0.428125 9.6402 0.428125 9.2892 0.778125C8.9382 1.12812 8.9382 1.69813 9.2892 2.04813L10.7302 3.48813L9.2892 4.92812C8.9382 5.27812 8.9382 5.84812 9.2892 6.19812C9.6402 6.54812 10.2112 6.54812 10.5622 6.19812L12.0022 4.75812L13.4432 6.19812C13.7942 6.54812 14.3642 6.54812 14.7162 6.19812C15.0672 5.84812 15.0672 5.27812 14.7162 4.92812L13.2752 3.48813L14.7162 2.04813C15.0672 1.69813 15.0672 1.12812 14.7162 0.778125C14.3642 0.428125 13.7942 0.428125 13.4432 0.778125L12.0022 2.21812Z" fill="black"/>
</svg>
