<svg width="24" height="24" viewBox="0 0 24 24" fill="none" xmlns="http://www.w3.org/2000/svg">
<path fill-rule="evenodd" clip-rule="evenodd" d="M12.147 2.99953C12.293 3.36953 12.514 3.70953 12.81 4.00953L13.804 4.99953H5C3.895 4.99953 3 5.89953 3 6.99953V13.9995C3 15.0995 3.895 15.9995 5 15.9995H17C18.105 15.9995 19 15.0995 19 13.9995V10.1995L19.041 10.2395C19.585 10.7795 20.287 11.0695 21 11.1095V13.9995C21 16.2095 19.209 17.9995 17 17.9995H12V19.9995H15.047C15.599 19.9995 16.047 20.4495 16.047 20.9995C16.047 21.5495 15.599 21.9995 15.047 21.9995H7.047C6.495 21.9995 6.047 21.5495 6.047 20.9995C6.047 20.4495 6.495 19.9995 7.047 19.9995H10V17.9995H5C2.791 17.9995 1 16.2095 1 13.9995C1 11.8995 1 9.09953 1 6.99953C1 4.78953 2.791 2.99953 5 2.99953H12.147ZM18.047 3.51953L15.674 1.13953C15.264 0.729531 14.599 0.729531 14.189 1.13953C13.779 1.54953 13.779 2.21953 14.189 2.62953L16.562 4.99953L14.189 7.36953C13.779 7.77953 13.779 8.44953 14.189 8.85953C14.599 9.26953 15.264 9.26953 15.674 8.85953L18.047 6.47953L20.42 8.85953C20.829 9.26953 21.495 9.26953 21.905 8.85953C22.314 8.44953 22.314 7.77953 21.905 7.36953L19.532 4.99953L21.905 2.62953C22.314 2.21953 22.314 1.54953 21.905 1.13953C21.495 0.729531 20.829 0.729531 20.42 1.13953L18.047 3.51953Z" fill="black"/>
</svg>
