<svg width="24" height="24" viewBox="0 0 24 24" fill="none" xmlns="http://www.w3.org/2000/svg">
<path fill-rule="evenodd" clip-rule="evenodd" d="M19.8001 19.1502L21.8201 21.1602C22.2101 21.5502 22.8401 21.5502 23.2301 21.1602C23.6201 20.7702 23.6201 20.1402 23.2301 19.7502L21.2001 17.7202C21.7001 16.9402 22.0001 16.0102 22.0001 15.0102C22.0001 12.2502 19.7601 10.0102 17.0001 10.0102C14.2401 10.0102 12.0001 12.2502 12.0001 15.0102C12.0001 17.7702 14.2401 20.0102 17.0001 20.0102C18.0401 20.0102 19.0001 19.7002 19.8001 19.1502ZM11.7001 19.5902C10.9901 19.7702 10.2501 19.8602 9.49014 19.8602C4.33014 19.8602 0.140137 15.6702 0.140137 10.5102C0.140137 5.35016 4.33014 1.16016 9.49014 1.16016C13.8501 1.16016 17.5201 4.15016 18.5501 8.19016C18.0401 8.07016 17.5201 8.00016 16.9801 8.00016C16.1501 8.00016 15.3501 8.15016 14.6101 8.42016H13.7901L13.8301 8.76016C13.3101 9.02016 12.8301 9.35016 12.3901 9.73016C12.3701 9.29016 12.3301 8.85016 12.2801 8.42016H6.73014C6.55014 9.80016 6.55014 11.2002 6.74014 12.5902H10.4101C10.2301 13.0702 10.1101 13.5702 10.0401 14.0902H7.03014C7.37014 15.4602 7.90014 16.8202 8.64014 18.1102C8.92014 18.1402 9.20014 18.1602 9.49014 18.1602C9.79014 18.1602 10.0801 18.1402 10.3701 18.1102L10.5501 17.7802C10.8401 18.4402 11.2301 19.0602 11.7001 19.5902ZM19.2601 16.9902C19.7201 16.4602 20.0001 15.7702 20.0001 15.0102C20.0001 13.3602 18.6501 12.0102 17.0001 12.0102C15.3401 12.0102 14.0001 13.3602 14.0001 15.0102C14.0001 16.6702 15.3401 18.0102 17.0001 18.0102C17.7801 18.0102 18.5001 17.7102 19.0301 17.2202C19.0701 17.1702 19.1001 17.1202 19.1501 17.0802C19.1801 17.0402 19.2201 17.0102 19.2601 16.9902ZM5.49014 14.0902H2.73014C3.59014 15.7002 4.99014 16.9602 6.70014 17.6302C6.16014 16.4802 5.76014 15.2902 5.49014 14.0902ZM2.13014 8.42016C1.94014 9.09016 1.84014 9.78016 1.84014 10.5102C1.84014 11.2302 1.94014 11.9302 2.13014 12.5902H5.23014C5.05014 11.2002 5.05014 9.80016 5.22014 8.42016H2.13014ZM12.3401 3.41016C12.8701 4.53016 13.2701 5.71016 13.5301 6.92016H16.2501C15.4101 5.34016 14.0201 4.08016 12.3401 3.41016ZM10.3901 2.91016C10.0901 2.87016 9.79014 2.86016 9.49014 2.86016C9.20014 2.86016 8.91014 2.87016 8.62014 2.91016C7.89014 4.17016 7.35014 5.52016 7.02014 6.92016H11.9901C11.6601 5.52016 11.1201 4.17016 10.3901 2.91016ZM6.68014 3.39016C4.98014 4.06016 3.58014 5.32016 2.73014 6.92016H5.48014C5.74014 5.71016 6.14014 4.52016 6.68014 3.39016Z" fill="black"/>
</svg>
