<svg width="24" height="24" viewBox="0 0 24 24" fill="none" xmlns="http://www.w3.org/2000/svg">
<path fill-rule="evenodd" clip-rule="evenodd" d="M9.49631 2.13454C9.98981 2.05044 10.4968 2.00664 11.0139 2.00664C15.9763 2.00664 20.0055 6.03774 20.0055 11.0032C20.0055 13.1274 19.2681 15.0806 18.0353 16.6208L21.681 20.2666C22.0712 20.6568 22.0712 21.2905 21.681 21.6808C21.2907 22.071 20.657 22.071 20.2668 21.6808L16.6207 18.0347C15.0825 19.2644 13.1333 19.9997 11.0139 19.9997C6.05141 19.9997 2.02231 15.9687 2.02231 11.0032C2.02231 10.5031 2.06311 10.0126 2.14161 9.53534C2.43691 10.3182 2.79671 10.9528 3.15361 11.4563C3.24781 11.6021 3.35271 11.7398 3.46721 11.8684C3.74261 12.2056 4.00401 12.4646 4.21841 12.6539C4.96031 15.7196 7.72301 17.9997 11.0139 17.9997C14.8728 17.9997 18.0055 14.8645 18.0055 11.0032C18.0055 7.65464 15.6496 4.85214 12.507 4.16684C12.4222 4.03604 12.2595 3.82404 11.97 3.56474C11.7886 3.38864 11.587 3.23224 11.3684 3.09964C10.919 2.79524 10.312 2.46184 9.49631 2.13454ZM5.13551 2.24144C5.22771 1.83654 5.58941 1.55034 6.00471 1.55374C6.42001 1.55714 6.77691 1.84924 6.86251 2.25564C6.94231 2.63464 7.01851 2.99694 7.08621 3.31824C7.24951 4.09414 7.85251 4.70214 8.62701 4.87204C8.97971 4.94934 9.38211 5.03764 9.80261 5.12984C10.2077 5.21864 10.4966 5.57714 10.4972 5.99194C10.4979 6.40664 10.2101 6.76604 9.80531 6.85614C9.38831 6.94894 8.98941 7.03774 8.63981 7.11554C7.87101 7.28664 7.27231 7.88984 7.10691 8.65984C7.03291 9.00424 6.94871 9.39624 6.86071 9.80574C6.77381 10.2103 6.41781 10.5004 6.00401 10.504C5.59021 10.5075 5.22941 10.2235 5.13551 9.82054C5.03901 9.40644 4.94691 9.01064 4.86641 8.66514C4.69241 7.91794 4.10941 7.33434 3.36241 7.15954C3.00341 7.07554 2.59011 6.97884 2.15821 6.87774C1.75591 6.78364 1.47251 6.42344 1.47561 6.01034C1.47871 5.59724 1.76751 5.24144 2.17111 5.15334C2.58971 5.06204 2.99061 4.97454 3.34151 4.89794C4.10521 4.73124 4.70371 4.13814 4.87731 3.37594C4.95481 3.03544 5.04311 2.64754 5.13551 2.24144Z" fill="black"/>
</svg>
