<svg width="16" height="16" viewBox="0 0 16 16" fill="none" xmlns="http://www.w3.org/2000/svg">
<path fill-rule="evenodd" clip-rule="evenodd" d="M10.5186 11.6501L13.0479 14.1794C13.3601 14.4916 13.867 14.4916 14.1792 14.1794C14.4914 13.8672 14.4914 13.3602 14.1792 13.048L11.6481 10.5169C12.3843 9.54176 12.821 8.32826 12.821 7.01346C12.821 3.80116 10.2143 1.19336 7.00401 1.19336C3.79371 1.19336 1.18701 3.80116 1.18701 7.01346C1.18701 10.2258 3.79371 12.8336 7.00401 12.8336C8.32411 12.8336 9.54211 12.3926 10.5186 11.6501ZM7.00401 2.79336C9.33151 2.79336 11.221 4.68446 11.221 7.01346C11.221 9.34246 9.33151 11.2336 7.00401 11.2336C4.67651 11.2336 2.78701 9.34246 2.78701 7.01346C2.78701 4.68446 4.67651 2.79336 7.00401 2.79336ZM6.20001 6.20026H4.85431C4.41281 6.20026 4.05431 6.55876 4.05431 7.00026C4.05431 7.44176 4.41281 7.80026 4.85431 7.80026H6.20001V9.14596C6.20001 9.58746 6.55851 9.94596 7.00001 9.94596C7.44151 9.94596 7.80001 9.58746 7.80001 9.14596V7.80026H9.14571C9.58721 7.80026 9.94571 7.44176 9.94571 7.00026C9.94571 6.55876 9.58721 6.20026 9.14571 6.20026H7.80001V4.85456C7.80001 4.41306 7.44151 4.05456 7.00001 4.05456C6.55851 4.05456 6.20001 4.41306 6.20001 4.85456V6.20026Z" fill="black"/>
</svg>
