<svg width="24" height="24" viewBox="0 0 24 24" fill="none" xmlns="http://www.w3.org/2000/svg">
<path fill-rule="evenodd" clip-rule="evenodd" d="M16.62 18.0358L20.27 21.6818C20.66 22.0718 21.29 22.0718 21.68 21.6818C22.07 21.2918 22.07 20.6578 21.68 20.2678L18.04 16.6218C19.27 15.0818 20.01 13.1288 20.01 11.0038C20.01 6.03881 15.98 2.00781 11.01 2.00781C6.05002 2.00781 2.02002 6.03881 2.02002 11.0038C2.02002 15.9698 6.05002 20.0008 11.01 20.0008C13.13 20.0008 15.08 19.2658 16.62 18.0358ZM11.01 4.00781C14.87 4.00781 18.01 7.14281 18.01 11.0038C18.01 14.8658 14.87 18.0008 11.01 18.0008C7.16002 18.0008 4.02002 14.8658 4.02002 11.0038C4.02002 7.14281 7.16002 4.00781 11.01 4.00781Z" fill="black"/>
</svg>
