<svg width="24" height="24" viewBox="0 0 24 24" fill="none" xmlns="http://www.w3.org/2000/svg">
<path fill-rule="evenodd" clip-rule="evenodd" d="M18.4348 19.9227L20.7452 22.233C21.1745 22.6623 21.8715 22.6623 22.3008 22.233C22.7301 21.8037 22.7301 21.1067 22.3008 20.6774L19.9775 18.3541C20.6213 17.3975 20.997 16.2459 20.997 15.0072C20.997 11.6918 18.3053 9 14.9898 9C11.6743 9 8.98257 11.6918 8.98257 15.0072C8.98257 18.3227 11.6743 21.0145 14.9898 21.0145C16.2716 21.0145 17.4601 20.6122 18.4348 19.9227ZM14.9898 11C17.2015 11 18.997 12.7956 18.997 15.0072C18.997 17.2189 17.2015 19.0145 14.9898 19.0145C12.7781 19.0145 10.9826 17.2189 10.9826 15.0072C10.9826 12.7956 12.7781 11 14.9898 11ZM7.81348 18.5591C7.39088 18.8364 6.88567 18.9963 6.34328 18.9963H3.74688C2.25568 18.9963 1.04688 17.7875 1.04688 16.2964V13.7C1.04688 12.2088 2.25568 11 3.74688 11H6.34328C6.88707 11 7.39338 11.1608 7.81668 11.4391C7.42188 12.2279 7.15457 13.0916 7.04327 14.0039V13.7C7.04317 13.3134 6.72988 13 6.34328 13H3.74688C3.36028 13 3.04688 13.3134 3.04688 13.7V16.2964C3.04688 16.683 3.36028 16.9963 3.74688 16.9963H6.34328C6.72988 16.9963 7.04317 16.683 7.04327 16.2963V16.0005C7.15597 16.9098 7.42158 17.7719 7.81348 18.5591ZM8.99998 7.3V4.7C8.99998 3.2088 7.79117 2 6.29997 2C5.49957 2 4.54728 2 3.74688 2C2.25568 2 1.04688 3.2088 1.04688 4.7V7.3C1.04688 8.7912 2.25568 10 3.74688 10C4.54728 10 5.49957 10 6.29997 10C7.79117 10 8.99998 8.7912 8.99998 7.3ZM10.3231 8.5042C10.1394 8.1437 10.0371 7.7338 10.0371 7.3V4.7C10.0371 3.2088 11.2459 2 12.7371 2H15.3371C16.8283 2 18.0371 3.2088 18.0371 4.7V7.3C18.0371 7.403 18.0313 7.5047 18.0188 7.6044L17.352 7.36C17.0967 7.2942 16.8413 7.2285 16.5859 7.1627L16.0371 7.0788V4.7C16.0371 4.3134 15.7237 4 15.3371 4H12.7371C12.3505 4 12.0371 4.3134 12.0371 4.7V7.3C12.0371 7.3881 12.0534 7.4724 12.0846 7.5484C11.4547 7.7915 10.8634 8.1125 10.3231 8.5042ZM6.99998 4.7V7.3C6.99998 7.6866 6.68657 8 6.29997 8H3.74688C3.36028 8 3.04688 7.6866 3.04688 7.3V4.7C3.04688 4.3134 3.36028 4 3.74688 4H6.29997C6.68657 4 6.99998 4.3134 6.99998 4.7Z" fill="black"/>
</svg>
