<svg width="16" height="16" viewBox="0 0 16 16" fill="none" xmlns="http://www.w3.org/2000/svg">
<path fill-rule="evenodd" clip-rule="evenodd" d="M10.3111 11.4424L13.0481 14.1784C13.3601 14.4904 13.8671 14.4904 14.1791 14.1784C14.4911 13.8664 14.4911 13.3594 14.1791 13.0474L11.4431 10.3114C12.1881 9.33942 12.6281 8.12242 12.6281 6.80242C12.6281 3.59042 10.0211 0.982422 6.81114 0.982422C3.60114 0.982422 0.994141 3.59042 0.994141 6.80242C0.994141 10.0154 3.60114 12.6234 6.81114 12.6234C8.12614 12.6234 9.33914 12.1854 10.3111 11.4424ZM6.81114 2.58242C9.13814 2.58242 11.0281 4.47342 11.0281 6.80242C11.0281 9.13142 9.13814 11.0234 6.81114 11.0234C4.48314 11.0234 2.59414 9.13142 2.59414 6.80242C2.59414 4.47342 4.48314 2.58242 6.81114 2.58242Z" fill="black"/>
</svg>
