<svg width="16" height="16" viewBox="0 0 16 16" fill="none" xmlns="http://www.w3.org/2000/svg">
<path d="M2.86079 0.870452C2.86079 0.870452 10.7481 4.79435 14.7955 6.80795C15.238 7.02805 15.5181 7.47935 15.5191 7.97355C15.5201 8.46775 15.2417 8.92005 14.8001 9.14195C10.7541 11.175 2.86079 15.1412 2.86079 15.1412C2.39439 15.39 1.81459 15.2135 1.56589 14.7471C1.47109 14.5694 1.43479 14.3664 1.46209 14.1668L2.00939 10.1271C2.10039 9.46285 2.63889 8.95015 3.30659 8.89165C3.30659 8.89165 5.83489 8.50255 7.57029 8.23545C7.68819 8.21725 7.77509 8.11555 7.77459 7.99615C7.77399 7.87685 7.68619 7.77585 7.56799 7.75885C5.83269 7.50845 3.30659 7.14385 3.30659 7.14385C2.63889 7.08545 2.10039 6.57265 2.00939 5.90855L1.46209 1.84475C1.39039 1.32105 1.75679 0.838352 2.28049 0.766652C2.47999 0.739352 2.68299 0.775652 2.86079 0.870452Z" fill="black"/>
</svg>
