<svg width="24" height="24" viewBox="0 0 24 24" fill="none" xmlns="http://www.w3.org/2000/svg">
<path fill-rule="evenodd" clip-rule="evenodd" d="M10.8851 12.2842L14.8956 16.2946L4.91179 21.3112C4.30369 21.6355 3.54779 21.4055 3.22349 20.7973C3.09989 20.5656 3.05259 20.3009 3.08819 20.0407L3.80179 14.6083C3.92039 13.7424 4.62249 13.0738 5.49319 12.9976L10.8851 12.2842ZM18.8431 14.3111L22.7889 18.2569C23.2122 18.6802 23.2073 19.3723 22.778 19.8016C22.3487 20.2309 21.6565 20.2358 21.2332 19.8125L3.46059 2.03992C3.03729 1.61662 3.04219 0.924424 3.47149 0.495124C3.90079 0.0658243 4.59299 0.0609243 5.01629 0.484224L9.53689 5.00492L20.6545 10.5359C21.1971 10.8058 21.5406 11.3592 21.5418 11.9652C21.543 12.5713 21.2017 13.126 20.6601 13.3981L18.8431 14.3111ZM3.16579 4.56482L10.2156 11.6147L5.49319 11.0132C4.62249 10.937 3.92039 10.2684 3.80179 9.40252L3.16579 4.56482Z" fill="black"/>
</svg>
