<svg width="24" height="24" viewBox="0 0 24 24" fill="none" xmlns="http://www.w3.org/2000/svg">
<path d="M4.91197 2.7002C4.91197 2.7002 15.435 7.9402 20.654 10.5402C21.197 10.8102 21.54 11.3602 21.542 11.9702C21.543 12.5702 21.201 13.1302 20.66 13.4002C15.443 16.0202 4.91197 21.3102 4.91197 21.3102C4.30397 21.6402 3.54797 21.4102 3.22297 20.8002C3.09997 20.5702 3.05197 20.3002 3.08797 20.0402L3.80197 14.6102C3.91997 13.7402 4.62197 13.0702 5.49297 13.0002C5.49297 13.0002 9.33597 12.4902 11.571 12.1902C11.673 12.1802 11.749 12.0902 11.749 11.9902C11.749 11.8902 11.672 11.8002 11.57 11.7902C9.33397 11.5002 5.49297 11.0102 5.49297 11.0102C4.62197 10.9402 3.91997 10.2702 3.80197 9.4002L3.08797 3.9702C2.99397 3.2902 3.47197 2.6602 4.15497 2.5702C4.41497 2.5302 4.67997 2.5802 4.91197 2.7002Z" fill="black"/>
</svg>
