<svg width="24" height="24" viewBox="0 0 24 24" fill="none" xmlns="http://www.w3.org/2000/svg">
<path fill-rule="evenodd" clip-rule="evenodd" d="M3.35077 6.74937L5.68877 9.08937L5.74477 9.49938C5.80077 9.90938 6.12777 10.2194 6.53277 10.2494C6.54577 10.2494 6.55777 10.2594 6.57077 10.2594L6.89877 10.2994L9.87677 13.2794L6.58477 13.7394C6.56777 13.7394 6.54977 13.7394 6.53277 13.7394C6.12777 13.7794 5.80077 14.0894 5.74477 14.4894L5.03177 19.6794C5.02477 19.7294 5.03377 19.7794 5.05877 19.8294C5.12277 19.9494 5.27277 19.9994 5.39377 19.9294L12.7378 16.1394L14.2218 17.6194L6.32377 21.6994C5.23077 22.2794 3.87577 21.8594 3.29377 20.7694C3.07077 20.3494 2.98577 19.8794 3.04977 19.4094L3.76377 14.2194C3.90077 13.2194 4.54177 12.3994 5.41877 11.9994C4.54177 11.5994 3.90077 10.7694 3.76377 9.76937L3.35077 6.74937ZM1.67377 2.24937L1.72177 2.28937L19.8758 20.4494C20.3058 20.8394 20.9698 20.8194 21.3838 20.4094C21.8128 19.9794 21.8128 19.2794 21.3838 18.8494L18.1318 15.5994L21.3878 13.9194C22.1188 13.5394 22.5778 12.7894 22.5778 11.9594C22.5768 11.1394 22.1158 10.3794 21.3838 10.0094L6.32577 2.25937C5.91077 2.03937 5.43677 1.95938 4.97177 2.01937L4.63377 2.09938L3.14777 0.619375C2.71877 0.189375 2.02177 0.189375 1.59177 0.619375C1.16277 1.04937 1.16277 1.73937 1.59177 2.16937L1.67377 2.24937ZM7.79677 5.26937L20.4688 11.7894C20.5358 11.8194 20.5778 11.8894 20.5778 11.9594C20.5778 12.0394 20.5358 12.1094 20.4688 12.1394L16.6478 14.1194L7.79677 5.26937Z" fill="black"/>
</svg>
