<svg width="24" height="24" viewBox="0 0 24 24" fill="none" xmlns="http://www.w3.org/2000/svg">
<path fill-rule="evenodd" clip-rule="evenodd" d="M5.41877 11.9993C4.54177 12.3993 3.90077 13.2193 3.76377 14.2193L3.04977 19.4093C2.98577 19.8793 3.07077 20.3493 3.29377 20.7693C3.87577 21.8593 5.23077 22.2793 6.32377 21.6993L21.3878 13.9193C22.1188 13.5393 22.5778 12.7893 22.5778 11.9593C22.5768 11.1393 22.1158 10.3793 21.3838 10.0093L6.32577 2.25929C5.91077 2.03929 5.43677 1.95929 4.97177 2.01929C3.74177 2.18929 2.88177 3.31929 3.04977 4.54929L3.76377 9.76929C3.90077 10.7693 4.54177 11.5993 5.41877 11.9993ZM5.39377 4.02929L20.4688 11.7893C20.5358 11.8193 20.5778 11.8893 20.5778 11.9593C20.5778 12.0393 20.5358 12.1093 20.4688 12.1393L5.39377 19.9293C5.27277 19.9993 5.12277 19.9493 5.05877 19.8293C5.03377 19.7793 5.02477 19.7293 5.03177 19.6793L5.74477 14.4893C5.80077 14.0893 6.12777 13.7793 6.53277 13.7393C6.54977 13.7393 6.56777 13.7393 6.58477 13.7393L12.2198 12.9493C12.7158 12.8793 13.0848 12.4493 13.0808 11.9493C13.0778 11.4493 12.7038 11.0293 12.2058 10.9693L6.57077 10.2593C6.55777 10.2593 6.54577 10.2493 6.53277 10.2493C6.12777 10.2193 5.80077 9.90929 5.74477 9.49929L5.03177 4.27929C5.01277 4.14929 5.10777 4.01929 5.24377 3.99929C5.29577 3.99929 5.34777 3.99929 5.39377 4.02929Z" fill="black"/>
</svg>
