<svg width="16" height="16" viewBox="0 0 16 16" fill="none" xmlns="http://www.w3.org/2000/svg">
<path fill-rule="evenodd" clip-rule="evenodd" d="M11.1292 13.3992C11.9632 14.7332 13.7872 15.2742 15.2442 14.2802C15.6322 14.0152 15.7322 13.4862 15.4672 13.0982C15.2032 12.7112 14.6732 12.6112 14.2862 12.8752C13.5522 13.3762 12.6042 12.9332 12.4102 12.1162C13.2822 10.9742 13.8002 9.54622 13.8002 7.99922C13.8002 4.24622 10.7532 1.19922 7.0002 1.19922C3.2472 1.19922 0.200195 4.24622 0.200195 7.99922C0.200195 11.7522 3.2472 14.7992 7.0002 14.7992C8.5532 14.7992 9.9842 14.2782 11.1292 13.3992ZM7.0002 2.79922C9.8702 2.79922 12.2002 5.12922 12.2002 7.99922C12.2002 10.8692 9.8702 13.1992 7.0002 13.1992C4.1302 13.1992 1.8002 10.8692 1.8002 7.99922C1.8002 5.12922 4.1302 2.79922 7.0002 2.79922ZM7.0042 9.23522C7.7702 9.23522 8.39219 9.85722 8.39219 10.6232C8.39219 11.3902 7.7702 12.0122 7.0042 12.0122C6.2372 12.0122 5.6152 11.3902 5.6152 10.6232C5.6152 9.85722 6.2372 9.23522 7.0042 9.23522ZM3.0262 8.00022C3.0262 7.23422 3.6482 6.61222 4.4142 6.61222C5.1812 6.61222 5.80319 7.23422 5.80319 8.00022C5.80319 8.76722 5.1812 9.38922 4.4142 9.38922C3.6482 9.38922 3.0262 8.76722 3.0262 8.00022ZM8.21119 8.00022C8.21119 7.23422 8.8332 6.61222 9.5992 6.61222C10.3662 6.61222 10.9882 7.23422 10.9882 8.00022C10.9882 8.76722 10.3662 9.38922 9.5992 9.38922C8.8332 9.38922 8.21119 8.76722 8.21119 8.00022ZM7.0042 3.99522C7.7702 3.99522 8.39219 4.61722 8.39219 5.38422C8.39219 6.15022 7.7702 6.77222 7.0042 6.77222C6.2372 6.77222 5.6152 6.15022 5.6152 5.38422C5.6152 4.61722 6.2372 3.99522 7.0042 3.99522Z" fill="black"/>
</svg>
