<svg width="24" height="24" viewBox="0 0 24 24" fill="none" xmlns="http://www.w3.org/2000/svg">
<path fill-rule="evenodd" clip-rule="evenodd" d="M11.4498 18.296V15.293C11.4498 13.802 10.2398 12.593 8.7498 12.593H5.7498C4.2598 12.593 3.0498 13.802 3.0498 15.293V18.296C3.0498 19.788 4.2598 20.996 5.7498 20.996H8.7498C10.2398 20.996 11.4498 19.788 11.4498 18.296ZM21.0398 18.296V15.293C21.0398 13.802 19.8298 12.593 18.3398 12.593H15.3298C13.8398 12.593 12.6298 13.802 12.6298 15.293V18.296C12.6298 19.788 13.8398 20.996 15.3298 20.996H18.3398C19.8298 20.996 21.0398 19.788 21.0398 18.296ZM9.4498 15.293V18.296C9.4498 18.683 9.1398 18.996 8.7498 18.996H5.7498C5.3598 18.996 5.0498 18.683 5.0498 18.296V15.293C5.0498 14.907 5.3598 14.593 5.7498 14.593H8.7498C9.1398 14.593 9.4498 14.907 9.4498 15.293ZM19.0398 15.293V18.296C19.0398 18.683 18.7198 18.996 18.3398 18.996H15.3298C14.9498 18.996 14.6298 18.683 14.6298 18.296V15.293C14.6298 14.907 14.9498 14.593 15.3298 14.593H18.3398C18.7198 14.593 19.0398 14.907 19.0398 15.293ZM11.4498 8.703V5.7C11.4498 4.209 10.2398 3 8.7498 3H5.7498C4.2598 3 3.0498 4.209 3.0498 5.7V8.703C3.0498 10.194 4.2598 11.403 5.7498 11.403H8.7498C10.2398 11.403 11.4498 10.194 11.4498 8.703ZM21.0398 8.703V5.7C21.0398 4.209 19.8298 3 18.3398 3H15.3298C13.8398 3 12.6298 4.209 12.6298 5.7V8.703C12.6298 10.194 13.8398 11.403 15.3298 11.403H18.3398C19.8298 11.403 21.0398 10.194 21.0398 8.703ZM9.4498 5.7V8.703C9.4498 9.09 9.1398 9.403 8.7498 9.403H5.7498C5.3598 9.403 5.0498 9.09 5.0498 8.703V5.7C5.0498 5.313 5.3598 5 5.7498 5H8.7498C9.1398 5 9.4498 5.313 9.4498 5.7ZM19.0398 5.7V8.703C19.0398 9.09 18.7198 9.403 18.3398 9.403H15.3298C14.9498 9.403 14.6298 9.09 14.6298 8.703V5.7C14.6298 5.313 14.9498 5 15.3298 5H18.3398C18.7198 5 19.0398 5.313 19.0398 5.7Z" fill="black"/>
</svg>
