<svg width="16" height="16" viewBox="0 0 16 16" fill="none" xmlns="http://www.w3.org/2000/svg">
<path fill-rule="evenodd" clip-rule="evenodd" d="M14.6208 10.6889C14.6208 9.41859 13.5911 8.38889 12.3208 8.38889H10.7252C9.455 8.38889 8.4252 9.41859 8.4253 10.6889C8.4253 11.2094 8.4253 11.7929 8.4253 12.3134C8.4252 13.5836 9.455 14.6134 10.7252 14.6134H12.3208C13.5911 14.6134 14.6208 13.5836 14.6208 12.3134V10.6889ZM7.5872 10.6889C7.5872 9.41859 6.5574 8.38889 5.2872 8.38889H3.6916C2.4213 8.38889 1.3916 9.41859 1.3916 10.6889C1.3916 11.2094 1.3916 11.7929 1.3916 12.3134C1.3916 13.5836 2.4213 14.6134 3.6916 14.6134H5.2872C6.5574 14.6134 7.5872 13.5836 7.5872 12.3134V10.6889ZM13.0208 10.6889V12.3134C13.0208 12.7 12.7074 13.0134 12.3209 13.0134H10.7253C10.3386 13.0134 10.0253 12.7 10.0253 12.3134V10.6889C10.0253 10.3023 10.3386 9.98889 10.7252 9.98889H12.3208C12.7074 9.98889 13.0208 10.3023 13.0208 10.6889ZM5.9872 10.6889V12.3134C5.9872 12.7 5.6738 13.0134 5.2872 13.0134H3.6916C3.305 13.0134 2.9916 12.7 2.9916 12.3134V10.6889C2.9916 10.3023 3.305 9.98889 3.6916 9.98889H5.2872C5.6738 9.98889 5.9872 10.3023 5.9872 10.6889ZM7.5872 3.67109C7.5872 2.40079 6.5574 1.37109 5.2872 1.37109H3.6916C2.4213 1.37109 1.3916 2.40079 1.3916 3.67109C1.3916 4.19159 1.3916 4.77499 1.3916 5.29559C1.3916 6.56579 2.4213 7.59559 3.6916 7.59559H5.2872C6.5574 7.59559 7.5872 6.56579 7.5872 5.29559V3.67109ZM14.6208 3.67109C14.6208 2.40079 13.5911 1.37109 12.3208 1.37109H10.7252C9.455 1.37109 8.4252 2.40079 8.4253 3.67109C8.4253 4.19159 8.4253 4.77499 8.4253 5.29559C8.4252 6.56579 9.455 7.59559 10.7252 7.59559H12.3208C13.5911 7.59559 14.6208 6.56579 14.6208 5.29559V3.67109ZM5.9872 3.67109V5.29559C5.9872 5.68219 5.6738 5.99549 5.2872 5.99559H3.6916C3.305 5.99549 2.9916 5.68219 2.9916 5.29559V3.67109C2.9916 3.28449 3.305 2.97109 3.6916 2.97109H5.2872C5.6738 2.97109 5.9872 3.28449 5.9872 3.67109ZM13.0208 3.67109V5.29559C13.0208 5.68219 12.7074 5.99549 12.3209 5.99559H10.7253C10.3386 5.99549 10.0253 5.68219 10.0253 5.29559V3.67109C10.0253 3.28449 10.3386 2.97109 10.7252 2.97109H12.3208C12.7074 2.97109 13.0208 3.28449 13.0208 3.67109Z" fill="black"/>
</svg>
