<svg width="24" height="24" viewBox="0 0 24 24" fill="none" xmlns="http://www.w3.org/2000/svg">
<path fill-rule="evenodd" clip-rule="evenodd" d="M5.03016 15.5708C5.10016 15.6938 5.16016 15.8148 5.23016 15.9348C5.30016 16.0548 5.37016 16.1728 5.45016 16.2878L5.01016 17.6408C4.64016 18.7638 5.11016 19.9888 6.14016 20.5788C6.59016 20.8408 7.12016 21.1468 7.57016 21.4088C8.60016 21.9988 9.89016 21.7938 10.6802 20.9168L11.6302 19.8588C11.9102 19.8728 12.1802 19.8738 12.4602 19.8588L13.4102 20.9168C14.2002 21.7938 15.5002 21.9988 16.5202 21.4088C16.9702 21.1468 17.5002 20.8408 17.9602 20.5788C18.9802 19.9888 19.4502 18.7638 19.0902 17.6408L18.6502 16.2878C18.8002 16.0558 18.9302 15.8168 19.0602 15.5708L20.4502 15.2758C21.6102 15.0298 22.4302 14.0108 22.4302 12.8298C22.4302 12.3058 22.4302 11.6938 22.4302 11.1698C22.4302 9.98883 21.6102 8.96983 20.4502 8.72383L19.0602 8.42783C19.0002 8.30583 18.9302 8.18483 18.8602 8.06483C18.7902 7.94483 18.7202 7.82683 18.6502 7.71183L19.0902 6.35883C19.4502 5.23583 18.9802 4.01083 17.9602 3.42083C17.5002 3.15883 16.9702 2.85283 16.5202 2.59083C15.5002 2.00083 14.2002 2.20583 13.4102 3.08283L12.4602 4.14083C12.1902 4.12683 11.9102 4.12583 11.6302 4.14083L10.6802 3.08283C9.89016 2.20583 8.60016 2.00083 7.57016 2.59083C7.12016 2.85283 6.59016 3.15883 6.14016 3.42083C5.11016 4.01083 4.64016 5.23583 5.01016 6.35883L5.45016 7.71183C5.30016 7.94383 5.16016 8.18283 5.03016 8.42883L3.64016 8.72383C2.49016 8.96983 1.66016 9.98883 1.66016 11.1698C1.66016 11.6938 1.66016 12.3058 1.66016 12.8298C1.66016 14.0108 2.49016 15.0298 3.64016 15.2758L5.03016 15.5708ZM6.65016 14.3098C6.53016 14.0078 6.26016 13.7868 5.94016 13.7188L4.06016 13.3188C3.83016 13.2698 3.66016 13.0658 3.66016 12.8298C3.66016 12.3058 3.66016 11.6938 3.66016 11.1698C3.66016 10.9338 3.83016 10.7298 4.06016 10.6808L5.94016 10.2808C6.26016 10.2128 6.52016 9.99383 6.65016 9.69383C6.83016 9.26383 7.07016 8.85483 7.35016 8.47583C7.55016 8.21583 7.60016 7.87683 7.50016 7.56683L6.91016 5.74083C6.84016 5.51583 6.93016 5.27083 7.14016 5.15283C7.59016 4.89083 8.12016 4.58483 8.57016 4.32283C8.78016 4.20483 9.04016 4.24583 9.19016 4.42083L10.4802 5.84783C10.7002 6.08983 11.0202 6.21083 11.3402 6.17183C11.8102 6.11483 12.2802 6.11683 12.7502 6.17283C13.0702 6.21283 13.3902 6.09183 13.6102 5.84983L14.9002 4.42083C15.0602 4.24583 15.3202 4.20483 15.5202 4.32283C15.9702 4.58483 16.5002 4.89083 16.9602 5.15283C17.1602 5.27083 17.2602 5.51583 17.1802 5.74083L16.5902 7.56883C16.4902 7.88083 16.5502 8.22183 16.7502 8.48283C16.8802 8.66583 17.0102 8.86083 17.1302 9.06483C17.2502 9.26883 17.3502 9.47683 17.4402 9.68983C17.5702 9.99183 17.8402 10.2128 18.1602 10.2808L20.0402 10.6808C20.2702 10.7298 20.4302 10.9338 20.4302 11.1698C20.4302 11.6938 20.4302 12.3058 20.4302 12.8298C20.4302 13.0658 20.2702 13.2698 20.0402 13.3188L18.1602 13.7188C17.8402 13.7868 17.5702 14.0058 17.4402 14.3058C17.2602 14.7358 17.0302 15.1448 16.7402 15.5238C16.5502 15.7838 16.4902 16.1228 16.5902 16.4328L17.1802 18.2588C17.2602 18.4838 17.1602 18.7288 16.9602 18.8468C16.5002 19.1088 15.9702 19.4148 15.5202 19.6768C15.3202 19.7948 15.0602 19.7538 14.9002 19.5788L13.6102 18.1518C13.4002 17.9098 13.0702 17.7888 12.7502 17.8278C12.2802 17.8848 11.8102 17.8828 11.3502 17.8268C11.0202 17.7868 10.7002 17.9078 10.4802 18.1498L9.19016 19.5788C9.04016 19.7538 8.78016 19.7948 8.57016 19.6768C8.12016 19.4148 7.59016 19.1088 7.14016 18.8468C6.93016 18.7288 6.84016 18.4838 6.91016 18.2588L7.50016 16.4308C7.60016 16.1188 7.55016 15.7778 7.35016 15.5168C7.21016 15.3338 7.08016 15.1388 6.96016 14.9348C6.85016 14.7308 6.74016 14.5228 6.65016 14.3098ZM12.0502 8.27383C9.99016 8.27383 8.32016 9.94383 8.32016 12.0008C8.32016 14.0588 9.99016 15.7288 12.0502 15.7288C14.1102 15.7288 15.7802 14.0588 15.7802 12.0008C15.7802 9.94383 14.1102 8.27383 12.0502 8.27383ZM12.0502 10.2738C13.0002 10.2738 13.7802 11.0478 13.7802 12.0008C13.7802 12.9548 13.0002 13.7288 12.0502 13.7288C11.0902 13.7288 10.3202 12.9548 10.3202 12.0008C10.3202 11.0478 11.0902 10.2738 12.0502 10.2738Z" fill="black"/>
</svg>
