<svg width="12" height="12" viewBox="0 0 12 12" fill="none" xmlns="http://www.w3.org/2000/svg">
<path fill-rule="evenodd" clip-rule="evenodd" d="M2.23416 8.05449L2.34916 8.25389L2.13616 8.91149C1.92416 9.56259 2.19716 10.2729 2.79016 10.6151C3.05416 10.7677 3.37916 10.9554 3.64316 11.108C4.23616 11.4503 4.98816 11.3313 5.44616 10.8227L5.90916 10.3084C5.98516 10.3105 6.06216 10.3106 6.13916 10.3086L6.60116 10.8227C7.05916 11.3313 7.81116 11.4503 8.40416 11.108C8.66816 10.9554 8.99316 10.7677 9.25716 10.6151C9.85016 10.2729 10.1232 9.56259 9.91116 8.91149L9.69816 8.25359C9.73816 8.18859 9.77616 8.12189 9.81316 8.05419L10.4892 7.91099C11.1592 7.76859 11.6372 7.17729 11.6372 6.49269C11.6372 6.18749 11.6372 5.81209 11.6372 5.50689C11.6372 4.82229 11.1592 4.23099 10.4892 4.08859L9.81216 3.94469L9.69716 3.74569L9.91116 3.08809C10.1232 2.43699 9.85016 1.72669 9.25716 1.38449C8.99316 1.23189 8.66816 1.04419 8.40416 0.891594C7.81116 0.549294 7.05916 0.668294 6.60116 1.17689L6.13816 1.69119C6.06216 1.68909 5.98516 1.68899 5.90816 1.69099L5.44616 1.17689C4.98816 0.668294 4.23616 0.549294 3.64316 0.891594C3.37916 1.04419 3.05416 1.23189 2.79016 1.38449C2.19716 1.72669 1.92416 2.43699 2.13616 3.08809L2.34916 3.74599C2.30916 3.81099 2.27116 3.87769 2.23416 3.94539L1.55816 4.08859C0.888156 4.23099 0.410156 4.82229 0.410156 5.50689C0.410156 5.81209 0.410156 6.18749 0.410156 6.49269C0.410156 7.17729 0.888156 7.76859 1.55816 7.91099L2.23416 8.05449ZM7.68916 2.21089L8.47216 2.66329L8.15816 3.63189C8.08216 3.86569 8.12516 4.12179 8.27416 4.31739C8.34016 4.40479 8.40116 4.49739 8.45716 4.59459C8.51316 4.69179 8.56316 4.79099 8.60616 4.89209C8.70116 5.11869 8.90116 5.28439 9.14116 5.33549L10.1372 5.54739V6.45219L9.14116 6.66409C8.90216 6.71489 8.70316 6.87909 8.60716 7.10399C8.52016 7.30979 8.40716 7.50579 8.27116 7.68689C8.12516 7.88219 8.08316 8.13649 8.15816 8.36879L8.47216 9.33629L7.68916 9.78869L7.00816 9.03279C6.84416 8.85149 6.60316 8.76099 6.36116 8.79009C6.13616 8.81709 5.91016 8.81649 5.68816 8.78939C5.44516 8.75989 5.20316 8.8504 5.04016 9.03199L4.35816 9.78869L3.57516 9.33629L3.88916 8.36769C3.96516 8.13389 3.92216 7.87779 3.77316 7.68219C3.70716 7.59479 3.64616 7.50219 3.59016 7.40499C3.53316 7.30779 3.48416 7.20859 3.44116 7.10749C3.34616 6.88089 3.14616 6.71519 2.90616 6.66409L1.91016 6.45219V5.54739L2.90616 5.33549C3.14516 5.28469 3.34416 5.12049 3.44016 4.89559C3.52716 4.68979 3.64016 4.49379 3.77516 4.31269C3.92216 4.11739 3.96416 3.86309 3.88916 3.63079L3.57516 2.66329L4.35816 2.21089L5.03916 2.96679C5.20216 3.14809 5.44416 3.23859 5.68616 3.20949C5.91116 3.18249 6.13716 3.18309 6.35916 3.21019C6.60216 3.23969 6.84416 3.14919 7.00716 2.96759L7.68916 2.21089ZM6.02416 3.83699C4.83016 3.83699 3.86116 4.80639 3.86116 6.00049C3.86116 7.19449 4.83016 8.16389 6.02416 8.16389C7.21816 8.16389 8.18816 7.19449 8.18816 6.00049C8.18816 4.80639 7.21816 3.83699 6.02416 3.83699ZM6.02416 5.33699C6.39016 5.33699 6.68816 5.63429 6.68816 6.00049C6.68816 6.36669 6.39016 6.66389 6.02416 6.66389C5.65816 6.66389 5.36116 6.36669 5.36116 6.00049C5.36116 5.63429 5.65816 5.33699 6.02416 5.33699Z" fill="black"/>
</svg>
