<svg width="16" height="16" viewBox="0 0 16 16" fill="none" xmlns="http://www.w3.org/2000/svg">
<path fill-rule="evenodd" clip-rule="evenodd" d="M2.62378 10.4352C2.78778 10.7982 2.98778 11.1422 3.21778 11.4622L3.04178 12.0042C2.80878 12.7232 3.10978 13.5062 3.76378 13.8842C4.15578 14.1102 4.67678 14.4112 5.06778 14.6372C5.72278 15.0152 6.55178 14.8842 7.05678 14.3222L7.43778 13.9002C7.63278 13.9202 7.83078 13.9302 8.03078 13.9302C8.23178 13.9302 8.42978 13.9202 8.62478 13.9002L9.00478 14.3222C9.51078 14.8842 10.3398 15.0152 10.9938 14.6372C11.3858 14.4112 11.9068 14.1102 12.2988 13.8842C12.9528 13.5062 13.2538 12.7232 13.0208 12.0042L12.8438 11.4622C13.0748 11.1422 13.2748 10.7982 13.4388 10.4352L13.9948 10.3172C14.7328 10.1602 15.2618 9.50819 15.2618 8.75219C15.2618 8.30019 15.2618 7.69819 15.2618 7.24619C15.2618 6.49019 14.7328 5.83819 13.9948 5.68119L13.4378 5.56319C13.2748 5.20019 13.0748 4.85619 12.8438 4.53619L13.0208 3.99419C13.2538 3.27519 12.9528 2.49219 12.2988 2.11419C11.9068 1.88819 11.3858 1.58719 10.9938 1.36119C10.3398 0.983195 9.51078 1.11419 9.00478 1.67619L8.62478 2.09819C8.42978 2.07819 8.23178 2.06819 8.03078 2.06819C7.83078 2.06819 7.63278 2.07819 7.43778 2.09819L7.05678 1.67619C6.55178 1.11419 5.72278 0.983195 5.06778 1.36119C4.67678 1.58719 4.15578 1.88819 3.76378 2.11419C3.10978 2.49219 2.80878 3.27519 3.04178 3.99419L3.21778 4.53619C2.98778 4.85619 2.78778 5.20019 2.62378 5.56319L2.06778 5.68119C1.32878 5.83819 0.800781 6.49019 0.800781 7.24619C0.800781 7.69819 0.800781 8.30019 0.800781 8.75219C0.800781 9.50819 1.32878 10.1602 2.06778 10.3172L2.62378 10.4352ZM3.95778 9.46919C3.86378 9.20919 3.64178 9.01619 3.37178 8.95919L2.40078 8.75219V7.24619L3.37178 7.0392C3.64178 6.98219 3.86378 6.7892 3.95778 6.52919C4.13278 6.04319 4.39278 5.59719 4.72078 5.21019C4.89978 4.99919 4.95678 4.71019 4.87078 4.44619L4.56378 3.50019L5.86778 2.74619L6.53378 3.48519C6.71878 3.69119 6.99878 3.78719 7.27178 3.73619C7.51778 3.69119 7.77178 3.66819 8.03078 3.66819C8.28978 3.66819 8.54378 3.69119 8.78978 3.73619C9.06278 3.78719 9.34278 3.69119 9.52878 3.48519L10.1938 2.74619L11.4988 3.50019L11.1908 4.44619C11.1058 4.70919 11.1628 4.99819 11.3408 5.21019C11.6688 5.59719 11.9288 6.04219 12.1048 6.52919C12.1988 6.7892 12.4208 6.98219 12.6908 7.0392L13.6618 7.24619V8.75219L12.6908 8.95919C12.4208 9.01619 12.1988 9.20919 12.1048 9.46919C11.9288 9.95519 11.6688 10.4012 11.3418 10.7882C11.1628 10.9992 11.1058 11.2882 11.1908 11.5522L11.4988 12.4982L10.1938 13.2522L9.52878 12.5132C9.34278 12.3072 9.06278 12.2112 8.78978 12.2622C8.54378 12.3072 8.28978 12.3302 8.03078 12.3302C7.77178 12.3302 7.51778 12.3072 7.27178 12.2622C6.99878 12.2112 6.71878 12.3072 6.53378 12.5132L5.86778 13.2522L4.56378 12.4982L4.87078 11.5522C4.95678 11.2892 4.89978 11.0002 4.72078 10.7882C4.39378 10.4012 4.13278 9.95619 3.95778 9.46919ZM8.01578 5.13719C6.44478 5.13719 5.16878 6.41319 5.16878 7.98419C5.16878 9.55519 6.44478 10.8302 8.01578 10.8302C9.58678 10.8302 10.8628 9.55519 10.8628 7.98419C10.8628 6.41319 9.58678 5.13719 8.01578 5.13719ZM8.01578 6.7372C8.70378 6.7372 9.26278 7.29619 9.26278 7.98419C9.26278 8.67219 8.70378 9.2302 8.01578 9.2302C7.32778 9.2302 6.76878 8.67219 6.76878 7.98419C6.76878 7.29619 7.32778 6.7372 8.01578 6.7372Z" fill="black"/>
</svg>
