<svg width="16" height="16" viewBox="0 0 16 16" fill="none" xmlns="http://www.w3.org/2000/svg">
<path fill-rule="evenodd" clip-rule="evenodd" d="M0.201172 7.99992C0.201172 6.45432 1.45542 5.19992 3.00117 5.19992C3.69368 5.19992 4.32772 5.45173 4.81667 5.86871C5.22606 6.21785 5.53373 6.68279 5.68884 7.21268C5.76195 7.46244 5.80117 7.72663 5.80117 7.99992C5.80117 8.26509 5.76425 8.52169 5.69527 8.76485C5.54457 9.29613 5.24082 9.76328 4.83477 10.1156C4.34342 10.5418 3.70226 10.7999 3.00117 10.7999C1.45542 10.7999 0.201172 9.54552 0.201172 7.99992ZM3.00117 6.79992C2.33913 6.79992 1.80117 7.33792 1.80117 7.99992C1.80117 8.66192 2.33913 9.19992 3.00117 9.19992C3.66314 9.19992 4.20117 8.66189 4.20117 7.99992C4.20117 7.33795 3.66314 6.79992 3.00117 6.79992Z" fill="black"/>
<path d="M4.81667 5.86871C5.22606 6.21785 5.53373 6.68279 5.68884 7.21268L9.85997 4.80442C9.51461 4.3955 9.28426 3.88635 9.21896 3.32699L4.81667 5.86871Z" fill="black"/>
<path d="M10.4215 4.48022C10.8041 4.25931 10.9352 3.77003 10.7143 3.3874C10.4934 3.00477 10.0041 2.87367 9.62147 3.09459L9.21896 3.32699C9.28426 3.88635 9.51461 4.3955 9.85997 4.80442L10.4215 4.48022Z" fill="black"/>
<path fill-rule="evenodd" clip-rule="evenodd" d="M12 0.199219C10.4543 0.199219 9.19995 1.45359 9.19995 2.99922C9.19995 3.11009 9.2064 3.21947 9.21896 3.32699L9.62147 3.09459C10.0041 2.87367 10.4934 3.00477 10.7143 3.3874C10.9352 3.77003 10.8041 4.25931 10.4215 4.48022L9.85997 4.80442C10.3737 5.41272 11.142 5.79922 12 5.79922C13.5456 5.79922 14.8 4.54497 14.8 2.99922C14.8 1.45359 13.5456 0.199219 12 0.199219ZM12 1.79922C11.338 1.79922 10.8 2.33725 10.8 2.99922C10.8 3.66126 11.338 4.19922 12 4.19922C12.6619 4.19922 13.2 3.66126 13.2 2.99922C13.2 2.33725 12.6619 1.79922 12 1.79922Z" fill="black"/>
<path d="M5.69527 8.76485C5.54457 9.29613 5.24082 9.76328 4.83477 10.1156L9.22056 12.6476C9.28849 12.0892 9.52103 11.5813 9.86815 11.174L5.69527 8.76485Z" fill="black"/>
<path d="M10.7197 12.5894C10.9406 12.2068 10.8095 11.7175 10.4269 11.4966L9.86815 11.174C9.52103 11.5813 9.28849 12.0892 9.22056 12.6476L9.62688 12.8822C10.0095 13.1031 10.4988 12.972 10.7197 12.5894Z" fill="black"/>
<path fill-rule="evenodd" clip-rule="evenodd" d="M14.8 12.9888C14.8 11.4432 13.5456 10.1888 12 10.1888C11.1465 10.1888 10.3819 10.5713 9.86815 11.174L10.4269 11.4966C10.8095 11.7175 10.9406 12.2068 10.7197 12.5894C10.4988 12.972 10.0095 13.1031 9.62688 12.8822L9.22056 12.6476C9.20695 12.7595 9.19995 12.8733 9.19995 12.9888C9.19995 14.5344 10.4543 15.7888 12 15.7888C13.5456 15.7888 14.8 14.5344 14.8 12.9888ZM12 11.7888C11.338 11.7888 10.8 12.3268 10.8 12.9888C10.8 13.6508 11.338 14.1888 12 14.1888C12.6619 14.1888 13.2 13.6508 13.2 12.9888C13.2 12.3268 12.6619 11.7888 12 11.7888Z" fill="black"/>
</svg>
