<svg width="24" height="24" viewBox="0 0 24 24" fill="none" xmlns="http://www.w3.org/2000/svg">
<path fill-rule="evenodd" clip-rule="evenodd" d="M9 12C9 11.4655 8.89503 10.9554 8.7046 10.4892C8.4449 9.85347 8.02626 9.29937 7.49813 8.87638C6.81351 8.32803 5.94489 8 5 8C2.79172 8 1 9.79172 1 12C1 14.2083 2.79172 16 5 16C5.95788 16 6.83739 15.6629 7.52628 15.1009C8.04982 14.6738 8.46326 14.1168 8.71736 13.4792C8.89972 13.0216 9 12.5224 9 12ZM3 12C3 10.8963 3.89628 10 5 10C6.10372 10 7 10.8963 7 12C7 13.1037 6.10372 14 5 14C3.89628 14 3 13.1037 3 12Z" fill="black"/>
<path fill-rule="evenodd" clip-rule="evenodd" d="M22 4C22 1.79172 20.2083 0 18 0C15.7917 0 14 1.79172 14 4C14 4.36073 14.0478 4.71035 14.1374 5.04285L14.733 4.69899C15.2113 4.42283 15.8228 4.58669 16.099 5.06497C16.3752 5.54325 16.2113 6.15485 15.733 6.43101L15.126 6.78149C15.8533 7.53279 16.8723 8 18 8C20.2083 8 22 6.20828 22 4ZM18 2C16.8963 2 16 2.89628 16 4C16 5.10372 16.8963 6 18 6C19.1037 6 20 5.10372 20 4C20 2.89628 19.1037 2 18 2Z" fill="black"/>
<path d="M7.49813 8.87638C8.02626 9.29937 8.4449 9.85347 8.7046 10.4892L15.126 6.78149C14.6617 6.30185 14.3163 5.70642 14.1374 5.04285L7.49813 8.87638Z" fill="black"/>
<path d="M15.733 6.43101C16.2113 6.15485 16.3752 5.54325 16.099 5.06497C15.8228 4.58669 15.2113 4.42283 14.733 4.69899L14.1374 5.04285C14.3163 5.70642 14.6617 6.30185 15.126 6.78149L15.733 6.43101Z" fill="black"/>
<path d="M8.71736 13.4792C8.46326 14.1168 8.04982 14.6738 7.52628 15.1009L14.1467 18.9235C14.3313 18.2619 14.6817 17.6694 15.1504 17.1936L8.71736 13.4792Z" fill="black"/>
<path fill-rule="evenodd" clip-rule="evenodd" d="M22 20C22 17.7917 20.2083 16 18 16C16.8849 16 15.876 16.4569 15.1504 17.1936L15.733 17.53C16.2113 17.8062 16.3752 18.4177 16.099 18.896C15.8228 19.3743 15.2113 19.5382 14.733 19.262L14.1467 18.9235C14.0511 19.266 14 19.6271 14 20C14 22.2083 15.7917 24 18 24C20.2083 24 22 22.2083 22 20ZM18 18C16.8963 18 16 18.8963 16 20C16 21.1037 16.8963 22 18 22C19.1037 22 20 21.1037 20 20C20 18.8963 19.1037 18 18 18Z" fill="black"/>
<path d="M14.733 19.262C15.2113 19.5382 15.8228 19.3743 16.099 18.896C16.3752 18.4177 16.2113 17.8062 15.733 17.53L15.1504 17.1936C14.6817 17.6694 14.3313 18.2619 14.1467 18.9235L14.733 19.262Z" fill="black"/>
</svg>
