<svg width="16" height="16" viewBox="0 0 16 16" fill="none" xmlns="http://www.w3.org/2000/svg">
<path fill-rule="evenodd" clip-rule="evenodd" d="M4.23491 9.20937H1.87891C1.41391 9.20937 0.968906 9.38937 0.640906 9.71937C0.312906 10.0494 0.128906 10.4894 0.128906 10.9594V12.0594C0.128906 12.5194 0.312906 12.9694 0.640906 13.2894C0.968906 13.6194 1.41391 13.8094 1.87891 13.8094H4.23491V14.0694C4.23491 14.6094 4.54291 15.0994 5.02691 15.3294C5.51191 15.5594 6.08491 15.4894 6.50291 15.1494C7.47491 14.3694 8.80391 13.2494 9.60591 12.5994C9.93191 12.3394 10.1219 11.9394 10.1219 11.5194C10.1219 11.0994 9.93391 10.6994 9.60791 10.4394C8.80591 9.78938 7.47791 8.60938 6.50491 7.81938C6.08791 7.47937 5.51191 7.40937 5.02791 7.63937C4.54291 7.86937 4.23491 8.35938 4.23491 8.89937V9.20937ZM10.0129 8.48938H11.7759C14.0959 8.48938 15.9759 10.3694 15.9759 12.6894C15.9759 13.2494 15.7539 13.7894 15.3579 14.1794C14.9629 14.5794 14.4259 14.7994 13.8659 14.7994H9.68691L10.7099 13.9594C10.9769 13.7394 11.2039 13.4894 11.3819 13.1994H13.8659C14.0019 13.1994 14.1309 13.1494 14.2269 13.0494C14.3229 12.9494 14.3759 12.8294 14.3759 12.6894C14.3759 11.2494 13.2119 10.0894 11.7759 10.0894H11.5249C11.3309 9.69938 11.0549 9.35938 10.7109 9.07938L10.0129 8.48938ZM5.73491 9.12937C6.64491 9.86938 7.80091 10.8894 8.56091 11.5194C7.80891 12.1294 6.64791 13.0994 5.73491 13.8494V13.0594C5.73491 12.6394 5.39891 12.3094 4.98491 12.3094H1.87891C1.81191 12.3094 1.74891 12.2794 1.70191 12.2294C1.65491 12.1894 1.62891 12.1194 1.62891 12.0594V10.9594C1.62891 10.8894 1.65491 10.8294 1.70191 10.7794C1.74891 10.7294 1.81191 10.7094 1.87891 10.7094H4.98491C5.39891 10.7094 5.73491 10.3694 5.73491 9.95938V9.12937ZM9.99491 1.60938C8.40191 1.60938 7.10891 2.89938 7.10891 4.49938C7.10891 6.08938 8.40191 7.38938 9.99491 7.38938C11.5869 7.38938 12.8809 6.08938 12.8809 4.49938C12.8809 2.89938 11.5869 1.60938 9.99491 1.60938ZM9.99491 3.20938C10.7049 3.20938 11.2809 3.78937 11.2809 4.49937C11.2809 5.20937 10.7049 5.78937 9.99491 5.78937C9.28391 5.78937 8.70891 5.20937 8.70891 4.49937C8.70891 3.78937 9.28391 3.20938 9.99491 3.20938Z" fill="black"/>
</svg>
