<svg width="24" height="24" viewBox="0 0 24 24" fill="none" xmlns="http://www.w3.org/2000/svg">
<path fill-rule="evenodd" clip-rule="evenodd" d="M3.01465 6.221V13.505C3.01465 15.068 3.84235 16.6674 5.13845 18.0584C6.93195 19.9831 9.60285 21.516 11.7294 22.0472C11.8879 22.0868 12.0537 22.0869 12.2123 22.0476C14.316 21.5262 17.0238 19.9922 18.8502 18.0667C20.1731 16.672 21.0217 15.0671 21.0217 13.505C21.0217 12.0493 21.0217 8.2171 21.0017 6.231C20.9983 5.0846 20.3369 4.041 19.2995 3.5486C19.2883 3.5433 19.2769 3.5381 19.2654 3.5332C17.8015 2.9043 15.1376 2 11.9487 2C8.77135 2 6.17685 2.8982 4.74135 3.5049C4.72395 3.5123 4.70675 3.5201 4.68975 3.5284C3.66355 4.0325 3.01465 5.0778 3.01465 6.221ZM5.01465 6.221C5.01465 5.852 5.21675 5.513 5.54035 5.3396C6.83705 4.7932 9.13645 4 11.9487 4C14.7715 4 17.1327 4.7971 18.4451 5.3576C18.7899 5.5275 19.0017 5.8673 19.0017 6.24C19.0017 6.2434 19.0017 6.2467 19.0018 6.2501C19.0217 8.2303 19.0217 12.053 19.0217 13.505C19.0217 14.6103 18.3352 15.7035 17.3992 16.6903C15.907 18.2634 13.7336 19.5422 11.9741 20.0417C10.2022 19.5371 8.06335 18.2635 6.60165 16.6949C5.68255 15.7085 5.01465 14.6134 5.01465 13.505V6.221ZM12.2187 16.048C14.4807 16.048 15.7924 14.7585 15.7924 13.9441C15.7924 13.4419 15.3909 13.0482 14.909 13.0482C13.9721 13.0482 13.691 14.012 12.2187 14.012C10.8669 14.012 9.84965 12.9261 9.84965 11.5009C9.84965 10.0756 10.8669 8.9898 12.2187 8.9898C13.6776 8.9898 13.9453 9.9535 14.909 9.9535C15.3909 9.9535 15.7924 9.5598 15.7924 9.0576C15.7924 8.2704 14.4807 6.9537 12.2187 6.9537C9.70245 6.9537 7.70815 8.9626 7.70815 11.5009C7.70815 14.0391 9.70245 16.048 12.2187 16.048Z" fill="black"/>
</svg>
