<svg width="16" height="16" viewBox="0 0 16 16" fill="none" xmlns="http://www.w3.org/2000/svg">
<path fill-rule="evenodd" clip-rule="evenodd" d="M1.84082 4.57992V9.00242C1.84082 10.0754 2.40612 11.1759 3.30052 12.1306C4.51962 13.4319 6.33532 14.4675 7.78082 14.8267C7.90702 14.858 8.03902 14.8582 8.16522 14.827C9.59492 14.4745 11.4355 13.4384 12.6769 12.1369C13.5899 11.1796 14.1695 10.0748 14.1695 9.00242C14.1695 8.13002 14.1695 5.97932 14.1404 4.58752C14.1362 3.47002 13.4609 2.46392 12.4274 2.03702C12.4195 2.03372 12.4115 2.03062 12.4035 2.02762C11.3625 1.63622 9.78792 1.19922 7.95862 1.19922C6.14772 1.19922 4.61682 1.62752 3.59272 1.98442C3.57562 1.99032 3.55872 1.99692 3.54202 2.00402C2.51002 2.44422 1.84052 3.45792 1.84082 4.57992ZM3.44082 9.00242V4.57972C3.44062 4.10992 3.71452 3.68442 4.13962 3.48912C5.04802 3.17352 6.38222 2.79922 7.95862 2.79922C9.54352 2.79922 10.9091 3.17732 11.8184 3.51702C12.2589 3.70322 12.5404 4.12752 12.5404 4.59802C12.5404 4.60362 12.5405 4.60922 12.5406 4.61482C12.5696 5.99582 12.5695 8.13532 12.5695 9.00242C12.5695 9.70852 12.1202 10.4023 11.519 11.0326C10.5444 12.0545 9.12942 12.8876 7.97522 13.2218C6.81352 12.8841 5.42212 12.055 4.46812 11.0367C3.87772 10.4064 3.44082 9.71082 3.44082 9.00242ZM7.08602 4.60642L6.45332 5.76042L5.16032 6.00552C4.78322 6.07702 4.47512 6.34832 4.35652 6.71322C4.23792 7.07822 4.32772 7.47882 4.59082 7.75832L5.49282 8.71662L5.32632 10.0221C5.27782 10.4027 5.44062 10.7796 5.75112 11.0052C6.06152 11.2307 6.47032 11.2691 6.81732 11.1053L8.00752 10.5436L9.19762 11.1053C9.54472 11.2691 9.95342 11.2307 10.2639 11.0052C10.5743 10.7796 10.7372 10.4027 10.6886 10.0221L10.5222 8.71662L11.4242 7.75832C11.6872 7.47882 11.777 7.07822 11.6584 6.71322C11.5398 6.34832 11.2317 6.07702 10.8547 6.00552L9.56172 5.76042L8.92902 4.60642C8.74452 4.26992 8.39122 4.06072 8.00752 4.06072C7.62372 4.06072 7.27052 4.26992 7.08602 4.60642ZM8.00752 6.04582L8.41652 6.79192C8.52432 6.98842 8.71432 7.12642 8.93452 7.16822L9.77052 7.32672L9.18732 7.94632C9.03372 8.10952 8.96112 8.33282 8.98952 8.55522L9.09712 9.39922L8.32762 9.03602C8.12492 8.94042 7.89012 8.94042 7.68742 9.03602L6.91792 9.39922L7.02552 8.55522C7.05382 8.33282 6.98132 8.10952 6.82772 7.94632L6.24452 7.32672L7.08052 7.16822C7.30072 7.12642 7.49072 6.98842 7.59842 6.79192L8.00752 6.04582Z" fill="black"/>
</svg>
