<svg width="16" height="16" viewBox="0 0 16 16" fill="none" xmlns="http://www.w3.org/2000/svg">
<path fill-rule="evenodd" clip-rule="evenodd" d="M1.84082 4.58022V9.00222C1.84082 10.0752 2.40582 11.1762 3.29982 12.1302C4.51882 13.4322 6.33482 14.4672 7.78082 14.8262C7.90682 14.8582 8.03882 14.8582 8.16482 14.8272C9.59482 14.4742 11.4348 13.4382 12.6768 12.1372C13.5898 11.1792 14.1688 10.0752 14.1688 9.00222C14.1688 8.13022 14.1688 5.97922 14.1398 4.58722C14.1358 3.47022 13.4608 2.46422 12.4268 2.03722C12.4188 2.03422 12.4108 2.03022 12.4028 2.02722C11.3618 1.63622 9.78782 1.19922 7.95882 1.19922C6.14782 1.19922 4.61682 1.62722 3.59282 1.98422C3.57582 1.99022 3.55882 1.99722 3.54182 2.00422C2.50982 2.44422 1.83982 3.45822 1.84082 4.58022ZM3.44082 9.00222V4.57922C3.44082 4.11022 3.71382 3.68422 4.13882 3.48922C5.04782 3.17322 6.38182 2.79922 7.95882 2.79922C9.54282 2.79922 10.9088 3.17722 11.8178 3.51722C12.2588 3.70322 12.5398 4.12722 12.5398 4.59822C12.5398 4.60322 12.5398 4.60922 12.5398 4.61522C12.5698 5.99622 12.5688 8.13522 12.5688 9.00222C12.5688 9.70822 12.1198 10.4022 11.5188 11.0322C10.5438 12.0542 9.12882 12.8872 7.97482 13.2222C6.81282 12.8842 5.42182 12.0552 4.46782 11.0362C3.87782 10.4062 3.44082 9.71122 3.44082 9.00222ZM6.18482 9.67722V7.94222L7.42882 9.20322C7.57882 9.35622 7.78382 9.44122 7.99882 9.44122C8.21282 9.44122 8.41782 9.35622 8.56782 9.20322L9.78182 7.97222V9.67722C9.78182 10.1192 10.1398 10.4772 10.5818 10.4772C11.0228 10.4772 11.3818 10.1192 11.3818 9.67722V6.02222C11.3818 5.69722 11.1858 5.40522 10.8848 5.28222C10.5848 5.15922 10.2398 5.22922 10.0118 5.46022L7.99882 7.50222L5.95382 5.43022C5.72682 5.19922 5.38182 5.12822 5.08082 5.25122C4.78082 5.37422 4.58482 5.66722 4.58482 5.99122V9.67722C4.58482 10.1192 4.94282 10.4772 5.38482 10.4772C5.82582 10.4772 6.18482 10.1192 6.18482 9.67722Z" fill="black"/>
</svg>
