<svg width="16" height="16" viewBox="0 0 16 16" fill="none" xmlns="http://www.w3.org/2000/svg">
<path fill-rule="evenodd" clip-rule="evenodd" d="M1.84082 4.57992V9.00242C1.84082 10.0754 2.40612 11.1759 3.30052 12.1306C4.51962 13.4319 6.33532 14.4675 7.78082 14.8267C7.90702 14.858 8.03902 14.8582 8.16522 14.827C9.59492 14.4745 11.4355 13.4384 12.6769 12.1369C13.5899 11.1796 14.1695 10.0748 14.1695 9.00242C14.1695 8.13002 14.1695 5.97932 14.1404 4.58752C14.1362 3.47002 13.4609 2.46392 12.4274 2.03702C12.4195 2.03372 12.4115 2.03062 12.4035 2.02762C11.3625 1.63622 9.78792 1.19922 7.95862 1.19922C6.14772 1.19922 4.61682 1.62752 3.59272 1.98442C3.57562 1.99032 3.55872 1.99692 3.54202 2.00402C2.51002 2.44422 1.84052 3.45792 1.84082 4.57992ZM3.44082 9.00242V4.57972C3.44062 4.10992 3.71452 3.68442 4.13962 3.48912C5.04802 3.17352 6.38222 2.79922 7.95862 2.79922C9.54352 2.79922 10.9091 3.17732 11.8184 3.51702C12.2589 3.70322 12.5404 4.12752 12.5404 4.59802C12.5404 4.60362 12.5405 4.60922 12.5406 4.61482C12.5696 5.99582 12.5695 8.13532 12.5695 9.00242C12.5695 9.70852 12.1202 10.4023 11.519 11.0326C10.5444 12.0545 9.12942 12.8876 7.97522 13.2218C6.81352 12.8841 5.42212 12.055 4.46812 11.0367C3.87772 10.4064 3.44082 9.71082 3.44082 9.00242ZM8.01212 9.25262C8.53752 9.25262 8.96412 9.68352 8.96412 10.2141C8.96412 10.7448 8.53752 11.1756 8.01212 11.1756C7.48662 11.1756 7.06002 10.7448 7.06002 10.2141C7.06002 9.68352 7.48662 9.25262 8.01212 9.25262ZM8.08692 3.99922C7.32672 3.99922 6.60312 4.34662 6.19062 4.72292C5.68682 5.18262 6.15402 6.24592 6.87962 5.78782C7.15882 5.61162 7.50902 5.35622 8.11252 5.35362C8.50862 5.35192 8.78482 5.68652 8.78482 6.00772C8.78482 6.34912 7.95292 6.90742 7.50242 7.33122C6.89092 7.90652 7.72012 8.88692 8.44592 8.23942C9.19722 7.56912 10.1586 6.77072 10.1586 5.86712C10.1586 4.82312 9.29522 3.99922 8.08692 3.99922Z" fill="black"/>
</svg>
