<svg width="12" height="12" viewBox="0 0 12 12" fill="none" xmlns="http://www.w3.org/2000/svg">
<path fill-rule="evenodd" clip-rule="evenodd" d="M0.578125 2.71222V6.85422C0.578125 7.79822 1.07552 8.77022 1.87102 9.61022C2.93733 10.7372 4.52513 11.6332 5.79012 11.9432C5.91612 11.9742 6.04712 11.9742 6.17312 11.9442C7.42312 11.6392 9.03312 10.7432 10.1181 9.61722C10.9301 8.77422 11.4401 7.79822 11.4401 6.85422C11.4401 6.02622 11.4401 3.84622 11.4291 2.71622C11.4261 1.97322 10.9931 1.29522 10.3101 0.975219C10.3011 0.971219 10.2921 0.967219 10.2831 0.963219C9.42013 0.598219 7.84912 0.0742188 5.96912 0.0742188C4.09612 0.0742188 2.56613 0.595219 1.71973 0.947219C1.70582 0.952219 1.69202 0.959219 1.67842 0.965219C1.00262 1.29222 0.578125 1.97122 0.578125 2.71222ZM2.19103 2.71222C2.19103 2.59322 2.25752 2.48622 2.36133 2.42722C3.09403 2.12422 4.38812 1.68722 5.96912 1.68722C7.55612 1.68722 8.88412 2.12622 9.62712 2.43722C9.74512 2.49622 9.81612 2.60322 9.81612 2.72322C9.81612 2.72622 9.81612 2.72822 9.81612 2.73122C9.82712 3.85622 9.82712 6.02922 9.82712 6.85422C9.82712 7.42722 9.45012 7.98622 8.95712 8.49722C8.13912 9.34622 6.95613 10.0392 5.98413 10.3252C5.00612 10.0372 3.84273 9.34722 3.04233 8.50122C2.55772 7.99022 2.19103 7.42922 2.19103 6.85422V2.71222ZM4.64813 7.38122V6.20622L5.48213 7.05922C5.62613 7.20522 5.82213 7.28822 6.02713 7.28822C6.23313 7.28822 6.42912 7.20522 6.57312 7.05922L7.38313 6.22322V7.38122C7.38313 7.80222 7.72512 8.14422 8.14612 8.14422C8.56712 8.14422 8.90913 7.80222 8.90913 7.38122V4.36122C8.90913 4.05022 8.72213 3.77122 8.43412 3.65422C8.14712 3.53722 7.81812 3.60522 7.60112 3.82722L6.02713 5.43422L4.43012 3.80222C4.21312 3.58022 3.88363 3.51222 3.59643 3.62922C3.30923 3.74622 3.12153 4.02522 3.12153 4.33522V7.38122C3.12153 7.80222 3.46342 8.14422 3.88462 8.14422C4.30612 8.14422 4.64813 7.80222 4.64813 7.38122Z" fill="black"/>
</svg>
