<svg width="24" height="24" viewBox="0 0 24 24" fill="none" xmlns="http://www.w3.org/2000/svg">
<path fill-rule="evenodd" clip-rule="evenodd" d="M3 6.221V13.505C3 15.068 3.8283 16.668 5.125 18.059C6.92 19.983 9.593 21.516 11.72 22.047C11.879 22.087 12.044 22.087 12.203 22.048C14.308 21.526 17.017 19.992 18.845 18.067C20.169 16.672 21.019 15.067 21.019 13.505C21.019 12.049 21.018 8.218 20.998 6.231C20.995 5.085 20.334 4.041 19.296 3.549C19.285 3.543 19.273 3.538 19.261 3.533C17.797 2.905 15.13 2 11.941 2C8.76 2 6.164 2.898 4.727 3.505C4.71 3.512 4.692 3.52 4.675 3.529C3.6486 4.034 2.9996 5.078 3 6.221ZM5 13.505V6.221C5 5.851 5.203 5.513 5.527 5.339C6.824 4.793 9.126 4 11.941 4C14.765 4 17.129 4.798 18.443 5.358C18.787 5.528 18.999 5.867 18.999 6.24C18.999 6.243 18.999 6.247 18.999 6.25C19.019 8.231 19.019 12.053 19.019 13.505C19.019 14.61 18.331 15.703 17.395 16.69C15.901 18.263 13.726 19.542 11.965 20.042C10.192 19.537 8.051 18.263 6.588 16.695C5.668 15.708 5 14.613 5 13.505ZM10.275 13.236H13.832L14.741 15.094C14.959 15.54 15.498 15.725 15.944 15.507C16.391 15.289 16.576 14.749 16.358 14.303L12.862 7.152C12.711 6.843 12.398 6.647 12.054 6.647C11.71 6.647 11.396 6.843 11.245 7.152L7.75 14.303C7.531 14.749 7.717 15.289 8.163 15.507C8.609 15.725 9.149 15.54 9.367 15.094L10.275 13.236ZM11.155 11.436H12.953L12.054 9.596L11.155 11.436Z" fill="black"/>
</svg>
