<svg width="16" height="16" viewBox="0 0 16 16" fill="none" xmlns="http://www.w3.org/2000/svg">
<path fill-rule="evenodd" clip-rule="evenodd" d="M1.84087 5.17092V9.00442C1.84087 10.0774 2.40617 11.1779 3.30057 12.1326C4.51967 13.4339 6.33537 14.4695 7.78087 14.8287C7.90707 14.86 8.03907 14.8602 8.16527 14.829C8.88357 14.6519 9.70567 14.3023 10.5031 13.8332L9.33167 12.6617C8.86747 12.9072 8.40347 13.0998 7.97527 13.2238C6.81357 12.8861 5.42217 12.057 4.46817 11.0387C3.87777 10.4084 3.44087 9.71282 3.44087 9.00442V6.77092L1.84087 5.17092ZM2.40037 2.90202L3.55947 4.06112L3.56137 4.05732L4.87847 5.37442L4.87537 5.37702L8.63557 9.13722L8.63837 9.13432L11.0166 11.5126L11.0136 11.5152L12.1465 12.6481L12.1496 12.6455L14.0069 14.5028C14.3386 14.8345 14.8773 14.8345 15.209 14.5028C15.5407 14.1711 15.5407 13.6325 15.209 13.3007L13.2991 11.3909C13.8451 10.6275 14.1696 9.80692 14.1696 9.00442C14.1696 8.13202 14.1696 5.98132 14.1405 4.58952C14.1363 3.47202 13.461 2.46592 12.4275 2.03902C12.4196 2.03572 12.4116 2.03262 12.4036 2.02962C11.3626 1.63822 9.78797 1.20122 7.95867 1.20122C6.27597 1.20122 4.83507 1.57102 3.81787 1.90972L2.43427 0.526119C2.10257 0.194419 1.56397 0.194419 1.23217 0.526119C0.900473 0.857819 0.900473 1.39642 1.23217 1.72822L2.40277 2.89882L2.40037 2.90202ZM4.58507 7.91512V9.67942C4.58507 10.121 4.94357 10.4794 5.38507 10.4794C5.82657 10.4794 6.18507 10.121 6.18507 9.67942V9.51512L4.58507 7.91512ZM12.1528 10.2445C12.4096 9.84282 12.5696 9.42582 12.5696 9.00442C12.5696 8.13732 12.5697 5.99782 12.5407 4.61682C12.5406 4.61122 12.5405 4.60562 12.5405 4.60002C12.5405 4.12952 12.259 3.70522 11.8185 3.51902C10.9092 3.17932 9.54357 2.80122 7.95867 2.80122C6.87097 2.80122 5.89857 2.97942 5.10177 3.19362L8.70077 6.79252L10.0125 5.46252C10.2404 5.23142 10.5854 5.16092 10.8857 5.28412C11.186 5.40732 11.3821 5.69972 11.3821 6.02432V9.47392L12.1528 10.2445Z" fill="black"/>
</svg>
