<svg width="16" height="16" viewBox="0 0 16 16" fill="none" xmlns="http://www.w3.org/2000/svg">
<path fill-rule="evenodd" clip-rule="evenodd" d="M1.84082 4.58022V9.00222C1.84082 10.0752 2.40582 11.1762 3.29982 12.1302C4.51882 13.4322 6.33482 14.4672 7.78082 14.8262C7.90682 14.8582 8.03882 14.8582 8.16482 14.8272C9.59482 14.4742 11.4348 13.4382 12.6768 12.1372C13.5898 11.1792 14.1688 10.0752 14.1688 9.00222C14.1688 8.13022 14.1688 5.97922 14.1398 4.58722C14.1358 3.47022 13.4608 2.46422 12.4268 2.03722C12.4188 2.03422 12.4108 2.03022 12.4028 2.02722C11.3618 1.63622 9.78782 1.19922 7.95882 1.19922C6.14782 1.19922 4.61682 1.62722 3.59282 1.98422C3.57582 1.99022 3.55882 1.99722 3.54182 2.00422C2.50982 2.44422 1.83982 3.45822 1.84082 4.58022ZM3.44082 9.00222V4.57922C3.44082 4.11022 3.71382 3.68422 4.13882 3.48922C5.04782 3.17322 6.38182 2.79922 7.95882 2.79922C9.54282 2.79922 10.9088 3.17722 11.8178 3.51722C12.2588 3.70322 12.5398 4.12722 12.5398 4.59822C12.5398 4.60322 12.5398 4.60922 12.5398 4.61522C12.5698 5.99622 12.5688 8.13522 12.5688 9.00222C12.5688 9.70822 12.1198 10.4022 11.5188 11.0322C10.5438 12.0542 9.12882 12.8872 7.97482 13.2222C6.81282 12.8842 5.42182 12.0552 4.46782 11.0362C3.87782 10.4062 3.44082 9.71122 3.44082 9.00222ZM6.82082 9.28522H9.18782L9.65782 10.2472C9.83882 10.6192 10.2888 10.7732 10.6608 10.5922C11.0328 10.4102 11.1868 9.96122 11.0048 9.58922L8.69182 4.85322C8.56682 4.59622 8.30582 4.43322 8.01982 4.43222C7.73382 4.43122 7.47282 4.59322 7.34582 4.84922L4.99882 9.58522C4.81482 9.95622 4.96682 10.4062 5.33782 10.5902C5.70782 10.7742 6.15882 10.6222 6.34282 10.2512L6.82082 9.28522ZM7.51482 7.88522H8.50382L8.01282 6.88122L7.51482 7.88522Z" fill="black"/>
</svg>
