<svg width="24" height="24" viewBox="0 0 24 24" fill="none" xmlns="http://www.w3.org/2000/svg">
<path fill-rule="evenodd" clip-rule="evenodd" d="M3.00049 6.221V13.505C3.00049 15.0681 3.82899 16.6677 5.12659 18.0587C6.92179 19.9833 9.59509 21.5161 11.7234 22.0472C11.8818 22.0868 12.0474 22.0869 12.2059 22.0477C14.3113 21.5263 17.0216 19.9924 18.8497 18.0671C20.174 16.6723 21.0235 15.0672 21.0235 13.505C21.0235 12.0493 21.0235 8.2183 21.0025 6.2319C20.999 5.0842 20.3376 4.041 19.3003 3.5486C19.2888 3.5431 19.2772 3.5379 19.2654 3.5329C17.8007 2.9051 15.1341 2 11.9425 2C8.76219 2 6.16479 2.8981 4.72839 3.5048C4.71059 3.5123 4.69289 3.5204 4.67559 3.529C3.64979 4.0344 3.00049 5.0782 3.00049 6.221ZM5.00049 6.221C5.00049 5.8516 5.20399 5.5133 5.52799 5.3392C6.82549 4.793 9.12759 4 11.9425 4C14.7686 4 17.1329 4.7982 18.4466 5.3579C18.791 5.5278 19.0025 5.8678 19.0025 6.241C19.0025 6.2445 19.0025 6.2481 19.0026 6.2516C19.0235 8.2317 19.0235 12.0531 19.0235 13.505C19.0235 14.6102 18.3362 15.7032 17.3994 16.6899C15.9054 18.2633 13.7294 19.5423 11.9679 20.0418C10.1941 19.5372 8.05249 18.2635 6.58909 16.6945C5.66909 15.7082 5.00049 14.6133 5.00049 13.505V6.221ZM10.7329 6.8066L9.72149 8.6515L7.65429 9.0434C7.13129 9.1425 6.70399 9.5188 6.53949 10.025C6.37499 10.5313 6.49949 11.0869 6.86439 11.4745L8.30639 13.0066L8.04029 15.0937C7.97299 15.6217 8.19879 16.1444 8.62939 16.4573C9.06009 16.7702 9.62699 16.8234 10.1083 16.5962L12.0111 15.6982L13.9138 16.5962C14.3951 16.8234 14.9621 16.7702 15.3927 16.4573C15.8233 16.1444 16.0492 15.6217 15.9818 15.0937L15.7157 13.0066L17.1578 11.4745C17.5226 11.0869 17.6471 10.5313 17.4827 10.025C17.3182 9.5188 16.8908 9.1425 16.3678 9.0434L14.3007 8.6515L13.2892 6.8066C13.0333 6.3399 12.5433 6.0497 12.0111 6.0497C11.4788 6.0497 10.9888 6.3399 10.7329 6.8066ZM12.0111 8.2195L12.9265 9.8893C13.0558 10.1251 13.2838 10.2908 13.5481 10.3409L15.419 10.6956L14.1139 12.0822C13.9295 12.2781 13.8424 12.5461 13.8765 12.8129L14.1173 14.7019L12.3952 13.8891C12.152 13.7743 11.8702 13.7743 11.6269 13.8891L9.90479 14.7019L10.1457 12.8129C10.1797 12.5461 10.0926 12.2781 9.90829 12.0822L8.60309 10.6956L10.474 10.3409C10.7383 10.2908 10.9663 10.1251 11.0956 9.8893L12.0111 8.2195Z" fill="black"/>
</svg>
