<svg width="16" height="16" viewBox="0 0 16 16" fill="none" xmlns="http://www.w3.org/2000/svg">
<path fill-rule="evenodd" clip-rule="evenodd" d="M1.84082 4.58022V9.00222C1.84082 10.0752 2.40582 11.1762 3.29982 12.1302C4.51882 13.4322 6.33482 14.4672 7.78082 14.8262C7.90682 14.8582 8.03882 14.8582 8.16482 14.8272C9.59482 14.4742 11.4348 13.4382 12.6768 12.1372C13.5898 11.1792 14.1688 10.0752 14.1688 9.00222C14.1688 8.13022 14.1688 5.97922 14.1398 4.58722C14.1358 3.47022 13.4608 2.46422 12.4268 2.03722C12.4188 2.03422 12.4108 2.03022 12.4028 2.02722C11.3618 1.63622 9.78782 1.19922 7.95882 1.19922C6.14782 1.19922 4.61682 1.62722 3.59282 1.98422C3.57582 1.99022 3.55882 1.99722 3.54182 2.00422C2.50982 2.44422 1.83982 3.45822 1.84082 4.58022ZM3.44082 9.00222V4.57922C3.44082 4.11022 3.71382 3.68422 4.13882 3.48922C5.04782 3.17322 6.38182 2.79922 7.95882 2.79922C9.54282 2.79922 10.9088 3.17722 11.8178 3.51722C12.2588 3.70322 12.5398 4.12722 12.5398 4.59822C12.5398 4.60322 12.5398 4.60922 12.5398 4.61522C12.5698 5.99622 12.5688 8.13522 12.5688 9.00222C12.5688 9.70822 12.1198 10.4022 11.5188 11.0322C10.5438 12.0542 9.12882 12.8872 7.97482 13.2222C6.81282 12.8842 5.42182 12.0552 4.46782 11.0362C3.87782 10.4062 3.44082 9.71122 3.44082 9.00222ZM4.91282 8.39822L6.94382 10.4602C7.10782 10.6272 7.33482 10.7192 7.56882 10.7142C7.80382 10.7082 8.02482 10.6062 8.18182 10.4322L11.5688 6.66022C11.8818 6.31122 11.8528 5.77322 11.5038 5.46022C11.1548 5.14622 10.6168 5.17522 10.3038 5.52422L7.52082 8.62422L6.12382 7.20522C5.79482 6.87122 5.25682 6.86722 4.92182 7.19622C4.58782 7.52522 4.58382 8.06422 4.91282 8.39822Z" fill="black"/>
</svg>
