<svg width="24" height="24" viewBox="0 0 24 24" fill="none" xmlns="http://www.w3.org/2000/svg">
<path fill-rule="evenodd" clip-rule="evenodd" d="M3.01514 6.221V13.505C3.01514 15.068 3.84214 16.667 5.13814 18.058C6.93214 19.983 9.60314 21.516 11.7291 22.047C11.8881 22.087 12.0541 22.087 12.2121 22.048C14.3161 21.526 17.0241 19.992 18.8501 18.067C20.1731 16.672 21.0221 15.067 21.0221 13.505C21.0221 12.049 21.0221 8.217 21.0021 6.231C20.9981 5.085 20.3371 4.041 19.3001 3.549C19.2881 3.543 19.2771 3.538 19.2651 3.533C17.8021 2.904 15.1381 2 11.9491 2C8.77114 2 6.17714 2.898 4.74114 3.505C4.72414 3.512 4.70714 3.52 4.69014 3.528C3.66414 4.033 3.01514 5.078 3.01514 6.221ZM5.01514 6.221C5.01514 5.852 5.21714 5.513 5.54014 5.34C6.83714 4.793 9.13614 4 11.9491 4C14.7721 4 17.1331 4.797 18.4451 5.358C18.7901 5.527 19.0021 5.867 19.0021 6.24C19.0021 6.243 19.0021 6.247 19.0021 6.25C19.0221 8.23 19.0221 12.053 19.0221 13.505C19.0221 14.61 18.3351 15.704 17.3991 16.69C15.9071 18.263 13.7341 19.542 11.9741 20.042C10.2021 19.537 8.06314 18.264 6.60214 16.695C5.68214 15.709 5.01514 14.613 5.01514 13.505V6.221ZM8.93814 14.517V11.147L11.4181 13.603C11.7691 13.951 12.3341 13.951 12.6851 13.604L15.1211 11.192V14.517C15.1211 15.014 15.5241 15.417 16.0211 15.417C16.5171 15.417 16.9211 15.014 16.9211 14.517V9.035C16.9211 8.672 16.7021 8.344 16.3671 8.204C16.0321 8.065 15.6461 8.14 15.3881 8.395L12.0521 11.697L8.67114 8.35C8.41314 8.094 8.02614 8.019 7.69114 8.158C7.35614 8.298 7.13814 8.626 7.13814 8.989V14.517C7.13814 15.014 7.54114 15.417 8.03814 15.417C8.53414 15.417 8.93814 15.014 8.93814 14.517Z" fill="black"/>
</svg>
