<svg width="12" height="12" viewBox="0 0 12 12" fill="none" xmlns="http://www.w3.org/2000/svg">
<path fill-rule="evenodd" clip-rule="evenodd" d="M0.578125 2.71242V6.85462C0.578125 7.79882 1.07552 8.77052 1.87102 9.61082C2.93733 10.7369 4.52562 11.633 5.78982 11.9438C5.91582 11.9747 6.04742 11.9748 6.17352 11.9441C7.42352 11.6392 9.03303 10.7431 10.1183 9.61702C10.9305 8.77432 11.4402 7.79852 11.4402 6.85462C11.4402 6.02642 11.4402 3.84622 11.4286 2.71602C11.4259 1.97302 10.9932 1.29492 10.31 0.975719C10.301 0.971519 10.2919 0.967519 10.2828 0.963619C9.41973 0.598719 7.84912 0.0742188 5.96912 0.0742188C4.09572 0.0742188 2.56613 0.595019 1.71973 0.947019C1.70582 0.952819 1.69202 0.959019 1.67842 0.965619C1.00262 1.29232 0.578125 1.97152 0.578125 2.71242ZM2.19103 2.71242C2.19103 2.59382 2.25752 2.48602 2.36133 2.42772C3.09403 2.12462 4.38792 1.68712 5.96912 1.68712C7.55582 1.68712 8.88412 2.12642 9.62722 2.43762C9.74492 2.49642 9.81583 2.60372 9.81583 2.72322C9.81583 2.72592 9.81583 2.72872 9.81583 2.73152C9.82733 3.85692 9.82732 6.02942 9.82732 6.85462C9.82732 7.42772 9.45012 7.98612 8.95702 8.49772C8.13942 9.34602 6.95632 10.0397 5.98382 10.3253C5.00652 10.0377 3.84273 9.34732 3.04233 8.50182C2.55772 7.99012 2.19103 7.42972 2.19103 6.85462V2.71242Z" fill="black"/>
<path d="M5.73823 2.85382C5.78283 2.75632 5.88013 2.69382 5.98733 2.69382C6.09453 2.69382 6.19183 2.75632 6.23643 2.85382L6.96133 4.43812L8.69213 4.63792C8.79853 4.65022 8.88803 4.72352 8.92113 4.82542C8.95433 4.92732 8.92493 5.03922 8.84603 5.11172L7.56323 6.29072L7.90803 7.99852C7.92923 8.10362 7.88723 8.21132 7.80053 8.27432C7.71383 8.33732 7.59833 8.34402 7.50503 8.29132L5.98733 7.43572L4.46963 8.29132C4.37633 8.34402 4.26083 8.33732 4.17413 8.27432C4.08743 8.21132 4.04543 8.10362 4.06663 7.99852L4.41143 6.29072L3.12863 5.11172C3.04973 5.03922 3.02033 4.92732 3.05353 4.82542C3.08663 4.72352 3.17613 4.65022 3.28253 4.63792L5.01333 4.43812L5.73823 2.85382Z" fill="black"/>
</svg>
