<svg width="24" height="24" viewBox="0 0 24 24" fill="none" xmlns="http://www.w3.org/2000/svg">
<path fill-rule="evenodd" clip-rule="evenodd" d="M21.01 7.40063C21.0214 9.46733 21.0214 12.3014 21.0214 13.5066C21.0214 15.0687 20.1728 16.6736 18.8499 18.0683C17.0235 19.9938 14.3157 21.5278 12.212 22.0492C12.0534 22.0885 11.8876 22.0884 11.7291 22.0488C10.5752 21.7606 9.26114 21.1775 8.01394 20.3967L9.46574 18.9449C10.3129 19.437 11.1801 19.8173 11.9738 20.0433C13.7333 19.5438 15.9067 18.265 17.3989 16.6919C18.3349 15.7051 19.0214 14.6119 19.0214 13.5066C19.0214 12.6615 19.0214 11.0135 19.0175 9.39313L21.01 7.40063ZM19.0397 3.43983L21.1381 1.34143C21.5674 0.912231 22.2645 0.912231 22.6937 1.34143C23.123 1.77073 23.123 2.46783 22.6937 2.89713L3.89564 21.6952C3.46634 22.1245 2.76934 22.1245 2.34004 21.6952C1.91074 21.2659 1.91074 20.5689 2.34004 20.1396L4.80004 17.6796C3.69974 16.3814 3.01434 14.9289 3.01434 13.5066V6.22263C3.01434 5.07943 3.66324 4.03413 4.68944 3.53003C4.70644 3.52173 4.72364 3.51393 4.74104 3.50653C6.17654 2.89983 8.77104 2.00163 11.9484 2.00163C14.9801 2.00163 17.5373 2.81893 19.0397 3.43983ZM17.4924 4.98713C16.1277 4.50093 14.1827 4.00163 11.9484 4.00163C9.13614 4.00163 6.83674 4.79483 5.54004 5.34123C5.21644 5.51463 5.01434 5.85363 5.01434 6.22263V13.5066C5.01434 14.4543 5.50254 15.3923 6.21874 16.2609L7.36414 15.1155C7.22314 14.9566 7.13744 14.7475 7.13744 14.5186V8.99063C7.13744 8.62743 7.35574 8.29983 7.69104 8.16003C8.02624 8.02013 8.41264 8.09553 8.67074 8.35113L11.4129 11.0667L17.4924 4.98713ZM16.9204 11.4902L15.1204 13.2902V14.5186C15.1204 15.0153 15.5237 15.4186 16.0204 15.4186C16.5171 15.4186 16.9204 15.0153 16.9204 14.5186V11.4902ZM8.93744 13.5421L10.1401 12.3395L8.93744 11.1485V13.5421Z" fill="black"/>
</svg>
