<svg width="16" height="16" viewBox="0 0 16 16" fill="none" xmlns="http://www.w3.org/2000/svg">
<path fill-rule="evenodd" clip-rule="evenodd" d="M1.84082 4.57992V9.00242C1.84082 10.0754 2.40612 11.1759 3.30052 12.1306C4.51962 13.4319 6.33532 14.4675 7.78082 14.8267C7.90702 14.858 8.03902 14.8582 8.16522 14.827C9.59492 14.4745 11.4355 13.4384 12.6769 12.1369C13.5899 11.1796 14.1695 10.0748 14.1695 9.00242C14.1695 8.13002 14.1695 5.97932 14.1404 4.58752C14.1362 3.47002 13.4609 2.46392 12.4274 2.03702C12.4195 2.03372 12.4115 2.03062 12.4035 2.02762C11.3625 1.63622 9.78792 1.19922 7.95862 1.19922C6.14772 1.19922 4.61682 1.62752 3.59272 1.98442C3.57562 1.99032 3.55872 1.99692 3.54202 2.00402C2.51002 2.44422 1.84052 3.45792 1.84082 4.57992ZM3.44082 9.00242V4.57972C3.44062 4.10992 3.71452 3.68442 4.13962 3.48912C5.04802 3.17352 6.38222 2.79922 7.95862 2.79922C9.54352 2.79922 10.9091 3.17732 11.8184 3.51702C12.2589 3.70322 12.5404 4.12752 12.5404 4.59802C12.5404 4.60362 12.5405 4.60922 12.5406 4.61482C12.5696 5.99582 12.5695 8.13532 12.5695 9.00242C12.5695 9.70852 12.1202 10.4023 11.519 11.0326C10.5444 12.0545 9.12942 12.8876 7.97522 13.2218C6.81352 12.8841 5.42212 12.055 4.46812 11.0367C3.87772 10.4064 3.44082 9.71082 3.44082 9.00242ZM8.18662 10.7803C9.12622 10.7803 9.82822 10.4567 10.24 10.0778C10.5268 9.81402 10.6736 9.52082 10.6736 9.28532C10.6736 8.90402 10.3682 8.60572 10.0024 8.60572C9.73322 8.60572 9.53852 8.71402 9.33522 8.84692C9.05832 9.02782 8.76262 9.25612 8.18662 9.25612C7.31572 9.25612 6.66272 8.55452 6.66272 7.63632C6.66272 6.71822 7.31572 6.01652 8.18662 6.01652C8.75732 6.01652 9.04762 6.24492 9.32482 6.42582C9.52832 6.55862 9.72582 6.66702 10.0024 6.66702C10.3682 6.66702 10.6736 6.36862 10.6736 5.98732C10.6736 5.75962 10.527 5.46772 10.2401 5.20292C9.82832 4.82262 9.12622 4.49242 8.18662 4.49242C6.44662 4.49242 5.06732 5.88122 5.06732 7.63632C5.06732 9.39152 6.44662 10.7803 8.18662 10.7803Z" fill="black"/>
</svg>
