<svg width="24" height="24" viewBox="0 0 24 24" fill="none" xmlns="http://www.w3.org/2000/svg">
<path d="M7.81423 12.2617L10.7262 15.2197C10.9292 15.4257 11.2082 15.5387 11.4982 15.5327C11.7872 15.5257 12.0612 15.4007 12.2552 15.1857L17.2602 9.62769C17.6472 9.19669 17.6132 8.53269 17.1822 8.14469C16.7512 7.75669 16.0872 7.79169 15.6992 8.22169L11.4402 12.9517L9.31123 10.7877C8.90423 10.3747 8.23923 10.3697 7.82623 10.7767C7.41323 11.1827 7.40723 11.8487 7.81423 12.2617Z" fill="black"/>
<path fill-rule="evenodd" clip-rule="evenodd" d="M3.00098 6.221V13.505C3.00098 15.068 3.82898 16.668 5.12698 18.059C6.92198 19.983 9.59498 21.516 11.723 22.047C11.882 22.087 12.047 22.087 12.206 22.048C14.311 21.526 17.022 19.992 18.85 18.067C20.174 16.672 21.024 15.067 21.024 13.505C21.024 12.049 21.023 8.218 21.002 6.232C20.999 5.084 20.338 4.041 19.3 3.549C19.289 3.543 19.277 3.538 19.265 3.533C17.801 2.905 15.134 2 11.943 2C8.76198 2 6.16498 2.898 4.72798 3.505C4.71098 3.512 4.69298 3.52 4.67598 3.529C3.64998 4.034 3.00098 5.078 3.00098 6.221ZM5.52798 5.339C5.20398 5.513 5.00098 5.852 5.00098 6.221V13.505C5.00098 14.613 5.66898 15.708 6.58898 16.695C8.05298 18.263 10.194 19.537 11.968 20.042C13.729 19.542 15.905 18.263 17.399 16.69C18.336 15.703 19.024 14.61 19.024 13.505C19.024 12.053 19.024 8.232 19.003 6.252V6.241C19.003 5.868 18.791 5.528 18.447 5.358C17.133 4.798 14.769 4 11.943 4C9.12798 4 6.82598 4.793 5.52798 5.339Z" fill="black"/>
</svg>
