<svg width="16" height="16" viewBox="0 0 16 16" fill="none" xmlns="http://www.w3.org/2000/svg">
<path fill-rule="evenodd" clip-rule="evenodd" d="M12.062 12.6702C12.792 12.6702 13.384 13.2602 13.384 13.9902C13.384 14.7202 12.792 15.3102 12.062 15.3102C11.332 15.3102 10.74 14.7202 10.74 13.9902C10.74 13.2602 11.332 12.6702 12.062 12.6702ZM7.044 12.6702C7.774 12.6702 8.366 13.2602 8.366 13.9902C8.366 14.7202 7.774 15.3102 7.044 15.3102C6.315 15.3102 5.722 14.7202 5.722 13.9902C5.722 13.2602 6.315 12.6702 7.044 12.6702ZM3.537 6.72016L3.784 9.07016C3.945 10.6002 5.232 11.7502 6.768 11.7502H12.295C13.819 11.7502 15.101 10.6102 15.276 9.10016L15.642 5.92016C15.701 5.41016 15.539 4.90016 15.198 4.52016C14.856 4.13016 14.367 3.91016 13.854 3.91016H4.829L4.692 2.70016C4.56 1.54016 3.576 0.660156 2.406 0.660156C1.628 0.660156 0.8 0.660156 0.8 0.660156C0.358 0.660156 0 1.02016 0 1.46016C0 1.90016 0.358 2.26016 0.8 2.26016C0.8 2.26016 1.628 2.26016 2.406 2.26016C2.762 2.26016 3.062 2.53016 3.102 2.88016L3.534 6.70016L3.537 6.72016ZM5.02 5.51016H13.854C13.911 5.51016 13.965 5.54016 14.003 5.58016C14.041 5.62016 14.059 5.68016 14.053 5.74016L13.686 8.92016C13.605 9.62016 13.007 10.1502 12.296 10.1502H6.768C6.051 10.1502 5.45 9.61016 5.376 8.90016L5.02 5.51016Z" fill="black"/>
</svg>
