<svg width="24" height="24" viewBox="0 0 24 24" fill="none" xmlns="http://www.w3.org/2000/svg">
<path fill-rule="evenodd" clip-rule="evenodd" d="M18.0298 20C19.1198 20 20.0098 20.89 20.0098 21.98C20.0098 23.08 19.1198 23.97 18.0298 23.97C16.9398 23.97 16.0498 23.08 16.0498 21.98C16.0498 20.89 16.9398 20 18.0298 20ZM11.0298 20C12.1198 20 13.0098 20.89 13.0098 21.98C13.0098 23.08 12.1198 23.97 11.0298 23.97C9.9398 23.97 9.0498 23.08 9.0498 21.98C9.0498 20.89 9.9398 20 11.0298 20ZM5.1598 9.18V9.21L5.1698 9.32L5.3498 11.1C5.35981 11.15 5.3598 11.2 5.3798 11.25L5.8198 15.42C6.0398 17.46 7.7498 19 9.7998 19H18.4098C20.4598 19 22.1698 17.46 22.3898 15.42L23.0498 9.21C23.1098 8.65 22.9298 8.08 22.5498 7.66C22.1698 7.24 21.6298 7 21.0598 7C18.1098 7 10.0998 7 7.1498 7L6.9498 7.01L6.8198 5.7C6.6698 4.17 5.3798 3 3.8398 3C2.5498 3 1.0498 3 1.0498 3C0.489805 3 0.0498047 3.45 0.0498047 4C0.0498047 4.55 0.489805 5 1.0498 5C1.0498 5 2.5498 5 3.8398 5C4.3498 5 4.7798 5.39 4.8298 5.9L5.1598 9.18ZM7.1498 9H21.0598L20.3998 15.21C20.2898 16.23 19.4398 17 18.4098 17H9.7998C8.7798 17 7.9198 16.23 7.8098 15.21L7.1598 9.11L7.1498 9Z" fill="black"/>
</svg>
