<svg width="24" height="24" viewBox="0 0 24 24" fill="none" xmlns="http://www.w3.org/2000/svg">
<path fill-rule="evenodd" clip-rule="evenodd" d="M21 8C21 5.24 18.761 3 16 3C13.557 3 10.443 3 8 3C5.239 3 3 5.24 3 8C3 10.44 3 13.56 3 16C3 18.76 5.239 21 8 21C10.443 21 13.557 21 16 21C18.761 21 21 18.76 21 16V8ZM19 8V16C19 17.66 17.657 19 16 19H8C6.343 19 5 17.66 5 16V8C5 6.34 6.343 5 8 5H16C17.657 5 19 6.34 19 8ZM13.531 9.01L7.246 15.29C6.856 15.68 6.856 16.32 7.246 16.71C7.459 16.92 7.745 17.02 8.023 17H8.034C8.236 17.01 8.439 16.96 8.613 16.86C8.681 16.81 8.744 16.76 8.801 16.71L15.01 10.5V13.52C15.01 14.07 15.458 14.52 16.01 14.52C16.562 14.52 17.01 14.07 17.01 13.52V8.01C17.01 7.46 16.562 7.01 16.01 7.01H10.516C9.964 7.01 9.516 7.46 9.516 8.01C9.516 8.56 9.964 9.01 10.516 9.01H13.531Z" fill="black"/>
</svg>
