<svg width="24" height="24" viewBox="0 0 24 24" fill="none" xmlns="http://www.w3.org/2000/svg">
<path fill-rule="evenodd" clip-rule="evenodd" d="M22 7C22 5.67 21.473 4.4 20.536 3.46C19.598 2.53 18.326 2 17 2H7C5.674 2 4.402 2.53 3.4645 3.46C2.5268 4.4 2 5.67 2 7V17C2 18.33 2.5268 19.6 3.4645 20.54C4.402 21.47 5.674 22 7 22C9.977 22 14.023 22 17 22C18.326 22 19.598 21.47 20.536 20.54C21.473 19.6 22 18.33 22 17V7ZM20 7V17C20 17.8 19.684 18.56 19.121 19.12C18.559 19.68 17.796 20 17 20C14.023 20 9.977 20 7 20C6.204 20 5.441 19.68 4.879 19.12C4.316 18.56 4 17.8 4 17V7C4 6.2 4.316 5.44 4.879 4.88C5.441 4.32 6.204 4 7 4C9.977 4 14.023 4 17 4C17.796 4 18.559 4.32 19.121 4.88C19.684 5.44 20 6.2 20 7ZM9.058 10.46C8.041 11.8 6.917 13.62 6.288 15.68C5.89 16.98 6.539 18.01 7.443 18.45C8.35 18.89 9.561 18.76 10.333 17.62C11.079 16.51 12.228 15.49 13.283 14.68L14.583 15.98C15.155 16.55 16.016 16.72 16.763 16.42C17.51 16.11 17.997 15.38 17.997 14.57V7.98C17.997 6.88 17.102 5.98 15.998 5.98H9.412C8.603 5.98 7.874 6.47 7.564 7.22C7.254 7.96 7.425 8.82 7.997 9.4L9.058 10.46ZM9.412 7.98H15.997V14.57L14.088 12.66C13.742 12.31 13.197 12.27 12.799 12.55C11.422 13.54 9.716 14.96 8.677 16.5C8.576 16.65 8.433 16.71 8.314 16.65C8.192 16.59 8.147 16.44 8.201 16.26C8.864 14.09 10.16 12.23 11.165 11.01C11.493 10.62 11.465 10.04 11.101 9.67L9.412 7.98Z" fill="black"/>
</svg>
