<svg width="24" height="24" viewBox="0 0 24 24" fill="none" xmlns="http://www.w3.org/2000/svg">
<path fill-rule="evenodd" clip-rule="evenodd" d="M19.5889 6.00047H16.6499C14.6919 6.00047 12.8579 6.96047 11.7349 8.56047L10.5469 10.2605L9.35888 8.56047C8.23588 6.96047 6.40188 6.00047 4.44388 6.00047H2.04688C1.49488 6.00047 1.04688 6.45047 1.04688 7.00047C1.04688 7.55047 1.49488 8.00047 2.04688 8.00047H4.44388C5.74888 8.00047 6.97187 8.64047 7.72087 9.71047L9.32588 12.0005L7.72087 14.2905C6.97187 15.3605 5.74888 16.0005 4.44388 16.0005H2.04688C1.49488 16.0005 1.04688 16.4505 1.04688 17.0005C1.04688 17.5505 1.49488 18.0005 2.04688 18.0005H4.44388C6.40188 18.0005 8.23588 17.0405 9.35888 15.4405L10.5469 13.7405L11.7349 15.4405C12.8579 17.0405 14.6919 18.0005 16.6499 18.0005H19.6209L18.4649 19.1605C18.0749 19.5505 18.0749 20.1805 18.4649 20.5705C18.8549 20.9605 19.4889 20.9605 19.8789 20.5705L22.7269 17.7205C23.1169 17.3305 23.1169 16.7005 22.7269 16.3105L19.8789 13.4605C19.4889 13.0705 18.8549 13.0705 18.4649 13.4605C18.0749 13.8505 18.0749 14.4905 18.4649 14.8805L19.5889 16.0005H16.6499C15.3449 16.0005 14.1219 15.3605 13.3729 14.2905L11.7679 12.0005L13.3729 9.71047C14.1219 8.64047 15.3449 8.00047 16.6499 8.00047H19.6209L18.4649 9.16047C18.0749 9.55047 18.0749 10.1805 18.4649 10.5705C18.8549 10.9605 19.4889 10.9605 19.8789 10.5705L22.7269 7.72047C23.1169 7.33047 23.1169 6.70047 22.7269 6.31047L19.8789 3.46047C19.4889 3.07047 18.8549 3.07047 18.4649 3.46047C18.0749 3.85047 18.0749 4.49047 18.4649 4.88047L19.5889 6.00047Z" fill="black"/>
</svg>
