<svg width="16" height="16" viewBox="0 0 16 16" fill="none" xmlns="http://www.w3.org/2000/svg">
<path d="M0.596191 4.47072C0.596191 4.02889 0.954364 3.67072 1.39619 3.67072H2.03919C3.98682 3.67072 5.80482 4.64469 6.87944 6.26938C6.9401 6.36097 7.00134 6.4536 7.06305 6.54703C7.26373 6.85086 7.46938 7.16331 7.67515 7.47594C7.79052 7.65122 7.90597 7.82662 8.02068 8.00072C8.21064 8.28902 8.39859 8.57375 8.58083 8.84846L8.58166 8.84971C9.35796 10.0246 10.6737 10.7307 12.0862 10.7307H13.1852H13.8574C14.2993 10.7307 14.6582 11.0889 14.6582 11.5307C14.6582 11.9725 14.3 12.3307 13.8582 12.3307H13.0874H12.0862C10.1389 12.3307 8.32089 11.357 7.24714 9.73235C7.18682 9.64142 7.12537 9.54863 7.06305 9.45441C6.82789 9.09884 6.58034 8.72276 6.33436 8.34907C6.25762 8.23249 6.18103 8.11614 6.10502 8.00072C5.91242 7.70824 5.72351 7.42171 5.54518 7.15241C4.7678 5.9771 3.45156 5.27072 2.03919 5.27072H1.39619C0.954364 5.27072 0.596191 4.91254 0.596191 4.47072Z" fill="black"/>
<path d="M6.33436 8.34907C6.25762 8.23249 6.18103 8.11614 6.10502 8.00072C5.91242 8.29319 5.72351 8.57972 5.54518 8.84903C4.7678 10.0243 3.45156 10.7307 2.03919 10.7307H1.39619C0.954364 10.7307 0.596191 11.0889 0.596191 11.5307C0.596191 11.9725 0.954364 12.3307 1.39619 12.3307H2.03919C3.98682 12.3307 5.80482 11.3567 6.87944 9.73206C6.9401 9.64046 7.00134 9.54783 7.06305 9.45441C6.82789 9.09884 6.58034 8.72276 6.33436 8.34907Z" fill="black"/>
<path d="M7.67515 7.47594C7.79052 7.65122 7.90597 7.82662 8.02068 8.00072C8.21064 7.71241 8.39859 7.42768 8.58083 7.15298L8.58166 7.15173C9.35796 5.97679 10.6737 5.27072 12.0862 5.27072H13.1461L13.9362 4.47961L13.1283 3.67072H12.0862C10.1389 3.67072 8.32089 4.6444 7.24714 6.26909C7.18682 6.36001 7.12537 6.4528 7.06305 6.54703C7.26373 6.85086 7.46938 7.16331 7.67515 7.47594Z" fill="black"/>
<path d="M14.6582 4.47072C14.6582 4.91255 14.2993 5.27072 13.8574 5.27072H13.1461L12.3582 6.05961C12.0462 6.36961 12.0462 6.87961 12.3582 7.18961C12.6702 7.49961 13.1772 7.49961 13.4902 7.18961L15.6332 5.04961C15.9452 4.73961 15.9452 4.22961 15.6332 3.91961L13.4902 1.76961C13.1772 1.45961 12.6702 1.45961 12.3582 1.76961C12.0462 2.08961 12.0462 2.58961 12.3582 2.89961L13.1283 3.67072H13.8582C14.3 3.67072 14.6582 4.02889 14.6582 4.47072Z" fill="black"/>
<path d="M13.8574 5.27072C14.2993 5.27072 14.6582 4.91255 14.6582 4.47072C14.6582 4.02889 14.3 3.67072 13.8582 3.67072H13.1283L13.9362 4.47961L13.1461 5.27072H13.8574Z" fill="black"/>
<path d="M13.8574 10.7307C14.2993 10.7307 14.6582 11.0889 14.6582 11.5307C14.6582 11.9725 14.3 12.3307 13.8582 12.3307H13.0874L12.3511 13.0693C12.0381 13.3793 12.0381 13.8893 12.3511 14.1993C12.6631 14.5093 13.1701 14.5093 13.4821 14.1993L15.6331 12.0493C15.9451 11.7393 15.9451 11.2293 15.6331 10.9193L13.4821 8.7693C13.1701 8.4493 12.6631 8.4493 12.3511 8.7693C12.0381 9.0793 12.0381 9.5893 12.3511 9.8993L13.1852 10.7307H13.8574Z" fill="black"/>
</svg>
