<svg width="16" height="16" viewBox="0 0 16 16" fill="none" xmlns="http://www.w3.org/2000/svg">
<path fill-rule="evenodd" clip-rule="evenodd" d="M15 6C15 4.67 14.473 3.4 13.536 2.46C12.598 1.53 11.326 1 10 1H6C4.674 1 3.402 1.53 2.464 2.46C1.527 3.4 1 4.67 1 6V10C1 11.33 1.527 12.6 2.464 13.54C3.402 14.47 4.674 15 6 15H10C11.326 15 12.598 14.47 13.536 13.54C14.473 12.6 15 11.33 15 10V6ZM9.327 9.22C9.203 9.74 8.577 10.06 8.004 10.06C7.428 10.06 6.818 9.71 6.68 9.2C6.565 8.78 6.125 8.52 5.699 8.64C5.273 8.76 5.02 9.2 5.136 9.62C5.444 10.76 6.719 11.66 8.004 11.66C9.3 11.66 10.604 10.77 10.884 9.58C10.986 9.15 10.719 8.72 10.29 8.62C9.86 8.52 9.429 8.79 9.327 9.22ZM9.785 4.92C10.367 4.92 10.84 5.41 10.84 6.01C10.84 6.62 10.367 7.11 9.785 7.11C9.202 7.11 8.729 6.62 8.729 6.01C8.729 5.41 9.202 4.92 9.785 4.92ZM6.137 4.91C6.719 4.91 7.192 5.4 7.192 6.01C7.192 6.61 6.719 7.1 6.137 7.1C5.554 7.1 5.081 6.61 5.081 6.01C5.081 5.4 5.554 4.91 6.137 4.91Z" fill="black"/>
</svg>
