<svg width="24" height="24" viewBox="0 0 24 24" fill="none" xmlns="http://www.w3.org/2000/svg">
<path fill-rule="evenodd" clip-rule="evenodd" d="M12.0162 2.00391C6.51528 2.00391 2.04688 6.48861 2.04688 12.0153C2.04688 17.542 6.51528 22.0267 12.0162 22.0267C17.5172 22.0267 21.9856 17.542 21.9856 12.0153C21.9856 6.48861 17.5172 2.00391 12.0162 2.00391ZM12.0162 4.00391C16.4159 4.00391 19.9856 7.59501 19.9856 12.0153C19.9856 16.4356 16.4159 20.0267 12.0162 20.0267C7.61657 20.0267 4.04688 16.4356 4.04688 12.0153C4.04688 7.59501 7.61657 4.00391 12.0162 4.00391ZM9.83078 16.2901C10.1346 15.6284 11.0993 15.2485 11.998 15.2485C12.9064 15.2485 13.8616 15.6629 14.1701 16.3214C14.3926 16.7962 14.9587 17.001 15.4335 16.7785C15.9082 16.556 16.1131 15.99 15.8906 15.5152C15.3232 14.3043 13.6684 13.3485 11.998 13.3485C10.3357 13.3485 8.66588 14.2734 8.10398 15.4975C7.88528 15.974 8.09458 16.5385 8.57108 16.7572C9.04758 16.9759 9.61208 16.7667 9.83078 16.2901ZM14.4707 7.86301C15.2659 7.86301 15.9115 8.60031 15.9115 9.50861C15.9115 10.4169 15.2659 11.1543 14.4707 11.1543C13.6755 11.1543 13.0299 10.4169 13.0299 9.50861C13.0299 8.60031 13.6755 7.86301 14.4707 7.86301ZM9.52697 7.86301C10.3222 7.86301 10.9678 8.60031 10.9678 9.50861C10.9678 10.4169 10.3222 11.1543 9.52697 11.1543C8.73177 11.1543 8.08617 10.4169 8.08617 9.50861C8.08617 8.60031 8.73177 7.86301 9.52697 7.86301Z" fill="black"/>
</svg>
