<svg width="16" height="16" viewBox="0 0 16 16" fill="none" xmlns="http://www.w3.org/2000/svg">
<path fill-rule="evenodd" clip-rule="evenodd" d="M7.99508 1.32812C11.6734 1.32812 14.6601 4.31785 14.6601 7.99312C14.6601 11.6684 11.6734 14.6581 7.99508 14.6581C4.31579 14.6581 1.33008 11.6684 1.33008 7.99312C1.33008 4.31785 4.31579 1.32812 7.99508 1.32812ZM9.41382 9.25946C9.2818 9.77362 8.61215 10.0783 8.00372 10.0783C7.39337 10.0783 6.73998 9.74506 6.59361 9.24994C6.47594 8.84052 6.05119 8.61201 5.64557 8.72626C5.23995 8.84052 5.00557 9.26899 5.12323 9.66889C5.43415 10.7353 6.71032 11.6017 8.00372 11.6017C9.3105 11.6017 10.6144 10.7448 10.8976 9.6308C11.0009 9.22138 10.7531 8.81196 10.3437 8.70722C9.93424 8.60249 9.51714 8.85004 9.41382 9.25946ZM9.57927 5.1367C10.1332 5.1367 10.5828 5.61277 10.5828 6.2031C10.5828 6.7839 10.1332 7.25997 9.57927 7.25997C9.02537 7.25997 8.57574 6.7839 8.57574 6.2031C8.57574 5.61277 9.02537 5.1367 9.57927 5.1367ZM6.3487 5.1367C6.9026 5.1367 7.35223 5.61277 7.35223 6.2031C7.35223 6.7839 6.9026 7.25997 6.3487 7.25997C5.79576 7.25997 5.34613 6.7839 5.34613 6.2031C5.34613 5.61277 5.79576 5.1367 6.3487 5.1367Z" fill="black"/>
</svg>
