<svg width="24" height="24" viewBox="0 0 24 24" fill="none" xmlns="http://www.w3.org/2000/svg">
<path fill-rule="evenodd" clip-rule="evenodd" d="M2.04688 16C2.04688 17.5913 2.67897 19.1174 3.80428 20.2426C4.92948 21.3679 6.45557 22 8.04688 22H16.0469C17.6382 22 19.1643 21.3679 20.2895 20.2426C21.4148 19.1174 22.0469 17.5913 22.0469 16V8C22.0469 6.4087 21.4148 4.8826 20.2895 3.7574C19.1643 2.6321 17.6382 2 16.0469 2H8.04688C6.45557 2 4.92948 2.6321 3.80428 3.7574C2.67897 4.8826 2.04688 6.4087 2.04688 8V16ZM4.04688 16V8C4.04688 6.9391 4.46827 5.9217 5.21847 5.1716C5.96858 4.4214 6.98598 4 8.04688 4H16.0469C17.1078 4 18.1252 4.4214 18.8753 5.1716C19.6255 5.9217 20.0469 6.9391 20.0469 8V16C20.0469 17.0609 19.6255 18.0783 18.8753 18.8284C18.1252 19.5786 17.1078 20 16.0469 20C13.5519 20 10.5419 20 8.04688 20C6.98598 20 5.96858 19.5786 5.21847 18.8284C4.46827 18.0783 4.04688 17.0609 4.04688 16ZM14.4169 14.155C14.1879 15.1821 13.0667 15.8799 12.0068 15.8799C10.9463 15.8799 9.85297 15.1475 9.59858 14.1489C9.46908 13.6408 8.95148 13.3334 8.44348 13.4628C7.93538 13.5923 7.62798 14.1099 7.75738 14.618C8.21178 16.4015 10.1128 17.7799 12.0068 17.7799C13.916 17.7799 15.8588 16.4186 16.2714 14.5685C16.3855 14.0568 16.0627 13.5486 15.5509 13.4345C15.0392 13.3204 14.531 13.6432 14.4169 14.155ZM14.5909 7.5543C15.4855 7.5543 16.2118 8.3839 16.2118 9.4057C16.2118 10.4275 15.4855 11.257 14.5909 11.257C13.6963 11.257 12.97 10.4275 12.97 9.4057C12.97 8.3839 13.6963 7.5543 14.5909 7.5543ZM9.38048 7.5543C10.2751 7.5543 11.0014 8.3839 11.0014 9.4057C11.0014 10.4275 10.2751 11.257 9.38048 11.257C8.48588 11.257 7.75957 10.4275 7.75957 9.4057C7.75957 8.3839 8.48588 7.5543 9.38048 7.5543Z" fill="black"/>
</svg>
