<svg width="16" height="16" viewBox="0 0 16 16" fill="none" xmlns="http://www.w3.org/2000/svg">
<path fill-rule="evenodd" clip-rule="evenodd" d="M7.99554 1.32812C4.31795 1.32812 1.33008 4.31871 1.33008 7.99312C1.33008 11.6675 4.31795 14.6581 7.99554 14.6581C11.6731 14.6581 14.6601 11.6675 14.6601 7.99312C14.6601 4.31871 11.6731 1.32812 7.99554 1.32812ZM7.99551 2.78695C10.8661 2.78695 13.1945 5.12107 13.1945 7.99313C13.1945 10.8652 10.8661 13.1993 7.99551 13.1993C5.12489 13.1993 2.79559 10.8652 2.79559 7.99313C2.79559 5.12107 5.12489 2.78695 7.99551 2.78695ZM6.87621 10.7375C6.98155 10.3181 7.52288 10.0902 8.01018 10.0902C8.50022 10.0902 9.02781 10.3455 9.14505 10.7558C9.2568 11.1387 9.66349 11.3575 10.0519 11.2481C10.4402 11.1387 10.6656 10.7375 10.5538 10.3455C10.279 9.39725 9.1533 8.63137 8.01018 8.63137C6.85515 8.63137 5.7047 9.39725 5.45556 10.382C5.35663 10.774 5.59478 11.1661 5.98681 11.2664C6.37885 11.3667 6.77821 11.1296 6.87621 10.7375ZM9.48762 5.11194C10.0628 5.11194 10.53 5.6043 10.53 6.21518C10.53 6.82606 10.0628 7.31841 9.48762 7.31841C8.91239 7.31841 8.44617 6.82606 8.44617 6.21518C8.44617 5.6043 8.91239 5.11194 9.48762 5.11194ZM6.51166 5.11194C7.08689 5.11194 7.55311 5.6043 7.55311 6.21518C7.55311 6.82606 7.08689 7.31841 6.51166 7.31841C5.93644 7.31841 5.4693 6.82606 5.4693 6.21518C5.4693 5.6043 5.93644 5.11194 6.51166 5.11194Z" fill="black"/>
</svg>
