<svg width="16" height="16" viewBox="0 0 16 16" fill="none" xmlns="http://www.w3.org/2000/svg">
<path fill-rule="evenodd" clip-rule="evenodd" d="M14.8002 5.99922C14.8002 4.72922 14.2942 3.50922 13.3942 2.60922C12.4942 1.70922 11.2732 1.19922 10.0002 1.19922C8.7132 1.19922 7.2872 1.19922 6.0002 1.19922C4.7272 1.19922 3.5062 1.70922 2.6062 2.60922C1.7062 3.50922 1.2002 4.72922 1.2002 5.99922C1.2002 7.28922 1.2002 8.70922 1.2002 9.99922C1.2002 11.2692 1.7062 12.4892 2.6062 13.3892C3.5062 14.2892 4.7272 14.7992 6.0002 14.7992C7.2872 14.7992 8.7132 14.7992 10.0002 14.7992C11.2732 14.7992 12.4942 14.2892 13.3942 13.3892C14.2942 12.4892 14.8002 11.2692 14.8002 9.99922V5.99922ZM13.2002 5.99922V9.99922C13.2002 10.8492 12.8632 11.6592 12.2632 12.2592C11.6632 12.8592 10.8492 13.1992 10.0002 13.1992H6.0002C5.1512 13.1992 4.3372 12.8592 3.7372 12.2592C3.1372 11.6592 2.8002 10.8492 2.8002 9.99922V5.99922C2.8002 5.14922 3.1372 4.33922 3.7372 3.73922C4.3372 3.13922 5.1512 2.79922 6.0002 2.79922H10.0002C10.8492 2.79922 11.6632 3.13922 12.2632 3.73922C12.8632 4.33922 13.2002 5.14922 13.2002 5.99922ZM9.2012 9.22922C9.0882 9.72922 8.5262 10.0592 8.0042 10.0592C7.4802 10.0592 6.9322 9.70922 6.8072 9.20922C6.6982 8.78922 6.2622 8.52922 5.8342 8.63922C5.4062 8.74922 5.1472 9.17922 5.2562 9.60922C5.5502 10.7592 6.7782 11.6592 8.0042 11.6592C9.2412 11.6592 10.4952 10.7692 10.7632 9.56922C10.8592 9.13922 10.5872 8.70922 10.1562 8.61922C9.72519 8.51922 9.2972 8.78922 9.2012 9.22922ZM9.7332 4.90922C10.3162 4.90922 10.7892 5.39922 10.7892 6.00922C10.7892 6.60922 10.3162 7.09922 9.7332 7.09922C9.1512 7.09922 8.6782 6.60922 8.6782 6.00922C8.6782 5.39922 9.1512 4.90922 9.7332 4.90922ZM6.2952 4.90922C6.8772 4.90922 7.3502 5.39922 7.3502 6.00922C7.3502 6.60922 6.8772 7.09922 6.2952 7.09922C5.7122 7.09922 5.2392 6.60922 5.2392 6.00922C5.2392 5.39922 5.7122 4.90922 6.2952 4.90922Z" fill="black"/>
</svg>
