<svg width="16" height="16" viewBox="0 0 16 16" fill="none" xmlns="http://www.w3.org/2000/svg">
<path d="M10.5286 6.21275C10.5286 5.60103 10.0622 5.108 9.48681 5.108C8.91231 5.108 8.44501 5.60103 8.44501 6.21275C8.44501 6.82447 8.91231 7.31749 9.48681 7.31749C10.0622 7.31749 10.5286 6.82447 10.5286 6.21275Z" fill="black"/>
<path d="M6.51074 5.108C7.08616 5.108 7.55255 5.60103 7.55255 6.21275C7.55255 6.82447 7.08616 7.31749 6.51074 7.31749C5.93623 7.31749 5.46985 6.82447 5.46985 6.21275C5.46985 5.60103 5.93623 5.108 6.51074 5.108Z" fill="black"/>
<path d="M5.92915 9.36337C5.55096 9.36337 5.24438 9.66995 5.24438 10.0481C5.24438 10.4263 5.55096 10.7329 5.92914 10.7329H10.0573C10.4355 10.7329 10.742 10.4263 10.742 10.0481C10.742 9.66995 10.4355 9.36337 10.0573 9.36337H5.92915Z" fill="black"/>
<path fill-rule="evenodd" clip-rule="evenodd" d="M7.99508 1.32812C4.31714 1.32812 1.33008 4.31368 1.33008 7.99312C1.33008 11.6726 4.31714 14.6581 7.99508 14.6581C11.6721 14.6581 14.6601 11.6726 14.6601 7.99312C14.6601 4.31368 11.6721 1.32812 7.99508 1.32812ZM7.99504 2.78894C10.8648 2.78894 13.194 5.11713 13.194 7.99312C13.194 10.8691 10.8648 13.1973 7.99504 13.1973C5.12434 13.1973 2.79608 10.8691 2.79608 7.99312C2.79608 5.11713 5.12434 2.78894 7.99504 2.78894Z" fill="black"/>
</svg>
