<svg width="16" height="16" viewBox="0 0 16 16" fill="none" xmlns="http://www.w3.org/2000/svg">
<path fill-rule="evenodd" clip-rule="evenodd" d="M7.99508 1.32812C4.31714 1.32812 1.33008 4.31368 1.33008 7.99312C1.33008 11.6726 4.31714 14.6581 7.99508 14.6581C11.6721 14.6581 14.6601 11.6726 14.6601 7.99312C14.6601 4.31368 11.6721 1.32812 7.99508 1.32812ZM7.99507 2.78895C10.8648 2.78895 13.194 5.11714 13.194 7.99313C13.194 10.8691 10.8648 13.1973 7.99507 13.1973C5.12437 13.1973 2.79611 10.8691 2.79611 7.99313C2.79611 5.11714 5.12437 2.78895 7.99507 2.78895ZM9.27881 9.34438C9.15877 9.87393 8.56136 10.2209 8.00518 10.2209C7.44625 10.2209 6.86442 9.84654 6.73064 9.33525C6.62985 8.94266 6.22944 8.70527 5.83819 8.8057C5.44602 8.90614 5.21054 9.30786 5.31133 9.70046C5.59995 10.8143 6.80211 11.6817 8.00518 11.6817C9.21833 11.6817 10.4461 10.8235 10.7082 9.66394C10.798 9.27134 10.5497 8.87875 10.1548 8.78744C9.76077 8.70527 9.36769 8.95179 9.27881 9.34438ZM9.48678 5.10802C10.0622 5.10802 10.5286 5.60104 10.5286 6.21276C10.5286 6.82448 10.0622 7.31751 9.48678 7.31751C8.91228 7.31751 8.44498 6.82448 8.44498 6.21276C8.44498 5.60104 8.91228 5.10802 9.48678 5.10802ZM6.51071 5.10802C7.08613 5.10802 7.55252 5.60104 7.55252 6.21276C7.55252 6.82448 7.08613 7.31751 6.51071 7.31751C5.9362 7.31751 5.46982 6.82448 5.46982 6.21276C5.46982 5.60104 5.9362 5.10802 6.51071 5.10802Z" fill="black"/>
</svg>
