<svg width="16" height="16" viewBox="0 0 16 16" fill="none" xmlns="http://www.w3.org/2000/svg">
<path fill-rule="evenodd" clip-rule="evenodd" d="M7.99508 1.32812C11.6734 1.32812 14.6601 4.31785 14.6601 7.99312C14.6601 11.6684 11.6734 14.6581 7.99508 14.6581C4.31579 14.6581 1.33008 11.6684 1.33008 7.99312C1.33008 4.31785 4.31579 1.32812 7.99508 1.32812ZM6.8031 10.6686C6.84806 10.5068 6.99921 10.3925 7.16758 10.2878C7.41153 10.1545 7.71287 10.0688 8.00944 10.0688C8.30217 10.0688 8.59682 10.1545 8.83598 10.2973C9.01201 10.3925 9.16699 10.5163 9.21865 10.6877C9.34492 11.0876 9.77542 11.3066 10.1782 11.1828C10.5809 11.059 10.8048 10.6305 10.6785 10.2306C10.3896 9.31659 9.21386 8.54535 8.00944 8.54535C6.79257 8.54535 5.59006 9.31659 5.32794 10.2592C5.21505 10.6686 5.45517 11.0876 5.86175 11.2018C6.26928 11.3066 6.69117 11.0685 6.8031 10.6686ZM9.57927 5.1367C10.1332 5.1367 10.5828 5.61277 10.5828 6.2031C10.5828 6.7839 10.1332 7.25997 9.57927 7.25997C9.02537 7.25997 8.57574 6.7839 8.57574 6.2031C8.57574 5.61277 9.02537 5.1367 9.57927 5.1367ZM6.3487 5.1367C6.9026 5.1367 7.35223 5.61277 7.35223 6.2031C7.35223 6.7839 6.9026 7.25997 6.3487 7.25997C5.79576 7.25997 5.34613 6.7839 5.34613 6.2031C5.34613 5.61277 5.79576 5.1367 6.3487 5.1367Z" fill="black"/>
</svg>
