<svg width="24" height="24" viewBox="0 0 24 24" fill="none" xmlns="http://www.w3.org/2000/svg">
<path fill-rule="evenodd" clip-rule="evenodd" d="M5.99309 18.5197L3.73329 16.2598C3.34299 15.8696 2.70939 15.8696 2.31909 16.2598C1.92879 16.6501 1.92879 17.2838 2.31909 17.674L6.28599 21.641C6.67649 22.0315 7.30969 22.0315 7.70019 21.641L11.6672 17.674C12.0574 17.2838 12.0574 16.6501 11.6672 16.2598C11.2769 15.8696 10.6432 15.8696 10.2529 16.2598L7.99309 18.5196V8.99998C7.99309 8.44808 7.54499 7.99998 6.99309 7.99998C6.44119 7.99998 5.99309 8.44808 5.99309 8.99998V18.5197ZM15.9931 5.41418V14.9339C15.9931 15.4858 16.4412 15.9339 16.9931 15.9339C17.545 15.9339 17.9931 15.4858 17.9931 14.9339V5.41418L20.2529 7.67397C20.6432 8.06427 21.2769 8.06427 21.6672 7.67397C22.0574 7.28377 22.0574 6.65007 21.6672 6.25978L17.7002 2.29287C17.3097 1.90237 16.6765 1.90237 16.286 2.29287L12.3191 6.25978C11.9288 6.65007 11.9288 7.28377 12.3191 7.67397C12.7094 8.06427 13.343 8.06427 13.7333 7.67397L15.9931 5.41418Z" fill="black"/>
</svg>
