<svg width="16" height="16" viewBox="0 0 16 16" fill="none" xmlns="http://www.w3.org/2000/svg">
<path fill-rule="evenodd" clip-rule="evenodd" d="M2.97913 10.4496L1.64513 9.11961C1.29313 8.76961 0.723126 8.76961 0.372126 9.11961C0.0211255 9.46961 0.0221255 10.0396 0.373126 10.3896L3.34513 13.3596C3.69513 13.7096 4.26313 13.7096 4.61513 13.3596L7.60413 10.3896C7.95613 10.0396 7.95813 9.46961 7.60813 9.11961C7.25913 8.76961 6.68813 8.76961 6.33613 9.11961L4.97913 10.4596V3.54961C4.97913 2.98961 4.53113 2.54961 3.97913 2.54961C3.42713 2.54961 2.97913 2.98961 2.97913 3.54961V10.4496ZM11.0001 5.43961V12.4896C11.0001 13.0496 11.4481 13.4896 12.0001 13.4896C12.5521 13.4896 13.0001 13.0496 13.0001 12.4896V5.45961L14.3341 6.78961C14.6851 7.13961 15.2561 7.13961 15.6071 6.78961C15.9581 6.43961 15.9571 5.86961 15.6051 5.51961L12.6341 2.54961C12.2831 2.19961 11.7161 2.19961 11.3641 2.54961L8.37513 5.50961C8.02313 5.85961 8.02013 6.42961 8.37013 6.78961C8.72013 7.13961 9.29013 7.13961 9.64313 6.78961L11.0001 5.43961Z" fill="black"/>
</svg>
