<svg width="24" height="24" viewBox="0 0 24 24" fill="none" xmlns="http://www.w3.org/2000/svg">
<path fill-rule="evenodd" clip-rule="evenodd" d="M5.51268 6.95983H3.99253C1.78765 6.95983 0 8.75983 0 10.9598V12.9598C0 15.1698 1.78765 16.9598 3.99253 16.9598H5.5037L9.52817 21.2298C10.0901 21.8298 10.9575 22.0198 11.7171 21.7098C12.4766 21.4098 12.9757 20.6798 12.9757 19.8598V4.10983C12.9757 3.28983 12.4786 2.55983 11.7201 2.24983C10.9625 1.94983 10.0961 2.13983 9.53316 2.72983L5.51268 6.95983ZM10.9794 4.10983V19.8598L6.65953 15.2798C6.47089 15.0798 6.20838 14.9598 5.93389 14.9598H3.99253C2.88959 14.9598 1.99626 14.0698 1.99626 12.9598V10.9598C1.99626 9.85983 2.88959 8.95983 3.99253 8.95983H5.94088C6.21337 8.95983 6.47488 8.84983 6.66353 8.64983L10.9794 4.10983ZM15.8513 5.95983C18.8178 6.35983 21.1055 8.91983 21.1055 11.9998C21.1055 15.0898 18.8038 17.6498 15.8244 18.0498C15.3323 18.1098 14.9869 18.5598 15.0518 19.0598C15.1167 19.5498 15.5689 19.8998 16.0599 19.8298C19.9197 19.3198 22.9021 16.0098 22.9021 11.9998C22.9021 8.00983 19.9377 4.69983 16.0949 4.16983C15.6038 4.10983 15.1506 4.44983 15.0828 4.93983C15.0159 5.43983 15.3602 5.88983 15.8513 5.95983ZM15.6717 9.99983C16.5081 10.2798 17.113 11.0698 17.113 11.9998C17.113 12.9298 16.5111 13.7198 15.6767 13.9898C15.2065 14.1498 14.951 14.6598 15.1077 15.1298C15.2644 15.5998 15.7725 15.8598 16.2436 15.6998C17.7917 15.1898 18.9096 13.7198 18.9096 11.9998C18.9096 10.2698 17.7867 8.80983 16.2336 8.28983C15.7625 8.13983 15.2544 8.39983 15.0997 8.86983C14.945 9.33983 15.2005 9.84983 15.6717 9.99983Z" fill="black"/>
</svg>
