<svg width="16" height="16" viewBox="0 0 16 16" fill="none" xmlns="http://www.w3.org/2000/svg">
<path fill-rule="evenodd" clip-rule="evenodd" d="M3.88582 4.53313H2.98302C1.45012 4.53313 0.20752 5.77573 0.20752 7.30863V8.60673C0.20752 10.1396 1.45012 11.3822 2.98302 11.3822H3.88032L6.27262 14.1211C6.66952 14.5755 7.30652 14.736 7.87132 14.5241C8.43612 14.3122 8.81022 13.7722 8.81022 13.1689V2.77173C8.81022 2.16943 8.43722 1.63003 7.87372 1.41743C7.31012 1.20483 6.67382 1.36353 6.27602 1.81583L3.88582 4.53313ZM7.21022 3.17613V12.7624L4.84632 10.0559C4.69442 9.88203 4.47472 9.78223 4.24382 9.78223H2.98302C2.33382 9.78223 1.80752 9.25593 1.80752 8.60673V7.30863C1.80752 6.65933 2.33382 6.13313 2.98302 6.13313H4.24762C4.47762 6.13313 4.69642 6.03413 4.84832 5.86143L7.21022 3.17613Z" fill="black"/>
<path d="M11.533 10.6467L13.0024 9.1774L11.8022 7.97727L10.3328 9.44663C9.98282 9.79663 9.96762 10.3496 10.2987 10.6808C10.6299 11.012 11.183 10.9967 11.533 10.6467Z" fill="black"/>
<path d="M13.0024 6.7771L11.533 5.30773C11.183 4.95773 10.6299 4.94243 10.2987 5.27363C9.96762 5.60483 9.98282 6.15793 10.3328 6.50793L11.8022 7.97727L13.0024 6.7771Z" fill="black"/>
<path d="M11.8022 7.97727L13.0024 9.1774L14.2025 7.97727L13.0024 6.7771L11.8022 7.97727Z" fill="black"/>
<path d="M15.6718 6.50793C16.0218 6.15793 16.0371 5.60483 15.7059 5.27363C15.3747 4.94243 14.8217 4.95773 14.4717 5.30773L13.0024 6.7771L14.2025 7.97727L15.6718 6.50793Z" fill="black"/>
<path d="M14.4717 10.6467C14.8217 10.9967 15.3747 11.012 15.7059 10.6808C16.0371 10.3496 16.0218 9.79663 15.6718 9.44663L14.2025 7.97727L13.0024 9.1774L14.4717 10.6467Z" fill="black"/>
</svg>
