<svg width="16" height="16" viewBox="0 0 16 16" fill="none" xmlns="http://www.w3.org/2000/svg">
<path fill-rule="evenodd" clip-rule="evenodd" d="M5.88603 4.52787H4.98303C3.45003 4.52787 2.20703 5.77787 2.20703 7.30787V8.60787C2.20703 10.1379 3.45003 11.3779 4.98303 11.3779H5.88003L8.27303 14.1179C8.66903 14.5679 9.30603 14.7379 9.87103 14.5179C10.436 14.3079 10.81 13.7679 10.81 13.1679V2.76787C10.81 2.16787 10.437 1.62787 9.87403 1.41787C9.31003 1.19787 8.67403 1.35787 8.27603 1.81787L5.88603 4.52787ZM9.21003 3.17787V12.7579L6.84603 10.0579C6.69403 9.87787 6.47503 9.77787 6.24403 9.77787H4.98303C4.33403 9.77787 3.80703 9.25787 3.80703 8.60787V7.30787C3.80703 6.65787 4.33403 6.12787 4.98303 6.12787H6.24803C6.47803 6.12787 6.69603 6.02787 6.84803 5.85787L9.21003 3.17787Z" fill="black"/>
</svg>
