<svg width="24" height="24" viewBox="0 0 24 24" fill="none" xmlns="http://www.w3.org/2000/svg">
<path fill-rule="evenodd" clip-rule="evenodd" d="M9.53914 6.99108H8.01514C5.80614 6.99108 4.01514 8.78108 4.01514 10.9911V12.9911C4.01514 15.2011 5.80614 16.9911 8.01514 16.9911H9.53014L13.5621 21.2511C14.1251 21.8511 14.9941 22.0411 15.7551 21.7411C16.5161 21.4411 17.0151 20.7011 17.0151 19.8811V4.14108C17.0151 3.32108 16.5171 2.58108 15.7581 2.28108C14.9991 1.98108 14.1311 2.17108 13.5671 2.76108L9.53914 6.99108ZM15.0151 4.14108V19.8811L10.6871 15.3011C10.4981 15.1011 10.2361 14.9911 9.96114 14.9911H8.01514C6.91114 14.9911 6.01514 14.0911 6.01514 12.9911V10.9911C6.01514 9.88108 6.91114 8.99108 8.01514 8.99108H9.96714C10.2411 8.99108 10.5031 8.88108 10.6921 8.68108L15.0151 4.14108Z" fill="black"/>
</svg>
