<svg width="24" height="24" viewBox="0 0 24 24" fill="none" xmlns="http://www.w3.org/2000/svg">
<path fill-rule="evenodd" clip-rule="evenodd" d="M5.52495 6.95983H4.00195C1.79295 6.95983 0.00195312 8.75983 0.00195312 10.9598V12.9598C0.00195312 15.1698 1.79295 16.9598 4.00195 16.9598H5.51595L9.54795 21.2298C10.111 21.8298 10.98 22.0198 11.741 21.7098C12.502 21.4098 13.002 20.6798 13.002 19.8598V4.10983C13.002 3.28983 12.504 2.55983 11.744 2.24983C10.985 1.94983 10.117 2.13983 9.55295 2.72983L5.52495 6.95983ZM11.002 4.10983V19.8598L6.67395 15.2798C6.48495 15.0798 6.22195 14.9598 5.94695 14.9598H4.00195C2.89695 14.9598 2.00195 14.0698 2.00195 12.9598V10.9598C2.00195 9.85983 2.89695 8.95983 4.00195 8.95983H5.95395C6.22695 8.95983 6.48895 8.84983 6.67795 8.64983L11.002 4.10983ZM17.08 10.1698L15.954 9.32983C15.622 9.07983 15.152 9.14983 14.904 9.47983C14.656 9.80983 14.724 10.2798 15.055 10.5298L17.043 12.0198L15.055 13.5098C14.724 13.7498 14.656 14.2198 14.904 14.5598C15.152 14.8898 15.622 14.9498 15.954 14.7098L17.08 13.8598V17.7198C17.08 18.1098 17.294 18.4598 17.636 18.6498C17.979 18.8298 18.394 18.8098 18.716 18.5898L22.549 16.0098C22.831 15.8198 23.004 15.4998 23.012 15.1598C23.021 14.8198 22.864 14.4998 22.592 14.2998L19.547 12.0198L22.592 9.73983C22.864 9.53983 23.021 9.20983 23.012 8.86983C23.004 8.52983 22.831 8.21983 22.549 8.02983L18.716 5.44983C18.394 5.22983 17.979 5.20983 17.636 5.38983C17.294 5.56983 17.08 5.92983 17.08 6.31983V10.1698ZM18.58 16.8698L21.186 15.1198L18.58 13.1698V16.8698ZM18.58 10.8698L21.186 8.91983L18.58 7.15983V10.8698Z" fill="black"/>
</svg>
