<svg width="16" height="16" viewBox="0 0 16 16" fill="none" xmlns="http://www.w3.org/2000/svg">
<path fill-rule="evenodd" clip-rule="evenodd" d="M3.88603 4.52787H2.98303C1.45003 4.52787 0.207031 5.77787 0.207031 7.30787V8.60787C0.207031 10.1379 1.45003 11.3779 2.98303 11.3779H3.88003L6.27303 14.1179C6.66903 14.5679 7.30603 14.7379 7.87103 14.5179C8.43603 14.3079 8.81003 13.7679 8.81003 13.1679V2.76787C8.81003 2.16787 8.43703 1.62787 7.87403 1.41787C7.31003 1.19787 6.67403 1.35787 6.27603 1.81787L3.88603 4.52787ZM11.672 6.34787L11.007 5.78787C10.692 5.51787 10.218 5.54787 9.95003 5.86787C9.68103 6.17787 9.71903 6.65787 10.034 6.92787L11.306 8.00787L10.034 9.09787C9.71903 9.36787 9.68103 9.83787 9.95003 10.1479C10.218 10.4679 10.692 10.5079 11.007 10.2379L11.672 9.66787V12.3379C11.672 12.7379 11.909 13.1179 12.279 13.2879C12.649 13.4579 13.086 13.3979 13.398 13.1379L15.587 11.2979C15.823 11.0979 15.96 10.8079 15.961 10.4979C15.962 10.1879 15.827 9.89787 15.592 9.69787L13.618 8.00787L15.592 6.32787C15.827 6.12787 15.962 5.82787 15.961 5.52787C15.96 5.21787 15.823 4.91787 15.587 4.72787L13.398 2.87787C13.086 2.61787 12.649 2.55787 12.279 2.73787C11.909 2.90787 11.672 3.27787 11.672 3.68787V6.34787ZM7.21003 3.17787V12.7579L4.84603 10.0579C4.69403 9.87787 4.47503 9.77787 4.24403 9.77787H2.98303C2.33403 9.77787 1.80703 9.25787 1.80703 8.60787V7.30787C1.80703 6.65787 2.33403 6.12787 2.98303 6.12787H4.24803C4.47803 6.12787 4.69603 6.02787 4.84803 5.85787L7.21003 3.17787ZM13.172 11.3679L14.214 10.4879L13.172 9.59787V11.3679ZM13.172 6.41787L14.214 5.52787L13.172 4.64787V6.41787Z" fill="black"/>
</svg>
