<svg width="16" height="16" viewBox="0 0 16 16" fill="none" xmlns="http://www.w3.org/2000/svg">
<path fill-rule="evenodd" clip-rule="evenodd" d="M3.88603 4.52787H2.98303C1.45003 4.52787 0.207031 5.77787 0.207031 7.30787V8.60787C0.207031 10.1379 1.45003 11.3779 2.98303 11.3779H3.88003L6.27303 14.1179C6.66903 14.5679 7.30603 14.7379 7.87103 14.5179C8.43603 14.3079 8.81003 13.7679 8.81003 13.1679V2.76787C8.81003 2.16787 8.43703 1.62787 7.87403 1.41787C7.31003 1.19787 6.67403 1.35787 6.27603 1.81787L3.88603 4.52787ZM10.865 4.16787C12.749 4.42787 14.202 6.04787 14.202 7.99787C14.202 9.95787 12.74 11.5779 10.848 11.8279C10.41 11.8879 10.102 12.2879 10.16 12.7279C10.218 13.1679 10.62 13.4779 11.058 13.4179C13.734 13.0579 15.802 10.7679 15.802 7.99787C15.802 5.23787 13.746 2.94787 11.082 2.57787C10.645 2.51787 10.241 2.82787 10.181 3.26787C10.121 3.70787 10.428 4.10787 10.865 4.16787ZM7.21003 3.17787V12.7579L4.84603 10.0579C4.69403 9.87787 4.47503 9.77787 4.24403 9.77787H2.98303C2.33403 9.77787 1.80703 9.25787 1.80703 8.60787V7.30787C1.80703 6.65787 2.33403 6.12787 2.98303 6.12787H4.24803C4.47803 6.12787 4.69603 6.02787 4.84803 5.85787L7.21003 3.17787ZM10.71 6.85787C11.189 7.01787 11.535 7.46787 11.535 7.99787C11.535 8.52787 11.19 8.97787 10.713 9.13787C10.294 9.27787 10.067 9.72787 10.206 10.1479C10.345 10.5679 10.798 10.7979 11.217 10.6579C12.331 10.2879 13.135 9.23787 13.135 7.99787C13.135 6.75787 12.327 5.70787 11.21 5.33787C10.791 5.19787 10.338 5.42787 10.2 5.84787C10.062 6.26787 10.29 6.71787 10.71 6.85787Z" fill="black"/>
</svg>
