<svg width="24" height="24" viewBox="0 0 24 24" fill="none" xmlns="http://www.w3.org/2000/svg">
<path fill-rule="evenodd" clip-rule="evenodd" d="M5.53883 6.98935H4.01562C1.80643 6.98935 0.015625 8.78025 0.015625 10.9894V12.9895C0.015625 15.1986 1.80643 16.9895 4.01562 16.9894H5.53013L9.56213 21.2549C10.1249 21.8502 10.9937 22.0421 11.7549 21.7393C12.516 21.4365 13.0156 20.7002 13.0156 19.881V4.13685C13.0156 3.31895 12.5176 2.58345 11.7582 2.27975C10.9987 1.97605 10.1309 2.16545 9.56703 2.75785L5.53883 6.98935ZM11.0156 4.13675V19.881L6.68762 15.3025C6.49872 15.1027 6.23583 14.9894 5.96093 14.9894H4.01562C2.91103 14.9895 2.01562 14.094 2.01562 12.9895V10.9895C2.01562 9.88475 2.91103 8.98935 4.01562 8.98935H5.96753C6.24132 8.98935 6.50312 8.87715 6.69182 8.67885L11.0156 4.13675ZM19.0806 10.586L16.7381 8.24345C16.3478 7.85315 15.7142 7.85315 15.3239 8.24345C14.9336 8.63365 14.9336 9.26735 15.3239 9.65765L17.6664 12.0002L15.3239 14.3427C14.9336 14.733 14.9336 15.3667 15.3239 15.7569C15.7142 16.1472 16.3478 16.1472 16.7381 15.7569L19.0806 13.4144L21.4232 15.7569C21.8134 16.1472 22.4471 16.1472 22.8374 15.7569C23.2276 15.3667 23.2276 14.733 22.8374 14.3427L20.4949 12.0002L22.8374 9.65765C23.2276 9.26735 23.2276 8.63365 22.8374 8.24345C22.4471 7.85315 21.8134 7.85315 21.4232 8.24345L19.0806 10.586Z" fill="black"/>
</svg>
