<svg width="24" height="24" viewBox="0 0 24 24" fill="none" xmlns="http://www.w3.org/2000/svg">
<path fill-rule="evenodd" clip-rule="evenodd" d="M3.99253 6.95983H5.51268L9.53316 2.72983C10.0961 2.13983 10.9625 1.94983 11.7201 2.24983C12.4786 2.55983 12.9757 3.28983 12.9757 4.10983V19.8598C12.9757 20.6798 12.4766 21.4098 11.7171 21.7098C10.9575 22.0198 10.0901 21.8298 9.52817 21.2298L5.5037 16.9598H3.99253C1.78765 16.9598 0 15.1698 0 12.9598V10.9598C0 8.75983 1.78765 6.95983 3.99253 6.95983ZM10.9795 19.8598V4.10983L6.66354 8.64983C6.47489 8.84982 6.21338 8.95983 5.94089 8.95983H3.99254C2.8896 8.95983 1.99628 9.85983 1.99628 10.9598V12.9598C1.99628 14.0698 2.8896 14.9598 3.99254 14.9598H5.93391C6.20839 14.9598 6.4709 15.0798 6.65955 15.2798L10.9795 19.8598Z" fill="black"/>
<path d="M21.1055 11.9998C21.1055 8.91982 18.8178 6.35982 15.8513 5.95982C15.3603 5.88982 15.0159 5.43982 15.0828 4.93982C15.1507 4.44982 15.6038 4.10982 16.0949 4.16982C19.9377 4.69982 22.9021 8.00982 22.9021 11.9998C22.9021 16.0098 19.9197 19.3198 16.0599 19.8298C15.5689 19.8998 15.1167 19.5498 15.0518 19.0598C14.987 18.5598 15.3323 18.1098 15.8244 18.0498C18.8038 17.6498 21.1055 15.0898 21.1055 11.9998Z" fill="black"/>
<path d="M17.113 11.9998C17.113 11.0698 16.5081 10.2798 15.6717 9.99983C15.2005 9.84983 14.945 9.33983 15.0997 8.86983C15.2544 8.39983 15.7625 8.13983 16.2336 8.28983C17.7867 8.80983 18.9096 10.2698 18.9096 11.9998C18.9096 13.7198 17.7917 15.1898 16.2436 15.6998C15.7725 15.8598 15.2644 15.5998 15.1077 15.1298C14.951 14.6598 15.2065 14.1498 15.6766 13.9898C16.5111 13.7198 17.113 12.9298 17.113 11.9998Z" fill="black"/>
</svg>
