<svg width="16" height="16" viewBox="0 0 16 16" fill="none" xmlns="http://www.w3.org/2000/svg">
<path fill-rule="evenodd" clip-rule="evenodd" d="M9.22179 6.3227C9.40441 5.77729 9.91935 5.40327 10.5045 5.40807L10.6379 5.41576C11.2099 5.47732 11.6856 5.90043 11.8061 6.47308L12.0652 7.70367C12.1832 8.26442 12.6189 8.70385 13.1786 8.82656L14.4977 9.11586C15.1124 9.25059 15.5507 9.79449 15.5518 10.424C15.5527 11.0533 15.1162 11.5986 14.5019 11.7354L13.1889 12.0276C12.6333 12.1512 12.2007 12.5871 12.0811 13.1437L11.8138 14.3877L11.7698 14.5608C11.5948 15.1066 11.0875 15.4866 10.5044 15.4917C9.8765 15.4971 9.32893 15.0661 9.18648 14.4545L8.88249 13.1495C8.75672 12.6095 8.33539 12.1877 7.79567 12.0614L6.52663 11.7644L6.32814 11.7112C5.78655 11.5266 5.41605 11.0138 5.42044 10.4317C5.42524 9.80502 5.86341 9.26503 6.47578 9.1314L7.78089 8.84662C8.33289 8.72613 8.76542 8.29749 8.89084 7.7467L9.18045 6.47443L9.22179 6.3227ZM10.4876 7.49197L10.3534 8.07968C10.0989 9.19763 9.22099 10.0676 8.10081 10.3121L7.48164 10.448L8.13738 10.6009C9.23298 10.8572 10.0881 11.7133 10.3434 12.8093L10.4876 13.425L10.6146 12.8285C10.8572 11.699 11.7354 10.8143 12.863 10.5634L13.4756 10.428L12.8574 10.2918C11.7214 10.0427 10.8369 9.15075 10.5973 8.0127L10.4876 7.49197Z" fill="black"/>
<path d="M2.46951 11.1417C3.20101 11.1417 3.79501 11.7357 3.79501 12.4672C3.79501 13.1988 3.20101 13.7927 2.46951 13.7927C1.73791 13.7927 1.14401 13.1988 1.14401 12.4672C1.14401 11.7357 1.73791 11.1417 2.46951 11.1417Z" fill="black"/>
<path fill-rule="evenodd" clip-rule="evenodd" d="M4.52421 0.867226C4.03192 0.863175 3.59834 1.17599 3.43997 1.63938L3.40544 1.76176L3.2035 2.64892C3.13415 2.95348 2.89486 3.19065 2.58953 3.25729L1.68416 3.45489C1.16596 3.56777 0.794962 4.02494 0.79105 4.55547C0.787252 5.04505 1.09719 5.47703 1.55141 5.63552L1.71773 5.68099L2.59675 5.88674C2.8953 5.95659 3.1284 6.18996 3.19793 6.48861L3.40885 7.39399C3.5292 7.91136 3.99262 8.27609 4.52393 8.27171C5.01477 8.26732 5.44198 7.94957 5.59254 7.49209L5.63202 7.33893L5.81636 6.48113C5.88249 6.17325 6.12183 5.93213 6.42923 5.86368L7.34008 5.66097C7.85981 5.54535 8.22937 5.08377 8.22854 4.55119C8.22771 4.01863 7.85691 3.55836 7.3368 3.4441L6.42126 3.2434C6.11187 3.17554 5.87076 2.93241 5.8055 2.62231L5.62579 1.76857C5.52439 1.28682 5.12601 0.930253 4.64592 0.874734L4.52421 0.867226ZM4.55289 3.417L4.50964 3.31502L4.44608 3.45743C4.22239 3.91688 3.84844 4.2875 3.38698 4.50706L3.23764 4.57202L3.4211 4.65317C3.86436 4.87456 4.22323 5.23664 4.44059 5.6822L4.50464 5.82802L4.56559 5.68434C4.78594 5.21925 5.15967 4.84275 5.62319 4.6189L5.76964 4.55602L5.61623 4.48929C5.14948 4.2648 4.77341 3.88556 4.55289 3.417Z" fill="black"/>
<path d="M13.4585 1.16515C14.1944 1.16515 14.7918 1.76265 14.7918 2.49855C14.7918 3.23445 14.1944 3.83185 13.4585 3.83185C12.7226 3.83185 12.1251 3.23445 12.1251 2.49855C12.1251 1.76265 12.7226 1.16515 13.4585 1.16515Z" fill="black"/>
</svg>
