<svg width="16" height="16" viewBox="0 0 16 16" fill="none" xmlns="http://www.w3.org/2000/svg">
<path fill-rule="evenodd" clip-rule="evenodd" d="M1.2002 10.0021C1.2002 11.2751 1.7062 12.4961 2.6062 13.3961C3.5062 14.2961 4.7272 14.8021 6.0002 14.8021C7.2872 14.8021 8.7132 14.8021 10.0002 14.8021C11.2732 14.8021 12.4942 14.2961 13.3942 13.3961C14.2942 12.4961 14.8002 11.2751 14.8002 10.0021C14.8002 8.71513 14.8002 7.29012 14.8002 6.00313C14.8002 4.73013 14.2942 3.50912 13.3942 2.60913C12.4942 1.70913 11.2732 1.20312 10.0002 1.20312C8.7132 1.20312 7.2872 1.20312 6.0002 1.20312C4.7272 1.20312 3.5062 1.70913 2.6062 2.60913C1.7062 3.50912 1.2002 4.73013 1.2002 6.00313V10.0021ZM7.40219 3.92613C7.46819 3.63713 7.7262 3.43212 8.0232 3.43512C8.3192 3.43712 8.5742 3.64612 8.6352 3.93612C8.7312 4.39012 8.8262 4.84413 8.9122 5.25012C9.1032 6.15613 9.8082 6.86713 10.7132 7.06612C11.1462 7.16112 11.6342 7.26813 12.1212 7.37413C12.4102 7.43813 12.6162 7.69413 12.6172 7.99013C12.6172 8.28613 12.4122 8.54312 12.1232 8.60712C11.6382 8.71512 11.1522 8.82312 10.7212 8.91913C9.8232 9.11912 9.1232 9.82413 8.9302 10.7241C8.8392 11.1481 8.7362 11.6251 8.6342 12.0991C8.5722 12.3881 8.3182 12.5961 8.0222 12.5981C7.7272 12.6011 7.46919 12.3981 7.40219 12.1101C7.29019 11.6281 7.1772 11.1441 7.0782 10.7171C6.8742 9.84412 6.1932 9.16212 5.3202 8.95712C4.8822 8.85512 4.3852 8.73812 3.8902 8.62313C3.6032 8.55513 3.4002 8.29812 3.4032 8.00312C3.4052 7.70812 3.6112 7.45412 3.8992 7.39112C4.3802 7.28612 4.8642 7.18112 5.2932 7.08712C6.1852 6.89212 6.8852 6.19912 7.0872 5.30813C7.1842 4.88412 7.29319 4.40412 7.40219 3.92613Z" fill="black"/>
</svg>
