<svg width="24" height="24" viewBox="0 0 24 24" fill="none" xmlns="http://www.w3.org/2000/svg">
<path fill-rule="evenodd" clip-rule="evenodd" d="M9.90013 3.86076L9.24013 6.89728C8.95013 8.23293 7.94013 9.27641 6.66013 9.56858C5.77013 9.76684 4.74013 9.99641 3.73013 10.226C2.74013 10.4555 2.03013 11.3738 2.02013 12.4277C2.01013 13.4921 2.71013 14.4208 3.70013 14.6608L6.70013 15.3912C7.95013 15.6938 8.93013 16.7164 9.22013 18.0312C9.43013 18.9599 9.67013 20.0242 9.90013 21.0781C10.1301 22.1216 11.0201 22.8416 12.0401 22.8416C13.0601 22.8312 13.9401 22.0799 14.1501 21.0468L14.7701 18.0208C15.0501 16.6747 16.0601 15.6208 17.3501 15.3181L20.2901 14.6295C21.2901 14.3999 22.0001 13.4816 22.0001 12.4173C21.9901 11.3425 21.2801 10.4242 20.2901 10.1947L17.3301 9.51641C16.0301 9.22424 15.0101 8.15989 14.7401 6.79293L14.1501 3.89206C13.9401 2.84858 13.0601 2.10771 12.0401 2.09728C11.0201 2.08684 10.1301 2.81728 9.90013 3.86076ZM11.8501 4.31989C11.8701 4.23641 11.9401 4.18423 12.0301 4.18423C12.1101 4.18423 12.1801 4.24684 12.2001 4.33032L12.7801 7.23119C13.2201 9.39119 14.8301 11.0816 16.9001 11.5616L19.8601 12.2399C19.9401 12.2503 20.0001 12.3338 20.0001 12.4173C20.0001 12.5008 19.9401 12.5738 19.8601 12.5947L16.9101 13.2834C14.8601 13.7529 13.2601 15.4329 12.8201 17.5825L12.1901 20.6086C12.1801 20.6921 12.1101 20.7442 12.0201 20.7547C11.9401 20.7547 11.8701 20.6921 11.8501 20.6086L11.1701 17.5616C10.7101 15.4747 9.15013 13.8468 7.15013 13.3564C6.24013 13.1373 5.19013 12.8764 4.16013 12.626C4.08013 12.6051 4.02013 12.5321 4.02013 12.4486C4.02013 12.3651 4.08013 12.2921 4.16013 12.2712L7.09013 11.6034C9.13013 11.1338 10.7301 9.4851 11.1901 7.35641L11.8501 4.31989Z" fill="black"/>
</svg>
