<svg width="24" height="24" viewBox="0 0 24 24" fill="none" xmlns="http://www.w3.org/2000/svg">
<path fill-rule="evenodd" clip-rule="evenodd" d="M13.8102 8.92172L13.3602 10.9565C13.1602 11.8956 12.4502 12.6261 11.5502 12.8348L9.59016 13.273C8.76016 13.4608 8.17016 14.2226 8.16016 15.1095C8.16016 15.9965 8.74016 16.7687 9.56016 16.9669L11.5702 17.4574C12.4502 17.6765 13.1402 18.3965 13.3502 19.3148C13.4902 19.9408 13.6502 20.6504 13.8102 21.36C14.0002 22.2156 14.7402 22.8313 15.5902 22.8208C16.4302 22.8104 17.1602 22.1948 17.3402 21.3287L17.7602 19.3043C17.9502 18.3548 18.6602 17.6139 19.5702 17.4052L21.5402 16.9461C22.3702 16.7478 22.9602 15.9861 22.9602 15.0991C22.9602 14.2122 22.3702 13.44 21.5402 13.2522C20.8502 13.0956 20.1702 12.9391 19.5602 12.8035C18.6402 12.5948 17.9302 11.8435 17.7302 10.8835L17.3502 8.95302C17.1702 8.08694 16.4402 7.46085 15.5902 7.45041C14.7402 7.45041 13.9902 8.05563 13.8102 8.92172ZM3.99016 17.7391C5.09016 17.7391 5.98016 18.6678 5.98016 19.8156C5.98016 20.9635 5.09016 21.8922 3.99016 21.8922C2.89016 21.8922 2.00016 20.9635 2.00016 19.8156C2.00016 18.6678 2.89016 17.7391 3.99016 17.7391ZM15.5702 9.52694L15.9202 11.28C16.2702 12.9808 17.5302 14.3165 19.1602 14.6817L20.9702 15.0991L19.1702 15.5165C17.5502 15.8922 16.3002 17.2174 15.9502 18.9078L15.5702 20.7443L15.1502 18.8765C14.7902 17.2382 13.5602 15.9548 11.9902 15.5791L10.1502 15.1304L11.9402 14.713C13.5502 14.3478 14.8002 13.0539 15.1702 11.3843L15.5702 9.52694ZM5.08016 2.41041L4.77016 3.80867C4.65016 4.39302 4.21016 4.84172 3.65016 4.97737C3.23016 5.07128 2.76016 5.17563 2.29016 5.27998C1.64016 5.4365 1.17016 6.03128 1.16016 6.74085C1.16016 7.43998 1.62016 8.05563 2.27016 8.21215L3.67016 8.5565C4.21016 8.68172 4.64016 9.13041 4.76016 9.70433C4.86016 10.1322 4.97016 10.6226 5.08016 11.113C5.23016 11.8017 5.82016 12.2817 6.50016 12.2817C7.17016 12.2713 7.75016 11.7808 7.89016 11.0922L8.18016 9.69389C8.30016 9.10954 8.74016 8.65041 9.30016 8.51476L10.6602 8.20172C11.3202 8.0452 11.7902 7.43998 11.7902 6.73041C11.7902 6.02085 11.3202 5.41563 10.6602 5.26954C10.1902 5.15476 9.71016 5.05041 9.29016 4.94607C8.72016 4.82085 8.28016 4.36172 8.16016 3.76694L7.89016 2.43128C7.75016 1.74259 7.17016 1.24172 6.50016 1.24172C5.82016 1.23128 5.23016 1.72172 5.08016 2.41041ZM6.48016 3.76694L6.55016 4.12172C6.80016 5.37389 7.73016 6.35476 8.93016 6.6365L9.38016 6.73041L8.94016 6.83476C7.75016 7.1165 6.82016 8.08693 6.57016 9.32867L6.47016 9.77737L6.37016 9.30781C6.10016 8.1078 5.20016 7.15824 4.04016 6.8765L3.55016 6.76172L4.00016 6.65737C5.19016 6.38607 6.11016 5.42607 6.38016 4.19476L6.48016 3.76694ZM20.0002 1.04346C21.1002 1.04346 22.0002 1.98259 22.0002 3.13041C22.0002 4.27824 21.1002 5.21737 20.0002 5.21737C18.9002 5.21737 18.0002 4.27824 18.0002 3.13041C18.0002 1.98259 18.9002 1.04346 20.0002 1.04346Z" fill="black"/>
</svg>
