<svg width="16" height="16" viewBox="0 0 16 16" fill="none" xmlns="http://www.w3.org/2000/svg">
<path fill-rule="evenodd" clip-rule="evenodd" d="M1.2002 10.0021C1.2002 11.2751 1.7062 12.4961 2.6062 13.3961C3.5062 14.2961 4.7272 14.8021 6.0002 14.8021C7.2872 14.8021 8.7132 14.8021 10.0002 14.8021C11.2732 14.8021 12.4942 14.2961 13.3942 13.3961C14.2942 12.4961 14.8002 11.2751 14.8002 10.0021C14.8002 8.71513 14.8002 7.29012 14.8002 6.00313C14.8002 4.73013 14.2942 3.50912 13.3942 2.60913C12.4942 1.70913 11.2732 1.20312 10.0002 1.20312C8.7132 1.20312 7.2872 1.20312 6.0002 1.20312C4.7272 1.20312 3.5062 1.70913 2.6062 2.60913C1.7062 3.50912 1.2002 4.73013 1.2002 6.00313V10.0021ZM2.8002 10.0021V6.00313C2.8002 5.15413 3.1372 4.34113 3.7372 3.74012C4.3372 3.14012 5.1512 2.80313 6.0002 2.80313H10.0002C10.8492 2.80313 11.6632 3.14012 12.2632 3.74012C12.8632 4.34113 13.2002 5.15413 13.2002 6.00313C13.2002 7.29012 13.2002 8.71513 13.2002 10.0021C13.2002 10.8511 12.8632 11.6651 12.2632 12.2651C11.6632 12.8651 10.8492 13.2021 10.0002 13.2021H6.0002C5.1512 13.2021 4.3372 12.8651 3.7372 12.2651C3.1372 11.6651 2.8002 10.8511 2.8002 10.0021ZM7.4212 4.20113C7.48319 3.93113 7.7242 3.74113 8.0012 3.74313C8.2782 3.74513 8.5162 3.94013 8.5732 4.21113C8.6542 4.59613 8.7352 4.98213 8.8092 5.33413C9.00319 6.25313 9.7162 6.97312 10.6332 7.17413C11.0122 7.25713 11.4302 7.34812 11.8452 7.44012C12.1152 7.49913 12.3082 7.73812 12.3082 8.01412C12.3092 8.29112 12.1172 8.53013 11.8472 8.59013C11.4332 8.68313 11.0172 8.77513 10.6402 8.85913C9.7302 9.06213 9.0212 9.77612 8.8252 10.6871C8.7462 11.0571 8.6582 11.4641 8.5712 11.8701C8.5132 12.1391 8.2762 12.3331 8.0002 12.3351C7.7242 12.3371 7.4842 12.1481 7.4212 11.8801C7.32519 11.4661 7.2282 11.0511 7.1412 10.6771C6.9352 9.79212 6.24519 9.10112 5.3612 8.89412C4.9762 8.80412 4.5482 8.70413 4.1242 8.60513C3.8552 8.54213 3.6672 8.30213 3.6692 8.02713C3.6712 7.75113 3.8632 7.51412 4.1322 7.45512C4.5442 7.36612 4.9572 7.27512 5.3322 7.19312C6.2362 6.99612 6.9452 6.29413 7.1502 5.39213C7.2352 5.02013 7.3282 4.61013 7.4212 4.20113Z" fill="black"/>
</svg>
