<svg width="16" height="16" viewBox="0 0 16 16" fill="none" xmlns="http://www.w3.org/2000/svg">
<path fill-rule="evenodd" clip-rule="evenodd" d="M6.43325 2.16228L5.96905 4.20148C5.77325 5.06148 5.09795 5.73078 4.23625 5.91878C3.61035 6.05538 2.89335 6.21188 2.18575 6.36628C1.44445 6.52808 0.913949 7.18168 0.908249 7.94058C0.902549 8.69938 1.42305 9.36088 2.16195 9.53388C2.88725 9.70358 3.62285 9.87568 4.25985 10.0248C5.10265 10.222 5.76045 10.8805 5.95675 11.7235C6.10185 12.3466 6.26895 13.0638 6.43415 13.7732C6.60655 14.5135 7.26945 15.0352 8.02955 15.0287C8.78965 15.0221 9.44355 14.4892 9.60325 13.746L10.039 11.7176C10.2256 10.8488 10.9011 10.1683 11.7685 9.97528L13.8333 9.51568C14.577 9.35018 15.1055 8.68998 15.1044 7.92808C15.1032 7.16628 14.5725 6.50768 13.8284 6.34448L11.7542 5.88968C10.8803 5.69808 10.2001 5.01198 10.0157 4.13658L9.60555 2.18818C9.44835 1.44168 8.79275 0.90528 8.02985 0.89898C7.26695 0.89278 6.60265 1.41838 6.43325 2.16228ZM7.99335 2.51738C7.99585 2.50658 8.00555 2.49888 8.01675 2.49898C8.02795 2.49908 8.03755 2.50688 8.03985 2.51788L8.45005 4.46618C8.76405 5.95738 9.92295 7.12608 11.4114 7.45248L13.4856 7.90738C13.4966 7.90978 13.5043 7.91948 13.5044 7.93058C13.5044 7.94178 13.4966 7.95148 13.4858 7.95388L11.4209 8.41348C9.94345 8.74228 8.79265 9.90158 8.47465 11.3815L8.03895 13.4099C8.03655 13.4208 8.02695 13.4286 8.01585 13.4287C8.00465 13.4288 7.99495 13.4212 7.99245 13.4103L7.51505 11.3606C7.18065 9.92458 6.06015 8.80288 4.62445 8.46688C3.98745 8.31778 3.25185 8.14568 2.52655 7.97588C2.51575 7.97338 2.50805 7.96368 2.50815 7.95258C2.50825 7.94148 2.51605 7.93188 2.52685 7.92948L4.57735 7.48198C6.04525 7.16168 7.19565 6.02158 7.52915 4.55668L7.99335 2.51738Z" fill="black"/>
</svg>
