<svg width="16" height="16" viewBox="0 0 16 16" fill="none" xmlns="http://www.w3.org/2000/svg">
<path fill-rule="evenodd" clip-rule="evenodd" d="M3.11633 8.76977L2.72233 8.37977C2.62233 8.27977 2.55033 8.14977 2.51433 8.01977C1.96833 5.93977 2.50733 3.64977 4.13033 2.01977C6.56033 -0.410234 10.5053 -0.410234 12.9333 2.01977C15.0003 4.08977 15.3083 7.24977 13.8543 9.64977C14.4373 10.1898 14.8003 10.9698 14.8003 11.8298C14.8003 13.4798 13.4593 14.8198 11.8083 14.8198C10.4363 14.8198 9.27933 13.8898 8.92933 12.6298C8.26233 12.6798 7.58933 12.6098 6.93933 12.4398C6.80233 12.3998 6.67733 12.3298 6.57733 12.2298L6.05333 11.7098L4.26733 13.4898C3.96733 13.7898 3.56033 13.9598 3.13533 13.9598C2.71133 13.9598 2.30433 13.7898 2.00433 13.4898C1.78933 13.2798 1.54533 13.0298 1.33033 12.8198C1.03033 12.5198 0.861328 12.1098 0.861328 11.6898C0.861328 11.2598 1.03033 10.8598 1.33033 10.5598L3.11633 8.76977ZM11.8083 10.4298C12.5763 10.4298 13.2003 11.0598 13.2003 11.8298C13.2003 12.5898 12.5763 13.2198 11.8083 13.2198C11.0403 13.2198 10.4163 12.5898 10.4163 11.8298C10.4163 11.0598 11.0403 10.4298 11.8083 10.4298ZM4.24833 9.89977L2.50633 11.6398L2.51033 11.6498C2.52833 11.6498 2.53133 11.6698 2.52533 11.6898C2.53133 11.7098 2.52933 11.7298 2.51133 11.7298H2.50633L3.09033 12.3198L3.09633 12.3098H3.09833C3.09433 12.2998 3.11333 12.2898 3.13533 12.2998C3.15833 12.2898 3.17733 12.2998 3.17233 12.3098H3.17533L3.18033 12.3198L4.92133 10.5798L4.24833 9.89977ZM12.4353 8.89977C13.5723 7.10977 13.3613 4.70977 11.8023 3.14977C9.99833 1.34977 7.06733 1.34977 5.26233 3.14977C4.10933 4.30977 3.69233 5.91977 4.01333 7.39977V7.40977L7.55033 10.9398C8.00333 11.0398 8.46733 11.0698 8.92733 11.0298C9.27433 9.75977 10.4333 8.82977 11.8083 8.82977C12.0233 8.82977 12.2323 8.85977 12.4353 8.89977Z" fill="black"/>
</svg>
