<svg width="24" height="24" viewBox="0 0 24 24" fill="none" xmlns="http://www.w3.org/2000/svg">
<path fill-rule="evenodd" clip-rule="evenodd" d="M5.28998 13.8695L4.68998 13.2695C4.56998 13.1395 4.47998 12.9895 4.42998 12.8195C3.69998 10.0195 4.41998 6.91953 6.60998 4.72953C9.88998 1.44953 15.21 1.44953 18.49 4.72953C21.3 7.53953 21.7 11.8495 19.69 15.0795C20.5 15.8095 21.01 16.8595 21.01 18.0395C21.01 20.2395 19.22 22.0295 17.02 22.0295C15.17 22.0295 13.61 20.7595 13.16 19.0395C12.24 19.1095 11.3 19.0195 10.4 18.7895C10.23 18.7395 10.08 18.6495 9.94998 18.5295L9.16998 17.7495L6.74998 20.1695C6.32998 20.5795 5.77998 20.8195 5.18998 20.8195C4.60998 20.8195 4.04998 20.5795 3.63998 20.1695L2.86998 19.4095C2.45998 18.9895 2.22998 18.4295 2.22998 17.8495C2.22998 17.2695 2.45998 16.7095 2.86998 16.2895L5.28998 13.8695ZM17.02 16.0495C18.12 16.0495 19.01 16.9395 19.01 18.0395C19.01 19.1295 18.12 20.0295 17.02 20.0295C15.92 20.0295 15.03 19.1295 15.03 18.0395C15.03 16.9395 15.92 16.0495 17.02 16.0495ZM6.70998 15.2795L4.28998 17.7095C4.24998 17.7495 4.22998 17.7995 4.22998 17.8495C4.22998 17.8995 4.24998 17.9495 4.28998 17.9895L5.04998 18.7595C5.08998 18.7895 5.13998 18.8195 5.18998 18.8195C5.23998 18.8195 5.29998 18.7895 5.32998 18.7595L7.75998 16.3295L6.70998 15.2795ZM17.92 14.1495C19.53 11.6695 19.25 8.31953 17.08 6.13953C14.58 3.64953 10.53 3.64953 8.02998 6.13953C6.42998 7.74953 5.84998 9.98953 6.30998 12.0495L11.17 16.9095C11.82 17.0595 12.49 17.0995 13.16 17.0395C13.6 15.3195 15.16 14.0495 17.02 14.0495C17.33 14.0495 17.63 14.0795 17.92 14.1495Z" fill="black"/>
</svg>
