<svg width="24" height="24" viewBox="0 0 24 24" fill="none" xmlns="http://www.w3.org/2000/svg">
<path fill-rule="evenodd" clip-rule="evenodd" d="M11.7042 5.37425C11.3618 4.74985 10.7064 4.36165 9.99428 4.36165C9.28218 4.36165 8.62678 4.74985 8.28438 5.37425L6.46218 8.69775L2.73818 9.40375C2.03858 9.53635 1.46688 10.0399 1.24688 10.7171C1.02678 11.3943 1.19338 12.1377 1.68148 12.6562L4.27928 15.4162L3.79988 19.1761C3.70988 19.8825 4.01198 20.5818 4.58808 21.0003C5.16418 21.4189 5.92258 21.4901 6.56658 21.1862L9.99428 19.5684L13.422 21.1862C14.066 21.4901 14.8244 21.4189 15.4005 21.0003C15.9766 20.5818 16.2787 19.8825 16.1887 19.1761L15.7093 15.4162L18.3071 12.6562C18.7952 12.1377 18.9618 11.3943 18.7417 10.7171C18.5217 10.0399 17.95 9.53635 17.2504 9.40375L13.5264 8.69785L11.7042 5.37425ZM10.0381 6.28755L12.0759 10.0044C12.2124 10.2534 12.453 10.4282 12.732 10.4811C12.732 10.4811 15.1423 10.938 16.8965 11.2706C16.9144 11.274 16.9291 11.2869 16.9347 11.3042C16.9404 11.3216 16.9361 11.3407 16.9236 11.354C15.6999 12.654 14.0184 14.4405 14.0184 14.4405C13.8239 14.6472 13.7319 14.9301 13.7678 15.2118C13.7678 15.2118 14.0781 17.6454 14.3039 19.4164C14.3062 19.4345 14.2985 19.4525 14.2837 19.4632C14.2689 19.4739 14.2495 19.4758 14.233 19.468C12.6184 18.7059 10.3998 17.6588 10.3998 17.6588C10.143 17.5376 9.84558 17.5376 9.58878 17.6588C9.58878 17.6588 7.37018 18.7059 5.75558 19.468C5.73908 19.4758 5.71968 19.4739 5.70488 19.4632C5.69008 19.4525 5.68238 19.4345 5.68468 19.4164C5.91048 17.6454 6.22078 15.2118 6.22078 15.2118C6.25668 14.9301 6.16468 14.6472 5.97018 14.4405C5.97018 14.4405 4.28868 12.654 3.06498 11.354C3.05248 11.3407 3.04818 11.3216 3.05388 11.3042C3.05948 11.2869 3.07418 11.274 3.09208 11.2706C4.84628 10.938 7.25658 10.4811 7.25658 10.4811C7.53558 10.4282 7.77618 10.2534 7.91268 10.0044C7.91268 10.0044 9.09208 7.85315 9.95048 6.28765C9.95918 6.27165 9.97598 6.26165 9.99428 6.26165C10.0125 6.26165 10.0293 6.27165 10.0381 6.28755ZM20.4028 9.24205L22.7635 8.27945C23.249 8.08145 23.4824 7.52655 23.2844 7.04105C23.0864 6.55555 22.5315 6.32205 22.046 6.52005L19.6854 7.48275C19.1999 7.68075 18.9664 8.23565 19.1644 8.72115C19.3624 9.20665 19.9173 9.44005 20.4028 9.24205ZM17.5307 6.97065L21.7289 2.77245C22.0997 2.40165 22.0997 1.79965 21.7289 1.42895C21.3582 1.05815 20.7562 1.05815 20.3854 1.42895L16.1872 5.62715C15.8164 5.99795 15.8164 6.59995 16.1872 6.97065C16.5579 7.34145 17.1599 7.34145 17.5307 6.97065ZM15.0503 4.40305L16.3689 1.56965C16.5902 1.09435 16.3838 0.528753 15.9085 0.307553C15.4331 0.0863526 14.8675 0.292653 14.6463 0.768053L13.3277 3.60145C13.1065 4.07685 13.3129 4.64235 13.7882 4.86355C14.2636 5.08475 14.8291 4.87845 15.0503 4.40305Z" fill="black"/>
</svg>
