<svg width="16" height="16" viewBox="0 0 16 16" fill="none" xmlns="http://www.w3.org/2000/svg">
<path fill-rule="evenodd" clip-rule="evenodd" d="M6.53871 1.30016L5.94571 2.47016L4.74071 1.96016C4.17271 1.71016 3.51771 1.81016 3.04471 2.21016C2.57171 2.61016 2.36171 3.23016 2.50171 3.83016L2.79771 5.11016L1.54471 5.49016C0.954712 5.67016 0.515712 6.17016 0.407712 6.78016C0.300712 7.38016 0.543712 8.00016 1.03771 8.37016L2.08471 9.16016L1.36971 10.2502C1.03271 10.7702 1.01571 11.4302 1.32371 11.9702C1.63271 12.5002 2.21471 12.8202 2.83071 12.7902L4.13871 12.7202L4.29671 14.0202C4.37171 14.6302 4.78371 15.1502 5.36271 15.3602C5.94271 15.5702 6.59171 15.4402 7.04271 15.0202L7.99971 14.1202L8.95671 15.0202C9.40771 15.4402 10.0567 15.5702 10.6367 15.3602C11.2157 15.1502 11.6277 14.6302 11.7027 14.0202L11.8607 12.7202L13.1687 12.7902C13.7847 12.8202 14.3667 12.5002 14.6757 11.9702C14.9837 11.4302 14.9667 10.7702 14.6297 10.2502L13.9147 9.16016L14.9617 8.37016C15.4557 8.00016 15.6987 7.38016 15.5917 6.78016C15.4837 6.17016 15.0447 5.67016 14.4547 5.49016L13.2017 5.11016L13.4977 3.83016C13.6377 3.23016 13.4277 2.61016 12.9547 2.21016C12.4817 1.81016 11.8267 1.71016 11.2587 1.96016L10.0537 2.47016L9.46071 1.30016C9.18171 0.750156 8.61671 0.410156 7.99971 0.410156C7.38271 0.410156 6.81771 0.750156 6.53871 1.30016ZM7.03271 3.86016L7.96471 2.03016C7.97171 2.01016 7.98471 2.01016 7.99971 2.01016C8.01471 2.01016 8.02771 2.01016 8.03471 2.03016L8.96671 3.86016C9.15671 4.24016 9.60571 4.40016 9.99271 4.23016L11.8857 3.43016C11.8997 3.42016 11.9147 3.43016 11.9267 3.43016C11.9377 3.44016 11.9427 3.46016 11.9387 3.47016L11.4737 5.48016C11.3787 5.89016 11.6177 6.30016 12.0207 6.42016L13.9887 7.02016C14.0027 7.03016 14.0127 7.04016 14.0157 7.05016C14.0177 7.07016 14.0127 7.08016 14.0007 7.09016L12.3557 8.33016C12.0197 8.58016 11.9367 9.05016 12.1667 9.40016L13.2887 11.1302C13.2967 11.1402 13.2977 11.1602 13.2897 11.1702C13.2827 11.1802 13.2687 11.1902 13.2547 11.1902L11.1997 11.0802C10.7797 11.0602 10.4137 11.3602 10.3627 11.7802L10.1147 13.8202C10.1127 13.8402 10.1027 13.8502 10.0887 13.8502C10.0757 13.8602 10.0597 13.8602 10.0487 13.8502L8.54571 12.4402C8.23871 12.1502 7.76071 12.1502 7.45371 12.4402L5.95071 13.8502C5.93971 13.8602 5.92371 13.8602 5.91071 13.8502C5.89671 13.8502 5.88671 13.8402 5.88471 13.8202L5.63671 11.7802C5.58571 11.3602 5.21971 11.0602 4.79971 11.0802L2.74471 11.1902C2.73071 11.1902 2.71671 11.1802 2.70971 11.1702C2.70171 11.1602 2.70271 11.1402 2.71071 11.1302L3.83271 9.40016C4.06271 9.05016 3.97971 8.58016 3.64371 8.33016L1.99871 7.09016C1.98671 7.08016 1.98171 7.07016 1.98371 7.05016C1.98671 7.04016 1.99671 7.03016 2.01071 7.02016L3.97871 6.42016C4.38171 6.30016 4.62071 5.89016 4.52571 5.48016L4.06071 3.47016C4.05671 3.46016 4.06171 3.44016 4.07271 3.43016C4.08471 3.43016 4.09971 3.42016 4.11371 3.43016L6.00671 4.23016C6.39371 4.40016 6.84271 4.24016 7.03271 3.86016Z" fill="black"/>
</svg>
