<svg xmlns="http://www.w3.org/2000/svg" viewBox="0 0 24 24" fill="currentColor"><path fill-rule="evenodd" d="M9.83 3.296 7.924 6.769l-3.891.738a2.5 2.5 0 0 0-1.356 4.17l2.715 2.885-.5 3.929a2.5 2.5 0 0 0 3.547 2.578l3.582-1.691 3.582 1.69a2.5 2.5 0 0 0 3.548-2.577l-.5-3.93 2.714-2.884a2.5 2.5 0 0 0-1.355-4.17l-3.892-.738-1.904-3.473a2.5 2.5 0 0 0-4.386 0M9.45 8.144l2.131-3.887a.5.5 0 0 1 .878 0l2.131 3.887a1 1 0 0 0 .69.502l4.356.826a.5.5 0 0 1 .272.835l-3.039 3.228a1 1 0 0 0-.263.812l.56 4.397a.5.5 0 0 1-.71.516l-4.01-1.892a1 1 0 0 0-.853 0L7.586 19.26a.5.5 0 0 1-.71-.516l.56-4.397a1 1 0 0 0-.263-.812l-3.038-3.228a.5.5 0 0 1 .271-.835l4.355-.826a1 1 0 0 0 .691-.502" clip-rule="evenodd"/></svg>
