<svg width="24" height="24" viewBox="0 0 24 24" fill="none" xmlns="http://www.w3.org/2000/svg">
<g clip-path="url(#clip0_32159_318)">
<path d="M18.8877 4.55837C15.6494 4.71046 13.318 6.39654 12.3278 7.47002C11.9533 7.87596 11.3207 7.90148 10.9147 7.52701C10.5088 7.15254 10.4833 6.51989 10.8577 6.11395C12.5452 4.28461 17.1168 1.22188 23.2709 3.16794C23.7245 3.31138 24.0142 3.75455 23.9637 4.22761C23.9132 4.70067 23.5364 5.07264 23.0627 5.11704C19.7408 5.42839 17.2348 8.33074 16.646 11.0465C16.529 11.5863 15.9966 11.929 15.4568 11.8119C14.9171 11.6949 14.5744 11.1625 14.6914 10.6228C15.1735 8.39918 16.6737 6.03326 18.8877 4.55837Z" fill="black"/>
<path fill-rule="evenodd" clip-rule="evenodd" d="M5.76824 8.9966C5.9548 8.0693 6.77696 7.50536 7.60813 7.50536C8.53456 7.50536 9.26282 8.1576 9.46677 8.97338C9.47121 8.99116 9.47517 9.00907 9.47863 9.02707C9.60479 9.68309 9.73047 10.31 9.85512 10.8834L9.85546 10.885C10.0522 11.7971 10.7679 12.5103 11.6494 12.7078C12.2937 12.8368 12.9863 12.9905 13.6663 13.1417L13.6784 13.1443C14.5591 13.3516 15.1599 14.1083 15.1599 15.007C15.1599 15.8311 14.6002 16.6685 13.6742 16.85C13.3402 16.9217 13.0105 16.9996 12.6813 17.0773L12.6634 17.0816C12.3306 17.1602 11.995 17.2393 11.6762 17.3058C10.775 17.5014 10.0795 18.2092 9.88109 19.102C9.83896 19.3041 9.79517 19.5094 9.75098 19.7165C9.65798 20.1524 9.56325 20.5964 9.47863 21.0364C9.47604 21.0499 9.47318 21.0633 9.47004 21.0766C9.26348 21.9545 8.50963 22.5594 7.60813 22.5594C6.79103 22.5594 5.96073 22.0086 5.76942 21.0975C5.66845 20.7065 5.56845 20.286 5.47539 19.8946C5.41014 19.6202 5.3483 19.3601 5.29191 19.1346L5.28633 19.1111C5.09241 18.2473 4.4215 17.5676 3.53748 17.3503C3.30381 17.2942 3.04064 17.2339 2.76423 17.1707C2.35327 17.0766 1.91307 16.9758 1.49717 16.8721C0.582283 16.6827 0.0302734 15.8495 0.0302734 15.0318C0.0302734 14.1051 0.68331 13.3764 1.49891 13.1725C1.50742 13.1704 1.51595 13.1684 1.52451 13.1665C2.20665 13.0149 2.89682 12.8617 3.51248 12.7334C4.4087 12.5342 5.11534 11.8358 5.30974 10.9615C5.43759 10.3483 5.59028 9.68524 5.76824 8.9966ZM7.60727 9.88155C7.47812 10.4024 7.36455 10.9046 7.26645 11.3754L7.26418 11.3864C6.89865 13.0478 5.57668 14.3271 3.93729 14.6877L3.92639 14.6901C3.44594 14.7902 2.91622 14.9064 2.37255 15.0269C2.64245 15.0912 2.90459 15.1511 3.16527 15.2106C3.44484 15.2745 3.72272 15.3379 4.00664 15.4061L4.01114 15.4071C5.61081 15.7989 6.86668 17.0423 7.23495 18.6605C7.30477 18.9402 7.36877 19.2102 7.43306 19.4815C7.48903 19.7177 7.54523 19.9549 7.6057 20.2001C7.6696 19.8869 7.73664 19.5726 7.8005 19.2732C7.84393 19.0696 7.88589 18.8729 7.92438 18.6881L7.92666 18.6772C8.28823 17.0337 9.57147 15.7138 11.2576 15.3501L11.2644 15.3486C11.554 15.2883 11.8647 15.2152 12.2037 15.1351L12.2291 15.1291C12.4113 15.0861 12.6007 15.0413 12.7946 14.9969C12.2592 14.8785 11.7367 14.7649 11.2469 14.6669L11.2281 14.6629C9.57413 14.2991 8.2622 12.9825 7.90059 11.3075C7.80251 10.8563 7.70461 10.3768 7.60727 9.88155Z" fill="black"/>
</g>
<defs>
<clipPath id="clip0_32159_318">
<rect width="24" height="24" fill="white"/>
</clipPath>
</defs>
</svg>
