<svg width="12" height="12" viewBox="0 0 12 12" fill="none" xmlns="http://www.w3.org/2000/svg">
<path fill-rule="evenodd" clip-rule="evenodd" d="M0.621094 3.69766V8.30366C0.621094 10.0157 2.00909 11.4037 3.72109 11.4037H8.32609C10.0381 11.4037 11.4261 10.0157 11.4261 8.30366V3.69766C11.4261 1.98566 10.0381 0.597656 8.32609 0.597656H3.72109C2.00909 0.597656 0.621094 1.98566 0.621094 3.69766ZM9.82609 5.63966L8.46809 6.96966C7.76809 7.65566 6.64809 7.65566 5.94809 6.96966C5.73609 6.76166 5.50209 6.53266 5.29009 6.32466C5.21209 6.24866 5.08809 6.24866 5.01009 6.32466L2.35609 8.92566C2.59209 9.44366 3.11409 9.80366 3.72109 9.80366H8.32609C9.15509 9.80366 9.82609 9.13166 9.82609 8.30366V5.63966ZM9.80109 3.42366C9.67209 2.72666 9.06109 2.19766 8.32609 2.19766H3.72109C2.89209 2.19766 2.22109 2.86966 2.22109 3.69766V6.81766L3.89009 5.18166C4.59009 4.49666 5.71009 4.49666 6.41009 5.18166C6.62209 5.38966 6.85609 5.61866 7.06809 5.82666C7.14609 5.90366 7.27009 5.90366 7.34809 5.82666L9.80109 3.42366Z" fill="black"/>
</svg>
