<svg width="24" height="24" viewBox="0 0 24 24" fill="none" xmlns="http://www.w3.org/2000/svg">
<path fill-rule="evenodd" clip-rule="evenodd" d="M2.0498 16C2.0498 17.59 2.6798 19.12 3.7998 20.24C4.9298 21.37 6.4598 22 8.0498 22H16.0498C17.6398 22 19.1598 21.37 20.2898 20.24C21.4098 19.12 22.0498 17.59 22.0498 16V8C22.0498 6.41 21.4098 4.88 20.2898 3.76C19.1598 2.63 17.6398 2 16.0498 2H8.0498C6.4598 2 4.9298 2.63 3.7998 3.76C2.6798 4.88 2.0498 6.41 2.0498 8V16ZM20.0498 10.05L16.5198 13.51C15.3498 14.65 13.4798 14.65 12.3198 13.51C11.8898 13.09 11.4198 12.64 10.9998 12.22C10.6098 11.84 9.9898 11.84 9.5998 12.22L4.3098 17.41C4.4998 17.94 4.8098 18.42 5.2198 18.83C5.9698 19.58 6.9898 20 8.0498 20H16.0498C17.1098 20 18.1298 19.58 18.8798 18.83C19.6298 18.08 20.0498 17.06 20.0498 16V10.05ZM19.9898 7.31C19.8498 6.51 19.4598 5.76 18.8798 5.17C18.1298 4.42 17.1098 4 16.0498 4H8.0498C6.9898 4 5.9698 4.42 5.2198 5.17C4.4698 5.92 4.0498 6.94 4.0498 8V14.86L8.1998 10.79C9.3698 9.65 11.2298 9.65 12.3998 10.79C12.8198 11.21 13.2898 11.66 13.7198 12.08C14.1098 12.46 14.7298 12.46 15.1198 12.08L19.9898 7.31Z" fill="black"/>
</svg>
