<svg width="16" height="16" viewBox="0 0 16 16" fill="none" xmlns="http://www.w3.org/2000/svg">
<path fill-rule="evenodd" clip-rule="evenodd" d="M1.2002 9.99922C1.2002 11.2692 1.7062 12.4892 2.6062 13.3892C3.5062 14.2892 4.7272 14.7992 6.0002 14.7992C7.2872 14.7992 8.7132 14.7992 10.0002 14.7992C11.2732 14.7992 12.4942 14.2892 13.3942 13.3892C14.2942 12.4892 14.8002 11.2692 14.8002 9.99922C14.8002 8.70922 14.8002 7.28922 14.8002 5.99922C14.8002 4.72922 14.2942 3.50922 13.3942 2.60922C12.4942 1.70922 11.2732 1.19922 10.0002 1.19922C8.7132 1.19922 7.2872 1.19922 6.0002 1.19922C4.7272 1.19922 3.5062 1.70922 2.6062 2.60922C1.7062 3.50922 1.2002 4.72922 1.2002 5.99922V9.99922ZM13.2002 7.04922L10.9042 9.29922C10.1262 10.0592 8.8822 10.0592 8.1042 9.29922L7.0392 8.25922C6.8842 8.09922 6.6352 8.09922 6.4802 8.25922L3.1722 11.4992C3.3192 11.7792 3.5092 12.0292 3.7372 12.2592C4.3372 12.8592 5.1512 13.1992 6.0002 13.1992H10.0002C10.8492 13.1992 11.6632 12.8592 12.2632 12.2592C12.8632 11.6592 13.2002 10.8492 13.2002 9.99922V7.04922ZM13.0282 4.97922C12.8752 4.50922 12.6142 4.08922 12.2632 3.73922C11.6632 3.13922 10.8492 2.79922 10.0002 2.79922H6.0002C5.1512 2.79922 4.3372 3.13922 3.7372 3.73922C3.1372 4.33922 2.8002 5.14922 2.8002 5.99922V9.61922L5.3602 7.10922C6.1382 6.34922 7.3822 6.34922 8.1592 7.10922L9.2242 8.15922C9.3792 8.30922 9.6282 8.30922 9.7842 8.15922L13.0282 4.97922Z" fill="black"/>
</svg>
