<svg width="16" height="16" viewBox="0 0 16 16" fill="none" xmlns="http://www.w3.org/2000/svg">
<path fill-rule="evenodd" clip-rule="evenodd" d="M6.625 1.33L6.635 1.39L7.576 1.56C8.361 1.7 9.004 2.2 9.347 2.88C11.615 3.35 13.367 5.23 13.65 7.57C13.29 7.48 12.915 7.44 12.531 7.44C9.7 7.44 7.402 9.74 7.402 12.57C7.402 12.95 7.444 13.33 7.527 13.68C5.187 13.38 3.306 11.61 2.845 9.33C2.188 8.98 1.7 8.35 1.56 7.58C1.498 7.23 1.44 6.91 1.389 6.63L1.318 6.62C1.195 7.14 1.131 7.68 1.131 8.23C1.131 11.85 3.855 14.84 7.362 15.28C7.366 15.28 7.37 15.28 7.375 15.28C8.053 15.35 8.729 15.12 9.22 14.64C9.222 14.64 9.224 14.64 9.226 14.64C10.442 13.43 13.418 10.45 14.595 9.24C15.077 8.76 15.315 8.08 15.241 7.39L15.24 7.38C14.818 3.87 11.83 1.15 8.211 1.15C7.666 1.15 7.135 1.21 6.625 1.33ZM12.542 9.04H12.531C10.583 9.04 9.002 10.62 9.002 12.57L9.003 12.6L10.795 10.81L12.542 9.04ZM3.134 0.73C3.211 0.31 3.581 0 4.012 0C4.443 0 4.813 0.31 4.89 0.73C4.952 1.08 5.01 1.39 5.061 1.67C5.18 2.33 5.693 2.84 6.349 2.96C6.629 3.01 6.949 3.07 7.291 3.13C7.715 3.21 8.024 3.58 8.024 4.01C8.024 4.44 7.715 4.81 7.291 4.89C6.949 4.95 6.629 5.01 6.349 5.06C5.693 5.18 5.18 5.69 5.061 6.35C5.01 6.63 4.952 6.95 4.89 7.29C4.813 7.72 4.443 8.02 4.012 8.02C3.581 8.02 3.211 7.72 3.134 7.29C3.072 6.95 3.014 6.63 2.963 6.35C2.845 5.69 2.331 5.18 1.675 5.06C1.395 5.01 1.075 4.95 0.733 4.89C0.309 4.81 0 4.44 0 4.01C0 3.58 0.309 3.21 0.733 3.13C1.075 3.07 1.395 3.01 1.675 2.96C2.331 2.84 2.845 2.33 2.963 1.67C3.014 1.39 3.072 1.08 3.134 0.73Z" fill="black"/>
</svg>
