<svg width="16" height="16" viewBox="0 0 16 16" fill="none" xmlns="http://www.w3.org/2000/svg">
<path fill-rule="evenodd" clip-rule="evenodd" d="M2.2002 10.0019C2.2002 11.0097 2.6006 11.9762 3.3132 12.6889C4.0258 13.4015 4.9924 13.8019 6.0002 13.8019H10.0002C11.008 13.8019 11.9746 13.4015 12.6872 12.6889C13.3998 11.9762 13.8002 11.0097 13.8002 10.0019C13.8002 8.73712 13.8002 7.26792 13.8002 6.00312C13.8002 4.99522 13.3998 4.02873 12.6872 3.31613C11.9746 2.60343 11.008 2.20312 10.0002 2.20312C8.735 2.20312 7.2654 2.20312 6.0002 2.20312C4.9924 2.20312 4.0258 2.60343 3.3132 3.31613C2.6006 4.02873 2.2002 4.99522 2.2002 6.00312V10.0019ZM3.8002 10.0019V6.00313C3.8002 5.41963 4.032 4.86002 4.4446 4.44742C4.8571 4.03492 5.4167 3.80313 6.0002 3.80313C7.2654 3.80313 8.73499 3.80313 10.0002 3.80313C10.5837 3.80313 11.1433 4.03492 11.5558 4.44742C11.9684 4.86002 12.2002 5.41963 12.2002 6.00313C12.2002 7.26793 12.2002 8.73712 12.2002 10.0019C12.2002 10.5853 11.9684 11.1449 11.5558 11.5575C11.1433 11.9701 10.5837 12.2019 10.0002 12.2019H6.0002C5.4167 12.2019 4.8571 11.9701 4.4446 11.5575C4.032 11.1449 3.8002 10.5853 3.8002 10.0019Z" fill="black"/>
</svg>
