<svg width="16" height="16" viewBox="0 0 16 16" fill="none" xmlns="http://www.w3.org/2000/svg">
<path fill-rule="evenodd" clip-rule="evenodd" d="M7.99994 0.691406C3.96544 0.691406 0.689941 3.96691 0.689941 8.00141C0.689941 12.0359 3.96544 15.3114 7.99994 15.3114C12.0344 15.3114 15.3099 12.0359 15.3099 8.00141C15.3099 3.96691 12.0344 0.691406 7.99994 0.691406ZM7.99994 2.29141C11.1513 2.29141 13.7099 4.85001 13.7099 8.00141C13.7099 11.1528 11.1513 13.7114 7.99994 13.7114C4.84854 13.7114 2.28994 11.1528 2.28994 8.00141C2.28994 4.85001 4.84854 2.29141 7.99994 2.29141ZM10.8413 6.16001C10.8413 5.60771 10.3936 5.16001 9.84134 5.16001H6.15854C5.60624 5.16001 5.15854 5.60771 5.15854 6.16001V9.84281C5.15854 10.3951 5.60624 10.8428 6.15854 10.8428H9.84134C10.3936 10.8428 10.8413 10.3951 10.8413 9.84281V6.16001Z" fill="black"/>
</svg>
