<svg width="16" height="16" viewBox="0 0 16 16" fill="none" xmlns="http://www.w3.org/2000/svg">
<path fill-rule="evenodd" clip-rule="evenodd" d="M15.269 7.99847C15.269 3.98447 12.015 0.730469 8.00096 0.730469H7.99896C3.98496 0.730469 0.730957 3.98447 0.730957 7.99847V8.00047C0.730957 12.0145 3.98496 15.2685 7.99896 15.2685H8.00096C12.015 15.2685 15.269 12.0145 15.269 8.00047V7.99847ZM13.669 7.99847V8.00047C13.669 11.1305 11.131 13.6685 8.00096 13.6685H7.99896C4.86896 13.6685 2.33096 11.1305 2.33096 8.00047V7.99847C2.33096 4.86847 4.86896 2.33047 7.99896 2.33047H8.00096C11.131 2.33047 13.669 4.86847 13.669 7.99847ZM4.76596 8.79947H11.244C11.686 8.79947 12.044 8.44147 12.044 7.99947C12.044 7.55747 11.686 7.19947 11.244 7.19947H4.76596C4.32396 7.19947 3.96596 7.55747 3.96596 7.99947C3.96596 8.44147 4.32396 8.79947 4.76596 8.79947Z" fill="black"/>
</svg>
