<svg width="16" height="16" viewBox="0 0 16 16" fill="none" xmlns="http://www.w3.org/2000/svg">
<path d="M3 10.657C3 11.2781 3.2467 11.8737 3.6859 12.3129C4.125 12.7521 4.7207 12.9988 5.3417 12.9988C6.943 12.9988 9.057 12.9988 10.6583 12.9988C11.2793 12.9988 11.875 12.7521 12.3141 12.3129C12.7533 11.8737 13 11.2781 13 10.657C13 9.0561 13 6.9426 13 5.3417C13 4.7206 12.7533 4.125 12.3141 3.6858C11.875 3.2467 11.2793 3 10.6583 3C9.057 3 6.943 3 5.3417 3C4.7207 3 4.125 3.2467 3.6859 3.6858C3.2467 4.125 3 4.7206 3 5.3417C3 6.9426 3 9.0561 3 10.657Z" fill="black"/>
</svg>
