<svg width="24" height="24" viewBox="0 0 24 24" fill="none" xmlns="http://www.w3.org/2000/svg">
<path fill-rule="evenodd" clip-rule="evenodd" d="M2.00008 10.83C1.85008 10.7 1.72008 10.57 1.60008 10.43C1.02008 9.71 0.770078 8.72 1.15008 7.61C1.68008 6.07 2.06008 4.99 2.32008 4.3C2.32008 4.3 2.32008 4.29 2.32008 4.28C2.84008 2.91 4.15008 2 5.62008 2C6.30008 2 7.05008 2 7.05008 2C7.30008 2 7.54008 2.05 7.76008 2.13C7.98008 2.05 8.23008 2 8.48008 2H11.4701C11.6601 2 11.8501 2.03 12.0301 2.08C12.2101 2.03 12.4001 2 12.5901 2H15.5901C15.8501 2 16.0901 2.05 16.3201 2.14C16.5501 2.05 16.7901 2 17.0501 2C17.0501 2 17.8101 2 18.5001 2C19.9901 2 21.3201 2.94 21.8201 4.34C21.8201 4.34 21.8201 4.34 21.8201 4.35C22.0801 5.08 22.4701 6.2 22.9501 7.62C23.3101 8.72 23.0701 9.71 22.4601 10.44C22.3301 10.6 22.1801 10.75 22.0001 10.88V20H22.5201C23.0701 20 23.5201 20.45 23.5201 21C23.5201 21.55 23.0701 22 22.5201 22H1.58008C1.03008 22 0.580078 21.55 0.580078 21C0.580078 20.45 1.03008 20 1.58008 20H2.00008V10.83ZM18.0001 11.07V16C18.0001 17.1 17.1001 18 16.0001 18H8.00008C6.90008 18 6.00008 17.1 6.00008 16V11.1C5.45008 11.38 4.83008 11.54 4.15008 11.54C4.10008 11.54 4.05008 11.54 4.00008 11.53V20H20.0001V11.54C19.9701 11.54 19.9501 11.54 19.9201 11.54C19.2101 11.54 18.5601 11.37 18.0001 11.07ZM16.0001 11.29C15.5701 11.45 15.0901 11.54 14.5501 11.54C13.4801 11.54 12.6901 11.17 12.1301 10.64L12.0501 10.57L11.9801 10.64C11.4201 11.16 10.6301 11.54 9.56008 11.54C8.97008 11.54 8.45008 11.44 8.00008 11.26V16H16.0001V11.29ZM11.3901 4.89L11.3801 5C11.3301 5.53 11.2701 6.23 11.1901 7C11.1501 7.32 11.1201 7.66 11.0801 8L11.0701 8.06L11.0601 8.17L11.0501 8.26V8.29C11.0401 8.34 11.0301 8.39 11.0201 8.44C10.9901 8.6 10.9301 8.75 10.8501 8.88V8.89C10.8301 8.92 10.8101 8.95 10.7901 8.97C10.7901 8.98 10.7801 8.99 10.7801 8.99C10.7701 9.01 10.7501 9.03 10.7401 9.04C10.7401 9.05 10.7401 9.05 10.7301 9.05L10.7101 9.08L10.7001 9.09C10.6901 9.1 10.6801 9.12 10.6701 9.13C10.6501 9.14 10.6401 9.16 10.6201 9.17C10.5901 9.2 10.5501 9.23 10.5101 9.26C10.5001 9.27 10.4801 9.28 10.4701 9.29H10.4601C10.4601 9.3 10.4501 9.31 10.4401 9.31L10.4201 9.32L10.3901 9.34C10.3501 9.36 10.3001 9.39 10.2501 9.41C10.2401 9.41 10.2401 9.41 10.2301 9.42C10.2201 9.42 10.2201 9.42 10.2101 9.43C10.1901 9.43 10.1701 9.44 10.1601 9.44L10.1301 9.45L10.1101 9.46C10.1001 9.46 10.0801 9.47 10.0701 9.47C10.0601 9.47 10.0501 9.48 10.0401 9.48C9.89008 9.52 9.73008 9.54 9.56008 9.54C9.52008 9.54 9.49008 9.54 9.46008 9.54L9.44008 9.53H9.39008C9.37008 9.53 9.34008 9.53 9.32008 9.53L9.30008 9.52C9.24008 9.52 9.18008 9.51 9.13008 9.5L9.11008 9.49C9.03008 9.48 8.95008 9.45 8.88008 9.43C8.86008 9.42 8.84008 9.41 8.82008 9.41C8.81008 9.4 8.80008 9.4 8.79008 9.39C8.77008 9.39 8.75008 9.38 8.72008 9.36C8.71008 9.36 8.69008 9.35 8.67008 9.34L8.65008 9.33C8.65008 9.32 8.64008 9.32 8.64008 9.32C8.62008 9.31 8.59008 9.29 8.57008 9.28C8.56008 9.27 8.54008 9.26 8.53008 9.25L8.50008 9.23L8.48008 9.22C8.47008 9.21 8.47008 9.2 8.46008 9.2C8.45008 9.19 8.43008 9.18 8.42008 9.17L8.39008 9.14C8.37008 9.12 8.36008 9.1 8.34008 9.09C8.30008 9.04 8.26008 9 8.23008 8.95C8.23008 8.95 8.23008 8.94 8.22008 8.94C8.21008 8.92 8.20008 8.9 8.19008 8.88L8.18008 8.87L8.17008 8.85V8.84C8.16008 8.83 8.16008 8.82 8.15008 8.81V8.8C8.14008 8.79 8.14008 8.79 8.14008 8.78C8.09008 8.66 8.06008 8.54 8.06008 8.41L8.05008 8.38C8.05008 8.35 8.05008 8.33 8.06008 8.3V8.18L8.07008 8.12C8.07008 8.08 8.07008 8.04 8.08008 8C8.11008 7.63 8.14008 7.26 8.17008 6.92L8.18008 6.79L8.19008 6.7L8.20008 6.59L8.21008 6.51L8.22008 6.41L8.23008 6.32V6.23L8.24008 6.13L8.26008 6.01L8.28008 5.79L8.29008 5.7L8.31008 5.48C8.31008 5.46 8.31008 5.44 8.32008 5.42L8.33008 5.31C8.34008 5.2 8.35008 5.1 8.36008 5C8.43008 4.38 8.48008 4 8.48008 4H11.4701C11.4701 4 11.4401 4.34 11.3901 4.89ZM6.83008 5L6.81008 5.12L6.79008 5.2L6.76008 5.33L6.74008 5.42L6.72008 5.53L6.70008 5.6L6.67008 5.73L6.64008 5.84C6.64008 5.86 6.63008 5.88 6.63008 5.91L6.61008 5.98L6.60008 6.05L6.58008 6.1C6.58008 6.12 6.57008 6.14 6.57008 6.16L6.55008 6.24L6.54008 6.31L6.52008 6.37C6.52008 6.39 6.51008 6.41 6.51008 6.43L6.49008 6.51L6.47008 6.58L6.46008 6.64C6.45008 6.67 6.44008 6.69 6.44008 6.71L6.42008 6.79L6.40008 6.86C6.40008 6.88 6.39008 6.9 6.39008 6.93L6.37008 7C6.27008 7.4 6.16008 7.82 6.05008 8.26C5.86008 8.97 5.08008 9.54 4.15008 9.54C4.10008 9.54 4.05008 9.54 4.00008 9.53C3.81008 9.52 3.64008 9.48 3.50008 9.42L3.47008 9.41L3.46008 9.4C3.44008 9.39 3.41008 9.38 3.39008 9.36L3.37008 9.35L3.35008 9.33H3.33008C3.32008 9.31 3.30008 9.3 3.28008 9.29L3.23008 9.24C3.22008 9.23 3.21008 9.22 3.20008 9.21L3.14008 9.15C3.13008 9.14 3.13008 9.13 3.12008 9.12L3.11008 9.1L3.09008 9.08L3.08008 9.05L3.07008 9.04L3.06008 9.02L3.05008 8.99L3.04008 8.97L2.99008 8.82V8.79L2.98008 8.76V8.55L2.99008 8.51V8.48L3.00008 8.45V8.42L3.01008 8.39L3.02008 8.35L3.04008 8.29V8.26H3.05008L3.10008 8.12L3.14008 7.98L3.19008 7.84L3.23008 7.71L3.28008 7.58L3.32008 7.45L3.37008 7.32L3.49008 6.96L3.65008 6.52L3.68008 6.42L3.72008 6.31L3.76008 6.21L3.79008 6.12L3.82008 6.02L3.86008 5.93L3.92008 5.75L3.95008 5.67C4.04008 5.41 4.12008 5.19 4.19008 5V4.99C4.42008 4.39 4.99008 4 5.62008 4C6.30008 4 7.05008 4 7.05008 4C7.05008 4 6.97008 4.38 6.83008 5ZM15.5901 4L15.7001 5L15.9101 7L16.0201 8L16.0501 8.26C16.0501 8.28 16.0501 8.3 16.0601 8.32C16.0601 8.34 16.0601 8.35 16.0601 8.36C16.0601 8.39 16.0601 8.42 16.0501 8.45C16.0501 8.46 16.0501 8.47 16.0501 8.48C16.0501 8.5 16.0501 8.51 16.0501 8.52L16.0401 8.54V8.57C16.0301 8.59 16.0301 8.61 16.0301 8.62L16.0201 8.64C16.0101 8.68 16.0001 8.71 15.9901 8.75L15.9701 8.78V8.8C15.9501 8.83 15.9401 8.86 15.9201 8.88L15.9101 8.9C15.9101 8.9 15.9101 8.91 15.9001 8.92C15.9001 8.92 15.9001 8.93 15.8901 8.93C15.8901 8.94 15.8901 8.94 15.8801 8.95C15.8801 8.96 15.8701 8.96 15.8701 8.97C15.8401 9.01 15.8001 9.05 15.7701 9.09C15.7501 9.11 15.7401 9.12 15.7201 9.14C15.7001 9.16 15.6801 9.17 15.6501 9.19L15.6401 9.2C15.6101 9.23 15.5801 9.25 15.5401 9.28H15.5301C15.5201 9.29 15.5101 9.29 15.5001 9.3C15.4801 9.31 15.4601 9.32 15.4401 9.33C15.4101 9.35 15.3701 9.37 15.3301 9.39C15.3201 9.39 15.3001 9.4 15.2901 9.41L15.2501 9.42C15.2301 9.43 15.2101 9.43 15.1901 9.44H15.1801C15.1701 9.45 15.1601 9.45 15.1401 9.45C15.1201 9.46 15.1001 9.47 15.0801 9.47H15.0701C15.0401 9.48 15.0001 9.49 14.9701 9.5C14.9401 9.5 14.9201 9.51 14.8901 9.51C14.8601 9.52 14.8201 9.52 14.7801 9.53H14.7301C14.7101 9.53 14.6801 9.53 14.6501 9.54H14.6101C14.5901 9.54 14.5801 9.54 14.5601 9.54H14.5501C14.5101 9.54 14.4601 9.54 14.4201 9.53C14.4101 9.53 14.4101 9.53 14.4001 9.53H14.3301C14.3301 9.53 14.3201 9.53 14.3101 9.52C14.3001 9.52 14.2801 9.52 14.2701 9.52C14.2501 9.52 14.2301 9.51 14.2101 9.51H14.2001C14.1901 9.51 14.1901 9.51 14.1801 9.51C14.1601 9.5 14.1501 9.5 14.1301 9.5C14.1201 9.49 14.1101 9.49 14.1001 9.49C14.0801 9.49 14.0701 9.48 14.0601 9.48C14.0401 9.47 14.0201 9.47 14.0001 9.46C13.9901 9.46 13.9801 9.46 13.9701 9.45L13.9401 9.44H13.9301C13.9101 9.43 13.8901 9.42 13.8701 9.42C13.8601 9.41 13.8401 9.4 13.8301 9.4L13.8101 9.39C13.7601 9.37 13.7201 9.34 13.6701 9.31C13.6501 9.3 13.6201 9.28 13.6001 9.27L13.5901 9.26C13.5901 9.26 13.5801 9.25 13.5701 9.25L13.5601 9.24C13.5501 9.23 13.5401 9.22 13.5301 9.22C13.5201 9.21 13.5101 9.2 13.5101 9.19C13.4901 9.18 13.4801 9.17 13.4601 9.15L13.4501 9.14C13.4401 9.13 13.4301 9.12 13.4201 9.1C13.4101 9.1 13.4101 9.09 13.4001 9.09C13.3901 9.07 13.3701 9.05 13.3601 9.03C13.3501 9.02 13.3401 9.01 13.3301 9V8.99C13.3101 8.97 13.3001 8.95 13.2901 8.94C13.2801 8.93 13.2801 8.93 13.2801 8.92C13.2101 8.81 13.1601 8.69 13.1201 8.56L13.1101 8.55C13.1101 8.54 13.1101 8.53 13.1001 8.52V8.51C13.0801 8.43 13.0601 8.34 13.0501 8.26L13.0401 8.18L13.0301 8.12C13.0301 8.08 13.0201 8.04 13.0101 8C12.9701 7.66 12.9301 7.32 12.8901 7C12.8601 6.81 12.8401 6.62 12.8201 6.44L12.8101 6.37C12.8101 6.34 12.8101 6.32 12.8101 6.3L12.7901 6.14L12.7801 6.03L12.7701 5.96L12.7601 5.85L12.7401 5.71L12.7301 5.6V5.54L12.7201 5.48V5.43C12.7001 5.27 12.6901 5.13 12.6801 5C12.6201 4.38 12.5901 4 12.5901 4H15.5901ZM19.9301 5L19.9401 5.01C20.1901 5.74 20.5801 6.84 21.0501 8.26L21.0701 8.32L21.0801 8.36L21.0901 8.39V8.42L21.1001 8.45V8.48L21.1101 8.51V8.74L21.1001 8.77V8.79L21.0801 8.85V8.88L21.0701 8.9L21.0501 8.96L21.0301 9V9.01C21.0201 9.02 21.0101 9.03 21.0101 9.04L20.9901 9.07L20.9801 9.09L20.9601 9.12L20.9201 9.16L20.9101 9.18L20.8801 9.21C20.8701 9.22 20.8601 9.23 20.8501 9.24L20.8101 9.28L20.7801 9.29L20.7601 9.31L20.7301 9.33L20.7101 9.35L20.6801 9.36L20.6701 9.37C20.6501 9.38 20.6401 9.38 20.6301 9.39L20.6001 9.4L20.5201 9.44L20.4901 9.45H20.4801C20.3401 9.5 20.1801 9.53 20.0001 9.54C19.9701 9.54 19.9501 9.54 19.9201 9.54C18.9901 9.54 18.2401 8.98 18.0501 8.26C17.9301 7.83 17.8201 7.4 17.7201 7C17.6801 6.83 17.6401 6.67 17.6101 6.52L17.5801 6.42L17.5601 6.3L17.5401 6.23L17.5201 6.15L17.5101 6.1L17.4901 6.04L17.4801 5.97L17.4601 5.9L17.4501 5.85C17.4401 5.83 17.4401 5.81 17.4401 5.78L17.4201 5.72L17.4101 5.65C17.3501 5.42 17.3001 5.2 17.2601 5C17.1201 4.39 17.0501 4 17.0501 4H18.5001C19.1401 4 19.7101 4.4 19.9301 5Z" fill="black"/>
</svg>
