<svg width="24" height="24" viewBox="0 0 24 24" fill="none" xmlns="http://www.w3.org/2000/svg">
<path fill-rule="evenodd" clip-rule="evenodd" d="M22 8C22 6.41 21.37 4.88 20.24 3.76C19.12 2.63 17.59 2 16 2H8C6.41 2 4.88 2.63 3.76 3.76C2.63 4.88 2 6.41 2 8V16C2 17.59 2.63 19.12 3.76 20.24C4.88 21.37 6.41 22 8 22H16C17.59 22 19.12 21.37 20.24 20.24C21.37 19.12 22 17.59 22 16V8ZM20 8V16C20 17.06 19.58 18.08 18.83 18.83C18.08 19.58 17.06 20 16 20H8C6.94 20 5.92 19.58 5.17 18.83C4.42 18.08 4 17.06 4 16V8C4 6.94 4.42 5.92 5.17 5.17C5.92 4.42 6.94 4 8 4H16C17.06 4 18.08 4.42 18.83 5.17C19.58 5.92 20 6.94 20 8Z" fill="black"/>
<path d="M6 16C6 15.4477 6.44772 15 7 15H11C11.5523 15 12 15.4477 12 16C12 16.5523 11.5523 17 11 17H7C6.44772 17 6 16.5523 6 16Z" fill="black"/>
<path d="M6 12C6 11.4477 6.44772 11 7 11H17C17.5523 11 18 11.4477 18 12C18 12.5523 17.5523 13 17 13H7C6.44772 13 6 12.5523 6 12Z" fill="black"/>
<path d="M6 8C6 7.44772 6.44772 7 7 7H14C14.5523 7 15 7.44772 15 8C15 8.55228 14.5523 9 14 9H7C6.44772 9 6 8.55228 6 8Z" fill="black"/>
</svg>
