<svg width="24" height="24" viewBox="0 0 24 24" fill="none" xmlns="http://www.w3.org/2000/svg">
<path fill-rule="evenodd" clip-rule="evenodd" d="M5.23984 5.25123L5.20084 5.28993L3.16084 5.88023C2.28784 6.13293 1.57584 6.76663 1.22484 7.60383C0.872841 8.44163 0.919841 9.39343 1.35184 10.193L2.37184 12.0813L1.37884 13.8885C0.941841 14.6842 0.888841 15.6344 1.23384 16.474C1.57784 17.3131 2.28384 17.9519 3.15384 18.212L5.15484 18.8101C5.17484 18.8311 5.19684 18.8531 5.21884 18.8751L5.81084 20.9001C6.06584 21.7713 6.70084 22.4812 7.54084 22.8306C8.37984 23.1797 9.33184 23.1316 10.1308 22.7L11.9828 21.6994L12.1108 21.6992C12.5598 21.9578 13.2188 22.333 13.8478 22.6756C14.6448 23.1096 15.5958 23.1615 16.4348 22.8166C17.2748 22.4713 17.9138 21.7656 18.1728 20.8967C18.3698 20.2374 18.5618 19.5279 18.6978 19.0111C18.7658 18.9462 18.8338 18.879 18.9008 18.8108L20.8208 18.2523C21.6938 17.9981 22.4038 17.3632 22.7548 16.5254C23.1048 15.687 23.0568 14.7353 22.6228 13.9365L21.6538 12.1486V12.0115L22.6218 10.241C23.0578 9.44463 23.1098 8.49433 22.7638 7.65523C22.4178 6.81683 21.7108 6.17913 20.8408 5.92053L18.9108 5.34713C18.8668 5.30203 18.8218 5.25653 18.7758 5.21153L18.2038 3.24163C17.9508 2.37003 17.3158 1.65913 16.4768 1.30823C15.6388 0.957831 14.6868 1.00433 13.8868 1.43463L12.0088 2.44493L10.1788 1.44363C9.38284 1.00833 8.43184 0.954931 7.59284 1.29833C6.75184 1.64223 6.11184 2.34703 5.85084 3.21533L5.23984 5.25123ZM6.80784 6.51703C6.93584 6.39653 7.02984 6.24443 7.08084 6.07593L7.76684 3.79043C7.85384 3.49993 8.06784 3.26463 8.34984 3.14953C8.63184 3.03413 8.95084 3.05203 9.21884 3.19833L11.2858 4.32913C11.4418 4.41443 11.6178 4.45663 11.7958 4.45133L12.2248 4.45033C12.3988 4.45473 12.5708 4.41373 12.7248 4.33123L14.8348 3.19583C15.1038 3.05123 15.4238 3.03563 15.7048 3.15343C15.9858 3.27083 16.1988 3.50823 16.2838 3.79973L16.9308 6.02833C16.9818 6.20223 17.0788 6.35923 17.2108 6.48243C17.3578 6.61853 17.4988 6.76033 17.6348 6.90743C17.7568 7.03993 17.9128 7.13683 18.0848 7.18813L20.2708 7.83763C20.5628 7.92423 20.7988 8.13743 20.9148 8.41813C21.0308 8.69813 21.0128 9.01533 20.8678 9.28113L19.7708 11.2855C19.6848 11.4431 19.6428 11.6211 19.6488 11.8007C19.6518 11.8911 19.6538 11.9822 19.6538 12.0737C19.6538 12.1681 19.6518 12.2622 19.6488 12.3558C19.6418 12.5345 19.6838 12.7118 19.7688 12.869L20.8648 14.8901C21.0098 15.1568 21.0258 15.4744 20.9088 15.7542C20.7918 16.0347 20.5538 16.2469 20.2618 16.332L18.0818 16.9666C17.9078 17.0173 17.7508 17.1146 17.6278 17.2478C17.4708 17.4178 17.3058 17.5806 17.1338 17.7356C16.9888 17.8666 16.8848 18.0374 16.8358 18.2267C16.7058 18.7266 16.4848 19.5606 16.2568 20.3249C16.1698 20.6155 15.9558 20.8512 15.6748 20.9667C15.3928 21.0826 15.0728 21.0653 14.8048 20.9194C14.0668 20.5172 13.2858 20.0691 12.8688 19.8275C12.7048 19.7328 12.5178 19.6864 12.3288 19.6937C12.2288 19.6976 12.1288 19.6996 12.0278 19.6996C11.9418 19.6996 11.8568 19.6981 11.7718 19.6953C11.5948 19.6895 11.4188 19.7307 11.2628 19.8149L9.17984 20.9403C8.91084 21.0854 8.59084 21.1015 8.30984 20.9842C8.02884 20.8673 7.81584 20.6302 7.72984 20.3389L7.06384 18.0611C7.01484 17.8909 6.91984 17.737 6.79184 17.6151C6.66684 17.4972 6.54584 17.3752 6.42884 17.249C6.30784 17.1176 6.15284 17.0212 5.98184 16.9699L3.72684 16.2958C3.43484 16.2087 3.19884 15.9951 3.08384 15.7143C2.96884 15.434 2.98684 15.1169 3.13184 14.8513L4.28084 12.7599C4.36584 12.6054 4.40784 12.4312 4.40384 12.255V11.9092C4.40784 11.7361 4.36584 11.565 4.28384 11.4126L3.11084 9.24233C2.96684 8.97543 2.95184 8.65773 3.06884 8.37813C3.18684 8.09783 3.42484 7.88593 3.71684 7.80143L6.01284 7.13703C6.18584 7.08703 6.34184 6.99153 6.46484 6.86043C6.57484 6.74243 6.68984 6.62793 6.80784 6.51703ZM9.34484 15.4764C10.3748 17.0917 11.9898 17.5588 13.3478 17.195C14.7038 16.8316 15.8718 15.6202 15.9628 13.7066C15.9898 13.1553 15.5638 12.6863 15.0118 12.6599C14.4608 12.6336 13.9918 13.0597 13.9658 13.611C13.9238 14.4908 13.4538 15.0961 12.8308 15.2631C12.2088 15.4298 11.5028 15.1407 11.0308 14.4008C10.7338 13.9355 10.1158 13.7987 9.64984 14.0955C9.18484 14.3924 9.04784 15.0111 9.34484 15.4764ZM10.7138 9.26663C9.67384 8.29023 8.22684 8.24903 7.23284 8.95353C6.58484 9.41223 6.09584 10.1953 6.08284 11.3061C6.07684 11.858 6.51884 12.3113 7.07084 12.3177C7.62284 12.324 8.07584 11.8812 8.08284 11.3293C8.08684 10.9882 8.18984 10.7264 8.38884 10.5856C8.66284 10.3908 9.05684 10.4548 9.34484 10.7247C9.74684 11.1025 10.3798 11.0825 10.7578 10.6801C11.1358 10.2778 11.1158 9.64443 10.7138 9.26663ZM16.7798 8.43893C16.2048 7.47203 15.3628 7.02773 14.5438 6.95753C13.2848 6.84953 12.0118 7.64373 11.6308 9.08263C11.4888 9.61613 11.8078 10.164 12.3408 10.3054C12.8748 10.4468 13.4228 10.1285 13.5638 9.59503C13.6728 9.18213 14.0118 8.91923 14.3728 8.95013C14.6348 8.97263 14.8768 9.15223 15.0598 9.46083C15.3418 9.93523 15.9558 10.0915 16.4308 9.80953C16.9048 9.52753 17.0618 8.91333 16.7798 8.43893Z" fill="black"/>
</svg>
