<svg width="16" height="16" viewBox="0 0 16 16" fill="none" xmlns="http://www.w3.org/2000/svg">
<path fill-rule="evenodd" clip-rule="evenodd" d="M4.85922 3.48088C4.39262 3.75187 3.95902 4.08408 3.57082 4.47218C2.39122 5.65178 1.72852 7.25168 1.72852 8.91988C1.72852 10.5881 2.39122 12.1882 3.57082 13.3678C4.75042 14.5474 6.35032 15.2101 8.01852 15.2101C9.68672 15.2101 11.2868 14.5474 12.4664 13.3678C13.646 12.1882 14.3087 10.5883 14.3087 8.92008C14.3087 7.25188 13.646 5.65178 12.4664 4.47218C12.0877 4.09358 11.6658 3.76818 11.2121 3.50087C10.8317 3.27667 10.3409 3.40358 10.1167 3.78398C9.89262 4.16438 10.0194 4.65517 10.3998 4.87927C10.7381 5.07857 11.0527 5.32127 11.335 5.60357C12.2146 6.48307 12.7087 7.67607 12.7087 8.91988C12.7087 10.1637 12.2146 11.3568 11.335 12.2364C10.4555 13.1159 9.26252 13.6101 8.01872 13.6101C6.77492 13.6101 5.58182 13.1159 4.70222 12.2364C3.82272 11.3568 3.32852 10.1639 3.32852 8.92008C3.32852 7.67628 3.82272 6.48307 4.70222 5.60357C4.99162 5.31417 5.31492 5.06647 5.66282 4.86448C6.04462 4.64267 6.17462 4.15267 5.95282 3.77087C5.73102 3.38908 5.24102 3.25907 4.85922 3.48088ZM8.79992 8.20057V1.72188C8.79992 1.28038 8.44142 0.921875 7.99992 0.921875C7.55842 0.921875 7.19992 1.28038 7.19992 1.72188V8.20057C7.19992 8.64217 7.55842 9.00058 7.99992 9.00058C8.44142 9.00058 8.79992 8.64217 8.79992 8.20057Z" fill="black"/>
</svg>
