<svg width="24" height="24" viewBox="0 0 24 24" fill="none" xmlns="http://www.w3.org/2000/svg">
<path fill-rule="evenodd" clip-rule="evenodd" d="M23 9C23 6.24 20.76 4 18 4C14.51 4 9.49 4 6 4C3.24 4 1 6.24 1 9C1 10.88 1 13.12 1 15C1 17.76 3.24 20 6 20C9.49 20 14.51 20 18 20C20.76 20 23 17.76 23 15V9ZM21 9V15C21 16.66 19.66 18 18 18C14.51 18 9.49 18 6 18C4.34 18 3 16.66 3 15V9C3 7.34 4.34 6 6 6C9.49 6 14.51 6 18 6C19.66 6 21 7.34 21 9ZM10.9 13.83C11.54 13.83 12.05 14.35 12.05 14.99C12.05 15.63 11.54 16.16 10.9 16.16C10.26 16.16 9.75 15.63 9.75 14.99C9.75 14.35 10.26 13.83 10.9 13.83ZM6.93 13.76C7.56 13.76 8.08 14.28 8.08 14.93C8.08 15.57 7.56 16.09 6.93 16.09C6.29 16.09 5.77 15.57 5.77 14.93C5.77 14.28 6.29 13.76 6.93 13.76ZM17.04 9.86H16.04L16.17 8.55C16.18 8.46 16.15 8.37 16.09 8.3C16.03 8.24 15.94 8.2 15.85 8.2H15.13C14.97 8.2 14.83 8.32 14.81 8.49L14.68 9.86H13.35C13.19 9.86 13.05 9.98 13.03 10.15C13.02 10.32 12.98 10.73 12.96 10.91C12.95 11 12.98 11.09 13.05 11.16C13.11 11.23 13.19 11.27 13.28 11.27H14.54L14.47 11.93L14.39 12.75H13.07C12.9 12.75 12.76 12.88 12.75 13.04C12.73 13.22 12.69 13.62 12.68 13.81C12.67 13.9 12.7 13.99 12.76 14.06C12.82 14.12 12.91 14.16 13 14.16H14.25L14.12 15.45C14.12 15.54 14.15 15.63 14.21 15.7C14.27 15.76 14.35 15.8 14.44 15.8H15.16C15.33 15.8 15.47 15.68 15.48 15.51L15.61 14.16H16.61L16.48 15.45C16.48 15.54 16.51 15.63 16.57 15.7C16.63 15.76 16.71 15.8 16.81 15.8H17.52C17.69 15.8 17.83 15.68 17.84 15.51L17.98 14.16H19.36C19.53 14.16 19.67 14.04 19.68 13.87C19.7 13.69 19.74 13.29 19.76 13.1C19.76 13.01 19.73 12.92 19.67 12.86C19.61 12.79 19.53 12.75 19.43 12.75H18.12L18.18 12.07L18.26 11.27H19.65C19.82 11.27 19.96 11.14 19.97 10.97C19.99 10.8 20.03 10.39 20.04 10.21C20.05 10.12 20.02 10.03 19.96 9.96C19.9 9.89 19.81 9.86 19.72 9.86H18.4L18.53 8.55C18.54 8.46 18.51 8.37 18.45 8.3C18.39 8.24 18.3 8.2 18.21 8.2H17.49C17.33 8.2 17.19 8.32 17.17 8.49L17.04 9.86ZM6.84 7.65C5.96 7.65 4.97 8.25 4.49 8.7C3.92 9.26 4.6 10.54 5.44 9.98C5.76 9.77 6.17 9.31 6.86 9.31C7.32 9.31 7.62 9.69 7.62 10.07C7.62 10.49 6.64 11.15 6.13 11.66C5.42 12.36 6.41 13.58 7.25 12.79C8.11 11.98 9.22 11.01 9.22 9.92C9.22 8.65 8.23 7.65 6.84 7.65ZM11.99 8.77C11.99 8.18 11.51 7.7 10.92 7.7C10.33 7.7 9.84 8.18 9.84 8.77C9.84 9.69 9.84 11.01 9.84 11.93C9.84 12.52 10.33 13 10.92 13C11.51 13 11.99 12.52 11.99 11.93C11.99 11.01 11.99 9.69 11.99 8.77ZM16.9 11.27H15.9L15.82 12.07L15.75 12.75H16.75L16.83 11.93L16.9 11.27Z" fill="black"/>
</svg>
