<svg width="16" height="16" viewBox="0 0 16 16" fill="none" xmlns="http://www.w3.org/2000/svg">
<path fill-rule="evenodd" clip-rule="evenodd" d="M7.01006 1.88094C6.03606 2.86094 3.65106 5.26094 1.98506 6.93094C0.701064 8.22094 0.703064 10.3009 1.99006 11.5909L4.45306 14.0509C5.74206 15.3409 7.83006 15.3409 9.11906 14.0609L14.1091 9.07094C14.5411 8.64094 14.7841 8.05094 14.7831 7.44094C14.7821 6.39094 14.7791 4.26094 14.7781 3.00094C14.7771 2.01094 13.9711 1.21094 12.9781 1.21094H8.64006C8.02806 1.21094 7.44206 1.45094 7.01006 1.88094ZM8.14406 3.01094C8.27506 2.88094 8.45406 2.81094 8.64006 2.81094H12.9781C13.0881 2.81094 13.1781 2.89094 13.1781 3.01094L13.1831 7.44094C13.1841 7.63094 13.1101 7.81094 12.9781 7.94094L7.98806 12.9209C7.32406 13.5909 6.24806 13.5909 5.58506 12.9209L3.12106 10.4609C2.45806 9.80094 2.45706 8.72094 3.11906 8.06094L8.14406 3.01094ZM10.9801 3.89094C11.5831 3.89094 12.0721 4.38094 12.0721 4.98094C12.0721 5.59094 11.5831 6.08094 10.9801 6.08094C10.3771 6.08094 9.88806 5.59094 9.88806 4.98094C9.88806 4.38094 10.3771 3.89094 10.9801 3.89094Z" fill="black"/>
</svg>
