<svg width="24" height="24" viewBox="0 0 24 24" fill="none" xmlns="http://www.w3.org/2000/svg">
<path d="M12.1309 1.5C17.6892 1.50006 22.1953 6.00611 22.1953 11.5645C22.1953 15.4276 20.0171 18.7798 16.8232 20.4668C18.5792 20.466 20.24 20.2334 21.5225 19.6992C22.0322 19.4871 22.6177 19.7287 22.8301 20.2383C23.0424 20.7481 22.8008 21.3335 22.291 21.5459C20.3321 22.3618 17.8635 22.5597 15.5488 22.4326C13.2208 22.3048 10.9292 21.8419 9.27246 21.2402C9.2213 21.2216 9.17304 21.1985 9.12695 21.1729C5.03581 19.8951 2.06646 16.0765 2.06641 11.5645C2.06641 6.00607 6.57248 1.5 12.1309 1.5ZM7.12793 5.24121C6.05431 6.09181 5.20245 7.20914 4.67285 8.49414C5.50494 11.9814 7.72685 16.6102 12.5225 19.6182C13.481 19.5723 14.3951 19.3588 15.2373 19.0068C9.41093 16.2768 7.03649 11.0326 6.33594 7.51172C8.51073 10.8323 12.7333 14.9025 19.1445 15.542C19.4606 14.9859 19.7121 14.3892 19.8896 13.7607C12.9828 13.3202 8.77137 8.40501 7.12793 5.24121ZM12.1309 3.5C11.9775 3.5 11.8251 3.50522 11.6738 3.51367C12.2743 6.41968 14.5118 11.2137 20.0186 13.2422C20.1331 12.7009 20.1953 12.1399 20.1953 11.5645C20.1953 11.4873 20.1906 11.4106 20.1885 11.334C16.0669 9.60897 14.2083 6.03084 13.5859 3.63281C13.1139 3.54676 12.6278 3.50001 12.1309 3.5Z" fill="black"/>
</svg>
