<svg width="24" height="24" viewBox="0 0 24 24" fill="none" xmlns="http://www.w3.org/2000/svg">
<path d="M11.999 1.62109C17.496 1.62109 21.9434 6.10115 21.9434 11.6152C21.9431 15.4355 19.8076 18.7572 16.668 20.4385C18.4111 20.4429 20.058 20.1962 21.3242 19.623C21.8272 19.3955 22.4197 19.6182 22.6475 20.1211C22.8747 20.624 22.6512 21.2166 22.1484 21.4443C20.2012 22.3257 17.7493 22.5391 15.457 22.4023C13.5318 22.2874 11.6321 21.919 10.1016 21.4238C5.5149 20.5329 2.05601 16.4775 2.05566 11.6152C2.05566 9.43593 2.75215 7.41892 3.93164 5.77539C3.93124 5.76397 3.93103 5.75255 3.93066 5.74121L3.95703 5.74023C5.76386 3.24541 8.69044 1.62134 11.999 1.62109ZM4.46484 9.08398C4.20119 9.87937 4.05566 10.7301 4.05566 11.6152C4.05598 15.146 6.33027 18.1342 9.47852 19.1943C9.641 19.1731 9.81149 19.1925 9.97461 19.2568C10.173 19.3351 10.3847 19.4087 10.6064 19.4824C11.0588 19.563 11.5238 19.6084 11.999 19.6084C12.0008 19.6084 12.0031 19.6074 12.0049 19.6074C7.55144 16.7481 5.36961 12.4654 4.46484 9.08398ZM6.25879 8.04199C7.06331 11.5313 9.46963 16.4395 15.0498 18.9951C16.6452 18.3267 17.9769 17.1503 18.8467 15.665C12.6562 15.1002 8.50414 11.2983 6.25879 8.04199ZM11.248 3.65723C9.64258 3.80902 8.17505 4.44119 6.99023 5.41113C8.65869 8.56875 12.8437 13.3784 19.6631 13.7188C19.6887 13.6241 19.7122 13.5287 19.7344 13.4326C14.1277 11.4516 11.857 6.59747 11.248 3.65723ZM13.3125 3.73145C13.9308 6.12291 15.7927 9.7036 19.9375 11.3721C19.8231 7.51267 16.9943 4.34819 13.3125 3.73145Z" fill="black"/>
</svg>
