<svg width="16" height="16" viewBox="0 0 16 16" fill="none" xmlns="http://www.w3.org/2000/svg">
<path d="M8.01758 0.100586C11.8792 0.10085 15.0097 3.23114 15.0098 7.09277C15.0096 9.6575 13.6271 11.8976 11.5684 13.1143C12.65 13.0853 13.6575 12.9208 14.4482 12.5889C14.8555 12.4181 15.325 12.6095 15.4961 13.0166C15.6669 13.4237 15.4753 13.8922 15.0684 14.0635C13.6837 14.645 11.9466 14.7839 10.3281 14.6943C8.6991 14.6042 7.09386 14.2768 5.92969 13.8506C5.81962 13.8102 5.72408 13.748 5.64551 13.6709C2.95139 12.6995 1.02457 10.1217 1.02441 7.09277C1.02445 3.231 4.15581 0.100621 8.01758 0.100586ZM4.76074 2.79395C3.90308 3.44471 3.24737 4.34657 2.90039 5.38965C3.5177 7.66307 4.97183 10.5137 7.89355 12.4814C7.93464 12.4824 7.97627 12.4854 8.01758 12.4854C8.77834 12.4853 9.50188 12.3263 10.1582 12.042C6.58641 10.352 4.94815 7.25743 4.33301 4.92969C5.89703 7.06935 8.63255 9.44894 12.6152 9.90918C12.8894 9.46259 13.1001 8.97324 13.2354 8.45312C8.69071 8.12184 5.8923 4.91586 4.76074 2.79395ZM8.01758 1.7002C7.88004 1.7002 7.74335 1.70668 7.6084 1.7168C8.0527 3.72314 9.59044 6.91313 13.2686 8.31348C13.3594 7.92108 13.4101 7.51279 13.4102 7.09277C13.4102 6.97208 13.4033 6.85211 13.3955 6.7334C10.8566 5.59414 9.64739 3.39652 9.19336 1.83008C8.81477 1.74582 8.42153 1.70023 8.01758 1.7002Z" fill="black"/>
</svg>
