<svg width="16" height="16" viewBox="0 0 16 16" fill="none" xmlns="http://www.w3.org/2000/svg">
<path d="M8.0083 0.100098C11.9446 0.100098 15.1361 3.29082 15.1362 7.22705C15.1362 9.80087 13.7709 12.0553 11.7261 13.3081C12.8009 13.2771 13.8013 13.1145 14.5884 12.7866C14.9961 12.6168 15.4642 12.8098 15.6343 13.2173C15.8042 13.6251 15.6115 14.0943 15.2036 14.2642C13.8161 14.842 12.0754 14.9792 10.4526 14.8901C8.97077 14.8088 7.50939 14.5313 6.37939 14.1646C3.22845 13.4275 0.881348 10.6026 0.881348 7.22705C0.881436 3.29087 4.07212 0.100186 8.0083 0.100098ZM4.3501 5.11279C4.99041 7.47205 6.6602 10.5713 10.2515 12.2778C11.2791 11.8208 12.1414 11.0611 12.7241 10.1099C8.72509 9.6351 5.95839 7.27187 4.3501 5.11279ZM7.61377 1.71533C6.54465 1.79078 5.55991 2.16947 4.74463 2.76709C5.88244 4.92448 8.73347 8.21359 13.3716 8.56494C13.3774 8.54166 13.3817 8.51803 13.3872 8.49463C9.62335 7.0451 8.05895 3.76464 7.61377 1.71533ZM9.29541 1.85107C9.75498 3.43369 10.9737 5.64878 13.519 6.81494C13.3402 4.38983 11.598 2.40025 9.29541 1.85107ZM2.48096 7.22705C2.48096 9.70084 4.10628 11.7952 6.34717 12.5005C6.42756 12.5037 6.50872 12.5194 6.58838 12.5483C6.65936 12.5741 6.73367 12.5965 6.80908 12.6216C7.14911 12.6968 7.50045 12.741 7.86084 12.7505C4.86715 10.708 3.39398 7.75636 2.78174 5.42725C2.58746 5.99151 2.48098 6.59682 2.48096 7.22705Z" fill="black"/>
</svg>
