<svg width="24" height="24" viewBox="0 0 24 24" fill="none" xmlns="http://www.w3.org/2000/svg">
<path fill-rule="evenodd" clip-rule="evenodd" d="M9.3398 6.00125L9.6198 4.81125C9.7298 4.35125 10.1298 4.03125 10.5998 4.03125C11.4098 4.03125 12.6598 4.04125 13.4698 4.04125C13.9298 4.04125 14.3298 4.35125 14.4398 4.80125L14.7398 6.00125H17.2498C18.6498 6.00125 19.7698 6.97125 20.1698 8.27125C20.2498 8.49125 20.3198 8.74125 20.3998 9.00125H23.0098C23.5498 9.00125 23.9998 9.45125 23.9998 10.0012V11.0012C23.9998 11.5512 23.5498 12.0012 23.0098 12.0012H22.5798L22.8598 12.1912C23.0798 12.2913 23.2798 12.4312 23.4498 12.6112C23.8298 13.0112 24.0298 13.5413 23.9998 14.0913C23.9498 15.0513 23.8998 16.1713 23.8498 17.1112C23.8198 17.7312 23.5098 18.2712 23.0498 18.6112V19.7712C23.0498 20.4513 22.3798 21.0012 21.5498 21.0012H19.5498C18.7198 21.0012 18.0498 20.4513 18.0498 19.7712V19.0112H6.0498V19.7712C6.0498 20.4513 5.3798 21.0012 4.5498 21.0012H2.5498C1.7198 21.0012 1.0498 20.4513 1.0498 19.7712V18.6412C0.559805 18.3012 0.239805 17.7513 0.209805 17.1112C0.159805 16.1713 0.109805 15.0513 0.0598047 14.0913C0.0298047 13.5413 0.229805 13.0112 0.609805 12.6112C0.809805 12.4012 1.0498 12.2413 1.3198 12.1313L1.5198 12.0012H1.0498C0.499805 12.0012 0.0498047 11.5512 0.0498047 11.0012V10.0012C0.0498047 9.45125 0.499805 9.00125 1.0498 9.00125H3.6798C3.7498 8.76125 3.8298 8.53125 3.9098 8.31125C4.3598 7.01125 5.4298 6.00125 6.8498 6.00125H9.3398ZM17.0498 14.0013C17.0498 13.7312 16.9398 13.4812 16.7598 13.2913C16.5698 13.1013 16.3198 13.0013 16.0498 13.0013H8.1098C7.8398 13.0013 7.5898 13.1013 7.3998 13.2913C7.2098 13.4812 7.1098 13.7312 7.1098 14.0013V15.0013C7.1098 15.2613 7.2098 15.5213 7.3998 15.7113C7.5898 15.8913 7.8398 16.0013 8.1098 16.0013H16.0498C16.3198 16.0013 16.5698 15.8913 16.7598 15.7113C16.9398 15.5213 17.0498 15.2613 17.0498 15.0013V14.0013ZM1.5798 15.1313C1.2598 15.0513 1.0498 14.7812 1.0498 14.4613C1.0498 14.2213 1.0498 13.9513 1.0498 13.7013C1.0498 13.5113 1.1198 13.3413 1.2498 13.2013C1.3798 13.0712 1.5598 13.0013 1.7398 13.0013C2.4998 13.0013 3.6498 13.0013 4.0498 13.0013C4.5998 13.0013 5.0498 13.4513 5.0498 14.0013V15.1112C5.0498 15.3212 4.9498 15.5212 4.7798 15.6613C4.6098 15.7913 4.3898 15.8413 4.1798 15.7812C3.3898 15.5913 2.2398 15.3013 1.5798 15.1313ZM22.5198 15.1313C22.8298 15.0513 23.0498 14.7812 23.0498 14.4613C23.0498 14.2213 23.0498 13.9513 23.0498 13.7013C23.0498 13.5113 22.9698 13.3413 22.8398 13.2013C22.7098 13.0712 22.5298 13.0013 22.3498 13.0013C21.5898 13.0013 20.4398 13.0013 20.0498 13.0013C19.4998 13.0013 19.0498 13.4513 19.0498 14.0013V15.1112C19.0498 15.3212 19.1498 15.5212 19.3198 15.6613C19.4798 15.7913 19.7098 15.8413 19.9098 15.7812C20.7098 15.5913 21.8498 15.3013 22.5198 15.1313ZM19.2898 11.0013H4.8098C4.8098 11.0013 5.25981 9.70125 5.52981 9.01125C5.82981 8.22125 6.4998 7.58125 7.4198 7.58125C9.7398 7.58125 14.3798 7.59125 16.6898 7.59125C17.5898 7.59125 18.2998 8.19125 18.5798 8.99125C18.8398 9.73125 19.2898 11.0013 19.2898 11.0013Z" fill="black"/>
</svg>
