<svg width="24" height="24" viewBox="0 0 24 24" fill="none" xmlns="http://www.w3.org/2000/svg">
<path fill-rule="evenodd" clip-rule="evenodd" d="M13.3992 21.0744C14.9802 21.0744 16.3362 20.6034 17.2982 19.7074C18.2632 18.8094 18.8382 17.4824 18.8382 15.7574C18.8382 13.5204 17.7052 12.3484 16.6842 11.7564C17.5592 11.1834 18.5982 9.92739 18.5982 8.09339C18.5982 6.50939 18.0862 5.21339 17.1452 4.31039C16.2082 3.41139 14.8412 2.90039 13.1122 2.90039H7.08017C6.54317 2.90039 5.88017 2.91639 5.36917 3.44939C4.86217 3.97839 4.84717 4.66639 4.84717 5.22239V18.7524C4.84717 19.3094 4.86217 19.9964 5.36917 20.5264C5.88017 21.0594 6.54317 21.0744 7.08017 21.0744H13.3992ZM8.59617 17.5794V13.6104H13.0652C13.7512 13.6104 14.2612 13.8254 14.5962 14.1834C14.9302 14.5414 15.0892 15.0374 15.0892 15.5824C15.0892 16.1284 14.9302 16.6304 14.5952 16.9944C14.2602 17.3584 13.7512 17.5794 13.0652 17.5794H8.59617ZM12.8492 6.39639C13.4942 6.39639 13.9992 6.57739 14.3402 6.90539C14.6772 7.22839 14.8502 7.69139 14.8502 8.24339C14.8502 8.79439 14.6772 9.25739 14.3402 9.58139C13.9992 9.90839 13.4942 10.0904 12.8492 10.0904H8.59617V6.39639H12.8492Z" fill="black"/>
</svg>
