<svg width="24" height="24" viewBox="0 0 24 24" fill="none" xmlns="http://www.w3.org/2000/svg">
<path d="M15.8472 10.8007H8.24717V4.12773C8.24717 3.46573 7.70917 2.92773 7.04717 2.92773C6.38517 2.92773 5.84717 3.46573 5.84717 4.12773V19.8737C5.84717 20.5357 6.38517 21.0737 7.04717 21.0737C7.70917 21.0737 8.24717 20.5357 8.24717 19.8737V13.2007H15.8472V19.8737C15.8472 20.5357 16.3852 21.0737 17.0472 21.0737C17.7092 21.0737 18.2472 20.5357 18.2472 19.8737V4.12773C18.2472 3.46573 17.7092 2.92773 17.0472 2.92773C16.3852 2.92773 15.8472 3.46573 15.8472 4.12773V10.8007Z" fill="black"/>
</svg>
