<svg width="16" height="16" viewBox="0 0 16 16" fill="none" xmlns="http://www.w3.org/2000/svg">
<path d="M7.01042 3.89961V11.9846H6.61212C6.06022 11.9846 5.61212 12.4327 5.61212 12.9846C5.61212 13.5365 6.06022 13.9846 6.61212 13.9846H9.40322C9.95512 13.9846 10.4032 13.5365 10.4032 12.9846C10.4032 12.4327 9.95512 11.9846 9.40322 11.9846H9.01042V3.89961H11.4026L11.3976 4.49731C11.3934 4.99401 11.7933 5.40071 12.29 5.40481C12.7867 5.40901 13.1934 5.00911 13.1975 4.51241L13.2101 3.00711C13.2121 2.76711 13.1182 2.53631 12.9492 2.36591C12.7802 2.19541 12.5502 2.09961 12.3102 2.09961H3.70322C3.20622 2.09961 2.80322 2.50251 2.80322 2.99961V4.50491C2.80322 5.00161 3.20652 5.40491 3.70322 5.40491C4.20002 5.40491 4.60322 5.00161 4.60322 4.50491V3.89961H7.01042Z" fill="black"/>
</svg>
