<svg width="24" height="24" viewBox="0 0 24 24" fill="none" xmlns="http://www.w3.org/2000/svg">
<path d="M10.947 5V17.9H10.148C9.541 17.9 9.048 18.393 9.048 19C9.048 19.607 9.541 20.1 10.148 20.1H13.87C14.477 20.1 14.97 19.607 14.97 19C14.97 18.393 14.477 17.9 13.87 17.9H13.147V5H16.738L16.73 5.999C16.725 6.551 17.17 7.002 17.722 7.007C18.273 7.012 18.725 6.567 18.73 6.015L18.747 4.008C18.749 3.742 18.645 3.485 18.457 3.296C18.269 3.107 18.013 3 17.747 3H6.271C5.719 3 5.271 3.448 5.271 4V6.007C5.271 6.559 5.719 7.007 6.271 7.007C6.823 7.007 7.271 6.559 7.271 6.007V5H10.947Z" fill="black"/>
</svg>
