<svg width="24" height="24" viewBox="0 0 24 24" fill="none" xmlns="http://www.w3.org/2000/svg">
<path d="M11.6021 5.02148L8.10813 18.9955H6.78613C6.23413 18.9955 5.78613 19.4435 5.78613 19.9955C5.78613 20.5475 6.23413 20.9955 6.78613 20.9955H11.8161C12.3681 20.9955 12.8161 20.5475 12.8161 19.9955C12.8161 19.4435 12.3681 18.9955 11.8161 18.9955H10.5821L14.0751 5.02148H15.5631C16.1151 5.02148 16.5631 4.57348 16.5631 4.02148C16.5631 3.46948 16.1151 3.02148 15.5631 3.02148H10.5541C10.0021 3.02148 9.55413 3.46948 9.55413 4.02148C9.55413 4.57348 10.0021 5.02148 10.5541 5.02148H11.6021Z" fill="black"/>
</svg>
