<svg width="24" height="24" viewBox="0 0 24 24" fill="none" xmlns="http://www.w3.org/2000/svg">
<path fill-rule="evenodd" clip-rule="evenodd" d="M2.04688 16C2.04688 17.591 2.67897 19.117 3.80428 20.243C4.92898 21.368 6.45598 22 8.04698 22H16.047C17.638 22 19.164 21.368 20.29 20.243C21.415 19.117 22.047 17.591 22.047 16V8C22.047 6.409 21.415 4.883 20.29 3.757C19.164 2.632 17.638 2 16.047 2C13.552 2 10.542 2 8.04698 2C6.45598 2 4.92898 2.632 3.80428 3.757C2.67897 4.883 2.04688 6.409 2.04688 8V16ZM4.04697 16V8C4.04697 6.939 4.46797 5.922 5.21797 5.172C5.96897 4.421 6.98598 4 8.04698 4H16.047C17.108 4 18.125 4.421 18.875 5.172C19.625 5.922 20.047 6.939 20.047 8V16C20.047 17.061 19.625 18.078 18.875 18.828C18.125 19.579 17.108 20 16.047 20H8.04698C6.98598 20 5.96897 19.579 5.21797 18.828C4.46797 18.078 4.04697 17.061 4.04697 16ZM9.77997 15H14.424L15.309 17.016C15.531 17.521 16.122 17.751 16.627 17.529C17.132 17.307 17.362 16.717 17.14 16.211L13.017 6.826C12.858 6.463 12.499 6.229 12.102 6.229C11.705 6.229 11.346 6.463 11.186 6.826L7.06297 16.211C6.84097 16.717 7.07098 17.307 7.57698 17.529C8.08198 17.751 8.67198 17.521 8.89398 17.016L9.77997 15ZM10.659 13H13.545L12.102 9.715L10.659 13Z" fill="black"/>
</svg>
