<svg width="16" height="16" viewBox="0 0 16 16" fill="none" xmlns="http://www.w3.org/2000/svg">
<path fill-rule="evenodd" clip-rule="evenodd" d="M9.35502 14.8574C10.5546 14.8574 11.583 14.4985 12.3133 13.8185C13.0459 13.1364 13.4836 12.1292 13.4836 10.8193C13.4836 9.16685 12.6701 8.27805 11.9119 7.81565C12.5634 7.36035 13.3042 6.42215 13.3042 5.07145C13.3042 3.86805 12.9136 2.88385 12.1989 2.19825C11.4879 1.51635 10.4513 1.12695 9.13973 1.12695H4.61542C4.20103 1.12695 3.69033 1.14215 3.29603 1.55365C2.90552 1.96125 2.89062 2.48985 2.89062 2.91835V13.066C2.89062 13.4944 2.90552 14.0231 3.29603 14.4306C3.69033 14.8421 4.20103 14.8574 4.61542 14.8574H9.35502ZM5.80212 12.1358V9.25935H9.10392C9.60222 9.25935 9.97263 9.41335 10.2158 9.67335C10.4585 9.93285 10.5722 10.2928 10.5722 10.6882C10.5722 11.0845 10.458 11.4493 10.2147 11.7135C9.97172 11.9774 9.60172 12.1358 9.10392 12.1358H5.80212ZM8.94242 3.84855C9.41062 3.84855 9.77802 3.97825 10.026 4.21635C10.2694 4.45015 10.3928 4.78535 10.3928 5.18375C10.3928 5.58215 10.2694 5.91745 10.026 6.15115C9.77802 6.38925 9.41062 6.51895 8.94242 6.51895H5.80212V3.84845L8.94242 3.84855Z" fill="black"/>
</svg>
