<svg width="16" height="16" viewBox="0 0 16 16" fill="none" xmlns="http://www.w3.org/2000/svg">
<path d="M2.8418 3.79297V12.209H2.7168C2.1648 12.209 1.7168 12.657 1.7168 13.209C1.7168 13.761 2.1648 14.209 2.7168 14.209H5.2808C5.8328 14.209 6.2808 13.761 6.2808 13.209C6.2808 12.657 5.8328 12.209 5.2808 12.209H5.2418V9.21997H10.7938V12.209H10.7458C10.1938 12.209 9.7458 12.657 9.7458 13.209C9.7458 13.761 10.1938 14.209 10.7458 14.209H13.3098C13.8618 14.209 14.3098 13.761 14.3098 13.209C14.3098 12.657 13.8618 12.209 13.3098 12.209H13.1938V3.79297H13.3098C13.8618 3.79297 14.3098 3.34497 14.3098 2.79297C14.3098 2.24097 13.8618 1.79297 13.3098 1.79297H10.7458C10.1938 1.79297 9.7458 2.24097 9.7458 2.79297C9.7458 3.34497 10.1938 3.79297 10.7458 3.79297H10.7938V6.81997H5.2418V3.79297H5.2808C5.8328 3.79297 6.2808 3.34497 6.2808 2.79297C6.2808 2.24097 5.8328 1.79297 5.2808 1.79297H2.7168C2.1648 1.79297 1.7168 2.24097 1.7168 2.79297C1.7168 3.34497 2.1648 3.79297 2.8418 3.79297Z" fill="black"/>
</svg>
