<svg width="12" height="12" viewBox="0 0 12 12" fill="none" xmlns="http://www.w3.org/2000/svg">
<path d="M1.75781 1.99961C1.75781 1.50261 2.16071 1.09961 2.65781 1.09961H9.35211C9.59211 1.09961 9.82211 1.19561 9.99111 1.36561C10.1601 1.53661 10.254 1.76761 10.252 2.00761L10.2422 3.17761C10.2381 3.67461 9.83141 4.07461 9.33471 4.07061C8.83801 4.06661 8.43811 3.65961 8.44231 3.16261L8.44451 2.89961H6.99981V8.99961H7.09041C7.64231 8.99961 8.09041 9.44761 8.09041 9.99961C8.09041 10.5516 7.64231 10.9996 7.09041 10.9996H4.91951C4.36761 10.9996 3.91951 10.5516 3.91951 9.99961C3.91951 9.44761 4.36761 8.99961 4.91951 8.99961H4.99981V2.89961H3.55781V3.17061C3.55781 3.66661 3.15451 4.07061 2.65781 4.07061C2.16111 4.07061 1.75781 3.66661 1.75781 3.17061V1.99961Z" fill="black"/>
</svg>
