<svg width="24" height="24" viewBox="0 0 24 24" fill="none" xmlns="http://www.w3.org/2000/svg">
<path d="M5.1248 5V19H4.4248C3.8728 19 3.4248 19.448 3.4248 20C3.4248 20.552 3.8728 21 4.4248 21H8.2708C8.8228 21 9.2708 20.552 9.2708 20C9.2708 19.448 8.8228 19 8.2708 19H7.5248V13.2H16.6638V19H15.9408C15.3888 19 14.9408 19.448 14.9408 20C14.9408 20.552 15.3888 21 15.9408 21H19.7868C20.3388 21 20.7868 20.552 20.7868 20C20.7868 19.448 20.3388 19 19.7868 19H19.0638V5H19.7868C20.3388 5 20.7868 4.552 20.7868 4C20.7868 3.448 20.3388 3 19.7868 3H15.9408C15.3888 3 14.9408 3.448 14.9408 4C14.9408 4.552 15.3888 5 15.9408 5H16.6638V10.8H7.5248V5H8.2708C8.8228 5 9.2708 4.552 9.2708 4C9.2708 3.448 8.8228 3 8.2708 3H4.4248C3.8728 3 3.4248 3.448 3.4248 4C3.4248 4.552 3.8728 5 4.4248 5H5.1248Z" fill="black"/>
</svg>
