<svg width="16" height="16" viewBox="0 0 16 16" fill="none" xmlns="http://www.w3.org/2000/svg">
<path fill-rule="evenodd" clip-rule="evenodd" d="M3.89043 14.949H12.1724C12.6967 14.949 13.1224 14.5233 13.1224 13.999C13.1224 13.4747 12.6967 13.049 12.1724 13.049H3.89043C3.36613 13.049 2.94043 13.4747 2.94043 13.999C2.94043 14.5233 3.36613 14.949 3.89043 14.949ZM3.49933 2.08672V7.47332C3.49933 8.67532 3.97683 9.82802 4.82673 10.6779C5.67663 11.5279 6.82933 12.0053 8.03133 12.0053C9.23323 12.0053 10.3862 11.5279 11.2361 10.6779C12.086 9.82802 12.5635 8.67532 12.5635 7.47332C12.5635 4.97492 12.5635 2.08672 12.5635 2.08672C12.5635 1.56232 12.1378 1.13672 11.6135 1.13672C11.0891 1.13672 10.6635 1.56232 10.6635 2.08672C10.6635 2.08672 10.6635 4.97492 10.6635 7.47332C10.6635 8.17142 10.3862 8.84082 9.89263 9.33442C9.39903 9.82802 8.72953 10.1053 8.03153 10.1053C7.33343 10.1053 6.66383 9.82802 6.17023 9.33442C5.67663 8.84082 5.39933 8.17142 5.39933 7.47332C5.39933 4.97492 5.39933 2.08672 5.39933 2.08672C5.39933 1.56232 4.97363 1.13672 4.44933 1.13672C3.92503 1.13672 3.49933 1.56232 3.49933 2.08672Z" fill="black"/>
</svg>
