<svg width="24" height="24" viewBox="0 0 24 24" fill="none" xmlns="http://www.w3.org/2000/svg">
<path fill-rule="evenodd" clip-rule="evenodd" d="M7.66161 16.1107H16.3381L17.8785 19.6813C18.1198 20.2413 18.7714 20.5007 19.3314 20.2584C19.8925 20.0171 20.1509 19.3655 19.9096 18.8045C19.9096 18.8045 15.1184 7.6977 13.5247 4.00248C13.2622 3.39416 12.663 3 12.0003 3C11.3377 3 10.7384 3.39416 10.476 4.00248C8.88228 7.6977 4.09057 18.8045 4.09057 18.8045C3.84885 19.3655 4.10767 20.0171 4.66823 20.2584C5.2283 20.5007 5.87986 20.2413 6.12219 19.6813L7.66161 16.1107ZM8.61583 13.8986H15.3838L12.0003 6.05369L8.61583 13.8986Z" fill="black"/>
</svg>
