<svg width="24" height="24" viewBox="0 0 24 24" fill="none" xmlns="http://www.w3.org/2000/svg">
<path d="M5.09903 6.40858C5.09203 5.99858 5.05203 5.80958 4.91703 5.57058C4.75403 5.28258 4.42903 5.07158 4.02903 5.07158C3.62903 5.07158 3.30403 5.28258 3.14103 5.57058C2.99103 5.83658 2.95703 6.04258 2.95703 6.55858V17.5276C2.95703 18.0446 2.99103 18.2496 3.14103 18.5156C3.30403 18.8036 3.62903 19.0146 4.02903 19.0146C4.42903 19.0146 4.75403 18.8036 4.91703 18.5156C5.06703 18.2496 5.10003 18.0446 5.10003 17.5276V10.4876C5.10003 9.36658 5.39203 8.51258 5.91303 7.94058C6.42903 7.37558 7.16803 7.09058 8.05603 7.09058C8.94203 7.09058 9.66503 7.36758 10.165 7.92858C10.672 8.49858 10.948 9.35258 10.948 10.4876V17.5276C10.948 18.0446 10.981 18.2496 11.131 18.5156C11.295 18.8036 11.619 19.0146 12.019 19.0146C12.42 19.0146 12.744 18.8036 12.907 18.5156C13.058 18.2496 13.091 18.0446 13.091 17.5276V10.2696C13.091 9.25758 13.391 8.45958 13.914 7.91658C14.433 7.37658 15.169 7.09058 16.034 7.09058C16.92 7.09058 17.647 7.36758 18.15 7.92958C18.66 8.49858 18.938 9.35358 18.938 10.4876V17.5276C18.938 18.0446 18.972 18.2496 19.122 18.5156C19.285 18.8036 19.61 19.0146 20.01 19.0146C20.41 19.0146 20.735 18.8036 20.898 18.5156C21.048 18.2496 21.081 18.0446 21.081 17.5276V10.1606C21.081 8.56158 20.598 7.27258 19.676 6.31858C18.893 5.50058 17.746 5.01758 16.362 5.01758C14.649 5.01758 13.268 5.73358 12.286 7.11658C11.485 5.73458 10.15 5.01758 8.46003 5.01758C7.15903 5.01758 5.98703 5.48158 5.09903 6.40858Z" fill="black"/>
</svg>
