<svg width="24" height="24" viewBox="0 0 24 24" fill="none" xmlns="http://www.w3.org/2000/svg">
<path fill-rule="evenodd" clip-rule="evenodd" d="M17.8012 14.9992H15.4932C15.6942 15.3632 15.7912 15.7762 15.7912 16.2462C15.7912 17.9722 14.1942 19.2232 12.0022 19.2232C9.98617 19.2232 8.46517 18.2752 7.97817 16.7792C7.87017 16.3862 7.51217 16.1132 7.10417 16.1132C7.02517 16.0762 6.94417 16.0762 6.86217 16.0762C6.57517 16.0762 6.30317 16.2072 6.12417 16.4322C5.94417 16.6572 5.87817 16.9512 5.94217 17.2322C6.62317 19.6632 8.81617 21.1912 11.8112 21.1912C15.5432 21.1912 17.8822 19.1872 17.8822 15.9792C17.8822 15.6312 17.8562 15.3052 17.8012 14.9992ZM7.41717 11.0562H3.81717C3.58817 11.0562 3.36717 11.1472 3.20517 11.3102C3.04217 11.4722 2.95117 11.6932 2.95117 11.9222C2.95117 11.9672 2.95117 12.0122 2.95117 12.0572C2.95117 12.2872 3.04217 12.5072 3.20517 12.6702C3.36717 12.8332 3.58817 12.9242 3.81717 12.9242C6.88517 12.9242 17.2092 12.9242 20.2762 12.9242C20.5062 12.9242 20.7272 12.8332 20.8892 12.6702C21.0522 12.5072 21.1432 12.2872 21.1432 12.0572C21.1432 12.0122 21.1432 11.9672 21.1432 11.9222C21.1432 11.6932 21.0522 11.4722 20.8892 11.3102C20.7272 11.1472 20.5062 11.0562 20.2762 11.0562H12.8122L11.4622 10.6692C9.25917 10.0502 8.36017 9.26017 8.36017 7.93617C8.36017 6.22217 9.82117 5.04417 11.9232 5.04417C13.7572 5.04417 15.0572 5.91217 15.4872 7.37217C15.5932 7.76917 15.9532 8.04517 16.3642 8.04517C16.4432 8.08117 16.5252 8.08117 16.6072 8.08117C16.8912 8.08217 17.1592 7.95417 17.3392 7.73417C17.5182 7.51517 17.5892 7.22617 17.5322 6.94817C16.9172 4.62717 14.7872 3.07617 11.9912 3.07617C8.61817 3.07617 6.25717 5.11717 6.25717 8.03317C6.25717 9.29017 6.62717 10.2802 7.41717 11.0562Z" fill="black"/>
</svg>
