<svg width="16" height="16" viewBox="0 0 16 16" fill="none" xmlns="http://www.w3.org/2000/svg">
<path d="M2.56407 3.07565C2.54807 2.86385 2.50607 2.73625 2.41707 2.58365C2.27607 2.34285 1.99607 2.16435 1.64907 2.16435C1.30307 2.16435 1.02307 2.34285 0.882074 2.58365C0.757074 2.79725 0.726074 2.96185 0.726074 3.37725V11.6873C0.726074 12.1027 0.757074 12.2673 0.882074 12.4809C1.02307 12.7217 1.30307 12.9002 1.64907 12.9002C1.99607 12.9002 2.27607 12.7217 2.41707 12.4809C2.54207 12.2673 2.57307 12.1027 2.57307 11.6873V6.35405C2.57307 5.53195 2.79107 4.90435 3.18807 4.48495C3.57807 4.07165 4.13907 3.86665 4.81207 3.86665C5.48307 3.86665 6.03107 4.06555 6.41007 4.47545C6.79507 4.89295 7.00107 5.52135 7.00107 6.35395V11.6873C7.00107 12.1027 7.03207 12.2673 7.15707 12.4809C7.29807 12.7217 7.57807 12.9002 7.92507 12.9002C8.27107 12.9002 8.55107 12.7217 8.69207 12.4809C8.81707 12.2673 8.84807 12.1027 8.84807 11.6873V6.18865C8.84807 5.44925 9.07307 4.86515 9.46907 4.46805C9.86307 4.07305 10.4221 3.86665 11.0771 3.86665C11.7481 3.86665 12.2991 4.06575 12.6801 4.47595C13.0681 4.89335 13.2761 5.52155 13.2761 6.35405V11.6873C13.2761 12.1027 13.3071 12.2673 13.4321 12.4809C13.5741 12.7217 13.8531 12.9002 14.2001 12.9002C14.5461 12.9002 14.8261 12.7217 14.9671 12.4809C15.0921 12.2673 15.1231 12.1027 15.1231 11.6873V6.10595C15.1231 4.86835 14.7341 3.87125 13.9951 3.13295C13.3661 2.49925 12.4461 2.12305 11.3351 2.12305C10.0031 2.12305 8.92207 2.64465 8.14007 3.65275C7.49007 2.64665 6.44407 2.12305 5.12907 2.12305C4.14807 2.12305 3.25907 2.44145 2.56407 3.07565Z" fill="black"/>
</svg>
