<svg width="24" height="24" viewBox="0 0 24 24" fill="none" xmlns="http://www.w3.org/2000/svg">
<path fill-rule="evenodd" clip-rule="evenodd" d="M5.83496 21.9996H18.258C18.81 21.9996 19.258 21.5516 19.258 20.9996C19.258 20.4476 18.81 19.9996 18.258 19.9996H5.83496C5.28296 19.9996 4.83496 20.4476 4.83496 20.9996C4.83496 21.5516 5.28296 21.9996 5.83496 21.9996ZM5.89696 3.99961V11.9996C5.89696 15.3966 8.64996 18.1496 12.047 18.1496C15.443 18.1496 18.197 15.3966 18.197 11.9996C18.197 8.33561 18.197 3.99961 18.197 3.99961C18.197 3.36461 17.682 2.84961 17.047 2.84961C16.412 2.84961 15.897 3.36461 15.897 3.99961V11.9996C15.897 14.1256 14.173 15.8496 12.047 15.8496C9.92096 15.8496 8.19696 14.1256 8.19696 11.9996V3.99961C8.19696 3.36461 7.68196 2.84961 7.04696 2.84961C6.41196 2.84961 5.89696 3.36461 5.89696 3.99961Z" fill="black"/>
</svg>
