<svg width="16" height="16" viewBox="0 0 16 16" fill="none" xmlns="http://www.w3.org/2000/svg">
<path d="M7.63391 3.10898L5.18571 12.902H3.98271C3.45841 12.902 3.03271 13.3277 3.03271 13.852C3.03271 14.3764 3.45841 14.802 3.98271 14.802H8.15931C8.68361 14.802 9.10931 14.3764 9.10931 13.852C9.10931 13.3277 8.68361 12.902 8.15931 12.902H7.14411L9.59241 3.10898H10.9021C11.4265 3.10898 11.8521 2.68328 11.8521 2.15898C11.8521 1.63458 11.4265 1.20898 10.9021 1.20898H6.74121C6.21681 1.20898 5.79121 1.63458 5.79121 2.15898C5.79121 2.68328 6.21681 3.10898 6.74121 3.10898H7.63391Z" fill="black"/>
</svg>
