<svg width="16" height="16" viewBox="0 0 16 16" fill="none" xmlns="http://www.w3.org/2000/svg">
<path d="M10.182 7.00252H5.80595V2.72852C5.80595 2.17652 5.35795 1.72852 4.80595 1.72852C4.25395 1.72852 3.80615 2.17652 3.80615 2.72852V13.2705C3.80615 13.8225 4.25395 14.2705 4.80595 14.2705C5.35795 14.2705 5.80595 13.8225 5.80595 13.2705V9.00252H10.182V13.2705C10.182 13.8225 10.63 14.2705 11.182 14.2705C11.733 14.2705 12.182 13.8225 12.182 13.2705V2.72852C12.182 2.17652 11.733 1.72852 11.182 1.72852C10.63 1.72852 10.182 2.17652 10.182 2.72852V7.00252Z" fill="black"/>
</svg>
