<svg width="24" height="24" viewBox="0 0 24 24" fill="none" xmlns="http://www.w3.org/2000/svg">
<path d="M13.5451 12.9995H10.6591L12.1021 9.71452L13.5451 12.9995Z" fill="black"/>
<path fill-rule="evenodd" clip-rule="evenodd" d="M3.80387 20.243C2.67887 19.117 2.04688 17.591 2.04688 16V8C2.04688 6.409 2.67887 4.883 3.80387 3.757C4.92887 2.632 6.45587 2 8.04688 2H16.0469C17.6379 2 19.1639 2.632 20.2899 3.757C21.4149 4.883 22.0469 6.409 22.0469 8V16C22.0469 17.591 21.4149 19.117 20.2899 20.243C19.1639 21.368 17.6379 22 16.0469 22H8.04688C6.45587 22 4.92887 21.368 3.80387 20.243ZM14.4241 14.9995L15.3091 17.0155C15.5311 17.5205 16.1221 17.7505 16.6271 17.5285C17.1321 17.3065 17.3621 16.7165 17.1401 16.2105L13.0171 6.82552C12.8581 6.46252 12.4991 6.22852 12.1021 6.22852C11.7051 6.22852 11.3461 6.46252 11.1861 6.82552L7.06311 16.2105C6.84111 16.7165 7.07111 17.3065 7.57711 17.5285C8.08211 17.7505 8.67211 17.5205 8.89411 17.0155L9.78011 14.9995H14.4241Z" fill="black"/>
</svg>
