<svg width="24" height="24" viewBox="0 0 24 24" fill="none" xmlns="http://www.w3.org/2000/svg">
<path fill-rule="evenodd" clip-rule="evenodd" d="M13.9171 2.01239C12.937 2.35729 12.1597 3.09039 11.7471 4.01239H6.97949C5.91859 4.01239 4.90119 4.43379 4.15109 5.18389C3.40089 5.93409 2.97949 6.95149 2.97949 8.01239V16.0124C2.97949 17.0732 3.40089 18.0907 4.15109 18.8408C4.90119 19.5909 5.91859 20.0124 6.97949 20.0124H14.9795C16.0403 20.0124 17.0578 19.5909 17.8079 18.8408C18.5581 18.0907 18.9795 17.0732 18.9795 16.0124V12.5498C19.7364 12.451 20.4293 12.1246 20.9795 11.6347V16.0124C20.9795 17.6037 20.3473 19.1298 19.2221 20.255C18.0969 21.3802 16.5708 22.0124 14.9795 22.0124H6.97949C5.38819 22.0124 3.86209 21.3802 2.73679 20.255C1.61159 19.1298 0.979492 17.6037 0.979492 16.0124V8.01239C0.979492 6.42109 1.61159 4.89499 2.73679 3.76969C3.86209 2.64449 5.38819 2.01239 6.97949 2.01239H13.9171ZM12.5578 8.22249C12.0424 7.72239 11.675 7.07809 11.5136 6.36329C11.3695 6.28459 11.2054 6.24099 11.0343 6.24099C10.6376 6.24099 10.2784 6.47549 10.1188 6.83879L5.99589 16.2236C5.77389 16.7289 6.00389 17.3194 6.50919 17.5414C7.01449 17.7633 7.60499 17.5333 7.82699 17.028L8.71249 15.0124H13.3562L14.2417 17.028C14.4636 17.5333 15.0541 17.7633 15.5594 17.5414C16.0647 17.3194 16.2947 16.7289 16.0728 16.2236L12.5578 8.22249ZM9.59109 13.0124H12.4775L11.0343 9.72719L9.59109 13.0124ZM16.8961 1.89019L16.6721 2.87429C16.576 3.29619 16.2447 3.62449 15.822 3.71679L14.8111 3.93739C14.0629 4.10069 13.5276 4.76029 13.5218 5.52609C13.5161 6.29179 14.0414 6.95949 14.787 7.13399L15.8311 7.37829C16.2445 7.47499 16.5672 7.79809 16.6636 8.21169L16.8971 9.21449C17.0711 9.96159 17.7401 10.488 18.5071 10.4814C19.2742 10.4748 19.934 9.93699 20.0951 9.18699L20.3077 8.19739C20.3994 7.77109 20.7308 7.43729 21.1563 7.34259L22.1649 7.11809C22.9153 6.95109 23.4488 6.28479 23.4476 5.51599C23.4464 4.74719 22.9109 4.08259 22.1599 3.91799L21.1437 3.69509C20.715 3.60109 20.3813 3.26449 20.2908 2.83509L20.0974 1.91629C19.9388 1.16289 19.2771 0.62159 18.5073 0.61529C17.7374 0.60899 17.067 1.13949 16.8961 1.89019ZM18.4877 3.00779L18.5294 3.20589C18.7657 4.32819 19.6379 5.20769 20.7581 5.45329L21.061 5.51969L20.7652 5.58559C19.6532 5.83309 18.7872 6.70549 18.5479 7.81929L18.4867 8.10419L18.4166 7.80339C18.165 6.72269 17.3217 5.87849 16.2412 5.62559L15.892 5.54389L16.2058 5.47539C17.3104 5.23429 18.1762 4.37639 18.4272 3.27389L18.4877 3.00779Z" fill="black"/>
</svg>
