<svg width="16" height="16" viewBox="0 0 16 16" fill="none" xmlns="http://www.w3.org/2000/svg">
<path fill-rule="evenodd" clip-rule="evenodd" d="M4.88116 11.182L4.88016 11.1754C4.91316 11.1147 4.99416 10.9469 4.86016 10.9469H4.29916C3.99696 10.9465 3.71166 11.0875 3.52836 11.3281C3.34496 11.5687 3.28466 11.8811 3.36516 12.1727C3.36586 12.1751 3.36666 12.1775 3.36746 12.1799C3.97176 13.9433 5.62816 15.0521 7.86716 15.0521C9.30816 15.0521 10.4792 14.6611 11.2912 13.9643C12.1092 13.2617 12.5672 12.2478 12.5672 10.9986C12.5672 10.7292 12.5472 10.4763 12.5052 10.2385C12.4952 10.1787 12.4432 10.135 12.3822 10.135H10.6422C10.5982 10.135 10.5572 10.1584 10.5342 10.1965C10.5122 10.2346 10.5112 10.2818 10.5332 10.3205C10.6742 10.5772 10.7412 10.8685 10.7412 11.2001C10.7412 12.4376 9.58316 13.3186 8.01116 13.3186C6.33916 13.3186 5.13016 12.4273 4.99216 11.0593L4.88116 11.182ZM11.2342 5.13734C11.2432 5.14554 11.2512 5.15114 11.2592 5.15564C11.2802 5.16704 11.2992 5.17134 11.3202 5.17134C11.6192 5.17154 11.9022 5.03344 12.0862 4.79714C12.2702 4.56074 12.3352 4.25264 12.2612 3.96234C12.2602 3.95944 12.2592 3.95654 12.2582 3.95364C11.6972 2.26984 10.0912 1.14844 8.00216 1.14844C5.38216 1.14844 3.55626 2.74414 3.55626 5.00974C3.55626 5.88264 3.78596 6.59014 4.26816 7.16284L1.89196 7.16304C1.43466 7.16304 1.06396 7.53384 1.06396 7.99104V7.99304C1.06396 8.45034 1.43466 8.82104 1.89196 8.82104H14.2452C14.4522 8.82104 14.6502 8.73884 14.7972 8.59244C14.9432 8.44604 15.0252 8.24754 15.0252 8.04054C15.0252 8.00824 15.0252 7.97584 15.0252 7.94354C15.0252 7.73654 14.9432 7.53804 14.7972 7.39164C14.6502 7.24534 14.4522 7.16304 14.2452 7.16304H8.63916L7.63816 6.87654C6.05616 6.43164 5.39116 5.88724 5.39116 4.93644C5.39116 3.71084 6.44816 2.88194 7.95116 2.88194C9.26116 2.88194 10.1972 3.49074 10.5122 4.52824C10.6052 4.86304 10.8942 5.10274 11.2342 5.13734Z" fill="black"/>
</svg>
