<svg width="12" height="12" viewBox="0 0 12 12" fill="none" xmlns="http://www.w3.org/2000/svg">
<path d="M10.3428 8.00879C10.5878 8.00879 10.8253 8.08463 11.0264 8.21973C11.0933 8.26476 11.1561 8.31632 11.2139 8.37402C11.3606 8.5247 11.4617 8.70577 11.5166 8.89844C11.5385 8.97518 11.5532 9.05364 11.5605 9.13281C11.5679 9.21236 11.5679 9.29252 11.5605 9.37207C11.5532 9.45157 11.5386 9.53036 11.5166 9.60742C11.4616 9.79995 11.3605 9.98126 11.2139 10.1318L10.2383 11.123L10.1475 11.207C9.92985 11.3878 9.65624 11.4896 9.37012 11.4941H9.34375C9.17848 11.4933 9.01727 11.4599 8.86816 11.3975C8.83026 11.3816 8.79302 11.3643 8.75684 11.3447C8.6488 11.2863 8.54863 11.2121 8.46094 11.123L7.48535 10.1328C7.45593 10.1026 7.42907 10.0706 7.40332 10.0381C7.32584 9.94038 7.26489 9.83344 7.2207 9.7207C7.14154 9.51885 7.11709 9.29987 7.14453 9.08691C7.17323 8.86453 7.25861 8.64925 7.40332 8.46777C7.42901 8.43555 7.45601 8.40396 7.48535 8.37402C7.60623 8.25133 7.75012 8.15775 7.90625 8.0957C8.048 8.03946 8.20014 8.00894 8.35645 8.00879C8.68774 8.00885 9.00379 8.14276 9.23633 8.37891L9.34961 8.49414V8.49316L9.35059 8.49414L9.46289 8.37988L9.46387 8.37891C9.69645 8.14268 10.0117 8.00897 10.3428 8.00879ZM8.39355 1.39844C9.95127 1.39848 11.2147 2.66102 11.2148 4.21875V6.81836C11.2148 6.8338 11.2128 6.84904 11.2119 6.86426C11.0157 6.79177 10.809 6.74337 10.5967 6.72168L10.3428 6.70898C10.0931 6.70907 9.8485 6.74695 9.61523 6.81738V4.50684L7.28418 6.7373L7.2832 6.73828C6.48885 7.495 5.24235 7.49206 4.44727 6.75195L4.44336 6.74902L2.12109 4.55859V7.75586C2.12144 8.70878 2.89465 9.48145 3.84766 9.48145H5.84277C5.89297 10.0476 6.12904 10.5998 6.5498 11.0342C6.46655 11.0636 6.3775 11.081 6.28418 11.0811H3.84766C2.01099 11.0811 0.521828 9.59243 0.521484 7.75586V4.21875C0.521655 2.66111 1.78411 1.39858 3.3418 1.39844H8.39355ZM3.3418 2.99805C3.18203 2.99808 3.02951 3.0291 2.88965 3.08496L5.54102 5.58398C5.72252 5.74951 6.005 5.74636 6.17969 5.58008L8.80371 3.06934C8.67541 3.02356 8.5375 2.99806 8.39355 2.99805H3.3418Z" fill="black"/>
</svg>
