<svg width="16" height="16" viewBox="0 0 16 16" fill="none" xmlns="http://www.w3.org/2000/svg">
<path d="M12.9302 9.2207C13.3997 9.22073 13.8461 9.38088 14.2075 9.65723C14.228 9.67286 14.2492 9.68773 14.269 9.7041L14.4224 9.84375L14.4292 9.85059C14.5795 10.005 14.7015 10.1774 14.7954 10.3613C14.8867 10.5399 14.9507 10.7291 14.9888 10.9229C15.042 11.1943 15.0438 11.4743 14.9927 11.7461C14.9176 12.1454 14.7297 12.5274 14.4292 12.8359L14.4263 12.8389L13.3901 13.8916L13.2495 14.0195C12.8681 14.3432 12.3835 14.5251 11.8765 14.5254H11.8755C11.6616 14.5253 11.4508 14.4932 11.2505 14.4316C11.1168 14.3905 10.9877 14.336 10.8647 14.2695C10.8032 14.2363 10.7432 14.2004 10.6851 14.1611C10.6131 14.1125 10.5449 14.0584 10.479 14.001C10.4387 13.9658 10.3987 13.93 10.3608 13.8916L9.32373 12.8389L9.3208 12.8359C8.71908 12.2185 8.56701 11.3111 8.86768 10.5488L8.86865 10.5469C8.89377 10.4834 8.92221 10.4206 8.95361 10.3594C8.96105 10.3449 8.97024 10.3307 8.97803 10.3164C9.06921 10.1486 9.18333 9.98979 9.32275 9.84766L9.32373 9.84668C9.47371 9.69449 9.64407 9.56768 9.82861 9.46875C10.1298 9.30734 10.4688 9.22087 10.8188 9.2207C10.9129 9.22072 11.0063 9.22677 11.0981 9.23926C11.1898 9.2517 11.2802 9.26973 11.3687 9.29395C11.4572 9.31819 11.544 9.34839 11.6284 9.38379C11.7131 9.41927 11.795 9.46079 11.8745 9.50684C11.914 9.48393 11.9548 9.46174 11.9956 9.44141C12.0376 9.4205 12.0802 9.4009 12.1235 9.38281C12.2071 9.34789 12.2928 9.31794 12.3804 9.29395C12.4248 9.28179 12.4699 9.27193 12.5151 9.2627C12.6505 9.23507 12.7893 9.22076 12.9302 9.2207ZM11.2007 1.47266C13.13 1.47312 14.6947 3.03732 14.6948 4.9668V8.07227C14.2106 7.80918 13.6657 7.65241 13.0942 7.62695V4.9668C13.0942 4.89114 13.0882 4.8165 13.0796 4.74316L9.53662 8.13184L9.53564 8.13281C8.57954 9.04382 7.07752 9.04029 6.11963 8.14844L6.11572 8.14551L2.57764 4.80859C2.57332 4.86071 2.56984 4.91357 2.56982 4.9668V9.68164C2.56982 11.0999 3.71994 12.25 5.13818 12.25H7.229C7.37269 12.8304 7.6561 13.382 8.07861 13.8496H5.13818C2.83628 13.8496 0.970215 11.9835 0.970215 9.68164V4.9668C0.970398 3.03707 2.53455 1.47267 4.46436 1.47266H11.2007ZM12.8315 10.8301C12.7332 10.85 12.6403 10.8991 12.5659 10.9746V10.9756L12.4458 11.0967C12.2955 11.2491 12.0895 11.3358 11.8755 11.3359C11.6614 11.3358 11.4564 11.2491 11.3062 11.0967L11.1851 10.9746C11.0866 10.8746 10.9552 10.8195 10.8198 10.8193C10.6861 10.8195 10.5597 10.8718 10.4644 10.9678C10.2698 11.1661 10.2674 11.5141 10.4663 11.7188L11.5005 12.7686L11.5806 12.8359C11.6667 12.8941 11.7694 12.9257 11.8755 12.9258C12.0166 12.9256 12.1515 12.869 12.2505 12.7686L13.2837 11.7188C13.4786 11.5182 13.4799 11.1717 13.2866 10.9697C13.1863 10.8718 13.0568 10.8195 12.9312 10.8193L12.8315 10.8301ZM4.46436 3.07227C4.07316 3.07227 3.70856 3.19038 3.40674 3.39355L7.20947 6.97754C7.55365 7.2979 8.09365 7.29521 8.43115 6.97363L12.2065 3.36328C11.915 3.17998 11.5704 3.07243 11.2007 3.07227H4.46436Z" fill="black"/>
</svg>
