<svg xmlns="http://www.w3.org/2000/svg" viewBox="0 0 24 24" fill="currentColor"><path fill-rule="evenodd" d="M7.893 9.305a2 2 0 0 0-.92-.221H5.937a4 4 0 0 0-4 4v4.085a4 4 0 0 0 4 4h1.034c.952 0 1.75-.658 1.965-1.544a5.96 5.96 0 0 0 3.827 1.563l.26.007c2.48.053 3.751-.237 5.427-.604 1.481-.324 2.602-1.359 3.358-2.784 1-1.883 1.35-4.468 1.179-6.603-.112-1.397-1.276-2.644-2.686-3.014a24.4 24.4 0 0 0-3.763-.707 44 44 0 0 0 .575-3.592c.24-1.933-1.182-3.315-2.719-3.426-1.02-.074-2.13.378-2.839 1.674-.954 1.743-1.631 3.03-3.663 7.166m1.1 6.086a3.983 3.983 0 0 0 3.84 3.798l.234.006c2.266.049 3.426-.222 4.956-.558.912-.199 1.554-.89 2.02-1.767.832-1.57 1.094-3.728.951-5.506-.048-.597-.597-1.082-1.2-1.24-1.444-.38-2.799-.651-5.37-.817a1 1 0 0 1 .108-1.996c.282-1.342.447-2.447.598-3.665.08-.653-.36-1.149-.879-1.187-.351-.025-.696.192-.94.64-.953 1.742-1.627 3.022-3.684 7.212l-.001.002a6.2 6.2 0 0 0-.632 2.435zm-2-2.689v-1.597a.02.02 0 0 0-.02-.021H5.937a2 2 0 0 0-2 2v4.085a2 2 0 0 0 2 2h1.034c.012 0 .022-.01.022-.021v-3.714l-.005-.22-.003-2.159q0-.177.008-.353" clip-rule="evenodd"/></svg>
