<svg xmlns="http://www.w3.org/2000/svg" viewBox="0 0 24 24" fill="currentColor"><path d="M7.893 9.305a2 2 0 0 0-.92-.221H5.937a4 4 0 0 0-4 4v4.085a4 4 0 0 0 4 4h1.034c.952 0 1.75-.658 1.965-1.544a5.96 5.96 0 0 0 3.827 1.563l.26.007c2.48.053 3.751-.237 5.427-.604 1.481-.324 2.602-1.359 3.358-2.784 1-1.883 1.35-4.468 1.179-6.603-.112-1.397-1.276-2.644-2.686-3.014a24.4 24.4 0 0 0-3.763-.707 44 44 0 0 0 .575-3.592c.24-1.933-1.182-3.315-2.719-3.426-1.02-.074-2.13.378-2.839 1.674-.954 1.743-1.631 3.03-3.663 7.166Z"/></svg>
