<svg width="24" height="24" viewBox="0 0 24 24" fill="none" xmlns="http://www.w3.org/2000/svg">
<path d="M11.2393 8.3418C11.4787 7.60475 12.5213 7.60475 12.7607 8.3418L13.167 9.59277C13.2741 9.92239 13.5821 10.1455 13.9287 10.1455H15.2441C16.0189 10.1455 16.3412 11.1371 15.7148 11.5928L14.6494 12.3662C14.3692 12.5699 14.2524 12.9312 14.3594 13.2607L14.7656 14.5127C15.0049 15.2495 14.162 15.8622 13.5352 15.4072L12.4707 14.6338C12.1903 14.4301 11.8097 14.4301 11.5293 14.6338L10.4648 15.4072C9.83795 15.8622 8.9951 15.2495 9.23438 14.5127L9.64062 13.2607C9.74761 12.9312 9.63084 12.5699 9.35059 12.3662L8.28516 11.5928C7.65877 11.1371 7.98106 10.1455 8.75586 10.1455H10.0713C10.4179 10.1455 10.7259 9.92239 10.833 9.59277L11.2393 8.3418Z" fill="black"/>
<path fill-rule="evenodd" clip-rule="evenodd" d="M18.5273 3.0752C21.1393 3.07536 23.2567 5.19289 23.2568 7.80469V9.59863C23.2567 10.022 22.9898 10.3995 22.5908 10.541C21.8906 10.7889 21.3927 11.4543 21.3926 12.2334C21.3927 13.0123 21.8904 13.6778 22.5908 13.9258C22.9898 14.0673 23.2568 14.4448 23.2568 14.8682V16.1963C23.2567 18.8082 21.1392 20.9256 18.5273 20.9258H5.47363C2.86174 20.9257 0.744273 18.8083 0.744141 16.1963V14.8682C0.744141 14.4446 1.01099 14.0672 1.41016 13.9258C2.11103 13.6776 2.60927 13.0118 2.60938 12.2334C2.60922 11.4548 2.11073 10.7891 1.41016 10.541C1.01107 10.3996 0.744243 10.0221 0.744141 9.59863V7.80469C0.744294 5.1928 2.86168 3.07529 5.47363 3.0752H18.5273ZM5.47363 5.0752C3.96626 5.07527 2.74426 6.29728 2.74414 7.80469V8.9707C3.85746 9.6306 4.60919 10.8408 4.60938 12.2334C4.60929 13.6262 3.85721 14.8353 2.74414 15.4951V16.1963C2.74427 17.7036 3.96619 18.9257 5.47363 18.9258H18.5273C20.0347 18.9256 21.2567 17.7036 21.2568 16.1963V15.4951C20.1438 14.8351 19.3927 13.6258 19.3926 12.2334C19.3928 10.8409 20.1432 9.62971 21.2568 8.96973V7.80469C21.2567 6.29728 20.0346 5.07536 18.5273 5.0752H5.47363Z" fill="black"/>
</svg>
