<svg width="24" height="24" viewBox="0 0 24 24" fill="none" xmlns="http://www.w3.org/2000/svg">
<path fill-rule="evenodd" clip-rule="evenodd" d="M7.99414 2C6.66814 2 5.39714 2.527 4.45914 3.464C3.52114 4.402 2.99414 5.674 2.99414 7V17C2.99414 18.326 3.52114 19.598 4.45914 20.536C5.39714 21.473 6.66814 22 7.99414 22H16.0001C17.3271 22 18.5981 21.473 19.5361 20.536C20.4741 19.598 21.0001 18.326 21.0001 17C21.0001 14.023 21.0001 9.977 21.0001 7C21.0001 5.674 20.4741 4.402 19.5361 3.464C18.5981 2.527 17.3271 2 16.0001 2H7.99414ZM7.99414 4H16.0001C16.7961 4 17.5591 4.316 18.1221 4.879C18.6841 5.441 19.0001 6.204 19.0001 7C19.0001 9.977 19.0001 14.023 19.0001 17C19.0001 17.796 18.6841 18.559 18.1221 19.121C17.5591 19.684 16.7961 20 16.0001 20H7.99414C7.19914 20 6.43614 19.684 5.87314 19.121C5.31014 18.559 4.99414 17.796 4.99414 17C4.99414 14.023 4.99414 9.977 4.99414 7C4.99414 6.204 5.31014 5.441 5.87314 4.879C6.43614 4.316 7.19914 4 7.99414 4ZM12.0001 15.004H8.59614C8.04514 15.004 7.59614 15.452 7.59614 16.004C7.59614 16.556 8.04514 17.004 8.59614 17.004H12.0001C12.5521 17.004 13.0001 16.556 13.0001 16.004C13.0001 15.452 12.5521 15.004 12.0001 15.004ZM15.4041 11H8.59614C8.04514 11 7.59614 11.448 7.59614 12C7.59614 12.552 8.04514 13 8.59614 13H15.4041C15.9551 13 16.4041 12.552 16.4041 12C16.4041 11.448 15.9551 11 15.4041 11ZM15.4041 7H8.59614C8.04514 7 7.59614 7.448 7.59614 8C7.59614 8.552 8.04514 9 8.59614 9H15.4041C15.9551 9 16.4041 8.552 16.4041 8C16.4041 7.448 15.9551 7 15.4041 7Z" fill="black"/>
</svg>
