<svg width="16" height="16" viewBox="0 0 16 16" fill="none" xmlns="http://www.w3.org/2000/svg">
<path fill-rule="evenodd" clip-rule="evenodd" d="M5.8002 1.2002H10.2002C12.1884 1.2002 13.8002 2.812 13.8002 4.8002V11.2002C13.8002 13.1884 12.1884 14.8002 10.2002 14.8002H5.8002C3.812 14.8002 2.2002 13.1884 2.2002 11.2002V4.8002C2.2002 2.812 3.812 1.2002 5.8002 1.2002ZM5.8002 2.8002C4.6956 2.8002 3.8002 3.6956 3.8002 4.8002V11.2002C3.8002 12.3048 4.6956 13.2002 5.8002 13.2002H10.2002C11.3048 13.2002 12.2002 12.3048 12.2002 11.2002V4.8002C12.2002 3.6956 11.3048 2.8002 10.2002 2.8002H5.8002ZM7.996 10.1487C8.4375 10.1487 8.796 10.5072 8.796 10.9487C8.796 11.3903 8.4375 11.7487 7.996 11.7487H5.9619C5.5204 11.7487 5.1619 11.3903 5.1619 10.9487C5.1619 10.5072 5.5204 10.1487 5.9619 10.1487H7.996ZM10.0404 7.1847C10.4819 7.1847 10.8404 7.5432 10.8404 7.9847C10.8404 8.4263 10.4819 8.7847 10.0404 8.7847H5.9722C5.5307 8.7847 5.1722 8.4263 5.1722 7.9847C5.1722 7.5432 5.5307 7.1847 5.9722 7.1847H10.0404ZM10.0301 4.2364C10.4716 4.2364 10.8301 4.5948 10.8301 5.0364C10.8301 5.4779 10.4716 5.8364 10.0301 5.8364H5.9619C5.5204 5.8364 5.1619 5.4779 5.1619 5.0364C5.1619 4.5948 5.5204 4.2364 5.9619 4.2364H10.0301Z" fill="black"/>
</svg>
