<svg width="24" height="24" viewBox="0 0 24 24" fill="none" xmlns="http://www.w3.org/2000/svg">
<path fill-rule="evenodd" clip-rule="evenodd" d="M3.64984 9.13L4.31984 6.68C4.91984 4.51 6.88984 3 9.14984 3C10.9598 3 13.2498 3 15.0598 3C17.2998 3 19.2698 4.5 19.8698 6.66L20.5598 9.14C22.0198 9.56 23.0898 10.9 23.0898 12.5V14.5C23.0898 15.45 22.7098 16.32 22.0898 16.95V18.28C22.0898 18.88 21.8598 19.45 21.4298 19.87C21.0098 20.3 20.4398 20.53 19.8398 20.53C19.3598 20.53 18.8198 20.53 18.3498 20.53C17.7498 20.53 17.1798 20.3 16.7498 19.87C16.3298 19.45 16.0898 18.88 16.0898 18.28V18H8.08984V18.28C8.08984 18.88 7.85984 19.45 7.42984 19.87C7.00984 20.3 6.43984 20.53 5.83984 20.53C5.35984 20.53 4.81984 20.53 4.34984 20.53C3.74984 20.53 3.17984 20.3 2.74984 19.87C2.32984 19.45 2.08984 18.88 2.08984 18.28V16.95C1.47984 16.32 1.08984 15.45 1.08984 14.5V12.5C1.08984 10.89 2.17984 9.54 3.64984 9.13ZM4.08984 17.96V18.28C4.08984 18.35 4.11984 18.41 4.16984 18.46C4.21984 18.51 4.27984 18.53 4.34984 18.53H5.83984C5.90984 18.53 5.96984 18.51 6.01984 18.46C6.06984 18.41 6.08984 18.35 6.08984 18.28V18H4.59984C4.42984 18 4.25984 17.99 4.08984 17.96ZM20.0898 17.96C19.9298 17.99 19.7598 18 19.5898 18H18.0898V18.28C18.0898 18.35 18.1198 18.41 18.1698 18.46C18.2198 18.51 18.2798 18.53 18.3498 18.53H19.8398C19.9098 18.53 19.9698 18.51 20.0198 18.46C20.0698 18.41 20.0898 18.35 20.0898 18.28V17.96ZM19.5898 11C20.4198 11 21.0898 11.67 21.0898 12.5V14.5C21.0898 15.33 20.4198 16 19.5898 16H4.59984C3.76984 16 3.08984 15.33 3.08984 14.5V12.5C3.08984 11.67 3.76984 11 4.59984 11H19.5898ZM6.12984 12.01C6.95984 12.01 7.62984 12.68 7.62984 13.51C7.62984 14.34 6.95984 15.01 6.12984 15.01C5.29984 15.01 4.62984 14.34 4.62984 13.51C4.62984 12.68 5.29984 12.01 6.12984 12.01ZM18.1098 12.01C18.9298 12.01 19.6098 12.68 19.6098 13.51C19.6098 14.34 18.9298 15.01 18.1098 15.01C17.2798 15.01 16.6098 14.34 16.6098 13.51C16.6098 12.68 17.2798 12.01 18.1098 12.01ZM18.4498 9H5.75984L6.24984 7.21C6.60984 5.9 7.78984 5 9.14984 5H15.0598C16.3998 5 17.5798 5.9 17.9498 7.2L18.4498 9Z" fill="black"/>
</svg>
