<svg width="16" height="16" viewBox="0 0 16 16" fill="none" xmlns="http://www.w3.org/2000/svg">
<path fill-rule="evenodd" clip-rule="evenodd" d="M5.235 3.19544H2.05C1.608 3.19544 1.25 3.55344 1.25 3.99544C1.25 4.43644 1.608 4.79544 2.05 4.79544H2.404V11.7004C2.404 12.5224 2.731 13.3104 3.312 13.8914C3.893 14.4734 4.681 14.7994 5.503 14.7994C7.018 14.7994 8.996 14.7994 10.511 14.7994C11.333 14.7994 12.121 14.4734 12.702 13.8914C13.283 13.3104 13.61 12.5224 13.61 11.7004V4.79544H14.013C14.454 4.79544 14.813 4.43644 14.813 3.99544C14.813 3.55344 14.454 3.19544 14.013 3.19544H10.758C10.693 1.33644 9.672 0.148438 7.996 0.148438C7.267 0.148438 6.676 0.384438 6.224 0.786438C5.638 1.30644 5.273 2.13844 5.235 3.19544ZM12.01 4.79544H4.004V11.7004C4.004 12.0984 4.162 12.4794 4.443 12.7604C4.724 13.0414 5.105 13.1994 5.503 13.1994C7.018 13.1994 8.996 13.1994 10.511 13.1994C10.909 13.1994 11.29 13.0414 11.571 12.7604C11.852 12.4794 12.01 12.0984 12.01 11.7004V4.79544ZM7.006 11.1474V6.71144C7.006 6.26944 6.647 5.91144 6.206 5.91144C5.764 5.91144 5.406 6.26944 5.406 6.71144V11.1474C5.406 11.5884 5.764 11.9474 6.206 11.9474C6.647 11.9474 7.006 11.5884 7.006 11.1474ZM10.613 11.1474V6.71144C10.613 6.26944 10.255 5.91144 9.813 5.91144C9.372 5.91144 9.013 6.26944 9.013 6.71144V11.1474C9.013 11.5884 9.372 11.9474 9.813 11.9474C10.255 11.9474 10.613 11.5884 10.613 11.1474ZM9.156 3.19544C9.111 2.36144 8.757 1.74844 7.996 1.74844C7.235 1.74844 6.881 2.35344 6.836 3.19544H9.156Z" fill="black"/>
</svg>
