<svg width="24" height="24" viewBox="0 0 24 24" fill="none" xmlns="http://www.w3.org/2000/svg">
<path fill-rule="evenodd" clip-rule="evenodd" d="M8.06004 4.00083H3.54004C2.99004 4.00083 2.54004 4.44883 2.54004 5.00083C2.54004 5.55283 2.99004 6.00083 3.54004 6.00083H4.05004V18.0008C4.05004 20.2098 5.84004 22.0008 8.05004 22.0008H16.04C18.25 22.0008 20.04 20.2098 20.04 18.0008V6.00083H20.55C21.1 6.00083 21.55 5.55283 21.55 5.00083C21.55 4.44883 21.1 4.00083 20.55 4.00083H15.75C15.61 2.00283 13.94 0.423828 11.9 0.423828C9.87004 0.423828 8.20004 2.00283 8.06004 4.00083ZM18.04 6.00083H6.05004V18.0008C6.05004 19.1058 6.95004 20.0008 8.05004 20.0008H16.04C17.14 20.0008 18.04 19.1058 18.04 18.0008V6.00083ZM10.41 16.9408V9.00083C10.41 8.50383 10.01 8.10083 9.51004 8.10083C9.02004 8.10083 8.61004 8.50383 8.61004 9.00083V16.9408C8.61004 17.4378 9.02004 17.8408 9.51004 17.8408C10.01 17.8408 10.41 17.4378 10.41 16.9408ZM15.44 16.9408V9.00083C15.44 8.50383 15.04 8.10083 14.54 8.10083C14.04 8.10083 13.64 8.50383 13.64 9.00083V16.9408C13.64 17.4378 14.04 17.8408 14.54 17.8408C15.04 17.8408 15.44 17.4378 15.44 16.9408ZM13.74 4.00083C13.6 3.10883 12.83 2.42383 11.9 2.42383C10.97 2.42383 10.2 3.10883 10.07 4.00083H13.74Z" fill="black"/>
</svg>
