<svg width="12" height="12" viewBox="0 0 12 12" fill="none" xmlns="http://www.w3.org/2000/svg">
<g clip-path="url(#clip0_25409_2791)">
<path d="M5.42612 8.33258C5.42612 8.71888 5.11242 9.03258 4.72612 9.03258C4.33982 9.03258 4.02612 8.71888 4.02612 8.33258V5.45708C4.02612 5.07068 4.33982 4.75708 4.72612 4.75708C5.11242 4.75708 5.42612 5.07068 5.42612 5.45708V8.33258Z" fill="black"/>
<path d="M7.94883 8.33258C7.94883 8.71888 7.63513 9.03258 7.24883 9.03258C6.86243 9.03258 6.54883 8.71888 6.54883 8.33258V5.45708C6.54883 5.07068 6.86243 4.75708 7.24883 4.75708C7.63513 4.75708 7.94883 5.07068 7.94883 5.45708V8.33258Z" fill="black"/>
<path fill-rule="evenodd" clip-rule="evenodd" d="M1.43482 3.79717H1.16572C0.724123 3.79717 0.365723 3.43867 0.365723 2.99717C0.365723 2.55567 0.724123 2.19717 1.16572 2.19717H3.79202C3.85262 1.65447 4.04222 1.20117 4.32912 0.861666C4.71022 0.410466 5.26642 0.134766 5.99712 0.134766C6.72812 0.134766 7.28482 0.413666 7.66612 0.867066C7.95242 1.20737 8.14112 1.65997 8.20192 2.19717H10.8812C11.3228 2.19717 11.6812 2.55567 11.6812 2.99717C11.6812 3.43867 11.3228 3.79717 10.8812 3.79717H10.5759V9.24857C10.5759 9.93807 10.3019 10.5995 9.81432 11.0871C9.32672 11.5747 8.66542 11.8486 7.97592 11.8486H4.03482C3.34522 11.8486 2.68392 11.5747 2.19632 11.0871C1.70872 10.5995 1.43482 9.93807 1.43482 9.24857V3.79717ZM6.83951 2.19717H5.15381C5.19761 1.96717 5.28851 1.77747 5.44451 1.64987C5.58421 1.53547 5.77211 1.48477 5.99711 1.48477C6.22151 1.48477 6.40871 1.53677 6.54801 1.65157C6.70351 1.77977 6.79501 1.96907 6.83951 2.19717ZM3.03482 3.79718H8.97592V9.24858C8.97592 9.51378 8.87052 9.76818 8.68302 9.95568C8.49542 10.1432 8.24112 10.2486 7.97592 10.2486H4.03482C3.76962 10.2486 3.51522 10.1432 3.32772 9.95568C3.14022 9.76818 3.03482 9.51378 3.03482 9.24858V3.79718Z" fill="black"/>
</g>
<defs>
<clipPath id="clip0_25409_2791">
<rect width="12" height="12" fill="white"/>
</clipPath>
</defs>
</svg>
