<svg width="16" height="16" viewBox="0 0 16 16" fill="none" xmlns="http://www.w3.org/2000/svg">
<path fill-rule="evenodd" clip-rule="evenodd" d="M4.01246 14.6098C3.64246 14.4698 3.31247 14.25 3.03247 13.97C2.50247 13.44 2.2124 12.73 2.2124 11.99L2.22241 5.95995C2.22241 4.40996 3.48246 3.15991 5.02247 3.15991H5.18238V1.86987C5.18238 1.38987 5.37242 0.919833 5.72242 0.579833C6.06242 0.239834 6.52246 0.0498047 7.01246 0.0498047H8.97243C9.46243 0.0498047 9.92248 0.239834 10.2725 0.579833C10.6125 0.919833 10.8025 1.38987 10.8025 1.86987V3.15991H10.9925C11.7425 3.15991 12.4524 3.45999 12.9724 3.98998C13.5024 4.50998 13.7925 5.22996 13.7925 5.96996L13.7825 12C13.7825 13.18 13.0425 14.1898 12.0025 14.5998C12.0125 14.6498 12.0225 14.71 12.0225 14.77C12.0225 15.43 11.4825 15.9599 10.8225 15.9599C10.1625 15.9599 9.63258 15.4398 9.62258 14.7898H6.40236C6.38236 15.4398 5.8524 15.9599 5.2024 15.9599C4.5424 15.9599 4.00245 15.43 4.00245 14.77C4.00245 14.71 4.00246 14.6598 4.01246 14.6098ZM5.88258 4.76H5.02247C4.36247 4.76 3.82251 5.29995 3.82251 5.95995L3.8125 11.99C3.8125 12.31 3.94236 12.6098 4.16236 12.8398C4.39236 13.0698 4.69246 13.1899 5.01246 13.1899H10.9824C11.6424 13.1899 12.1824 12.66 12.1824 12L12.1924 5.95995C12.1924 5.64995 12.0726 5.33987 11.8426 5.11987C11.6226 4.88987 11.3125 4.76 10.9925 4.76H10.1026C10.0726 4.77 10.0325 4.77001 10.0025 4.77001H5.98243C5.95243 4.77001 5.91258 4.77 5.88258 4.76ZM9.20241 3.15991V1.86987C9.20241 1.80987 9.18259 1.75996 9.13259 1.70996C9.09259 1.66996 9.03243 1.6499 8.97243 1.6499H7.01246C6.95246 1.6499 6.89255 1.66996 6.85255 1.70996C6.81255 1.75996 6.78248 1.80987 6.78248 1.86987V3.15991H9.20241Z" fill="black"/>
</svg>
