<svg width="16" height="16" viewBox="0 0 16 16" fill="none" xmlns="http://www.w3.org/2000/svg">
<path fill-rule="evenodd" clip-rule="evenodd" d="M6.3392 3.19958L5.4372 1.75958C5.2022 1.38958 5.3152 0.889578 5.6892 0.659578C6.0632 0.419578 6.5572 0.539578 6.7922 0.909578L8.0122 2.84958L9.23219 0.909578C9.4662 0.539578 9.9612 0.419578 10.3352 0.659578C10.7092 0.889578 10.8222 1.38958 10.5872 1.75958L9.6842 3.19958H12.0002C14.0992 3.19958 15.8002 4.89958 15.8002 6.99958C15.8002 8.26958 15.8002 9.72958 15.8002 10.9996C15.8002 12.7596 14.6082 14.2396 12.9882 14.6696C12.8982 15.4096 12.2652 15.9896 11.5002 15.9896C10.7802 15.9896 10.1782 15.4796 10.0332 14.7996H5.9672C5.8222 15.4796 5.2202 15.9896 4.5002 15.9896C3.7342 15.9896 3.1022 15.4096 3.0122 14.6696C1.3922 14.2396 0.200195 12.7596 0.200195 10.9996C0.200195 9.72958 0.200195 8.26958 0.200195 6.99958C0.200195 4.89958 1.9012 3.19958 4.0002 3.19958H6.3392ZM4.0002 4.79958H12.0002C13.2152 4.79958 14.2002 5.77958 14.2002 6.99958C14.2002 8.26958 14.2002 9.72958 14.2002 10.9996C14.2002 12.2196 13.2152 13.1996 12.0002 13.1996H4.0002C2.7852 13.1996 1.8002 12.2196 1.8002 10.9996C1.8002 9.72958 1.8002 8.26958 1.8002 6.99958C1.8002 5.77958 2.7852 4.79958 4.0002 4.79958ZM4.6942 8.12958V11.0296C4.6942 11.4696 5.05319 11.8296 5.49419 11.8296C5.93619 11.8296 6.2942 11.4696 6.2942 11.0296V8.12958H6.8272C7.1052 8.12958 7.3492 7.98958 7.4932 7.77958L9.2832 11.3796C9.4182 11.6496 9.69619 11.8196 9.9992 11.8196C10.3032 11.8196 10.5802 11.6496 10.7162 11.3796L12.5502 7.68958C12.7462 7.28958 12.5852 6.80958 12.1902 6.61958C11.7942 6.41958 11.3142 6.57958 11.1172 6.97958L9.9992 9.22958L8.8812 6.97958C8.68519 6.57958 8.2042 6.41958 7.8092 6.61958C7.6772 6.67958 7.5712 6.77958 7.4962 6.89958C7.3542 6.67958 7.1072 6.52958 6.8272 6.52958H4.1612C3.7192 6.52958 3.3612 6.88958 3.3612 7.32958C3.3612 7.76958 3.7192 8.12958 4.1612 8.12958H4.6942Z" fill="black"/>
</svg>
