<svg width="24" height="24" viewBox="0 0 24 24" fill="none" xmlns="http://www.w3.org/2000/svg">
<path fill-rule="evenodd" clip-rule="evenodd" d="M9.88 4.99915L8.4 2.51915C8.12 2.03915 8.27 1.42915 8.74 1.14915C9.22 0.859149 9.83 1.01915 10.12 1.48915L11.96 4.58915L13.81 1.48915C14.1 1.01915 14.71 0.859149 15.18 1.14915C15.66 1.42915 15.81 2.03915 15.53 2.51915L14.05 4.99915H18C19.33 4.99915 20.6 5.52915 21.54 6.45915C22.47 7.39915 23 8.66915 23 9.99915V16.9991C23 18.3291 22.47 19.5991 21.54 20.5391C20.82 21.2491 19.92 21.7191 18.94 21.9091C18.76 22.5391 18.19 22.9991 17.5 22.9991C16.85 22.9991 16.29 22.5791 16.09 21.9991H7.91C7.71 22.5791 7.15 22.9991 6.5 22.9991C5.81 22.9991 5.24 22.5391 5.06 21.9091C4.08 21.7191 3.18 21.2491 2.46 20.5391C1.53 19.5991 1 18.3291 1 16.9991C1 14.8291 1 12.1691 1 9.99915C1 8.66915 1.53 7.39915 2.46 6.45915C3.4 5.52915 4.67 4.99915 6 4.99915H9.88ZM18 6.99915H6C5.2 6.99915 4.44 7.31915 3.88 7.87915C3.32 8.43915 3 9.19915 3 9.99915C3 12.1691 3 14.8291 3 16.9991C3 17.7991 3.32 18.5591 3.88 19.1191C4.44 19.6791 5.2 19.9991 6 19.9991C9.49 19.9991 14.51 19.9991 18 19.9991C18.8 19.9991 19.56 19.6791 20.12 19.1191C20.68 18.5591 21 17.7991 21 16.9991V9.99915C21 9.19915 20.68 8.43915 20.12 7.87915C19.56 7.31915 18.8 6.99915 18 6.99915ZM7 11.9991V16.5491C7 17.0991 7.45 17.5491 8 17.5491C8.55 17.5491 9 17.0991 9 16.5491V11.9991H10C10.55 11.9991 11 11.5491 11 10.9991C11 10.4491 10.55 9.99915 10 9.99915H6C5.45 9.99915 5 10.4491 5 10.9991C5 11.5491 5.45 11.9991 6 11.9991H7ZM17.36 10.5491L15.5 14.2891L13.65 10.5491C13.4 10.0591 12.8 9.85915 12.31 10.0991C11.81 10.3491 11.61 10.9491 11.86 11.4491L14.61 16.9791C14.78 17.3191 15.12 17.5291 15.5 17.5291C15.88 17.5291 16.23 17.3191 16.4 16.9791L19.15 11.4491C19.4 10.9491 19.19 10.3491 18.7 10.0991C18.21 9.85915 17.6 10.0591 17.36 10.5491Z" fill="black"/>
</svg>
