<svg width="16" height="16" viewBox="0 0 16 16" fill="none" xmlns="http://www.w3.org/2000/svg">
<path d="M2.88925 8.69384L1.54035 7.34474C1.22815 7.03244 0.721255 7.03244 0.408955 7.34464C0.0967547 7.65684 0.0967547 8.16374 0.408955 8.47604L3.10665 11.1741C3.25665 11.3242 3.46015 11.4085 3.67235 11.4085C3.88455 11.4085 4.08805 11.3242 4.23815 11.1741L6.93585 8.47604C7.24805 8.16374 7.24805 7.65684 6.93575 7.34464C6.62355 7.03244 6.11655 7.03244 5.80435 7.34474L4.48925 8.66014V7.95384C4.48925 5.34054 6.61285 3.21914 9.22816 3.21914C11.8435 3.21914 13.9671 5.34054 13.9671 7.95384C13.9671 10.4935 11.9618 12.5688 9.44845 12.6836C9.00735 12.7038 8.66566 13.0782 8.68575 13.5193C8.70595 13.9604 9.08045 14.3021 9.52145 14.2819C12.8842 14.1283 15.5671 11.3517 15.5671 7.95384C15.5671 4.45774 12.7269 1.61914 9.22816 1.61914C5.72945 1.61914 2.88925 4.45774 2.88925 7.95384V8.69384Z" fill="black"/>
</svg>
