<svg width="24" height="24" viewBox="0 0 24 24" fill="none" xmlns="http://www.w3.org/2000/svg">
<path fill-rule="evenodd" clip-rule="evenodd" d="M7 9.03461C5.31 9.27461 4 10.7346 4 12.4996V18.0066C4 20.7676 6.24 23.0066 9 23.0066C10.88 23.0066 13.12 23.0066 15 23.0066C17.76 23.0066 20 20.7676 20 18.0066V12.4996C20 10.5666 18.43 8.99961 16.5 8.99961H9V5.97461C9 5.17961 9.32 4.41661 9.88 3.85361C10.45 3.29061 11.21 2.97461 12.01 2.97461H12.04C12.82 2.97461 13.58 3.28661 14.13 3.84161C14.69 4.39561 15 5.14861 15 5.93261V5.99761C15.01 6.30061 15.14 6.50561 15.29 6.64461C15.47 6.82361 15.72 6.93461 16 6.93461C16 6.93461 17 6.87261 17 5.93261C17 4.61761 16.47 3.35661 15.54 2.42661C14.62 1.49761 13.35 0.974609 12.04 0.974609C12.03 0.974609 12.02 0.974609 12.01 0.974609C10.68 0.974609 9.41 1.50161 8.47 2.43961C7.53 3.37661 7 4.64861 7 5.97461V9.03461ZM16.5 10.9996C17.33 10.9996 18 11.6716 18 12.4996V18.0066C18 19.6636 16.66 21.0066 15 21.0066H9C7.34 21.0066 6 19.6636 6 18.0066V12.4996C6 11.6716 6.67 10.9996 7.5 10.9996H16.5ZM11.01 16.4196C10.55 16.1066 10.26 15.5846 10.26 14.9936C10.26 14.0356 11.04 13.2566 12 13.2566C12.95 13.2566 13.73 14.0356 13.73 14.9936C13.73 15.5776 13.44 16.0936 13 16.4076V18.6166C13 18.8346 12.92 19.0446 12.76 19.1996C12.61 19.3536 12.4 19.4406 12.18 19.4406C12.06 19.4406 11.94 19.4406 11.83 19.4406C11.61 19.4406 11.4 19.3536 11.25 19.1996C11.09 19.0446 11.01 18.8346 11.01 18.6166V16.4196Z" fill="black"/>
</svg>
