<svg width="16" height="16" viewBox="0 0 16 16" fill="none" xmlns="http://www.w3.org/2000/svg">
<path fill-rule="evenodd" clip-rule="evenodd" d="M3.1928 10.0562V14.9782C3.1928 15.4192 3.5518 15.7782 3.9928 15.7782C4.4348 15.7782 4.7928 15.4192 4.7928 14.9782V10.1132L5.6378 10.9572C5.9508 11.2692 6.4578 11.2682 6.7698 10.9562C7.0808 10.6432 7.0808 10.1362 6.7688 9.82422L4.5338 7.59322C4.2218 7.28222 3.7168 7.28222 3.4048 7.59222L1.1568 9.82322C0.842804 10.1342 0.840804 10.6412 1.1518 10.9542C1.4628 11.2682 1.9698 11.2692 2.2838 10.9582L3.1928 10.0562ZM3.0568 5.83222C3.5688 5.63122 4.1328 5.60622 4.6568 5.75722V4.99922C4.6568 3.78422 5.6418 2.79922 6.8568 2.79922H8.7408V5.01122C8.7408 5.62722 8.9858 6.21722 9.4208 6.65322C9.8568 7.08822 10.4468 7.33322 11.0628 7.33322H13.3428V10.9992C13.3428 12.2142 12.3578 13.1992 11.1428 13.1992C9.79381 13.1992 8.2058 13.1992 6.8568 13.1992C6.7338 13.1992 6.6128 13.1892 6.4928 13.1662V14.7812L6.8568 14.7992C8.2058 14.7992 9.79381 14.7992 11.1428 14.7992C13.2408 14.7992 14.9428 13.0982 14.9428 10.9992V6.49722C14.9428 5.77222 14.6618 5.07522 14.1578 4.55322L11.7498 2.05522C11.2218 1.50822 10.4948 1.19922 9.7338 1.19922H6.8568C4.7588 1.19922 3.0568 2.90022 3.0568 4.99922V5.83222ZM10.3408 2.97022V5.01122C10.3408 5.20322 10.4168 5.38622 10.5528 5.52122C10.6878 5.65722 10.8708 5.73322 11.0628 5.73322H13.0608L13.0068 5.66422L10.5978 3.16622C10.5218 3.08722 10.4358 3.02022 10.3408 2.97022Z" fill="black"/>
</svg>
