<svg width="16" height="16" viewBox="0 0 16 16" fill="none" xmlns="http://www.w3.org/2000/svg">
<path fill-rule="evenodd" clip-rule="evenodd" d="M4.5372 5.65122C3.1842 6.06322 2.2002 7.32122 2.2002 8.80822C2.2002 9.64722 2.2002 10.5982 2.2002 11.4992C2.2002 13.8742 4.1252 15.7992 6.5002 15.7992H9.5002C11.8752 15.7992 13.8002 13.8742 13.8002 11.4992C13.8002 10.5982 13.8002 9.64722 13.8002 8.80822C13.8002 6.98622 12.3232 5.50822 10.5002 5.50822H6.1372V3.52822C6.1372 2.57322 6.9112 1.79922 7.8662 1.79922C7.9562 1.79922 8.0462 1.79922 8.1362 1.79922C9.0912 1.79922 9.8652 2.57322 9.8652 3.52822L9.8662 3.68922C9.8782 3.93322 9.9782 4.09722 10.1042 4.20922C10.2482 4.35122 10.4462 4.43922 10.6652 4.43922C10.6652 4.43922 11.4652 4.30022 11.4652 3.52822C11.4652 1.68922 9.9742 0.199219 8.1362 0.199219C8.0462 0.199219 7.9562 0.199219 7.8662 0.199219C6.0272 0.199219 4.5372 1.68922 4.5372 3.52822V5.65122ZM10.5002 7.10822C11.4392 7.10822 12.2002 7.86922 12.2002 8.80822C12.2002 9.64722 12.2002 10.5982 12.2002 11.4992C12.2002 12.9902 10.9912 14.1992 9.5002 14.1992H6.5002C5.0092 14.1992 3.8002 12.9902 3.8002 11.4992C3.8002 10.5982 3.8002 9.64722 3.8002 8.80822C3.8002 7.86922 4.5612 7.10822 5.5002 7.10822H10.5002ZM7.3372 11.0862C6.9682 10.8632 6.7222 10.4582 6.7222 9.99522C6.7222 9.29122 7.2932 8.72022 7.9972 8.72022C8.7012 8.72022 9.27219 9.29122 9.27219 9.99522C9.27219 10.4532 9.0312 10.8542 8.6692 11.0792V12.3262C8.6692 12.6762 8.3852 12.9602 8.0352 12.9602C8.0142 12.9602 7.9922 12.9602 7.9702 12.9602C7.6202 12.9602 7.3372 12.6762 7.3372 12.3262V11.0862Z" fill="black"/>
</svg>
