<svg width="12" height="12" viewBox="0 0 12 12" fill="none" xmlns="http://www.w3.org/2000/svg">
<path fill-rule="evenodd" clip-rule="evenodd" d="M3.20197 4.2308C2.25997 4.3925 1.54297 5.2135 1.54297 6.2018V8.6634C1.54297 10.3939 2.94597 11.7967 4.67697 11.7967H7.29697C9.02697 11.7967 10.43 10.3939 10.43 8.6634V6.2018C10.43 5.0973 9.53497 4.2018 8.42997 4.2018H4.80197V2.8918C4.80197 2.2291 5.33997 1.6919 6.00197 1.6918H6.38297C6.75597 1.6918 7.14397 2.1335 7.21697 2.4733C7.30997 2.9041 7.63497 3.21 8.05597 3.1818C8.32297 3.1639 8.79697 3.0117 8.79897 2.3678C8.79897 1.1108 7.62997 0.0917969 6.37297 0.0917969H6.00197C4.45597 0.0917969 3.20197 1.3455 3.20197 2.8918V4.2308ZM8.42997 5.8018C8.65097 5.8018 8.82997 5.9809 8.82997 6.2018V8.6634C8.82997 9.5102 8.14297 10.1967 7.29697 10.1967H4.67697C3.82997 10.1967 3.14297 9.5102 3.14297 8.6634V6.2019C3.14297 5.9809 3.32197 5.8018 3.54297 5.8018H8.42997ZM5.18997 7.3435V8.3435C5.18997 8.7851 5.54797 9.1435 5.98997 9.1435C6.43097 9.1435 6.78997 8.7851 6.78997 8.3435V7.3435C6.78997 6.902 6.43097 6.5435 5.98997 6.5435C5.54797 6.5435 5.18997 6.902 5.18997 7.3435Z" fill="black"/>
</svg>
