<svg width="16" height="16" viewBox="0 0 16 16" fill="none" xmlns="http://www.w3.org/2000/svg">
<path fill-rule="evenodd" clip-rule="evenodd" d="M8.7777 5.75031V4.80031C8.7777 4.10031 8.3677 3.46031 7.7297 3.17031C7.0907 2.87031 6.3397 2.98031 5.8057 3.43031L1.5157 7.11031C1.1177 7.45031 0.887699 7.95031 0.887699 8.48031C0.886699 9.00031 1.1157 9.50031 1.5127 9.84031L5.8027 13.5403C6.3357 13.9903 7.0877 14.1003 7.7277 13.8103C8.3677 13.5103 8.7777 12.8803 8.7777 12.1703V11.5603C10.1807 11.7503 11.1287 12.1403 11.8947 12.6803C12.5487 13.1803 13.4437 13.1803 14.0897 12.6903C14.7417 12.1903 14.9737 11.3103 14.6537 10.5603L14.6507 10.5503C13.7747 8.54031 12.0447 6.44031 8.7777 5.75031ZM7.1777 6.43031C7.1777 6.83031 7.4717 7.16031 7.8667 7.22031C10.8717 7.64031 12.4237 9.45031 13.1817 11.1803C13.2157 11.2703 13.1897 11.3603 13.1187 11.4203C13.0467 11.4703 12.9467 11.4703 12.8757 11.4203C12.8647 11.4103 12.8547 11.4003 12.8447 11.3903C11.7407 10.6103 10.3357 10.0403 8.0367 9.87031C7.8147 9.86031 7.5957 9.93031 7.4327 10.0803C7.2697 10.2403 7.1777 10.4503 7.1777 10.6703V12.1703C7.1777 12.2503 7.1317 12.3203 7.0607 12.3503C6.9897 12.3903 6.9057 12.3703 6.8467 12.3203L2.5567 8.63031C2.5127 8.59031 2.4877 8.54031 2.4877 8.48031C2.4877 8.42031 2.5127 8.36031 2.5577 8.33031L6.8467 4.65031C6.9067 4.60031 6.9897 4.59031 7.0607 4.62031C7.1317 4.65031 7.1777 4.72031 7.1777 4.80031V6.43031ZM13.0257 1.07031C14.0757 1.07031 14.9277 1.93031 14.9277 2.98031C14.9277 4.03031 14.0757 4.88031 13.0257 4.88031C11.9757 4.88031 11.1237 4.03031 11.1237 2.98031C11.1237 1.93031 11.9757 1.07031 13.0257 1.07031Z" fill="black"/>
</svg>
