<svg width="24" height="24" viewBox="0 0 24 24" fill="none" xmlns="http://www.w3.org/2000/svg">
<path fill-rule="evenodd" clip-rule="evenodd" d="M13.0392 7.544V5.1568C13.0392 4.3734 12.5822 3.6621 11.8692 3.3371C11.1562 3.012 10.3192 3.1331 9.72717 3.6468L2.41117 10.001C1.97317 10.3813 1.72217 10.933 1.72217 11.5131C1.72317 12.0931 1.97517 12.6443 2.41417 13.0237C4.05517 14.4425 7.62217 17.5283 9.73117 19.3518C10.3222 19.8638 11.1592 19.9835 11.8712 19.658C12.5822 19.3326 13.0392 18.6218 13.0392 17.8391V15.8564C16.0962 16.2424 17.7772 17.2209 19.2412 18.5232C19.8952 19.1222 20.8682 19.2172 21.6262 18.7548C22.3892 18.2898 22.7492 17.3742 22.5082 16.5141V16.5129C21.5392 13.0728 18.9942 8.734 13.0392 7.544ZM11.0392 17.8392L3.72217 11.511L11.0392 5.1568V8.388C11.0392 8.8863 11.4062 9.3086 11.8992 9.3782C17.4172 10.1567 19.7192 14.0075 20.5772 17.0344L20.5762 17.0335C18.6802 15.3455 16.4902 14.0802 12.1132 13.7553C11.8362 13.7347 11.5622 13.8305 11.3582 14.0197C11.1552 14.2089 11.0392 14.4745 11.0392 14.7525V17.8392ZM20.0002 1C21.6562 1 23.0002 2.3443 23.0002 4C23.0002 5.6557 21.6562 7 20.0002 7C18.3442 7 17.0002 5.6557 17.0002 4C17.0002 2.3443 18.3442 1 20.0002 1Z" fill="black"/>
</svg>
