<svg width="24" height="24" viewBox="0 0 24 24" fill="none" xmlns="http://www.w3.org/2000/svg">
<path fill-rule="evenodd" clip-rule="evenodd" d="M11 13.4154V21.4946C11 22.0465 11.4481 22.4946 12 22.4946C12.5519 22.4946 13 22.0465 13 21.4946V13.3901L15.2832 15.6646C15.6742 16.0541 16.3079 16.0529 16.6974 15.6619C17.087 15.2709 17.0858 14.6372 16.6947 14.2477L12.7235 10.2915C12.3341 9.9036 11.7046 9.9027 11.3141 10.2895L7.29628 14.2686C6.90418 14.657 6.90108 15.2906 7.28948 15.6828C7.67788 16.0749 8.31148 16.078 8.70368 15.6896L11 13.4154ZM8.54018 19.9941L6.03517 20C2.73017 20 0.046875 17.3115 0.046875 14C0.046875 11.2025 1.96207 8.8501 4.54927 8.1874C5.68468 5.158 8.60448 3 12.0235 3C15.4425 3 18.3624 5.1581 19.497 8.1872C22.0845 8.8496 24 11.2023 24 14C24 17.1105 21.6323 19.6709 18.6062 19.9704L15.5536 19.9776V17.9846L18.41 17.98C20.4268 17.7804 22.0039 16.0731 22.0039 14C22.0039 11.9892 20.5202 10.3225 18.5903 10.0425C18.2023 9.9862 17.8832 9.7076 17.7744 9.3302C17.0539 6.8298 14.7502 5 12.0235 5C9.29677 5 6.99307 6.8298 6.27247 9.3302C6.16367 9.7076 5.84457 9.9862 5.45657 10.0425C3.52667 10.3225 2.04297 11.9892 2.04297 14C2.04297 16.2077 3.83177 18 6.03517 18L8.54018 17.996V19.9941Z" fill="black"/>
</svg>
