<svg width="16" height="16" viewBox="0 0 16 16" fill="none" xmlns="http://www.w3.org/2000/svg">
<path fill-rule="evenodd" clip-rule="evenodd" d="M7.19987 8.38464V14.3296C7.19987 14.7706 7.55787 15.1296 7.99987 15.1296C8.44187 15.1296 8.79987 14.7706 8.79987 14.3296V8.36864L10.0949 9.65864C10.4079 9.96964 10.9139 9.96964 11.2259 9.65664C11.5379 9.34364 11.5369 8.83664 11.2239 8.52464L8.57587 5.88764C8.26487 5.57764 7.76087 5.57664 7.44887 5.88564L4.76987 8.53864C4.45687 8.84964 4.45387 9.35664 4.76487 9.66964C5.07587 9.98364 5.58287 9.98664 5.89587 9.67564L7.19987 8.38464ZM5.22487 12.7776L4.33387 12.7766C2.04887 12.7766 0.192871 10.9206 0.192871 8.63564C0.192871 6.75864 1.44487 5.17264 3.15787 4.66564C3.84987 2.63964 5.77187 1.18164 8.03087 1.18164C10.3169 1.18164 12.2569 2.67364 12.9279 4.73564C14.6009 5.25964 15.8169 6.82264 15.8169 8.66664C15.8169 10.9406 13.9709 12.7866 11.6969 12.7866L10.7699 12.7846V11.1846L11.6969 11.1866C13.0879 11.1866 14.2169 10.0576 14.2169 8.66664C14.2169 7.42764 13.3209 6.39664 12.1409 6.18764C11.8219 6.13164 11.5689 5.88764 11.4989 5.57064C11.1509 3.97664 9.72887 2.78164 8.03087 2.78164C6.35087 2.78164 4.94087 3.95164 4.57487 5.52064C4.50087 5.83664 4.24387 6.07664 3.92387 6.12864C2.71587 6.32464 1.79287 7.37364 1.79287 8.63564C1.79287 10.0376 2.93187 11.1766 4.33387 11.1766L5.22487 11.1776V12.7776Z" fill="black"/>
</svg>
