<svg width="12" height="12" viewBox="0 0 12 12" fill="none" xmlns="http://www.w3.org/2000/svg">
<path fill-rule="evenodd" clip-rule="evenodd" d="M2.34413 4.30241L1.49353 5.15041C0.783126 5.85741 0.383326 6.81841 0.382326 7.82141C0.381326 8.82441 0.779226 9.78641 1.48823 10.4954L1.48983 10.4964C2.94053 11.9474 5.29173 11.9494 6.74533 10.5024L7.60043 9.65041C7.91323 9.33941 7.91423 8.83241 7.60273 8.51941C7.29113 8.20641 6.78413 8.20541 6.47133 8.51641L5.61633 9.36841C4.78783 10.1934 3.44793 10.1924 2.62123 9.36541L2.61963 9.36441C2.21103 8.95541 1.98173 8.40141 1.98233 7.82341C1.98283 7.24541 2.21323 6.69141 2.62263 6.28341L3.47323 5.43641C3.78613 5.12441 3.78713 4.61741 3.47553 4.30541C3.16393 3.99241 2.65693 3.99141 2.34413 4.30241ZM5.24923 7.88141C5.85753 7.27341 7.25813 5.87241 7.86643 5.26441C8.17863 4.95241 8.17863 4.44541 7.86643 4.13241C7.55423 3.82041 7.04723 3.82041 6.73503 4.13241C6.12673 4.74141 4.72613 6.14141 4.11783 6.75041C3.80563 7.06241 3.80563 7.56941 4.11783 7.88141C4.43003 8.19341 4.93703 8.19341 5.24923 7.88141ZM9.63183 7.70941L10.4824 6.86241C11.1929 6.15441 11.5927 5.19341 11.5937 4.19041C11.5947 3.18841 11.1968 2.22641 10.4877 1.51741L10.4861 1.51541C9.03553 0.0644078 6.68423 0.0624079 5.23063 1.51041L4.37553 2.36141C4.06273 2.67341 4.06173 3.18041 4.37333 3.49341C4.68483 3.80641 5.19183 3.80741 5.50463 3.49541L6.35963 2.64341C7.18813 1.81841 8.52803 1.82041 9.35483 2.64641L9.35633 2.64841C9.76493 3.05741 9.99423 3.61141 9.99373 4.18941C9.99313 4.76741 9.76273 5.32141 9.35333 5.72841L8.50273 6.57641C8.18983 6.88741 8.18883 7.39441 8.50043 7.70741C8.81203 8.02041 9.31903 8.02141 9.63183 7.70941Z" fill="black"/>
</svg>
