<svg width="16" height="16" viewBox="0 0 16 16" fill="none" xmlns="http://www.w3.org/2000/svg">
<path fill-rule="evenodd" clip-rule="evenodd" d="M3.65067 6.18064C3.65067 6.18064 3.18267 6.63064 2.57967 7.22064C1.73967 8.04064 1.26467 9.17064 1.26367 10.3406C1.26267 11.5206 1.73467 12.6406 2.57367 13.4606L2.57567 13.4706C4.27067 15.1306 6.98367 15.1306 8.68267 13.4706C9.31067 12.8606 9.81067 12.3706 9.81067 12.3706C10.1267 12.0606 10.1327 11.5506 9.82467 11.2406C9.51567 10.9206 9.00867 10.9206 8.69267 11.2306C8.69267 11.2306 8.19267 11.7106 7.56467 12.3306C6.48867 13.3806 4.76967 13.3806 3.69567 12.3206H3.69367C3.16267 11.8006 2.86267 11.0906 2.86367 10.3406C2.86467 9.60064 3.16567 8.89064 3.69767 8.37064L4.76867 7.32064C5.08467 7.01064 5.09067 6.50064 4.78167 6.19064C4.47367 5.87064 3.96667 5.87064 3.65067 6.18064ZM6.90667 10.1606C7.66167 9.42064 9.40067 7.71064 10.1557 6.97064C10.4707 6.66064 10.4757 6.15064 10.1667 5.84064C9.85767 5.52064 9.35067 5.52064 9.03567 5.83064C8.28067 6.57064 6.54167 8.27064 5.78567 9.01064C5.47067 9.32064 5.46567 9.83064 5.77467 10.1506C6.08367 10.4606 6.59067 10.4706 6.90667 10.1606ZM12.2827 9.84064C12.2827 9.84064 12.7617 9.37064 13.3737 8.77064C14.2087 7.96064 14.6797 6.84064 14.6807 5.67064C14.6817 4.50064 14.2127 3.39064 13.3797 2.57064H13.3777C11.6947 0.920636 9.00167 0.910636 7.31467 2.56064C6.67567 3.18064 6.16367 3.68064 6.16367 3.68064C5.84867 3.99064 5.84267 4.50064 6.15067 4.82064C6.45967 5.13064 6.96567 5.14064 7.28167 4.83064C7.28167 4.83064 7.79367 4.33064 8.43267 3.70064C9.49667 2.67064 11.1957 2.67064 12.2577 3.71064H12.2597C12.7857 4.23064 13.0817 4.93064 13.0807 5.67064C13.0807 6.41064 12.7827 7.11064 12.2557 7.63064C11.6437 8.23064 11.1647 8.69064 11.1647 8.69064C10.8487 9.00064 10.8427 9.51064 11.1507 9.82064C11.4597 10.1406 11.9667 10.1506 12.2827 9.84064Z" fill="black"/>
</svg>
