<svg width="16" height="16" viewBox="0 0 16 16" fill="none" xmlns="http://www.w3.org/2000/svg">
<path fill-rule="evenodd" clip-rule="evenodd" d="M12.11 12.1007H10.842C10.389 12.1007 10.022 12.5007 10.022 12.9907C10.022 13.4807 10.389 13.8807 10.842 13.8807H12.11V15.1407C12.11 15.6007 12.509 15.9607 13 15.9607C13.491 15.9607 13.89 15.6007 13.89 15.1407V13.8807H15.158C15.611 13.8807 15.978 13.4807 15.978 12.9907C15.978 12.5007 15.611 12.1007 15.158 12.1007H13.89V10.8307C13.89 10.3807 13.491 10.0107 13 10.0107C12.509 10.0107 12.11 10.3807 12.11 10.8307V12.1007ZM3.00204 5.3307C3.00204 5.3307 2.57404 5.7507 2.02304 6.2907C1.23604 7.0607 0.791041 8.1107 0.790041 9.2107C0.789041 10.3107 1.23104 11.3607 2.01704 12.1307H2.01804C3.60004 13.6907 6.13104 13.6907 7.71704 12.1407C8.29704 11.5707 8.76004 11.1207 8.76004 11.1207C9.07604 10.8107 9.08204 10.3107 8.77304 9.9907C8.46504 9.6707 7.95804 9.6707 7.64204 9.9807L6.59904 11.0007C5.63604 11.9407 4.09904 11.9307 3.13804 10.9907C2.66004 10.5207 2.39004 9.8807 2.39004 9.2107C2.39104 8.5407 2.66104 7.9007 3.14104 7.4307L4.12004 6.4707C4.43604 6.1707 4.44204 5.6607 4.13404 5.3407C3.82504 5.0307 3.31804 5.0207 3.00204 5.3307ZM6.08704 9.0807C6.78204 8.4007 8.38204 6.8307 9.07704 6.1507C9.39204 5.8407 9.39704 5.3407 9.08804 5.0207C8.77904 4.7107 8.27204 4.7007 7.95704 5.0107C7.26204 5.6907 5.66204 7.2607 4.96704 7.9407C4.65204 8.2507 4.64704 8.7607 4.95604 9.0707C5.26504 9.3907 5.77204 9.3907 6.08704 9.0807ZM11.033 8.7907L12.032 7.8207C12.814 7.0507 13.256 6.0107 13.257 4.9107C13.258 3.8207 12.818 2.7707 12.038 2.0107L12.036 2.0007C10.466 0.460703 7.95304 0.460703 6.37904 2.0007C5.78904 2.5807 5.31504 3.0407 5.31504 3.0407C4.99904 3.3507 4.99304 3.8507 5.30204 4.1707C5.61004 4.4907 6.11704 4.4907 6.43304 4.1807C6.43304 4.1807 6.90704 3.7207 7.49704 3.1407C8.44804 2.2107 9.96704 2.2207 10.916 3.1507H10.918C11.391 3.6107 11.657 4.2507 11.657 4.9107C11.656 5.5707 11.388 6.2107 10.914 6.6707L9.91604 7.6507C9.60004 7.9507 9.59404 8.4607 9.90204 8.7807C10.211 9.0907 10.718 9.1007 11.033 8.7907Z" fill="black"/>
</svg>
