<svg width="24" height="24" viewBox="0 0 24 24" fill="none" xmlns="http://www.w3.org/2000/svg">
<path fill-rule="evenodd" clip-rule="evenodd" d="M5.99524 9.35055C5.99524 9.35055 5.32124 10.0206 4.46424 10.8806C3.33524 12.0006 2.70024 13.5306 2.69824 15.1206C2.69724 16.7106 3.32924 18.2406 4.45624 19.3706L4.53524 19.4506C6.87424 21.7906 10.6672 21.7906 13.0112 19.4606C13.8372 18.6306 14.4812 17.9906 14.4812 17.9906C14.8722 17.6006 14.8732 16.9706 14.4842 16.5806C14.0942 16.1906 13.4612 16.1906 13.0702 16.5806C13.0702 16.5806 12.4262 17.2206 11.6002 18.0406C10.0372 19.6006 7.50924 19.5906 5.94924 18.0306L5.87024 17.9506C5.11924 17.2006 4.69724 16.1806 4.69824 15.1206C4.69924 14.0606 5.12324 13.0406 5.87624 12.2906C6.73224 11.4406 7.40624 10.7706 7.40624 10.7706C7.79724 10.3806 7.79824 9.74055 7.40924 9.35055C7.01924 8.96056 6.38624 8.96056 5.99524 9.35055ZM10.4502 14.9606C11.4932 13.9206 13.8942 11.5206 14.9372 10.4706C15.3272 10.0806 15.3272 9.45055 14.9372 9.06055C14.5462 8.67056 13.9132 8.67056 13.5222 9.06055C12.4802 10.1006 10.0782 12.5006 9.03624 13.5506C8.64524 13.9406 8.64524 14.5706 9.03624 14.9606C9.42624 15.3506 10.0602 15.3506 10.4502 14.9606ZM17.9632 14.6706C17.9632 14.6706 18.6372 13.9906 19.4942 13.1406C20.6232 12.0206 21.2582 10.4906 21.2602 8.90055C21.2612 7.30055 20.6292 5.77056 19.5022 4.65055L19.4232 4.57055C17.0842 2.23055 13.2912 2.22055 10.9472 4.56055C10.1212 5.38055 9.47724 6.02055 9.47724 6.02055C9.08624 6.41055 9.08524 7.05056 9.47424 7.44056C9.86424 7.83055 10.4972 7.83055 10.8882 7.44056C10.8882 7.44056 11.5322 6.80055 12.3582 5.98055C13.9212 4.42055 16.4492 4.42055 18.0092 5.98055L18.0882 6.06055C18.8392 6.81055 19.2612 7.83055 19.2602 8.89055C19.2592 9.96056 18.8352 10.9706 18.0822 11.7206C17.2262 12.5806 16.5522 13.2506 16.5522 13.2506C16.1612 13.6406 16.1602 14.2706 16.5492 14.6606C16.9392 15.0506 17.5722 15.0506 17.9632 14.6706Z" fill="black"/>
</svg>
