<svg width="16" height="16" viewBox="0 0 16 16" fill="none" xmlns="http://www.w3.org/2000/svg">
<path fill-rule="evenodd" clip-rule="evenodd" d="M11.9979 7.02938C9.80994 7.02938 8.03394 8.80938 8.03394 10.9994C8.03394 13.1894 9.80994 14.9694 11.9979 14.9694C14.1849 14.9694 15.9609 13.1894 15.9609 10.9994C15.9609 8.80938 14.1849 7.02938 11.9979 7.02938ZM6.87194 8.48938C6.62394 8.97937 6.44794 9.51938 6.35794 10.0894H4.26494C2.82894 10.0894 1.66494 11.2494 1.66494 12.6894C1.66494 12.8294 1.71894 12.9494 1.81394 13.0494C1.90994 13.1494 2.03994 13.1994 2.17494 13.1994H6.72494C6.97194 13.7894 7.31594 14.3294 7.73994 14.7994H2.17494C1.61494 14.7994 1.07894 14.5794 0.682941 14.1794C0.286941 13.7894 0.0649414 13.2494 0.0649414 12.6894C0.0649414 10.3694 1.94494 8.48938 4.26494 8.48938H6.87194ZM14.1869 9.86938C14.3629 10.2094 14.4609 10.5894 14.4609 10.9994C14.4609 12.3594 13.3569 13.4694 11.9979 13.4694C11.5909 13.4694 11.2079 13.3694 10.8709 13.1894L14.1869 9.86938ZM13.1289 8.80938L9.80994 12.1294C9.63294 11.7894 9.53394 11.4094 9.53394 10.9994C9.53394 9.63938 10.6379 8.52938 11.9979 8.52938C12.4059 8.52938 12.7899 8.62938 13.1289 8.80938ZM5.99494 1.60938C4.40194 1.60938 3.10894 2.89938 3.10894 4.49938C3.10894 6.08938 4.40194 7.38938 5.99494 7.38938C7.58694 7.38938 8.88094 6.08938 8.88094 4.49938C8.88094 2.89938 7.58694 1.60938 5.99494 1.60938ZM5.99494 3.20938C6.70494 3.20938 7.28094 3.78937 7.28094 4.49937C7.28094 5.20937 6.70494 5.78937 5.99494 5.78937C5.28394 5.78937 4.70894 5.20937 4.70894 4.49937C4.70894 3.78937 5.28394 3.20938 5.99494 3.20938Z" fill="black"/>
</svg>
