<svg width="16" height="16" viewBox="0 0 16 16" fill="none" xmlns="http://www.w3.org/2000/svg">
<path fill-rule="evenodd" clip-rule="evenodd" d="M6.14824 8.48938C3.82824 8.48938 1.94824 10.3694 1.94824 12.6894C1.94824 13.2494 2.17024 13.7894 2.56624 14.1794C2.96224 14.5794 3.49824 14.7994 4.05824 14.7994C6.07724 14.7994 9.92824 14.7994 11.9482 14.7994C12.5072 14.7994 13.0442 14.5794 13.4402 14.1794C13.8362 13.7894 14.0582 13.2494 14.0582 12.6894C14.0582 10.3694 12.1772 8.48938 9.85824 8.48938H6.14824ZM6.14824 10.0894H9.85824C11.2942 10.0894 12.4582 11.2494 12.4582 12.6894C12.4582 12.8294 12.4042 12.9494 12.3082 13.0494C12.2132 13.1494 12.0832 13.1994 11.9482 13.1994H4.05824C3.92324 13.1994 3.79324 13.1494 3.69724 13.0494C3.60224 12.9494 3.54824 12.8294 3.54824 12.6894C3.54824 11.2494 4.71224 10.0894 6.14824 10.0894ZM7.99524 1.60938C6.40224 1.60938 5.10924 2.89938 5.10924 4.49938C5.10924 6.08938 6.40224 7.38938 7.99524 7.38938C9.58724 7.38938 10.8812 6.08938 10.8812 4.49938C10.8812 2.89938 9.58724 1.60938 7.99524 1.60938ZM7.99524 3.20938C8.70524 3.20938 9.28124 3.78937 9.28124 4.49937C9.28124 5.20937 8.70524 5.78937 7.99524 5.78937C7.28424 5.78937 6.70924 5.20937 6.70924 4.49937C6.70924 3.78937 7.28424 3.20938 7.99524 3.20938Z" fill="black"/>
</svg>
