<svg width="24" height="24" viewBox="0 0 24 24" fill="none" xmlns="http://www.w3.org/2000/svg">
<path fill-rule="evenodd" clip-rule="evenodd" d="M6 3C4.674 3 3.402 3.53 2.464 4.46C1.527 5.4 1 6.67 1 8C1 10.44 1 13.54 1 15.97C1 17.3 1.527 18.57 2.464 19.51C3.402 20.44 4.674 20.97 6 20.97C9.486 20.97 14.514 20.97 18 20.97C19.326 20.97 20.598 20.44 21.536 19.51C22.473 18.57 23 17.3 23 15.97C23 13.54 23 10.44 23 8C23 6.67 22.473 5.4 21.536 4.46C20.598 3.53 19.326 3 18 3C14.514 3 9.486 3 6 3ZM11.076 18.97H6C5.296 18.97 4.618 18.72 4.081 18.28C4.246 17.79 4.523 17.34 4.894 16.97C5.531 16.33 6.394 15.97 7.294 15.97H7.706C8.606 15.97 9.469 16.33 10.106 16.97C10.648 17.51 10.988 18.22 11.076 18.97ZM12.885 18.97C12.79 17.74 12.259 16.58 11.379 15.7C10.405 14.72 9.084 14.17 7.706 14.17H7.294C5.916 14.17 4.595 14.72 3.621 15.7C3.403 15.91 3.205 16.15 3.031 16.4C3.01 16.26 3 16.12 3 15.97V8C3 7.2 3.316 6.44 3.879 5.88C4.441 5.32 5.204 5 6 5C9.486 5 14.514 5 18 5C18.796 5 19.559 5.32 20.121 5.88C20.684 6.44 21 7.2 21 8V15.97C21 16.77 20.684 17.53 20.121 18.09C19.559 18.66 18.796 18.97 18 18.97H12.885ZM14.047 14.9H18.047C18.544 14.9 18.947 14.5 18.947 14C18.947 13.5 18.544 13.1 18.047 13.1H14.047C13.55 13.1 13.147 13.5 13.147 14C13.147 14.5 13.55 14.9 14.047 14.9ZM7.497 7.45C5.816 7.45 4.45 8.82 4.45 10.5C4.45 12.18 5.816 13.55 7.497 13.55C9.178 13.55 10.543 12.18 10.543 10.5C10.543 8.82 9.178 7.45 7.497 7.45ZM7.497 9.25C8.185 9.25 8.743 9.81 8.743 10.5C8.743 11.19 8.185 11.75 7.497 11.75C6.808 11.75 6.25 11.19 6.25 10.5C6.25 9.81 6.808 9.25 7.497 9.25ZM14.047 10.9H18.047C18.544 10.9 18.947 10.5 18.947 10C18.947 9.5 18.544 9.1 18.047 9.1H14.047C13.55 9.1 13.147 9.5 13.147 10C13.147 10.5 13.55 10.9 14.047 10.9Z" fill="black"/>
</svg>
