<svg width="12" height="12" viewBox="0 0 12 12" fill="none" xmlns="http://www.w3.org/2000/svg">
<path fill-rule="evenodd" clip-rule="evenodd" d="M6.55012 10.7319C6.46812 10.7439 6.38422 10.7499 6.29902 10.7499H1.78662C0.820121 10.7499 0.0366211 9.96594 0.0366211 8.99994V8.14594C0.0366211 6.27294 1.55512 4.75394 3.42832 4.75394H4.65722C5.51702 4.75394 6.30212 5.07394 6.90002 5.60094C7.33262 5.39494 7.80952 5.28494 8.29782 5.28494H8.68692C9.54842 5.28494 10.3746 5.62694 10.9838 6.23694C11.5929 6.84594 11.9352 7.67194 11.9352 8.53294C11.9352 8.69494 11.9352 8.85294 11.9352 8.99994C11.9352 9.46394 11.7508 9.90894 11.4226 10.2369C11.0944 10.5659 10.6493 10.7499 10.1852 10.7499C9.21952 10.7499 7.76522 10.7499 6.79962 10.7499C6.71562 10.7499 6.63222 10.7439 6.55012 10.7319ZM8.03122 9.24994H10.1852C10.2515 9.24994 10.3151 9.22394 10.3619 9.17694C10.4088 9.12994 10.4352 9.06594 10.4352 8.99994V8.53294C10.4352 8.06994 10.251 7.62494 9.92312 7.29694C9.59532 6.96894 9.15062 6.78494 8.68692 6.78494H8.29782C8.12642 6.78494 7.95752 6.80994 7.79622 6.85894C7.95912 7.25594 8.04902 7.68994 8.04902 8.14594V8.99994C8.04902 9.08494 8.04292 9.16794 8.03122 9.24994ZM3.42832 6.25394H4.65722C5.70202 6.25394 6.54892 7.10094 6.54902 8.14594V8.99994C6.54892 9.13794 6.43702 9.24994 6.29902 9.24994H1.78662C1.64852 9.24994 1.53662 9.13794 1.53662 8.99994V8.14594C1.53662 7.10094 2.38362 6.25394 3.42832 6.25394ZM8.49202 1.04494C7.46542 1.04494 6.63132 1.87894 6.63132 2.90794C6.63132 3.93694 7.46542 4.77094 8.49202 4.77094C9.51852 4.77094 10.3527 3.93694 10.3527 2.90794C10.3527 1.87894 9.51852 1.04494 8.49202 1.04494ZM3.98172 0.460938C2.86692 0.460938 1.96102 1.36694 1.96102 2.48494C1.96102 3.60194 2.86692 4.50794 3.98172 4.50794C5.09652 4.50794 6.00242 3.60194 6.00242 2.48494C6.00242 1.36694 5.09652 0.460938 3.98172 0.460938ZM8.49202 2.44494C8.74672 2.44494 8.95272 2.65294 8.95272 2.90794C8.95272 3.16294 8.74672 3.37094 8.49202 3.37094C8.23732 3.37094 8.03132 3.16294 8.03132 2.90794C8.03132 2.65294 8.23732 2.44494 8.49202 2.44494ZM3.98172 1.96094C4.26952 1.96094 4.50242 2.19594 4.50242 2.48494C4.50242 2.77294 4.26952 3.00794 3.98172 3.00794C3.69392 3.00794 3.46102 2.77294 3.46102 2.48494C3.46102 2.19594 3.69392 1.96094 3.98172 1.96094Z" fill="black"/>
</svg>
