<svg width="12" height="12" viewBox="0 0 12 12" fill="none" xmlns="http://www.w3.org/2000/svg">
<path fill-rule="evenodd" clip-rule="evenodd" d="M7.5151 6.19922H4.46C2.3765 6.19922 0.6875 7.88822 0.6875 9.97122V9.99922C0.6875 10.9932 1.4934 11.7992 2.4875 11.7992C4.2191 11.7992 7.756 11.7992 9.4875 11.7992C10.4816 11.7992 11.2875 10.9932 11.2875 9.99922V9.97122C11.2875 7.88822 9.5986 6.19922 7.5151 6.19922ZM4.46 7.79922H7.5151C8.7149 7.79922 9.6875 8.77222 9.6875 9.97122V9.99922C9.6875 10.1092 9.598 10.1992 9.4875 10.1992H2.4875C2.3771 10.1992 2.2876 10.1092 2.2875 9.99922V9.97122C2.2875 8.77222 3.2601 7.79922 4.46 7.79922ZM6.007 0.199219C4.5586 0.199219 3.3819 1.37722 3.3819 2.82822C3.3819 4.28022 4.5586 5.45722 6.007 5.45722C7.4554 5.45722 8.6322 4.28022 8.6322 2.82822C8.6322 1.37722 7.4554 0.199219 6.007 0.199219ZM6.007 1.79922C6.5733 1.79922 7.0322 2.26122 7.0322 2.82822C7.0322 3.39622 6.5733 3.85722 6.007 3.85722C5.4407 3.85722 4.9819 3.39622 4.9819 2.82822C4.9819 2.26122 5.4407 1.79922 6.007 1.79922Z" fill="black"/>
</svg>
