<svg width="24" height="24" viewBox="0 0 24 24" fill="none" xmlns="http://www.w3.org/2000/svg">
<path fill-rule="evenodd" clip-rule="evenodd" d="M20.938 20.9997H3.45596C2.66196 20.9997 1.89996 20.6797 1.33796 20.1197C0.775961 19.5597 0.459961 18.7997 0.459961 17.9997C0.459961 16.4097 1.09196 14.8897 2.21596 13.7597C3.34096 12.6397 4.86596 12.0097 6.45596 12.0097H10.771C11.995 12.0097 13.182 12.3797 14.175 13.0697H17.876C19.333 13.0697 20.73 13.6497 21.761 14.6797C22.791 15.7097 23.37 17.1097 23.37 18.5597V18.5697C23.37 19.9097 22.281 20.9997 20.938 20.9997ZM6.45596 14.0097H10.771C11.83 14.0097 12.847 14.4297 13.596 15.1797C14.346 15.9297 14.767 16.9397 14.767 17.9997C14.767 18.2697 14.662 18.5197 14.475 18.7097C14.288 18.8997 14.035 18.9997 13.771 18.9997H3.45596C3.19196 18.9997 2.93896 18.8997 2.75196 18.7097C2.56496 18.5197 2.45996 18.2697 2.45996 17.9997C2.45996 16.9397 2.88096 15.9297 3.63096 15.1797C4.37996 14.4297 5.39596 14.0097 6.45596 14.0097ZM15.998 15.0697C16.498 15.9597 16.767 16.9697 16.767 17.9997C16.767 18.3497 16.708 18.6897 16.592 18.9997H20.938C21.177 18.9997 21.37 18.8097 21.37 18.5697V18.5597C21.37 17.6397 21.002 16.7497 20.347 16.0897C19.691 15.4397 18.803 15.0697 17.876 15.0697H15.998ZM16.013 4.84969C14.15 4.84969 12.637 6.36969 12.637 8.22969C12.637 10.0997 14.15 11.6097 16.013 11.6097C17.875 11.6097 19.388 10.0997 19.388 8.22969C19.388 6.36969 17.875 4.84969 16.013 4.84969ZM8.48296 2.67969C6.40696 2.67969 4.71996 4.36969 4.71996 6.44969C4.71996 8.52969 6.40696 10.2197 8.48296 10.2197C10.559 10.2197 12.246 8.52969 12.246 6.44969C12.246 4.36969 10.559 2.67969 8.48296 2.67969ZM16.013 6.84969C16.772 6.84969 17.388 7.46969 17.388 8.22969C17.388 8.98969 16.772 9.60969 16.013 9.60969C15.253 9.60969 14.637 8.98969 14.637 8.22969C14.637 7.46969 15.253 6.84969 16.013 6.84969ZM8.48296 4.67969C9.45696 4.67969 10.246 5.47969 10.246 6.44969C10.246 7.42969 9.45696 8.21969 8.48296 8.21969C7.50896 8.21969 6.71996 7.42969 6.71996 6.44969C6.71996 5.47969 7.50896 4.67969 8.48296 4.67969Z" fill="black"/>
</svg>
