<svg width="24" height="24" viewBox="0 0 24 24" fill="none" xmlns="http://www.w3.org/2000/svg">
<path fill-rule="evenodd" clip-rule="evenodd" d="M18.0131 11.36C14.9291 11.36 12.4251 13.87 12.4251 16.95C12.4251 20.04 14.9291 22.54 18.0131 22.54C21.0961 22.54 23.6001 20.04 23.6001 16.95C23.6001 13.87 21.0961 11.36 18.0131 11.36ZM11.8891 12.47C11.4461 13.08 11.0901 13.75 10.8421 14.47H7.03309C4.95409 14.47 3.26809 16.16 3.26709 18.24C3.26709 18.44 3.34709 18.64 3.48909 18.78C3.63209 18.92 3.82409 19 4.02509 19H10.7071C10.9071 19.72 11.2091 20.39 11.5971 21H4.02509C3.29409 21 2.59209 20.71 2.07509 20.19C1.55809 19.67 1.26709 18.97 1.26709 18.24C1.26709 15.06 3.84909 12.47 7.03309 12.47H11.8891ZM21.1921 15.29C21.4531 15.79 21.6001 16.35 21.6001 16.95C21.6001 18.93 19.9931 20.54 18.0131 20.54C17.4121 20.54 16.8461 20.39 16.3481 20.13L21.1921 15.29ZM19.9841 13.95L15.0141 18.92C14.6421 18.36 14.4251 17.68 14.4251 16.95C14.4251 14.97 16.0321 13.36 18.0131 13.36C18.7401 13.36 19.4181 13.58 19.9841 13.95ZM9.56409 3C7.36709 3 5.58209 4.79 5.58209 6.99C5.58209 9.19 7.36709 10.98 9.56409 10.98C11.7621 10.98 13.5471 9.19 13.5471 6.99C13.5471 4.79 11.7621 3 9.56409 3ZM9.56409 5C10.6591 5 11.5471 5.89 11.5471 6.99C11.5471 8.09 10.6591 8.98 9.56409 8.98C8.46909 8.98 7.58209 8.09 7.58209 6.99C7.58209 5.89 8.46909 5 9.56409 5Z" fill="black"/>
</svg>
