<svg width="24" height="24" viewBox="0 0 24 24" fill="none" xmlns="http://www.w3.org/2000/svg">
<g clip-path="url(#clip0_28235_2605)">
<path fill-rule="evenodd" clip-rule="evenodd" d="M5.82703 20.108H3.10706C2.33706 20.108 1.59713 19.8081 1.05713 19.2581C0.517129 18.7181 0.207031 17.9781 0.207031 17.2081V16.0781C0.207031 13.7481 2.09713 11.858 4.42713 11.858H5.78712C6.35712 11.858 6.8971 11.968 7.3971 12.178C8.42711 11.348 9.72711 10.858 11.1471 10.858H13.1171C14.1071 10.858 15.0271 11.0881 15.8471 11.5081C15.2071 11.5881 14.5971 11.868 14.1071 12.358C13.9471 12.518 13.797 12.6981 13.687 12.8881C13.497 12.8681 13.3171 12.858 13.1171 12.858H11.1471C8.94711 12.858 7.1471 14.648 7.1471 16.858V18.218C7.1471 18.768 7.5971 19.218 8.14711 19.218H13.5071C13.2171 19.848 13.157 20.558 13.327 21.218H8.14711C7.2071 21.218 6.37703 20.788 5.82703 20.108ZM6.06702 13.678C5.97702 13.668 5.87712 13.658 5.78712 13.658H4.42713C3.08713 13.658 2.00708 14.7381 2.00708 16.0781V17.2081C2.00708 17.4981 2.12703 17.778 2.32703 17.988C2.53703 18.198 2.81706 18.308 3.10706 18.308H5.15711C5.14711 18.278 5.1471 18.248 5.1471 18.218V16.858C5.1471 15.688 5.48702 14.598 6.06702 13.678Z" fill="black"/>
<path d="M17.7471 17.478L15.4871 15.218C15.0771 14.808 15.0771 14.148 15.4871 13.738C15.8971 13.328 16.5671 13.328 16.9671 13.738L19.2271 15.998L21.4871 13.738C21.8971 13.328 22.5571 13.328 22.9671 13.738C23.3771 14.148 23.3771 14.808 22.9671 15.218L20.7171 17.478L22.9671 19.738C23.3771 20.148 23.3771 20.808 22.9671 21.218C22.5571 21.628 21.8971 21.628 21.4871 21.218L19.2271 18.968L16.9671 21.218C16.5671 21.628 15.8971 21.628 15.4871 21.218C15.0771 20.808 15.0771 20.148 15.4871 19.738L17.7471 17.478Z" fill="black"/>
<path fill-rule="evenodd" clip-rule="evenodd" d="M5.15711 5.39807C6.68711 5.39807 7.93702 6.63804 7.93702 8.17804C7.93702 9.70804 6.68711 10.9581 5.15711 10.9581C3.62711 10.9581 2.37708 9.70804 2.37708 8.17804C2.37708 6.63804 3.62711 5.39807 5.15711 5.39807ZM5.15711 7.19806C4.61711 7.19806 4.17713 7.63804 4.17713 8.17804C4.17713 8.71804 4.61711 9.15802 5.15711 9.15802C5.69711 9.15802 6.13709 8.71804 6.13709 8.17804C6.13709 7.63804 5.69711 7.19806 5.15711 7.19806Z" fill="black"/>
<path fill-rule="evenodd" clip-rule="evenodd" d="M12.1671 2.49805C14.0471 2.49805 15.567 4.01807 15.567 5.89807C15.567 7.77807 14.0471 9.30805 12.1671 9.30805C10.2871 9.30805 8.7671 7.77807 8.7671 5.89807C8.7671 4.01807 10.2871 2.49805 12.1671 2.49805ZM12.1671 4.49805C11.3971 4.49805 10.7671 5.12807 10.7671 5.89807C10.7671 6.67807 11.3971 7.30804 12.1671 7.30804C12.9371 7.30804 13.567 6.67807 13.567 5.89807C13.567 5.12807 12.9371 4.49805 12.1671 4.49805Z" fill="black"/>
</g>
<defs>
<clipPath id="clip0_28235_2605">
<rect width="24" height="24" fill="white"/>
</clipPath>
</defs>
</svg>
