<svg width="16" height="16" viewBox="0 0 16 16" fill="none" xmlns="http://www.w3.org/2000/svg">
<path fill-rule="evenodd" clip-rule="evenodd" d="M4.27422 8.48938C3.16022 8.48938 2.09222 8.92938 1.30422 9.71938C0.517219 10.5094 0.0742188 11.5694 0.0742188 12.6894C0.0742188 13.2494 0.296219 13.7894 0.692219 14.1794C1.08822 14.5794 1.62422 14.7994 2.18422 14.7994C4.15322 14.7994 7.85322 14.7994 9.82222 14.7994C10.3812 14.7994 10.9182 14.5794 11.3142 14.1794C11.7092 13.7894 11.9322 13.2494 11.9322 12.6894C11.9322 11.5694 11.4892 10.5094 10.7022 9.71938C9.91422 8.92938 8.84622 8.48938 7.73222 8.48938H4.27422ZM4.27422 10.0894H7.73222C8.42122 10.0894 9.08322 10.3594 9.57022 10.8494C10.0582 11.3394 10.3322 11.9994 10.3322 12.6894C10.3322 12.8294 10.2782 12.9494 10.1822 13.0494C10.0872 13.1494 9.95722 13.1994 9.82222 13.1994H2.18422C2.04922 13.1994 1.91922 13.1494 1.82322 13.0494C1.72822 12.9494 1.67422 12.8294 1.67422 12.6894C1.67422 11.9994 1.94822 11.3394 2.43622 10.8494C2.92322 10.3594 3.58422 10.0894 4.27422 10.0894ZM12.2192 5.25938H10.8022C10.3712 5.25938 10.0212 5.58937 10.0212 5.99937C10.0212 6.40937 10.3712 6.73938 10.8022 6.73938H12.2192V8.07937C12.2192 8.47937 12.5692 8.80937 13.0002 8.80937C13.4312 8.80937 13.7812 8.47937 13.7812 8.07937V6.73938H15.1982C15.6292 6.73938 15.9792 6.40937 15.9792 5.99937C15.9792 5.58937 15.6292 5.25938 15.1982 5.25938H13.7812V3.91937C13.7812 3.51937 13.4312 3.18938 13.0002 3.18938C12.5692 3.18938 12.2192 3.51937 12.2192 3.91937V5.25938ZM5.99522 1.60938C4.40222 1.60938 3.10922 2.89938 3.10922 4.49938C3.10922 6.08938 4.40222 7.38938 5.99522 7.38938C7.58722 7.38938 8.88122 6.08938 8.88122 4.49938C8.88122 2.89938 7.58722 1.60938 5.99522 1.60938ZM5.99522 3.20938C6.70522 3.20938 7.28122 3.78937 7.28122 4.49937C7.28122 5.20937 6.70522 5.78937 5.99522 5.78937C5.28422 5.78937 4.70922 5.20937 4.70922 4.49937C4.70922 3.78937 5.28422 3.20938 5.99522 3.20938Z" fill="black"/>
</svg>
