<svg width="16" height="16" viewBox="0 0 16 16" fill="none" xmlns="http://www.w3.org/2000/svg">
<path fill-rule="evenodd" clip-rule="evenodd" d="M7.58614 8.35912C6.92764 8.62662 6.46334 9.27282 6.46334 10.0274V13.0038C6.46334 14.5502 7.71694 15.8038 9.26334 15.8038C10.3308 15.8038 11.6407 15.8038 12.7082 15.8038C14.2546 15.8038 15.5082 14.5502 15.5082 13.0038V10.0274C15.5082 9.26612 15.0356 8.61522 14.3676 8.35202C14.7501 7.79512 14.7893 7.08622 14.4285 6.49832C13.9128 5.65802 12.7821 5.46952 11.9625 5.97322C11.6077 6.19132 11.2689 6.62442 10.9744 7.14062C10.68 6.62442 10.3411 6.19132 9.98644 5.97322C9.16684 5.46952 8.03604 5.65802 7.52044 6.49832C7.15814 7.08872 7.19914 7.80102 7.58614 8.35912ZM10.2121 9.82742V14.2038H9.26334C8.60054 14.2038 8.06334 13.6665 8.06334 13.0038V10.0274C8.06334 9.91692 8.15284 9.82742 8.26324 9.82742H10.2121ZM11.8121 9.82742H13.7082C13.8187 9.82742 13.9082 9.91692 13.9082 10.0274V13.0038C13.9082 13.6665 13.3709 14.2038 12.7082 14.2038H11.8121V9.82742ZM5.72634 7.48792C5.72654 7.55972 5.72934 7.63142 5.73454 7.70282C5.36974 8.09972 5.10784 8.57532 4.96604 9.08792H4.26494C2.82904 9.08792 1.66494 10.252 1.66494 11.688V11.6894C1.66494 11.8247 1.71864 11.9544 1.81434 12.05C1.90994 12.1457 2.03964 12.1994 2.17494 12.1994H4.84364V13.0796C4.84364 13.3247 4.86394 13.5652 4.90304 13.7994H2.17494C1.61534 13.7994 1.07864 13.5771 0.682941 13.1814C0.287241 12.7857 0.0649414 12.249 0.0649414 11.6894V11.6879C0.0649414 9.36832 1.94534 7.48792 4.26494 7.48792H5.72634ZM11.8997 8.04412C11.997 7.84362 12.1019 7.65312 12.2139 7.48412C12.3409 7.29252 12.4699 7.12862 12.617 7.03812C12.8624 6.88742 13.2087 6.90062 13.3631 7.15212C13.5103 7.39202 13.3786 7.68332 13.1204 7.84822C12.8644 8.01182 12.4497 8.06292 11.8997 8.04412ZM10.0491 8.04402C9.49914 8.06292 9.08444 8.01182 8.82844 7.84822C8.57024 7.68332 8.43854 7.39202 8.58584 7.15212C8.74014 6.90062 9.08654 6.88742 9.33194 7.03812C9.47904 7.12862 9.60804 7.29252 9.73504 7.48412C9.84704 7.65312 9.95184 7.84362 10.0491 8.04402ZM5.92124 6.38732C6.00554 6.15822 6.11734 5.93402 6.25724 5.71832C6.82474 4.84362 7.78034 4.33282 8.78514 4.23702C8.84744 4.00112 8.88064 3.75332 8.88064 3.49782C8.88064 1.90212 7.58704 0.607422 5.99474 0.607422C4.40244 0.607422 3.10884 1.90212 3.10884 3.49782C3.10884 5.06902 4.36294 6.34832 5.92124 6.38732ZM5.99474 2.20742C6.70494 2.20742 7.28064 2.78612 7.28064 3.49782C7.28064 4.20962 6.70494 4.78832 5.99474 4.78832C5.28454 4.78832 4.70884 4.20962 4.70884 3.49782C4.70884 2.78612 5.28454 2.20742 5.99474 2.20742Z" fill="black"/>
</svg>
