<svg width="16" height="16" viewBox="0 0 16 16" fill="none" xmlns="http://www.w3.org/2000/svg">
<path fill-rule="evenodd" clip-rule="evenodd" d="M3.11987 14.2116H1.83984C0.869844 14.2116 0.0898438 13.4316 0.0898438 12.4616V11.8017C0.0898438 11.0317 0.389819 10.2817 0.939819 9.73166C1.49982 9.18166 2.2399 8.87155 3.0199 8.87155C3.5399 8.87155 4.03986 9.01169 4.47986 9.26169C5.22986 8.60169 6.20992 8.20163 7.28992 8.20163H8.75989C9.18989 8.20163 9.6199 8.27157 10.0199 8.39157C9.6899 8.50157 9.37986 8.69164 9.10986 8.96164C8.86986 9.20164 8.67982 9.49172 8.56982 9.80172H7.28992C5.80992 9.80172 4.60986 11.0016 4.60986 12.4816V13.5217C4.60986 13.7017 4.67994 13.8717 4.80994 14.0017C4.93994 14.1317 5.10992 14.2016 5.28992 14.2016H8.46985C8.34985 14.7316 8.40991 15.3017 8.65991 15.8017H5.28992C4.68992 15.8017 4.10993 15.5615 3.67993 15.1315C3.41993 14.8715 3.22987 14.5616 3.11987 14.2116ZM3.56982 10.3715C3.38982 10.3115 3.2099 10.2717 3.0199 10.2717C2.6099 10.2717 2.21993 10.4316 1.92993 10.7216C1.64993 11.0116 1.48987 11.4017 1.48987 11.8017V12.4616C1.48987 12.6516 1.63984 12.8117 1.83984 12.8117H3.00989V12.4816C3.00989 11.7116 3.20982 10.9915 3.56982 10.3715Z" fill="black"/>
<path d="M11.7198 12.7016L10.2499 11.2216C9.92988 10.9116 9.92988 10.4015 10.2499 10.0915C10.5599 9.78152 11.0699 9.78152 11.3799 10.0915L12.8499 11.5717L14.3298 10.0915C14.6398 9.78152 15.1498 9.78152 15.4598 10.0915C15.7698 10.4015 15.7698 10.9116 15.4598 11.2216L13.9899 12.7016L15.4598 14.1716C15.7698 14.4816 15.7698 14.9917 15.4598 15.3017C15.1498 15.6217 14.6398 15.6217 14.3298 15.3017L12.8499 13.8315L11.3799 15.3017C11.0699 15.6217 10.5599 15.6217 10.2499 15.3017C9.92988 14.9917 9.92988 14.4816 10.2499 14.1716L11.7198 12.7016Z" fill="black"/>
<path fill-rule="evenodd" clip-rule="evenodd" d="M8.00989 1.26172C9.48989 1.26172 10.6998 2.47167 10.6998 3.96166C10.6998 5.45165 9.48989 6.65159 8.00989 6.65159C6.51989 6.65159 5.30994 5.45165 5.30994 3.96166C5.30994 2.47167 6.51989 1.26172 8.00989 1.26172ZM8.00989 2.86157C7.39989 2.86157 6.90991 3.36166 6.90991 3.96166C6.90991 4.56166 7.39989 5.06175 8.00989 5.06175C8.60989 5.06175 9.09985 4.56166 9.09985 3.96166C9.09985 3.36166 8.60989 2.86157 8.00989 2.86157Z" fill="black"/>
<path fill-rule="evenodd" clip-rule="evenodd" d="M2.98987 3.30175C4.19987 3.30175 5.17993 4.2817 5.17993 5.50169C5.17993 6.71169 4.19987 7.70163 2.98987 7.70163C1.77987 7.70163 0.789917 6.71169 0.789917 5.50169C0.789917 4.2817 1.77987 3.30175 2.98987 3.30175ZM2.98987 4.70165C2.54987 4.70165 2.18982 5.06169 2.18982 5.50169C2.18982 5.94169 2.54987 6.30174 2.98987 6.30174C3.42987 6.30174 3.78992 5.94169 3.78992 5.50169C3.78992 5.06169 3.42987 4.70165 2.98987 4.70165Z" fill="black"/>
</svg>
