<svg width="24" height="24" viewBox="0 0 24 24" fill="none" xmlns="http://www.w3.org/2000/svg">
<path fill-rule="evenodd" clip-rule="evenodd" d="M7.2851 11.9593C8.3131 11.1293 9.6201 10.6293 11.0441 10.6293C11.6961 10.6293 12.3631 10.6293 13.0151 10.6293C14.4291 10.6293 15.7291 11.1193 16.7541 11.9393C17.2371 11.7393 17.7651 11.6393 18.3171 11.6393H19.6831C22.0121 11.6393 23.9001 13.5293 23.9001 15.8593V16.9893C23.9001 17.7593 23.5941 18.4993 23.0511 19.0393C22.5071 19.5793 21.7691 19.8893 21.0001 19.8893H18.3441C17.7941 20.5693 16.9551 20.9993 16.0151 20.9993C13.8021 20.9993 10.2571 20.9993 8.0441 20.9993C7.1041 20.9993 6.2651 20.5693 5.7151 19.8893H3.0001C2.2311 19.8893 1.4931 19.5793 0.949098 19.0393C0.406098 18.4993 0.100098 17.7593 0.100098 16.9893V15.8593C0.100098 13.5293 1.9881 11.6393 4.3171 11.6393H5.6831C6.2501 11.6393 6.7911 11.7493 7.2851 11.9593ZM11.0441 12.6293H13.0151C15.2241 12.6293 17.0151 14.4193 17.0151 16.6293V17.9993C17.0151 18.5493 16.5671 18.9993 16.0151 18.9993H8.0441C7.4921 18.9993 7.0441 18.5493 7.0441 17.9993V16.6293C7.0441 14.4193 8.8351 12.6293 11.0441 12.6293ZM5.9551 13.4593C5.8661 13.4393 5.7751 13.4393 5.6831 13.4393H4.3171C2.9821 13.4393 1.9001 14.5193 1.9001 15.8593V16.9893C1.9001 17.2793 2.0161 17.5593 2.2221 17.7693C2.4281 17.9693 2.7081 18.0893 3.0001 18.0893H5.0461L5.0441 17.9993V16.6293C5.0441 15.4593 5.3771 14.3793 5.9551 13.4593ZM19.0121 18.0893H21.0001C21.2921 18.0893 21.5721 17.9693 21.7781 17.7693C21.9841 17.5593 22.1001 17.2793 22.1001 16.9893V15.8593C22.1001 14.5193 21.0181 13.4393 19.6831 13.4393H18.3171C18.2441 13.4393 18.1721 13.4393 18.1001 13.4493C18.6801 14.3693 19.0151 15.4593 19.0151 16.6293V17.9993L19.0121 18.0893ZM19.0511 5.1693C17.5191 5.1693 16.2741 6.4193 16.2741 7.9593C16.2741 9.4893 17.5191 10.7393 19.0511 10.7393C20.5841 10.7393 21.8291 9.4893 21.8291 7.9593C21.8291 6.4193 20.5841 5.1693 19.0511 5.1693ZM5.0511 5.1693C3.5191 5.1693 2.2741 6.4193 2.2741 7.9593C2.2741 9.4893 3.5191 10.7393 5.0511 10.7393C6.5841 10.7393 7.8291 9.4893 7.8291 7.9593C7.8291 6.4193 6.5841 5.1693 5.0511 5.1693ZM12.0591 2.2793C10.1831 2.2793 8.6591 3.7993 8.6591 5.6793C8.6591 7.5593 10.1831 9.0893 12.0591 9.0893C13.9351 9.0893 15.4601 7.5593 15.4601 5.6793C15.4601 3.7993 13.9351 2.2793 12.0591 2.2793ZM19.0511 6.9693C19.5911 6.9693 20.0291 7.4093 20.0291 7.9593C20.0291 8.4993 19.5911 8.9393 19.0511 8.9393C18.5111 8.9393 18.0741 8.4993 18.0741 7.9593C18.0741 7.4093 18.5111 6.9693 19.0511 6.9693ZM5.0511 6.9693C5.5911 6.9693 6.0291 7.4093 6.0291 7.9593C6.0291 8.4993 5.5911 8.9393 5.0511 8.9393C4.5111 8.9393 4.0741 8.4993 4.0741 7.9593C4.0741 7.4093 4.5111 6.9693 5.0511 6.9693ZM12.0591 4.2793C12.8331 4.2793 13.4601 4.9093 13.4601 5.6793C13.4601 6.4593 12.8331 7.0893 12.0591 7.0893C11.2861 7.0893 10.6591 6.4593 10.6591 5.6793C10.6591 4.9093 11.2861 4.2793 12.0591 4.2793Z" fill="black"/>
</svg>
