<svg width="24" height="24" viewBox="0 0 24 24" fill="none" xmlns="http://www.w3.org/2000/svg">
<path fill-rule="evenodd" clip-rule="evenodd" d="M18.7851 21.17L20.7791 23.16C21.1691 23.55 21.8031 23.55 22.1931 23.16C22.5831 22.77 22.5831 22.14 22.1931 21.75L20.1891 19.74C20.7031 18.96 21.0011 18.02 21.0011 17.01C21.0011 14.25 18.7621 12.01 16.0061 12.01C13.2491 12.01 11.0101 14.25 11.0101 17.01C11.0101 19.77 13.2491 22.02 16.0061 22.02C17.0341 22.02 17.9901 21.7 18.7851 21.17ZM10.6851 12.47C10.1801 13.06 9.77209 13.74 9.48609 14.47H7.03309C4.95409 14.47 3.26809 16.16 3.26709 18.24C3.26709 18.44 3.34709 18.64 3.48909 18.78C3.63209 18.92 3.82409 19 4.02509 19H9.29809C9.51109 19.72 9.83709 20.4 10.2571 21H4.02509C3.29409 21 2.59209 20.71 2.07509 20.19C1.55809 19.67 1.26709 18.97 1.26709 18.24C1.26709 15.06 3.84909 12.47 7.03309 12.47H10.6851ZM18.3181 18.92C18.7451 18.4 19.0011 17.74 19.0011 17.01C19.0011 15.36 17.6601 14.01 16.0061 14.01C14.3521 14.01 13.0101 15.36 13.0101 17.01C13.0101 18.67 14.3521 20.02 16.0061 20.02C16.7441 20.02 17.4211 19.75 17.9431 19.3C17.9871 19.22 18.0421 19.15 18.1101 19.08C18.1731 19.02 18.2441 18.96 18.3181 18.92ZM9.56409 3C7.36709 3 5.58209 4.79 5.58209 6.99C5.58209 9.19 7.36709 10.98 9.56409 10.98C11.7621 10.98 13.5471 9.19 13.5471 6.99C13.5471 4.79 11.7621 3 9.56409 3ZM9.56409 5C10.6591 5 11.5471 5.89 11.5471 6.99C11.5471 8.09 10.6591 8.98 9.56409 8.98C8.46909 8.98 7.58209 8.09 7.58209 6.99C7.58209 5.89 8.46909 5 9.56409 5Z" fill="black"/>
</svg>
