<svg width="24" height="24" viewBox="0 0 24 24" fill="none" xmlns="http://www.w3.org/2000/svg">
<path fill-rule="evenodd" clip-rule="evenodd" d="M6.03309 12.4695C2.84909 12.4695 0.26709 15.0595 0.26709 18.2395C0.26709 18.9695 0.55809 19.6695 1.07509 20.1895C1.59209 20.7095 2.29409 20.9995 3.02509 20.9995C5.80809 20.9995 11.1951 20.9995 13.9771 20.9995C14.7091 20.9995 15.4101 20.7095 15.9281 20.1895C16.4451 19.6695 16.7351 18.9695 16.7351 18.2395C16.7351 15.0595 14.1541 12.4695 10.9691 12.4695C9.38409 12.4695 7.61909 12.4695 6.03309 12.4695ZM6.03309 14.4695H10.9691C13.0491 14.4695 14.7351 16.1595 14.7351 18.2395C14.7351 18.4395 14.6551 18.6395 14.5131 18.7795C14.3711 18.9195 14.1781 18.9995 13.9771 18.9995H3.02509C2.82409 18.9995 2.63209 18.9195 2.48909 18.7795C2.34709 18.6395 2.26709 18.4395 2.26709 18.2395C2.26809 16.1595 3.95409 14.4695 6.03309 14.4695ZM15.0291 11.3395L17.7641 14.0795C17.9711 14.2895 18.2551 14.3995 18.5471 14.3895C18.8391 14.3795 19.1141 14.2395 19.3041 14.0195L23.6511 8.94953C24.0281 8.50953 23.9761 7.83953 23.5361 7.46953C23.0961 7.08953 22.4331 7.13953 22.0561 7.57953L18.4471 11.7895L16.5141 9.85953C16.1041 9.44953 15.4391 9.44953 15.0291 9.85953C14.6191 10.2695 14.6191 10.9295 15.0291 11.3395ZM8.51009 3.01953C6.31309 3.01953 4.52809 4.80953 4.52809 7.00953C4.52809 9.20953 6.31309 10.9995 8.51009 10.9995C10.7081 10.9995 12.4931 9.20953 12.4931 7.00953C12.4931 4.80953 10.7081 3.01953 8.51009 3.01953ZM8.51009 5.01953C9.60509 5.01953 10.4931 5.90953 10.4931 7.00953C10.4931 8.10953 9.60509 8.99953 8.51009 8.99953C7.41609 8.99953 6.52809 8.10953 6.52809 7.00953C6.52809 5.90953 7.41609 5.01953 8.51009 5.01953Z" fill="black"/>
</svg>
