<svg width="16" height="16" viewBox="0 0 16 16" fill="none" xmlns="http://www.w3.org/2000/svg">
<path fill-rule="evenodd" clip-rule="evenodd" d="M4.23554 8.48792C1.91604 8.48792 0.0356445 10.3683 0.0356445 12.6879V12.6894C0.0356445 13.249 0.257944 13.7857 0.653645 14.1814C1.04934 14.5771 1.58604 14.7994 2.14564 14.7994C4.12994 14.7994 7.87614 14.7994 9.86044 14.7994C10.42 14.7994 10.9567 14.5771 11.3524 14.1814C11.7481 13.7857 11.9704 13.249 11.9704 12.6894V12.6879C11.9704 10.3683 10.09 8.48792 7.77044 8.48792H4.23554ZM4.23554 10.0879H7.77044C9.20644 10.0879 10.3704 11.252 10.3704 12.6879V12.6894C10.3704 12.8247 10.3167 12.9544 10.221 13.05C10.1254 13.1457 9.99574 13.1994 9.86045 13.1994H2.14564C2.01034 13.1994 1.88064 13.1457 1.78494 13.05C1.68934 12.9544 1.63564 12.8247 1.63564 12.6894V12.688C1.63564 11.252 2.79964 10.0879 4.23554 10.0879ZM9.71714 6.74452L11.6619 8.68922C11.8293 8.85672 12.059 8.94672 12.2957 8.93762C12.5323 8.92842 12.7544 8.82102 12.9084 8.64122L15.7593 5.31312C16.0644 4.95692 16.023 4.41982 15.6667 4.11462C15.3104 3.80942 14.7734 3.85092 14.4682 4.20722L12.2147 6.83792L10.9192 5.54242C10.5875 5.21072 10.0489 5.21072 9.71714 5.54242C9.38544 5.87412 9.38544 6.41282 9.71714 6.74452ZM5.99484 1.60742C4.40254 1.60742 3.10894 2.90212 3.10894 4.49782C3.10894 6.09362 4.40254 7.38832 5.99484 7.38832C7.58714 7.38832 8.88074 6.09362 8.88074 4.49782C8.88074 2.90212 7.58714 1.60742 5.99484 1.60742ZM5.99484 3.20742C6.70504 3.20742 7.28074 3.78612 7.28074 4.49782C7.28074 5.20962 6.70504 5.78832 5.99484 5.78832C5.28464 5.78832 4.70894 5.20962 4.70894 4.49782C4.70894 3.78612 5.28464 3.20742 5.99484 3.20742Z" fill="black"/>
</svg>
