<svg width="16" height="16" viewBox="0 0 16 16" fill="none" xmlns="http://www.w3.org/2000/svg">
<path fill-rule="evenodd" clip-rule="evenodd" d="M10.0831 9.50937C7.96445 10.0294 6.41998 11.8294 6.01894 13.0894C5.83384 13.6694 5.9851 14.2894 6.46078 14.6694C6.95139 15.0594 7.64003 15.0694 8.14656 14.6994C8.65806 14.3394 9.35466 13.9394 10.0831 13.7694L10.0821 14.1094C10.0821 14.6494 10.3906 15.1394 10.8762 15.3694C11.3609 15.5994 11.9361 15.5394 12.354 15.1994C13.3342 14.3994 14.6747 13.2694 15.4838 12.6094C15.8092 12.3394 16.0002 11.9394 16.0002 11.5194C16.0002 11.0994 15.8122 10.6994 15.4858 10.4294C14.6767 9.76937 13.3372 8.57937 12.356 7.77937C11.9381 7.42937 11.3619 7.36937 10.8772 7.59937C10.3916 7.82937 10.0821 8.31938 10.0821 8.85938L10.0831 9.50937ZM7.94667 8.49938C7.1615 8.92938 6.47684 9.48938 5.91558 10.0894H4.20891C2.77988 10.0894 1.62153 11.2494 1.62153 12.6894C1.62153 12.8294 1.67527 12.9494 1.7708 13.0494C1.86534 13.1494 1.99471 13.1994 2.12905 13.1994H4.22284C4.15716 13.7494 4.2318 14.2994 4.44177 14.7994H2.12905C1.57277 14.7994 1.03837 14.5794 0.644297 14.1794C0.251214 13.7894 0.0292969 13.2494 0.0292969 12.6894C0.0292969 10.3694 1.90117 8.48938 4.20891 8.48938C5.34238 8.48938 6.60621 8.48938 7.73869 8.48938L7.94667 8.49938ZM11.5748 9.06938C12.4993 9.83937 13.6806 10.8794 14.4508 11.5194C13.6885 12.1394 12.5023 13.1394 11.5748 13.8994V12.9294C11.5748 12.5194 11.2444 12.1794 10.8344 12.1794C9.65918 12.1694 8.43117 12.7194 7.53156 13.3094C7.97141 12.3194 9.25515 11.0594 10.9091 10.8794C11.2882 10.8394 11.5748 10.5194 11.5748 10.1294V9.06938ZM5.96619 1.60938C4.38093 1.60938 3.0942 2.89938 3.0942 4.49938C3.0942 6.08938 4.38093 7.38938 5.96619 7.38938C7.55046 7.38938 8.83818 6.08938 8.83818 4.49938C8.83818 2.89938 7.55046 1.60938 5.96619 1.60938ZM5.96619 3.20937C6.67275 3.20937 7.24595 3.78937 7.24595 4.49937C7.24595 5.20937 6.67275 5.78937 5.96619 5.78937C5.25864 5.78937 4.68644 5.20937 4.68644 4.49937C4.68644 3.78937 5.25864 3.20937 5.96619 3.20937Z" fill="black"/>
</svg>
