<svg width="16" height="16" viewBox="0 0 16 16" fill="none" xmlns="http://www.w3.org/2000/svg">
<path fill-rule="evenodd" clip-rule="evenodd" d="M12.999 10.6494C14.294 10.6494 15.345 11.6994 15.345 12.9994C15.345 14.2894 14.294 15.3394 12.999 15.3394C11.704 15.3394 10.653 14.2894 10.653 12.9994C10.653 11.6994 11.704 10.6494 12.999 10.6494ZM9.556 14.7994H3.1393C2.5797 14.7994 2.043 14.5794 1.6473 14.1794C1.2516 13.7894 1.0293 13.2494 1.0293 12.6894C1.0293 10.3694 2.9097 8.48938 5.229 8.48938C6.368 8.48938 7.638 8.48938 8.776 8.48938C9.789 8.48938 10.719 8.84937 11.444 9.43937C10.919 9.66937 10.455 10.0194 10.084 10.4394C9.701 10.2194 9.253 10.0894 8.776 10.0894C7.638 10.0894 6.368 10.0894 5.229 10.0894C3.7934 10.0894 2.6293 11.2494 2.6293 12.6894C2.6293 12.8294 2.683 12.9494 2.7787 13.0494C2.8743 13.1494 3.004 13.1994 3.1393 13.1994H9.12C9.148 13.7794 9.302 14.3194 9.556 14.7994ZM6.995 1.60938C5.402 1.60938 4.109 2.89938 4.109 4.49938C4.109 6.08938 5.402 7.38938 6.995 7.38938C8.587 7.38938 9.881 6.08938 9.881 4.49938C9.881 2.89938 8.587 1.60938 6.995 1.60938ZM6.995 3.20938C7.705 3.20938 8.281 3.78937 8.281 4.49937C8.281 5.20937 7.705 5.78937 6.995 5.78937C6.284 5.78937 5.709 5.20937 5.709 4.49937C5.709 3.78937 6.284 3.20938 6.995 3.20938Z" fill="black"/>
</svg>
