<svg width="16" height="16" viewBox="0 0 16 16" fill="none" xmlns="http://www.w3.org/2000/svg">
<path d="M11.8402 12.7297L10.3602 11.2497C10.0502 10.9397 10.0502 10.4296 10.3602 10.1196C10.6702 9.8096 11.1802 9.8096 11.4902 10.1196L12.9702 11.5996L14.4402 10.1196C14.7602 9.8096 15.2602 9.8096 15.5802 10.1196C15.8902 10.4296 15.8902 10.9397 15.5802 11.2497L14.1002 12.7297L15.5802 14.2097C15.8902 14.5197 15.8902 15.0295 15.5802 15.3395C15.2602 15.6495 14.7602 15.6495 14.4402 15.3395L12.9702 13.8596L11.4902 15.3395C11.1802 15.6495 10.6702 15.6495 10.3602 15.3395C10.0502 15.0295 10.0502 14.5197 10.3602 14.2097L11.8402 12.7297Z" fill="black"/>
<path fill-rule="evenodd" clip-rule="evenodd" d="M8.00024 1.59961C9.59024 1.59961 10.8801 2.89974 10.8801 4.48973C10.8801 6.08973 9.59024 7.37961 8.00024 7.37961C6.40024 7.37961 5.11023 6.08973 5.11023 4.48973C5.11023 2.89974 6.40024 1.59961 8.00024 1.59961ZM8.00024 3.1997C7.29024 3.1997 6.71021 3.77974 6.71021 4.48973C6.71021 5.20973 7.29024 5.77977 8.00024 5.77977C8.71024 5.77977 9.28015 5.20973 9.28015 4.48973C9.28015 3.77974 8.71024 3.1997 8.00024 3.1997Z" fill="black"/>
<path d="M8.53015 14.7998H4.06018C3.50018 14.7998 2.96019 14.5696 2.57019 14.1796C2.17019 13.7796 1.9502 13.2396 1.9502 12.6796C1.9502 10.3597 3.83015 8.47971 6.15015 8.47971H9.86023C9.90023 8.47971 9.93021 8.47971 9.97021 8.47971C9.70021 8.59971 9.45022 8.76972 9.23022 8.98972C8.92022 9.29971 8.71022 9.67956 8.60022 10.0796H6.15015C4.71015 10.0796 3.55017 11.2496 3.55017 12.6796C3.55017 12.8196 3.6002 12.9498 3.7002 13.0498C3.7902 13.1398 3.92018 13.1896 4.06018 13.1896H9.12024C8.72024 13.6496 8.52015 14.2198 8.53015 14.7998Z" fill="black"/>
</svg>
