<svg width="16" height="16" viewBox="0 0 16 16" fill="none" xmlns="http://www.w3.org/2000/svg">
<path fill-rule="evenodd" clip-rule="evenodd" d="M1.2002 9.99922C1.2002 11.2692 1.7062 12.4892 2.6062 13.3892C3.5062 14.2892 4.7272 14.7992 6.0002 14.7992C7.2812 14.7992 8.7002 14.7992 9.9812 14.7992C11.2542 14.7992 12.4752 14.2892 13.3752 13.3892C14.2752 12.4892 14.7812 11.2692 14.7812 9.99922C14.7812 8.70922 14.7812 7.28922 14.7812 5.99922C14.7812 4.72922 14.2752 3.50922 13.3752 2.60922C12.4752 1.70922 11.2542 1.19922 9.9812 1.19922C8.7002 1.19922 7.2812 1.19922 6.0002 1.19922C4.7272 1.19922 3.5062 1.70922 2.6062 2.60922C1.7062 3.50922 1.2002 4.72922 1.2002 5.99922V9.99922ZM11.3362 12.8992L11.3262 12.8492C11.1472 11.9792 10.3782 11.3492 9.4872 11.3492H6.5282C5.6512 11.3492 4.8912 11.9492 4.6952 12.8092C4.6892 12.8292 4.6952 12.8592 4.7102 12.8792L4.6712 12.9092C5.0842 13.0992 5.5372 13.1992 6.0002 13.1992C7.2812 13.1992 8.7002 13.1992 9.9812 13.1992C10.4542 13.1992 10.9162 13.0992 11.3362 12.8992ZM12.6452 11.7692C12.9922 11.2492 13.1812 10.6392 13.1812 9.99922V5.99922C13.1812 5.14922 12.8442 4.33922 12.2442 3.73922C11.6442 3.13922 10.8302 2.79922 9.9812 2.79922C8.7002 2.79922 7.2812 2.79922 6.0002 2.79922C5.1512 2.79922 4.3372 3.13922 3.7372 3.73922C3.1372 4.33922 2.8002 5.14922 2.8002 5.99922V9.99922C2.8002 10.6492 2.9962 11.2692 3.3552 11.7992C3.9072 10.5692 5.1392 9.74922 6.5282 9.74922C7.4592 9.74922 8.5502 9.74922 9.4872 9.74922C10.8672 9.74922 12.0882 10.5592 12.6452 11.7692ZM8.0112 4.10922C6.6952 4.10922 5.6252 5.17922 5.6252 6.49922C5.6252 7.81922 6.6952 8.88922 8.0112 8.88922C9.3272 8.88922 10.3962 7.81922 10.3962 6.49922C10.3962 5.17922 9.3272 4.10922 8.0112 4.10922ZM8.0112 5.70922C8.4452 5.70922 8.7962 6.06922 8.7962 6.49922C8.7962 6.93922 8.4452 7.28922 8.0112 7.28922C7.5772 7.28922 7.2252 6.93922 7.2252 6.49922C7.2252 6.06922 7.5772 5.70922 8.0112 5.70922Z" fill="black"/>
</svg>
