<svg width="24" height="24" viewBox="0 0 24 24" fill="none" xmlns="http://www.w3.org/2000/svg">
<path fill-rule="evenodd" clip-rule="evenodd" d="M15.0161 14.09C11.7441 14.84 9.35009 17.6 8.73509 19.52C8.46809 20.35 8.68309 21.24 9.36709 21.78C10.0711 22.34 11.0591 22.36 11.7851 21.83C12.6341 21.23 13.8051 20.58 15.0161 20.33L15.0151 21.04C15.0151 21.81 15.4581 22.51 16.1541 22.84C16.8501 23.18 17.6741 23.08 18.2741 22.59L23.2421 18.57C23.7101 18.19 23.9821 17.62 23.9821 17.02C23.9821 16.42 23.7121 15.85 23.2441 15.47C21.9951 14.45 19.7911 12.66 18.2771 11.43C17.6771 10.94 16.8511 10.85 16.1551 11.18C15.4591 11.51 15.0151 12.21 15.0151 12.98L15.0161 14.09ZM10.6291 20.2C10.6301 20.18 10.6331 20.15 10.6391 20.13C11.1491 18.55 13.2911 16.24 16.1231 15.93C16.6311 15.88 17.0151 15.45 17.0151 14.94L17.0161 12.98L21.9831 17.02H21.9811L17.0151 21.04V19.23C17.0151 18.68 16.5721 18.24 16.0231 18.23C14.0671 18.22 12.0151 19.21 10.6291 20.2ZM6.69509 21H3.02509C1.50209 21 0.26709 19.77 0.26709 18.24C0.26709 15.06 2.84909 12.47 6.03309 12.47H10.9811C11.6051 12.47 12.2061 12.57 12.7681 12.76C11.7591 13.21 10.8451 13.8 10.0511 14.47H6.03309C3.95409 14.47 2.26809 16.16 2.26709 18.24C2.26709 18.66 2.60709 19 3.02509 19H6.80509C6.60409 19.67 6.57009 20.35 6.69509 21ZM8.56409 3C6.36709 3 4.58209 4.79 4.58209 6.99C4.58209 9.19 6.36709 10.98 8.56409 10.98C10.7621 10.98 12.5471 9.19 12.5471 6.99C12.5471 4.79 10.7621 3 8.56409 3ZM8.56409 5C9.65909 5 10.5471 5.89 10.5471 6.99C10.5471 8.09 9.65909 8.98 8.56409 8.98C7.46909 8.98 6.58209 8.09 6.58209 6.99C6.58209 5.89 7.46909 5 8.56409 5Z" fill="black"/>
</svg>
