<svg width="24" height="24" viewBox="0 0 24 24" fill="none" xmlns="http://www.w3.org/2000/svg">
<path fill-rule="evenodd" clip-rule="evenodd" d="M8.64 20L10.649 22.85C10.965 23.29 11.48 23.56 12.029 23.56C12.578 23.56 13.093 23.3 13.41 22.85L15.422 20H16C18.761 20 21 17.76 21 15C21 12.56 21 9.44 21 7C21 4.24 18.761 2 16 2C13.557 2 10.443 2 8 2C5.239 2 3 4.24 3 7C3 9.44 3 12.56 3 15C3 17.76 5.239 20 8 20H8.64ZM12.03 21.33L9.975 18.42C9.787 18.16 9.483 18 9.158 18H8C6.343 18 5 16.66 5 15V7C5 5.34 6.343 4 8 4H16C17.657 4 19 5.34 19 7V15C19 16.66 17.657 18 16 18H14.904C14.579 18 14.275 18.16 14.087 18.42L12.03 21.33ZM9.876 11.18C9.158 11.18 8.471 11.46 7.964 11.97C7.456 12.48 7.172 13.17 7.172 13.88V13.89C7.172 14.43 7.387 14.95 7.769 15.33C8.152 15.71 8.671 15.93 9.212 15.93C10.716 15.93 13.348 15.93 14.851 15.93C15.974 15.93 16.889 15.02 16.907 13.9C16.918 13.18 16.64 12.49 16.137 11.98C15.633 11.47 14.945 11.18 14.227 11.18H9.876ZM9.876 12.98H14.227C14.463 12.98 14.689 13.07 14.854 13.24C15.02 13.41 15.111 13.64 15.107 13.87C15.105 14.01 14.991 14.13 14.851 14.13H9.212C9.148 14.13 9.087 14.1 9.042 14.06C8.997 14.01 8.972 13.95 8.972 13.89V13.88C8.972 13.64 9.067 13.41 9.236 13.24C9.406 13.07 9.636 12.98 9.876 12.98ZM12.056 4.95C10.602 4.95 9.421 6.13 9.421 7.59C9.421 9.04 10.602 10.23 12.056 10.23C13.51 10.23 14.691 9.04 14.691 7.59C14.691 6.13 13.51 4.95 12.056 4.95ZM12.056 6.75C12.517 6.75 12.891 7.12 12.891 7.59C12.891 8.05 12.517 8.43 12.056 8.43C11.595 8.43 11.221 8.05 11.221 7.59C11.221 7.12 11.595 6.75 12.056 6.75Z" fill="black"/>
</svg>
