<svg width="24" height="24" viewBox="0 0 24 24" fill="none" xmlns="http://www.w3.org/2000/svg">
<path fill-rule="evenodd" clip-rule="evenodd" d="M7.96912 12.4702C4.78412 12.4702 2.20312 15.0602 2.20312 18.2402C2.20312 18.9702 2.49312 19.6702 3.01012 20.1902C3.52813 20.7102 4.22913 21.0002 4.96112 21.0002C7.76512 21.0002 13.2221 21.0002 16.0271 21.0002C16.7581 21.0002 17.4601 20.7102 17.9771 20.1902C18.4941 19.6702 18.7851 18.9702 18.7851 18.2402C18.7851 15.0602 16.2031 12.4702 13.0191 12.4702H7.96912ZM7.96813 14.4702H13.0191C15.0981 14.4702 16.7851 16.1602 16.7851 18.2402C16.7851 18.4402 16.7051 18.6402 16.5631 18.7802C16.4201 18.9202 16.2281 19.0002 16.0271 19.0002H4.96112C4.75912 19.0002 4.56713 18.9202 4.42513 18.7802C4.28212 18.6402 4.20312 18.4402 4.20312 18.2402C4.20312 16.1602 5.88913 14.4702 7.96813 14.4702ZM20.0011 10.5202C20.8041 10.5202 21.4561 11.1802 21.4561 11.9902C21.4561 12.8002 20.8041 13.4602 20.0011 13.4602C19.1991 13.4602 18.5471 12.8002 18.5471 11.9902C18.5471 11.1802 19.1991 10.5202 20.0011 10.5202ZM10.5301 2.99023C8.33312 2.99023 6.54812 4.78023 6.54812 6.98023C6.54812 9.19023 8.33312 10.9702 10.5301 10.9702C12.7281 10.9702 14.5131 9.19023 14.5131 6.98023C14.5131 4.78023 12.7281 2.99023 10.5301 2.99023ZM20.1241 2.49023C18.9121 2.49023 17.7591 3.05023 17.1021 3.65023C16.2991 4.38023 17.0431 6.08023 18.2001 5.35023C18.6451 5.06023 19.2031 4.66023 20.1651 4.65023C20.7961 4.65023 21.2361 5.18023 21.2361 5.70023C21.2361 6.24023 19.9101 7.13023 19.1921 7.80023C18.2181 8.72023 19.5391 10.2802 20.6961 9.25023C21.8941 8.18023 23.4261 6.91023 23.4261 5.47023C23.4261 3.81023 22.0501 2.49023 20.1241 2.49023ZM10.5301 4.99023C11.6251 4.99023 12.5131 5.89023 12.5131 6.98023C12.5131 8.08023 11.6251 8.97023 10.5301 8.97023C9.43612 8.97023 8.54812 8.08023 8.54812 6.98023C8.54812 5.89023 9.43612 4.99023 10.5301 4.99023Z" fill="black"/>
</svg>
