<svg width="12" height="12" viewBox="0 0 12 12" fill="none" xmlns="http://www.w3.org/2000/svg">
<path fill-rule="evenodd" clip-rule="evenodd" d="M4.46703 9.97456L4.95513 10.8822C5.16493 11.2723 5.57273 11.5152 6.01573 11.5138C6.45873 11.5125 6.86493 11.2671 7.07233 10.8757L7.54983 9.97456H7.68883C8.56403 9.97456 9.40343 9.62686 10.0223 9.00796C10.6411 8.38916 10.9888 7.54976 10.9888 6.67456V3.33906C10.9888 2.46386 10.6411 1.62446 10.0223 1.00566C9.40343 0.386762 8.56403 0.0390625 7.68883 0.0390625C6.62153 0.0390625 5.37853 0.0390625 4.31123 0.0390625C3.43603 0.0390625 2.59663 0.386762 1.97773 1.00566C1.35893 1.62446 1.01123 2.46386 1.01123 3.33906V6.67456C1.01123 7.54976 1.35893 8.38916 1.97773 9.00796C2.59663 9.62686 3.43603 9.97456 4.31123 9.97456H4.46703ZM8.59363 8.11376C8.17093 7.63596 7.53453 7.32326 6.86903 7.32326C5.77123 7.32326 6.10903 7.32326 5.01783 7.32326C4.36723 7.32326 3.75433 7.61646 3.33773 8.06816C3.62123 8.26626 3.96063 8.37456 4.31123 8.37456H4.94523C5.23963 8.37456 5.51033 8.53626 5.64973 8.79566L6.00943 9.46436L6.36153 8.79996C6.50023 8.53826 6.77213 8.37456 7.06843 8.37456H7.68883C8.01153 8.37456 8.32473 8.28276 8.59363 8.11376ZM9.35053 7.03326C9.37583 6.91636 9.38883 6.79606 9.38883 6.67456V3.33906C9.38883 2.88816 9.20973 2.45576 8.89093 2.13696C8.57213 1.81816 8.13973 1.63906 7.68883 1.63906H4.31123C3.86033 1.63906 3.42793 1.81816 3.10913 2.13696C2.79033 2.45576 2.61123 2.88816 2.61123 3.33906V6.67456C2.61123 6.76566 2.61853 6.85606 2.63283 6.94486C3.27073 6.37866 4.12093 6.02326 5.01783 6.02326C6.10903 6.02326 5.77123 6.02326 6.86903 6.02326C7.80163 6.02326 8.69713 6.41546 9.35053 7.03326ZM5.96373 2.17006C4.98763 2.17006 4.19443 2.96356 4.19443 3.94186C4.19443 4.92006 4.98763 5.71356 5.96373 5.71356C6.93983 5.71356 7.73303 4.92006 7.73303 3.94186C7.73303 2.96356 6.93983 2.17006 5.96373 2.17006ZM5.96373 3.47006C6.22313 3.47006 6.43303 3.68186 6.43303 3.94186C6.43303 4.20176 6.22313 4.41356 5.96373 4.41356C5.70433 4.41356 5.49443 4.20176 5.49443 3.94186C5.49443 3.68186 5.70433 3.47006 5.96373 3.47006Z" fill="black"/>
</svg>
