<svg width="24" height="24" viewBox="0 0 24 24" fill="none" xmlns="http://www.w3.org/2000/svg">
<path fill-rule="evenodd" clip-rule="evenodd" d="M15.047 3H9.047V2.02C9.047 1.47 8.599 1.02 8.047 1.02C7.495 1.02 7.047 1.47 7.047 2.02V3H5.5C4.572 3 3.682 3.37 3.025 4.03C2.369 4.68 2 5.57 2 6.5C2 9.26 2 13.73 2 16.97C2 18.3 2.527 19.57 3.464 20.51C4.402 21.44 5.674 21.97 7 21.97C9.977 21.97 14.023 21.97 17 21.97C18.326 21.97 19.598 21.44 20.536 20.51C21.473 19.57 22 18.3 22 16.97C22 13.73 22 9.26 22 6.5C22 5.57 21.631 4.68 20.975 4.03C20.318 3.37 19.428 3 18.5 3H17.047V2C17.047 1.45 16.599 1 16.047 1C15.495 1 15.047 1.45 15.047 2V3ZM17.648 19.9C17.437 19.95 17.22 19.97 17 19.97C14.023 19.97 9.977 19.97 7 19.97C6.816 19.97 6.633 19.95 6.455 19.92C7.039 18.78 8.225 18 9.594 18H14.519C15.88 18 17.06 18.77 17.648 19.9ZM7.047 5H5.5C5.102 5 4.721 5.16 4.439 5.44C4.158 5.72 4 6.1 4 6.5C4 9.26 4 13.73 4 16.97C4 17.69 4.257 18.38 4.721 18.92C5.651 17.18 7.485 16 9.594 16H14.519C16.595 16 18.404 17.14 19.347 18.84C19.768 18.31 20 17.65 20 16.97C20 13.73 20 9.26 20 6.5C20 6.1 19.842 5.72 19.561 5.44C19.279 5.16 18.898 5 18.5 5H17.047V5.59C17.047 6.14 16.599 6.59 16.047 6.59C15.495 6.59 15.047 6.14 15.047 5.59V5H9.047V5.61C9.047 6.16 8.599 6.61 8.047 6.61C7.495 6.61 7.047 6.16 7.047 5.61V5ZM12.051 7C9.956 7 8.255 8.7 8.255 10.8C8.255 12.9 9.956 14.6 12.051 14.6C14.145 14.6 15.847 12.9 15.847 10.8C15.847 8.7 14.145 7 12.051 7ZM12.051 9C13.043 9 13.847 9.81 13.847 10.8C13.847 11.8 13.043 12.6 12.051 12.6C11.059 12.6 10.255 11.8 10.255 10.8C10.255 9.81 11.059 9 12.051 9Z" fill="black"/>
</svg>
