<svg width="16" height="16" viewBox="0 0 16 16" fill="none" xmlns="http://www.w3.org/2000/svg">
<path fill-rule="evenodd" clip-rule="evenodd" d="M4.2293 8.49078C1.9103 8.49078 0.0292969 10.3708 0.0292969 12.6908C0.0292969 13.2508 0.252297 13.7908 0.647297 14.1808C1.0433 14.5808 1.5803 14.8008 2.1393 14.8008C4.1263 14.8008 7.8803 14.8008 9.8663 14.8008C10.4263 14.8008 10.9633 14.5808 11.3583 14.1808C11.7543 13.7908 11.9763 13.2508 11.9763 12.6908C11.9763 10.3708 10.0963 8.49078 7.7763 8.49078C6.6383 8.49078 5.3683 8.49078 4.2293 8.49078ZM4.2293 10.0908C5.3683 10.0908 6.6383 10.0908 7.7763 10.0908C9.2123 10.0908 10.3763 11.2508 10.3763 12.6908C10.3763 12.8308 10.3233 12.9508 10.2273 13.0508C10.1313 13.1508 10.0023 13.2008 9.8663 13.2008H2.1393C2.0043 13.2008 1.8743 13.1508 1.7793 13.0508C1.6833 12.9508 1.6293 12.8308 1.6293 12.6908C1.6293 11.2508 2.7933 10.0908 4.2293 10.0908ZM13.0073 7.05078C13.6193 7.05078 14.1153 7.54078 14.1153 8.14078C14.1153 8.75078 13.6193 9.24078 13.0073 9.24078C12.3953 9.24078 11.8983 8.75078 11.8983 8.14078C11.8983 7.54078 12.3953 7.05078 13.0073 7.05078ZM5.9953 1.61078C4.4023 1.61078 3.1093 2.90078 3.1093 4.50078C3.1093 6.09078 4.4023 7.39078 5.9953 7.39078C7.5873 7.39078 8.8813 6.09078 8.8813 4.50078C8.8813 2.90078 7.5873 1.61078 5.9953 1.61078ZM13.0793 1.05078C12.1553 1.05078 11.2763 1.47078 10.7743 1.92078C10.1623 2.46078 10.7303 3.73078 11.6123 3.18078C11.9513 2.97078 12.3773 2.67078 13.1103 2.67078C13.5913 2.66078 13.9273 3.06078 13.9273 3.44078C13.9273 3.85078 12.9163 4.51078 12.3683 5.02078C11.6253 5.70078 12.6333 6.87078 13.5153 6.10078C14.4283 5.30078 15.5963 4.35078 15.5963 3.28078C15.5963 2.03078 14.5473 1.05078 13.0793 1.05078ZM5.9953 3.21078C6.7053 3.21078 7.2813 3.79078 7.2813 4.50078C7.2813 5.21078 6.7053 5.79078 5.9953 5.79078C5.2843 5.79078 4.7093 5.21078 4.7093 4.50078C4.7093 3.79078 5.2843 3.21078 5.9953 3.21078Z" fill="black"/>
</svg>
