<svg width="24" height="24" viewBox="0 0 24 24" fill="none" xmlns="http://www.w3.org/2000/svg">
<path fill-rule="evenodd" clip-rule="evenodd" d="M20.0001 15C21.6561 15 23.0001 16.34 23.0001 18C23.0001 19.66 21.6561 21 20.0001 21C18.3441 21 17.0001 19.66 17.0001 18C17.0001 16.34 18.3441 15 20.0001 15ZM16.0001 21H15.9811C13.1981 21 7.80909 21 5.02509 21C4.29409 21 3.59209 20.71 3.07509 20.19C2.55809 19.67 2.26709 18.97 2.26709 18.24C2.26709 15.06 4.84909 12.47 8.03309 12.47H12.9731C14.5091 12.47 15.9051 13.07 16.9371 14.05C16.4061 14.47 15.9601 14.98 15.6301 15.57C14.9491 14.89 14.0101 14.47 12.9731 14.47H8.03309C5.95409 14.47 4.26809 16.16 4.26709 18.24C4.26709 18.44 4.34709 18.64 4.48909 18.78C4.63209 18.92 4.82409 19 5.02509 19H15.1001C15.2501 19.74 15.5641 20.42 16.0001 21ZM10.5641 2C8.36709 2 6.58209 3.79 6.58209 5.99C6.58209 8.19 8.36709 9.98 10.5641 9.98C12.7621 9.98 14.5471 8.19 14.5471 5.99C14.5471 3.79 12.7621 2 10.5641 2ZM10.5641 4C11.6591 4 12.5471 4.89 12.5471 5.99C12.5471 7.09 11.6591 7.98 10.5641 7.98C9.46909 7.98 8.58209 7.09 8.58209 5.99C8.58209 4.89 9.46909 4 10.5641 4Z" fill="black"/>
</svg>
