<svg width="24" height="24" viewBox="0 0 24 24" fill="none" xmlns="http://www.w3.org/2000/svg">
<path fill-rule="evenodd" clip-rule="evenodd" d="M2 17C2 18.33 2.527 19.6 3.464 20.54C4.402 21.47 5.674 22 7 22C9.97 22 14.002 22 16.971 22C18.297 22 19.569 21.47 20.507 20.54C21.445 19.6 21.971 18.33 21.971 17C21.971 14.02 21.971 9.98 21.971 7C21.971 5.67 21.445 4.4 20.507 3.46C19.569 2.53 18.297 2 16.971 2C14.002 2 9.97 2 7 2C5.674 2 4.402 2.53 3.464 3.46C2.527 4.4 2 5.67 2 7V17ZM4 17V7C4 6.2 4.316 5.44 4.879 4.88C5.441 4.32 6.204 4 7 4H16.971C17.767 4 18.53 4.32 19.093 4.88C19.655 5.44 19.971 6.2 19.971 7C19.971 9.98 19.971 14.02 19.971 17C19.971 17.8 19.655 18.56 19.093 19.12C18.53 19.68 17.767 20 16.971 20H7C6.204 20 5.441 19.68 4.879 19.12C4.316 18.56 4 17.8 4 17ZM9.486 13.12C7.901 13.12 6.526 14.21 6.171 15.76L6.079 16.16C5.928 16.82 6.085 17.51 6.505 18.04C6.925 18.56 7.563 18.87 8.238 18.87C10.287 18.87 13.76 18.87 15.791 18.87C16.457 18.87 17.087 18.57 17.508 18.06C17.928 17.54 18.095 16.86 17.961 16.21L17.884 15.84C17.559 14.25 16.167 13.12 14.552 13.12H9.486ZM9.486 14.92H14.552C15.313 14.92 15.968 15.45 16.121 16.2L16.198 16.57C16.223 16.69 16.192 16.82 16.113 16.92C16.034 17.01 15.916 17.07 15.791 17.07H8.238C8.111 17.07 7.992 17.01 7.913 16.91C7.835 16.82 7.805 16.69 7.834 16.56L7.926 16.16C8.093 15.43 8.74 14.92 9.486 14.92ZM12.046 6.16C10.456 6.16 9.164 7.46 9.164 9.05C9.164 10.64 10.456 11.94 12.046 11.94C13.636 11.94 14.928 10.64 14.928 9.05C14.928 7.46 13.636 6.16 12.046 6.16ZM12.046 7.96C12.644 7.96 13.128 8.45 13.128 9.05C13.128 9.65 12.644 10.14 12.046 10.14C11.448 10.14 10.964 9.65 10.964 9.05C10.964 8.45 11.448 7.96 12.046 7.96Z" fill="black"/>
</svg>
