<svg width="24" height="24" viewBox="0 0 24 24" fill="none" xmlns="http://www.w3.org/2000/svg">
<path fill-rule="evenodd" clip-rule="evenodd" d="M10.84 1.89648C13.11 1.89648 14.96 3.74649 14.96 6.03649C14.96 8.31648 13.11 10.1665 10.84 10.1665C8.55997 10.1665 6.70996 8.31648 6.70996 6.03649C6.70996 3.74649 8.55997 1.89648 10.84 1.89648ZM10.84 3.89648C9.65997 3.89648 8.70996 4.85649 8.70996 6.03649C8.70996 7.21648 9.65997 8.16648 10.84 8.16648C12.01 8.16648 12.96 7.21648 12.96 6.03649C12.96 4.85649 12.01 3.89648 10.84 3.89648Z" fill="black"/>
<path d="M12.63 20.5464H4.95996C4.16996 20.5464 3.39997 20.2264 2.83997 19.6664C2.27997 19.1065 1.95996 18.3365 1.95996 17.5465C1.95996 15.9565 2.59997 14.4265 3.71997 13.3065C4.84997 12.1765 6.36996 11.5465 7.95996 11.5465C9.95663 11.5465 11.4193 11.5465 13.4159 11.5465C12.4714 11.8291 11.4254 12.5064 10.9069 13.5465H7.95996C6.89996 13.5465 5.89002 13.9665 5.14002 14.7165C4.38002 15.4664 3.95996 16.4865 3.95996 17.5465C3.95996 17.8065 4.07001 18.0665 4.26001 18.2465C4.44001 18.4365 4.69996 18.5465 4.95996 18.5465H12.3904C12.2824 19.228 12.3727 19.9669 12.63 20.5464Z" fill="black"/>
<path fill-rule="evenodd" clip-rule="evenodd" d="M16.4512 11.169C17.1014 10.0153 18.7628 10.0153 19.4131 11.169L20.3092 12.7588L22.0981 13.1197C23.3963 13.3817 23.9097 14.9617 23.0134 15.9367L21.7783 17.2802L21.9878 19.0931C22.1398 20.4087 20.7958 21.3852 19.5916 20.834L17.9321 20.0746L16.2727 20.834C15.0685 21.3852 13.7244 20.4086 13.8765 19.0931L14.086 17.2802L12.8509 15.9367C11.9546 14.9617 12.468 13.3817 13.7662 13.1197L15.5551 12.7588L16.4512 11.169ZM17.23 13.8604L17.9321 12.6147L18.6343 13.8604C18.8769 14.2908 19.2947 14.5944 19.779 14.6921L21.1808 14.9749L20.213 16.0277C19.8786 16.3914 19.719 16.8826 19.7757 17.3734L19.9399 18.794L18.6396 18.1988C18.1904 17.9932 17.6739 17.9932 17.2247 18.1988L15.9244 18.794L16.0885 17.3734C16.1453 16.8826 15.9857 16.3914 15.6513 16.0277L14.6835 14.9749L16.0853 14.6921C16.5696 14.5944 16.9874 14.2908 17.23 13.8604Z" fill="black"/>
</svg>
