<svg width="24" height="24" viewBox="0 0 24 24" fill="none" xmlns="http://www.w3.org/2000/svg">
<path d="M17.4403 17.9871L15.1804 15.7271C14.7704 15.3171 14.7704 14.6571 15.1804 14.2471C15.5904 13.8371 16.2604 13.8371 16.6704 14.2471L18.9304 16.4971L21.1804 14.2471C21.5904 13.8371 22.2604 13.8371 22.6704 14.2471C23.0804 14.6571 23.0804 15.3171 22.6704 15.7271L20.4104 17.9871L22.6704 20.2471C23.0804 20.6571 23.0804 21.3171 22.6704 21.7271C22.2604 22.1371 21.5904 22.1371 21.1804 21.7271L18.9304 19.4771L16.6704 21.7271C16.2604 22.1371 15.5904 22.1371 15.1804 21.7271C14.7704 21.3171 14.7704 20.6571 15.1804 20.2471L17.4403 17.9871Z" fill="black"/>
<path fill-rule="evenodd" clip-rule="evenodd" d="M11.7404 2.53711C14.0104 2.53711 15.8604 4.38712 15.8604 6.67711C15.8604 8.9571 14.0104 10.8071 11.7404 10.8071C9.46036 10.8071 7.61035 8.9571 7.61035 6.67711C7.61035 4.38712 9.46036 2.53711 11.7404 2.53711ZM11.7404 4.5371C10.5604 4.5371 9.61035 5.49711 9.61035 6.67711C9.61035 7.85711 10.5604 8.80711 11.7404 8.80711C12.9104 8.80711 13.8604 7.85711 13.8604 6.67711C13.8604 5.49711 12.9104 4.5371 11.7404 4.5371Z" fill="black"/>
<path d="M12.9304 21.1871H5.86035C5.07035 21.1871 4.30036 20.8671 3.74036 20.3071C3.18036 19.7471 2.86035 18.9771 2.86035 18.1871C2.86035 16.5971 3.50036 15.0671 4.62036 13.9471C5.75036 12.8171 7.27035 12.1871 8.86035 12.1871H14.7003C14.7503 12.1871 14.8003 12.1871 14.8503 12.1871C14.4703 12.3371 14.1104 12.5571 13.8104 12.8671C13.4304 13.2471 13.1704 13.7071 13.0404 14.1871H8.86035C7.80035 14.1871 6.79041 14.6071 6.04041 15.3571C5.28041 16.1071 4.86035 17.1271 4.86035 18.1871C4.86035 18.4471 4.9704 18.7071 5.1604 18.8871C5.3404 19.0771 5.60035 19.1871 5.86035 19.1871H13.5304C13.0904 19.7671 12.8904 20.4871 12.9304 21.1871Z" fill="black"/>
</svg>
