<svg width="16" height="16" viewBox="0 0 16 16" fill="none" xmlns="http://www.w3.org/2000/svg">
<path fill-rule="evenodd" clip-rule="evenodd" d="M11.8206 9.20482V8.89732C11.8206 8.36012 11.5117 7.87142 11.0274 7.64042C10.5427 7.40922 9.96761 7.47722 9.54981 7.81702C8.57731 8.60712 7.24881 9.78542 6.44661 10.4374C6.12111 10.7016 5.93261 11.0981 5.93261 11.5185C5.93261 11.9375 6.12241 12.3347 6.44821 12.5992L6.44901 12.5999C7.25131 13.2492 8.57971 14.3663 9.55221 15.1531C9.96991 15.4914 10.5435 15.5593 11.028 15.3282C11.5125 15.0971 11.8206 14.6073 11.8206 14.0712V13.806H14.1151C15.0816 13.806 15.8651 13.0225 15.8651 12.056V10.9548C15.8651 9.98832 15.0816 9.20482 14.1151 9.20482H11.8206ZM6.05061 8.48792C5.79001 8.70942 5.54911 8.91172 5.34301 9.07932C4.99911 9.35852 4.72281 9.70302 4.52631 10.0879H4.27861C2.84271 10.0879 1.67861 11.252 1.67861 12.688V12.6894C1.67861 12.8247 1.73231 12.9544 1.82801 13.05C1.92361 13.1457 2.05341 13.1994 2.18861 13.1994H4.67091C4.85111 13.4839 5.07771 13.7406 5.34511 13.9577L6.36981 14.7994H2.18861C1.62901 14.7994 1.09231 14.5771 0.696613 14.1814C0.300913 13.7857 0.0786133 13.249 0.0786133 12.6894V12.6879C0.0786133 10.3683 1.95901 8.48792 4.27861 8.48792H6.05061ZM10.3206 9.12442V9.95482C10.3206 10.369 10.6564 10.7048 11.0706 10.7048H14.1151C14.2532 10.7048 14.3651 10.8167 14.3651 10.9547V12.056C14.3651 12.1941 14.2532 12.306 14.1152 12.306H11.0706C10.6564 12.306 10.3206 12.6418 10.3206 13.056V13.8445C9.41081 13.1046 8.25501 12.1351 7.49521 11.5174C8.25481 10.8932 9.41071 9.87352 10.3206 9.12442ZM6.06041 1.60742C4.46811 1.60742 3.17451 2.90212 3.17451 4.49782C3.17451 6.09362 4.46811 7.38832 6.06041 7.38832C7.65271 7.38832 8.94631 6.09362 8.94631 4.49782C8.94631 2.90212 7.65271 1.60742 6.06041 1.60742ZM6.06041 3.20742C6.77061 3.20742 7.34631 3.78612 7.34631 4.49782C7.34631 5.20962 6.77061 5.78832 6.06041 5.78832C5.35021 5.78832 4.77451 5.20962 4.77451 4.49782C4.77451 3.78612 5.35021 3.20742 6.06041 3.20742Z" fill="black"/>
</svg>
