<svg width="16" height="16" viewBox="0 0 16 16" fill="none" xmlns="http://www.w3.org/2000/svg">
<path fill-rule="evenodd" clip-rule="evenodd" d="M10.9349 8.71722L10.3026 9.87052L9.01034 10.1154C8.57734 10.1975 8.22355 10.5091 8.08735 10.9283C7.95115 11.3474 8.05424 11.8075 8.35635 12.1284L9.25774 13.0861L9.09144 14.3908C9.03574 14.828 9.22274 15.2608 9.57924 15.5199C9.93574 15.7789 10.4051 15.823 10.8037 15.6349L11.9931 15.0735L13.1826 15.6349C13.5811 15.823 14.0505 15.7789 14.4071 15.5199C14.7636 15.2608 14.9506 14.828 14.8949 14.3908L14.7285 13.0861L15.63 12.1284C15.9321 11.8075 16.0352 11.3474 15.899 10.9283C15.7628 10.5091 15.409 10.1975 14.976 10.1154L13.6837 9.87052L13.0514 8.71722C12.8395 8.33072 12.4338 8.09052 11.9931 8.09052C11.5524 8.09052 11.1468 8.33072 10.9349 8.71722ZM7.54354 14.7994H2.14564C1.58604 14.7994 1.04934 14.5771 0.653645 14.1814C0.257944 13.7857 0.0356445 13.249 0.0356445 12.6894V12.6879C0.0356445 10.3683 1.91604 8.48792 4.23554 8.48792H7.77044C8.09474 8.48792 8.41044 8.52472 8.71334 8.59422C7.85684 8.75922 7.13704 9.31762 6.75954 10.0879H4.23554C2.79964 10.0879 1.63564 11.252 1.63564 12.688V12.6894C1.63564 12.8247 1.68934 12.9544 1.78494 13.05C1.88064 13.1457 2.01034 13.1994 2.14564 13.1994H7.23574L7.62774 13.6158L7.55384 14.1948C7.52794 14.3979 7.52504 14.6005 7.54354 14.7994ZM11.9931 9.69912L12.6149 10.8332C12.7155 11.0166 12.8928 11.1455 13.0984 11.1844L14.3691 11.4253L13.4826 12.3672C13.3393 12.5195 13.2715 12.728 13.298 12.9355L13.4616 14.2185L12.2919 13.6664C12.1027 13.5772 11.8835 13.5772 11.6944 13.6664L10.5247 14.2185L10.6883 12.9355C10.7147 12.728 10.647 12.5195 10.5036 12.3672L9.61714 11.4253L10.8879 11.1844C11.0934 11.1455 11.2708 11.0166 11.3713 10.8332L11.9931 9.69912ZM5.99484 1.60742C4.40254 1.60742 3.10894 2.90212 3.10894 4.49782C3.10894 6.09362 4.40254 7.38832 5.99484 7.38832C7.58714 7.38832 8.88074 6.09362 8.88074 4.49782C8.88074 2.90212 7.58714 1.60742 5.99484 1.60742ZM5.99484 3.20742C6.70504 3.20742 7.28074 3.78612 7.28074 4.49782C7.28074 5.20962 6.70504 5.78832 5.99484 5.78832C5.28464 5.78832 4.70894 5.20962 4.70894 4.49782C4.70894 3.78612 5.28464 3.20742 5.99484 3.20742Z" fill="black"/>
</svg>
