<svg width="24" height="24" viewBox="0 0 24 24" fill="none" xmlns="http://www.w3.org/2000/svg">
<path fill-rule="evenodd" clip-rule="evenodd" d="M7.03308 12.47C3.84908 12.47 1.26758 15.06 1.26758 18.24C1.26758 18.97 1.55808 19.67 2.07538 20.19C2.59258 20.71 3.29408 21 4.02558 21C6.80908 21 12.1981 21 14.9811 21C15.7131 21 16.4141 20.71 16.9311 20.19C17.4491 19.67 17.7391 18.97 17.7391 18.24C17.7391 15.06 15.1581 12.47 11.9731 12.47H7.03308ZM7.03308 14.47H11.9731C14.0531 14.47 15.7391 16.16 15.7391 18.24C15.7391 18.44 15.6591 18.64 15.5171 18.78C15.3751 18.92 15.1821 19 14.9811 19C12.1981 19 6.80908 19 4.02558 19C3.82448 19 3.63168 18.92 3.48958 18.78C3.34738 18.64 3.26758 18.44 3.26758 18.24C3.26758 16.16 4.95368 14.47 7.03308 14.47ZM18.9501 4.4C18.3981 3.98 17.6561 3.91 17.0351 4.22C16.4151 4.53 16.0221 5.16 16.0221 5.85V11.28C16.0221 11.98 16.4151 12.61 17.0351 12.92C17.6561 13.23 18.3981 13.16 18.9501 12.74L22.5401 10.02C22.9971 9.68 23.2651 9.14 23.2651 8.57C23.2651 8 22.9971 7.46 22.5401 7.11L18.9501 4.4ZM9.56408 3C7.36708 3 5.58208 4.79 5.58208 6.99C5.58208 9.19 7.36708 10.98 9.56408 10.98C11.7621 10.98 13.5471 9.19 13.5471 6.99C13.5471 4.79 11.7621 3 9.56408 3ZM18.0221 10.93L21.1501 8.57L18.0221 6.2V10.93ZM9.56408 5C10.6591 5 11.5471 5.89 11.5471 6.99C11.5471 8.09 10.6591 8.98 9.56408 8.98C8.46908 8.98 7.58208 8.09 7.58208 6.99C7.58208 5.89 8.46908 5 9.56408 5Z" fill="black"/>
</svg>
