<svg width="16" height="16" viewBox="0 0 16 16" fill="none" xmlns="http://www.w3.org/2000/svg">
<path fill-rule="evenodd" clip-rule="evenodd" d="M4.47113 9.25977C5.22313 8.59977 6.20913 8.19977 7.28813 8.19977H8.75113C9.82813 8.19977 10.8131 8.59977 11.5641 9.25977C12.0021 9.00977 12.5011 8.86977 13.0141 8.86977H13.0161C13.7931 8.86977 14.5391 9.17977 15.0891 9.72977C15.6391 10.2798 15.9481 11.0298 15.9481 11.7998V12.3598C15.9481 13.3798 15.1191 14.2098 14.0981 14.2098H12.9211C12.8131 14.5598 12.6221 14.8698 12.3631 15.1298C11.9351 15.5598 11.3541 15.7998 10.7491 15.7998C9.21313 15.7998 6.82613 15.7998 5.29013 15.7998C4.68513 15.7998 4.10413 15.5598 3.67633 15.1298C3.41693 14.8698 3.22633 14.5598 3.11783 14.2098H1.83503C0.866831 14.2098 0.0820312 13.4298 0.0820312 12.4598V11.7998C0.0820312 11.0298 0.390931 10.2798 0.940731 9.72977C1.49063 9.17977 2.23643 8.86977 3.01403 8.86977H3.01573C3.53083 8.86977 4.03213 9.00977 4.47113 9.25977ZM7.28813 9.79977H8.75113C10.2311 9.79977 11.4311 10.9998 11.4311 12.4798V13.5198C11.4311 13.6998 11.3601 13.8698 11.2321 13.9998C11.1041 14.1298 10.9301 14.1998 10.7491 14.1998H5.29013C5.10913 14.1998 4.93513 14.1298 4.80813 13.9998C4.68013 13.8698 4.60813 13.6998 4.60813 13.5198V12.4798C4.60813 10.9998 5.80813 9.79977 7.28813 9.79977ZM3.56253 10.3698C3.38983 10.3098 3.20463 10.2698 3.01573 10.2698H3.01403C2.60773 10.2698 2.21803 10.4298 1.93073 10.7198C1.64343 11.0098 1.48203 11.3998 1.48203 11.7998V12.4598C1.48203 12.6598 1.64003 12.8098 1.83503 12.8098H3.00783V12.4798C3.00783 11.7098 3.20903 10.9998 3.56253 10.3698ZM13.0311 12.8098H14.0981C14.3461 12.8098 14.5481 12.6098 14.5481 12.3598V11.7998C14.5481 11.3998 14.3861 11.0098 14.0991 10.7198C13.8121 10.4298 13.4221 10.2698 13.0161 10.2698H13.0141C12.8281 10.2698 12.6451 10.3098 12.4751 10.3698C12.8301 10.9898 13.0311 11.7098 13.0311 12.4798V12.8098ZM12.9841 3.29977C11.7721 3.29977 10.7871 4.28977 10.7871 5.49977C10.7871 6.70977 11.7721 7.69977 12.9841 7.69977C14.1961 7.69977 15.1801 6.70977 15.1801 5.49977C15.1801 4.28977 14.1961 3.29977 12.9841 3.29977ZM2.98373 3.29977C1.77173 3.29977 0.787031 4.28977 0.787031 5.49977C0.787031 6.70977 1.77173 7.69977 2.98373 7.69977C4.19613 7.69977 5.18013 6.70977 5.18013 5.49977C5.18013 4.28977 4.19613 3.29977 2.98373 3.29977ZM8.00213 1.25977C6.51713 1.25977 5.31013 2.46977 5.31013 3.95977C5.31013 5.44977 6.51713 6.65977 8.00213 6.65977C9.48713 6.65977 10.6931 5.44977 10.6931 3.95977C10.6931 2.46977 9.48713 1.25977 8.00213 1.25977ZM12.9841 4.69977C13.4241 4.69977 13.7801 5.05977 13.7801 5.49977C13.7801 5.93977 13.4241 6.29977 12.9841 6.29977C12.5431 6.29977 12.1871 5.93977 12.1871 5.49977C12.1871 5.05977 12.5431 4.69977 12.9841 4.69977ZM2.98373 4.69977C3.42383 4.69977 3.78043 5.05977 3.78043 5.49977C3.78043 5.93977 3.42383 6.29977 2.98373 6.29977C2.54353 6.29977 2.18703 5.93977 2.18703 5.49977C2.18703 5.05977 2.54353 4.69977 2.98373 4.69977ZM8.00213 2.85977C8.60513 2.85977 9.09313 3.35977 9.09313 3.95977C9.09313 4.55977 8.60513 5.05977 8.00213 5.05977C7.39913 5.05977 6.91013 4.55977 6.91013 3.95977C6.91013 3.35977 7.39913 2.85977 8.00213 2.85977Z" fill="black"/>
</svg>
