<svg width="16" height="16" viewBox="0 0 16 16" fill="none" xmlns="http://www.w3.org/2000/svg">
<path fill-rule="evenodd" clip-rule="evenodd" d="M5.5062 13.2692L6.7862 15.0792C7.0652 15.4792 7.5192 15.7092 8.0032 15.7092C8.4872 15.7092 8.9412 15.4792 9.2202 15.0792L10.5022 13.2692C11.5902 13.1492 12.6132 12.6692 13.3942 11.8892C14.2942 10.9892 14.8002 9.76922 14.8002 8.49922V4.99922C14.8002 3.72922 14.2942 2.50922 13.3942 1.60922C12.4942 0.709219 11.2732 0.199219 10.0002 0.199219C8.7132 0.199219 7.2872 0.199219 6.0002 0.199219C4.7272 0.199219 3.5062 0.709219 2.6062 1.60922C1.7062 2.50922 1.2002 3.72922 1.2002 4.99922C1.2002 6.12922 1.2002 7.35922 1.2002 8.49922C1.2002 9.76922 1.7062 10.9892 2.6062 11.8892C3.3892 12.6692 4.4152 13.1592 5.5062 13.2692ZM12.3222 10.6992C11.6782 9.91922 10.5422 9.39922 9.3562 9.39922C7.7252 9.39922 8.2262 9.39922 6.6052 9.39922C5.41619 9.39922 4.2982 9.90922 3.6622 10.6792L3.7372 10.7592C4.3252 11.3492 5.1182 11.6792 5.9482 11.6892C6.2042 11.6992 6.4432 11.8192 6.5912 12.0292L8.0032 14.0292L9.4172 12.0292C9.5652 11.8192 9.80319 11.6992 10.0592 11.6892C10.8862 11.6792 11.6772 11.3392 12.2632 10.7592L12.3222 10.6992ZM13.1152 9.21922C13.1712 8.98922 13.2002 8.73922 13.2002 8.49922V4.99922C13.2002 4.14922 12.8632 3.33922 12.2632 2.73922C11.6632 2.13922 10.8492 1.79922 10.0002 1.79922H6.0002C5.1512 1.79922 4.3372 2.13922 3.7372 2.73922C3.1372 3.33922 2.8002 4.14922 2.8002 4.99922V8.49922C2.8002 8.72922 2.8262 8.96922 2.8792 9.19922C3.8142 8.35922 5.1642 7.79922 6.6052 7.79922C8.2262 7.79922 7.7252 7.79922 9.3562 7.79922C10.7972 7.79922 12.1682 8.36922 13.1152 9.21922ZM8.0112 2.61922C6.7072 2.61922 5.6482 3.67922 5.6482 4.98922C5.6482 6.28922 6.7072 7.34922 8.0112 7.34922C9.3142 7.34922 10.3742 6.28922 10.3742 4.98922C10.3742 3.67922 9.3142 2.61922 8.0112 2.61922ZM8.0112 4.01922C8.5432 4.01922 8.9742 4.44922 8.9742 4.98922C8.9742 5.51922 8.5432 5.94922 8.0112 5.94922C7.4792 5.94922 7.0482 5.51922 7.0482 4.98922C7.0482 4.44922 7.4792 4.01922 8.0112 4.01922Z" fill="black"/>
</svg>
