<svg width="16" height="16" viewBox="0 0 16 16" fill="none" xmlns="http://www.w3.org/2000/svg">
<path fill-rule="evenodd" clip-rule="evenodd" d="M4.51298 1.16992C3.37798 1.16992 2.28898 1.61992 1.48498 2.41992C0.68198 3.21992 0.22998 4.30992 0.22998 5.44992C0.22998 7.03992 0.22998 8.90992 0.22998 10.4999C0.22998 12.8599 2.13598 14.7699 4.49098 14.7699C6.62698 14.7799 9.35598 14.7899 11.494 14.7899C12.629 14.7899 13.718 14.3499 14.522 13.5399C15.325 12.7399 15.777 11.6499 15.777 10.5199C15.777 8.92992 15.777 7.04992 15.777 5.45992C15.777 3.10992 13.871 1.19992 11.515 1.18992C9.37998 1.18992 6.65098 1.17992 4.51298 1.16992ZM9.77798 13.1899H11.498C12.208 13.1899 12.889 12.9099 13.392 12.4099C13.894 11.9099 14.177 11.2299 14.177 10.5199V5.45992C14.176 3.98992 12.984 2.79992 11.512 2.78992L4.50898 2.76992C3.79898 2.76992 3.11798 3.04992 2.61498 3.54992C2.11298 4.05992 1.82998 4.73992 1.82998 5.44992V10.4999L1.83098 10.5099C2.58698 9.90992 3.54298 9.54992 4.58298 9.54992C4.85998 9.54992 5.13998 9.54992 5.41698 9.54992C7.59198 9.54992 9.40198 11.1199 9.77798 13.1899ZM8.23798 13.1799C7.88898 11.9499 6.75798 11.0499 5.41698 11.0499C5.13998 11.0499 4.85998 11.0499 4.58298 11.0499C3.68898 11.0499 2.88798 11.4499 2.34998 12.0799C2.83498 12.7399 3.61498 13.1699 4.49498 13.1699L8.23798 13.1799ZM9.12598 10.1599H11.661C12.102 10.1599 12.461 9.79992 12.461 9.35992C12.461 8.90992 12.102 8.55992 11.661 8.55992H9.12598C8.68498 8.55992 8.32598 8.90992 8.32598 9.35992C8.32598 9.79992 8.68498 10.1599 9.12598 10.1599ZM4.99798 4.86992C3.82298 4.86992 2.86798 5.81992 2.86798 6.99992C2.86798 8.17992 3.82298 9.12992 4.99798 9.12992C6.17298 9.12992 7.12798 8.17992 7.12798 6.99992C7.12798 5.81992 6.17298 4.86992 4.99798 4.86992ZM4.99798 6.36992C5.34598 6.36992 5.62798 6.64992 5.62798 6.99992C5.62798 7.34992 5.34598 7.62992 4.99798 7.62992C4.64998 7.62992 4.36798 7.34992 4.36798 6.99992C4.36798 6.64992 4.64998 6.36992 4.99798 6.36992ZM9.12598 7.14992H11.661C12.102 7.14992 12.461 6.78992 12.461 6.34992C12.461 5.90992 12.102 5.54992 11.661 5.54992H9.12598C8.68498 5.54992 8.32598 5.90992 8.32598 6.34992C8.32598 6.78992 8.68498 7.14992 9.12598 7.14992Z" fill="black"/>
</svg>
