<svg width="25" height="24" viewBox="0 0 25 24" fill="none" xmlns="http://www.w3.org/2000/svg">
<path fill-rule="evenodd" clip-rule="evenodd" d="M6.97694 12.47C3.79294 12.47 1.21094 15.06 1.21094 18.24C1.21094 18.97 1.50194 19.67 2.01894 20.19C2.53594 20.71 3.23794 21 3.96894 21C6.77894 21 12.2499 21 15.0599 21C15.7909 21 16.4919 20.71 17.0099 20.19C17.5269 19.67 17.8179 18.97 17.8179 18.24C17.8179 15.06 15.2359 12.47 12.0519 12.47H6.97694ZM6.97694 14.47H12.0519C14.1309 14.47 15.8169 16.16 15.8179 18.24C15.8179 18.44 15.7379 18.64 15.5959 18.78C15.4529 18.92 15.2609 19 15.0599 19H3.96894C3.76794 19 3.57594 18.92 3.43294 18.78C3.29094 18.64 3.21094 18.44 3.21094 18.24C3.21094 16.16 4.89694 14.47 6.97694 14.47ZM18.9499 8.95H16.9999C16.4199 8.95 15.9499 9.42 15.9499 10C15.9499 10.58 16.4199 11.05 16.9999 11.05H18.9499V13C18.9499 13.58 19.4199 14.05 19.9999 14.05C20.5799 14.05 21.0499 13.58 21.0499 13V11.05H22.9999C23.5799 11.05 24.0499 10.58 24.0499 10C24.0499 9.42 23.5799 8.95 22.9999 8.95H21.0499V7C21.0499 6.42 20.5799 5.95 19.9999 5.95C19.4199 5.95 18.9499 6.42 18.9499 7V8.95ZM9.56394 3C7.36694 3 5.58194 4.79 5.58194 6.99C5.58194 9.19 7.36694 10.98 9.56394 10.98C11.7619 10.98 13.5469 9.19 13.5469 6.99C13.5469 4.79 11.7619 3 9.56394 3ZM9.56394 5C10.6589 5 11.5469 5.89 11.5469 6.99C11.5469 8.09 10.6589 8.98 9.56394 8.98C8.46894 8.98 7.58194 8.09 7.58194 6.99C7.58194 5.89 8.46894 5 9.56394 5Z" fill="black"/>
</svg>
