<svg width="24" height="24" viewBox="0 0 24 24" fill="none" xmlns="http://www.w3.org/2000/svg">
<path fill-rule="evenodd" clip-rule="evenodd" d="M18.941 18.94H17.062C16.494 18.94 16.033 19.42 16.033 20C16.033 20.58 16.494 21.06 17.062 21.06H18.941V22.94C18.941 23.51 19.416 23.97 20 23.97C20.584 23.97 21.059 23.51 21.059 22.94V21.06H22.938C23.506 21.06 23.967 20.58 23.967 20C23.967 19.42 23.506 18.94 22.938 18.94H21.059V17.06C21.059 16.49 20.584 16.03 20 16.03C19.416 16.03 18.941 16.49 18.941 17.06V18.94ZM11.411 18.97H14.185C14.064 19.29 14 19.64 14 20C14 20.34 14.057 20.67 14.164 20.97H5C3.674 20.97 2.402 20.44 1.464 19.51C0.527 18.57 0 17.3 0 15.97C0 13.54 0 10.44 0 8C0 6.67 0.527 5.4 1.464 4.46C2.402 3.53 3.674 3 5 3H16C17.326 3 18.598 3.53 19.536 4.46C20.473 5.4 21 6.67 21 8V14.17C20.687 14.06 20.351 14 20 14C19.649 14 19.313 14.06 19 14.17V8C19 7.2 18.684 6.44 18.121 5.88C17.559 5.32 16.796 5 16 5H5C4.204 5 3.441 5.32 2.879 5.88C2.316 6.44 2 7.2 2 8V15.97C2 16.25 2.04 16.53 2.116 16.8C2.348 16.34 2.655 15.91 3.026 15.54C3.947 14.62 5.196 14.1 6.498 14.1H6.502C7.804 14.1 9.053 14.62 9.974 15.54C10.885 16.45 11.401 17.68 11.411 18.97ZM9.611 18.97H5C4.44 18.97 3.896 18.81 3.427 18.53C3.528 17.88 3.832 17.28 4.299 16.81C4.882 16.23 5.673 15.9 6.498 15.9H6.502C7.327 15.9 8.118 16.23 8.701 16.81C9.275 17.39 9.601 18.16 9.611 18.97ZM12.65 14.9H16.443C16.94 14.9 17.343 14.5 17.343 14C17.343 13.5 16.94 13.1 16.443 13.1H12.65C12.154 13.1 11.75 13.5 11.75 14C11.75 14.5 12.154 14.9 12.65 14.9ZM6.497 7.62C4.913 7.62 3.626 8.91 3.626 10.5C3.626 12.09 4.913 13.38 6.497 13.38C8.081 13.38 9.368 12.09 9.368 10.5C9.368 8.91 8.081 7.62 6.497 7.62ZM6.497 9.42C7.088 9.42 7.568 9.91 7.568 10.5C7.568 11.09 7.088 11.58 6.497 11.58C5.905 11.58 5.426 11.09 5.426 10.5C5.426 9.91 5.905 9.42 6.497 9.42ZM12.65 10.9H16.443C16.94 10.9 17.343 10.5 17.343 10C17.343 9.5 16.94 9.1 16.443 9.1H12.65C12.154 9.1 11.75 9.5 11.75 10C11.75 10.5 12.154 10.9 12.65 10.9Z" fill="black"/>
</svg>
