<svg width="24" height="24" viewBox="0 0 24 24" fill="none" xmlns="http://www.w3.org/2000/svg">
<path fill-rule="evenodd" clip-rule="evenodd" d="M8.95392 11.9996C7.38592 11.9996 5.88192 12.6196 4.77292 13.7296C3.66402 14.8396 3.04102 16.3396 3.04102 17.9096V17.9996C3.04102 19.6596 4.38392 20.9996 6.04092 20.9996H17.9629C19.6199 20.9996 20.9629 19.6596 20.9629 17.9996C20.9629 17.9696 20.9629 17.9396 20.9629 17.9096C20.9629 16.3396 20.3399 14.8396 19.2309 13.7296C18.1219 12.6196 16.6179 11.9996 15.0499 11.9996H8.95392ZM8.95392 13.9996H15.0499C16.0879 13.9996 17.0829 14.4096 17.8169 15.1496C18.5509 15.8796 18.9629 16.8796 18.9629 17.9096V17.9996C18.9629 18.5496 18.5149 18.9996 17.9629 18.9996H6.04092C5.48892 18.9996 5.04092 18.5496 5.04092 17.9996V17.9096C5.04092 16.8796 5.45292 15.8796 6.18692 15.1496C6.92092 14.4096 7.91592 13.9996 8.95392 13.9996ZM11.9939 2.34961C9.71492 2.34961 7.86492 4.20961 7.86492 6.48961C7.86492 8.76961 9.71492 10.6196 11.9939 10.6196C14.2719 10.6196 16.1219 8.76961 16.1219 6.48961C16.1219 4.20961 14.2719 2.34961 11.9939 2.34961ZM11.9939 4.34961C13.1689 4.34961 14.1219 5.30961 14.1219 6.48961C14.1219 7.66961 13.1689 8.61961 11.9939 8.61961C10.8179 8.61961 9.86492 7.66961 9.86492 6.48961C9.86492 5.30961 10.8179 4.34961 11.9939 4.34961Z" fill="black"/>
</svg>
