<svg width="16" height="16" viewBox="0 0 16 16" fill="none" xmlns="http://www.w3.org/2000/svg">
<path fill-rule="evenodd" clip-rule="evenodd" d="M1.06055 10.14C1.06055 11.413 1.56625 12.634 2.46645 13.5341C3.36665 14.4343 4.58755 14.94 5.86065 14.94C7.23255 14.94 8.76735 14.94 10.1393 14.94C11.4123 14.94 12.6332 14.4343 13.5334 13.5341C14.4336 12.634 14.9393 11.413 14.9393 10.14C14.9393 8.7684 14.9393 7.2341 14.9393 5.8625C14.9393 4.5895 14.4336 3.3686 13.5334 2.4684C12.6332 1.5682 11.4123 1.0625 10.1392 1.0625C8.76735 1.0625 7.23255 1.0625 5.86055 1.0625C4.58755 1.0625 3.36665 1.5682 2.46645 2.4684C1.56625 3.3686 1.06055 4.5895 1.06055 5.8625V10.14ZM2.66055 10.14V5.8625C2.66055 5.0138 2.99775 4.1999 3.59785 3.5998C4.19795 2.9997 5.01185 2.6625 5.86055 2.6625H10.1393C10.988 2.6625 11.8019 2.9997 12.402 3.5998C13.0021 4.1999 13.3393 5.0138 13.3393 5.8625V10.14C13.3393 10.9887 13.0021 11.8026 12.402 12.4028C11.8019 13.0029 10.988 13.34 10.1393 13.34H5.86055C5.01185 13.34 4.19795 13.0029 3.59785 12.4028C2.99775 11.8026 2.66055 10.9887 2.66055 10.14ZM5.92535 11.6664L11.2813 5.3944C11.5681 5.0586 11.5283 4.5533 11.1925 4.2665C10.8567 3.9798 10.3514 4.0196 10.0646 4.3554L4.70865 10.6274C4.42185 10.9631 4.46165 11.4685 4.79745 11.7553C5.13325 12.042 5.63855 12.0022 5.92535 11.6664ZM10.3659 8.8927C11.1856 8.8927 11.851 9.5582 11.851 10.3779C11.851 11.1975 11.1856 11.863 10.3659 11.863C9.54625 11.863 8.88085 11.1975 8.88085 10.3779C8.88085 9.5582 9.54625 8.8927 10.3659 8.8927ZM5.62155 4.1388C6.43325 4.1388 7.09235 4.7978 7.09235 5.6095C7.09235 6.4212 6.43325 7.0802 5.62155 7.0802C4.80985 7.0802 4.15085 6.4212 4.15085 5.6095C4.15085 4.7978 4.80985 4.1388 5.62155 4.1388Z" fill="black"/>
</svg>
