<svg width="24" height="24" viewBox="0 0 24 24" fill="none" xmlns="http://www.w3.org/2000/svg">
<path fill-rule="evenodd" clip-rule="evenodd" d="M2.00146 16C2.00146 17.5913 2.63366 19.1174 3.75886 20.2426C4.88406 21.3679 6.41026 22 8.00156 22C10.5 22 13.5151 22 16.0135 22C17.6048 22 19.1309 21.3679 20.2562 20.2426C21.3814 19.1174 22.0135 17.5913 22.0135 16C22.0135 13.505 22.0135 10.495 22.0135 8C22.0135 6.4087 21.3814 4.8826 20.2562 3.7574C19.1309 2.6321 17.6048 2 16.0135 2C13.5151 2 10.5 2 8.00156 2C6.41026 2 4.88406 2.6321 3.75886 3.7574C2.63366 4.8826 2.00146 6.4087 2.00146 8C2.00146 10.495 2.00146 13.505 2.00146 16ZM4.00146 16C4.00146 13.505 4.00146 10.495 4.00146 8C4.00146 6.9391 4.42296 5.9217 5.17306 5.1716C5.92326 4.4214 6.94067 4 8.00156 4C10.5 4 13.5151 4 16.0135 4C17.0744 4 18.0918 4.4214 18.842 5.1716C19.5921 5.9217 20.0135 6.9391 20.0135 8C20.0135 10.495 20.0135 13.505 20.0135 16C20.0135 17.0609 19.5921 18.0783 18.842 18.8284C18.0918 19.5786 17.0744 20 16.0135 20C13.5151 20 10.5 20 8.00156 20C6.94067 20 5.92326 19.5786 5.17306 18.8284C4.42296 18.0783 4.00146 17.0609 4.00146 16ZM15.372 12.5206C13.7657 12.5206 12.4616 13.8247 12.4616 15.431C12.4616 17.0373 13.7657 18.3414 15.372 18.3414C16.9783 18.3414 18.2824 17.0373 18.2824 15.431C18.2824 13.8247 16.9783 12.5206 15.372 12.5206ZM8.82227 17.4255L16.8617 8.0112C17.256 7.5496 17.2013 6.8547 16.7396 6.4604C16.2779 6.0662 15.583 6.1209 15.1888 6.5826L7.14926 15.9968C6.75496 16.4585 6.80976 17.1534 7.27146 17.5477C7.73306 17.9419 8.42797 17.8872 8.82227 17.4255ZM15.372 14.5206C15.8744 14.5206 16.2824 14.9286 16.2824 15.431C16.2824 15.9335 15.8744 16.3414 15.372 16.3414C14.8695 16.3414 14.4616 15.9335 14.4616 15.431C14.4616 14.9286 14.8695 14.5206 15.372 14.5206ZM8.65706 5.7721C7.05076 5.7721 5.74666 7.0762 5.74666 8.6825C5.74666 10.2888 7.05076 11.5929 8.65706 11.5929C10.2634 11.5929 11.5675 10.2888 11.5675 8.6825C11.5675 7.0762 10.2634 5.7721 8.65706 5.7721ZM8.65706 7.7721C9.15946 7.7721 9.56746 8.1801 9.56746 8.6825C9.56746 9.185 9.15946 9.5929 8.65706 9.5929C8.15456 9.5929 7.74667 9.185 7.74667 8.6825C7.74667 8.1801 8.15456 7.7721 8.65706 7.7721Z" fill="black"/>
</svg>
