<svg width="24" height="24" viewBox="0 0 24 24" fill="none" xmlns="http://www.w3.org/2000/svg">
<path fill-rule="evenodd" clip-rule="evenodd" d="M9.5 4.99992H7.5C6.174 4.99992 4.902 5.52992 3.964 6.45992C3.027 7.39992 2.5 8.66992 2.5 9.99992C2.5 11.8799 2.5 14.1199 2.5 15.9999C2.5 18.7599 4.739 20.9999 7.5 20.9999H13.5C14.826 20.9999 16.098 20.4699 17.036 19.5399C17.973 18.5999 18.5 17.3299 18.5 15.9999C18.5 14.8999 18.5 13.9999 18.5 13.9999C18.5 13.4499 18.052 12.9999 17.5 12.9999C16.948 12.9999 16.5 13.4499 16.5 13.9999V15.9999C16.5 16.7999 16.184 17.5599 15.621 18.1199C15.059 18.6799 14.296 18.9999 13.5 18.9999H7.5C5.843 18.9999 4.5 17.6599 4.5 15.9999V9.99992C4.5 9.19992 4.816 8.43992 5.379 7.87992C5.941 7.31992 6.704 6.99992 7.5 6.99992H9.5C10.052 6.99992 10.5 6.54992 10.5 5.99992C10.5 5.44992 10.052 4.99992 9.5 4.99992ZM19.662 4.89992H18.547C13.524 4.89992 9.447 8.97992 9.447 13.9999C9.447 14.6099 9.94 15.0999 10.547 15.0999C11.154 15.0999 11.647 14.6099 11.647 13.9999C11.647 10.1899 14.739 7.09992 18.547 7.09992H19.601L17.797 8.89992C17.407 9.28992 17.407 9.92992 17.797 10.3199C18.187 10.7099 18.821 10.7099 19.211 10.3199L22.853 6.67992C23.243 6.28992 23.243 5.64992 22.853 5.25992L19.239 1.64992C18.849 1.25992 18.215 1.25992 17.825 1.64992C17.435 2.03992 17.435 2.66992 17.825 3.05992L19.662 4.89992Z" fill="black"/>
</svg>
