<svg width="24" height="24" viewBox="0 0 24 24" fill="none" xmlns="http://www.w3.org/2000/svg">
<path fill-rule="evenodd" clip-rule="evenodd" d="M3.68994 17C3.68994 18.3261 4.21674 19.5978 5.15444 20.5355C6.09204 21.4732 7.36384 22 8.68994 22H15.3103C16.6364 22 17.9082 21.4732 18.8458 20.5355C19.7835 19.5978 20.3103 18.3261 20.3103 17C20.3103 13.7658 20.3103 9.2342 20.3103 6C20.3103 4.6739 19.7835 3.4022 18.8458 2.4645C17.9082 1.5268 16.6364 1 15.3103 1H8.68994C7.36384 1 6.09204 1.5268 5.15444 2.4645C4.21674 3.4022 3.68994 4.6739 3.68994 6V17ZM5.68994 17V6C5.68994 5.2044 6.00604 4.4413 6.56864 3.8787C7.13124 3.3161 7.89424 3 8.68984 3H15.3103C16.106 3 16.869 3.3161 17.4316 3.8787C17.9942 4.4413 18.3103 5.2044 18.3103 6V17C18.3103 17.7956 17.9942 18.5587 17.4316 19.1213C16.869 19.6839 16.106 20 15.3104 20H8.68994C7.89424 20 7.13124 19.6839 6.56864 19.1213C6.00604 18.5587 5.68994 17.7956 5.68994 17Z" fill="black"/>
<path fill-rule="evenodd" clip-rule="evenodd" d="M15.3826 10.1633L11.7104 7.3857C11.1879 6.9906 10.4868 6.9252 9.90024 7.217C9.31374 7.5088 8.94284 8.1074 8.94284 8.7625V14.3175C8.94284 14.9726 9.31374 15.5713 9.90024 15.8631C10.4868 16.1549 11.1879 16.0895 11.7104 15.6943L15.3826 12.9168C15.814 12.5905 16.0675 12.0809 16.0675 11.54C16.0675 10.9992 15.814 10.4895 15.3826 10.1633ZM14.219 11.54L10.7428 14.1693V8.9108L14.219 11.54Z" fill="black"/>
</svg>
