<svg width="12" height="12" viewBox="0 0 12 12" fill="none" xmlns="http://www.w3.org/2000/svg">
<path fill-rule="evenodd" clip-rule="evenodd" d="M8.79204 8.23959L9.56404 8.89159C9.57404 8.90059 9.58504 8.90859 9.59604 8.91659C10.076 9.28159 10.792 9.23759 11.187 8.94359C11.565 8.66459 11.789 8.28359 11.8 7.77959V4.23159C11.789 3.68459 11.539 3.25059 11.095 3.01259C10.629 2.76259 9.99304 2.80059 9.57604 3.14059L8.79804 3.77859L8.79904 3.73659C8.79904 3.25859 8.61004 2.79959 8.27204 2.46159C7.93504 2.12359 7.47604 1.93359 6.99904 1.93359C6.21404 1.93359 5.07904 1.93359 4.00904 1.93359C1.91404 1.93359 0.214039 3.62959 0.209039 5.72459C0.208039 5.89759 0.208039 6.07159 0.207039 6.24459C0.205039 7.25459 0.604039 8.22359 1.31704 8.93759C2.03004 9.65259 2.99804 10.0546 4.00704 10.0546H6.99204C7.98504 10.0546 8.79104 9.24959 8.79204 8.25659V8.23959ZM7.19904 3.73359L7.19204 8.25459C7.19204 8.36459 7.10204 8.45459 6.99204 8.45459H4.00704C3.42304 8.45459 2.86304 8.22159 2.45004 7.80759C2.03704 7.39459 1.80604 6.83359 1.80704 6.24859L1.80904 5.72859C1.81204 4.51559 2.79604 3.53359 4.00904 3.53359H6.99904C7.05204 3.53359 7.10304 3.55459 7.14004 3.59259C7.17804 3.62959 7.19904 3.68059 7.19904 3.73359ZM8.79504 5.85159V6.14859L10.2 7.33459V4.69759L8.79504 5.85159Z" fill="black"/>
</svg>
