<svg width="24" height="24" viewBox="0 0 24 24" fill="none" xmlns="http://www.w3.org/2000/svg">
<path d="M20.8567 15.7769C20.8366 15.7792 20.7997 15.7814 20.7755 15.7711C20.7728 15.7698 18.0437 13.467 16.9926 12.5801C16.7419 12.3685 16.5867 12.2375 16.5867 12.2375L15.2968 13.766L16.9886 15.1937L19.515 17.3257C19.5281 17.3367 19.5415 17.3474 19.5551 17.3578C20.298 17.922 21.4055 17.8614 22.0174 17.4076C22.6202 16.9605 22.9834 16.3534 22.9999 15.5476V8.47684C22.9822 7.61794 22.6044 6.92883 21.9071 6.55604C21.1786 6.16343 20.1826 6.21713 19.5295 6.74774L16.9985 8.82715L15.2262 10.2832L16.4959 11.8285L16.9944 11.4189L20.7907 8.29983C20.8369 8.26273 20.9068 8.28884 20.9581 8.31663C20.96 8.31763 20.9619 8.31863 20.9638 8.31963C21.0276 8.35363 20.9987 8.43963 21.0003 8.51793C21.0001 8.49743 21.0001 15.5122 21.0001 15.5122C20.996 15.6263 20.9378 15.7095 20.8567 15.7769Z" fill="black"/>
<path fill-rule="evenodd" clip-rule="evenodd" d="M16.5867 12.2375C16.5867 12.2375 16.7419 12.3685 16.9926 12.5801L16.9944 11.4189L16.4959 11.8285L15.2262 10.2832L16.9985 8.82715L17.0006 7.47345C17.0018 6.67695 16.6863 5.91275 16.1236 5.34915C15.5608 4.78545 14.7971 4.46875 14.0006 4.46875H7.012C3.1533 4.46875 0.0223027 7.59145 0.0120027 11.4502L0.00930268 12.4913C0.00430268 14.351 0.739603 16.1362 2.0529 17.453C3.3662 18.7698 5.1495 19.5098 7.0092 19.5098H13.9865C15.6415 19.5098 16.9839 18.1695 16.9865 16.5146L16.9886 15.1937L15.2968 13.766L16.5867 12.2375ZM14.9865 16.5114L15.0006 7.47025C15.001 7.20485 14.8958 6.95005 14.7083 6.76225C14.5207 6.57435 14.2661 6.46875 14.0006 6.46875H7.012C4.2558 6.46885 2.0194 8.69925 2.012 11.4555L2.0093 12.4965C2.0057 13.825 2.5309 15.1001 3.469 16.0407C4.4071 16.9812 5.6808 17.5098 7.0092 17.5098H13.9865C14.5382 17.5098 14.9857 17.0631 14.9865 16.5114Z" fill="black"/>
<path fill-rule="evenodd" clip-rule="evenodd" d="M6.0074 14.762H11.569C12.9714 14.762 14.11 13.6234 14.11 12.2211C14.11 10.8187 12.9714 9.68011 11.569 9.68011C10.1666 9.68011 9.0281 10.8187 9.0281 12.2211C9.0281 12.5373 9.086 12.8401 9.1918 13.1196H8.3573C8.4554 12.8516 8.5089 12.5622 8.5089 12.2604C8.5089 10.8798 7.388 9.75891 6.0074 9.75891C4.6267 9.75891 3.5058 10.8798 3.5058 12.2604C3.5058 13.6411 4.6267 14.762 6.0074 14.762ZM6.9089 12.2604C6.9089 11.7628 6.505 11.3589 6.0074 11.3589C5.5098 11.3589 5.1058 11.7628 5.1058 12.2604C5.1058 12.758 5.5098 13.162 6.0074 13.162C6.505 13.162 6.9089 12.758 6.9089 12.2604ZM12.51 12.2211C12.51 11.7017 12.0883 11.2801 11.569 11.2801C11.0497 11.2801 10.6281 11.7017 10.6281 12.2211C10.6281 12.7404 11.0497 13.162 11.569 13.162C12.0883 13.162 12.51 12.7404 12.51 12.2211Z" fill="black"/>
</svg>
