<svg width="24" height="24" viewBox="0 0 24 24" fill="none" xmlns="http://www.w3.org/2000/svg">
<path fill-rule="evenodd" clip-rule="evenodd" d="M16.9878 15.1907L19.5148 17.3207C19.5278 17.3407 19.5408 17.3507 19.5548 17.3607C20.2978 17.9207 21.4048 17.8607 22.0168 17.4107C22.6198 16.9607 22.9828 16.3507 22.9998 15.5507V8.4807C22.9818 7.6207 22.6038 6.9307 21.9068 6.5607C21.1788 6.1607 20.1828 6.2207 19.5288 6.7507L16.9978 8.8307L17.0008 7.4707C17.0018 6.6807 16.6858 5.9107 16.1228 5.3507C15.5608 4.7807 14.7968 4.4707 14.0008 4.4707H7.01181C3.15281 4.4707 0.0218144 7.5907 0.0118144 11.4507C0.0108144 11.8007 0.00981437 12.1407 0.00881437 12.4907C0.00381437 14.3507 0.739815 16.1407 2.05281 17.4507C3.36581 18.7707 5.14881 19.5107 7.00881 19.5107C9.49281 19.5107 12.2018 19.5107 13.9858 19.5107C15.6408 19.5107 16.9838 18.1707 16.9858 16.5107L16.9878 15.1907ZM15.0008 7.4707L14.9858 16.5107C14.9858 17.0607 14.5378 17.5107 13.9858 17.5107H7.00881C5.68081 17.5107 4.40681 16.9807 3.46881 16.0407C2.53081 15.1007 2.00581 13.8207 2.00881 12.5007C2.00981 12.1507 2.01081 11.8007 2.01181 11.4507C2.01881 8.7007 4.25581 6.4707 7.01181 6.4707H13.9998C14.2658 6.4707 14.5208 6.5707 14.7078 6.7607C14.8958 6.9507 15.0008 7.2007 15.0008 7.4707ZM16.9928 12.5807C18.0438 13.4707 20.7728 15.7707 20.7748 15.7707C20.7998 15.7807 20.8368 15.7807 20.8568 15.7807C20.9378 15.7107 20.9958 15.6307 20.9998 15.5107C20.9998 15.5107 20.9998 8.5007 20.9998 8.5207C20.9988 8.4407 21.0268 8.3507 20.9638 8.3207C20.9618 8.3207 20.9598 8.3207 20.9578 8.3207C20.9068 8.2907 20.8368 8.2607 20.7908 8.3007L16.9938 11.4207L16.9928 12.5807Z" fill="black"/>
</svg>
