<svg width="16" height="16" viewBox="0 0 16 16" fill="none" xmlns="http://www.w3.org/2000/svg">
<path fill-rule="evenodd" clip-rule="evenodd" d="M4.2152 11.7992H3.5002C2.6252 11.7992 1.7852 11.4512 1.1672 10.8322C0.548195 10.2142 0.200195 9.37422 0.200195 8.49922V3.49922C0.200195 2.62422 0.548195 1.78422 1.1672 1.16622C1.7852 0.547219 2.6252 0.199219 3.5002 0.199219H7.0162C7.8912 0.199219 8.7302 0.547219 9.3492 1.16622C9.9682 1.78422 10.3162 2.62422 10.3162 3.49922V5.19922H12.5002C13.3752 5.19922 14.2152 5.54722 14.8332 6.16622C15.4522 6.78422 15.8002 7.62422 15.8002 8.49922C15.8002 9.45222 15.8002 10.5382 15.8002 11.4912C15.8002 12.3662 15.4522 13.2062 14.8332 13.8242C14.2152 14.4432 13.3752 14.7912 12.5002 14.7912H7.5002C6.6252 14.7912 5.7852 14.4432 5.1672 13.8242C4.6212 13.2792 4.2862 12.5612 4.2152 11.7992ZM12.5002 6.79922C12.9512 6.79922 13.3832 6.97822 13.7022 7.29722C14.0212 7.61622 14.2002 8.04822 14.2002 8.49922V11.4912C14.2002 11.9422 14.0212 12.3742 13.7022 12.6932C13.3832 13.0122 12.9512 13.1912 12.5002 13.1912H7.5002C7.0492 13.1912 6.6172 13.0122 6.2982 12.6932C5.9792 12.3742 5.8002 11.9422 5.8002 11.4912V8.49922C5.8002 8.04822 5.9792 7.61622 6.2982 7.29722C6.6172 6.97822 7.0492 6.79922 7.5002 6.79922H12.5002ZM9.9122 7.91222C9.71819 7.77322 9.4632 7.75422 9.2512 7.86322C9.0392 7.97222 8.9062 8.19022 8.9062 8.42822C8.9062 9.36622 8.9062 10.6492 8.9062 11.5862C8.9062 11.8252 9.0392 12.0432 9.2512 12.1522C9.4632 12.2602 9.71819 12.2412 9.9122 12.1022C10.5992 11.6092 11.4942 10.9662 12.1102 10.5232C12.2772 10.4042 12.3752 10.2122 12.3752 10.0072C12.3752 9.80322 12.2772 9.61122 12.1102 9.49122C11.4942 9.04922 10.5992 8.40622 9.9122 7.91222ZM8.7162 5.19922V3.49922C8.7162 3.04822 8.5372 2.61622 8.2182 2.29722C7.8992 1.97822 7.4672 1.79922 7.0162 1.79922H3.5002C3.0492 1.79922 2.6172 1.97822 2.2982 2.29722C1.9792 2.61622 1.8002 3.04822 1.8002 3.49922V8.49922C1.8002 8.95022 1.9792 9.38222 2.2982 9.70122C2.6172 10.0202 3.0492 10.1992 3.5002 10.1992H4.2002V8.49922C4.2002 7.62422 4.5482 6.78422 5.1672 6.16622C5.7852 5.54722 6.6252 5.19922 7.5002 5.19922H8.7162Z" fill="black"/>
</svg>
