<svg width="24" height="24" viewBox="0 0 24 24" fill="none" xmlns="http://www.w3.org/2000/svg">
<path fill-rule="evenodd" clip-rule="evenodd" d="M16.9886 15.1937L19.515 17.3258C19.5281 17.3368 19.5415 17.3475 19.5551 17.3579C20.298 17.9221 21.4055 17.8615 22.0174 17.4076C22.6202 16.9606 22.9834 16.3535 22.9999 15.5477V8.47685C22.9822 7.61795 22.6044 6.92885 21.9071 6.55605C21.1786 6.16345 20.1826 6.21715 19.5295 6.74775L16.9985 8.82715L17.0006 7.47345C17.0018 6.67695 16.6863 5.91275 16.1236 5.34915C15.5608 4.78545 14.7971 4.46875 14.0006 4.46875H7.012C3.1533 4.46875 0.0223027 7.59145 0.0120027 11.4502C0.0111027 11.7965 0.0102027 12.1448 0.00930268 12.4913C0.00430268 14.351 0.739603 16.1362 2.0529 17.453C3.3662 18.7698 5.1495 19.5098 7.0092 19.5098C9.4927 19.5098 12.2018 19.5098 13.9865 19.5098C15.6415 19.5098 16.9839 18.1695 16.9865 16.5146L16.9886 15.1937ZM15.0006 7.47025L14.9865 16.5114C14.9857 17.0631 14.5382 17.5098 13.9865 17.5098H7.0092C5.6808 17.5098 4.4071 16.9812 3.469 16.0407C2.5309 15.1001 2.0057 13.8249 2.0093 12.4965C2.0102 12.1501 2.0111 11.8018 2.012 11.4555C2.0194 8.69925 4.2558 6.46885 7.012 6.46875H14.0006C14.2661 6.46875 14.5207 6.57435 14.7083 6.76225C14.8958 6.95005 15.001 7.20485 15.0006 7.47025ZM7.1327 12.4632L7.1306 10.1333C7.1301 9.58135 6.6816 9.13365 6.1297 9.13415C5.5778 9.13465 5.1301 9.58315 5.1306 10.135L5.1348 14.8615C5.1353 15.4118 5.5806 15.8584 6.131 15.8605L10.8713 15.8786C11.4232 15.8808 11.873 15.4345 11.8751 14.8826C11.8772 14.3307 11.4309 13.8808 10.879 13.8787L8.5544 13.8698L12.604 9.82025C12.9943 9.42995 12.9943 8.79625 12.604 8.40595C12.2138 8.01575 11.5801 8.01575 11.1898 8.40595L7.1327 12.4632ZM16.9926 12.5801C18.0438 13.4671 20.7728 15.7699 20.7755 15.7712C20.7997 15.7815 20.8366 15.7793 20.8567 15.7769C20.9378 15.7095 20.996 15.6264 21.0001 15.5122C21.0001 15.5122 21.0001 8.49745 21.0003 8.51795C20.9987 8.43965 21.0276 8.35365 20.9638 8.31965C20.9619 8.31865 20.96 8.31765 20.9581 8.31665C20.9068 8.28885 20.8369 8.26275 20.7907 8.29985L16.9944 11.419L16.9926 12.5801Z" fill="black"/>
</svg>
