<svg width="16" height="16" viewBox="0 0 16 16" fill="none" xmlns="http://www.w3.org/2000/svg">
<path fill-rule="evenodd" clip-rule="evenodd" d="M6.02411 2.62389C6.59611 1.84289 7.51811 1.33789 8.55811 1.33789C10.2961 1.33789 11.7071 2.74889 11.7071 4.48689C11.7071 5.13989 11.5081 5.74589 11.1681 6.24889C11.5371 6.70789 11.7521 7.27389 11.7771 7.86489L13.3461 6.67889C13.8171 6.27889 14.5231 6.24389 15.0421 6.54689C15.5061 6.81689 15.7751 7.30989 15.7871 7.93089V12.0359C15.7761 12.6129 15.5301 13.0429 15.1331 13.3629C14.6941 13.7169 13.9011 13.7719 13.3641 13.3429L11.7701 12.1429C11.7011 13.6249 10.4761 14.8029 8.97711 14.8029H4.98311C3.71011 14.8029 2.48911 14.2969 1.58911 13.3969C0.689106 12.4969 0.183105 11.2759 0.183105 10.0029V9.99989C0.183105 8.78189 0.637105 7.66889 1.38511 6.82289C0.744106 6.24989 0.341105 5.41489 0.341105 4.48689C0.341105 2.74889 1.75211 1.33789 3.49011 1.33789C4.53011 1.33789 5.45311 1.84289 6.02411 2.62389ZM6.42811 6.79989H5.62111C5.06211 7.31989 4.31311 7.63589 3.49011 7.63589C3.28711 7.63589 3.08811 7.61689 2.89611 7.57789C2.21411 8.16289 1.78311 9.03089 1.78311 9.99989V10.0029C1.78311 10.8509 2.12011 11.6649 2.72011 12.2649C3.32011 12.8659 4.13411 13.2029 4.98311 13.2029H8.97711C9.6391 13.2029 10.1761 12.6669 10.1771 12.0049C10.1791 10.7829 10.1821 9.22489 10.1841 8.00189C10.1851 7.74989 10.1051 7.50489 9.96011 7.30289C9.53811 7.51689 9.06211 7.63589 8.55811 7.63589C7.73611 7.63589 6.98711 7.31989 6.42811 6.79989ZM11.7811 9.86789L11.7801 10.1479L14.1871 11.9589L14.1861 8.04889L11.7811 9.86789ZM8.55811 2.93789C9.41311 2.93789 10.1071 3.63189 10.1071 4.48689C10.1071 5.34189 9.41311 6.03589 8.55811 6.03589C7.70411 6.03589 7.00911 5.34189 7.00911 4.48689C7.00911 3.63189 7.70411 2.93789 8.55811 2.93789ZM3.49011 2.93789C4.34511 2.93789 5.03911 3.63189 5.03911 4.48689C5.03911 5.34189 4.34511 6.03589 3.49011 6.03589C2.63511 6.03589 1.94111 5.34189 1.94111 4.48689C1.94111 3.63189 2.63511 2.93789 3.49011 2.93789Z" fill="black"/>
</svg>
