<svg width="24" height="24" viewBox="0 0 24 24" fill="none" xmlns="http://www.w3.org/2000/svg">
<path fill-rule="evenodd" clip-rule="evenodd" d="M8.29066 3.10333C6.87166 2.76323 5.31366 3.14443 4.20666 4.24613C3.09966 5.34853 2.71666 6.90013 3.05566 8.31423C1.81136 9.07393 0.980957 10.4419 0.980957 12.001C0.980957 13.5601 1.81126 14.928 3.05566 15.6882C2.71666 17.1017 3.09966 18.6534 4.20666 19.7559C5.31366 20.8577 6.87166 21.2388 8.29066 20.8986C9.05266 22.1377 10.4247 22.9658 11.9897 22.9658C13.5547 22.9658 14.9267 22.1377 15.6897 20.8985C17.1077 21.2388 18.6667 20.8577 19.7727 19.7559C20.8807 18.6535 21.2637 17.1018 20.9237 15.6878C22.1687 14.928 22.9987 13.5601 22.9987 12.001C22.9987 10.4419 22.1687 9.07393 20.9237 8.31383C21.2637 6.90023 20.8807 5.34853 19.7727 4.24613C18.6667 3.14433 17.1077 2.76323 15.6887 3.10333C14.9267 1.86433 13.5547 1.03613 11.9897 1.03613C10.4247 1.03613 9.05366 1.86413 8.29066 3.10333ZM8.34966 5.24323C8.61166 5.37833 8.91966 5.39123 9.19166 5.27843C9.46366 5.16573 9.67266 4.93863 9.76166 4.65803C10.0607 3.71723 10.9467 3.03613 11.9897 3.03613C13.0337 3.03613 13.9187 3.71723 14.2187 4.65803C14.3077 4.93863 14.5167 5.16573 14.7887 5.27843C15.0607 5.39123 15.3687 5.37833 15.6297 5.24323C16.5117 4.78813 17.6227 4.92793 18.3617 5.66343C19.0977 6.39593 19.2387 7.49813 18.7837 8.37173C18.6467 8.63393 18.6327 8.94313 18.7457 9.21623C18.8597 9.48943 19.0877 9.69853 19.3697 9.78743C20.3127 10.0852 20.9987 10.9636 20.9987 12.001C20.9987 13.0384 20.3127 13.9168 19.3697 14.2145C19.0877 14.3035 18.8597 14.5126 18.7457 14.7858C18.6327 15.0589 18.6467 15.3681 18.7837 15.6303C19.2387 16.5039 19.0977 17.606 18.3617 18.3385C17.6227 19.0741 16.5117 19.2139 15.6297 18.7588C15.3687 18.6236 15.0607 18.6107 14.7887 18.7235C14.5167 18.8363 14.3077 19.0633 14.2187 19.344C13.9187 20.2848 13.0337 20.9658 11.9897 20.9658C10.9467 20.9658 10.0607 20.2848 9.76166 19.344C9.67266 19.0633 9.46366 18.8363 9.19166 18.7235C8.91966 18.6107 8.61166 18.6236 8.34966 18.7588C7.46866 19.2139 6.35666 19.0741 5.61766 18.3385C4.88266 17.606 4.74166 16.5039 5.19666 15.6303C5.33366 15.3681 5.34666 15.0589 5.23366 14.7858C5.12066 14.5126 4.89266 14.3035 4.61066 14.2145C3.66666 13.9168 2.98066 13.0384 2.98066 12.001C2.98066 10.9636 3.66666 10.0852 4.61066 9.78743C4.89266 9.69853 5.12066 9.48943 5.23366 9.21623C5.34666 8.94313 5.33366 8.63393 5.19666 8.37173C4.74166 7.49813 4.88266 6.39593 5.61766 5.66343C6.35666 4.92793 7.46866 4.78813 8.34966 5.24323ZM11.9587 7.53803C11.4057 7.11993 10.6647 7.05073 10.0437 7.35943C9.42366 7.66813 9.03066 8.30143 9.03066 8.99453C9.03066 10.705 9.03066 13.3557 9.03066 15.0662C9.03066 15.7593 9.42366 16.3926 10.0437 16.7013C10.6647 17.01 11.4057 16.9408 11.9587 16.5227C13.1707 15.6061 14.9287 14.2761 15.9727 13.4869C16.4287 13.1417 16.6967 12.6026 16.6967 12.0304C16.6967 11.4581 16.4287 10.919 15.9727 10.5738L11.9587 7.53803ZM11.0307 14.7169L14.5827 12.0304L11.0307 9.34383V14.7169Z" fill="black"/>
</svg>
