<svg width="16" height="16" viewBox="0 0 16 16" fill="none" xmlns="http://www.w3.org/2000/svg">
<path fill-rule="evenodd" clip-rule="evenodd" d="M3.2172 12.3962V14.4512C3.2172 15.0262 3.5602 15.5462 4.0892 15.7732C4.6182 15.9992 5.2312 15.8882 5.6472 15.4912L7.4212 13.7992H9.0002C12.2032 13.7992 14.8002 11.2022 14.8002 7.99922C14.8002 7.66622 14.8002 7.33222 14.8002 6.99922C14.8002 3.79622 12.2032 1.19922 9.0002 1.19922H7.0002C3.7972 1.19922 1.2002 3.79622 1.2002 6.99922C1.2002 7.33222 1.2002 7.66622 1.2002 7.99922C1.2002 9.75722 1.9812 11.3332 3.2172 12.3962ZM4.8172 14.0712V12.0122C4.8172 11.7592 4.6982 11.5212 4.4952 11.3702C3.4662 10.6052 2.8002 9.38022 2.8002 7.99922C2.8002 7.66622 2.8002 7.33222 2.8002 6.99922C2.8002 4.67922 4.6802 2.79922 7.0002 2.79922H9.0002C11.3202 2.79922 13.2002 4.67922 13.2002 6.99922C13.2002 7.33222 13.2002 7.66622 13.2002 7.99922C13.2002 10.3192 11.3202 12.1992 9.0002 12.1992H7.1002C6.8952 12.1992 6.6972 12.2782 6.5482 12.4202L4.8172 14.0712ZM7.1762 4.66422C6.9832 4.52522 6.7282 4.50622 6.5162 4.61522C6.3042 4.72422 6.1702 4.94222 6.1702 5.18022C6.1702 6.46822 6.1702 8.47122 6.1702 9.75922C6.1702 9.99722 6.3042 10.2152 6.5162 10.3242C6.7282 10.4332 6.9832 10.4142 7.1762 10.2752C8.1252 9.59322 9.5232 8.58922 10.3642 7.98622C10.5302 7.86622 10.6282 7.67422 10.6282 7.47022C10.6282 7.26522 10.5302 7.07322 10.3642 6.95322C9.5232 6.35022 8.1252 5.34622 7.1762 4.66422Z" fill="black"/>
</svg>
