<svg width="24" height="24" viewBox="0 0 24 24" fill="none" xmlns="http://www.w3.org/2000/svg">
<path fill-rule="evenodd" clip-rule="evenodd" d="M16.9881 15.1937L19.5151 17.3258C19.5281 17.3368 19.5411 17.3475 19.5551 17.3579C20.2981 17.9221 21.4051 17.8615 22.0171 17.4076C22.6201 16.9606 22.9831 16.3535 23.0001 15.5477V8.47685C22.9821 7.61795 22.6041 6.92885 21.9071 6.55605C21.1791 6.16345 20.1831 6.21715 19.5291 6.74775L16.9981 8.82715L17.0011 7.47345C17.0021 6.67695 16.6861 5.91275 16.1231 5.34915C15.5611 4.78545 14.7971 4.46875 14.0011 4.46875H7.0121C3.1533 4.46875 0.0223027 7.59145 0.0120027 11.4502C0.0111027 11.7965 0.0102027 12.1448 0.00930268 12.4913C0.00430268 14.351 0.739603 16.1362 2.0529 17.453C3.3662 18.7698 5.1491 19.5098 7.0091 19.5098C9.4931 19.5098 12.2021 19.5098 13.9861 19.5098C15.6411 19.5098 16.9841 18.1695 16.9861 16.5146L16.9881 15.1937ZM15.0011 7.47025L14.9861 16.5114C14.9861 17.0631 14.5381 17.5098 13.9861 17.5098H7.0091C5.6811 17.5098 4.4071 16.9812 3.469 16.0407C2.5309 15.1001 2.0057 13.8249 2.0093 12.4965C2.0102 12.1501 2.0111 11.8018 2.012 11.4555C2.0194 8.69925 4.2561 6.46885 7.0121 6.46875H14.0001C14.2661 6.46875 14.5211 6.57435 14.7081 6.76225C14.8961 6.95005 15.0011 7.20485 15.0011 7.47025ZM16.9931 12.5801C18.0441 13.4671 20.7731 15.7699 20.7751 15.7712C20.8001 15.7815 20.8371 15.7793 20.8571 15.7769C20.9381 15.7095 20.9961 15.6264 21.0001 15.5122C21.0001 15.5122 21.0001 8.49745 21.0001 8.51795C20.9991 8.43965 21.0271 8.35365 20.9641 8.31965C20.9621 8.31865 20.9601 8.31765 20.9581 8.31665C20.9071 8.28885 20.8371 8.26275 20.7911 8.29985L16.9941 11.419L16.9931 12.5801ZM9.0441 10.3036L7.3221 8.58175C6.8541 8.11345 6.0931 8.11345 5.6251 8.58175C5.1561 9.05005 5.1561 9.81055 5.6251 10.2789L7.3471 12.0008L5.6251 13.7227C5.1561 14.191 5.1561 14.9515 5.6251 15.4198C6.0931 15.8881 6.8541 15.8881 7.3221 15.4198L9.0441 13.6979L10.7661 15.4198C11.2341 15.8881 11.9941 15.8881 12.4631 15.4198C12.9311 14.9515 12.9311 14.191 12.4631 13.7227L10.7411 12.0008L12.4631 10.2789C12.9311 9.81055 12.9311 9.05005 12.4631 8.58175C11.9941 8.11345 11.2341 8.11345 10.7661 8.58175L9.0441 10.3036Z" fill="black"/>
</svg>
