<svg width="16" height="16" viewBox="0 0 16 16" fill="none" xmlns="http://www.w3.org/2000/svg">
<path fill-rule="evenodd" clip-rule="evenodd" d="M2.11803 3.93184L2.11503 3.93484L3.25703 5.07684L3.26003 5.07384L9.63803 11.4518L9.63503 11.4548L10.777 12.5958L10.78 12.5928L12.923 14.7368C13.254 15.0678 13.793 15.0678 14.125 14.7368C14.456 14.4048 14.456 13.8658 14.125 13.5338L11.698 11.1078C11.75 10.8988 11.777 10.6808 11.777 10.4568V10.3838L13.29 11.6438C13.834 12.0568 14.644 12.0098 15.092 11.6778C15.527 11.3548 15.789 10.9158 15.801 10.3338V5.64284C15.788 5.01784 15.509 4.51884 15.001 4.24684C14.471 3.96184 13.745 4.00284 13.27 4.38884L11.784 5.60984V5.55584C11.786 4.81284 11.491 4.09984 10.966 3.57384C10.441 3.04784 9.72803 2.75184 8.98403 2.75184H5.43303C4.80803 2.75184 4.20803 2.86084 3.65303 3.06184L1.55403 0.963844C1.22203 0.631844 0.684027 0.631844 0.352027 0.963844C0.0200273 1.29484 0.0200273 1.83384 0.352027 2.16584L2.11803 3.93184ZM0.830027 5.47784C0.417027 6.22584 0.183027 7.08684 0.183027 8.00184C0.183027 9.39484 0.736027 10.7298 1.72103 11.7148C2.70503 12.6988 4.04103 13.2518 5.43303 13.2518H8.60403L7.00403 11.6518H5.43303C4.46503 11.6518 3.53603 11.2678 2.85203 10.5828C2.16703 9.89884 1.78303 8.96984 1.78303 8.00184C1.78303 7.53584 1.87003 7.08984 2.03303 6.68084L0.830027 5.47784ZM11.781 7.68284L11.78 8.30384L14.199 10.3198C14.2 10.3148 14.2 10.3098 14.201 10.3048L14.2 5.69584L11.781 7.68284ZM10.178 9.58784L10.184 5.55384C10.185 5.23484 10.059 4.92984 9.83403 4.70384C9.60903 4.47884 9.30303 4.35184 8.98403 4.35184H5.43303C5.27703 4.35184 5.12403 4.36184 4.97403 4.38384L10.178 9.58784Z" fill="black"/>
</svg>
