<svg width="12" height="12" viewBox="0 0 12 12" fill="none" xmlns="http://www.w3.org/2000/svg">
<path fill-rule="evenodd" clip-rule="evenodd" d="M2.19541 3.38211V2.92031C2.19541 1.48441 3.35941 0.320312 4.79531 0.320312H9.21551C10.6514 0.320312 11.8154 1.48441 11.8154 2.92031C11.8154 3.89331 11.8154 5.09131 11.8154 6.06431C11.8154 7.29991 10.9535 8.33421 9.79801 8.59881V9.05351C9.79801 10.4895 8.63391 11.6535 7.19801 11.6535C5.88711 11.6535 4.11891 11.6535 2.80801 11.6535C1.37211 11.6535 0.208008 10.4895 0.208008 9.05351C0.208008 8.08051 0.208008 6.88251 0.208008 5.90951C0.208008 4.68471 1.05501 3.65761 2.19541 3.38211ZM7.19801 4.90951C7.75031 4.90951 8.19791 5.35721 8.19801 5.90951V9.05351C8.19791 9.60581 7.75031 10.0535 7.19801 10.0535H2.80801C2.25581 10.0535 1.80811 9.60581 1.80801 9.05361V5.90951C1.80811 5.35721 2.25571 4.90951 2.80801 4.90951H7.19801ZM4.78001 5.75081C4.58651 5.61181 4.33151 5.59281 4.11951 5.70161C3.90751 5.81031 3.77411 6.02861 3.77411 6.26691C3.77411 6.99981 3.77411 7.92501 3.77411 8.65791C3.77411 8.89621 3.90751 9.11441 4.11951 9.22321C4.33151 9.33201 4.58651 9.31301 4.78001 9.17401C5.31511 8.78971 5.96061 8.32611 6.44481 7.97841C6.61101 7.85911 6.70951 7.66701 6.70951 7.46241C6.70951 7.25781 6.61101 7.06571 6.44481 6.94641C5.96061 6.59861 5.31511 6.13511 4.78001 5.75081ZM9.79801 6.87721C10.0508 6.69581 10.2154 6.39931 10.2154 6.06431V2.92021C10.2154 2.36801 9.76771 1.92031 9.21551 1.92031H4.79531C4.24311 1.92031 3.79541 2.36801 3.79541 2.92031V3.30951H7.19801C8.63391 3.30951 9.79801 4.47361 9.79801 5.90951V6.87721Z" fill="black"/>
</svg>
