<svg width="24" height="24" viewBox="0 0 24 24" fill="none" xmlns="http://www.w3.org/2000/svg">
<path fill-rule="evenodd" clip-rule="evenodd" d="M5.085 6.087C5.267 5.1 5.745 4.184 6.464 3.464C7.402 2.527 8.674 2 10 2H18C19.326 2 20.598 2.527 21.536 3.464C22.473 4.402 23 5.674 23 7C23 8.886 23 11.13 23 13.015C23 14.341 22.473 15.613 21.536 16.551C20.816 17.27 19.901 17.747 18.915 17.928C18.733 18.915 18.255 19.831 17.536 20.551C16.598 21.488 15.326 22.015 14 22.015H6C4.674 22.015 3.402 21.488 2.464 20.551C1.527 19.613 1 18.341 1 17.015C1 15.13 1 12.886 1 11C1 9.674 1.527 8.402 2.464 7.464C3.184 6.745 4.099 6.268 5.085 6.087ZM14 20.015H6C5.204 20.015 4.441 19.699 3.879 19.136C3.316 18.574 3 17.811 3 17.015V11C3 10.204 3.316 9.441 3.879 8.879C4.441 8.316 5.204 8 6 8H14C14.796 8 15.559 8.316 16.121 8.879C16.684 9.441 17 10.204 17 11V17.015C17 17.811 16.684 18.574 16.121 19.136C15.559 19.699 14.796 20.015 14 20.015ZM13.587 12.62L9.914 9.842C9.392 9.447 8.691 9.382 8.104 9.673C7.518 9.965 7.147 10.564 7.147 11.219C7.147 12.806 7.147 15.187 7.147 16.774C7.147 17.429 7.518 18.028 8.104 18.32C8.691 18.611 9.392 18.546 9.914 18.151L13.587 15.373C14.018 15.047 14.272 14.537 14.272 13.996C14.272 13.456 14.018 12.946 13.587 12.62ZM8.947 16.626L12.423 13.996L8.947 11.367V16.626ZM19 15.84C19.418 15.696 19.802 15.456 20.121 15.136C20.684 14.574 21 13.811 21 13.015V7C21 6.204 20.684 5.441 20.121 4.879C19.559 4.316 18.796 4 18 4H10C9.204 4 8.441 4.316 7.879 4.879C7.56 5.197 7.32 5.58 7.175 6H14C15.326 6 16.598 6.527 17.536 7.464C18.473 8.402 19 9.674 19 11V15.84Z" fill="black"/>
</svg>
