<svg width="16" height="16" viewBox="0 0 16 16" fill="none" xmlns="http://www.w3.org/2000/svg">
<path fill-rule="evenodd" clip-rule="evenodd" d="M11.7771 10.382L13.2621 11.62C13.2711 11.627 13.2801 11.635 13.2901 11.642C13.8341 12.055 14.6441 12.008 15.0921 11.676C15.5271 11.353 15.7891 10.914 15.8011 10.332V5.641C15.7881 5.016 15.5091 4.517 15.0011 4.245C14.4711 3.96 13.7451 4.001 13.2701 4.387L11.7841 5.608V5.554C11.7861 4.811 11.4911 4.098 10.9661 3.572C10.4411 3.046 9.72811 2.75 8.98411 2.75H5.43311C2.53311 2.75 0.183105 5.101 0.183105 8C0.183105 9.393 0.736105 10.728 1.72111 11.713C2.70511 12.697 4.04111 13.25 5.43311 13.25C6.67211 13.25 7.95711 13.25 8.97711 13.25C10.5221 13.25 11.7751 11.999 11.7771 10.455V10.382ZM8.98411 4.35H5.43311C3.41711 4.35 1.78311 5.984 1.78311 8C1.78311 8.968 2.16711 9.897 2.85211 10.581C3.53611 11.266 4.46511 11.65 5.43311 11.65H8.97711C9.6391 11.65 10.1761 11.114 10.1771 10.452L10.1841 5.552C10.1851 5.233 10.0591 4.928 9.83411 4.702C9.60911 4.477 9.30311 4.35 8.98411 4.35ZM11.7811 7.681L11.7801 8.302L14.1991 10.318C14.2001 10.313 14.2001 10.308 14.2011 10.303L14.2001 5.694L11.7811 7.681Z" fill="black"/>
</svg>
