<svg width="24" height="24" viewBox="0 0 24 24" fill="none" xmlns="http://www.w3.org/2000/svg">
<path fill-rule="evenodd" clip-rule="evenodd" d="M2 16C2 18.76 4.239 21 7 21C9.977 21 14.024 21 17.002 21C19.763 21 22.002 18.76 22.002 16C22.002 13.56 22.002 10.44 22.002 8C22.002 5.24 19.763 3 17.002 3C14.024 3 9.977 3 7 3C4.239 3 2 5.24 2 8V16ZM4 16V8C4 6.34 5.343 5 7 5C9.977 5 14.024 5 17.002 5C18.658 5 20.002 6.34 20.002 8V16C20.002 17.66 18.658 19 17.002 19C14.024 19 9.977 19 7 19C5.343 19 4 17.66 4 16ZM6 11C6 11.27 6.105 11.52 6.293 11.71C6.48 11.89 6.735 12 7 12C8.11 12 9.89 12 11 12C11.265 12 11.52 11.89 11.707 11.71C11.895 11.52 12 11.27 12 11C12 10.13 12 8.87 12 8C12 7.73 11.895 7.48 11.707 7.29C11.52 7.11 11.265 7 11 7C9.89 7 8.11 7 7 7C6.735 7 6.48 7.11 6.293 7.29C6.105 7.48 6 7.73 6 8C6 8.87 6 10.13 6 11Z" fill="black"/>
</svg>
