<svg width="16" height="16" viewBox="0 0 16 16" fill="none" xmlns="http://www.w3.org/2000/svg">
<path fill-rule="evenodd" clip-rule="evenodd" d="M10.1311 11.13H8.63911C8.17011 11.13 7.78911 11.511 7.78911 11.98C7.78911 12.449 8.17011 12.83 8.63911 12.83H10.1311V14.323C10.1311 14.792 10.5121 15.173 10.9811 15.173C11.4501 15.173 11.8311 14.792 11.8311 14.323V12.83H13.3241C13.7931 12.83 14.1741 12.449 14.1741 11.98C14.1741 11.511 13.7931 11.13 13.3241 11.13H11.8311V9.638C11.8311 9.169 11.4501 8.788 10.9811 8.788C10.5121 8.788 10.1311 9.169 10.1311 9.638V11.13ZM6.78311 13.25C6.53411 12.889 6.38911 12.452 6.38911 11.98C6.38911 11.868 6.39711 11.758 6.41611 11.65H5.43311C4.46511 11.65 3.53611 11.266 2.85211 10.581C2.16711 9.897 1.78311 8.968 1.78311 8C1.78311 5.984 3.41711 4.35 5.43311 4.35H8.98411C9.30311 4.35 9.60911 4.477 9.83411 4.702C10.0591 4.928 10.1851 5.233 10.1841 5.552L10.1811 7.537C10.4301 7.44 10.6991 7.388 10.9811 7.388C11.3081 7.388 11.6191 7.458 11.8991 7.584L14.2001 5.694L14.2011 9.91C14.8041 10.164 15.2721 10.675 15.4691 11.306C15.6751 11.04 15.7931 10.717 15.8011 10.332V5.641C15.7881 5.016 15.5091 4.517 15.0011 4.245C14.4711 3.96 13.7451 4.001 13.2701 4.387L11.7841 5.608V5.554C11.7861 4.811 11.4911 4.098 10.9661 3.572C10.4411 3.046 9.72811 2.75 8.98411 2.75H5.43311C2.53311 2.75 0.183105 5.101 0.183105 8C0.183105 9.393 0.736105 10.728 1.72111 11.713C2.70511 12.697 4.04111 13.25 5.43311 13.25H6.78311ZM6.01011 6.501C6.83311 6.501 7.50211 7.17 7.50211 7.993C7.50211 8.817 6.83311 9.486 6.01011 9.486C5.18611 9.486 4.51811 8.817 4.51811 7.993C4.51811 7.17 5.18611 6.501 6.01011 6.501Z" fill="black"/>
</svg>
