<svg width="24" height="24" viewBox="0 0 24 24" fill="none" xmlns="http://www.w3.org/2000/svg">
<path fill-rule="evenodd" clip-rule="evenodd" d="M16.8748 17.3209L19.9728 20.4209C20.4018 20.8509 20.4018 21.5409 19.9728 21.9709C19.5428 22.4009 18.8458 22.4009 18.4168 21.9709L0.403814 3.96094C-0.0251856 3.53094 -0.0251856 2.83094 0.403814 2.40094C0.833814 1.98094 1.53081 1.98094 1.95981 2.40094L4.49381 4.94094C5.27481 4.63094 6.12381 4.47094 7.01181 4.47094H14.0008C14.7968 4.47094 15.5608 4.78094 16.1228 5.35094C16.6858 5.91094 17.0018 6.68094 17.0008 7.47094L16.9978 8.83094L19.5288 6.75094C20.1828 6.22094 21.1788 6.16094 21.9068 6.56094C22.6038 6.93094 22.9818 7.62094 22.9998 8.48094V15.5509C22.9828 16.3509 22.6198 16.9609 22.0168 17.4109C21.4048 17.8609 20.2978 17.9209 19.5548 17.3609C19.5408 17.3509 19.5278 17.3409 19.5148 17.3209L16.9878 15.1909L16.9858 16.5109C16.9858 16.7909 16.9468 17.0609 16.8748 17.3209ZM1.19681 7.57094L2.65081 9.03094C2.24481 9.74094 2.01381 10.5709 2.01181 11.4509C2.01081 11.8009 2.00981 12.1509 2.00881 12.5009C2.00581 13.8209 2.53081 15.1009 3.46881 16.0409C4.40681 16.9809 5.68081 17.5109 7.00881 17.5109H11.1338L13.1338 19.5109H7.00881C5.14881 19.5109 3.36581 18.7709 2.05281 17.4509C0.739815 16.1409 0.00381437 14.3509 0.00881437 12.4909C0.00981437 12.1409 0.0108144 11.8009 0.0118144 11.4509C0.0158144 10.0109 0.451814 8.68094 1.19681 7.57094ZM16.9928 12.5809C18.0438 13.4709 20.7728 15.7709 20.7748 15.7709C20.7998 15.7809 20.8368 15.7809 20.8568 15.7809C20.9378 15.7109 20.9958 15.6309 20.9998 15.5109C20.9998 15.5109 20.9998 8.50094 20.9998 8.52094C20.9988 8.44094 21.0268 8.35094 20.9638 8.32094C20.9618 8.32094 20.9598 8.32094 20.9578 8.32094C20.9068 8.29094 20.8368 8.26094 20.7908 8.30094L16.9938 11.4209L16.9928 12.5809ZM14.9878 15.4309L6.10781 6.55094C6.40081 6.50094 6.70281 6.47094 7.01181 6.47094H13.9998C14.2658 6.47094 14.5208 6.57094 14.7078 6.76094C14.8958 6.95094 15.0008 7.20094 15.0008 7.47094L14.9878 15.4309Z" fill="black"/>
</svg>
