<svg width="16" height="16" viewBox="0 0 16 16" fill="none" xmlns="http://www.w3.org/2000/svg">
<path fill-rule="evenodd" clip-rule="evenodd" d="M11.5002 2.19922C9.4472 2.19922 6.55319 2.19922 4.5002 2.19922C3.6252 2.19922 2.7852 2.54722 2.1672 3.16622C1.5482 3.78422 1.2002 4.62422 1.2002 5.49922C1.2002 7.02422 1.2002 8.96622 1.2002 10.4912C1.2002 11.3662 1.5482 12.2062 2.1672 12.8242C2.7852 13.4432 3.6252 13.7912 4.5002 13.7912C6.55319 13.7912 9.4472 13.7912 11.5002 13.7912C12.3752 13.7912 13.2152 13.4432 13.8332 12.8242C14.4522 12.2062 14.8002 11.3662 14.8002 10.4912C14.8002 8.96622 14.8002 7.02422 14.8002 5.49922C14.8002 4.62422 14.4522 3.78422 13.8332 3.16622C13.2152 2.54722 12.3752 2.19922 11.5002 2.19922ZM11.5002 3.79922C11.9512 3.79922 12.3832 3.97822 12.7022 4.29722C13.0212 4.61622 13.2002 5.04822 13.2002 5.49922C13.2002 7.02422 13.2002 8.96622 13.2002 10.4912C13.2002 10.9422 13.0212 11.3742 12.7022 11.6932C12.3832 12.0122 11.9512 12.1912 11.5002 12.1912H4.5002C4.0492 12.1912 3.6172 12.0122 3.2982 11.6932C2.9792 11.3742 2.8002 10.9422 2.8002 10.4912C2.8002 8.96622 2.8002 7.02422 2.8002 5.49922C2.8002 5.04822 2.9792 4.61622 3.2982 4.29722C3.6172 3.97822 4.0492 3.79922 4.5002 3.79922H11.5002ZM7.0142 5.11922C6.8212 4.98022 6.5662 4.96122 6.3542 5.06922C6.1422 5.17822 6.0082 5.39622 6.0082 5.63522C6.0082 6.95822 6.0082 9.04522 6.0082 10.3682C6.0082 10.6072 6.1422 10.8252 6.3542 10.9342C6.5662 11.0422 6.8212 11.0232 7.0142 10.8842C7.9902 10.1842 9.4462 9.13822 10.3102 8.51822C10.4762 8.39822 10.5752 8.20622 10.5752 8.00222C10.5752 7.79722 10.4762 7.60522 10.3102 7.48622C9.4462 6.86522 7.9902 5.81922 7.0142 5.11922Z" fill="black"/>
</svg>
