<svg width="24" height="24" viewBox="0 0 24 24" fill="none" xmlns="http://www.w3.org/2000/svg">
<path fill-rule="evenodd" clip-rule="evenodd" d="M16.9931 15.1978L19.5151 17.3258C19.5281 17.3368 19.5411 17.3477 19.5551 17.3577C20.2981 17.9218 21.4051 17.8617 22.0171 17.4078C22.6201 16.9608 22.9831 16.3538 23.0001 15.5478V8.47675C22.9821 7.61775 22.6041 6.92875 21.9071 6.55575C21.1791 6.16375 20.1831 6.21675 19.5291 6.74775L17.0031 8.82275L17.0051 7.47375C17.0061 6.67675 16.6911 5.91275 16.1281 5.34875C15.5651 4.78575 14.8021 4.46875 14.0051 4.46875C12.2191 4.46875 9.51111 4.46875 7.03411 4.46875C3.19011 4.46875 0.0651053 7.56875 0.0341053 11.4127C0.0321053 11.7587 0.0291053 12.1068 0.0261053 12.4538C0.0111053 14.3197 0.742105 16.1147 2.05611 17.4397C3.37011 18.7647 5.15911 19.5098 7.02611 19.5098C9.5071 19.5098 12.2101 19.5098 13.9911 19.5098C15.6461 19.5098 16.9891 18.1697 16.9911 16.5147L16.9931 15.1978ZM15.0051 7.47075L14.9911 16.5118C14.9901 17.0627 14.5431 17.5098 13.9911 17.5098C12.2101 17.5098 9.5071 17.5098 7.0261 17.5098C5.6931 17.5098 4.41511 16.9778 3.47611 16.0308C2.53711 15.0848 2.01511 13.8027 2.02611 12.4697L2.03411 11.4288C2.05611 8.68275 4.28811 6.46875 7.03411 6.46875H14.0051C14.2711 6.46875 14.5251 6.57475 14.7131 6.76175C14.9001 6.94975 15.0061 7.20475 15.0051 7.47075ZM16.9971 12.5837L20.7751 15.7708C20.8001 15.7817 20.8371 15.7798 20.8571 15.7768C20.9381 15.7098 20.9961 15.6267 21.0001 15.5117C21.0001 15.5117 21.0001 8.49775 21.0001 8.51775C20.9991 8.43975 21.0271 8.35375 20.9641 8.31975C20.9621 8.31875 20.9601 8.31775 20.9581 8.31675C20.9071 8.28875 20.8371 8.26275 20.7911 8.29975L16.9991 11.4148L16.9971 12.5837ZM9.0871 10.0208C10.1761 10.0208 11.0591 10.9038 11.0591 11.9928C11.0591 13.0808 10.1761 13.9648 9.0871 13.9648C7.9991 13.9648 7.11511 13.0808 7.11511 11.9928C7.11511 10.9038 7.9991 10.0208 9.0871 10.0208Z" fill="black"/>
</svg>
