<svg width="24" height="24" viewBox="0 0 24 24" fill="none" xmlns="http://www.w3.org/2000/svg">
<path fill-rule="evenodd" clip-rule="evenodd" d="M4 17.29V20.73C4 21.5 4.441 22.2 5.134 22.54C5.827 22.87 6.65 22.78 7.25 22.3L10.117 20H14C18.418 20 22 16.42 22 12V10C22 5.58 18.418 2 14 2C12.687 2 11.313 2 10 2C5.582 2 2 5.58 2 10V12C2 14.03 2.755 15.88 4 17.29ZM6 20.73V16.9C6 16.64 5.897 16.39 5.714 16.2C4.654 15.12 4 13.63 4 12V10C4 6.69 6.686 4 10 4C11.313 4 12.687 4 14 4C17.314 4 20 6.69 20 10V12C20 15.31 17.314 18 14 18C12.687 18 11.313 18 10 18C9.934 18 9.869 18 9.803 18C9.565 17.99 9.332 18.07 9.146 18.22L6 20.73ZM16.281 9.74L11.771 6.33C11.234 5.92 10.512 5.86 9.909 6.16C9.305 6.46 8.924 7.07 8.924 7.75V14.57C8.924 15.24 9.305 15.86 9.909 16.16C10.512 16.46 11.234 16.39 11.771 15.99L16.281 12.58C16.725 12.24 16.986 11.72 16.986 11.16C16.986 10.6 16.725 10.08 16.281 9.74ZM10.824 14.32L15.005 11.16L10.824 8V14.32Z" fill="black"/>
</svg>
