<svg width="16" height="16" viewBox="0 0 16 16" fill="none" xmlns="http://www.w3.org/2000/svg">
<path fill-rule="evenodd" clip-rule="evenodd" d="M3.2072 4.21322C3.2732 3.44222 3.6092 2.71722 4.1602 2.16622C4.7792 1.54722 5.6182 1.19922 6.4942 1.19922C8.2912 1.19922 10.7062 1.19922 12.5032 1.19922C13.3792 1.19922 14.2182 1.54722 14.8372 2.16622C15.4562 2.78422 15.8032 3.62422 15.8032 4.49922C15.8032 5.74422 15.8032 7.24622 15.8032 8.49122C15.8032 9.36622 15.4562 10.2062 14.8372 10.8242C14.2842 11.3772 13.5562 11.7132 12.7842 11.7782C12.7172 12.5482 12.3812 13.2742 11.8302 13.8242C11.2122 14.4432 10.3722 14.7912 9.4972 14.7912C7.7032 14.7912 5.2942 14.7912 3.5002 14.7912C2.6252 14.7912 1.7852 14.4432 1.1672 13.8242C0.548195 13.2062 0.200195 12.3662 0.200195 11.4912C0.200195 10.2462 0.200195 8.74422 0.200195 7.49922C0.200195 6.62422 0.548195 5.78422 1.1672 5.16622C1.7162 4.61622 2.4392 4.28122 3.2072 4.21322ZM9.4972 5.79922C9.9482 5.79922 10.3802 5.97822 10.6992 6.29722C11.0182 6.61622 11.1972 7.04822 11.1972 7.49922V11.4912C11.1972 11.9422 11.0182 12.3742 10.6992 12.6932C10.3802 13.0122 9.9482 13.1912 9.4972 13.1912H3.5002C3.0492 13.1912 2.6172 13.0122 2.2982 12.6932C1.9792 12.3742 1.8002 11.9422 1.8002 11.4912V7.49922C1.8002 7.04822 1.9792 6.61622 2.2982 6.29722C2.6172 5.97822 3.0492 5.79922 3.5002 5.79922H9.4972ZM6.0382 6.94722C5.8442 6.80822 5.58919 6.78922 5.37719 6.89722C5.16519 7.00622 5.0322 7.22422 5.0322 7.46322C5.0322 8.61522 5.0322 10.3242 5.0322 11.4762C5.0322 11.7152 5.16519 11.9332 5.37719 12.0422C5.58919 12.1502 5.8442 12.1312 6.0382 11.9922C6.8862 11.3842 8.0782 10.5272 8.8322 9.98622C8.9992 9.86622 9.09719 9.67422 9.09719 9.47022C9.09719 9.26522 8.9992 9.07322 8.8322 8.95322C8.0782 8.41222 6.8862 7.55522 6.0382 6.94722ZM12.7972 10.1642C13.1392 10.1052 13.4572 9.94222 13.7062 9.69322C14.0242 9.37422 14.2032 8.94222 14.2032 8.49122V4.49922C14.2032 4.04822 14.0242 3.61622 13.7062 3.29722C13.3872 2.97822 12.9542 2.79922 12.5032 2.79922C10.7062 2.79922 8.2912 2.79922 6.4942 2.79922C6.0432 2.79922 5.6102 2.97822 5.2912 3.29722C5.0442 3.54422 4.8812 3.85922 4.8222 4.19922H9.4972C10.3722 4.19922 11.2122 4.54722 11.8302 5.16622C12.4492 5.78422 12.7972 6.62422 12.7972 7.49922V10.1642Z" fill="black"/>
</svg>
