<svg width="16" height="16" viewBox="0 0 16 16" fill="none" xmlns="http://www.w3.org/2000/svg">
<path fill-rule="evenodd" clip-rule="evenodd" d="M12.1392 12.1212H10.8602C10.3912 12.1212 10.0102 12.5022 10.0102 12.9712C10.0102 13.4402 10.3912 13.8212 10.8602 13.8212H12.1392V15.1002C12.1392 15.5692 12.5202 15.9502 12.9892 15.9502C13.4582 15.9502 13.8392 15.5692 13.8392 15.1002V13.8212H15.1172C15.5862 13.8212 15.9672 13.4402 15.9672 12.9712C15.9672 12.5022 15.5862 12.1212 15.1172 12.1212H13.8392V10.8432C13.8392 10.3742 13.4582 9.99322 12.9892 9.99322C12.5202 9.99322 12.1392 10.3742 12.1392 10.8432V12.1212ZM8.6372 13.7912H3.5002C2.6252 13.7912 1.7852 13.4432 1.1672 12.8242C0.548195 12.2062 0.200195 11.3662 0.200195 10.4912C0.200195 8.96622 0.200195 7.02422 0.200195 5.49922C0.200195 4.62422 0.548195 3.78422 1.1672 3.16622C1.7852 2.54722 2.6252 2.19922 3.5002 2.19922H10.5002C11.3752 2.19922 12.2152 2.54722 12.8332 3.16622C13.4522 3.78422 13.8002 4.62422 13.8002 5.49922V8.63022C13.5512 8.53222 13.2812 8.48022 12.9982 8.48022C12.7172 8.48022 12.4482 8.53222 12.2002 8.62922V5.49922C12.2002 5.04822 12.0212 4.61622 11.7022 4.29722C11.3832 3.97822 10.9512 3.79922 10.5002 3.79922H3.5002C3.0492 3.79922 2.6172 3.97822 2.2982 4.29722C1.9792 4.61622 1.8002 5.04822 1.8002 5.49922C1.8002 7.02422 1.8002 8.96622 1.8002 10.4912C1.8002 10.9422 1.9792 11.3742 2.2982 11.6932C2.6172 12.0122 3.0492 12.1912 3.5002 12.1912H8.6292C8.53419 12.4362 8.4832 12.7022 8.4832 12.9802C8.4832 13.2672 8.5372 13.5402 8.6372 13.7912ZM6.0142 5.11922C5.8212 4.98022 5.5662 4.96122 5.3542 5.06922C5.1422 5.17822 5.0082 5.39622 5.0082 5.63522C5.0082 6.95822 5.0082 9.04522 5.0082 10.3682C5.0082 10.6072 5.1422 10.8252 5.3542 10.9342C5.5662 11.0422 5.8212 11.0232 6.0142 10.8842C6.9902 10.1842 8.4462 9.13822 9.3102 8.51822C9.4762 8.39822 9.5752 8.20622 9.5752 8.00222C9.5752 7.79722 9.4762 7.60522 9.3102 7.48622C8.4462 6.86522 6.9902 5.81922 6.0142 5.11922Z" fill="black"/>
</svg>
