<svg width="24" height="24" viewBox="0 0 24 24" fill="none" xmlns="http://www.w3.org/2000/svg">
<path fill-rule="evenodd" clip-rule="evenodd" d="M2 16C2 18.76 4.239 21 7 21C9.977 21 14.024 21 17.002 21C19.763 21 22.002 18.76 22.002 16C22.002 13.56 22.002 10.44 22.002 8C22.002 5.24 19.763 3 17.002 3C14.024 3 9.977 3 7 3C4.239 3 2 5.24 2 8V16ZM4 16V8C4 6.34 5.343 5 7 5C9.977 5 14.024 5 17.002 5C18.658 5 20.002 6.34 20.002 8V16C20.002 17.66 18.658 19 17.002 19C14.024 19 9.977 19 7 19C5.343 19 4 17.66 4 16ZM6 16C6 16.55 6.448 17 7 17C9.26 17 14.74 17 17 17C17.552 17 18 16.55 18 16C18 14.08 18 9.92 18 8C18 7.45 17.552 7 17 7C14.74 7 9.26 7 7 7C6.448 7 6 7.45 6 8C6 9.92 6 14.08 6 16Z" fill="black"/>
</svg>
