<svg width="24" height="24" viewBox="0 0 24 24" fill="none" xmlns="http://www.w3.org/2000/svg">
<path fill-rule="evenodd" clip-rule="evenodd" d="M7.52018 5.17C8.39718 3.298 10.2992 2 12.5022 2C15.5382 2 18.0022 4.464 18.0022 7.5C18.0022 8.442 17.7652 9.329 17.3462 10.105C17.7682 10.62 18.0212 11.28 18.0192 12V12.128L20.4022 10.117C20.4222 10.101 20.4422 10.086 20.4622 10.071C21.7672 9.13 24.0022 9.808 24.0022 11.913V18.09C24.0022 18.906 23.6542 19.518 23.1752 19.907C22.4332 20.508 21.3322 20.586 20.4602 19.953C20.4412 19.94 20.4232 19.925 20.4052 19.911L18.0102 17.905L18.0082 19.006C18.0052 20.661 16.6632 22.001 15.0082 22.001H6.00818C2.71218 22.001 0.0331831 19.343 0.00818306 16.047C0.00518306 15.704 0.00318306 15.358 0.000183058 15.014C-0.00981694 13.734 0.390183 12.494 1.12818 11.469C0.426183 10.681 0.00218306 9.639 0.00218306 8.5C0.00218306 6.016 2.01818 4 4.50218 4C5.66418 4 6.72318 4.441 7.52018 5.17ZM8.25118 10.988C7.44518 12.2 6.06618 13 4.50218 13C3.88018 13 3.28818 12.874 2.74918 12.645C2.25818 13.323 1.99318 14.148 2.00018 14.999L2.00818 16.032C2.02518 18.229 3.81018 20.001 6.00818 20.001H15.0082C15.5602 20.001 16.0072 19.554 16.0082 19.003C16.0112 17.016 16.0162 13.984 16.0192 11.997C16.0192 11.912 16.0092 11.83 15.9862 11.754C15.0382 12.533 13.8242 13 12.5022 13C10.7902 13 9.26018 12.216 8.25118 10.988ZM18.0142 15.3L21.6572 18.349C21.7432 18.402 21.8442 18.41 21.9152 18.353C21.9812 18.299 22.0022 18.203 22.0022 18.09V11.913C22.0022 11.697 21.7942 11.601 21.6512 11.681L18.0152 14.748L18.0142 15.3ZM4.50218 6C5.88218 6 7.00218 7.12 7.00218 8.5C7.00218 9.88 5.88218 11 4.50218 11C3.12218 11 2.00218 9.88 2.00218 8.5C2.00218 7.12 3.12218 6 4.50218 6ZM12.5022 4C14.4342 4 16.0022 5.568 16.0022 7.5C16.0022 9.432 14.4342 11 12.5022 11C10.5702 11 9.00218 9.432 9.00218 7.5C9.00218 5.568 10.5702 4 12.5022 4Z" fill="black"/>
</svg>
