<svg width="16" height="16" viewBox="0 0 16 16" fill="none" xmlns="http://www.w3.org/2000/svg">
<path fill-rule="evenodd" clip-rule="evenodd" d="M9.59301 2.9993C9.09401 2.8553 8.56201 2.7783 8.00001 2.7783C7.43301 2.7783 6.89401 2.8563 6.38801 3.0033C5.89201 2.2163 5.01401 1.6933 4.01501 1.6933C2.46501 1.6933 1.20801 2.9503 1.20801 4.5003C1.20801 5.4563 1.68701 6.3013 2.41801 6.8073C2.18001 7.4193 2.02001 8.0763 1.94801 8.7603C1.75201 10.6073 2.18501 11.9513 2.95201 12.9093C4.08301 14.3203 6.00601 14.9103 8.00001 14.9103C9.99201 14.9103 11.943 14.2943 13.078 12.8793C13.854 11.9133 14.281 10.5683 14.051 8.7443C13.967 8.0783 13.804 7.4363 13.57 6.8373C14.33 6.3303 14.83 5.4653 14.83 4.4843C14.83 2.9223 13.562 1.6543 12 1.6543C10.983 1.6543 10.091 2.1923 9.59301 2.9993ZM9.69501 4.7393C9.91301 4.8383 10.164 4.8353 10.379 4.7303C10.595 4.6253 10.752 4.4293 10.807 4.1963C10.935 3.6553 11.421 3.2543 12 3.2543C12.679 3.2543 13.23 3.8053 13.23 4.4843C13.23 5.0543 12.841 5.5353 12.314 5.6713C12.077 5.7323 11.881 5.8993 11.782 6.1233C11.683 6.3463 11.692 6.6033 11.806 6.8193C12.144 7.4583 12.367 8.1823 12.463 8.9443C12.626 10.2333 12.378 11.1953 11.83 11.8783C10.981 12.9363 9.49001 13.3103 8.00001 13.3103C6.51301 13.3103 5.04401 12.9603 4.20101 11.9083C3.65201 11.2233 3.39901 10.2493 3.53901 8.9293C3.62001 8.1653 3.83801 7.4413 4.17501 6.8043C4.28901 6.5903 4.29901 6.3363 4.20401 6.1143C4.10801 5.8923 3.91801 5.7253 3.68501 5.6593C3.17801 5.5173 2.80801 5.0513 2.80801 4.5003C2.80801 3.8343 3.34901 3.2933 4.01501 3.2933C4.57901 3.2933 5.05301 3.6803 5.18301 4.2043C5.24001 4.4353 5.39701 4.6293 5.61101 4.7323C5.82501 4.8363 6.07401 4.8393 6.29101 4.7403C6.80601 4.5063 7.38001 4.3783 8.00001 4.3783C8.61801 4.3783 9.18601 4.5063 9.69501 4.7393ZM8.00901 9.8243C8.67701 9.8243 9.22001 10.0893 9.22001 10.1973C9.22001 10.9183 8.14901 11.8013 8.00901 11.8013C7.86901 11.8013 6.79901 10.9183 6.79901 10.1973C6.79901 10.0463 7.34101 9.8243 8.00901 9.8243ZM6.29601 6.8373C6.93001 6.8373 7.44401 7.3513 7.44401 7.9853C7.44401 8.6193 6.93001 9.1333 6.29601 9.1333C5.66201 9.1333 5.14801 8.6193 5.14801 7.9853C5.14801 7.3513 5.66201 6.8373 6.29601 6.8373ZM9.72001 6.8373C10.353 6.8373 10.868 7.3513 10.868 7.9853C10.868 8.6193 10.353 9.1333 9.72001 9.1333C9.08601 9.1333 8.57101 8.6193 8.57101 7.9853C8.57101 7.3513 9.08601 6.8373 9.72001 6.8373Z" fill="black"/>
</svg>
