<svg width="16" height="16" viewBox="0 0 16 16" fill="none" xmlns="http://www.w3.org/2000/svg">
<path fill-rule="evenodd" clip-rule="evenodd" d="M8.00001 2.46094C5.66701 2.46094 3.59601 3.70094 2.31501 5.09094C1.38301 6.11094 0.884007 7.21094 0.877007 7.99094C0.871007 8.77094 1.36701 9.88094 2.30401 10.9009C3.58701 12.3009 5.66801 13.5409 8.00001 13.5409C10.333 13.5409 12.408 12.3009 13.69 10.9109C14.625 9.90094 15.123 8.79094 15.123 8.00094C15.123 7.21094 14.625 6.10094 13.69 5.09094C12.408 3.70094 10.333 2.46094 8.00001 2.46094ZM8.00001 4.06094C9.85501 4.06094 11.494 5.07094 12.514 6.17094C13.114 6.83094 13.523 7.49094 13.523 8.00094C13.523 8.51094 13.114 9.17094 12.514 9.83094C11.494 10.9309 9.85501 11.9409 8.00001 11.9409C6.14501 11.9409 4.50201 10.9309 3.48101 9.82094C2.88201 9.17094 2.47401 8.50094 2.47701 8.01094C2.48101 7.50094 2.89001 6.83094 3.49201 6.18094C4.51101 5.07094 6.14601 4.06094 8.00001 4.06094ZM8.01301 5.03094C6.38001 5.03094 5.05201 6.36094 5.05201 8.00094C5.05201 9.64094 6.38001 10.9709 8.01301 10.9709C9.64601 10.9709 10.974 9.64094 10.974 8.00094C10.974 6.36094 9.64601 5.03094 8.01301 5.03094ZM8.01301 6.63094C8.76601 6.63094 9.37401 7.24094 9.37401 8.00094C9.37401 8.76094 8.76601 9.37094 8.01301 9.37094C7.26001 9.37094 6.65201 8.76094 6.65201 8.00094C6.65201 7.24094 7.26001 6.63094 8.01301 6.63094Z" fill="black"/>
</svg>
