<svg width="12" height="12" viewBox="0 0 12 12" fill="none" xmlns="http://www.w3.org/2000/svg">
<path fill-rule="evenodd" clip-rule="evenodd" d="M5.9998 1.31152C4.0548 1.31152 2.3278 2.35232 1.2588 3.52152C0.471803 4.38352 0.0568029 5.32782 0.0518029 5.99422C0.0468029 6.65832 0.457803 7.60772 1.2508 8.47472C2.3198 9.64442 4.0558 10.6893 5.9998 10.6893C7.9438 10.6893 9.6758 9.65092 10.7448 8.48252C11.5348 7.61892 11.9478 6.67152 11.9478 6.00042C11.9478 5.32932 11.5348 4.38192 10.7448 3.51832C9.6758 2.34992 7.9438 1.31152 5.9998 1.31152ZM5.9998 2.91152C7.4648 2.91152 8.7588 3.71782 9.5638 4.59832C10.0238 5.10122 10.3478 5.60962 10.3478 6.00042C10.3478 6.39122 10.0238 6.89962 9.5638 7.40252C8.7588 8.28302 7.4648 9.08932 5.9998 9.08932C4.5338 9.08932 3.2378 8.27682 2.4318 7.39512C1.9728 6.89392 1.6488 6.39042 1.6518 6.00662C1.6548 5.61622 1.9788 5.10572 2.4408 4.60072C3.2448 3.72002 4.5348 2.91152 5.9998 2.91152ZM6.0098 3.32612C4.5408 3.32612 3.3458 4.52312 3.3458 6.00042C3.3458 7.47772 4.5408 8.67472 6.0098 8.67472C7.4778 8.67472 8.6728 7.47772 8.6728 6.00042C8.6728 4.52312 7.4778 3.32612 6.0098 3.32612ZM6.0098 4.92612C6.5978 4.92612 7.0728 5.40882 7.0728 6.00042C7.0728 6.59202 6.5978 7.07472 6.0098 7.07472C5.4218 7.07472 4.9458 6.59202 4.9458 6.00042C4.9458 5.40882 5.4218 4.92612 6.0098 4.92612Z" fill="black"/>
</svg>
