<svg width="16" height="16" viewBox="0 0 16 16" fill="none" xmlns="http://www.w3.org/2000/svg">
<path fill-rule="evenodd" clip-rule="evenodd" d="M2.73401 4.68055L1.12801 3.07055C0.796007 2.74055 0.796007 2.20055 1.12801 1.87055C1.46001 1.54055 1.99801 1.54055 2.33001 1.87055L4.09601 3.64055C5.21101 2.93055 6.55501 2.46055 8.00001 2.46055C10.333 2.46055 12.408 3.70055 13.69 5.09055C14.625 6.10055 15.123 7.21055 15.123 8.00055C15.123 8.79055 14.625 9.90055 13.69 10.9105C13.338 11.2905 12.925 11.6705 12.463 12.0005L14.051 13.5905C14.383 13.9205 14.383 14.4605 14.051 14.7905C13.72 15.1205 13.181 15.1205 12.849 14.7905L10.944 12.8905H10.935L9.69801 11.6505H9.70801L8.89501 10.8405H8.88601L5.18001 7.14055L5.18301 7.13055L3.86301 5.81055H3.85701L2.72701 4.68055H2.73401ZM1.45701 6.24055L2.62801 7.41055C2.53201 7.62055 2.47901 7.83055 2.47701 8.01055C2.47401 8.50055 2.88201 9.17055 3.48101 9.82055C4.32801 10.7405 5.60301 11.5905 7.07301 11.8605L8.71701 13.5005C8.48201 13.5305 8.24201 13.5405 8.00001 13.5405C5.66801 13.5405 3.58701 12.3005 2.30401 10.9005C1.36701 9.88055 0.871007 8.77055 0.877007 7.99055C0.881007 7.50055 1.07901 6.88055 1.45701 6.24055ZM11.316 10.8605C11.774 10.5505 12.177 10.1905 12.514 9.83055C13.114 9.17055 13.523 8.51055 13.523 8.00055C13.523 7.49055 13.114 6.83055 12.514 6.17055C11.494 5.07055 9.85501 4.06055 8.00001 4.06055C7.00101 4.06055 6.06601 4.35055 5.25801 4.80055L6.15401 5.69055C6.66001 5.27055 7.30801 5.03055 8.01301 5.03055C9.64601 5.03055 10.974 6.36055 10.974 8.00055C10.974 8.70055 10.73 9.35055 10.318 9.86055L11.316 10.8605ZM9.17201 8.71055L7.29701 6.84055C7.50301 6.70055 7.74901 6.63055 8.01301 6.63055C8.76601 6.63055 9.37401 7.24055 9.37401 8.00055C9.37401 8.26055 9.30201 8.51055 9.17201 8.71055Z" fill="black"/>
</svg>
