<svg width="24" height="24" viewBox="0 0 24 24" fill="none" xmlns="http://www.w3.org/2000/svg">
<path fill-rule="evenodd" clip-rule="evenodd" d="M18.7201 17.8239L20.4401 19.5459C20.8701 19.9749 20.8701 20.6719 20.4401 21.1009C20.0101 21.5309 19.3201 21.5309 18.8901 21.1009L2.15012 4.36188C1.72012 3.93288 1.72012 3.23588 2.15012 2.80687C2.58012 2.37687 3.27012 2.37687 3.70012 2.80687L6.35012 5.45388C7.98012 4.43988 9.92012 3.75587 12.0001 3.75587C15.4401 3.75587 18.5001 5.61987 20.3901 7.71088C21.7501 9.20788 22.4801 10.8369 22.4801 11.9999C22.4801 13.1629 21.7501 14.7919 20.3901 16.2889C19.9101 16.8249 19.3501 17.3469 18.7201 17.8239ZM3.19012 8.22188L4.61012 9.64288C3.94012 10.4989 3.52012 11.3449 3.52012 12.0079C3.51012 12.8089 4.13012 13.8869 5.08012 14.9329C6.64012 16.6609 9.16012 18.2439 12.0001 18.2439C12.3801 18.2439 12.7601 18.2159 13.1301 18.1599L14.8001 19.8329C13.9101 20.0959 12.9701 20.2439 12.0001 20.2439C8.56012 20.2439 5.49012 18.3679 3.60012 16.2739C2.24012 14.7729 1.51012 13.1419 1.52012 11.9919C1.52012 10.9649 2.11012 9.56688 3.19012 8.22188ZM17.2901 16.3979L15.4401 14.5469C15.9701 13.8379 16.2801 12.9549 16.2801 11.9999C16.2801 9.63387 14.3701 7.71688 12.0201 7.71688C11.0601 7.71688 10.1801 8.03288 9.47012 8.57688L7.81012 6.90988C9.04012 6.21088 10.4701 5.75588 12.0001 5.75588C14.8401 5.75588 17.3501 7.32688 18.9101 9.05288C19.8601 10.1009 20.4801 11.1859 20.4801 11.9999C20.4801 12.8139 19.8601 13.8989 18.9101 14.9469C18.4501 15.4569 17.9101 15.9529 17.2901 16.3979ZM14.0001 13.1029L10.9101 10.0179C11.2401 9.82288 11.6201 9.71688 12.0201 9.71688C13.2701 9.71688 14.2801 10.7409 14.2801 11.9999C14.2801 12.3999 14.1801 12.7769 14.0001 13.1029Z" fill="black"/>
</svg>
