<svg width="24" height="24" viewBox="0 0 24 24" fill="none" xmlns="http://www.w3.org/2000/svg">
<path fill-rule="evenodd" clip-rule="evenodd" d="M12.0001 3.75586C8.56012 3.75586 5.50012 5.62486 3.61012 7.71686C2.26012 9.21186 1.52012 10.8369 1.52012 11.9919C1.51012 13.1419 2.24012 14.7729 3.60012 16.2739C5.49012 18.3679 8.56012 20.2439 12.0001 20.2439C15.4401 20.2439 18.5001 18.3799 20.3901 16.2889C21.7501 14.7919 22.4801 13.1629 22.4801 11.9999C22.4801 10.8369 21.7501 9.20786 20.3901 7.71086C18.5001 5.61986 15.4401 3.75586 12.0001 3.75586ZM12.0001 5.75586C14.8401 5.75586 17.3501 7.32686 18.9101 9.05286C19.8601 10.1009 20.4801 11.1859 20.4801 11.9999C20.4801 12.8139 19.8601 13.8989 18.9101 14.9469C17.3501 16.6729 14.8401 18.2439 12.0001 18.2439C9.16012 18.2439 6.64012 16.6609 5.08012 14.9329C4.13012 13.8869 3.51012 12.8089 3.52012 12.0079C3.52012 11.1949 4.15012 10.1089 5.10012 9.05786C6.66012 7.33186 9.16012 5.75586 12.0001 5.75586ZM12.0201 7.71686C9.67012 7.71686 7.76012 9.63386 7.76012 11.9999C7.76012 14.3659 9.67012 16.2829 12.0201 16.2829C14.3701 16.2829 16.2801 14.3659 16.2801 11.9999C16.2801 9.63386 14.3701 7.71686 12.0201 7.71686ZM12.0201 9.71686C13.2701 9.71686 14.2801 10.7409 14.2801 11.9999C14.2801 13.2589 13.2701 14.2829 12.0201 14.2829C10.7701 14.2829 9.76012 13.2589 9.76012 11.9999C9.76012 10.7409 10.7701 9.71686 12.0201 9.71686Z" fill="black"/>
</svg>
