<svg width="24" height="24" viewBox="0 0 24 24" fill="none" xmlns="http://www.w3.org/2000/svg">
<path fill-rule="evenodd" clip-rule="evenodd" d="M2.96001 10.5918L3.78701 18.42C4.00211 20.4551 5.71851 21.9997 7.76491 21.9997C10.2023 21.9997 13.7697 21.9997 16.2056 21.9997C18.2494 21.9997 19.9645 20.459 20.1828 18.4269L21.0242 10.5931C21.117 9.72953 20.6418 8.90482 19.8481 8.55202C19.0545 8.19912 18.1238 8.39893 17.5448 9.04633L15.3729 11.475L13.8818 7.32872C13.5963 6.53492 12.8434 6.00553 11.9998 6.00553C11.1562 6.00553 10.4033 6.53492 10.1178 7.32872L8.62501 11.4796L6.43631 9.04473C5.85681 8.39993 4.92781 8.20203 4.13571 8.55453C3.34371 8.90703 2.86891 9.72973 2.96001 10.5918ZM11.9998 8.00553L14.0588 13.7308C14.178 14.0623 14.4629 14.3066 14.8088 14.374C15.1546 14.4413 15.5104 14.3216 15.7452 14.059L19.0356 10.3795L18.1942 18.2133C18.085 19.2294 17.2275 19.9997 16.2056 19.9997C13.7697 19.9997 10.2023 19.9997 7.76491 19.9997C6.74171 19.9997 5.88351 19.2274 5.77601 18.2099L4.94901 10.3817C6.46281 12.0658 8.25611 14.0609 8.25611 14.0609C8.49131 14.3226 8.84681 14.4414 9.19211 14.3737C9.53741 14.306 9.82171 14.0619 9.94081 13.7308L11.9998 8.00553ZM2.49181 3.98202C3.44891 3.98202 4.22591 4.75912 4.22591 5.71613C4.22591 6.67322 3.44891 7.45022 2.49181 7.45022C1.53481 7.45022 0.757812 6.67322 0.757812 5.71613C0.757812 4.75912 1.53481 3.98202 2.49181 3.98202ZM21.4957 3.98202C22.4528 3.98202 23.2298 4.75912 23.2298 5.71613C23.2298 6.67322 22.4528 7.45022 21.4957 7.45022C20.5387 7.45022 19.7617 6.67322 19.7617 5.71613C19.7617 4.75912 20.5387 3.98202 21.4957 3.98202ZM11.9998 1.26562C12.9569 1.26562 13.7339 2.04263 13.7339 2.99972C13.7339 3.95683 12.9569 4.73382 11.9998 4.73382C11.0427 4.73382 10.2657 3.95683 10.2657 2.99972C10.2657 2.04263 11.0427 1.26562 11.9998 1.26562Z" fill="black"/>
</svg>
