<svg width="24" height="24" viewBox="0 0 24 24" fill="none" xmlns="http://www.w3.org/2000/svg">
<path fill-rule="evenodd" clip-rule="evenodd" d="M3.39862 3.40644C1.99219 4.81287 1.99219 7.0765 1.99219 11.6038V12.4041C1.99219 16.9313 1.99219 19.1949 3.39862 20.6014C4.80506 22.0078 7.06868 22.0078 11.5959 22.0078H12.3962C16.9235 22.0078 19.1871 22.0078 20.5936 20.6014C22 19.1949 22 16.9313 22 12.4041V11.6038C22 7.07651 22 4.81287 20.5936 3.40644C19.1871 2 16.9235 2 12.3962 2H11.5959C7.06869 2 4.80506 2 3.39862 3.40644ZM5.36847 8.08493C5.47684 13.287 8.07784 16.4132 12.6379 16.4132H12.8964V13.437C14.5721 13.6037 15.8392 14.8292 16.3477 16.4132H18.7154C18.0651 14.0456 16.356 12.7367 15.2889 12.2365C16.356 11.6196 17.8566 10.1191 18.2151 8.08493H16.0642C15.5973 9.73558 14.2136 11.2361 12.8964 11.3779V8.08493H10.7455V13.8538C9.41167 13.5204 7.72772 11.9031 7.65269 8.08493H5.36847Z" fill="black"/>
</svg>
