<svg width="24" height="24" viewBox="0 0 24 24" fill="none" xmlns="http://www.w3.org/2000/svg">
<path fill-rule="evenodd" clip-rule="evenodd" d="M9.2371 2C6.3452 2 4.5857 2.455 3.5203 3.5203C2.455 4.5857 2 6.3452 2 9.2371V14.7629C2 17.6548 2.455 19.4143 3.5203 20.4797C4.5857 21.545 6.3452 22 9.2371 22H14.7629C17.6548 22 19.4143 21.545 20.4797 20.4797C21.545 19.4143 22 17.6548 22 14.7629V9.2371C22 6.3452 21.545 4.5857 20.4797 3.5203C19.4143 2.455 17.6548 2 14.7629 2H9.2371ZM9.2371 4H14.7629C16.9153 4 18.2725 4.1416 19.0655 4.9345C19.8584 5.7275 20 7.0847 20 9.2371V14.7629C20 16.9153 19.8584 18.2725 19.0655 19.0655C18.2725 19.8584 16.9153 20 14.7629 20H9.2371C7.0847 20 5.7275 19.8584 4.9345 19.0655C4.1416 18.2725 4 16.9153 4 14.7629V9.2371C4 7.0847 4.1416 5.7275 4.9345 4.9345C5.7275 4.1416 7.0847 4 9.2371 4Z" fill="black"/>
<path d="M12.4532 15.9866C8.26838 15.9866 5.88144 13.1177 5.78198 8.34375H7.87822C7.94707 11.8477 9.49245 13.3319 10.7165 13.6379V8.34375H12.6904V11.3657C13.8992 11.2356 15.169 9.85855 15.5975 8.34375H17.5714C17.2424 10.2105 15.8653 11.5876 14.886 12.1537C15.8653 12.6127 17.4337 13.8139 18.0305 15.9866H15.8577C15.391 14.533 14.2282 13.4084 12.6904 13.2554V15.9866H12.4532Z" fill="black"/>
</svg>
