<svg width="16" height="16" viewBox="0 0 16 16" fill="none" xmlns="http://www.w3.org/2000/svg">
<path fill-rule="evenodd" clip-rule="evenodd" d="M1.69795 12.7992H11.0779C11.5199 12.7992 11.8779 12.4392 11.8779 11.9992C11.8779 11.5592 11.5199 11.1992 11.0779 11.1992H1.69795C1.25595 11.1992 0.897949 11.5592 0.897949 11.9992C0.897949 12.4392 1.25595 12.7992 1.69795 12.7992ZM1.69795 8.79922H7.62295C8.06495 8.79922 8.42295 8.43922 8.42295 7.99922C8.42295 7.55922 8.06495 7.19922 7.62295 7.19922H1.69795C1.25595 7.19922 0.897949 7.55922 0.897949 7.99922C0.897949 8.43922 1.25595 8.79922 1.69795 8.79922ZM1.69795 4.79922H14.2769C14.7189 4.79922 15.0769 4.43922 15.0769 3.99922C15.0769 3.55922 14.7189 3.19922 14.2769 3.19922H1.69795C1.25595 3.19922 0.897949 3.55922 0.897949 3.99922C0.897949 3.99922 0.897949 4.43922 1.69795 4.79922Z" fill="black"/>
</svg>
