<svg width="16" height="16" viewBox="0 0 16 16" fill="none" xmlns="http://www.w3.org/2000/svg">
<path fill-rule="evenodd" clip-rule="evenodd" d="M1.47571 7.03285C1.94571 5.47285 3.07171 4.16285 4.60471 3.48285C6.08971 2.81284 7.87571 2.02285 9.28171 1.39285C10.0557 1.04285 10.9527 1.11285 11.6637 1.57285C12.3747 2.03285 12.8037 2.83285 12.8017 3.67285V4.23285C13.9327 4.47285 14.7837 5.47285 14.7857 6.67284L14.7987 12.2928C14.7997 12.9628 14.5367 13.6028 14.0667 14.0728C13.5977 14.5428 12.9607 14.8028 12.2957 14.8028C10.5387 14.8028 7.74771 14.7928 5.51671 14.7928C4.37571 14.7928 3.28171 14.3428 2.47671 13.5328C1.67071 12.7228 1.21871 11.6328 1.22071 10.4828C1.22171 9.82285 1.22371 9.13284 1.22471 8.47285C1.22571 7.97285 1.31371 7.48284 1.47571 7.03285ZM13.1857 6.68285L13.1987 12.3028C13.1987 12.5428 13.1037 12.7728 12.9347 12.9328C12.7657 13.1028 12.5367 13.2028 12.2977 13.2028C10.5397 13.2028 7.74871 13.1928 5.51871 13.1928C4.80171 13.1928 4.11571 12.9128 3.60971 12.4028C3.10371 11.8928 2.81971 11.2028 2.82071 10.4928C2.82171 9.83284 2.82371 9.14284 2.82471 8.48284C2.82671 6.99284 4.03471 5.78285 5.52471 5.78285H12.2857C12.7827 5.78285 13.1847 6.18285 13.1857 6.68285ZM10.9837 8.46284C11.5907 8.46284 12.0837 8.95285 12.0837 9.56285C12.0837 10.1628 11.5907 10.6628 10.9837 10.6628C10.3757 10.6628 9.88271 10.1628 9.88271 9.56285C9.88271 8.95285 10.3757 8.46284 10.9837 8.46284ZM11.2017 4.18284H6.95571L9.93471 2.85285C10.2137 2.72285 10.5367 2.75285 10.7927 2.91285C11.0487 3.08284 11.2027 3.37284 11.2017 3.67284V4.18284Z" fill="black"/>
</svg>
