<svg width="24" height="24" viewBox="0 0 24 24" fill="none" xmlns="http://www.w3.org/2000/svg">
<path fill-rule="evenodd" clip-rule="evenodd" d="M2.04979 11.6624V11.5024C2.04979 9.13235 3.43979 6.99235 5.59979 6.02235C8.25979 4.83235 12.1598 3.09235 14.7798 1.92235C15.7098 1.50235 16.7898 1.58235 17.6398 2.14235C18.4898 2.69235 19.0098 3.64235 19.0098 4.66235L18.9998 6.00235C20.6498 6.01235 21.9698 7.35235 21.9798 8.99235L21.9998 18.9924C21.9998 19.7924 21.6898 20.5524 21.1198 21.1224C20.5598 21.6824 19.7898 22.0023 18.9998 22.0023C16.3598 22.0023 11.6498 21.9924 8.02979 21.9924C6.42979 21.9924 4.90979 21.3524 3.77979 20.2224C2.65979 19.1024 2.02979 17.5724 2.02979 15.9824C2.02979 14.6824 2.03979 13.2924 2.03979 11.9924C2.03979 11.8824 2.03979 11.7724 2.04979 11.6624ZM19.9798 9.00235L19.9998 19.0023C19.9998 19.2624 19.8898 19.5224 19.7098 19.7024C19.5198 19.8924 19.2598 20.0023 18.9998 20.0023L8.02979 19.9923C6.96979 19.9923 5.94979 19.5624 5.19979 18.8124C4.44979 18.0624 4.02979 17.0424 4.02979 15.9824C4.02979 14.6824 4.03979 13.2924 4.03979 11.9924C4.03979 9.79235 5.82979 8.00235 8.03979 8.00235H18.9798C19.5298 8.00235 19.9798 8.45235 19.9798 9.00235ZM16.9898 12.3524C17.8998 12.3524 18.6398 13.0824 18.6398 14.0024C18.6398 14.9124 17.8998 15.6524 16.9898 15.6524C16.0798 15.6524 15.3398 14.9124 15.3398 14.0024C15.3398 13.0824 16.0798 12.3524 16.9898 12.3524ZM16.9998 6.00235H10.5498L15.5998 3.74235C15.9098 3.60235 16.2698 3.63235 16.5498 3.82235C16.8298 4.00235 17.0098 4.32235 17.0098 4.66235L16.9998 6.00235Z" fill="black"/>
</svg>
