<svg width="24" height="24" viewBox="0 0 24 24" fill="none" xmlns="http://www.w3.org/2000/svg">
<path fill-rule="evenodd" clip-rule="evenodd" d="M6.94979 5.42235L14.7798 1.92235C15.7098 1.50235 16.7898 1.58235 17.6398 2.14235C18.4898 2.69235 19.0098 3.64235 19.0098 4.66235L18.9998 6.00235C20.6498 6.01235 21.9698 7.35235 21.9798 8.99235L21.9998 18.9924C21.9998 19.4224 21.9098 19.8324 21.7398 20.2124L23.2998 21.7724C23.7298 22.1924 23.7298 22.8924 23.2998 23.3224C22.8698 23.7524 22.1698 23.7524 21.7398 23.3224L2.55979 4.14235C2.12979 3.71235 2.12979 3.01235 2.55979 2.58235C2.98979 2.15235 3.67979 2.15235 4.10979 2.58235L6.94979 5.42235ZM3.35979 7.76235L4.99979 9.40235C4.39979 10.1024 4.03979 11.0024 4.03979 11.9924C4.03979 13.2924 4.02979 14.6824 4.02979 15.9824C4.02979 17.0424 4.44979 18.0624 5.19979 18.8124C5.94979 19.5624 6.96979 19.9923 8.02979 19.9923H15.5998L17.5998 22.0023L8.02979 21.9923C6.42979 21.9923 4.90979 21.3524 3.77979 20.2224C2.65979 19.1024 2.02979 17.5724 2.02979 15.9824C2.02979 14.6824 2.03979 13.2924 2.03979 11.9924C2.03979 11.8824 2.03979 11.7724 2.04979 11.6624V11.5024C2.04979 10.1124 2.52979 8.80235 3.35979 7.76235ZM9.52979 8.00235H18.9798C19.5298 8.00235 19.9798 8.45235 19.9798 9.00235L19.9998 18.4724L17.1598 15.6324C17.9898 15.5524 18.6398 14.8524 18.6398 14.0024C18.6398 13.0824 17.8998 12.3524 16.9898 12.3524C16.1398 12.3524 15.4398 12.9924 15.3598 13.8324L9.52979 8.00235ZM16.9998 6.00235H10.5498L15.5998 3.74235C15.9098 3.60235 16.2698 3.63235 16.5498 3.82235C16.8298 4.00235 17.0098 4.32235 17.0098 4.66235L16.9998 6.00235Z" fill="black"/>
</svg>
