<svg width="24" height="24" viewBox="0 0 24 24" fill="none" xmlns="http://www.w3.org/2000/svg">
<path fill-rule="evenodd" clip-rule="evenodd" d="M9.09407 4.75844C7.06107 8.00744 3.95507 12.9724 1.83407 16.3624C1.17307 17.4194 1.13807 18.7514 1.74207 19.8414C2.34507 20.9314 3.49307 21.6074 4.73907 21.6074H19.2591C20.5051 21.6074 21.6531 20.9314 22.2571 19.8414C22.8611 18.7514 22.8261 17.4194 22.1651 16.3624L14.9051 4.75844C14.2791 3.75844 13.1811 3.14844 11.9991 3.14844C10.8181 3.14844 9.72007 3.75844 9.09407 4.75844ZM10.7891 5.81844C11.0501 5.39844 11.5081 5.14844 11.9991 5.14844C12.4911 5.14844 12.9491 5.39844 13.2091 5.81844L20.4691 17.4234C20.7451 17.8634 20.7591 18.4184 20.5081 18.8714C20.2561 19.3254 19.7781 19.6074 19.2591 19.6074H4.73907C4.22107 19.6074 3.74207 19.3254 3.49107 18.8714C3.24007 18.4184 3.25407 17.8634 3.52907 17.4234L10.7891 5.81844ZM12.0011 15.5674C12.8651 15.5674 13.5651 16.2744 13.5651 17.1464C13.5651 18.0184 12.8651 18.7254 12.0011 18.7254C11.1381 18.7254 10.4381 18.0184 10.4381 17.1464C10.4381 16.2744 11.1381 15.5674 12.0011 15.5674ZM13.1501 9.32344C13.1501 9.01244 13.0271 8.71544 12.8081 8.49544C12.5881 8.27644 12.2911 8.15344 11.9801 8.15344C11.6701 8.15344 11.3721 8.27644 11.1531 8.49544C10.9331 8.71544 10.8101 9.01244 10.8101 9.32344C10.8101 10.4384 10.8101 12.1094 10.8101 13.2254C10.8101 13.5364 10.9331 13.8334 11.1531 14.0534C11.3721 14.2724 11.6701 14.3954 11.9801 14.3954C12.2911 14.3954 12.5881 14.2724 12.8081 14.0534C13.0271 13.8334 13.1501 13.5364 13.1501 13.2254C13.1501 12.1094 13.1501 10.4384 13.1501 9.32344Z" fill="black"/>
</svg>
