<svg width="16" height="16" viewBox="0 0 16 16" fill="none" xmlns="http://www.w3.org/2000/svg">
<path fill-rule="evenodd" clip-rule="evenodd" d="M5.47528 3.19625C4.19828 5.28125 2.49928 8.05625 1.18628 10.2002C0.627281 11.1132 0.605281 12.2582 1.12828 13.1932C1.65228 14.1272 2.64028 14.7063 3.71128 14.7063H12.2883C13.3593 14.7063 14.3473 14.1272 14.8713 13.1932C15.3953 12.2582 15.3723 11.1132 14.8133 10.2002C13.5013 8.05625 11.8013 5.28125 10.5243 3.19625C9.98628 2.31725 9.03028 1.78125 8.00028 1.78125C6.96928 1.78125 6.01328 2.31725 5.47528 3.19625ZM6.83928 4.03225C7.08728 3.62825 7.52628 3.38125 8.00028 3.38125C8.47328 3.38125 8.91328 3.62825 9.16028 4.03225L13.4483 11.0352C13.7053 11.4552 13.7163 11.9812 13.4753 12.4113C13.2343 12.8403 12.7803 13.1063 12.2883 13.1063H3.71128C3.21928 13.1063 2.76528 12.8403 2.52428 12.4113C2.28428 11.9812 2.29428 11.4552 2.55128 11.0352L6.83928 4.03225ZM8.00128 9.99425C8.65128 9.99425 9.17928 10.5273 9.17928 11.1833C9.17928 11.8403 8.65128 12.3733 8.00128 12.3733C7.35128 12.3733 6.82328 11.8403 6.82328 11.1833C6.82328 10.5273 7.35128 9.99425 8.00128 9.99425ZM8.85628 5.86725C8.85628 5.45725 8.52428 5.12525 8.11428 5.12525C8.03728 5.12525 7.95928 5.12525 7.88228 5.12525C7.47228 5.12525 7.14028 5.45725 7.14028 5.86725C7.14028 6.64125 7.14028 7.84925 7.14028 8.62325C7.14028 9.03325 7.47228 9.36525 7.88228 9.36525C7.95928 9.36525 8.03728 9.36525 8.11428 9.36525C8.52428 9.36525 8.85628 9.03325 8.85628 8.62325C8.85628 7.84925 8.85628 6.64125 8.85628 5.86725Z" fill="black"/>
</svg>
