<svg width="24" height="24" viewBox="0 0 24 24" fill="none" xmlns="http://www.w3.org/2000/svg">
<path fill-rule="evenodd" clip-rule="evenodd" d="M11.9868 2.10742C6.52483 2.10742 2.09033 6.54192 2.09033 12.0039C2.09033 17.4659 6.52483 21.9003 11.9868 21.9003C17.4487 21.9003 21.8832 17.4659 21.8832 12.0039C21.8832 6.54192 17.4487 2.10742 11.9868 2.10742ZM14.437 15.8027H9.56693C9.90493 17.2575 10.4399 18.6897 11.1791 20.0602C11.4447 20.0868 11.7142 20.1003 11.9868 20.1003C12.2705 20.1003 12.5509 20.0857 12.8265 20.057C13.5644 18.6873 14.099 17.2566 14.437 15.8027ZM7.92763 15.8027H4.83693C5.76233 17.54 7.30233 18.9008 9.16563 19.594C8.61053 18.3587 8.19913 17.0874 7.92763 15.8027ZM19.1366 15.8027H16.0763C15.8054 17.0833 15.3962 18.3496 14.8446 19.5801C16.6917 18.8825 18.2176 17.5284 19.1366 15.8027ZM19.7803 9.80512H16.3523C16.5231 11.2553 16.522 12.7318 16.3431 14.2027H19.7803C19.9777 13.5032 20.0832 12.7658 20.0832 12.0039C20.0832 11.242 19.9777 10.5045 19.7803 9.80512ZM14.7407 9.80512H9.26333C9.07643 11.2536 9.07763 12.7327 9.27453 14.2027H14.7295C14.9262 12.7322 14.9276 11.2532 14.7407 9.80512ZM7.65153 9.80512H4.19323C3.99583 10.5045 3.89033 11.242 3.89033 12.0039C3.89033 12.7658 3.99583 13.5032 4.19323 14.2027H7.66103C7.48173 12.732 7.48053 11.2551 7.65153 9.80512ZM14.869 4.43702C15.4136 5.64542 15.8231 6.90962 16.0927 8.20512H19.1366C18.2214 6.48692 16.7051 5.13702 14.869 4.43702ZM12.8408 3.95232C12.5597 3.92252 12.275 3.90742 11.9868 3.90742C11.7093 3.90742 11.435 3.92142 11.1648 3.94882C10.4296 5.28892 9.88803 6.72252 9.54883 8.20512H14.4552C14.1162 6.72382 13.5753 5.29122 12.8408 3.95232ZM9.14163 4.42292C7.28903 5.11882 5.75833 6.47502 4.83693 8.20512H7.91103C8.18183 6.90412 8.59343 5.63502 9.14163 4.42292Z" fill="black"/>
</svg>
