<svg width="16" height="16" viewBox="0 0 16 16" fill="none" xmlns="http://www.w3.org/2000/svg">
<path fill-rule="evenodd" clip-rule="evenodd" d="M7.99987 0.739258C3.99237 0.739258 0.73877 3.99286 0.73877 8.00036C0.73877 12.0079 3.99237 15.2615 7.99987 15.2615C12.0074 15.2615 15.261 12.0079 15.261 8.00036C15.261 3.99286 12.0074 0.739258 7.99987 0.739258ZM9.30817 10.5874H6.72537C6.95747 11.6724 7.33727 12.7407 7.87057 13.7601C7.91347 13.761 7.95667 13.7615 7.99987 13.7615C8.05457 13.7615 8.10907 13.7607 8.16337 13.7592C8.69647 12.7403 9.07617 11.6722 9.30817 10.5874ZM5.39947 10.5874H2.85177C3.55197 11.977 4.79847 13.0451 6.30877 13.5089C5.89237 12.5592 5.59057 11.5787 5.39947 10.5874ZM13.148 10.5874H10.6341C10.4439 11.5744 10.1438 12.5508 9.73007 13.4967C11.2228 13.0266 12.4539 11.9649 13.148 10.5874ZM13.617 6.71566H10.8257C10.9038 7.56586 10.903 8.42726 10.8209 9.28736H13.5639C13.5814 9.28736 13.5988 9.28806 13.616 9.28936C13.7108 8.87526 13.761 8.44356 13.761 8.00036C13.761 7.55866 13.7112 7.12856 13.617 6.71566ZM9.52077 6.71566H6.51277C6.42647 7.56496 6.42737 8.42756 6.51827 9.28736H9.51527C9.60607 8.42746 9.60707 7.56506 9.52077 6.71566ZM5.20777 6.71566H2.38277C2.28857 7.12856 2.23877 7.55866 2.23877 8.00036C2.23877 8.44266 2.28867 8.87336 2.38327 9.28736H5.21267C5.13057 8.42746 5.12977 7.56606 5.20777 6.71566ZM6.29807 2.49516C4.79187 2.96086 3.54897 4.02816 2.85057 5.41566H5.39037C5.58137 4.40896 5.88537 3.42786 6.29807 2.49516ZM8.16657 2.24166C8.11097 2.24006 8.05547 2.23926 7.99987 2.23926C7.95567 2.23926 7.91157 2.23976 7.86737 2.24076C7.33517 3.23626 6.94887 4.30696 6.71507 5.41566H9.31837C9.08467 4.30746 8.69857 3.23706 8.16657 2.24166ZM9.74087 2.50746C10.1508 3.43636 10.4529 4.41316 10.6432 5.41566H13.1492C12.4569 4.04026 11.2295 2.97946 9.74087 2.50746Z" fill="black"/>
</svg>
