<svg width="24" height="24" viewBox="0 0 24 24" fill="none" xmlns="http://www.w3.org/2000/svg">
<path fill-rule="evenodd" clip-rule="evenodd" d="M10.7567 16.8919C11.4779 16.1707 12.649 16.1707 13.3702 16.8919C14.0914 17.6131 14.0914 18.7842 13.3702 19.5053C12.649 20.2266 11.4779 20.2266 10.7567 19.5053C10.0355 18.7842 10.0355 17.6131 10.7567 16.8919ZM7.25796 14.5079C7.41668 14.3017 7.59049 14.1034 7.77938 13.9145C10.1438 11.5502 13.9831 11.5502 16.3474 13.9145C16.5269 14.094 16.6927 14.2819 16.8449 14.477C17.164 14.886 17.7552 14.959 18.1642 14.6398C18.5732 14.3206 18.6462 13.7295 18.327 13.3205C18.128 13.0655 17.9113 12.8198 17.6767 12.5852C14.5787 9.48714 9.54816 9.48714 6.45008 12.5852C6.20316 12.8321 5.97591 13.0914 5.76841 13.361C5.4519 13.772 5.52867 14.3627 5.93975 14.6792C6.35084 14.9957 6.94146 14.9189 7.25796 14.5079ZM2.83868 10.1065C3.01395 9.9072 3.1966 9.71219 3.38689 9.5219C8.17566 4.73313 15.9514 4.73313 20.7402 9.5219C20.9305 9.71219 21.1132 9.90726 21.2884 10.1065C21.6308 10.4962 22.2252 10.5345 22.6149 10.1921C23.0046 9.84964 23.043 9.25524 22.7005 8.86555C22.4988 8.63611 22.2886 8.41166 22.0695 8.19259C16.5471 2.67018 7.57999 2.67018 2.05758 8.19259C1.83851 8.41166 1.62828 8.63611 1.42663 8.86555C1.08413 9.25524 1.12248 9.84964 1.51223 10.1921C1.90185 10.5345 2.49632 10.4962 2.83868 10.1065Z" fill="black"/>
</svg>
