<svg width="16" height="16" viewBox="0 0 16 16" fill="none" xmlns="http://www.w3.org/2000/svg">
<g clip-path="url(#clip0_35705_35685)">
<path fill-rule="evenodd" clip-rule="evenodd" d="M7.63997 1.3694C8.05277 1.92257 8.22596 2.63543 8.093 3.44131C7.89248 4.65662 7.13748 5.39674 6.1871 5.79752C5.28893 6.17628 4.19976 6.26475 3.18305 6.26475H1.34932C0.90749 6.26475 0.549317 5.90658 0.549316 5.46475C0.549316 5.02292 0.907487 4.66475 1.34932 4.66475H3.18305C4.14992 4.66475 4.97313 4.573 5.5654 4.32324C6.10547 4.09549 6.41899 3.75878 6.51434 3.18085C6.58313 2.76387 6.48684 2.49942 6.35766 2.32632C6.21754 2.13855 5.98472 1.98829 5.6852 1.91453C5.02294 1.75145 4.45963 2.01729 4.28908 2.38171C4.10179 2.78188 3.62556 2.95445 3.22539 2.76717C2.82522 2.57988 2.65265 2.10365 2.83994 1.70348C3.44561 0.409355 4.95364 0.0865818 6.06778 0.360945C6.65647 0.505912 7.23811 0.830892 7.63997 1.3694Z" fill="black"/>
<path fill-rule="evenodd" clip-rule="evenodd" d="M11.4017 14.6156C11.8531 14.0189 12.0436 13.2445 11.8977 12.3606C11.7916 11.7179 11.5381 11.1853 11.1439 10.7695C10.7553 10.3597 10.2738 10.1093 9.78143 9.95285C8.8474 9.65616 7.7164 9.65623 6.7582 9.6563L1.33516 9.65639C0.89333 9.65639 0.535157 10.0146 0.535156 10.4564C0.535156 10.8982 0.893327 11.2564 1.33516 11.2564L6.7167 11.2563C7.75473 11.2563 8.63343 11.267 9.29705 11.4778C9.61024 11.5772 9.82986 11.7091 9.9828 11.8704C10.13 12.0256 10.2583 12.2529 10.3191 12.6212C10.4008 13.1163 10.2866 13.4375 10.1257 13.6501C9.95347 13.8778 9.67103 14.0537 9.31429 14.1368C8.53813 14.3176 7.83293 14.0076 7.60954 13.5305C7.42218 13.1304 6.94593 12.9579 6.54579 13.1453C6.14566 13.3326 5.97317 13.8089 6.16052 14.209C6.81286 15.6022 8.44696 15.9817 9.67736 15.695C10.3239 15.5444 10.9616 15.1972 11.4017 14.6156Z" fill="black"/>
<path fill-rule="evenodd" clip-rule="evenodd" d="M9.88259 3.85621C12.0365 1.50657 15.5026 3.27783 15.2341 5.85225C15.1759 6.41041 15.001 6.91061 14.6868 7.33321C14.3735 7.75449 13.9564 8.05208 13.4855 8.26042C12.5765 8.66257 11.3815 8.76719 10.0616 8.76719H1.34444C0.902609 8.76719 0.544436 8.40902 0.544435 7.96719C0.544434 7.52537 0.902606 7.16719 1.34443 7.16719H10.0616C11.357 7.16719 12.2586 7.05364 12.8382 6.79721C13.1116 6.67627 13.2868 6.53448 13.4028 6.3785C13.5178 6.22384 13.6091 6.00891 13.6427 5.68627C13.7417 4.73755 12.2366 3.656 11.062 4.93738C10.7635 5.26307 10.2574 5.28507 9.93172 4.98651C9.60603 4.68795 9.58403 4.1819 9.88259 3.85621Z" fill="black"/>
</g>
<defs>
<clipPath id="clip0_35705_35685">
<rect width="16" height="16" fill="white"/>
</clipPath>
</defs>
</svg>
