<svg width="24" height="24" viewBox="0 0 24 24" fill="none" xmlns="http://www.w3.org/2000/svg">
<path fill-rule="evenodd" clip-rule="evenodd" d="M7.34986 5.9999H5.68506C4.71356 5.9999 3.78566 6.4038 3.12356 7.1148C2.46146 7.8259 2.12476 8.7801 2.19396 9.7492L2.73736 17.3561C2.92426 19.9727 5.10146 21.9999 7.72466 21.9999C10.2967 21.9999 13.7037 21.9999 16.2757 21.9999C18.8989 21.9999 21.0761 19.9727 21.263 17.3561L21.8064 9.7492C21.8756 8.7801 21.5389 7.8259 20.8768 7.1148C20.2147 6.4038 19.2868 5.9999 18.3152 5.9999H16.6486L16.3854 4.4762L16.3849 4.4735C16.1317 3.0461 14.9401 2.0376 13.5897 2.0376H10.392C9.02686 2.0376 7.83426 3.0603 7.59506 4.5021L7.34986 5.9999ZM4.44226 13.1534L4.73226 17.2136C4.84436 18.7835 6.15066 19.9999 7.72466 19.9999H16.2758C17.8497 19.9999 19.156 18.7835 19.2681 17.2136L19.5581 13.1534C17.6229 14.3137 15.3969 14.9419 13.1002 14.9945V15.6101C13.1002 16.2172 12.6073 16.7101 12.0002 16.7101C11.3931 16.7101 10.9002 16.2172 10.9002 15.6101V14.9945C8.60346 14.9418 6.37766 14.3138 4.44226 13.1534ZM19.7374 10.6435C17.7661 12.1777 15.3137 12.9999 12.7753 12.9999C12.2591 12.9999 11.7413 12.9999 11.2251 12.9999C8.68666 12.9999 6.23426 12.1777 4.26296 10.6435L4.18896 9.6068C4.15926 9.1914 4.30356 8.7824 4.58736 8.4777C4.87106 8.173 5.26876 7.9999 5.68506 7.9999H18.3153C18.7316 7.9999 19.1293 8.173 19.413 8.4777C19.6968 8.7824 19.8411 9.1914 19.8115 9.6067L19.7374 10.6435ZM14.6618 5.9999L14.4571 4.815C14.3754 4.3556 14.0243 3.9954 13.5897 3.9954H10.392C9.95356 3.9954 9.60336 4.3595 9.52646 4.8225L9.33376 5.9999H14.6618Z" fill="black"/>
</svg>
