<svg width="16" height="16" viewBox="0 0 16 16" fill="none" xmlns="http://www.w3.org/2000/svg">
<path fill-rule="evenodd" clip-rule="evenodd" d="M4.6467 3.22707H4.0666C3.3081 3.22707 2.5821 3.53487 2.0546 4.07987C1.5271 4.62497 1.2433 5.36077 1.2681 6.11887C1.3156 7.56627 1.3797 9.52077 1.4323 11.1245C1.4994 13.1736 3.18 14.8 5.2302 14.8C6.916 14.8 9.032 14.8 10.7139 14.8C12.7525 14.8 14.4279 13.1914 14.5108 11.1544L14.7147 6.14087C14.7457 5.37917 14.4647 4.63777 13.9367 4.08787C13.4087 3.53797 12.6793 3.22707 11.917 3.22707H11.3578L11.1693 2.38167C10.9564 1.42647 10.1088 0.74707 9.1301 0.74707C8.4472 0.74707 7.5555 0.74707 6.8721 0.74707C5.8914 0.74707 5.0426 1.42917 4.8317 2.38697L4.6467 3.22707ZM2.9553 8.75197L3.0314 11.0721C3.0703 12.2584 4.0432 13.2 5.2302 13.2H10.7139C11.8942 13.2 12.8641 12.2687 12.9121 11.0894L13.0055 8.79257C12.1417 9.18207 10.7388 9.64457 8.8153 9.74237V10.4474C8.8153 10.889 8.4568 11.2474 8.0153 11.2474C7.5738 11.2474 7.2153 10.889 7.2153 10.4474V9.73597C5.2654 9.62327 3.8243 9.13997 2.9553 8.75197ZM13.0809 6.93817L13.116 6.07587C13.1293 5.74947 13.0089 5.43167 12.7826 5.19597C12.5563 4.96037 12.2437 4.82707 11.917 4.82707H4.0666C3.7416 4.82707 3.4304 4.95897 3.2043 5.19257C2.9783 5.42617 2.8566 5.74157 2.8673 6.06647L2.8952 6.91717L2.9002 6.92027C2.9002 6.92027 4.749 8.16157 8.0684 8.16157C11.2663 8.16157 12.9801 7.00817 13.0809 6.93817ZM9.7185 3.22707L9.6077 2.72987C9.5578 2.50617 9.3593 2.34707 9.1301 2.34707H6.8721C6.6424 2.34707 6.4437 2.50677 6.3943 2.73107L6.285 3.22707H9.7185Z" fill="black"/>
</svg>
