<svg width="24" height="24" viewBox="0 0 24 24" fill="none" xmlns="http://www.w3.org/2000/svg">
<path fill-rule="evenodd" clip-rule="evenodd" d="M16.6002 18.0112L20.2702 21.6812C20.6602 22.0712 21.2902 22.0712 21.6802 21.6812C22.0702 21.2912 22.0702 20.6572 21.6802 20.2672L18.0102 16.5962C19.2402 15.0582 19.9702 13.1072 19.9702 10.9862C19.9702 6.02023 15.9502 1.99023 10.9802 1.99023C6.02023 1.99023 1.99023 6.02023 1.99023 10.9862C1.99023 15.9522 6.02023 19.9832 10.9802 19.9832C13.1102 19.9832 15.0602 19.2452 16.6002 18.0112ZM10.9802 3.99023C14.8402 3.99023 17.9702 7.12023 17.9702 10.9862C17.9702 14.8472 14.8402 17.9832 10.9802 17.9832C7.13023 17.9832 3.99023 14.8472 3.99023 10.9862C3.99023 7.12023 7.13023 3.99023 10.9802 3.99023ZM9.98023 9.95023H6.91023C6.33023 9.95023 5.86023 10.4202 5.86023 11.0002C5.86023 11.5802 6.33023 12.0502 6.91023 12.0502H9.98023V15.1512C9.98023 15.7312 10.4502 16.2012 11.0302 16.2012C11.6102 16.2012 12.0802 15.7312 12.0802 15.1512V12.0502H15.1802C15.7602 12.0502 16.2302 11.5802 16.2302 11.0002C16.2302 10.4202 15.7602 9.95023 15.1802 9.95023H12.0802V6.88023C12.0802 6.30023 11.6102 5.83023 11.0302 5.83023C10.4502 5.83023 9.98023 6.30023 9.98023 6.88023V9.95023Z" fill="black"/>
</svg>
